<?xml version="1.0" encoding="UTF-8" standalone="no"?>
<!DOCTYPE svg PUBLIC "-//W3C//DTD SVG 1.1//EN"
 "http://www.w3.org/Graphics/SVG/1.1/DTD/svg11.dtd">
<!-- Generated by graphviz version 2.38.0 (20140413.2041)
 -->
<!-- Title: /home/travis/build/konsim83/MPI&#45;MSFEC/include/linear_algebra/approximate_schur_complement.h Pages: 1 -->
<svg width="2126pt" height="302pt"
 viewBox="0.00 0.00 2125.50 302.00" xmlns="http://www.w3.org/2000/svg" xmlns:xlink="http://www.w3.org/1999/xlink">
<g id="graph0" class="graph" transform="scale(1 1) rotate(0) translate(4 298)">
<title>/home/travis/build/konsim83/MPI&#45;MSFEC/include/linear_algebra/approximate_schur_complement.h</title>
<polygon fill="white" stroke="none" points="-4,4 -4,-298 2121.5,-298 2121.5,4 -4,4"/>
<!-- Node1 -->
<g id="node1" class="node"><title>Node1</title>
<polygon fill="#bfbfbf" stroke="black" points="1193,-225.5 1193,-293.5 1423,-293.5 1423,-225.5 1193,-225.5"/>
<text text-anchor="start" x="1201" y="-278.3" font-family="Helvetica,sans-Serif" font-size="14.00">/home/travis/build</text>
<text text-anchor="start" x="1201" y="-263.3" font-family="Helvetica,sans-Serif" font-size="14.00">/konsim83/MPI&#45;MSFEC</text>
<text text-anchor="start" x="1201" y="-248.3" font-family="Helvetica,sans-Serif" font-size="14.00">/include/linear_algebra</text>
<text text-anchor="middle" x="1308" y="-233.3" font-family="Helvetica,sans-Serif" font-size="14.00">/approximate_schur_complement.h</text>
</g>
<!-- Node2 -->
<g id="node2" class="node"><title>Node2</title>
<g id="a_node2"><a xlink:href="config_8h.html" target="_top" xlink:title="config.h">
<polygon fill="white" stroke="black" points="369,-83 369,-106 433,-106 433,-83 369,-83"/>
<text text-anchor="middle" x="401" y="-90.8" font-family="Helvetica,sans-Serif" font-size="14.00">config.h</text>
</a>
</g>
</g>
<!-- Node1&#45;&gt;Node2 -->
<g id="edge1" class="edge"><title>Node1&#45;&gt;Node2</title>
<path fill="none" stroke="midnightblue" d="M1192.99,-250.237C1024.63,-235.715 702.764,-198.704 442,-114 438.449,-112.846 434.794,-111.479 431.198,-110.016"/>
<polygon fill="midnightblue" stroke="midnightblue" points="432.497,-106.765 421.929,-106.009 429.719,-113.19 432.497,-106.765"/>
</g>
<!-- Node10 -->
<g id="node10" class="node"><title>Node10</title>
<polygon fill="white" stroke="#bfbfbf" points="451.5,-83 451.5,-106 618.5,-106 618.5,-83 451.5,-83"/>
<text text-anchor="middle" x="535" y="-90.8" font-family="Helvetica,sans-Serif" font-size="14.00">deal.II/base/subscriptor.h</text>
</g>
<!-- Node1&#45;&gt;Node10 -->
<g id="edge9" class="edge"><title>Node1&#45;&gt;Node10</title>
<path fill="none" stroke="midnightblue" d="M1192.69,-234.185C1025.91,-199.017 723.326,-135.212 595.055,-108.164"/>
<polygon fill="midnightblue" stroke="midnightblue" points="595.531,-104.687 585.024,-106.048 594.087,-111.536 595.531,-104.687"/>
</g>
<!-- Node11 -->
<g id="node11" class="node"><title>Node11</title>
<g id="a_node11"><a xlink:href="inverse__matrix_8h.html" target="_top" xlink:title="linear_algebra/inverse\l_matrix.h">
<polygon fill="white" stroke="black" points="1182.5,-150.5 1182.5,-188.5 1331.5,-188.5 1331.5,-150.5 1182.5,-150.5"/>
<text text-anchor="start" x="1190.5" y="-173.3" font-family="Helvetica,sans-Serif" font-size="14.00">linear_algebra/inverse</text>
<text text-anchor="middle" x="1257" y="-158.3" font-family="Helvetica,sans-Serif" font-size="14.00">_matrix.h</text>
</a>
</g>
</g>
<!-- Node1&#45;&gt;Node11 -->
<g id="edge10" class="edge"><title>Node1&#45;&gt;Node11</title>
<path fill="none" stroke="midnightblue" d="M1288.86,-225.482C1283.49,-216.215 1277.72,-206.255 1272.58,-197.391"/>
<polygon fill="midnightblue" stroke="midnightblue" points="1275.55,-195.524 1267.51,-188.627 1269.49,-199.034 1275.55,-195.524"/>
</g>
<!-- Node20 -->
<g id="node20" class="node"><title>Node20</title>
<polygon fill="white" stroke="#bfbfbf" points="2050.5,-83 2050.5,-106 2117.5,-106 2117.5,-83 2050.5,-83"/>
<text text-anchor="middle" x="2084" y="-90.8" font-family="Helvetica,sans-Serif" font-size="14.00">memory</text>
</g>
<!-- Node1&#45;&gt;Node20 -->
<g id="edge23" class="edge"><title>Node1&#45;&gt;Node20</title>
<path fill="none" stroke="midnightblue" d="M1325.38,-225.228C1341.04,-196.649 1363.88,-158.711 1379,-150 1506.84,-76.3272 1898.49,-148.295 2042,-114 2046.18,-113 2050.47,-111.599 2054.63,-110.01"/>
<polygon fill="midnightblue" stroke="midnightblue" points="2056.15,-113.17 2064.01,-106.063 2053.43,-106.718 2056.15,-113.17"/>
</g>
<!-- Node22 -->
<g id="node22" class="node"><title>Node22</title>
<polygon fill="white" stroke="#bfbfbf" points="1387.5,-158 1387.5,-181 1440.5,-181 1440.5,-158 1387.5,-158"/>
<text text-anchor="middle" x="1414" y="-165.8" font-family="Helvetica,sans-Serif" font-size="14.00">vector</text>
</g>
<!-- Node1&#45;&gt;Node22 -->
<g id="edge24" class="edge"><title>Node1&#45;&gt;Node22</title>
<path fill="none" stroke="midnightblue" d="M1347.77,-225.482C1363.19,-212.679 1380.21,-198.552 1393.13,-187.824"/>
<polygon fill="midnightblue" stroke="midnightblue" points="1395.52,-190.393 1400.98,-181.313 1391.05,-185.007 1395.52,-190.393"/>
</g>
<!-- Node23 -->
<g id="node23" class="node"><title>Node23</title>
<g id="a_node23"><a xlink:href="approximate__schur__complement_8tpp.html" target="_top" xlink:title="linear_algebra/approximate\l_schur_complement.tpp">
<polygon fill="white" stroke="black" points="1458.5,-150.5 1458.5,-188.5 1639.5,-188.5 1639.5,-150.5 1458.5,-150.5"/>
<text text-anchor="start" x="1466.5" y="-173.3" font-family="Helvetica,sans-Serif" font-size="14.00">linear_algebra/approximate</text>
<text text-anchor="middle" x="1549" y="-158.3" font-family="Helvetica,sans-Serif" font-size="14.00">_schur_complement.tpp</text>
</a>
</g>
</g>
<!-- Node1&#45;&gt;Node23 -->
<g id="edge25" class="edge"><title>Node1&#45;&gt;Node23</title>
<path fill="none" stroke="midnightblue" d="M1398.43,-225.482C1429.13,-214.27 1462.62,-202.041 1490.2,-191.97"/>
<polygon fill="midnightblue" stroke="midnightblue" points="1491.5,-195.22 1499.7,-188.503 1489.1,-188.645 1491.5,-195.22"/>
</g>
<!-- Node3 -->
<g id="node3" class="node"><title>Node3</title>
<polygon fill="white" stroke="#bfbfbf" points="0,-8 0,-31 124,-31 124,-8 0,-8"/>
<text text-anchor="middle" x="62" y="-15.8" font-family="Helvetica,sans-Serif" font-size="14.00">deal.II/base/mpi.h</text>
</g>
<!-- Node2&#45;&gt;Node3 -->
<g id="edge2" class="edge"><title>Node2&#45;&gt;Node3</title>
<path fill="none" stroke="midnightblue" d="M368.7,-87.5185C318.222,-78.0386 217.645,-58.619 133,-39 125.834,-37.339 118.288,-35.486 110.898,-33.612"/>
<polygon fill="midnightblue" stroke="midnightblue" points="111.524,-30.1594 100.968,-31.0598 109.782,-36.939 111.524,-30.1594"/>
</g>
<!-- Node4 -->
<g id="node4" class="node"><title>Node4</title>
<polygon fill="white" stroke="#bfbfbf" points="142,-0.5 142,-38.5 264,-38.5 264,-0.5 142,-0.5"/>
<text text-anchor="start" x="150" y="-23.3" font-family="Helvetica,sans-Serif" font-size="14.00">deal.II/lac/generic</text>
<text text-anchor="middle" x="203" y="-8.3" font-family="Helvetica,sans-Serif" font-size="14.00">_linear_algebra.h</text>
</g>
<!-- Node2&#45;&gt;Node4 -->
<g id="edge3" class="edge"><title>Node2&#45;&gt;Node4</title>
<path fill="none" stroke="midnightblue" d="M372.209,-82.8852C343.361,-72.2493 298.127,-55.5719 261.683,-42.1356"/>
<polygon fill="midnightblue" stroke="midnightblue" points="262.735,-38.7932 252.142,-38.6178 260.313,-45.3611 262.735,-38.7932"/>
</g>
<!-- Node5 -->
<g id="node5" class="node"><title>Node5</title>
<polygon fill="white" stroke="#bfbfbf" points="282.5,-8 282.5,-31 355.5,-31 355.5,-8 282.5,-8"/>
<text text-anchor="middle" x="319" y="-15.8" font-family="Helvetica,sans-Serif" font-size="14.00">algorithm</text>
</g>
<!-- Node2&#45;&gt;Node5 -->
<g id="edge4" class="edge"><title>Node2&#45;&gt;Node5</title>
<path fill="none" stroke="midnightblue" d="M388.901,-82.7286C375.623,-70.9079 354.116,-51.7622 338.461,-37.8252"/>
<polygon fill="midnightblue" stroke="midnightblue" points="340.679,-35.1134 330.882,-31.0783 336.024,-40.3418 340.679,-35.1134"/>
</g>
<!-- Node6 -->
<g id="node6" class="node"><title>Node6</title>
<polygon fill="white" stroke="#bfbfbf" points="374,-8 374,-31 428,-31 428,-8 374,-8"/>
<text text-anchor="middle" x="401" y="-15.8" font-family="Helvetica,sans-Serif" font-size="14.00">cmath</text>
</g>
<!-- Node2&#45;&gt;Node6 -->
<g id="edge5" class="edge"><title>Node2&#45;&gt;Node6</title>
<path fill="none" stroke="midnightblue" d="M401,-82.7286C401,-71.9459 401,-55.0681 401,-41.6087"/>
<polygon fill="midnightblue" stroke="midnightblue" points="404.5,-41.3156 401,-31.3156 397.5,-41.3156 404.5,-41.3156"/>
</g>
<!-- Node7 -->
<g id="node7" class="node"><title>Node7</title>
<polygon fill="white" stroke="#bfbfbf" points="446.5,-8 446.5,-31 511.5,-31 511.5,-8 446.5,-8"/>
<text text-anchor="middle" x="479" y="-15.8" font-family="Helvetica,sans-Serif" font-size="14.00">iomanip</text>
</g>
<!-- Node2&#45;&gt;Node7 -->
<g id="edge6" class="edge"><title>Node2&#45;&gt;Node7</title>
<path fill="none" stroke="midnightblue" d="M412.509,-82.7286C425.024,-71.0164 445.222,-52.1129 460.077,-38.2101"/>
<polygon fill="midnightblue" stroke="midnightblue" points="462.788,-40.4669 467.697,-31.0783 458.004,-35.356 462.788,-40.4669"/>
</g>
<!-- Node8 -->
<g id="node8" class="node"><title>Node8</title>
<polygon fill="white" stroke="#bfbfbf" points="530,-8 530,-31 578,-31 578,-8 530,-8"/>
<text text-anchor="middle" x="554" y="-15.8" font-family="Helvetica,sans-Serif" font-size="14.00">limits</text>
</g>
<!-- Node2&#45;&gt;Node8 -->
<g id="edge7" class="edge"><title>Node2&#45;&gt;Node8</title>
<path fill="none" stroke="midnightblue" d="M424.353,-82.9092C456.349,-68.3824 510.906,-43.5498 520,-39 522.002,-37.9984 524.059,-36.9442 526.122,-35.868"/>
<polygon fill="midnightblue" stroke="midnightblue" points="527.881,-38.8965 535.06,-31.1046 524.589,-32.7189 527.881,-38.8965"/>
</g>
<!-- Node9 -->
<g id="node9" class="node"><title>Node9</title>
<polygon fill="white" stroke="#bfbfbf" points="596.5,-8 596.5,-31 675.5,-31 675.5,-8 596.5,-8"/>
<text text-anchor="middle" x="636" y="-15.8" font-family="Helvetica,sans-Serif" font-size="14.00">type_traits</text>
</g>
<!-- Node2&#45;&gt;Node9 -->
<g id="edge8" class="edge"><title>Node2&#45;&gt;Node9</title>
<path fill="none" stroke="midnightblue" d="M422.407,-82.9626C428.633,-80.1396 435.507,-77.2503 442,-75 504.74,-53.2565 523.608,-58.7611 587,-39 591.316,-37.6546 595.804,-36.1339 600.234,-34.5569"/>
<polygon fill="midnightblue" stroke="midnightblue" points="601.571,-37.7944 609.751,-31.0605 599.157,-31.2238 601.571,-37.7944"/>
</g>
<!-- Node11&#45;&gt;Node2 -->
<g id="edge21" class="edge"><title>Node11&#45;&gt;Node2</title>
<path fill="none" stroke="midnightblue" d="M1182.38,-166.899C1008.58,-162.625 581.025,-148.807 442,-114 438.023,-113.004 433.953,-111.639 429.995,-110.097"/>
<polygon fill="midnightblue" stroke="midnightblue" points="431.074,-106.752 420.505,-106.013 428.307,-113.181 431.074,-106.752"/>
</g>
<!-- Node11&#45;&gt;Node10 -->
<g id="edge11" class="edge"><title>Node11&#45;&gt;Node10</title>
<path fill="none" stroke="midnightblue" d="M1182.5,-164.767C1064.29,-158.234 826.686,-142.622 627,-114 615.649,-112.373 603.586,-110.242 592.06,-108.008"/>
<polygon fill="midnightblue" stroke="midnightblue" points="592.591,-104.545 582.1,-106.027 591.225,-111.411 592.591,-104.545"/>
</g>
<!-- Node12 -->
<g id="node12" class="node"><title>Node12</title>
<polygon fill="white" stroke="#bfbfbf" points="636.5,-83 636.5,-106 839.5,-106 839.5,-83 636.5,-83"/>
<text text-anchor="middle" x="738" y="-90.8" font-family="Helvetica,sans-Serif" font-size="14.00">deal.II/lac/petsc_precondition.h</text>
</g>
<!-- Node11&#45;&gt;Node12 -->
<g id="edge12" class="edge"><title>Node11&#45;&gt;Node12</title>
<path fill="none" stroke="midnightblue" d="M1182.26,-159.319C1100.18,-149.054 964.524,-131.557 848,-114 835.106,-112.057 821.384,-109.856 808.163,-107.668"/>
<polygon fill="midnightblue" stroke="midnightblue" points="808.611,-104.195 798.172,-106.001 807.459,-111.099 808.611,-104.195"/>
</g>
<!-- Node13 -->
<g id="node13" class="node"><title>Node13</title>
<polygon fill="white" stroke="#bfbfbf" points="857.5,-83 857.5,-106 1022.5,-106 1022.5,-83 857.5,-83"/>
<text text-anchor="middle" x="940" y="-90.8" font-family="Helvetica,sans-Serif" font-size="14.00">deal.II/lac/petsc_solver.h</text>
</g>
<!-- Node11&#45;&gt;Node13 -->
<g id="edge13" class="edge"><title>Node11&#45;&gt;Node13</title>
<path fill="none" stroke="midnightblue" d="M1182.28,-151.292C1125.13,-138.133 1047.6,-120.279 995.788,-108.347"/>
<polygon fill="midnightblue" stroke="midnightblue" points="996.312,-104.876 985.782,-106.043 994.741,-111.698 996.312,-104.876"/>
</g>
<!-- Node14 -->
<g id="node14" class="node"><title>Node14</title>
<polygon fill="white" stroke="#bfbfbf" points="1040.5,-83 1040.5,-106 1165.5,-106 1165.5,-83 1040.5,-83"/>
<text text-anchor="middle" x="1103" y="-90.8" font-family="Helvetica,sans-Serif" font-size="14.00">deal.II/lac/solver.h</text>
</g>
<!-- Node11&#45;&gt;Node14 -->
<g id="edge14" class="edge"><title>Node11&#45;&gt;Node14</title>
<path fill="none" stroke="midnightblue" d="M1218.93,-150.455C1192.98,-138.155 1159.03,-122.06 1134.58,-110.471"/>
<polygon fill="midnightblue" stroke="midnightblue" points="1135.93,-107.234 1125.39,-106.114 1132.93,-113.56 1135.93,-107.234"/>
</g>
<!-- Node15 -->
<g id="node15" class="node"><title>Node15</title>
<polygon fill="white" stroke="#bfbfbf" points="1183.5,-83 1183.5,-106 1330.5,-106 1330.5,-83 1183.5,-83"/>
<text text-anchor="middle" x="1257" y="-90.8" font-family="Helvetica,sans-Serif" font-size="14.00">deal.II/lac/solver_cg.h</text>
</g>
<!-- Node11&#45;&gt;Node15 -->
<g id="edge15" class="edge"><title>Node11&#45;&gt;Node15</title>
<path fill="none" stroke="midnightblue" d="M1257,-150.455C1257,-140.177 1257,-127.249 1257,-116.515"/>
<polygon fill="midnightblue" stroke="midnightblue" points="1260.5,-116.325 1257,-106.325 1253.5,-116.325 1260.5,-116.325"/>
</g>
<!-- Node16 -->
<g id="node16" class="node"><title>Node16</title>
<polygon fill="white" stroke="#bfbfbf" points="1349,-75.5 1349,-113.5 1463,-113.5 1463,-75.5 1349,-75.5"/>
<text text-anchor="start" x="1357" y="-98.3" font-family="Helvetica,sans-Serif" font-size="14.00">deal.II/lac/solver</text>
<text text-anchor="middle" x="1406" y="-83.3" font-family="Helvetica,sans-Serif" font-size="14.00">_gmres.h</text>
</g>
<!-- Node11&#45;&gt;Node16 -->
<g id="edge16" class="edge"><title>Node11&#45;&gt;Node16</title>
<path fill="none" stroke="midnightblue" d="M1293.83,-150.455C1313.8,-140.672 1338.67,-128.488 1359.91,-118.081"/>
<polygon fill="midnightblue" stroke="midnightblue" points="1361.64,-121.133 1369.08,-113.59 1358.56,-114.847 1361.64,-121.133"/>
</g>
<!-- Node17 -->
<g id="node17" class="node"><title>Node17</title>
<polygon fill="white" stroke="#bfbfbf" points="1481,-75.5 1481,-113.5 1595,-113.5 1595,-75.5 1481,-75.5"/>
<text text-anchor="start" x="1489" y="-98.3" font-family="Helvetica,sans-Serif" font-size="14.00">deal.II/lac/solver</text>
<text text-anchor="middle" x="1538" y="-83.3" font-family="Helvetica,sans-Serif" font-size="14.00">_minres.h</text>
</g>
<!-- Node11&#45;&gt;Node17 -->
<g id="edge17" class="edge"><title>Node11&#45;&gt;Node17</title>
<path fill="none" stroke="midnightblue" d="M1330.26,-150.412C1369.45,-140.623 1418.76,-128.125 1471,-114.24"/>
<polygon fill="midnightblue" stroke="midnightblue" points="1472.03,-117.589 1480.79,-111.632 1470.22,-110.825 1472.03,-117.589"/>
</g>
<!-- Node18 -->
<g id="node18" class="node"><title>Node18</title>
<polygon fill="white" stroke="#bfbfbf" points="1613.5,-75.5 1613.5,-113.5 1730.5,-113.5 1730.5,-75.5 1613.5,-75.5"/>
<text text-anchor="start" x="1621.5" y="-98.3" font-family="Helvetica,sans-Serif" font-size="14.00">deal.II/lac/trilinos</text>
<text text-anchor="middle" x="1672" y="-83.3" font-family="Helvetica,sans-Serif" font-size="14.00">_precondition.h</text>
</g>
<!-- Node11&#45;&gt;Node18 -->
<g id="edge18" class="edge"><title>Node11&#45;&gt;Node18</title>
<path fill="none" stroke="midnightblue" d="M1331.82,-152.403C1336.28,-151.559 1340.69,-150.751 1345,-150 1456.36,-130.579 1488.4,-136.925 1603.25,-114.01"/>
<polygon fill="midnightblue" stroke="midnightblue" points="1604.03,-117.423 1613.14,-112.007 1602.64,-110.563 1604.03,-117.423"/>
</g>
<!-- Node19 -->
<g id="node19" class="node"><title>Node19</title>
<polygon fill="white" stroke="#bfbfbf" points="1748.5,-75.5 1748.5,-113.5 1865.5,-113.5 1865.5,-75.5 1748.5,-75.5"/>
<text text-anchor="start" x="1756.5" y="-98.3" font-family="Helvetica,sans-Serif" font-size="14.00">deal.II/lac/trilinos</text>
<text text-anchor="middle" x="1807" y="-83.3" font-family="Helvetica,sans-Serif" font-size="14.00">_solver.h</text>
</g>
<!-- Node11&#45;&gt;Node19 -->
<g id="edge19" class="edge"><title>Node11&#45;&gt;Node19</title>
<path fill="none" stroke="midnightblue" d="M1331.79,-152.16C1336.25,-151.378 1340.68,-150.649 1345,-150 1516.09,-124.308 1564.77,-144.794 1738.33,-114.137"/>
<polygon fill="midnightblue" stroke="midnightblue" points="1739.09,-117.557 1748.31,-112.343 1737.85,-110.668 1739.09,-117.557"/>
</g>
<!-- Node11&#45;&gt;Node20 -->
<g id="edge20" class="edge"><title>Node11&#45;&gt;Node20</title>
<path fill="none" stroke="midnightblue" d="M1331.76,-151.958C1336.23,-151.226 1340.67,-150.564 1345,-150 1652.6,-109.971 1740.21,-185.699 2042,-114 2046.19,-113.005 2050.47,-111.607 2054.64,-110.02"/>
<polygon fill="midnightblue" stroke="midnightblue" points="2056.15,-113.18 2064.01,-106.075 2053.44,-106.729 2056.15,-113.18"/>
</g>
<!-- Node21 -->
<g id="node21" class="node"><title>Node21</title>
<g id="a_node21"><a xlink:href="inverse__matrix_8tpp.html" target="_top" xlink:title="linear_algebra/inverse\l_matrix.tpp">
<polygon fill="white" stroke="black" points="1883.5,-75.5 1883.5,-113.5 2032.5,-113.5 2032.5,-75.5 1883.5,-75.5"/>
<text text-anchor="start" x="1891.5" y="-98.3" font-family="Helvetica,sans-Serif" font-size="14.00">linear_algebra/inverse</text>
<text text-anchor="middle" x="1958" y="-83.3" font-family="Helvetica,sans-Serif" font-size="14.00">_matrix.tpp</text>
</a>
</g>
</g>
<!-- Node11&#45;&gt;Node21 -->
<g id="edge22" class="edge"><title>Node11&#45;&gt;Node21</title>
<path fill="none" stroke="midnightblue" d="M1331.77,-152.041C1336.23,-151.289 1340.67,-150.599 1345,-150 1575.56,-118.093 1639.53,-146.938 1873.26,-114.13"/>
<polygon fill="midnightblue" stroke="midnightblue" points="1874.04,-117.555 1883.44,-112.678 1873.05,-110.625 1874.04,-117.555"/>
</g>
</g>
</svg>
