<?xml version="1.0" encoding="UTF-8" standalone="no"?>
<!DOCTYPE svg PUBLIC "-//W3C//DTD SVG 1.1//EN"
 "http://www.w3.org/Graphics/SVG/1.1/DTD/svg11.dtd">
<!-- Generated by graphviz version 2.38.0 (20140413.2041)
 -->
<!-- Title: /home/travis/build/konsim83/MPI&#45;MSFEC/source/functions/basis_q1_grad.inst.cc Pages: 1 -->
<svg width="1286pt" height="212pt"
 viewBox="0.00 0.00 1285.50 212.00" xmlns="http://www.w3.org/2000/svg" xmlns:xlink="http://www.w3.org/1999/xlink">
<g id="graph0" class="graph" transform="scale(1 1) rotate(0) translate(4 208)">
<title>/home/travis/build/konsim83/MPI&#45;MSFEC/source/functions/basis_q1_grad.inst.cc</title>
<polygon fill="white" stroke="none" points="-4,4 -4,-208 1281.5,-208 1281.5,4 -4,4"/>
<!-- Node1 -->
<g id="node1" class="node"><title>Node1</title>
<polygon fill="#bfbfbf" stroke="black" points="722.5,-135.5 722.5,-203.5 882.5,-203.5 882.5,-135.5 722.5,-135.5"/>
<text text-anchor="start" x="730.5" y="-188.3" font-family="Helvetica,sans-Serif" font-size="14.00">/home/travis/build</text>
<text text-anchor="start" x="730.5" y="-173.3" font-family="Helvetica,sans-Serif" font-size="14.00">/konsim83/MPI&#45;MSFEC</text>
<text text-anchor="start" x="730.5" y="-158.3" font-family="Helvetica,sans-Serif" font-size="14.00">/source/functions/basis</text>
<text text-anchor="middle" x="802.5" y="-143.3" font-family="Helvetica,sans-Serif" font-size="14.00">_q1_grad.inst.cc</text>
</g>
<!-- Node2 -->
<g id="node2" class="node"><title>Node2</title>
<g id="a_node2"><a xlink:href="basis__q1__grad_8h.html" target="_top" xlink:title="functions/basis_q1\l_grad.h">
<polygon fill="white" stroke="black" points="665.5,-60.5 665.5,-98.5 793.5,-98.5 793.5,-60.5 665.5,-60.5"/>
<text text-anchor="start" x="673.5" y="-83.3" font-family="Helvetica,sans-Serif" font-size="14.00">functions/basis_q1</text>
<text text-anchor="middle" x="729.5" y="-68.3" font-family="Helvetica,sans-Serif" font-size="14.00">_grad.h</text>
</a>
</g>
</g>
<!-- Node1&#45;&gt;Node2 -->
<g id="edge1" class="edge"><title>Node1&#45;&gt;Node2</title>
<path fill="none" stroke="midnightblue" d="M775.11,-135.482C767.18,-125.923 758.638,-115.625 751.114,-106.555"/>
<polygon fill="midnightblue" stroke="midnightblue" points="753.616,-104.089 744.537,-98.627 748.228,-108.558 753.616,-104.089"/>
</g>
<!-- Node12 -->
<g id="node12" class="node"><title>Node12</title>
<g id="a_node12"><a xlink:href="basis__q1__grad_8tpp.html" target="_top" xlink:title="functions/basis_q1\l_grad.tpp">
<polygon fill="white" stroke="black" points="811.5,-60.5 811.5,-98.5 939.5,-98.5 939.5,-60.5 811.5,-60.5"/>
<text text-anchor="start" x="819.5" y="-83.3" font-family="Helvetica,sans-Serif" font-size="14.00">functions/basis_q1</text>
<text text-anchor="middle" x="875.5" y="-68.3" font-family="Helvetica,sans-Serif" font-size="14.00">_grad.tpp</text>
</a>
</g>
</g>
<!-- Node1&#45;&gt;Node12 -->
<g id="edge11" class="edge"><title>Node1&#45;&gt;Node12</title>
<path fill="none" stroke="midnightblue" d="M829.89,-135.482C837.82,-125.923 846.362,-115.625 853.886,-106.555"/>
<polygon fill="midnightblue" stroke="midnightblue" points="856.772,-108.558 860.463,-98.627 851.384,-104.089 856.772,-108.558"/>
</g>
<!-- Node3 -->
<g id="node3" class="node"><title>Node3</title>
<polygon fill="white" stroke="#bfbfbf" points="0,-0.5 0,-23.5 149,-23.5 149,-0.5 0,-0.5"/>
<text text-anchor="middle" x="74.5" y="-8.3" font-family="Helvetica,sans-Serif" font-size="14.00">deal.II/base/function.h</text>
</g>
<!-- Node2&#45;&gt;Node3 -->
<g id="edge2" class="edge"><title>Node2&#45;&gt;Node3</title>
<path fill="none" stroke="midnightblue" d="M665.083,-73.1399C560.962,-64.3045 348.978,-45.6074 159.3,-24.1768"/>
<polygon fill="midnightblue" stroke="midnightblue" points="159.472,-20.6739 149.141,-23.0238 158.682,-27.6292 159.472,-20.6739"/>
</g>
<!-- Node4 -->
<g id="node4" class="node"><title>Node4</title>
<polygon fill="white" stroke="#bfbfbf" points="167,-0.5 167,-23.5 306,-23.5 306,-0.5 167,-0.5"/>
<text text-anchor="middle" x="236.5" y="-8.3" font-family="Helvetica,sans-Serif" font-size="14.00">deal.II/base/tensor.h</text>
</g>
<!-- Node2&#45;&gt;Node4 -->
<g id="edge3" class="edge"><title>Node2&#45;&gt;Node4</title>
<path fill="none" stroke="midnightblue" d="M665.49,-70.286C586.023,-60.0455 446.04,-41.8659 316.35,-24.2441"/>
<polygon fill="midnightblue" stroke="midnightblue" points="316.617,-20.7483 306.237,-22.8682 315.673,-27.6844 316.617,-20.7483"/>
</g>
<!-- Node5 -->
<g id="node5" class="node"><title>Node5</title>
<polygon fill="white" stroke="#bfbfbf" points="324,-0.5 324,-23.5 437,-23.5 437,-0.5 324,-0.5"/>
<text text-anchor="middle" x="380.5" y="-8.3" font-family="Helvetica,sans-Serif" font-size="14.00">deal.II/grid/tria.h</text>
</g>
<!-- Node2&#45;&gt;Node5 -->
<g id="edge4" class="edge"><title>Node2&#45;&gt;Node5</title>
<path fill="none" stroke="midnightblue" d="M665.488,-66.4863C603.415,-54.8364 509.654,-37.2395 446.812,-25.4454"/>
<polygon fill="midnightblue" stroke="midnightblue" points="447.089,-21.9364 436.615,-23.5317 445.798,-28.8163 447.089,-21.9364"/>
</g>
<!-- Node6 -->
<g id="node6" class="node"><title>Node6</title>
<polygon fill="white" stroke="#bfbfbf" points="455,-0.5 455,-23.5 630,-23.5 630,-0.5 455,-0.5"/>
<text text-anchor="middle" x="542.5" y="-8.3" font-family="Helvetica,sans-Serif" font-size="14.00">deal.II/grid/tria_accessor.h</text>
</g>
<!-- Node2&#45;&gt;Node6 -->
<g id="edge5" class="edge"><title>Node2&#45;&gt;Node6</title>
<path fill="none" stroke="midnightblue" d="M677.906,-60.4284C647.638,-49.8263 609.981,-36.6364 582.069,-26.8596"/>
<polygon fill="midnightblue" stroke="midnightblue" points="583.225,-23.5561 572.63,-23.5535 580.911,-30.1626 583.225,-23.5561"/>
</g>
<!-- Node7 -->
<g id="node7" class="node"><title>Node7</title>
<polygon fill="white" stroke="#bfbfbf" points="648,-0.5 648,-23.5 811,-23.5 811,-0.5 648,-0.5"/>
<text text-anchor="middle" x="729.5" y="-8.3" font-family="Helvetica,sans-Serif" font-size="14.00">deal.II/grid/tria_iterator.h</text>
</g>
<!-- Node2&#45;&gt;Node7 -->
<g id="edge6" class="edge"><title>Node2&#45;&gt;Node7</title>
<path fill="none" stroke="midnightblue" d="M729.5,-60.2546C729.5,-52.0428 729.5,-42.3063 729.5,-33.8114"/>
<polygon fill="midnightblue" stroke="midnightblue" points="733,-33.5919 729.5,-23.5919 726,-33.592 733,-33.5919"/>
</g>
<!-- Node8 -->
<g id="node8" class="node"><title>Node8</title>
<polygon fill="white" stroke="#bfbfbf" points="829.5,-0.5 829.5,-23.5 981.5,-23.5 981.5,-0.5 829.5,-0.5"/>
<text text-anchor="middle" x="905.5" y="-8.3" font-family="Helvetica,sans-Serif" font-size="14.00">deal.II/lac/full_matrix.h</text>
</g>
<!-- Node2&#45;&gt;Node8 -->
<g id="edge7" class="edge"><title>Node2&#45;&gt;Node8</title>
<path fill="none" stroke="midnightblue" d="M778.059,-60.4284C806.298,-49.9189 841.37,-36.8666 867.569,-27.1165"/>
<polygon fill="midnightblue" stroke="midnightblue" points="868.991,-30.3217 877.142,-23.5535 866.55,-23.7613 868.991,-30.3217"/>
</g>
<!-- Node9 -->
<g id="node9" class="node"><title>Node9</title>
<polygon fill="white" stroke="#bfbfbf" points="999.5,-0.5 999.5,-23.5 1125.5,-23.5 1125.5,-0.5 999.5,-0.5"/>
<text text-anchor="middle" x="1062.5" y="-8.3" font-family="Helvetica,sans-Serif" font-size="14.00">deal.II/lac/vector.h</text>
</g>
<!-- Node2&#45;&gt;Node9 -->
<g id="edge8" class="edge"><title>Node2&#45;&gt;Node9</title>
<path fill="none" stroke="midnightblue" d="M793.535,-62.0047C796.561,-61.3092 799.561,-60.6372 802.5,-60 865.225,-46.3997 937.055,-33.6257 989.298,-24.8377"/>
<polygon fill="midnightblue" stroke="midnightblue" points="990.192,-28.2368 999.478,-23.1342 989.037,-21.3329 990.192,-28.2368"/>
</g>
<!-- Node10 -->
<g id="node10" class="node"><title>Node10</title>
<polygon fill="white" stroke="#bfbfbf" points="1143.5,-0.5 1143.5,-23.5 1197.5,-23.5 1197.5,-0.5 1143.5,-0.5"/>
<text text-anchor="middle" x="1170.5" y="-8.3" font-family="Helvetica,sans-Serif" font-size="14.00">cmath</text>
</g>
<!-- Node2&#45;&gt;Node10 -->
<g id="edge9" class="edge"><title>Node2&#45;&gt;Node10</title>
<path fill="none" stroke="midnightblue" d="M793.88,-61.6637C796.786,-61.0682 799.669,-60.5096 802.5,-60 945.292,-34.2956 987.232,-52.9379 1132.91,-24.0182"/>
<polygon fill="midnightblue" stroke="midnightblue" points="1134.02,-27.3658 1143.12,-21.9483 1132.62,-20.5054 1134.02,-27.3658"/>
</g>
<!-- Node11 -->
<g id="node11" class="node"><title>Node11</title>
<polygon fill="white" stroke="#bfbfbf" points="1215.5,-0.5 1215.5,-23.5 1277.5,-23.5 1277.5,-0.5 1215.5,-0.5"/>
<text text-anchor="middle" x="1246.5" y="-8.3" font-family="Helvetica,sans-Serif" font-size="14.00">fstream</text>
</g>
<!-- Node2&#45;&gt;Node11 -->
<g id="edge10" class="edge"><title>Node2&#45;&gt;Node11</title>
<path fill="none" stroke="midnightblue" d="M793.868,-61.5957C796.777,-61.0187 799.664,-60.4825 802.5,-60 977.002,-30.3083 1027.29,-55.0977 1205.23,-23.9612"/>
<polygon fill="midnightblue" stroke="midnightblue" points="1205.95,-27.3875 1215.18,-22.1851 1204.72,-20.4964 1205.95,-27.3875"/>
</g>
</g>
</svg>
