<?xml version="1.0" encoding="UTF-8" standalone="no"?>
<!DOCTYPE svg PUBLIC "-//W3C//DTD SVG 1.1//EN"
 "http://www.w3.org/Graphics/SVG/1.1/DTD/svg11.dtd">
<!-- Generated by graphviz version 2.38.0 (20140413.2041)
 -->
<!-- Title: /home/travis/build/konsim83/MPI&#45;MSFEC/source/functions/basis_nedelec.inst.cc Pages: 1 -->
<svg width="1350pt" height="272pt"
 viewBox="0.00 0.00 1349.50 272.00" xmlns="http://www.w3.org/2000/svg" xmlns:xlink="http://www.w3.org/1999/xlink">
<g id="graph0" class="graph" transform="scale(1 1) rotate(0) translate(4 268)">
<title>/home/travis/build/konsim83/MPI&#45;MSFEC/source/functions/basis_nedelec.inst.cc</title>
<polygon fill="white" stroke="none" points="-4,4 -4,-268 1345.5,-268 1345.5,4 -4,4"/>
<!-- Node1 -->
<g id="node1" class="node"><title>Node1</title>
<polygon fill="#bfbfbf" stroke="black" points="594.5,-195.5 594.5,-263.5 754.5,-263.5 754.5,-195.5 594.5,-195.5"/>
<text text-anchor="start" x="602.5" y="-248.3" font-family="Helvetica,sans-Serif" font-size="14.00">/home/travis/build</text>
<text text-anchor="start" x="602.5" y="-233.3" font-family="Helvetica,sans-Serif" font-size="14.00">/konsim83/MPI&#45;MSFEC</text>
<text text-anchor="start" x="602.5" y="-218.3" font-family="Helvetica,sans-Serif" font-size="14.00">/source/functions/basis</text>
<text text-anchor="middle" x="674.5" y="-203.3" font-family="Helvetica,sans-Serif" font-size="14.00">_nedelec.inst.cc</text>
</g>
<!-- Node2 -->
<g id="node2" class="node"><title>Node2</title>
<g id="a_node2"><a xlink:href="basis__nedelec_8h.html" target="_top" xlink:title="functions/basis_nedelec.h">
<polygon fill="white" stroke="black" points="490.5,-135.5 490.5,-158.5 662.5,-158.5 662.5,-135.5 490.5,-135.5"/>
<text text-anchor="middle" x="576.5" y="-143.3" font-family="Helvetica,sans-Serif" font-size="14.00">functions/basis_nedelec.h</text>
</a>
</g>
</g>
<!-- Node1&#45;&gt;Node2 -->
<g id="edge1" class="edge"><title>Node1&#45;&gt;Node2</title>
<path fill="none" stroke="midnightblue" d="M634.074,-195.293C621.426,-184.904 607.992,-173.869 597.285,-165.073"/>
<polygon fill="midnightblue" stroke="midnightblue" points="599.298,-162.198 589.35,-158.555 594.855,-167.607 599.298,-162.198"/>
</g>
<!-- Node17 -->
<g id="node17" class="node"><title>Node17</title>
<g id="a_node17"><a xlink:href="basis__nedelec_8tpp.html" target="_top" xlink:title="functions/basis_nedelec.tpp">
<polygon fill="white" stroke="black" points="681,-135.5 681,-158.5 864,-158.5 864,-135.5 681,-135.5"/>
<text text-anchor="middle" x="772.5" y="-143.3" font-family="Helvetica,sans-Serif" font-size="14.00">functions/basis_nedelec.tpp</text>
</a>
</g>
</g>
<!-- Node1&#45;&gt;Node17 -->
<g id="edge21" class="edge"><title>Node1&#45;&gt;Node17</title>
<path fill="none" stroke="midnightblue" d="M714.926,-195.293C727.574,-184.904 741.008,-173.869 751.715,-165.073"/>
<polygon fill="midnightblue" stroke="midnightblue" points="754.145,-167.607 759.65,-158.555 749.702,-162.198 754.145,-167.607"/>
</g>
<!-- Node3 -->
<g id="node3" class="node"><title>Node3</title>
<polygon fill="white" stroke="#bfbfbf" points="0,-75.5 0,-98.5 149,-98.5 149,-75.5 0,-75.5"/>
<text text-anchor="middle" x="74.5" y="-83.3" font-family="Helvetica,sans-Serif" font-size="14.00">deal.II/base/function.h</text>
</g>
<!-- Node2&#45;&gt;Node3 -->
<g id="edge2" class="edge"><title>Node2&#45;&gt;Node3</title>
<path fill="none" stroke="midnightblue" d="M490.176,-136.828C407.736,-127.952 279.715,-113.863 159.285,-99.2026"/>
<polygon fill="midnightblue" stroke="midnightblue" points="159.498,-95.7027 149.148,-97.9649 158.65,-102.651 159.498,-95.7027"/>
</g>
<!-- Node4 -->
<g id="node4" class="node"><title>Node4</title>
<polygon fill="white" stroke="#bfbfbf" points="167,-75.5 167,-98.5 306,-98.5 306,-75.5 167,-75.5"/>
<text text-anchor="middle" x="236.5" y="-83.3" font-family="Helvetica,sans-Serif" font-size="14.00">deal.II/base/tensor.h</text>
</g>
<!-- Node2&#45;&gt;Node4 -->
<g id="edge3" class="edge"><title>Node2&#45;&gt;Node4</title>
<path fill="none" stroke="midnightblue" d="M514.929,-135.497C456.74,-125.57 369.463,-110.682 308.172,-100.226"/>
<polygon fill="midnightblue" stroke="midnightblue" points="308.633,-96.7546 298.187,-98.5231 307.456,-103.655 308.633,-96.7546"/>
</g>
<!-- Node5 -->
<g id="node5" class="node"><title>Node5</title>
<polygon fill="white" stroke="#bfbfbf" points="324,-75.5 324,-98.5 473,-98.5 473,-75.5 324,-75.5"/>
<text text-anchor="middle" x="398.5" y="-83.3" font-family="Helvetica,sans-Serif" font-size="14.00">deal.II/fe/fe_nedelec.h</text>
</g>
<!-- Node2&#45;&gt;Node5 -->
<g id="edge4" class="edge"><title>Node2&#45;&gt;Node5</title>
<path fill="none" stroke="midnightblue" d="M544.266,-135.497C515.247,-126.041 472.41,-112.083 440.676,-101.743"/>
<polygon fill="midnightblue" stroke="midnightblue" points="441.387,-98.2934 430.795,-98.5231 439.219,-104.949 441.387,-98.2934"/>
</g>
<!-- Node6 -->
<g id="node6" class="node"><title>Node6</title>
<polygon fill="white" stroke="#bfbfbf" points="154,-8 154,-31 267,-31 267,-8 154,-8"/>
<text text-anchor="middle" x="210.5" y="-15.8" font-family="Helvetica,sans-Serif" font-size="14.00">deal.II/grid/tria.h</text>
</g>
<!-- Node2&#45;&gt;Node6 -->
<g id="edge5" class="edge"><title>Node2&#45;&gt;Node6</title>
<path fill="none" stroke="midnightblue" d="M562.326,-135.261C536.206,-115.476 483.066,-75.2458 482.5,-75 397.258,-37.956 367.139,-59.5685 276.5,-39 269.717,-37.4606 262.59,-35.6597 255.63,-33.797"/>
<polygon fill="midnightblue" stroke="midnightblue" points="256.183,-30.3192 245.613,-31.0469 254.33,-37.0695 256.183,-30.3192"/>
</g>
<!-- Node7 -->
<g id="node7" class="node"><title>Node7</title>
<polygon fill="white" stroke="#bfbfbf" points="285,-8 285,-31 460,-31 460,-8 285,-8"/>
<text text-anchor="middle" x="372.5" y="-15.8" font-family="Helvetica,sans-Serif" font-size="14.00">deal.II/grid/tria_accessor.h</text>
</g>
<!-- Node2&#45;&gt;Node7 -->
<g id="edge6" class="edge"><title>Node2&#45;&gt;Node7</title>
<path fill="none" stroke="midnightblue" d="M569.736,-135.403C559.49,-120.117 538.649,-91.8677 514.5,-75 487.583,-56.1985 453.314,-42.8039 425.186,-33.9994"/>
<polygon fill="midnightblue" stroke="midnightblue" points="426.099,-30.6192 415.514,-31.0752 424.073,-37.3197 426.099,-30.6192"/>
</g>
<!-- Node8 -->
<g id="node8" class="node"><title>Node8</title>
<polygon fill="white" stroke="#bfbfbf" points="478,-8 478,-31 641,-31 641,-8 478,-8"/>
<text text-anchor="middle" x="559.5" y="-15.8" font-family="Helvetica,sans-Serif" font-size="14.00">deal.II/grid/tria_iterator.h</text>
</g>
<!-- Node2&#45;&gt;Node8 -->
<g id="edge7" class="edge"><title>Node2&#45;&gt;Node8</title>
<path fill="none" stroke="midnightblue" d="M575.051,-135.3C572.228,-114.461 565.95,-68.1137 562.292,-41.1138"/>
<polygon fill="midnightblue" stroke="midnightblue" points="565.756,-40.6126 560.946,-31.173 558.82,-41.5523 565.756,-40.6126"/>
</g>
<!-- Node9 -->
<g id="node9" class="node"><title>Node9</title>
<polygon fill="white" stroke="#bfbfbf" points="659.5,-8 659.5,-31 811.5,-31 811.5,-8 659.5,-8"/>
<text text-anchor="middle" x="735.5" y="-15.8" font-family="Helvetica,sans-Serif" font-size="14.00">deal.II/lac/full_matrix.h</text>
</g>
<!-- Node2&#45;&gt;Node9 -->
<g id="edge8" class="edge"><title>Node2&#45;&gt;Node9</title>
<path fill="none" stroke="midnightblue" d="M582.958,-135.497C592.532,-120.58 611.723,-93.0659 633.5,-75 653.376,-58.5107 679.03,-44.8325 699.637,-35.3034"/>
<polygon fill="midnightblue" stroke="midnightblue" points="701.318,-38.3851 709.005,-31.0935 698.449,-32.0001 701.318,-38.3851"/>
</g>
<!-- Node10 -->
<g id="node10" class="node"><title>Node10</title>
<polygon fill="white" stroke="#bfbfbf" points="1215.5,-8 1215.5,-31 1341.5,-31 1341.5,-8 1215.5,-8"/>
<text text-anchor="middle" x="1278.5" y="-15.8" font-family="Helvetica,sans-Serif" font-size="14.00">deal.II/lac/vector.h</text>
</g>
<!-- Node2&#45;&gt;Node10 -->
<g id="edge9" class="edge"><title>Node2&#45;&gt;Node10</title>
<path fill="none" stroke="midnightblue" d="M654.598,-135.471C719.313,-126.107 805.785,-111.933 838.5,-99 856.728,-91.794 857.033,-81.5714 875.5,-75 1014.91,-25.3888 1060.91,-65.4809 1206.5,-39 1214.81,-37.4894 1223.57,-35.5431 1232.01,-33.4823"/>
<polygon fill="midnightblue" stroke="midnightblue" points="1232.89,-36.8706 1241.73,-31.0298 1231.17,-30.0834 1232.89,-36.8706"/>
</g>
<!-- Node11 -->
<g id="node11" class="node"><title>Node11</title>
<polygon fill="white" stroke="#bfbfbf" points="884.5,-75.5 884.5,-98.5 938.5,-98.5 938.5,-75.5 884.5,-75.5"/>
<text text-anchor="middle" x="911.5" y="-83.3" font-family="Helvetica,sans-Serif" font-size="14.00">cmath</text>
</g>
<!-- Node2&#45;&gt;Node11 -->
<g id="edge10" class="edge"><title>Node2&#45;&gt;Node11</title>
<path fill="none" stroke="midnightblue" d="M656.775,-135.456C716.112,-127.109 798.718,-114.324 870.5,-99 871.757,-98.7317 873.033,-98.4489 874.319,-98.1549"/>
<polygon fill="midnightblue" stroke="midnightblue" points="875.362,-101.503 884.248,-95.7334 873.704,-94.7024 875.362,-101.503"/>
</g>
<!-- Node12 -->
<g id="node12" class="node"><title>Node12</title>
<polygon fill="white" stroke="#bfbfbf" points="956.5,-75.5 956.5,-98.5 1018.5,-98.5 1018.5,-75.5 956.5,-75.5"/>
<text text-anchor="middle" x="987.5" y="-83.3" font-family="Helvetica,sans-Serif" font-size="14.00">fstream</text>
</g>
<!-- Node2&#45;&gt;Node12 -->
<g id="edge11" class="edge"><title>Node2&#45;&gt;Node12</title>
<path fill="none" stroke="midnightblue" d="M662.598,-135.748C755.951,-124.536 897.275,-107.255 946.236,-98.902"/>
<polygon fill="midnightblue" stroke="midnightblue" points="946.958,-102.328 956.158,-97.0728 945.689,-95.4439 946.958,-102.328"/>
</g>
<!-- Node13 -->
<g id="node13" class="node"><title>Node13</title>
<g id="a_node13"><a xlink:href="my__mapping__q1_8h.html" target="_top" xlink:title="functions/my_mapping_q1.h">
<polygon fill="white" stroke="black" points="642,-75.5 642,-98.5 829,-98.5 829,-75.5 642,-75.5"/>
<text text-anchor="middle" x="735.5" y="-83.3" font-family="Helvetica,sans-Serif" font-size="14.00">functions/my_mapping_q1.h</text>
</a>
</g>
</g>
<!-- Node2&#45;&gt;Node13 -->
<g id="edge12" class="edge"><title>Node2&#45;&gt;Node13</title>
<path fill="none" stroke="midnightblue" d="M605.294,-135.497C630.991,-126.123 668.818,-112.324 697.087,-102.012"/>
<polygon fill="midnightblue" stroke="midnightblue" points="698.457,-105.238 706.652,-98.5231 696.058,-98.662 698.457,-105.238"/>
</g>
<!-- Node13&#45;&gt;Node6 -->
<g id="edge15" class="edge"><title>Node13&#45;&gt;Node6</title>
<path fill="none" stroke="midnightblue" d="M641.637,-81.1047C548.387,-75.1378 401.629,-62.7621 276.5,-39 269.021,-37.5798 261.159,-35.7143 253.572,-33.7146"/>
<polygon fill="midnightblue" stroke="midnightblue" points="254.382,-30.3075 243.812,-31.0347 252.529,-37.0576 254.382,-30.3075"/>
</g>
<!-- Node13&#45;&gt;Node7 -->
<g id="edge16" class="edge"><title>Node13&#45;&gt;Node7</title>
<path fill="none" stroke="midnightblue" d="M674.446,-75.4547C620.504,-66.0799 539.724,-51.9 469.5,-39 458.914,-37.0554 447.686,-34.9519 436.769,-32.8845"/>
<polygon fill="midnightblue" stroke="midnightblue" points="437.334,-29.4294 426.856,-31.0015 436.027,-36.3064 437.334,-29.4294"/>
</g>
<!-- Node13&#45;&gt;Node8 -->
<g id="edge17" class="edge"><title>Node13&#45;&gt;Node8</title>
<path fill="none" stroke="midnightblue" d="M707.223,-75.4763C677.546,-64.432 630.713,-47.0024 597.749,-34.7349"/>
<polygon fill="midnightblue" stroke="midnightblue" points="598.592,-31.3139 587.999,-31.1062 596.15,-37.8743 598.592,-31.3139"/>
</g>
<!-- Node13&#45;&gt;Node9 -->
<g id="edge18" class="edge"><title>Node13&#45;&gt;Node9</title>
<path fill="none" stroke="midnightblue" d="M735.5,-75.4763C735.5,-66.2683 735.5,-52.6221 735.5,-41.2293"/>
<polygon fill="midnightblue" stroke="midnightblue" points="739,-41.2152 735.5,-31.2152 732,-41.2152 739,-41.2152"/>
</g>
<!-- Node13&#45;&gt;Node10 -->
<g id="edge19" class="edge"><title>Node13&#45;&gt;Node10</title>
<path fill="none" stroke="midnightblue" d="M829.156,-76.3507C833.667,-75.8926 838.134,-75.4404 842.5,-75 1004.25,-58.6875 1046.42,-67.311 1206.5,-39 1214.9,-37.5138 1223.77,-35.561 1232.3,-33.4819"/>
<polygon fill="midnightblue" stroke="midnightblue" points="1233.27,-36.8466 1242.11,-31.0036 1231.56,-30.0598 1233.27,-36.8466"/>
</g>
<!-- Node14 -->
<g id="node14" class="node"><title>Node14</title>
<polygon fill="white" stroke="#bfbfbf" points="830,-0.5 830,-38.5 977,-38.5 977,-0.5 830,-0.5"/>
<text text-anchor="start" x="838" y="-23.3" font-family="Helvetica,sans-Serif" font-size="14.00">deal.II/base/geometry</text>
<text text-anchor="middle" x="903.5" y="-8.3" font-family="Helvetica,sans-Serif" font-size="14.00">_info.h</text>
</g>
<!-- Node13&#45;&gt;Node14 -->
<g id="edge13" class="edge"><title>Node13&#45;&gt;Node14</title>
<path fill="none" stroke="midnightblue" d="M762.492,-75.4763C785.409,-66.5415 819.044,-53.4279 847.716,-42.2491"/>
<polygon fill="midnightblue" stroke="midnightblue" points="849.181,-45.4345 857.227,-38.541 846.638,-38.9127 849.181,-45.4345"/>
</g>
<!-- Node15 -->
<g id="node15" class="node"><title>Node15</title>
<polygon fill="white" stroke="#bfbfbf" points="995,-8 995,-31 1126,-31 1126,-8 995,-8"/>
<text text-anchor="middle" x="1060.5" y="-15.8" font-family="Helvetica,sans-Serif" font-size="14.00">deal.II/base/point.h</text>
</g>
<!-- Node13&#45;&gt;Node15 -->
<g id="edge14" class="edge"><title>Node13&#45;&gt;Node15</title>
<path fill="none" stroke="midnightblue" d="M797.341,-75.4839C848.272,-66.568 922.289,-53.025 986.5,-39 994.232,-37.3111 1002.39,-35.4025 1010.35,-33.4688"/>
<polygon fill="midnightblue" stroke="midnightblue" points="1011.41,-36.8127 1020.28,-31.0207 1009.73,-30.0161 1011.41,-36.8127"/>
</g>
<!-- Node16 -->
<g id="node16" class="node"><title>Node16</title>
<polygon fill="white" stroke="#bfbfbf" points="1144,-8 1144,-31 1197,-31 1197,-8 1144,-8"/>
<text text-anchor="middle" x="1170.5" y="-15.8" font-family="Helvetica,sans-Serif" font-size="14.00">vector</text>
</g>
<!-- Node13&#45;&gt;Node16 -->
<g id="edge20" class="edge"><title>Node13&#45;&gt;Node16</title>
<path fill="none" stroke="midnightblue" d="M829.331,-75.8523C942.952,-63.434 1121.04,-43.4981 1135.5,-39 1138.49,-38.0704 1141.52,-36.8863 1144.49,-35.5676"/>
<polygon fill="midnightblue" stroke="midnightblue" points="1146.2,-38.6242 1153.6,-31.0433 1143.09,-32.354 1146.2,-38.6242"/>
</g>
</g>
</svg>
