<?xml version="1.0" encoding="UTF-8" standalone="no"?>
<!DOCTYPE svg PUBLIC "-//W3C//DTD SVG 1.1//EN"
 "http://www.w3.org/Graphics/SVG/1.1/DTD/svg11.dtd">
<!-- Generated by graphviz version 2.38.0 (20140413.2041)
 -->
<!-- Title: /home/travis/build/konsim83/MPI&#45;MSFEC/include/functions/basis_raviart_thomas.h Pages: 1 -->
<svg width="1330pt" height="227pt"
 viewBox="0.00 0.00 1329.50 227.00" xmlns="http://www.w3.org/2000/svg" xmlns:xlink="http://www.w3.org/1999/xlink">
<g id="graph0" class="graph" transform="scale(1 1) rotate(0) translate(4 223)">
<title>/home/travis/build/konsim83/MPI&#45;MSFEC/include/functions/basis_raviart_thomas.h</title>
<polygon fill="white" stroke="none" points="-4,4 -4,-223 1325.5,-223 1325.5,4 -4,4"/>
<!-- Node1 -->
<g id="node1" class="node"><title>Node1</title>
<polygon fill="#bfbfbf" stroke="black" points="476.5,-150.5 476.5,-218.5 636.5,-218.5 636.5,-150.5 476.5,-150.5"/>
<text text-anchor="start" x="484.5" y="-203.3" font-family="Helvetica,sans-Serif" font-size="14.00">/home/travis/build</text>
<text text-anchor="start" x="484.5" y="-188.3" font-family="Helvetica,sans-Serif" font-size="14.00">/konsim83/MPI&#45;MSFEC</text>
<text text-anchor="start" x="484.5" y="-173.3" font-family="Helvetica,sans-Serif" font-size="14.00">/include/functions/basis</text>
<text text-anchor="middle" x="556.5" y="-158.3" font-family="Helvetica,sans-Serif" font-size="14.00">_raviart_thomas.h</text>
</g>
<!-- Node2 -->
<g id="node2" class="node"><title>Node2</title>
<polygon fill="white" stroke="#bfbfbf" points="0,-83 0,-106 149,-106 149,-83 0,-83"/>
<text text-anchor="middle" x="74.5" y="-90.8" font-family="Helvetica,sans-Serif" font-size="14.00">deal.II/base/function.h</text>
</g>
<!-- Node1&#45;&gt;Node2 -->
<g id="edge1" class="edge"><title>Node1&#45;&gt;Node2</title>
<path fill="none" stroke="midnightblue" d="M476.43,-170.685C395.722,-157.503 267.678,-135.862 157.5,-114 148.567,-112.227 139.12,-110.235 129.925,-108.231"/>
<polygon fill="midnightblue" stroke="midnightblue" points="130.601,-104.797 120.082,-106.063 129.095,-111.633 130.601,-104.797"/>
</g>
<!-- Node3 -->
<g id="node3" class="node"><title>Node3</title>
<polygon fill="white" stroke="#bfbfbf" points="167,-83 167,-106 306,-106 306,-83 167,-83"/>
<text text-anchor="middle" x="236.5" y="-90.8" font-family="Helvetica,sans-Serif" font-size="14.00">deal.II/base/tensor.h</text>
</g>
<!-- Node1&#45;&gt;Node3 -->
<g id="edge2" class="edge"><title>Node1&#45;&gt;Node3</title>
<path fill="none" stroke="midnightblue" d="M476.164,-161.407C415.763,-144.797 335.026,-122.595 284.395,-108.671"/>
<polygon fill="midnightblue" stroke="midnightblue" points="285.255,-105.278 274.685,-106.001 283.399,-112.027 285.255,-105.278"/>
</g>
<!-- Node4 -->
<g id="node4" class="node"><title>Node4</title>
<polygon fill="white" stroke="#bfbfbf" points="324.5,-75.5 324.5,-113.5 452.5,-113.5 452.5,-75.5 324.5,-75.5"/>
<text text-anchor="start" x="332.5" y="-98.3" font-family="Helvetica,sans-Serif" font-size="14.00">deal.II/fe/fe_raviart</text>
<text text-anchor="middle" x="388.5" y="-83.3" font-family="Helvetica,sans-Serif" font-size="14.00">_thomas.h</text>
</g>
<!-- Node1&#45;&gt;Node4 -->
<g id="edge3" class="edge"><title>Node1&#45;&gt;Node4</title>
<path fill="none" stroke="midnightblue" d="M493.465,-150.482C472.982,-139.752 450.721,-128.092 431.993,-118.282"/>
<polygon fill="midnightblue" stroke="midnightblue" points="433.588,-115.167 423.106,-113.627 430.34,-121.367 433.588,-115.167"/>
</g>
<!-- Node5 -->
<g id="node5" class="node"><title>Node5</title>
<polygon fill="white" stroke="#bfbfbf" points="134,-8 134,-31 247,-31 247,-8 134,-8"/>
<text text-anchor="middle" x="190.5" y="-15.8" font-family="Helvetica,sans-Serif" font-size="14.00">deal.II/grid/tria.h</text>
</g>
<!-- Node1&#45;&gt;Node5 -->
<g id="edge4" class="edge"><title>Node1&#45;&gt;Node5</title>
<path fill="none" stroke="midnightblue" d="M526.678,-150.426C516.415,-138.95 504.893,-125.962 494.5,-114 479.608,-96.86 481.191,-86.3055 461.5,-75 381.277,-28.9406 346.703,-59.509 256.5,-39 249.717,-37.4578 242.591,-35.6554 235.632,-33.792"/>
<polygon fill="midnightblue" stroke="midnightblue" points="236.184,-30.3142 225.614,-31.0414 234.331,-37.0644 236.184,-30.3142"/>
</g>
<!-- Node6 -->
<g id="node6" class="node"><title>Node6</title>
<polygon fill="white" stroke="#bfbfbf" points="265,-8 265,-31 440,-31 440,-8 265,-8"/>
<text text-anchor="middle" x="352.5" y="-15.8" font-family="Helvetica,sans-Serif" font-size="14.00">deal.II/grid/tria_accessor.h</text>
</g>
<!-- Node1&#45;&gt;Node6 -->
<g id="edge5" class="edge"><title>Node1&#45;&gt;Node6</title>
<path fill="none" stroke="midnightblue" d="M544.582,-150.299C534.517,-126.468 517.964,-95.1299 494.5,-75 471.474,-55.2462 440.515,-42.246 413.381,-33.9162"/>
<polygon fill="midnightblue" stroke="midnightblue" points="414.16,-30.4974 403.579,-31.0548 412.198,-37.217 414.16,-30.4974"/>
</g>
<!-- Node7 -->
<g id="node7" class="node"><title>Node7</title>
<polygon fill="white" stroke="#bfbfbf" points="458,-8 458,-31 621,-31 621,-8 458,-8"/>
<text text-anchor="middle" x="539.5" y="-15.8" font-family="Helvetica,sans-Serif" font-size="14.00">deal.II/grid/tria_iterator.h</text>
</g>
<!-- Node1&#45;&gt;Node7 -->
<g id="edge6" class="edge"><title>Node1&#45;&gt;Node7</title>
<path fill="none" stroke="midnightblue" d="M553.019,-150.121C549.604,-117.377 544.505,-68.4858 541.644,-41.0607"/>
<polygon fill="midnightblue" stroke="midnightblue" points="545.118,-40.6288 540.6,-31.0458 538.156,-41.355 545.118,-40.6288"/>
</g>
<!-- Node8 -->
<g id="node8" class="node"><title>Node8</title>
<polygon fill="white" stroke="#bfbfbf" points="639.5,-8 639.5,-31 791.5,-31 791.5,-8 639.5,-8"/>
<text text-anchor="middle" x="715.5" y="-15.8" font-family="Helvetica,sans-Serif" font-size="14.00">deal.II/lac/full_matrix.h</text>
</g>
<!-- Node1&#45;&gt;Node8 -->
<g id="edge7" class="edge"><title>Node1&#45;&gt;Node8</title>
<path fill="none" stroke="midnightblue" d="M567.875,-150.374C577.215,-127.041 592.36,-96.2887 613.5,-75 630.965,-57.4126 655.305,-44.1139 675.828,-35.0575"/>
<polygon fill="midnightblue" stroke="midnightblue" points="677.402,-38.1921 685.249,-31.0737 674.675,-31.7448 677.402,-38.1921"/>
</g>
<!-- Node9 -->
<g id="node9" class="node"><title>Node9</title>
<polygon fill="white" stroke="#bfbfbf" points="1195.5,-8 1195.5,-31 1321.5,-31 1321.5,-8 1195.5,-8"/>
<text text-anchor="middle" x="1258.5" y="-15.8" font-family="Helvetica,sans-Serif" font-size="14.00">deal.II/lac/vector.h</text>
</g>
<!-- Node1&#45;&gt;Node9 -->
<g id="edge8" class="edge"><title>Node1&#45;&gt;Node9</title>
<path fill="none" stroke="midnightblue" d="M636.581,-173.936C690.878,-164.745 762.649,-147.138 818.5,-114 839.048,-101.808 834.091,-85.6076 855.5,-75 988.095,-9.30229 1040.91,-65.4809 1186.5,-39 1194.81,-37.4894 1203.57,-35.5431 1212.01,-33.4823"/>
<polygon fill="midnightblue" stroke="midnightblue" points="1212.89,-36.8706 1221.73,-31.0298 1211.17,-30.0834 1212.89,-36.8706"/>
</g>
<!-- Node10 -->
<g id="node10" class="node"><title>Node10</title>
<polygon fill="white" stroke="#bfbfbf" points="864.5,-83 864.5,-106 918.5,-106 918.5,-83 864.5,-83"/>
<text text-anchor="middle" x="891.5" y="-90.8" font-family="Helvetica,sans-Serif" font-size="14.00">cmath</text>
</g>
<!-- Node1&#45;&gt;Node10 -->
<g id="edge9" class="edge"><title>Node1&#45;&gt;Node10</title>
<path fill="none" stroke="midnightblue" d="M636.59,-168.891C696.373,-156.95 779.621,-138.119 850.5,-114 853.854,-112.858 857.308,-111.54 860.72,-110.144"/>
<polygon fill="midnightblue" stroke="midnightblue" points="862.319,-113.266 870.109,-106.085 859.541,-106.841 862.319,-113.266"/>
</g>
<!-- Node11 -->
<g id="node11" class="node"><title>Node11</title>
<polygon fill="white" stroke="#bfbfbf" points="936.5,-83 936.5,-106 998.5,-106 998.5,-83 936.5,-83"/>
<text text-anchor="middle" x="967.5" y="-90.8" font-family="Helvetica,sans-Serif" font-size="14.00">fstream</text>
</g>
<!-- Node1&#45;&gt;Node11 -->
<g id="edge10" class="edge"><title>Node1&#45;&gt;Node11</title>
<path fill="none" stroke="midnightblue" d="M636.796,-174.307C712.909,-164.232 829.809,-145.206 927.5,-114 930.882,-112.92 934.353,-111.623 937.768,-110.224"/>
<polygon fill="midnightblue" stroke="midnightblue" points="939.386,-113.336 947.13,-106.105 936.567,-106.929 939.386,-113.336"/>
</g>
<!-- Node12 -->
<g id="node12" class="node"><title>Node12</title>
<g id="a_node12"><a xlink:href="my__mapping__q1_8h.html" target="_top" xlink:title="functions/my_mapping_q1.h">
<polygon fill="white" stroke="black" points="622,-83 622,-106 809,-106 809,-83 622,-83"/>
<text text-anchor="middle" x="715.5" y="-90.8" font-family="Helvetica,sans-Serif" font-size="14.00">functions/my_mapping_q1.h</text>
</a>
</g>
</g>
<!-- Node1&#45;&gt;Node12 -->
<g id="edge11" class="edge"><title>Node1&#45;&gt;Node12</title>
<path fill="none" stroke="midnightblue" d="M616.158,-150.482C640.653,-136.925 667.833,-121.882 687.562,-110.963"/>
<polygon fill="midnightblue" stroke="midnightblue" points="689.28,-114.012 696.334,-106.107 685.89,-107.888 689.28,-114.012"/>
</g>
<!-- Node12&#45;&gt;Node5 -->
<g id="edge14" class="edge"><title>Node12&#45;&gt;Node5</title>
<path fill="none" stroke="midnightblue" d="M621.649,-86.6441C528.408,-78.8292 381.657,-63.8155 256.5,-39 249.114,-37.5356 241.348,-35.6649 233.839,-33.6783"/>
<polygon fill="midnightblue" stroke="midnightblue" points="234.742,-30.2966 224.172,-31.0243 232.889,-37.0468 234.742,-30.2966"/>
</g>
<!-- Node12&#45;&gt;Node6 -->
<g id="edge15" class="edge"><title>Node12&#45;&gt;Node6</title>
<path fill="none" stroke="midnightblue" d="M663.104,-82.9631C597.42,-69.7538 484.962,-47.1383 414.899,-33.0485"/>
<polygon fill="midnightblue" stroke="midnightblue" points="415.374,-29.574 404.88,-31.0337 413.993,-36.4366 415.374,-29.574"/>
</g>
<!-- Node12&#45;&gt;Node7 -->
<g id="edge16" class="edge"><title>Node12&#45;&gt;Node7</title>
<path fill="none" stroke="midnightblue" d="M689.908,-82.8852C659.451,-70.2524 608.445,-49.0964 574.39,-34.9716"/>
<polygon fill="midnightblue" stroke="midnightblue" points="575.415,-31.6076 564.837,-31.0092 572.733,-38.0734 575.415,-31.6076"/>
</g>
<!-- Node12&#45;&gt;Node8 -->
<g id="edge17" class="edge"><title>Node12&#45;&gt;Node8</title>
<path fill="none" stroke="midnightblue" d="M715.5,-82.7286C715.5,-71.9459 715.5,-55.0681 715.5,-41.6087"/>
<polygon fill="midnightblue" stroke="midnightblue" points="719,-41.3156 715.5,-31.3156 712,-41.3156 719,-41.3156"/>
</g>
<!-- Node12&#45;&gt;Node9 -->
<g id="edge18" class="edge"><title>Node12&#45;&gt;Node9</title>
<path fill="none" stroke="midnightblue" d="M771.746,-82.9858C788.078,-80.1471 805.968,-77.2437 822.5,-75 983.59,-53.1374 1026.42,-67.311 1186.5,-39 1194.9,-37.5138 1203.77,-35.561 1212.3,-33.4819"/>
<polygon fill="midnightblue" stroke="midnightblue" points="1213.27,-36.8466 1222.11,-31.0036 1211.56,-30.0598 1213.27,-36.8466"/>
</g>
<!-- Node13 -->
<g id="node13" class="node"><title>Node13</title>
<polygon fill="white" stroke="#bfbfbf" points="810,-0.5 810,-38.5 957,-38.5 957,-0.5 810,-0.5"/>
<text text-anchor="start" x="818" y="-23.3" font-family="Helvetica,sans-Serif" font-size="14.00">deal.II/base/geometry</text>
<text text-anchor="middle" x="883.5" y="-8.3" font-family="Helvetica,sans-Serif" font-size="14.00">_info.h</text>
</g>
<!-- Node12&#45;&gt;Node13 -->
<g id="edge12" class="edge"><title>Node12&#45;&gt;Node13</title>
<path fill="none" stroke="midnightblue" d="M739.929,-82.8852C764.093,-72.3851 801.809,-55.9968 832.521,-42.6518"/>
<polygon fill="midnightblue" stroke="midnightblue" points="834.027,-45.8132 841.804,-38.6178 831.238,-39.3931 834.027,-45.8132"/>
</g>
<!-- Node14 -->
<g id="node14" class="node"><title>Node14</title>
<polygon fill="white" stroke="#bfbfbf" points="975,-8 975,-31 1106,-31 1106,-8 975,-8"/>
<text text-anchor="middle" x="1040.5" y="-15.8" font-family="Helvetica,sans-Serif" font-size="14.00">deal.II/base/point.h</text>
</g>
<!-- Node12&#45;&gt;Node14 -->
<g id="edge13" class="edge"><title>Node12&#45;&gt;Node14</title>
<path fill="none" stroke="midnightblue" d="M766.562,-82.8998C817.353,-72.2413 897.456,-55.1221 966.5,-39 974.026,-37.2427 981.966,-35.3251 989.741,-33.4118"/>
<polygon fill="midnightblue" stroke="midnightblue" points="990.593,-36.8066 999.456,-31.0028 988.908,-30.0124 990.593,-36.8066"/>
</g>
<!-- Node15 -->
<g id="node15" class="node"><title>Node15</title>
<polygon fill="white" stroke="#bfbfbf" points="1124,-8 1124,-31 1177,-31 1177,-8 1124,-8"/>
<text text-anchor="middle" x="1150.5" y="-15.8" font-family="Helvetica,sans-Serif" font-size="14.00">vector</text>
</g>
<!-- Node12&#45;&gt;Node15 -->
<g id="edge19" class="edge"><title>Node12&#45;&gt;Node15</title>
<path fill="none" stroke="midnightblue" d="M773.169,-82.9965C789.123,-80.2359 806.461,-77.3704 822.5,-75 952.292,-55.8179 990.324,-78.3048 1115.5,-39 1118.49,-38.0625 1121.52,-36.8733 1124.48,-35.5515"/>
<polygon fill="midnightblue" stroke="midnightblue" points="1126.2,-38.6073 1133.6,-31.0237 1123.08,-32.3382 1126.2,-38.6073"/>
</g>
</g>
</svg>
