<?xml version="1.0" encoding="UTF-8" standalone="no"?>
<!DOCTYPE svg PUBLIC "-//W3C//DTD SVG 1.1//EN"
 "http://www.w3.org/Graphics/SVG/1.1/DTD/svg11.dtd">
<!-- Generated by graphviz version 2.38.0 (20140413.2041)
 -->
<!-- Title: /home/travis/build/konsim83/MPI&#45;MSFEC/include/functions/basis_nedelec_curl.h Pages: 1 -->
<svg width="1350pt" height="212pt"
 viewBox="0.00 0.00 1349.50 212.00" xmlns="http://www.w3.org/2000/svg" xmlns:xlink="http://www.w3.org/1999/xlink">
<g id="graph0" class="graph" transform="scale(1 1) rotate(0) translate(4 208)">
<title>/home/travis/build/konsim83/MPI&#45;MSFEC/include/functions/basis_nedelec_curl.h</title>
<polygon fill="white" stroke="none" points="-4,4 -4,-208 1345.5,-208 1345.5,4 -4,4"/>
<!-- Node1 -->
<g id="node1" class="node"><title>Node1</title>
<polygon fill="#bfbfbf" stroke="black" points="496.5,-135.5 496.5,-203.5 656.5,-203.5 656.5,-135.5 496.5,-135.5"/>
<text text-anchor="start" x="504.5" y="-188.3" font-family="Helvetica,sans-Serif" font-size="14.00">/home/travis/build</text>
<text text-anchor="start" x="504.5" y="-173.3" font-family="Helvetica,sans-Serif" font-size="14.00">/konsim83/MPI&#45;MSFEC</text>
<text text-anchor="start" x="504.5" y="-158.3" font-family="Helvetica,sans-Serif" font-size="14.00">/include/functions/basis</text>
<text text-anchor="middle" x="576.5" y="-143.3" font-family="Helvetica,sans-Serif" font-size="14.00">_nedelec_curl.h</text>
</g>
<!-- Node2 -->
<g id="node2" class="node"><title>Node2</title>
<polygon fill="white" stroke="#bfbfbf" points="0,-75.5 0,-98.5 149,-98.5 149,-75.5 0,-75.5"/>
<text text-anchor="middle" x="74.5" y="-83.3" font-family="Helvetica,sans-Serif" font-size="14.00">deal.II/base/function.h</text>
</g>
<!-- Node1&#45;&gt;Node2 -->
<g id="edge1" class="edge"><title>Node1&#45;&gt;Node2</title>
<path fill="none" stroke="midnightblue" d="M496.402,-155.656C401.187,-140.387 243.488,-115.099 150.234,-100.145"/>
<polygon fill="midnightblue" stroke="midnightblue" points="150.731,-96.6796 140.302,-98.552 149.622,-103.591 150.731,-96.6796"/>
</g>
<!-- Node3 -->
<g id="node3" class="node"><title>Node3</title>
<polygon fill="white" stroke="#bfbfbf" points="167,-75.5 167,-98.5 306,-98.5 306,-75.5 167,-75.5"/>
<text text-anchor="middle" x="236.5" y="-83.3" font-family="Helvetica,sans-Serif" font-size="14.00">deal.II/base/tensor.h</text>
</g>
<!-- Node1&#45;&gt;Node3 -->
<g id="edge2" class="edge"><title>Node1&#45;&gt;Node3</title>
<path fill="none" stroke="midnightblue" d="M496.355,-149.525C433.146,-134.559 346.679,-114.086 291.199,-100.951"/>
<polygon fill="midnightblue" stroke="midnightblue" points="291.75,-97.4845 281.213,-98.5864 290.137,-104.296 291.75,-97.4845"/>
</g>
<!-- Node4 -->
<g id="node4" class="node"><title>Node4</title>
<polygon fill="white" stroke="#bfbfbf" points="324,-75.5 324,-98.5 473,-98.5 473,-75.5 324,-75.5"/>
<text text-anchor="middle" x="398.5" y="-83.3" font-family="Helvetica,sans-Serif" font-size="14.00">deal.II/fe/fe_nedelec.h</text>
</g>
<!-- Node1&#45;&gt;Node4 -->
<g id="edge3" class="edge"><title>Node1&#45;&gt;Node4</title>
<path fill="none" stroke="midnightblue" d="M503.33,-135.409C478.279,-124.08 451.499,-111.969 431.277,-102.824"/>
<polygon fill="midnightblue" stroke="midnightblue" points="432.467,-99.5203 421.913,-98.5886 429.583,-105.898 432.467,-99.5203"/>
</g>
<!-- Node5 -->
<g id="node5" class="node"><title>Node5</title>
<polygon fill="white" stroke="#bfbfbf" points="154,-8 154,-31 267,-31 267,-8 154,-8"/>
<text text-anchor="middle" x="210.5" y="-15.8" font-family="Helvetica,sans-Serif" font-size="14.00">deal.II/grid/tria.h</text>
</g>
<!-- Node1&#45;&gt;Node5 -->
<g id="edge4" class="edge"><title>Node1&#45;&gt;Node5</title>
<path fill="none" stroke="midnightblue" d="M547.166,-135.337C525.507,-111.652 497.319,-82.6746 482.5,-75 399.969,-32.2564 367.139,-59.5685 276.5,-39 269.717,-37.4606 262.59,-35.6597 255.63,-33.797"/>
<polygon fill="midnightblue" stroke="midnightblue" points="256.183,-30.3192 245.613,-31.0469 254.33,-37.0695 256.183,-30.3192"/>
</g>
<!-- Node6 -->
<g id="node6" class="node"><title>Node6</title>
<polygon fill="white" stroke="#bfbfbf" points="285,-8 285,-31 460,-31 460,-8 285,-8"/>
<text text-anchor="middle" x="372.5" y="-15.8" font-family="Helvetica,sans-Serif" font-size="14.00">deal.II/grid/tria_accessor.h</text>
</g>
<!-- Node1&#45;&gt;Node6 -->
<g id="edge5" class="edge"><title>Node1&#45;&gt;Node6</title>
<path fill="none" stroke="midnightblue" d="M561.071,-135.261C550.415,-115.44 534.558,-91.0834 514.5,-75 490.189,-55.5063 458.117,-42.4038 430.606,-33.9424"/>
<polygon fill="midnightblue" stroke="midnightblue" points="431.28,-30.4927 420.699,-31.0318 429.307,-37.2088 431.28,-30.4927"/>
</g>
<!-- Node7 -->
<g id="node7" class="node"><title>Node7</title>
<polygon fill="white" stroke="#bfbfbf" points="478,-8 478,-31 641,-31 641,-8 478,-8"/>
<text text-anchor="middle" x="559.5" y="-15.8" font-family="Helvetica,sans-Serif" font-size="14.00">deal.II/grid/tria_iterator.h</text>
</g>
<!-- Node1&#45;&gt;Node7 -->
<g id="edge6" class="edge"><title>Node1&#45;&gt;Node7</title>
<path fill="none" stroke="midnightblue" d="M572.685,-135.286C569.374,-106.462 564.684,-65.6333 561.882,-41.2358"/>
<polygon fill="midnightblue" stroke="midnightblue" points="565.357,-40.8197 560.739,-31.2845 558.403,-41.6186 565.357,-40.8197"/>
</g>
<!-- Node8 -->
<g id="node8" class="node"><title>Node8</title>
<polygon fill="white" stroke="#bfbfbf" points="659.5,-8 659.5,-31 811.5,-31 811.5,-8 659.5,-8"/>
<text text-anchor="middle" x="735.5" y="-15.8" font-family="Helvetica,sans-Serif" font-size="14.00">deal.II/lac/full_matrix.h</text>
</g>
<!-- Node1&#45;&gt;Node8 -->
<g id="edge7" class="edge"><title>Node1&#45;&gt;Node8</title>
<path fill="none" stroke="midnightblue" d="M591.276,-135.181C601.117,-115.819 615.535,-91.973 633.5,-75 651.768,-57.7401 676.558,-44.3289 697.125,-35.1292"/>
<polygon fill="midnightblue" stroke="midnightblue" points="698.735,-38.2465 706.536,-31.0767 695.967,-31.8173 698.735,-38.2465"/>
</g>
<!-- Node9 -->
<g id="node9" class="node"><title>Node9</title>
<polygon fill="white" stroke="#bfbfbf" points="1215.5,-8 1215.5,-31 1341.5,-31 1341.5,-8 1215.5,-8"/>
<text text-anchor="middle" x="1278.5" y="-15.8" font-family="Helvetica,sans-Serif" font-size="14.00">deal.II/lac/vector.h</text>
</g>
<!-- Node1&#45;&gt;Node9 -->
<g id="edge8" class="edge"><title>Node1&#45;&gt;Node9</title>
<path fill="none" stroke="midnightblue" d="M656.668,-154.104C709.706,-142.936 779.993,-124.943 838.5,-99 856.418,-91.0548 857.033,-81.5714 875.5,-75 1014.91,-25.3888 1060.91,-65.4809 1206.5,-39 1214.81,-37.4894 1223.57,-35.5431 1232.01,-33.4823"/>
<polygon fill="midnightblue" stroke="midnightblue" points="1232.89,-36.8706 1241.73,-31.0298 1231.17,-30.0834 1232.89,-36.8706"/>
</g>
<!-- Node10 -->
<g id="node10" class="node"><title>Node10</title>
<polygon fill="white" stroke="#bfbfbf" points="884.5,-75.5 884.5,-98.5 938.5,-98.5 938.5,-75.5 884.5,-75.5"/>
<text text-anchor="middle" x="911.5" y="-83.3" font-family="Helvetica,sans-Serif" font-size="14.00">cmath</text>
</g>
<!-- Node1&#45;&gt;Node10 -->
<g id="edge9" class="edge"><title>Node1&#45;&gt;Node10</title>
<path fill="none" stroke="midnightblue" d="M656.518,-150.267C715.727,-136.609 798.286,-117.218 870.5,-99 871.746,-98.6856 873.013,-98.3631 874.291,-98.0349"/>
<polygon fill="midnightblue" stroke="midnightblue" points="875.392,-101.365 884.183,-95.4512 873.623,-94.5921 875.392,-101.365"/>
</g>
<!-- Node11 -->
<g id="node11" class="node"><title>Node11</title>
<polygon fill="white" stroke="#bfbfbf" points="956.5,-75.5 956.5,-98.5 1018.5,-98.5 1018.5,-75.5 956.5,-75.5"/>
<text text-anchor="middle" x="987.5" y="-83.3" font-family="Helvetica,sans-Serif" font-size="14.00">fstream</text>
</g>
<!-- Node1&#45;&gt;Node11 -->
<g id="edge10" class="edge"><title>Node1&#45;&gt;Node11</title>
<path fill="none" stroke="midnightblue" d="M656.506,-155.492C729.631,-143.15 840.906,-123.235 946.27,-99.1616"/>
<polygon fill="midnightblue" stroke="midnightblue" points="947.16,-102.549 956.12,-96.8949 945.59,-95.7268 947.16,-102.549"/>
</g>
<!-- Node12 -->
<g id="node12" class="node"><title>Node12</title>
<g id="a_node12"><a xlink:href="my__mapping__q1_8h.html" target="_top" xlink:title="functions/my_mapping_q1.h">
<polygon fill="white" stroke="black" points="642,-75.5 642,-98.5 829,-98.5 829,-75.5 642,-75.5"/>
<text text-anchor="middle" x="735.5" y="-83.3" font-family="Helvetica,sans-Serif" font-size="14.00">functions/my_mapping_q1.h</text>
</a>
</g>
</g>
<!-- Node1&#45;&gt;Node12 -->
<g id="edge11" class="edge"><title>Node1&#45;&gt;Node12</title>
<path fill="none" stroke="midnightblue" d="M642.089,-135.293C664.031,-124.184 687.432,-112.336 705.324,-103.278"/>
<polygon fill="midnightblue" stroke="midnightblue" points="707.312,-106.195 714.652,-98.555 704.15,-99.9494 707.312,-106.195"/>
</g>
<!-- Node12&#45;&gt;Node5 -->
<g id="edge14" class="edge"><title>Node12&#45;&gt;Node5</title>
<path fill="none" stroke="midnightblue" d="M641.637,-81.1047C548.387,-75.1378 401.629,-62.7621 276.5,-39 269.021,-37.5798 261.159,-35.7143 253.572,-33.7146"/>
<polygon fill="midnightblue" stroke="midnightblue" points="254.382,-30.3075 243.812,-31.0347 252.529,-37.0576 254.382,-30.3075"/>
</g>
<!-- Node12&#45;&gt;Node6 -->
<g id="edge15" class="edge"><title>Node12&#45;&gt;Node6</title>
<path fill="none" stroke="midnightblue" d="M674.446,-75.4547C620.504,-66.0799 539.724,-51.9 469.5,-39 458.914,-37.0554 447.686,-34.9519 436.769,-32.8845"/>
<polygon fill="midnightblue" stroke="midnightblue" points="437.334,-29.4294 426.856,-31.0015 436.027,-36.3064 437.334,-29.4294"/>
</g>
<!-- Node12&#45;&gt;Node7 -->
<g id="edge16" class="edge"><title>Node12&#45;&gt;Node7</title>
<path fill="none" stroke="midnightblue" d="M707.223,-75.4763C677.546,-64.432 630.713,-47.0024 597.749,-34.7349"/>
<polygon fill="midnightblue" stroke="midnightblue" points="598.592,-31.3139 587.999,-31.1062 596.15,-37.8743 598.592,-31.3139"/>
</g>
<!-- Node12&#45;&gt;Node8 -->
<g id="edge17" class="edge"><title>Node12&#45;&gt;Node8</title>
<path fill="none" stroke="midnightblue" d="M735.5,-75.4763C735.5,-66.2683 735.5,-52.6221 735.5,-41.2293"/>
<polygon fill="midnightblue" stroke="midnightblue" points="739,-41.2152 735.5,-31.2152 732,-41.2152 739,-41.2152"/>
</g>
<!-- Node12&#45;&gt;Node9 -->
<g id="edge18" class="edge"><title>Node12&#45;&gt;Node9</title>
<path fill="none" stroke="midnightblue" d="M829.156,-76.3507C833.667,-75.8926 838.134,-75.4404 842.5,-75 1004.25,-58.6875 1046.42,-67.311 1206.5,-39 1214.9,-37.5138 1223.77,-35.561 1232.3,-33.4819"/>
<polygon fill="midnightblue" stroke="midnightblue" points="1233.27,-36.8466 1242.11,-31.0036 1231.56,-30.0598 1233.27,-36.8466"/>
</g>
<!-- Node13 -->
<g id="node13" class="node"><title>Node13</title>
<polygon fill="white" stroke="#bfbfbf" points="830,-0.5 830,-38.5 977,-38.5 977,-0.5 830,-0.5"/>
<text text-anchor="start" x="838" y="-23.3" font-family="Helvetica,sans-Serif" font-size="14.00">deal.II/base/geometry</text>
<text text-anchor="middle" x="903.5" y="-8.3" font-family="Helvetica,sans-Serif" font-size="14.00">_info.h</text>
</g>
<!-- Node12&#45;&gt;Node13 -->
<g id="edge12" class="edge"><title>Node12&#45;&gt;Node13</title>
<path fill="none" stroke="midnightblue" d="M762.492,-75.4763C785.409,-66.5415 819.044,-53.4279 847.716,-42.2491"/>
<polygon fill="midnightblue" stroke="midnightblue" points="849.181,-45.4345 857.227,-38.541 846.638,-38.9127 849.181,-45.4345"/>
</g>
<!-- Node14 -->
<g id="node14" class="node"><title>Node14</title>
<polygon fill="white" stroke="#bfbfbf" points="995,-8 995,-31 1126,-31 1126,-8 995,-8"/>
<text text-anchor="middle" x="1060.5" y="-15.8" font-family="Helvetica,sans-Serif" font-size="14.00">deal.II/base/point.h</text>
</g>
<!-- Node12&#45;&gt;Node14 -->
<g id="edge13" class="edge"><title>Node12&#45;&gt;Node14</title>
<path fill="none" stroke="midnightblue" d="M797.341,-75.4839C848.272,-66.568 922.289,-53.025 986.5,-39 994.232,-37.3111 1002.39,-35.4025 1010.35,-33.4688"/>
<polygon fill="midnightblue" stroke="midnightblue" points="1011.41,-36.8127 1020.28,-31.0207 1009.73,-30.0161 1011.41,-36.8127"/>
</g>
<!-- Node15 -->
<g id="node15" class="node"><title>Node15</title>
<polygon fill="white" stroke="#bfbfbf" points="1144,-8 1144,-31 1197,-31 1197,-8 1144,-8"/>
<text text-anchor="middle" x="1170.5" y="-15.8" font-family="Helvetica,sans-Serif" font-size="14.00">vector</text>
</g>
<!-- Node12&#45;&gt;Node15 -->
<g id="edge19" class="edge"><title>Node12&#45;&gt;Node15</title>
<path fill="none" stroke="midnightblue" d="M829.331,-75.8523C942.952,-63.434 1121.04,-43.4981 1135.5,-39 1138.49,-38.0704 1141.52,-36.8863 1144.49,-35.5676"/>
<polygon fill="midnightblue" stroke="midnightblue" points="1146.2,-38.6242 1153.6,-31.0433 1143.09,-32.354 1146.2,-38.6242"/>
</g>
</g>
</svg>
