<?xml version="1.0" encoding="UTF-8" standalone="no"?>
<!DOCTYPE svg PUBLIC "-//W3C//DTD SVG 1.1//EN"
 "http://www.w3.org/Graphics/SVG/1.1/DTD/svg11.dtd">
<!-- Generated by graphviz version 2.38.0 (20140413.2041)
 -->
<!-- Title: /home/travis/build/konsim83/MPI&#45;MSFEC/include/functions/basis_nedelec_curl.h Pages: 1 -->
<svg width="525pt" height="392pt"
 viewBox="0.00 0.00 525.00 392.00" xmlns="http://www.w3.org/2000/svg" xmlns:xlink="http://www.w3.org/1999/xlink">
<g id="graph0" class="graph" transform="scale(1 1) rotate(0) translate(4 388)">
<title>/home/travis/build/konsim83/MPI&#45;MSFEC/include/functions/basis_nedelec_curl.h</title>
<polygon fill="white" stroke="none" points="-4,4 -4,-388 521,-388 521,4 -4,4"/>
<!-- Node1 -->
<g id="node1" class="node"><title>Node1</title>
<polygon fill="#bfbfbf" stroke="black" points="89,-315.5 89,-383.5 249,-383.5 249,-315.5 89,-315.5"/>
<text text-anchor="start" x="97" y="-368.3" font-family="Helvetica,sans-Serif" font-size="14.00">/home/travis/build</text>
<text text-anchor="start" x="97" y="-353.3" font-family="Helvetica,sans-Serif" font-size="14.00">/konsim83/MPI&#45;MSFEC</text>
<text text-anchor="start" x="97" y="-338.3" font-family="Helvetica,sans-Serif" font-size="14.00">/include/functions/basis</text>
<text text-anchor="middle" x="169" y="-323.3" font-family="Helvetica,sans-Serif" font-size="14.00">_nedelec_curl.h</text>
</g>
<!-- Node2 -->
<g id="node2" class="node"><title>Node2</title>
<g id="a_node2"><a xlink:href="basis__nedelec__curl_8inst_8cc.html" target="_top" xlink:title="/home/travis/build\l/konsim83/MPI&#45;MSFEC\l/source/functions/basis\l_nedelec_curl.inst.cc">
<polygon fill="white" stroke="black" points="0,-210.5 0,-278.5 160,-278.5 160,-210.5 0,-210.5"/>
<text text-anchor="start" x="8" y="-263.3" font-family="Helvetica,sans-Serif" font-size="14.00">/home/travis/build</text>
<text text-anchor="start" x="8" y="-248.3" font-family="Helvetica,sans-Serif" font-size="14.00">/konsim83/MPI&#45;MSFEC</text>
<text text-anchor="start" x="8" y="-233.3" font-family="Helvetica,sans-Serif" font-size="14.00">/source/functions/basis</text>
<text text-anchor="middle" x="80" y="-218.3" font-family="Helvetica,sans-Serif" font-size="14.00">_nedelec_curl.inst.cc</text>
</a>
</g>
</g>
<!-- Node1&#45;&gt;Node2 -->
<g id="edge1" class="edge"><title>Node1&#45;&gt;Node2</title>
<path fill="none" stroke="midnightblue" d="M133.773,-307.732C125.421,-298.066 116.612,-287.871 108.596,-278.595"/>
<polygon fill="midnightblue" stroke="midnightblue" points="131.163,-310.065 140.35,-315.343 136.46,-305.488 131.163,-310.065"/>
</g>
<!-- Node3 -->
<g id="node3" class="node"><title>Node3</title>
<g id="a_node3"><a xlink:href="ned__rt__basis_8h.html" target="_top" xlink:title="/home/travis/build\l/konsim83/MPI&#45;MSFEC\l/include/Ned_RT/ned_rt\l_basis.h">
<polygon fill="white" stroke="black" points="178,-210.5 178,-278.5 338,-278.5 338,-210.5 178,-210.5"/>
<text text-anchor="start" x="186" y="-263.3" font-family="Helvetica,sans-Serif" font-size="14.00">/home/travis/build</text>
<text text-anchor="start" x="186" y="-248.3" font-family="Helvetica,sans-Serif" font-size="14.00">/konsim83/MPI&#45;MSFEC</text>
<text text-anchor="start" x="186" y="-233.3" font-family="Helvetica,sans-Serif" font-size="14.00">/include/Ned_RT/ned_rt</text>
<text text-anchor="middle" x="258" y="-218.3" font-family="Helvetica,sans-Serif" font-size="14.00">_basis.h</text>
</a>
</g>
</g>
<!-- Node1&#45;&gt;Node3 -->
<g id="edge2" class="edge"><title>Node1&#45;&gt;Node3</title>
<path fill="none" stroke="midnightblue" d="M204.227,-307.732C212.579,-298.066 221.388,-287.871 229.404,-278.595"/>
<polygon fill="midnightblue" stroke="midnightblue" points="201.54,-305.488 197.65,-315.343 206.837,-310.065 201.54,-305.488"/>
</g>
<!-- Node4 -->
<g id="node4" class="node"><title>Node4</title>
<g id="a_node4"><a xlink:href="ned__rt__basis_8cc.html" target="_top" xlink:title="/home/travis/build\l/konsim83/MPI&#45;MSFEC\l/source/Ned_RT/ned_rt\l_basis.cc">
<polygon fill="white" stroke="black" points="89,-105.5 89,-173.5 249,-173.5 249,-105.5 89,-105.5"/>
<text text-anchor="start" x="97" y="-158.3" font-family="Helvetica,sans-Serif" font-size="14.00">/home/travis/build</text>
<text text-anchor="start" x="97" y="-143.3" font-family="Helvetica,sans-Serif" font-size="14.00">/konsim83/MPI&#45;MSFEC</text>
<text text-anchor="start" x="97" y="-128.3" font-family="Helvetica,sans-Serif" font-size="14.00">/source/Ned_RT/ned_rt</text>
<text text-anchor="middle" x="169" y="-113.3" font-family="Helvetica,sans-Serif" font-size="14.00">_basis.cc</text>
</a>
</g>
</g>
<!-- Node3&#45;&gt;Node4 -->
<g id="edge3" class="edge"><title>Node3&#45;&gt;Node4</title>
<path fill="none" stroke="midnightblue" d="M222.773,-202.732C214.421,-193.066 205.612,-182.871 197.596,-173.595"/>
<polygon fill="midnightblue" stroke="midnightblue" points="220.163,-205.065 229.35,-210.343 225.46,-200.488 220.163,-205.065"/>
</g>
<!-- Node5 -->
<g id="node5" class="node"><title>Node5</title>
<g id="a_node5"><a xlink:href="ned__rt__global_8h.html" target="_top" xlink:title="/home/travis/build\l/konsim83/MPI&#45;MSFEC\l/include/Ned_RT/ned_rt\l_global.h">
<polygon fill="white" stroke="black" points="267,-105.5 267,-173.5 427,-173.5 427,-105.5 267,-105.5"/>
<text text-anchor="start" x="275" y="-158.3" font-family="Helvetica,sans-Serif" font-size="14.00">/home/travis/build</text>
<text text-anchor="start" x="275" y="-143.3" font-family="Helvetica,sans-Serif" font-size="14.00">/konsim83/MPI&#45;MSFEC</text>
<text text-anchor="start" x="275" y="-128.3" font-family="Helvetica,sans-Serif" font-size="14.00">/include/Ned_RT/ned_rt</text>
<text text-anchor="middle" x="347" y="-113.3" font-family="Helvetica,sans-Serif" font-size="14.00">_global.h</text>
</a>
</g>
</g>
<!-- Node3&#45;&gt;Node5 -->
<g id="edge4" class="edge"><title>Node3&#45;&gt;Node5</title>
<path fill="none" stroke="midnightblue" d="M293.227,-202.732C301.579,-193.066 310.388,-182.871 318.404,-173.595"/>
<polygon fill="midnightblue" stroke="midnightblue" points="290.54,-200.488 286.65,-210.343 295.837,-205.065 290.54,-200.488"/>
</g>
<!-- Node6 -->
<g id="node6" class="node"><title>Node6</title>
<g id="a_node6"><a xlink:href="main__ned__rt_8cxx.html" target="_top" xlink:title="/home/travis/build\l/konsim83/MPI&#45;MSFEC\l/source/main_ned_rt.cxx">
<polygon fill="white" stroke="black" points="175,-8 175,-61 339,-61 339,-8 175,-8"/>
<text text-anchor="start" x="183" y="-45.8" font-family="Helvetica,sans-Serif" font-size="14.00">/home/travis/build</text>
<text text-anchor="start" x="183" y="-30.8" font-family="Helvetica,sans-Serif" font-size="14.00">/konsim83/MPI&#45;MSFEC</text>
<text text-anchor="middle" x="257" y="-15.8" font-family="Helvetica,sans-Serif" font-size="14.00">/source/main_ned_rt.cxx</text>
</a>
</g>
</g>
<!-- Node5&#45;&gt;Node6 -->
<g id="edge5" class="edge"><title>Node5&#45;&gt;Node6</title>
<path fill="none" stroke="midnightblue" d="M311.417,-97.7777C300.605,-85.4032 289.033,-72.1596 279.352,-61.0806"/>
<polygon fill="midnightblue" stroke="midnightblue" points="308.813,-100.116 318.028,-105.343 314.084,-95.5099 308.813,-100.116"/>
</g>
<!-- Node7 -->
<g id="node7" class="node"><title>Node7</title>
<g id="a_node7"><a xlink:href="ned__rt__global_8cc.html" target="_top" xlink:title="/home/travis/build\l/konsim83/MPI&#45;MSFEC\l/source/Ned_RT/ned_rt\l_global.cc">
<polygon fill="white" stroke="black" points="357,-0.5 357,-68.5 517,-68.5 517,-0.5 357,-0.5"/>
<text text-anchor="start" x="365" y="-53.3" font-family="Helvetica,sans-Serif" font-size="14.00">/home/travis/build</text>
<text text-anchor="start" x="365" y="-38.3" font-family="Helvetica,sans-Serif" font-size="14.00">/konsim83/MPI&#45;MSFEC</text>
<text text-anchor="start" x="365" y="-23.3" font-family="Helvetica,sans-Serif" font-size="14.00">/source/Ned_RT/ned_rt</text>
<text text-anchor="middle" x="437" y="-8.3" font-family="Helvetica,sans-Serif" font-size="14.00">_global.cc</text>
</a>
</g>
</g>
<!-- Node5&#45;&gt;Node7 -->
<g id="edge6" class="edge"><title>Node5&#45;&gt;Node7</title>
<path fill="none" stroke="midnightblue" d="M382.623,-97.7318C391.069,-88.0655 399.976,-77.8714 408.082,-68.5947"/>
<polygon fill="midnightblue" stroke="midnightblue" points="379.916,-95.5099 375.972,-105.343 385.187,-100.116 379.916,-95.5099"/>
</g>
</g>
</svg>
