<?xml version="1.0" encoding="UTF-8" standalone="no"?>
<!DOCTYPE svg PUBLIC "-//W3C//DTD SVG 1.1//EN"
 "http://www.w3.org/Graphics/SVG/1.1/DTD/svg11.dtd">
<!-- Generated by graphviz version 2.38.0 (20140413.2041)
 -->
<!-- Title: /home/travis/build/konsim83/MPI&#45;MSFEC/include/functions/basis_q1.h Pages: 1 -->
<svg width="985pt" height="122pt"
 viewBox="0.00 0.00 984.50 122.00" xmlns="http://www.w3.org/2000/svg" xmlns:xlink="http://www.w3.org/1999/xlink">
<g id="graph0" class="graph" transform="scale(1 1) rotate(0) translate(4 118)">
<title>/home/travis/build/konsim83/MPI&#45;MSFEC/include/functions/basis_q1.h</title>
<polygon fill="white" stroke="none" points="-4,4 -4,-118 980.5,-118 980.5,4 -4,4"/>
<!-- Node1 -->
<g id="node1" class="node"><title>Node1</title>
<polygon fill="#bfbfbf" stroke="black" points="477.5,-60.5 477.5,-113.5 667.5,-113.5 667.5,-60.5 477.5,-60.5"/>
<text text-anchor="start" x="485.5" y="-98.3" font-family="Helvetica,sans-Serif" font-size="14.00">/home/travis/build</text>
<text text-anchor="start" x="485.5" y="-83.3" font-family="Helvetica,sans-Serif" font-size="14.00">/konsim83/MPI&#45;MSFEC</text>
<text text-anchor="middle" x="572.5" y="-68.3" font-family="Helvetica,sans-Serif" font-size="14.00">/include/functions/basis_q1.h</text>
</g>
<!-- Node2 -->
<g id="node2" class="node"><title>Node2</title>
<polygon fill="white" stroke="#bfbfbf" points="0,-0.5 0,-23.5 149,-23.5 149,-0.5 0,-0.5"/>
<text text-anchor="middle" x="74.5" y="-8.3" font-family="Helvetica,sans-Serif" font-size="14.00">deal.II/base/function.h</text>
</g>
<!-- Node1&#45;&gt;Node2 -->
<g id="edge1" class="edge"><title>Node1&#45;&gt;Node2</title>
<path fill="none" stroke="midnightblue" d="M477.364,-72.0544C384.394,-58.4263 244.36,-37.8991 156.263,-24.9853"/>
<polygon fill="midnightblue" stroke="midnightblue" points="156.716,-21.5144 146.314,-23.527 155.701,-28.4404 156.716,-21.5144"/>
</g>
<!-- Node3 -->
<g id="node3" class="node"><title>Node3</title>
<polygon fill="white" stroke="#bfbfbf" points="167,-0.5 167,-23.5 280,-23.5 280,-0.5 167,-0.5"/>
<text text-anchor="middle" x="223.5" y="-8.3" font-family="Helvetica,sans-Serif" font-size="14.00">deal.II/grid/tria.h</text>
</g>
<!-- Node1&#45;&gt;Node3 -->
<g id="edge2" class="edge"><title>Node1&#45;&gt;Node3</title>
<path fill="none" stroke="midnightblue" d="M477.134,-66.0524C415.514,-53.1633 337.19,-36.7805 283.998,-25.6543"/>
<polygon fill="midnightblue" stroke="midnightblue" points="284.543,-22.1925 274.038,-23.5709 283.109,-29.0443 284.543,-22.1925"/>
</g>
<!-- Node4 -->
<g id="node4" class="node"><title>Node4</title>
<polygon fill="white" stroke="#bfbfbf" points="298,-0.5 298,-23.5 473,-23.5 473,-0.5 298,-0.5"/>
<text text-anchor="middle" x="385.5" y="-8.3" font-family="Helvetica,sans-Serif" font-size="14.00">deal.II/grid/tria_accessor.h</text>
</g>
<!-- Node1&#45;&gt;Node4 -->
<g id="edge3" class="edge"><title>Node1&#45;&gt;Node4</title>
<path fill="none" stroke="midnightblue" d="M507.096,-60.4681C478.585,-49.3381 446.231,-36.708 422.068,-27.2754"/>
<polygon fill="midnightblue" stroke="midnightblue" points="423.167,-23.9471 412.579,-23.5709 420.622,-30.4679 423.167,-23.9471"/>
</g>
<!-- Node5 -->
<g id="node5" class="node"><title>Node5</title>
<polygon fill="white" stroke="#bfbfbf" points="491,-0.5 491,-23.5 654,-23.5 654,-0.5 491,-0.5"/>
<text text-anchor="middle" x="572.5" y="-8.3" font-family="Helvetica,sans-Serif" font-size="14.00">deal.II/grid/tria_iterator.h</text>
</g>
<!-- Node1&#45;&gt;Node5 -->
<g id="edge4" class="edge"><title>Node1&#45;&gt;Node5</title>
<path fill="none" stroke="midnightblue" d="M572.5,-60.4681C572.5,-51.762 572.5,-42.138 572.5,-33.8444"/>
<polygon fill="midnightblue" stroke="midnightblue" points="576,-33.5709 572.5,-23.5709 569,-33.571 576,-33.5709"/>
</g>
<!-- Node6 -->
<g id="node6" class="node"><title>Node6</title>
<polygon fill="white" stroke="#bfbfbf" points="672.5,-0.5 672.5,-23.5 824.5,-23.5 824.5,-0.5 672.5,-0.5"/>
<text text-anchor="middle" x="748.5" y="-8.3" font-family="Helvetica,sans-Serif" font-size="14.00">deal.II/lac/full_matrix.h</text>
</g>
<!-- Node1&#45;&gt;Node6 -->
<g id="edge5" class="edge"><title>Node1&#45;&gt;Node6</title>
<path fill="none" stroke="midnightblue" d="M634.056,-60.4681C660.652,-49.437 690.8,-36.9324 713.474,-27.5277"/>
<polygon fill="midnightblue" stroke="midnightblue" points="715.118,-30.6352 723.014,-23.5709 712.436,-24.1693 715.118,-30.6352"/>
</g>
<!-- Node7 -->
<g id="node7" class="node"><title>Node7</title>
<polygon fill="white" stroke="#bfbfbf" points="842.5,-0.5 842.5,-23.5 896.5,-23.5 896.5,-0.5 842.5,-0.5"/>
<text text-anchor="middle" x="869.5" y="-8.3" font-family="Helvetica,sans-Serif" font-size="14.00">cmath</text>
</g>
<!-- Node1&#45;&gt;Node7 -->
<g id="edge6" class="edge"><title>Node1&#45;&gt;Node7</title>
<path fill="none" stroke="midnightblue" d="M667.706,-64.9085C714.803,-54.1101 772.665,-40.3005 832.763,-24.0948"/>
<polygon fill="midnightblue" stroke="midnightblue" points="833.692,-27.4695 842.426,-21.4734 831.859,-20.7136 833.692,-27.4695"/>
</g>
<!-- Node8 -->
<g id="node8" class="node"><title>Node8</title>
<polygon fill="white" stroke="#bfbfbf" points="914.5,-0.5 914.5,-23.5 976.5,-23.5 976.5,-0.5 914.5,-0.5"/>
<text text-anchor="middle" x="945.5" y="-8.3" font-family="Helvetica,sans-Serif" font-size="14.00">fstream</text>
</g>
<!-- Node1&#45;&gt;Node8 -->
<g id="edge7" class="edge"><title>Node1&#45;&gt;Node8</title>
<path fill="none" stroke="midnightblue" d="M667.674,-70.475C732.034,-59.4616 819.098,-43.5666 904.282,-24.1578"/>
<polygon fill="midnightblue" stroke="midnightblue" points="905.158,-27.5478 914.121,-21.8982 903.591,-20.7254 905.158,-27.5478"/>
</g>
</g>
</svg>
