<?xml version="1.0" encoding="UTF-8" standalone="no"?>
<!DOCTYPE svg PUBLIC "-//W3C//DTD SVG 1.1//EN"
 "http://www.w3.org/Graphics/SVG/1.1/DTD/svg11.dtd">
<!-- Generated by graphviz version 2.38.0 (20140413.2041)
 -->
<!-- Title: /home/travis/build/konsim83/MPI&#45;MSFEC/include/functions/basis_q1_grad.h Pages: 1 -->
<svg width="1286pt" height="137pt"
 viewBox="0.00 0.00 1285.50 137.00" xmlns="http://www.w3.org/2000/svg" xmlns:xlink="http://www.w3.org/1999/xlink">
<g id="graph0" class="graph" transform="scale(1 1) rotate(0) translate(4 133)">
<title>/home/travis/build/konsim83/MPI&#45;MSFEC/include/functions/basis_q1_grad.h</title>
<polygon fill="white" stroke="none" points="-4,4 -4,-133 1281.5,-133 1281.5,4 -4,4"/>
<!-- Node1 -->
<g id="node1" class="node"><title>Node1</title>
<polygon fill="#bfbfbf" stroke="black" points="649.5,-60.5 649.5,-128.5 809.5,-128.5 809.5,-60.5 649.5,-60.5"/>
<text text-anchor="start" x="657.5" y="-113.3" font-family="Helvetica,sans-Serif" font-size="14.00">/home/travis/build</text>
<text text-anchor="start" x="657.5" y="-98.3" font-family="Helvetica,sans-Serif" font-size="14.00">/konsim83/MPI&#45;MSFEC</text>
<text text-anchor="start" x="657.5" y="-83.3" font-family="Helvetica,sans-Serif" font-size="14.00">/include/functions/basis</text>
<text text-anchor="middle" x="729.5" y="-68.3" font-family="Helvetica,sans-Serif" font-size="14.00">_q1_grad.h</text>
</g>
<!-- Node2 -->
<g id="node2" class="node"><title>Node2</title>
<polygon fill="white" stroke="#bfbfbf" points="0,-0.5 0,-23.5 149,-23.5 149,-0.5 0,-0.5"/>
<text text-anchor="middle" x="74.5" y="-8.3" font-family="Helvetica,sans-Serif" font-size="14.00">deal.II/base/function.h</text>
</g>
<!-- Node1&#45;&gt;Node2 -->
<g id="edge1" class="edge"><title>Node1&#45;&gt;Node2</title>
<path fill="none" stroke="midnightblue" d="M649.418,-84.0475C540.767,-71.1609 340.312,-47.1654 159.132,-24.199"/>
<polygon fill="midnightblue" stroke="midnightblue" points="159.513,-20.7194 149.152,-22.9325 158.631,-27.6637 159.513,-20.7194"/>
</g>
<!-- Node3 -->
<g id="node3" class="node"><title>Node3</title>
<polygon fill="white" stroke="#bfbfbf" points="167,-0.5 167,-23.5 306,-23.5 306,-0.5 167,-0.5"/>
<text text-anchor="middle" x="236.5" y="-8.3" font-family="Helvetica,sans-Serif" font-size="14.00">deal.II/base/tensor.h</text>
</g>
<!-- Node1&#45;&gt;Node3 -->
<g id="edge2" class="edge"><title>Node1&#45;&gt;Node3</title>
<path fill="none" stroke="midnightblue" d="M649.469,-80.432C555.901,-65.1537 402.263,-40.0668 311.098,-25.1808"/>
<polygon fill="midnightblue" stroke="midnightblue" points="311.549,-21.7081 301.115,-23.5508 310.421,-28.6166 311.549,-21.7081"/>
</g>
<!-- Node4 -->
<g id="node4" class="node"><title>Node4</title>
<polygon fill="white" stroke="#bfbfbf" points="324,-0.5 324,-23.5 437,-23.5 437,-0.5 324,-0.5"/>
<text text-anchor="middle" x="380.5" y="-8.3" font-family="Helvetica,sans-Serif" font-size="14.00">deal.II/grid/tria.h</text>
</g>
<!-- Node1&#45;&gt;Node4 -->
<g id="edge3" class="edge"><title>Node1&#45;&gt;Node4</title>
<path fill="none" stroke="midnightblue" d="M649.432,-75.0317C584.315,-60.0119 494.093,-39.2013 436.505,-25.918"/>
<polygon fill="midnightblue" stroke="midnightblue" points="437.028,-22.4469 426.497,-23.6097 435.455,-29.2678 437.028,-22.4469"/>
</g>
<!-- Node5 -->
<g id="node5" class="node"><title>Node5</title>
<polygon fill="white" stroke="#bfbfbf" points="455,-0.5 455,-23.5 630,-23.5 630,-0.5 455,-0.5"/>
<text text-anchor="middle" x="542.5" y="-8.3" font-family="Helvetica,sans-Serif" font-size="14.00">deal.II/grid/tria_accessor.h</text>
</g>
<!-- Node1&#45;&gt;Node5 -->
<g id="edge4" class="edge"><title>Node1&#45;&gt;Node5</title>
<path fill="none" stroke="midnightblue" d="M652.63,-60.4091C626.074,-48.9769 597.668,-36.7486 576.357,-27.5748"/>
<polygon fill="midnightblue" stroke="midnightblue" points="577.666,-24.3279 567.097,-23.5886 574.898,-30.7575 577.666,-24.3279"/>
</g>
<!-- Node6 -->
<g id="node6" class="node"><title>Node6</title>
<polygon fill="white" stroke="#bfbfbf" points="648,-0.5 648,-23.5 811,-23.5 811,-0.5 648,-0.5"/>
<text text-anchor="middle" x="729.5" y="-8.3" font-family="Helvetica,sans-Serif" font-size="14.00">deal.II/grid/tria_iterator.h</text>
</g>
<!-- Node1&#45;&gt;Node6 -->
<g id="edge5" class="edge"><title>Node1&#45;&gt;Node6</title>
<path fill="none" stroke="midnightblue" d="M729.5,-60.2928C729.5,-51.2411 729.5,-41.6988 729.5,-33.5748"/>
<polygon fill="midnightblue" stroke="midnightblue" points="733,-33.5549 729.5,-23.555 726,-33.555 733,-33.5549"/>
</g>
<!-- Node7 -->
<g id="node7" class="node"><title>Node7</title>
<polygon fill="white" stroke="#bfbfbf" points="829.5,-0.5 829.5,-23.5 981.5,-23.5 981.5,-0.5 829.5,-0.5"/>
<text text-anchor="middle" x="905.5" y="-8.3" font-family="Helvetica,sans-Serif" font-size="14.00">deal.II/lac/full_matrix.h</text>
</g>
<!-- Node1&#45;&gt;Node7 -->
<g id="edge6" class="edge"><title>Node1&#45;&gt;Node7</title>
<path fill="none" stroke="midnightblue" d="M801.848,-60.4091C826.617,-49.0799 853.096,-36.9689 873.091,-27.8235"/>
<polygon fill="midnightblue" stroke="midnightblue" points="874.712,-30.931 882.35,-23.5886 871.8,-24.5652 874.712,-30.931"/>
</g>
<!-- Node8 -->
<g id="node8" class="node"><title>Node8</title>
<polygon fill="white" stroke="#bfbfbf" points="999.5,-0.5 999.5,-23.5 1125.5,-23.5 1125.5,-0.5 999.5,-0.5"/>
<text text-anchor="middle" x="1062.5" y="-8.3" font-family="Helvetica,sans-Serif" font-size="14.00">deal.II/lac/vector.h</text>
</g>
<!-- Node1&#45;&gt;Node8 -->
<g id="edge7" class="edge"><title>Node1&#45;&gt;Node8</title>
<path fill="none" stroke="midnightblue" d="M809.686,-74.1158C871.338,-59.2119 954.813,-39.0323 1008.67,-26.0137"/>
<polygon fill="midnightblue" stroke="midnightblue" points="1009.8,-29.3409 1018.7,-23.5891 1008.15,-22.5369 1009.8,-29.3409"/>
</g>
<!-- Node9 -->
<g id="node9" class="node"><title>Node9</title>
<polygon fill="white" stroke="#bfbfbf" points="1143.5,-0.5 1143.5,-23.5 1197.5,-23.5 1197.5,-0.5 1143.5,-0.5"/>
<text text-anchor="middle" x="1170.5" y="-8.3" font-family="Helvetica,sans-Serif" font-size="14.00">cmath</text>
</g>
<!-- Node1&#45;&gt;Node9 -->
<g id="edge8" class="edge"><title>Node1&#45;&gt;Node9</title>
<path fill="none" stroke="midnightblue" d="M809.641,-82.8042C889.537,-71.4476 1015.79,-51.6279 1133.56,-24.0073"/>
<polygon fill="midnightblue" stroke="midnightblue" points="1134.55,-27.3704 1143.47,-21.6594 1132.94,-20.5589 1134.55,-27.3704"/>
</g>
<!-- Node10 -->
<g id="node10" class="node"><title>Node10</title>
<polygon fill="white" stroke="#bfbfbf" points="1215.5,-0.5 1215.5,-23.5 1277.5,-23.5 1277.5,-0.5 1215.5,-0.5"/>
<text text-anchor="middle" x="1246.5" y="-8.3" font-family="Helvetica,sans-Serif" font-size="14.00">fstream</text>
</g>
<!-- Node1&#45;&gt;Node10 -->
<g id="edge9" class="edge"><title>Node1&#45;&gt;Node10</title>
<path fill="none" stroke="midnightblue" d="M809.788,-84.8753C902.879,-74.1842 1060.98,-53.8963 1205.23,-24.0865"/>
<polygon fill="midnightblue" stroke="midnightblue" points="1206.07,-27.4854 1215.15,-22.0166 1204.64,-20.633 1206.07,-27.4854"/>
</g>
</g>
</svg>
