<?xml version="1.0" encoding="UTF-8" standalone="no"?>
<!DOCTYPE svg PUBLIC "-//W3C//DTD SVG 1.1//EN"
 "http://www.w3.org/Graphics/SVG/1.1/DTD/svg11.dtd">
<!-- Generated by graphviz version 2.38.0 (20140413.2041)
 -->
<!-- Title: /home/travis/build/konsim83/MPI&#45;MSFEC/source/functions/basis_raviart_thomas.inst.cc Pages: 1 -->
<svg width="1330pt" height="302pt"
 viewBox="0.00 0.00 1329.50 302.00" xmlns="http://www.w3.org/2000/svg" xmlns:xlink="http://www.w3.org/1999/xlink">
<g id="graph0" class="graph" transform="scale(1 1) rotate(0) translate(4 298)">
<title>/home/travis/build/konsim83/MPI&#45;MSFEC/source/functions/basis_raviart_thomas.inst.cc</title>
<polygon fill="white" stroke="none" points="-4,4 -4,-298 1325.5,-298 1325.5,4 -4,4"/>
<!-- Node1 -->
<g id="node1" class="node"><title>Node1</title>
<polygon fill="#bfbfbf" stroke="black" points="560.5,-225.5 560.5,-293.5 720.5,-293.5 720.5,-225.5 560.5,-225.5"/>
<text text-anchor="start" x="568.5" y="-278.3" font-family="Helvetica,sans-Serif" font-size="14.00">/home/travis/build</text>
<text text-anchor="start" x="568.5" y="-263.3" font-family="Helvetica,sans-Serif" font-size="14.00">/konsim83/MPI&#45;MSFEC</text>
<text text-anchor="start" x="568.5" y="-248.3" font-family="Helvetica,sans-Serif" font-size="14.00">/source/functions/basis</text>
<text text-anchor="middle" x="640.5" y="-233.3" font-family="Helvetica,sans-Serif" font-size="14.00">_raviart_thomas.inst.cc</text>
</g>
<!-- Node2 -->
<g id="node2" class="node"><title>Node2</title>
<g id="a_node2"><a xlink:href="basis__raviart__thomas_8h.html" target="_top" xlink:title="functions/basis_raviart\l_thomas.h">
<polygon fill="white" stroke="black" points="481,-150.5 481,-188.5 632,-188.5 632,-150.5 481,-150.5"/>
<text text-anchor="start" x="489" y="-173.3" font-family="Helvetica,sans-Serif" font-size="14.00">functions/basis_raviart</text>
<text text-anchor="middle" x="556.5" y="-158.3" font-family="Helvetica,sans-Serif" font-size="14.00">_thomas.h</text>
</a>
</g>
</g>
<!-- Node1&#45;&gt;Node2 -->
<g id="edge1" class="edge"><title>Node1&#45;&gt;Node2</title>
<path fill="none" stroke="midnightblue" d="M608.983,-225.482C599.672,-215.728 589.627,-205.204 580.842,-196.001"/>
<polygon fill="midnightblue" stroke="midnightblue" points="583.24,-193.444 573.803,-188.627 578.176,-198.277 583.24,-193.444"/>
</g>
<!-- Node17 -->
<g id="node17" class="node"><title>Node17</title>
<g id="a_node17"><a xlink:href="basis__raviart__thomas_8tpp.html" target="_top" xlink:title="functions/basis_raviart\l_thomas.tpp">
<polygon fill="white" stroke="black" points="650,-150.5 650,-188.5 801,-188.5 801,-150.5 650,-150.5"/>
<text text-anchor="start" x="658" y="-173.3" font-family="Helvetica,sans-Serif" font-size="14.00">functions/basis_raviart</text>
<text text-anchor="middle" x="725.5" y="-158.3" font-family="Helvetica,sans-Serif" font-size="14.00">_thomas.tpp</text>
</a>
</g>
</g>
<!-- Node1&#45;&gt;Node17 -->
<g id="edge21" class="edge"><title>Node1&#45;&gt;Node17</title>
<path fill="none" stroke="midnightblue" d="M672.393,-225.482C681.814,-215.728 691.979,-205.204 700.868,-196.001"/>
<polygon fill="midnightblue" stroke="midnightblue" points="703.561,-198.251 707.991,-188.627 698.526,-193.388 703.561,-198.251"/>
</g>
<!-- Node3 -->
<g id="node3" class="node"><title>Node3</title>
<polygon fill="white" stroke="#bfbfbf" points="0,-83 0,-106 149,-106 149,-83 0,-83"/>
<text text-anchor="middle" x="74.5" y="-90.8" font-family="Helvetica,sans-Serif" font-size="14.00">deal.II/base/function.h</text>
</g>
<!-- Node2&#45;&gt;Node3 -->
<g id="edge2" class="edge"><title>Node2&#45;&gt;Node3</title>
<path fill="none" stroke="midnightblue" d="M480.826,-160.073C400.354,-150.666 269.497,-134.094 157.5,-114 148.117,-112.317 138.187,-110.305 128.583,-108.239"/>
<polygon fill="midnightblue" stroke="midnightblue" points="129.247,-104.801 118.729,-106.077 127.746,-111.639 129.247,-104.801"/>
</g>
<!-- Node4 -->
<g id="node4" class="node"><title>Node4</title>
<polygon fill="white" stroke="#bfbfbf" points="167,-83 167,-106 306,-106 306,-83 167,-83"/>
<text text-anchor="middle" x="236.5" y="-90.8" font-family="Helvetica,sans-Serif" font-size="14.00">deal.II/base/tensor.h</text>
</g>
<!-- Node2&#45;&gt;Node4 -->
<g id="edge3" class="edge"><title>Node2&#45;&gt;Node4</title>
<path fill="none" stroke="midnightblue" d="M480.756,-151.527C433.267,-140.847 370.786,-126.724 315.5,-114 307.595,-112.181 299.249,-110.244 291.06,-108.334"/>
<polygon fill="midnightblue" stroke="midnightblue" points="291.724,-104.895 281.19,-106.028 290.132,-111.711 291.724,-104.895"/>
</g>
<!-- Node5 -->
<g id="node5" class="node"><title>Node5</title>
<polygon fill="white" stroke="#bfbfbf" points="324.5,-75.5 324.5,-113.5 452.5,-113.5 452.5,-75.5 324.5,-75.5"/>
<text text-anchor="start" x="332.5" y="-98.3" font-family="Helvetica,sans-Serif" font-size="14.00">deal.II/fe/fe_raviart</text>
<text text-anchor="middle" x="388.5" y="-83.3" font-family="Helvetica,sans-Serif" font-size="14.00">_thomas.h</text>
</g>
<!-- Node2&#45;&gt;Node5 -->
<g id="edge4" class="edge"><title>Node2&#45;&gt;Node5</title>
<path fill="none" stroke="midnightblue" d="M514.972,-150.455C492.154,-140.54 463.663,-128.16 439.502,-117.662"/>
<polygon fill="midnightblue" stroke="midnightblue" points="440.699,-114.366 430.133,-113.59 437.909,-120.786 440.699,-114.366"/>
</g>
<!-- Node6 -->
<g id="node6" class="node"><title>Node6</title>
<polygon fill="white" stroke="#bfbfbf" points="134,-8 134,-31 247,-31 247,-8 134,-8"/>
<text text-anchor="middle" x="190.5" y="-15.8" font-family="Helvetica,sans-Serif" font-size="14.00">deal.II/grid/tria.h</text>
</g>
<!-- Node2&#45;&gt;Node6 -->
<g id="edge5" class="edge"><title>Node2&#45;&gt;Node6</title>
<path fill="none" stroke="midnightblue" d="M534.267,-150.336C522.123,-140.08 507.047,-126.786 494.5,-114 478.597,-97.7939 481.191,-86.3055 461.5,-75 381.277,-28.9406 346.703,-59.509 256.5,-39 249.717,-37.4578 242.591,-35.6554 235.632,-33.792"/>
<polygon fill="midnightblue" stroke="midnightblue" points="236.184,-30.3142 225.614,-31.0414 234.331,-37.0644 236.184,-30.3142"/>
</g>
<!-- Node7 -->
<g id="node7" class="node"><title>Node7</title>
<polygon fill="white" stroke="#bfbfbf" points="265,-8 265,-31 440,-31 440,-8 265,-8"/>
<text text-anchor="middle" x="352.5" y="-15.8" font-family="Helvetica,sans-Serif" font-size="14.00">deal.II/grid/tria_accessor.h</text>
</g>
<!-- Node2&#45;&gt;Node7 -->
<g id="edge6" class="edge"><title>Node2&#45;&gt;Node7</title>
<path fill="none" stroke="midnightblue" d="M548.608,-150.207C538.752,-129.34 520.028,-95.4698 494.5,-75 470.189,-55.5063 438.117,-42.4038 410.606,-33.9424"/>
<polygon fill="midnightblue" stroke="midnightblue" points="411.28,-30.4927 400.699,-31.0318 409.307,-37.2088 411.28,-30.4927"/>
</g>
<!-- Node8 -->
<g id="node8" class="node"><title>Node8</title>
<polygon fill="white" stroke="#bfbfbf" points="458,-8 458,-31 621,-31 621,-8 458,-8"/>
<text text-anchor="middle" x="539.5" y="-15.8" font-family="Helvetica,sans-Serif" font-size="14.00">deal.II/grid/tria_iterator.h</text>
</g>
<!-- Node2&#45;&gt;Node8 -->
<g id="edge7" class="edge"><title>Node2&#45;&gt;Node8</title>
<path fill="none" stroke="midnightblue" d="M554.415,-150.352C551.253,-122.823 545.259,-70.637 541.913,-41.5044"/>
<polygon fill="midnightblue" stroke="midnightblue" points="545.351,-40.7684 540.733,-31.2332 538.397,-41.5673 545.351,-40.7684"/>
</g>
<!-- Node9 -->
<g id="node9" class="node"><title>Node9</title>
<polygon fill="white" stroke="#bfbfbf" points="639.5,-8 639.5,-31 791.5,-31 791.5,-8 639.5,-8"/>
<text text-anchor="middle" x="715.5" y="-15.8" font-family="Helvetica,sans-Serif" font-size="14.00">deal.II/lac/full_matrix.h</text>
</g>
<!-- Node2&#45;&gt;Node9 -->
<g id="edge8" class="edge"><title>Node2&#45;&gt;Node9</title>
<path fill="none" stroke="midnightblue" d="M564.01,-150.361C573.197,-129.95 590.422,-96.8038 613.5,-75 631.768,-57.7401 656.558,-44.3289 677.125,-35.1292"/>
<polygon fill="midnightblue" stroke="midnightblue" points="678.735,-38.2465 686.536,-31.0767 675.967,-31.8173 678.735,-38.2465"/>
</g>
<!-- Node10 -->
<g id="node10" class="node"><title>Node10</title>
<polygon fill="white" stroke="#bfbfbf" points="1195.5,-8 1195.5,-31 1321.5,-31 1321.5,-8 1195.5,-8"/>
<text text-anchor="middle" x="1258.5" y="-15.8" font-family="Helvetica,sans-Serif" font-size="14.00">deal.II/lac/vector.h</text>
</g>
<!-- Node2&#45;&gt;Node10 -->
<g id="edge9" class="edge"><title>Node2&#45;&gt;Node10</title>
<path fill="none" stroke="midnightblue" d="M632.032,-152.005C635.23,-151.324 638.397,-150.653 641.5,-150 720.056,-133.463 748.289,-152.922 818.5,-114 839.397,-102.416 834.091,-85.6076 855.5,-75 988.095,-9.30229 1040.91,-65.4809 1186.5,-39 1194.81,-37.4894 1203.57,-35.5431 1212.01,-33.4823"/>
<polygon fill="midnightblue" stroke="midnightblue" points="1212.89,-36.8706 1221.73,-31.0298 1211.17,-30.0834 1212.89,-36.8706"/>
</g>
<!-- Node11 -->
<g id="node11" class="node"><title>Node11</title>
<polygon fill="white" stroke="#bfbfbf" points="864.5,-83 864.5,-106 918.5,-106 918.5,-83 864.5,-83"/>
<text text-anchor="middle" x="891.5" y="-90.8" font-family="Helvetica,sans-Serif" font-size="14.00">cmath</text>
</g>
<!-- Node2&#45;&gt;Node11 -->
<g id="edge10" class="edge"><title>Node2&#45;&gt;Node11</title>
<path fill="none" stroke="midnightblue" d="M632.008,-151.886C635.213,-151.238 638.387,-150.607 641.5,-150 734.017,-131.973 760.376,-141.604 850.5,-114 854.07,-112.907 857.737,-111.576 861.339,-110.136"/>
<polygon fill="midnightblue" stroke="midnightblue" points="862.809,-113.314 870.616,-106.152 860.046,-106.882 862.809,-113.314"/>
</g>
<!-- Node12 -->
<g id="node12" class="node"><title>Node12</title>
<polygon fill="white" stroke="#bfbfbf" points="936.5,-83 936.5,-106 998.5,-106 998.5,-83 936.5,-83"/>
<text text-anchor="middle" x="967.5" y="-90.8" font-family="Helvetica,sans-Serif" font-size="14.00">fstream</text>
</g>
<!-- Node2&#45;&gt;Node12 -->
<g id="edge11" class="edge"><title>Node2&#45;&gt;Node12</title>
<path fill="none" stroke="midnightblue" d="M632.434,-151.622C635.492,-151.054 638.523,-150.51 641.5,-150 767.773,-128.356 804.347,-149.308 927.5,-114 931.095,-112.969 934.775,-111.658 938.377,-110.211"/>
<polygon fill="midnightblue" stroke="midnightblue" points="939.862,-113.381 947.616,-106.161 937.052,-106.97 939.862,-113.381"/>
</g>
<!-- Node13 -->
<g id="node13" class="node"><title>Node13</title>
<g id="a_node13"><a xlink:href="my__mapping__q1_8h.html" target="_top" xlink:title="functions/my_mapping_q1.h">
<polygon fill="white" stroke="black" points="622,-83 622,-106 809,-106 809,-83 622,-83"/>
<text text-anchor="middle" x="715.5" y="-90.8" font-family="Helvetica,sans-Serif" font-size="14.00">functions/my_mapping_q1.h</text>
</a>
</g>
</g>
<!-- Node2&#45;&gt;Node13 -->
<g id="edge12" class="edge"><title>Node2&#45;&gt;Node13</title>
<path fill="none" stroke="midnightblue" d="M595.803,-150.455C622.713,-138.1 657.961,-121.917 683.226,-110.317"/>
<polygon fill="midnightblue" stroke="midnightblue" points="684.755,-113.467 692.383,-106.114 681.834,-107.105 684.755,-113.467"/>
</g>
<!-- Node13&#45;&gt;Node6 -->
<g id="edge15" class="edge"><title>Node13&#45;&gt;Node6</title>
<path fill="none" stroke="midnightblue" d="M621.649,-86.6441C528.408,-78.8292 381.657,-63.8155 256.5,-39 249.114,-37.5356 241.348,-35.6649 233.839,-33.6783"/>
<polygon fill="midnightblue" stroke="midnightblue" points="234.742,-30.2966 224.172,-31.0243 232.889,-37.0468 234.742,-30.2966"/>
</g>
<!-- Node13&#45;&gt;Node7 -->
<g id="edge16" class="edge"><title>Node13&#45;&gt;Node7</title>
<path fill="none" stroke="midnightblue" d="M663.104,-82.9631C597.42,-69.7538 484.962,-47.1383 414.899,-33.0485"/>
<polygon fill="midnightblue" stroke="midnightblue" points="415.374,-29.574 404.88,-31.0337 413.993,-36.4366 415.374,-29.574"/>
</g>
<!-- Node13&#45;&gt;Node8 -->
<g id="edge17" class="edge"><title>Node13&#45;&gt;Node8</title>
<path fill="none" stroke="midnightblue" d="M689.908,-82.8852C659.451,-70.2524 608.445,-49.0964 574.39,-34.9716"/>
<polygon fill="midnightblue" stroke="midnightblue" points="575.415,-31.6076 564.837,-31.0092 572.733,-38.0734 575.415,-31.6076"/>
</g>
<!-- Node13&#45;&gt;Node9 -->
<g id="edge18" class="edge"><title>Node13&#45;&gt;Node9</title>
<path fill="none" stroke="midnightblue" d="M715.5,-82.7286C715.5,-71.9459 715.5,-55.0681 715.5,-41.6087"/>
<polygon fill="midnightblue" stroke="midnightblue" points="719,-41.3156 715.5,-31.3156 712,-41.3156 719,-41.3156"/>
</g>
<!-- Node13&#45;&gt;Node10 -->
<g id="edge19" class="edge"><title>Node13&#45;&gt;Node10</title>
<path fill="none" stroke="midnightblue" d="M771.746,-82.9858C788.078,-80.1471 805.968,-77.2437 822.5,-75 983.59,-53.1374 1026.42,-67.311 1186.5,-39 1194.9,-37.5138 1203.77,-35.561 1212.3,-33.4819"/>
<polygon fill="midnightblue" stroke="midnightblue" points="1213.27,-36.8466 1222.11,-31.0036 1211.56,-30.0598 1213.27,-36.8466"/>
</g>
<!-- Node14 -->
<g id="node14" class="node"><title>Node14</title>
<polygon fill="white" stroke="#bfbfbf" points="810,-0.5 810,-38.5 957,-38.5 957,-0.5 810,-0.5"/>
<text text-anchor="start" x="818" y="-23.3" font-family="Helvetica,sans-Serif" font-size="14.00">deal.II/base/geometry</text>
<text text-anchor="middle" x="883.5" y="-8.3" font-family="Helvetica,sans-Serif" font-size="14.00">_info.h</text>
</g>
<!-- Node13&#45;&gt;Node14 -->
<g id="edge13" class="edge"><title>Node13&#45;&gt;Node14</title>
<path fill="none" stroke="midnightblue" d="M739.929,-82.8852C764.093,-72.3851 801.809,-55.9968 832.521,-42.6518"/>
<polygon fill="midnightblue" stroke="midnightblue" points="834.027,-45.8132 841.804,-38.6178 831.238,-39.3931 834.027,-45.8132"/>
</g>
<!-- Node15 -->
<g id="node15" class="node"><title>Node15</title>
<polygon fill="white" stroke="#bfbfbf" points="975,-8 975,-31 1106,-31 1106,-8 975,-8"/>
<text text-anchor="middle" x="1040.5" y="-15.8" font-family="Helvetica,sans-Serif" font-size="14.00">deal.II/base/point.h</text>
</g>
<!-- Node13&#45;&gt;Node15 -->
<g id="edge14" class="edge"><title>Node13&#45;&gt;Node15</title>
<path fill="none" stroke="midnightblue" d="M766.562,-82.8998C817.353,-72.2413 897.456,-55.1221 966.5,-39 974.026,-37.2427 981.966,-35.3251 989.741,-33.4118"/>
<polygon fill="midnightblue" stroke="midnightblue" points="990.593,-36.8066 999.456,-31.0028 988.908,-30.0124 990.593,-36.8066"/>
</g>
<!-- Node16 -->
<g id="node16" class="node"><title>Node16</title>
<polygon fill="white" stroke="#bfbfbf" points="1124,-8 1124,-31 1177,-31 1177,-8 1124,-8"/>
<text text-anchor="middle" x="1150.5" y="-15.8" font-family="Helvetica,sans-Serif" font-size="14.00">vector</text>
</g>
<!-- Node13&#45;&gt;Node16 -->
<g id="edge20" class="edge"><title>Node13&#45;&gt;Node16</title>
<path fill="none" stroke="midnightblue" d="M773.169,-82.9965C789.123,-80.2359 806.461,-77.3704 822.5,-75 952.292,-55.8179 990.324,-78.3048 1115.5,-39 1118.49,-38.0625 1121.52,-36.8733 1124.48,-35.5515"/>
<polygon fill="midnightblue" stroke="midnightblue" points="1126.2,-38.6073 1133.6,-31.0237 1123.08,-32.3382 1126.2,-38.6073"/>
</g>
</g>
</svg>
