<?xml version="1.0" encoding="UTF-8" standalone="no"?>
<!DOCTYPE svg PUBLIC "-//W3C//DTD SVG 1.1//EN"
 "http://www.w3.org/Graphics/SVG/1.1/DTD/svg11.dtd">
<!-- Generated by graphviz version 2.38.0 (20140413.2041)
 -->
<!-- Title: /home/travis/build/konsim83/MPI&#45;MSFEC/include/functions/basis_raviart_thomas.h Pages: 1 -->
<svg width="867pt" height="392pt"
 viewBox="0.00 0.00 867.00 392.00" xmlns="http://www.w3.org/2000/svg" xmlns:xlink="http://www.w3.org/1999/xlink">
<g id="graph0" class="graph" transform="scale(1 1) rotate(0) translate(4 388)">
<title>/home/travis/build/konsim83/MPI&#45;MSFEC/include/functions/basis_raviart_thomas.h</title>
<polygon fill="white" stroke="none" points="-4,4 -4,-388 863,-388 863,4 -4,4"/>
<!-- Node1 -->
<g id="node1" class="node"><title>Node1</title>
<polygon fill="#bfbfbf" stroke="black" points="178,-315.5 178,-383.5 338,-383.5 338,-315.5 178,-315.5"/>
<text text-anchor="start" x="186" y="-368.3" font-family="Helvetica,sans-Serif" font-size="14.00">/home/travis/build</text>
<text text-anchor="start" x="186" y="-353.3" font-family="Helvetica,sans-Serif" font-size="14.00">/konsim83/MPI&#45;MSFEC</text>
<text text-anchor="start" x="186" y="-338.3" font-family="Helvetica,sans-Serif" font-size="14.00">/include/functions/basis</text>
<text text-anchor="middle" x="258" y="-323.3" font-family="Helvetica,sans-Serif" font-size="14.00">_raviart_thomas.h</text>
</g>
<!-- Node2 -->
<g id="node2" class="node"><title>Node2</title>
<g id="a_node2"><a xlink:href="basis__raviart__thomas_8inst_8cc.html" target="_top" xlink:title="/home/travis/build\l/konsim83/MPI&#45;MSFEC\l/source/functions/basis\l_raviart_thomas.inst.cc">
<polygon fill="white" stroke="black" points="0,-210.5 0,-278.5 160,-278.5 160,-210.5 0,-210.5"/>
<text text-anchor="start" x="8" y="-263.3" font-family="Helvetica,sans-Serif" font-size="14.00">/home/travis/build</text>
<text text-anchor="start" x="8" y="-248.3" font-family="Helvetica,sans-Serif" font-size="14.00">/konsim83/MPI&#45;MSFEC</text>
<text text-anchor="start" x="8" y="-233.3" font-family="Helvetica,sans-Serif" font-size="14.00">/source/functions/basis</text>
<text text-anchor="middle" x="80" y="-218.3" font-family="Helvetica,sans-Serif" font-size="14.00">_raviart_thomas.inst.cc</text>
</a>
</g>
</g>
<!-- Node1&#45;&gt;Node2 -->
<g id="edge1" class="edge"><title>Node1&#45;&gt;Node2</title>
<path fill="none" stroke="midnightblue" d="M191.988,-310.302C173.994,-299.89 154.653,-288.698 137.193,-278.595"/>
<polygon fill="midnightblue" stroke="midnightblue" points="190.292,-313.364 200.7,-315.343 193.797,-307.305 190.292,-313.364"/>
</g>
<!-- Node3 -->
<g id="node3" class="node"><title>Node3</title>
<g id="a_node3"><a xlink:href="ned__rt__basis_8h.html" target="_top" xlink:title="/home/travis/build\l/konsim83/MPI&#45;MSFEC\l/include/Ned_RT/ned_rt\l_basis.h">
<polygon fill="white" stroke="black" points="178,-210.5 178,-278.5 338,-278.5 338,-210.5 178,-210.5"/>
<text text-anchor="start" x="186" y="-263.3" font-family="Helvetica,sans-Serif" font-size="14.00">/home/travis/build</text>
<text text-anchor="start" x="186" y="-248.3" font-family="Helvetica,sans-Serif" font-size="14.00">/konsim83/MPI&#45;MSFEC</text>
<text text-anchor="start" x="186" y="-233.3" font-family="Helvetica,sans-Serif" font-size="14.00">/include/Ned_RT/ned_rt</text>
<text text-anchor="middle" x="258" y="-218.3" font-family="Helvetica,sans-Serif" font-size="14.00">_basis.h</text>
</a>
</g>
</g>
<!-- Node1&#45;&gt;Node3 -->
<g id="edge2" class="edge"><title>Node1&#45;&gt;Node3</title>
<path fill="none" stroke="midnightblue" d="M258,-305.136C258,-296.256 258,-287.045 258,-278.595"/>
<polygon fill="midnightblue" stroke="midnightblue" points="254.5,-305.343 258,-315.343 261.5,-305.343 254.5,-305.343"/>
</g>
<!-- Node8 -->
<g id="node8" class="node"><title>Node8</title>
<g id="a_node8"><a xlink:href="rt__dq__basis_8h.html" target="_top" xlink:title="/home/travis/build\l/konsim83/MPI&#45;MSFEC\l/include/RT_DQ/rt_dq\l_basis.h">
<polygon fill="white" stroke="black" points="377,-210.5 377,-278.5 537,-278.5 537,-210.5 377,-210.5"/>
<text text-anchor="start" x="385" y="-263.3" font-family="Helvetica,sans-Serif" font-size="14.00">/home/travis/build</text>
<text text-anchor="start" x="385" y="-248.3" font-family="Helvetica,sans-Serif" font-size="14.00">/konsim83/MPI&#45;MSFEC</text>
<text text-anchor="start" x="385" y="-233.3" font-family="Helvetica,sans-Serif" font-size="14.00">/include/RT_DQ/rt_dq</text>
<text text-anchor="middle" x="457" y="-218.3" font-family="Helvetica,sans-Serif" font-size="14.00">_basis.h</text>
</a>
</g>
</g>
<!-- Node1&#45;&gt;Node8 -->
<g id="edge7" class="edge"><title>Node1&#45;&gt;Node8</title>
<path fill="none" stroke="midnightblue" d="M330.755,-310.843C351.227,-300.247 373.33,-288.806 393.234,-278.505"/>
<polygon fill="midnightblue" stroke="midnightblue" points="329.058,-307.78 321.786,-315.485 332.276,-313.997 329.058,-307.78"/>
</g>
<!-- Node4 -->
<g id="node4" class="node"><title>Node4</title>
<g id="a_node4"><a xlink:href="ned__rt__basis_8cc.html" target="_top" xlink:title="/home/travis/build\l/konsim83/MPI&#45;MSFEC\l/source/Ned_RT/ned_rt\l_basis.cc">
<polygon fill="white" stroke="black" points="0,-105.5 0,-173.5 160,-173.5 160,-105.5 0,-105.5"/>
<text text-anchor="start" x="8" y="-158.3" font-family="Helvetica,sans-Serif" font-size="14.00">/home/travis/build</text>
<text text-anchor="start" x="8" y="-143.3" font-family="Helvetica,sans-Serif" font-size="14.00">/konsim83/MPI&#45;MSFEC</text>
<text text-anchor="start" x="8" y="-128.3" font-family="Helvetica,sans-Serif" font-size="14.00">/source/Ned_RT/ned_rt</text>
<text text-anchor="middle" x="80" y="-113.3" font-family="Helvetica,sans-Serif" font-size="14.00">_basis.cc</text>
</a>
</g>
</g>
<!-- Node3&#45;&gt;Node4 -->
<g id="edge3" class="edge"><title>Node3&#45;&gt;Node4</title>
<path fill="none" stroke="midnightblue" d="M191.988,-205.302C173.994,-194.89 154.653,-183.698 137.193,-173.595"/>
<polygon fill="midnightblue" stroke="midnightblue" points="190.292,-208.364 200.7,-210.343 193.797,-202.305 190.292,-208.364"/>
</g>
<!-- Node5 -->
<g id="node5" class="node"><title>Node5</title>
<g id="a_node5"><a xlink:href="ned__rt__global_8h.html" target="_top" xlink:title="/home/travis/build\l/konsim83/MPI&#45;MSFEC\l/include/Ned_RT/ned_rt\l_global.h">
<polygon fill="white" stroke="black" points="178,-105.5 178,-173.5 338,-173.5 338,-105.5 178,-105.5"/>
<text text-anchor="start" x="186" y="-158.3" font-family="Helvetica,sans-Serif" font-size="14.00">/home/travis/build</text>
<text text-anchor="start" x="186" y="-143.3" font-family="Helvetica,sans-Serif" font-size="14.00">/konsim83/MPI&#45;MSFEC</text>
<text text-anchor="start" x="186" y="-128.3" font-family="Helvetica,sans-Serif" font-size="14.00">/include/Ned_RT/ned_rt</text>
<text text-anchor="middle" x="258" y="-113.3" font-family="Helvetica,sans-Serif" font-size="14.00">_global.h</text>
</a>
</g>
</g>
<!-- Node3&#45;&gt;Node5 -->
<g id="edge4" class="edge"><title>Node3&#45;&gt;Node5</title>
<path fill="none" stroke="midnightblue" d="M258,-200.136C258,-191.256 258,-182.045 258,-173.595"/>
<polygon fill="midnightblue" stroke="midnightblue" points="254.5,-200.343 258,-210.343 261.5,-200.343 254.5,-200.343"/>
</g>
<!-- Node6 -->
<g id="node6" class="node"><title>Node6</title>
<g id="a_node6"><a xlink:href="main__ned__rt_8cxx.html" target="_top" xlink:title="/home/travis/build\l/konsim83/MPI&#45;MSFEC\l/source/main_ned_rt.cxx">
<polygon fill="white" stroke="black" points="55,-8 55,-61 219,-61 219,-8 55,-8"/>
<text text-anchor="start" x="63" y="-45.8" font-family="Helvetica,sans-Serif" font-size="14.00">/home/travis/build</text>
<text text-anchor="start" x="63" y="-30.8" font-family="Helvetica,sans-Serif" font-size="14.00">/konsim83/MPI&#45;MSFEC</text>
<text text-anchor="middle" x="137" y="-15.8" font-family="Helvetica,sans-Serif" font-size="14.00">/source/main_ned_rt.cxx</text>
</a>
</g>
</g>
<!-- Node5&#45;&gt;Node6 -->
<g id="edge5" class="edge"><title>Node5&#45;&gt;Node6</title>
<path fill="none" stroke="midnightblue" d="M211.393,-98.8262C196.507,-86.1546 180.434,-72.4731 167.051,-61.0806"/>
<polygon fill="midnightblue" stroke="midnightblue" points="209.165,-101.526 219.049,-105.343 213.703,-96.196 209.165,-101.526"/>
</g>
<!-- Node7 -->
<g id="node7" class="node"><title>Node7</title>
<g id="a_node7"><a xlink:href="ned__rt__global_8cc.html" target="_top" xlink:title="/home/travis/build\l/konsim83/MPI&#45;MSFEC\l/source/Ned_RT/ned_rt\l_global.cc">
<polygon fill="white" stroke="black" points="237,-0.5 237,-68.5 397,-68.5 397,-0.5 237,-0.5"/>
<text text-anchor="start" x="245" y="-53.3" font-family="Helvetica,sans-Serif" font-size="14.00">/home/travis/build</text>
<text text-anchor="start" x="245" y="-38.3" font-family="Helvetica,sans-Serif" font-size="14.00">/konsim83/MPI&#45;MSFEC</text>
<text text-anchor="start" x="245" y="-23.3" font-family="Helvetica,sans-Serif" font-size="14.00">/source/Ned_RT/ned_rt</text>
<text text-anchor="middle" x="317" y="-8.3" font-family="Helvetica,sans-Serif" font-size="14.00">_global.cc</text>
</a>
</g>
</g>
<!-- Node5&#45;&gt;Node7 -->
<g id="edge6" class="edge"><title>Node5&#45;&gt;Node7</title>
<path fill="none" stroke="midnightblue" d="M282.012,-96.5809C287.351,-87.2595 292.939,-77.504 298.043,-68.5947"/>
<polygon fill="midnightblue" stroke="midnightblue" points="278.926,-94.9263 276.993,-105.343 285,-98.4056 278.926,-94.9263"/>
</g>
<!-- Node9 -->
<g id="node9" class="node"><title>Node9</title>
<g id="a_node9"><a xlink:href="rt__dq__basis_8cc.html" target="_top" xlink:title="/home/travis/build\l/konsim83/MPI&#45;MSFEC\l/source/RT_DQ/rt_dq_basis.cc">
<polygon fill="white" stroke="black" points="356,-113 356,-166 558,-166 558,-113 356,-113"/>
<text text-anchor="start" x="364" y="-150.8" font-family="Helvetica,sans-Serif" font-size="14.00">/home/travis/build</text>
<text text-anchor="start" x="364" y="-135.8" font-family="Helvetica,sans-Serif" font-size="14.00">/konsim83/MPI&#45;MSFEC</text>
<text text-anchor="middle" x="457" y="-120.8" font-family="Helvetica,sans-Serif" font-size="14.00">/source/RT_DQ/rt_dq_basis.cc</text>
</a>
</g>
</g>
<!-- Node8&#45;&gt;Node9 -->
<g id="edge8" class="edge"><title>Node8&#45;&gt;Node9</title>
<path fill="none" stroke="midnightblue" d="M457,-200.316C457,-188.663 457,-176.428 457,-166.081"/>
<polygon fill="midnightblue" stroke="midnightblue" points="453.5,-200.343 457,-210.343 460.5,-200.343 453.5,-200.343"/>
</g>
<!-- Node10 -->
<g id="node10" class="node"><title>Node10</title>
<g id="a_node10"><a xlink:href="rt__dq__global_8h.html" target="_top" xlink:title="/home/travis/build\l/konsim83/MPI&#45;MSFEC\l/include/RT_DQ/rt_dq\l_global.h">
<polygon fill="white" stroke="black" points="576,-105.5 576,-173.5 736,-173.5 736,-105.5 576,-105.5"/>
<text text-anchor="start" x="584" y="-158.3" font-family="Helvetica,sans-Serif" font-size="14.00">/home/travis/build</text>
<text text-anchor="start" x="584" y="-143.3" font-family="Helvetica,sans-Serif" font-size="14.00">/konsim83/MPI&#45;MSFEC</text>
<text text-anchor="start" x="584" y="-128.3" font-family="Helvetica,sans-Serif" font-size="14.00">/include/RT_DQ/rt_dq</text>
<text text-anchor="middle" x="656" y="-113.3" font-family="Helvetica,sans-Serif" font-size="14.00">_global.h</text>
</a>
</g>
</g>
<!-- Node8&#45;&gt;Node10 -->
<g id="edge9" class="edge"><title>Node8&#45;&gt;Node10</title>
<path fill="none" stroke="midnightblue" d="M529.755,-205.843C550.227,-195.247 572.33,-183.806 592.234,-173.505"/>
<polygon fill="midnightblue" stroke="midnightblue" points="528.058,-202.78 520.786,-210.485 531.276,-208.997 528.058,-202.78"/>
</g>
<!-- Node11 -->
<g id="node11" class="node"><title>Node11</title>
<g id="a_node11"><a xlink:href="main__rt__dq_8cxx.html" target="_top" xlink:title="/home/travis/build\l/konsim83/MPI&#45;MSFEC\l/source/main_rt_dq.cxx">
<polygon fill="white" stroke="black" points="475,-8 475,-61 635,-61 635,-8 475,-8"/>
<text text-anchor="start" x="483" y="-45.8" font-family="Helvetica,sans-Serif" font-size="14.00">/home/travis/build</text>
<text text-anchor="start" x="483" y="-30.8" font-family="Helvetica,sans-Serif" font-size="14.00">/konsim83/MPI&#45;MSFEC</text>
<text text-anchor="middle" x="555" y="-15.8" font-family="Helvetica,sans-Serif" font-size="14.00">/source/main_rt_dq.cxx</text>
</a>
</g>
</g>
<!-- Node10&#45;&gt;Node11 -->
<g id="edge10" class="edge"><title>Node10&#45;&gt;Node11</title>
<path fill="none" stroke="midnightblue" d="M616.412,-98.1277C604.179,-85.6533 591.05,-72.2641 580.084,-61.0806"/>
<polygon fill="midnightblue" stroke="midnightblue" points="613.987,-100.654 623.487,-105.343 618.985,-95.7526 613.987,-100.654"/>
</g>
<!-- Node12 -->
<g id="node12" class="node"><title>Node12</title>
<g id="a_node12"><a xlink:href="rt__dq__global_8cc.html" target="_top" xlink:title="/home/travis/build\l/konsim83/MPI&#45;MSFEC\l/source/RT_DQ/rt_dq_global.cc">
<polygon fill="white" stroke="black" points="653,-8 653,-61 859,-61 859,-8 653,-8"/>
<text text-anchor="start" x="661" y="-45.8" font-family="Helvetica,sans-Serif" font-size="14.00">/home/travis/build</text>
<text text-anchor="start" x="661" y="-30.8" font-family="Helvetica,sans-Serif" font-size="14.00">/konsim83/MPI&#45;MSFEC</text>
<text text-anchor="middle" x="756" y="-15.8" font-family="Helvetica,sans-Serif" font-size="14.00">/source/RT_DQ/rt_dq_global.cc</text>
</a>
</g>
</g>
<!-- Node10&#45;&gt;Node12 -->
<g id="edge11" class="edge"><title>Node10&#45;&gt;Node12</title>
<path fill="none" stroke="midnightblue" d="M695.196,-98.1277C707.307,-85.6533 720.307,-72.2641 731.164,-61.0806"/>
<polygon fill="midnightblue" stroke="midnightblue" points="692.646,-95.7303 688.191,-105.343 697.668,-100.606 692.646,-95.7303"/>
</g>
</g>
</svg>
