<?xml version="1.0" encoding="UTF-8" standalone="no"?>
<!DOCTYPE svg PUBLIC "-//W3C//DTD SVG 1.1//EN"
 "http://www.w3.org/Graphics/SVG/1.1/DTD/svg11.dtd">
<!-- Generated by graphviz version 2.38.0 (20140413.2041)
 -->
<!-- Title: /home/travis/build/konsim83/MPI&#45;MSFEC/source/functions/basis_nedelec_curl.inst.cc Pages: 1 -->
<svg width="1350pt" height="287pt"
 viewBox="0.00 0.00 1349.50 287.00" xmlns="http://www.w3.org/2000/svg" xmlns:xlink="http://www.w3.org/1999/xlink">
<g id="graph0" class="graph" transform="scale(1 1) rotate(0) translate(4 283)">
<title>/home/travis/build/konsim83/MPI&#45;MSFEC/source/functions/basis_nedelec_curl.inst.cc</title>
<polygon fill="white" stroke="none" points="-4,4 -4,-283 1345.5,-283 1345.5,4 -4,4"/>
<!-- Node1 -->
<g id="node1" class="node"><title>Node1</title>
<polygon fill="#bfbfbf" stroke="black" points="585.5,-210.5 585.5,-278.5 745.5,-278.5 745.5,-210.5 585.5,-210.5"/>
<text text-anchor="start" x="593.5" y="-263.3" font-family="Helvetica,sans-Serif" font-size="14.00">/home/travis/build</text>
<text text-anchor="start" x="593.5" y="-248.3" font-family="Helvetica,sans-Serif" font-size="14.00">/konsim83/MPI&#45;MSFEC</text>
<text text-anchor="start" x="593.5" y="-233.3" font-family="Helvetica,sans-Serif" font-size="14.00">/source/functions/basis</text>
<text text-anchor="middle" x="665.5" y="-218.3" font-family="Helvetica,sans-Serif" font-size="14.00">_nedelec_curl.inst.cc</text>
</g>
<!-- Node2 -->
<g id="node2" class="node"><title>Node2</title>
<g id="a_node2"><a xlink:href="basis__nedelec__curl_8h.html" target="_top" xlink:title="functions/basis_nedelec\l_curl.h">
<polygon fill="white" stroke="black" points="496,-135.5 496,-173.5 657,-173.5 657,-135.5 496,-135.5"/>
<text text-anchor="start" x="504" y="-158.3" font-family="Helvetica,sans-Serif" font-size="14.00">functions/basis_nedelec</text>
<text text-anchor="middle" x="576.5" y="-143.3" font-family="Helvetica,sans-Serif" font-size="14.00">_curl.h</text>
</a>
</g>
</g>
<!-- Node1&#45;&gt;Node2 -->
<g id="edge1" class="edge"><title>Node1&#45;&gt;Node2</title>
<path fill="none" stroke="midnightblue" d="M632.106,-210.482C622.143,-200.63 611.386,-189.994 602.012,-180.726"/>
<polygon fill="midnightblue" stroke="midnightblue" points="604.405,-178.169 594.833,-173.627 599.483,-183.147 604.405,-178.169"/>
</g>
<!-- Node17 -->
<g id="node17" class="node"><title>Node17</title>
<g id="a_node17"><a xlink:href="basis__nedelec__curl_8tpp.html" target="_top" xlink:title="functions/basis_nedelec\l_curl.tpp">
<polygon fill="white" stroke="black" points="675,-135.5 675,-173.5 836,-173.5 836,-135.5 675,-135.5"/>
<text text-anchor="start" x="683" y="-158.3" font-family="Helvetica,sans-Serif" font-size="14.00">functions/basis_nedelec</text>
<text text-anchor="middle" x="755.5" y="-143.3" font-family="Helvetica,sans-Serif" font-size="14.00">_curl.tpp</text>
</a>
</g>
</g>
<!-- Node1&#45;&gt;Node17 -->
<g id="edge21" class="edge"><title>Node1&#45;&gt;Node17</title>
<path fill="none" stroke="midnightblue" d="M699.269,-210.482C709.344,-200.63 720.222,-189.994 729.701,-180.726"/>
<polygon fill="midnightblue" stroke="midnightblue" points="732.258,-183.121 736.961,-173.627 727.364,-178.116 732.258,-183.121"/>
</g>
<!-- Node3 -->
<g id="node3" class="node"><title>Node3</title>
<polygon fill="white" stroke="#bfbfbf" points="0,-75.5 0,-98.5 149,-98.5 149,-75.5 0,-75.5"/>
<text text-anchor="middle" x="74.5" y="-83.3" font-family="Helvetica,sans-Serif" font-size="14.00">deal.II/base/function.h</text>
</g>
<!-- Node2&#45;&gt;Node3 -->
<g id="edge2" class="edge"><title>Node2&#45;&gt;Node3</title>
<path fill="none" stroke="midnightblue" d="M495.777,-143.059C413.621,-132.419 282.292,-115.375 159.142,-99.2136"/>
<polygon fill="midnightblue" stroke="midnightblue" points="159.526,-95.7342 149.156,-97.9028 158.615,-102.675 159.526,-95.7342"/>
</g>
<!-- Node4 -->
<g id="node4" class="node"><title>Node4</title>
<polygon fill="white" stroke="#bfbfbf" points="167,-75.5 167,-98.5 306,-98.5 306,-75.5 167,-75.5"/>
<text text-anchor="middle" x="236.5" y="-83.3" font-family="Helvetica,sans-Serif" font-size="14.00">deal.II/base/tensor.h</text>
</g>
<!-- Node2&#45;&gt;Node4 -->
<g id="edge3" class="edge"><title>Node2&#45;&gt;Node4</title>
<path fill="none" stroke="midnightblue" d="M495.925,-137.977C436.398,-126.51 356.421,-111.102 301.076,-100.44"/>
<polygon fill="midnightblue" stroke="midnightblue" points="301.52,-96.9616 291.038,-98.5067 300.196,-103.835 301.52,-96.9616"/>
</g>
<!-- Node5 -->
<g id="node5" class="node"><title>Node5</title>
<polygon fill="white" stroke="#bfbfbf" points="324,-75.5 324,-98.5 473,-98.5 473,-75.5 324,-75.5"/>
<text text-anchor="middle" x="398.5" y="-83.3" font-family="Helvetica,sans-Serif" font-size="14.00">deal.II/fe/fe_nedelec.h</text>
</g>
<!-- Node2&#45;&gt;Node5 -->
<g id="edge4" class="edge"><title>Node2&#45;&gt;Node5</title>
<path fill="none" stroke="midnightblue" d="M527.39,-135.428C498.829,-124.919 463.359,-111.867 436.862,-102.116"/>
<polygon fill="midnightblue" stroke="midnightblue" points="437.773,-98.7223 427.18,-98.5535 435.356,-105.292 437.773,-98.7223"/>
</g>
<!-- Node6 -->
<g id="node6" class="node"><title>Node6</title>
<polygon fill="white" stroke="#bfbfbf" points="154,-8 154,-31 267,-31 267,-8 154,-8"/>
<text text-anchor="middle" x="210.5" y="-15.8" font-family="Helvetica,sans-Serif" font-size="14.00">deal.II/grid/tria.h</text>
</g>
<!-- Node2&#45;&gt;Node6 -->
<g id="edge5" class="edge"><title>Node2&#45;&gt;Node6</title>
<path fill="none" stroke="midnightblue" d="M555.895,-135.316C530.837,-113.359 490.842,-78.8701 482.5,-75 398.189,-35.8836 367.139,-59.5685 276.5,-39 269.717,-37.4606 262.59,-35.6597 255.63,-33.797"/>
<polygon fill="midnightblue" stroke="midnightblue" points="256.183,-30.3192 245.613,-31.0469 254.33,-37.0695 256.183,-30.3192"/>
</g>
<!-- Node7 -->
<g id="node7" class="node"><title>Node7</title>
<polygon fill="white" stroke="#bfbfbf" points="285,-8 285,-31 460,-31 460,-8 285,-8"/>
<text text-anchor="middle" x="372.5" y="-15.8" font-family="Helvetica,sans-Serif" font-size="14.00">deal.II/grid/tria_accessor.h</text>
</g>
<!-- Node2&#45;&gt;Node7 -->
<g id="edge6" class="edge"><title>Node2&#45;&gt;Node7</title>
<path fill="none" stroke="midnightblue" d="M566.121,-135.279C555.271,-117.684 536.74,-91.3656 514.5,-75 488.53,-55.8903 455.029,-42.6114 427.09,-33.9485"/>
<polygon fill="midnightblue" stroke="midnightblue" points="428.044,-30.5807 417.46,-31.0748 426.042,-37.2884 428.044,-30.5807"/>
</g>
<!-- Node8 -->
<g id="node8" class="node"><title>Node8</title>
<polygon fill="white" stroke="#bfbfbf" points="478,-8 478,-31 641,-31 641,-8 478,-8"/>
<text text-anchor="middle" x="559.5" y="-15.8" font-family="Helvetica,sans-Serif" font-size="14.00">deal.II/grid/tria_iterator.h</text>
</g>
<!-- Node2&#45;&gt;Node8 -->
<g id="edge7" class="edge"><title>Node2&#45;&gt;Node8</title>
<path fill="none" stroke="midnightblue" d="M574.172,-135.286C571.035,-110.745 565.465,-67.1684 562.165,-41.346"/>
<polygon fill="midnightblue" stroke="midnightblue" points="565.603,-40.6434 560.864,-31.1679 558.66,-41.531 565.603,-40.6434"/>
</g>
<!-- Node9 -->
<g id="node9" class="node"><title>Node9</title>
<polygon fill="white" stroke="#bfbfbf" points="659.5,-8 659.5,-31 811.5,-31 811.5,-8 659.5,-8"/>
<text text-anchor="middle" x="735.5" y="-15.8" font-family="Helvetica,sans-Serif" font-size="14.00">deal.II/lac/full_matrix.h</text>
</g>
<!-- Node2&#45;&gt;Node9 -->
<g id="edge8" class="edge"><title>Node2&#45;&gt;Node9</title>
<path fill="none" stroke="midnightblue" d="M586.343,-135.482C596.427,-118.286 613.437,-92.4814 633.5,-75 652.71,-58.2621 677.939,-44.7263 698.5,-35.3309"/>
<polygon fill="midnightblue" stroke="midnightblue" points="700.146,-38.4297 707.874,-31.1823 697.313,-32.0285 700.146,-38.4297"/>
</g>
<!-- Node10 -->
<g id="node10" class="node"><title>Node10</title>
<polygon fill="white" stroke="#bfbfbf" points="1215.5,-8 1215.5,-31 1341.5,-31 1341.5,-8 1215.5,-8"/>
<text text-anchor="middle" x="1278.5" y="-15.8" font-family="Helvetica,sans-Serif" font-size="14.00">deal.II/lac/vector.h</text>
</g>
<!-- Node2&#45;&gt;Node10 -->
<g id="edge9" class="edge"><title>Node2&#45;&gt;Node10</title>
<path fill="none" stroke="midnightblue" d="M657.069,-136.922C733.269,-121.216 836.338,-99.8893 838.5,-99 856.627,-91.5433 857.033,-81.5714 875.5,-75 1014.91,-25.3888 1060.91,-65.4809 1206.5,-39 1214.81,-37.4894 1223.57,-35.5431 1232.01,-33.4823"/>
<polygon fill="midnightblue" stroke="midnightblue" points="1232.89,-36.8706 1241.73,-31.0298 1231.17,-30.0834 1232.89,-36.8706"/>
</g>
<!-- Node11 -->
<g id="node11" class="node"><title>Node11</title>
<polygon fill="white" stroke="#bfbfbf" points="884.5,-75.5 884.5,-98.5 938.5,-98.5 938.5,-75.5 884.5,-75.5"/>
<text text-anchor="middle" x="911.5" y="-83.3" font-family="Helvetica,sans-Serif" font-size="14.00">cmath</text>
</g>
<!-- Node2&#45;&gt;Node11 -->
<g id="edge10" class="edge"><title>Node2&#45;&gt;Node11</title>
<path fill="none" stroke="midnightblue" d="M657.432,-136.752C660.492,-136.155 663.523,-135.569 666.5,-135 756.933,-117.73 780.619,-118.948 870.5,-99 871.755,-98.7216 873.028,-98.43 874.313,-98.1285"/>
<polygon fill="midnightblue" stroke="midnightblue" points="875.369,-101.473 884.235,-95.6713 873.687,-94.678 875.369,-101.473"/>
</g>
<!-- Node12 -->
<g id="node12" class="node"><title>Node12</title>
<polygon fill="white" stroke="#bfbfbf" points="956.5,-75.5 956.5,-98.5 1018.5,-98.5 1018.5,-75.5 956.5,-75.5"/>
<text text-anchor="middle" x="987.5" y="-83.3" font-family="Helvetica,sans-Serif" font-size="14.00">fstream</text>
</g>
<!-- Node2&#45;&gt;Node12 -->
<g id="edge11" class="edge"><title>Node2&#45;&gt;Node12</title>
<path fill="none" stroke="midnightblue" d="M657.399,-136.571C660.469,-136.024 663.51,-135.498 666.5,-135 787.545,-114.835 822.296,-123.294 946.282,-99.0325"/>
<polygon fill="midnightblue" stroke="midnightblue" points="947.032,-102.452 956.157,-97.0686 945.667,-95.5864 947.032,-102.452"/>
</g>
<!-- Node13 -->
<g id="node13" class="node"><title>Node13</title>
<g id="a_node13"><a xlink:href="my__mapping__q1_8h.html" target="_top" xlink:title="functions/my_mapping_q1.h">
<polygon fill="white" stroke="black" points="642,-75.5 642,-98.5 829,-98.5 829,-75.5 642,-75.5"/>
<text text-anchor="middle" x="735.5" y="-83.3" font-family="Helvetica,sans-Serif" font-size="14.00">functions/my_mapping_q1.h</text>
</a>
</g>
</g>
<!-- Node2&#45;&gt;Node13 -->
<g id="edge12" class="edge"><title>Node2&#45;&gt;Node13</title>
<path fill="none" stroke="midnightblue" d="M620.368,-135.428C645.575,-125.045 676.806,-112.179 700.379,-102.468"/>
<polygon fill="midnightblue" stroke="midnightblue" points="701.737,-105.694 709.65,-98.6489 699.071,-99.2218 701.737,-105.694"/>
</g>
<!-- Node13&#45;&gt;Node6 -->
<g id="edge15" class="edge"><title>Node13&#45;&gt;Node6</title>
<path fill="none" stroke="midnightblue" d="M641.637,-81.1047C548.387,-75.1378 401.629,-62.7621 276.5,-39 269.021,-37.5798 261.159,-35.7143 253.572,-33.7146"/>
<polygon fill="midnightblue" stroke="midnightblue" points="254.382,-30.3075 243.812,-31.0347 252.529,-37.0576 254.382,-30.3075"/>
</g>
<!-- Node13&#45;&gt;Node7 -->
<g id="edge16" class="edge"><title>Node13&#45;&gt;Node7</title>
<path fill="none" stroke="midnightblue" d="M674.446,-75.4547C620.504,-66.0799 539.724,-51.9 469.5,-39 458.914,-37.0554 447.686,-34.9519 436.769,-32.8845"/>
<polygon fill="midnightblue" stroke="midnightblue" points="437.334,-29.4294 426.856,-31.0015 436.027,-36.3064 437.334,-29.4294"/>
</g>
<!-- Node13&#45;&gt;Node8 -->
<g id="edge17" class="edge"><title>Node13&#45;&gt;Node8</title>
<path fill="none" stroke="midnightblue" d="M707.223,-75.4763C677.546,-64.432 630.713,-47.0024 597.749,-34.7349"/>
<polygon fill="midnightblue" stroke="midnightblue" points="598.592,-31.3139 587.999,-31.1062 596.15,-37.8743 598.592,-31.3139"/>
</g>
<!-- Node13&#45;&gt;Node9 -->
<g id="edge18" class="edge"><title>Node13&#45;&gt;Node9</title>
<path fill="none" stroke="midnightblue" d="M735.5,-75.4763C735.5,-66.2683 735.5,-52.6221 735.5,-41.2293"/>
<polygon fill="midnightblue" stroke="midnightblue" points="739,-41.2152 735.5,-31.2152 732,-41.2152 739,-41.2152"/>
</g>
<!-- Node13&#45;&gt;Node10 -->
<g id="edge19" class="edge"><title>Node13&#45;&gt;Node10</title>
<path fill="none" stroke="midnightblue" d="M829.156,-76.3507C833.667,-75.8926 838.134,-75.4404 842.5,-75 1004.25,-58.6875 1046.42,-67.311 1206.5,-39 1214.9,-37.5138 1223.77,-35.561 1232.3,-33.4819"/>
<polygon fill="midnightblue" stroke="midnightblue" points="1233.27,-36.8466 1242.11,-31.0036 1231.56,-30.0598 1233.27,-36.8466"/>
</g>
<!-- Node14 -->
<g id="node14" class="node"><title>Node14</title>
<polygon fill="white" stroke="#bfbfbf" points="830,-0.5 830,-38.5 977,-38.5 977,-0.5 830,-0.5"/>
<text text-anchor="start" x="838" y="-23.3" font-family="Helvetica,sans-Serif" font-size="14.00">deal.II/base/geometry</text>
<text text-anchor="middle" x="903.5" y="-8.3" font-family="Helvetica,sans-Serif" font-size="14.00">_info.h</text>
</g>
<!-- Node13&#45;&gt;Node14 -->
<g id="edge13" class="edge"><title>Node13&#45;&gt;Node14</title>
<path fill="none" stroke="midnightblue" d="M762.492,-75.4763C785.409,-66.5415 819.044,-53.4279 847.716,-42.2491"/>
<polygon fill="midnightblue" stroke="midnightblue" points="849.181,-45.4345 857.227,-38.541 846.638,-38.9127 849.181,-45.4345"/>
</g>
<!-- Node15 -->
<g id="node15" class="node"><title>Node15</title>
<polygon fill="white" stroke="#bfbfbf" points="995,-8 995,-31 1126,-31 1126,-8 995,-8"/>
<text text-anchor="middle" x="1060.5" y="-15.8" font-family="Helvetica,sans-Serif" font-size="14.00">deal.II/base/point.h</text>
</g>
<!-- Node13&#45;&gt;Node15 -->
<g id="edge14" class="edge"><title>Node13&#45;&gt;Node15</title>
<path fill="none" stroke="midnightblue" d="M797.341,-75.4839C848.272,-66.568 922.289,-53.025 986.5,-39 994.232,-37.3111 1002.39,-35.4025 1010.35,-33.4688"/>
<polygon fill="midnightblue" stroke="midnightblue" points="1011.41,-36.8127 1020.28,-31.0207 1009.73,-30.0161 1011.41,-36.8127"/>
</g>
<!-- Node16 -->
<g id="node16" class="node"><title>Node16</title>
<polygon fill="white" stroke="#bfbfbf" points="1144,-8 1144,-31 1197,-31 1197,-8 1144,-8"/>
<text text-anchor="middle" x="1170.5" y="-15.8" font-family="Helvetica,sans-Serif" font-size="14.00">vector</text>
</g>
<!-- Node13&#45;&gt;Node16 -->
<g id="edge20" class="edge"><title>Node13&#45;&gt;Node16</title>
<path fill="none" stroke="midnightblue" d="M829.331,-75.8523C942.952,-63.434 1121.04,-43.4981 1135.5,-39 1138.49,-38.0704 1141.52,-36.8863 1144.49,-35.5676"/>
<polygon fill="midnightblue" stroke="midnightblue" points="1146.2,-38.6242 1153.6,-31.0433 1143.09,-32.354 1146.2,-38.6242"/>
</g>
</g>
</svg>
