<?xml version="1.0" encoding="UTF-8" standalone="no"?>
<!DOCTYPE svg PUBLIC "-//W3C//DTD SVG 1.1//EN"
 "http://www.w3.org/Graphics/SVG/1.1/DTD/svg11.dtd">
<!-- Generated by graphviz version 2.38.0 (20140413.2041)
 -->
<!-- Title: /home/travis/build/konsim83/MPI&#45;MSFEC/source/functions/basis_q1.inst.cc Pages: 1 -->
<svg width="985pt" height="197pt"
 viewBox="0.00 0.00 984.50 197.00" xmlns="http://www.w3.org/2000/svg" xmlns:xlink="http://www.w3.org/1999/xlink">
<g id="graph0" class="graph" transform="scale(1 1) rotate(0) translate(4 193)">
<title>/home/travis/build/konsim83/MPI&#45;MSFEC/source/functions/basis_q1.inst.cc</title>
<polygon fill="white" stroke="none" points="-4,4 -4,-193 980.5,-193 980.5,4 -4,4"/>
<!-- Node1 -->
<g id="node1" class="node"><title>Node1</title>
<polygon fill="#bfbfbf" stroke="black" points="574.5,-120.5 574.5,-188.5 734.5,-188.5 734.5,-120.5 574.5,-120.5"/>
<text text-anchor="start" x="582.5" y="-173.3" font-family="Helvetica,sans-Serif" font-size="14.00">/home/travis/build</text>
<text text-anchor="start" x="582.5" y="-158.3" font-family="Helvetica,sans-Serif" font-size="14.00">/konsim83/MPI&#45;MSFEC</text>
<text text-anchor="start" x="582.5" y="-143.3" font-family="Helvetica,sans-Serif" font-size="14.00">/source/functions/basis</text>
<text text-anchor="middle" x="654.5" y="-128.3" font-family="Helvetica,sans-Serif" font-size="14.00">_q1.inst.cc</text>
</g>
<!-- Node2 -->
<g id="node2" class="node"><title>Node2</title>
<g id="a_node2"><a xlink:href="basis__q1_8h.html" target="_top" xlink:title="functions/basis_q1.h">
<polygon fill="white" stroke="black" points="502.5,-60.5 502.5,-83.5 642.5,-83.5 642.5,-60.5 502.5,-60.5"/>
<text text-anchor="middle" x="572.5" y="-68.3" font-family="Helvetica,sans-Serif" font-size="14.00">functions/basis_q1.h</text>
</a>
</g>
</g>
<!-- Node1&#45;&gt;Node2 -->
<g id="edge1" class="edge"><title>Node1&#45;&gt;Node2</title>
<path fill="none" stroke="midnightblue" d="M620.674,-120.293C610.301,-110.11 599.296,-99.3056 590.426,-90.5985"/>
<polygon fill="midnightblue" stroke="midnightblue" points="592.84,-88.0629 583.252,-83.555 587.936,-93.0581 592.84,-88.0629"/>
</g>
<!-- Node10 -->
<g id="node10" class="node"><title>Node10</title>
<g id="a_node10"><a xlink:href="basis__q1_8tpp.html" target="_top" xlink:title="functions/basis_q1.tpp">
<polygon fill="white" stroke="black" points="661,-60.5 661,-83.5 812,-83.5 812,-60.5 661,-60.5"/>
<text text-anchor="middle" x="736.5" y="-68.3" font-family="Helvetica,sans-Serif" font-size="14.00">functions/basis_q1.tpp</text>
</a>
</g>
</g>
<!-- Node1&#45;&gt;Node10 -->
<g id="edge9" class="edge"><title>Node1&#45;&gt;Node10</title>
<path fill="none" stroke="midnightblue" d="M688.326,-120.293C698.699,-110.11 709.704,-99.3056 718.574,-90.5985"/>
<polygon fill="midnightblue" stroke="midnightblue" points="721.064,-93.0581 725.748,-83.555 716.16,-88.0629 721.064,-93.0581"/>
</g>
<!-- Node3 -->
<g id="node3" class="node"><title>Node3</title>
<polygon fill="white" stroke="#bfbfbf" points="0,-0.5 0,-23.5 149,-23.5 149,-0.5 0,-0.5"/>
<text text-anchor="middle" x="74.5" y="-8.3" font-family="Helvetica,sans-Serif" font-size="14.00">deal.II/base/function.h</text>
</g>
<!-- Node2&#45;&gt;Node3 -->
<g id="edge2" class="edge"><title>Node2&#45;&gt;Node3</title>
<path fill="none" stroke="midnightblue" d="M502.328,-63.4637C421.945,-54.7381 285.99,-39.6983 159.41,-24.2195"/>
<polygon fill="midnightblue" stroke="midnightblue" points="159.5,-20.7044 149.148,-22.9611 158.648,-27.6524 159.5,-20.7044"/>
</g>
<!-- Node4 -->
<g id="node4" class="node"><title>Node4</title>
<polygon fill="white" stroke="#bfbfbf" points="167,-0.5 167,-23.5 280,-23.5 280,-0.5 167,-0.5"/>
<text text-anchor="middle" x="223.5" y="-8.3" font-family="Helvetica,sans-Serif" font-size="14.00">deal.II/grid/tria.h</text>
</g>
<!-- Node2&#45;&gt;Node4 -->
<g id="edge3" class="edge"><title>Node2&#45;&gt;Node4</title>
<path fill="none" stroke="midnightblue" d="M508.479,-60.4732C453.273,-51.3802 371.115,-37.811 290.545,-24.3387"/>
<polygon fill="midnightblue" stroke="midnightblue" points="290.659,-20.8091 280.218,-22.6109 289.504,-27.7132 290.659,-20.8091"/>
</g>
<!-- Node5 -->
<g id="node5" class="node"><title>Node5</title>
<polygon fill="white" stroke="#bfbfbf" points="298,-0.5 298,-23.5 473,-23.5 473,-0.5 298,-0.5"/>
<text text-anchor="middle" x="385.5" y="-8.3" font-family="Helvetica,sans-Serif" font-size="14.00">deal.II/grid/tria_accessor.h</text>
</g>
<!-- Node2&#45;&gt;Node5 -->
<g id="edge4" class="edge"><title>Node2&#45;&gt;Node5</title>
<path fill="none" stroke="midnightblue" d="M538.636,-60.4966C508.018,-51.0001 462.757,-36.9619 429.376,-26.6087"/>
<polygon fill="midnightblue" stroke="midnightblue" points="430.016,-23.1426 419.428,-23.5231 427.942,-29.8284 430.016,-23.1426"/>
</g>
<!-- Node6 -->
<g id="node6" class="node"><title>Node6</title>
<polygon fill="white" stroke="#bfbfbf" points="491,-0.5 491,-23.5 654,-23.5 654,-0.5 491,-0.5"/>
<text text-anchor="middle" x="572.5" y="-8.3" font-family="Helvetica,sans-Serif" font-size="14.00">deal.II/grid/tria_iterator.h</text>
</g>
<!-- Node2&#45;&gt;Node6 -->
<g id="edge5" class="edge"><title>Node2&#45;&gt;Node6</title>
<path fill="none" stroke="midnightblue" d="M572.5,-60.3619C572.5,-52.9219 572.5,-42.7427 572.5,-33.7276"/>
<polygon fill="midnightblue" stroke="midnightblue" points="576,-33.5706 572.5,-23.5707 569,-33.5707 576,-33.5706"/>
</g>
<!-- Node7 -->
<g id="node7" class="node"><title>Node7</title>
<polygon fill="white" stroke="#bfbfbf" points="672.5,-0.5 672.5,-23.5 824.5,-23.5 824.5,-0.5 672.5,-0.5"/>
<text text-anchor="middle" x="748.5" y="-8.3" font-family="Helvetica,sans-Serif" font-size="14.00">deal.II/lac/full_matrix.h</text>
</g>
<!-- Node2&#45;&gt;Node7 -->
<g id="edge6" class="edge"><title>Node2&#45;&gt;Node7</title>
<path fill="none" stroke="midnightblue" d="M604.372,-60.4966C633.065,-51.0411 675.421,-37.0829 706.798,-26.7428"/>
<polygon fill="midnightblue" stroke="midnightblue" points="708.166,-29.9772 716.568,-23.5231 705.975,-23.3289 708.166,-29.9772"/>
</g>
<!-- Node8 -->
<g id="node8" class="node"><title>Node8</title>
<polygon fill="white" stroke="#bfbfbf" points="842.5,-0.5 842.5,-23.5 896.5,-23.5 896.5,-0.5 842.5,-0.5"/>
<text text-anchor="middle" x="869.5" y="-8.3" font-family="Helvetica,sans-Serif" font-size="14.00">cmath</text>
</g>
<!-- Node2&#45;&gt;Node8 -->
<g id="edge7" class="edge"><title>Node2&#45;&gt;Node8</title>
<path fill="none" stroke="midnightblue" d="M642.76,-60.6609C693.195,-52.7062 762.906,-40.6265 832.631,-24.01"/>
<polygon fill="midnightblue" stroke="midnightblue" points="833.569,-27.3843 842.468,-21.6352 831.926,-20.5798 833.569,-27.3843"/>
</g>
<!-- Node9 -->
<g id="node9" class="node"><title>Node9</title>
<polygon fill="white" stroke="#bfbfbf" points="914.5,-0.5 914.5,-23.5 976.5,-23.5 976.5,-0.5 914.5,-0.5"/>
<text text-anchor="middle" x="945.5" y="-8.3" font-family="Helvetica,sans-Serif" font-size="14.00">fstream</text>
</g>
<!-- Node2&#45;&gt;Node9 -->
<g id="edge8" class="edge"><title>Node2&#45;&gt;Node9</title>
<path fill="none" stroke="midnightblue" d="M642.861,-61.3032C727.587,-49.5956 862.899,-30.7893 904.219,-23.8441"/>
<polygon fill="midnightblue" stroke="midnightblue" points="904.941,-27.2703 914.149,-22.03 903.683,-20.3842 904.941,-27.2703"/>
</g>
</g>
</svg>
