<?xml version="1.0" encoding="UTF-8" standalone="no"?>
<!DOCTYPE svg PUBLIC "-//W3C//DTD SVG 1.1//EN"
 "http://www.w3.org/Graphics/SVG/1.1/DTD/svg11.dtd">
<!-- Generated by graphviz version 2.38.0 (20140413.2041)
 -->
<!-- Title: DataPostprocessor Pages: 1 -->
<svg width="411pt" height="158pt"
 viewBox="0.00 0.00 411.00 158.00" xmlns="http://www.w3.org/2000/svg" xmlns:xlink="http://www.w3.org/1999/xlink">
<g id="graph0" class="graph" transform="scale(1 1) rotate(0) translate(4 154)">
<title>DataPostprocessor</title>
<polygon fill="white" stroke="none" points="-4,4 -4,-154 407,-154 407,4 -4,4"/>
<!-- Node1 -->
<g id="node1" class="node"><title>Node1</title>
<polygon fill="#bfbfbf" stroke="black" points="0,-63.5 0,-86.5 131,-86.5 131,-63.5 0,-63.5"/>
<text text-anchor="middle" x="65.5" y="-71.3" font-family="Helvetica,sans-Serif" font-size="14.00">DataPostprocessor</text>
</g>
<!-- Node2 -->
<g id="node2" class="node"><title>Node2</title>
<g id="a_node2"><a xlink:href="classNedRT_1_1NedRT__PostProcessor.html" target="_top" xlink:title="Class to postprocess a solution of a &#45; &#160;problem. ">
<polygon fill="white" stroke="black" points="167,-126.5 167,-149.5 403,-149.5 403,-126.5 167,-126.5"/>
<text text-anchor="middle" x="285" y="-134.3" font-family="Helvetica,sans-Serif" font-size="14.00">NedRT::NedRT_PostProcessor&lt; 3 &gt;</text>
</a>
</g>
</g>
<!-- Node1&#45;&gt;Node2 -->
<g id="edge1" class="edge"><title>Node1&#45;&gt;Node2</title>
<path fill="none" stroke="midnightblue" d="M99.1923,-90.7999C118.532,-99.6019 143.725,-110.137 167,-117 179.471,-120.677 192.889,-123.816 206.034,-126.459"/>
<polygon fill="midnightblue" stroke="midnightblue" points="100.474,-87.5364 89.9285,-86.5132 97.5341,-93.8892 100.474,-87.5364"/>
</g>
<!-- Node3 -->
<g id="node3" class="node"><title>Node3</title>
<g id="a_node3"><a xlink:href="classQ_1_1Q__PostProcessor.html" target="_top" xlink:title="Class to postprocess a solution of a &#160;problem. ">
<polygon fill="white" stroke="black" points="198.5,-84.5 198.5,-107.5 371.5,-107.5 371.5,-84.5 198.5,-84.5"/>
<text text-anchor="middle" x="285" y="-92.3" font-family="Helvetica,sans-Serif" font-size="14.00">Q::Q_PostProcessor&lt; 3 &gt;</text>
</a>
</g>
</g>
<!-- Node1&#45;&gt;Node3 -->
<g id="edge2" class="edge"><title>Node1&#45;&gt;Node3</title>
<path fill="none" stroke="midnightblue" d="M141.208,-82.2132C159.574,-83.9865 179.381,-85.8989 198.224,-87.7181"/>
<polygon fill="midnightblue" stroke="midnightblue" points="141.458,-78.7212 131.168,-81.2438 140.786,-85.6888 141.458,-78.7212"/>
</g>
<!-- Node4 -->
<g id="node4" class="node"><title>Node4</title>
<g id="a_node4"><a xlink:href="classQNed_1_1QNed__PostProcessor.html" target="_top" xlink:title="Class to postprocess a solution of a &#45; &#160;problem. ">
<polygon fill="white" stroke="black" points="173.5,-42.5 173.5,-65.5 396.5,-65.5 396.5,-42.5 173.5,-42.5"/>
<text text-anchor="middle" x="285" y="-50.3" font-family="Helvetica,sans-Serif" font-size="14.00">QNed::QNed_PostProcessor&lt; 3 &gt;</text>
</a>
</g>
</g>
<!-- Node1&#45;&gt;Node4 -->
<g id="edge3" class="edge"><title>Node1&#45;&gt;Node4</title>
<path fill="none" stroke="midnightblue" d="M141.305,-67.7774C151.609,-66.7826 162.364,-65.7442 173.147,-64.7031"/>
<polygon fill="midnightblue" stroke="midnightblue" points="140.786,-64.3112 131.168,-68.7562 141.458,-71.2788 140.786,-64.3112"/>
</g>
<!-- Node5 -->
<g id="node5" class="node"><title>Node5</title>
<g id="a_node5"><a xlink:href="classRTDQ_1_1RTDQ__PostProcessor.html" target="_top" xlink:title="Class to postprocess a solution of a &#45; &#160;problem. ">
<polygon fill="white" stroke="black" points="170.5,-0.5 170.5,-23.5 399.5,-23.5 399.5,-0.5 170.5,-0.5"/>
<text text-anchor="middle" x="285" y="-8.3" font-family="Helvetica,sans-Serif" font-size="14.00">RTDQ::RTDQ_PostProcessor&lt; 3 &gt;</text>
</a>
</g>
</g>
<!-- Node1&#45;&gt;Node5 -->
<g id="edge4" class="edge"><title>Node1&#45;&gt;Node5</title>
<path fill="none" stroke="midnightblue" d="M99.1923,-59.2001C118.532,-50.3981 143.725,-39.8626 167,-33 179.471,-29.3231 192.889,-26.1841 206.034,-23.5409"/>
<polygon fill="midnightblue" stroke="midnightblue" points="97.5341,-56.1108 89.9285,-63.4868 100.474,-62.4636 97.5341,-56.1108"/>
</g>
</g>
</svg>
