<?xml version="1.0" encoding="UTF-8" standalone="no"?>
<!DOCTYPE svg PUBLIC "-//W3C//DTD SVG 1.1//EN"
 "http://www.w3.org/Graphics/SVG/1.1/DTD/svg11.dtd">
<!-- Generated by graphviz version 2.38.0 (20140413.2041)
 -->
<!-- Title: ShapeFun::ShapeFunctionConcatinateVector&lt; dim &gt; Pages: 1 -->
<svg width="282pt" height="152pt"
 viewBox="0.00 0.00 281.50 152.00" xmlns="http://www.w3.org/2000/svg" xmlns:xlink="http://www.w3.org/1999/xlink">
<g id="graph0" class="graph" transform="scale(1 1) rotate(0) translate(4 148)">
<title>ShapeFun::ShapeFunctionConcatinateVector&lt; dim &gt;</title>
<polygon fill="white" stroke="none" points="-4,4 -4,-148 277.5,-148 277.5,4 -4,4"/>
<!-- Node1 -->
<g id="node1" class="node"><title>Node1</title>
<polygon fill="#bfbfbf" stroke="black" points="6,-0.5 6,-38.5 255,-38.5 255,-0.5 6,-0.5"/>
<text text-anchor="start" x="14" y="-23.3" font-family="Helvetica,sans-Serif" font-size="14.00">ShapeFun::ShapeFunctionConcatinate</text>
<text text-anchor="middle" x="130.5" y="-8.3" font-family="Helvetica,sans-Serif" font-size="14.00">Vector&lt; dim &gt;</text>
</g>
<!-- Node2 -->
<g id="node2" class="node"><title>Node2</title>
<polygon fill="white" stroke="#bfbfbf" points="0,-113 0,-136 115,-136 115,-113 0,-113"/>
<text text-anchor="middle" x="57.5" y="-120.8" font-family="Helvetica,sans-Serif" font-size="14.00">Function&lt; dim &gt;</text>
</g>
<!-- Node2&#45;&gt;Node1 -->
<g id="edge1" class="edge"><title>Node2&#45;&gt;Node1</title>
<path fill="none" stroke="midnightblue" d="M70.9382,-104.539C84.2104,-85.8127 104.374,-57.3633 117.494,-38.8512"/>
<polygon fill="midnightblue" stroke="midnightblue" points="67.9642,-102.683 65.0373,-112.865 73.6753,-106.73 67.9642,-102.683"/>
</g>
<!-- Node3 -->
<g id="node3" class="node"><title>Node3</title>
<polygon fill="white" stroke="#bfbfbf" points="133.5,-105.5 133.5,-143.5 273.5,-143.5 273.5,-105.5 133.5,-105.5"/>
<text text-anchor="start" x="141.5" y="-128.3" font-family="Helvetica,sans-Serif" font-size="14.00">SmartPointer&lt; const</text>
<text text-anchor="middle" x="203.5" y="-113.3" font-family="Helvetica,sans-Serif" font-size="14.00"> Function&lt; dim &gt; &gt;</text>
</g>
<!-- Node3&#45;&gt;Node1 -->
<g id="edge2" class="edge"><title>Node3&#45;&gt;Node1</title>
<path fill="none" stroke="#9a32cd" stroke-dasharray="5,2" d="M184.457,-96.6311C171.545,-78.4134 154.822,-54.8168 143.438,-38.7549"/>
<polygon fill="#9a32cd" stroke="#9a32cd" points="181.811,-98.9508 190.449,-105.086 187.522,-94.9031 181.811,-98.9508"/>
<text text-anchor="middle" x="217.5" y="-75.8" font-family="Helvetica,sans-Serif" font-size="14.00"> function_ptr1</text>
<text text-anchor="middle" x="217.5" y="-60.8" font-family="Helvetica,sans-Serif" font-size="14.00">function_ptr2</text>
</g>
</g>
</svg>
