<?xml version="1.0" encoding="UTF-8" standalone="no"?>
<!DOCTYPE svg PUBLIC "-//W3C//DTD SVG 1.1//EN"
 "http://www.w3.org/Graphics/SVG/1.1/DTD/svg11.dtd">
<!-- Generated by graphviz version 2.38.0 (20140413.2041)
 -->
<!-- Title: RTDQ::RTDQStd Pages: 1 -->
<svg width="761pt" height="715pt"
 viewBox="0.00 0.00 761.00 714.65" xmlns="http://www.w3.org/2000/svg" xmlns:xlink="http://www.w3.org/1999/xlink">
<g id="graph0" class="graph" transform="scale(1 1) rotate(0) translate(4 710.655)">
<title>RTDQ::RTDQStd</title>
<polygon fill="white" stroke="none" points="-4,4 -4,-710.655 757,-710.655 757,4 -4,4"/>
<!-- Node1 -->
<g id="node1" class="node"><title>Node1</title>
<polygon fill="#bfbfbf" stroke="black" points="631,-319.155 631,-342.155 753,-342.155 753,-319.155 631,-319.155"/>
<text text-anchor="middle" x="692" y="-326.955" font-family="Helvetica,sans-Serif" font-size="14.00">RTDQ::RTDQStd</text>
</g>
<!-- Node2 -->
<g id="node2" class="node"><title>Node2</title>
<polygon fill="white" stroke="#bfbfbf" points="252.5,-659.155 252.5,-682.155 373.5,-682.155 373.5,-659.155 252.5,-659.155"/>
<text text-anchor="middle" x="313" y="-666.955" font-family="Helvetica,sans-Serif" font-size="14.00">DoFHandler&lt; 3 &gt;</text>
</g>
<!-- Node2&#45;&gt;Node1 -->
<g id="edge1" class="edge"><title>Node2&#45;&gt;Node1</title>
<path fill="none" stroke="#9a32cd" stroke-dasharray="5,2" d="M372.231,-683.969C438.59,-695.454 546.438,-702.375 613,-645.655 661.027,-604.728 684.726,-394.251 689.9,-342.272"/>
<polygon fill="#9a32cd" stroke="#9a32cd" points="372.815,-680.518 362.351,-682.172 371.563,-687.405 372.815,-680.518"/>
<text text-anchor="middle" x="529" y="-695.455" font-family="Helvetica,sans-Serif" font-size="14.00"> dof_handler</text>
</g>
<!-- Node3 -->
<g id="node3" class="node"><title>Node3</title>
<polygon fill="white" stroke="#bfbfbf" points="243,-617.155 243,-640.155 383,-640.155 383,-617.155 243,-617.155"/>
<text text-anchor="middle" x="313" y="-624.955" font-family="Helvetica,sans-Serif" font-size="14.00">ConditionalOStream</text>
</g>
<!-- Node3&#45;&gt;Node1 -->
<g id="edge2" class="edge"><title>Node3&#45;&gt;Node1</title>
<path fill="none" stroke="#9a32cd" stroke-dasharray="5,2" d="M393.286,-629.26C470.477,-628.193 580.737,-621.74 613,-594.655 692.612,-527.82 693.249,-383.987 691.64,-342.237"/>
<polygon fill="#9a32cd" stroke="#9a32cd" points="393.059,-625.762 383.099,-629.373 393.137,-632.762 393.059,-625.762"/>
<text text-anchor="middle" x="529" y="-630.455" font-family="Helvetica,sans-Serif" font-size="14.00"> pcout</text>
</g>
<!-- Node4 -->
<g id="node4" class="node"><title>Node4</title>
<polygon fill="white" stroke="#bfbfbf" points="199,-545.155 199,-598.155 427,-598.155 427,-545.155 199,-545.155"/>
<text text-anchor="start" x="207" y="-582.955" font-family="Helvetica,sans-Serif" font-size="14.00">shared_ptr&lt; typename</text>
<text text-anchor="start" x="207" y="-567.955" font-family="Helvetica,sans-Serif" font-size="14.00"> LinearSolvers::InnerPreconditioner</text>
<text text-anchor="middle" x="313" y="-552.955" font-family="Helvetica,sans-Serif" font-size="14.00">&lt; 3 &gt;::type &gt;</text>
</g>
<!-- Node4&#45;&gt;Node1 -->
<g id="edge3" class="edge"><title>Node4&#45;&gt;Node1</title>
<path fill="none" stroke="#9a32cd" stroke-dasharray="5,2" d="M437.248,-575.824C507.024,-575.672 585.672,-570.475 613,-549.655 681.704,-497.312 690.049,-379.445 690.938,-342.178"/>
<polygon fill="#9a32cd" stroke="#9a32cd" points="437.03,-572.323 427.025,-575.81 437.021,-579.323 437.03,-572.323"/>
<text text-anchor="middle" x="529" y="-579.455" font-family="Helvetica,sans-Serif" font-size="14.00"> inner_schur_preconditioner</text>
</g>
<!-- Node5 -->
<g id="node5" class="node"><title>Node5</title>
<polygon fill="white" stroke="#bfbfbf" points="268.5,-503.155 268.5,-526.155 357.5,-526.155 357.5,-503.155 268.5,-503.155"/>
<text text-anchor="middle" x="313" y="-510.955" font-family="Helvetica,sans-Serif" font-size="14.00">BlockVector</text>
</g>
<!-- Node5&#45;&gt;Node1 -->
<g id="edge4" class="edge"><title>Node5&#45;&gt;Node1</title>
<path fill="none" stroke="#9a32cd" stroke-dasharray="5,2" d="M367.73,-516.976C442.841,-519.184 574.374,-518.954 613,-492.655 666.411,-456.29 684.445,-372.814 689.391,-342.191"/>
<polygon fill="#9a32cd" stroke="#9a32cd" points="367.628,-513.471 357.521,-516.651 367.405,-520.468 367.628,-513.471"/>
<text text-anchor="middle" x="529" y="-536.455" font-family="Helvetica,sans-Serif" font-size="14.00"> locally_relevant_solution</text>
<text text-anchor="middle" x="529" y="-521.455" font-family="Helvetica,sans-Serif" font-size="14.00">system_rhs</text>
</g>
<!-- Node6 -->
<g id="node6" class="node"><title>Node6</title>
<polygon fill="white" stroke="#bfbfbf" points="249,-445.655 249,-483.655 377,-483.655 377,-445.655 249,-445.655"/>
<text text-anchor="start" x="257" y="-468.455" font-family="Helvetica,sans-Serif" font-size="14.00">AffineConstraints&lt;</text>
<text text-anchor="middle" x="313" y="-453.455" font-family="Helvetica,sans-Serif" font-size="14.00"> double &gt;</text>
</g>
<!-- Node6&#45;&gt;Node1 -->
<g id="edge5" class="edge"><title>Node6&#45;&gt;Node1</title>
<path fill="none" stroke="#9a32cd" stroke-dasharray="5,2" d="M387.059,-473.817C450.836,-478.253 543.761,-475.831 613,-436.655 651.578,-414.827 676.48,-365.208 686.279,-342.455"/>
<polygon fill="#9a32cd" stroke="#9a32cd" points="387.32,-470.327 377.081,-473.051 386.784,-477.307 387.32,-470.327"/>
<text text-anchor="middle" x="529" y="-479.455" font-family="Helvetica,sans-Serif" font-size="14.00"> constraints</text>
</g>
<!-- Node7 -->
<g id="node7" class="node"><title>Node7</title>
<polygon fill="white" stroke="#bfbfbf" points="282,-403.155 282,-426.155 344,-426.155 344,-403.155 282,-403.155"/>
<text text-anchor="middle" x="313" y="-410.955" font-family="Helvetica,sans-Serif" font-size="14.00">string &amp;</text>
</g>
<!-- Node7&#45;&gt;Node1 -->
<g id="edge6" class="edge"><title>Node7&#45;&gt;Node1</title>
<path fill="none" stroke="#9a32cd" stroke-dasharray="5,2" d="M353.992,-417.404C412.765,-420.025 525.016,-419.574 613,-386.655 639.23,-376.841 664.625,-355.791 678.985,-342.478"/>
<polygon fill="#9a32cd" stroke="#9a32cd" points="354.163,-413.908 344.001,-416.905 353.814,-420.9 354.163,-413.908"/>
<text text-anchor="middle" x="529" y="-421.455" font-family="Helvetica,sans-Serif" font-size="14.00"> parameter_filename</text>
</g>
<!-- Node8 -->
<g id="node8" class="node"><title>Node8</title>
<polygon fill="white" stroke="#bfbfbf" points="266.5,-361.155 266.5,-384.155 359.5,-384.155 359.5,-361.155 266.5,-361.155"/>
<text text-anchor="middle" x="313" y="-368.955" font-family="Helvetica,sans-Serif" font-size="14.00">TimerOutput</text>
</g>
<!-- Node8&#45;&gt;Node1 -->
<g id="edge7" class="edge"><title>Node8&#45;&gt;Node1</title>
<path fill="none" stroke="#9a32cd" stroke-dasharray="5,2" d="M369.67,-371.069C429.955,-368.726 528.794,-363.059 613,-349.655 624.837,-347.771 637.524,-345.008 649.154,-342.17"/>
<polygon fill="#9a32cd" stroke="#9a32cd" points="369.468,-367.574 359.605,-371.444 369.728,-374.569 369.468,-367.574"/>
<text text-anchor="middle" x="529" y="-371.455" font-family="Helvetica,sans-Serif" font-size="14.00"> computing_timer</text>
</g>
<!-- Node9 -->
<g id="node9" class="node"><title>Node9</title>
<g id="a_node9"><a xlink:href="structRTDQ_1_1ParametersStd.html" target="_top" xlink:title="RTDQ::ParametersStd">
<polygon fill="white" stroke="black" points="236,-319.155 236,-342.155 390,-342.155 390,-319.155 236,-319.155"/>
<text text-anchor="middle" x="313" y="-326.955" font-family="Helvetica,sans-Serif" font-size="14.00">RTDQ::ParametersStd</text>
</a>
</g>
</g>
<!-- Node9&#45;&gt;Node1 -->
<g id="edge8" class="edge"><title>Node9&#45;&gt;Node1</title>
<path fill="none" stroke="#9a32cd" stroke-dasharray="5,2" d="M400.489,-330.655C470.995,-330.655 568.748,-330.655 630.938,-330.655"/>
<polygon fill="#9a32cd" stroke="#9a32cd" points="400.292,-327.155 390.292,-330.655 400.292,-334.155 400.292,-327.155"/>
<text text-anchor="middle" x="529" y="-334.455" font-family="Helvetica,sans-Serif" font-size="14.00"> parameters</text>
</g>
<!-- Node10 -->
<g id="node10" class="node"><title>Node10</title>
<polygon fill="white" stroke="#bfbfbf" points="9.5,-488.155 9.5,-511.155 40.5,-511.155 40.5,-488.155 9.5,-488.155"/>
<text text-anchor="middle" x="25" y="-495.955" font-family="Helvetica,sans-Serif" font-size="14.00">int</text>
</g>
<!-- Node10&#45;&gt;Node9 -->
<g id="edge9" class="edge"><title>Node10&#45;&gt;Node9</title>
<path fill="none" stroke="#9a32cd" stroke-dasharray="5,2" d="M51.0058,-504.315C85.3728,-509.135 146.821,-511.803 181,-477.655 221.018,-437.673 159.846,-392.483 199,-351.655 208.875,-341.358 222.049,-335.174 235.908,-331.61"/>
<polygon fill="#9a32cd" stroke="#9a32cd" points="51.291,-500.817 40.8682,-502.718 50.2019,-507.731 51.291,-500.817"/>
<text text-anchor="middle" x="124.5" y="-526.455" font-family="Helvetica,sans-Serif" font-size="14.00"> transfer_to_level</text>
<text text-anchor="middle" x="124.5" y="-511.455" font-family="Helvetica,sans-Serif" font-size="14.00">n_refine</text>
</g>
<!-- Node11 -->
<g id="node11" class="node"><title>Node11</title>
<polygon fill="white" stroke="#bfbfbf" points="0,-435.155 0,-458.155 50,-458.155 50,-435.155 0,-435.155"/>
<text text-anchor="middle" x="25" y="-442.955" font-family="Helvetica,sans-Serif" font-size="14.00">string</text>
</g>
<!-- Node11&#45;&gt;Node9 -->
<g id="edge10" class="edge"><title>Node11&#45;&gt;Node9</title>
<path fill="none" stroke="#9a32cd" stroke-dasharray="5,2" d="M60.3968,-446.137C100.585,-444.806 163.787,-440.215 181,-424.655 205.789,-402.246 174.696,-374.588 199,-351.655 209.159,-342.069 222.211,-336.155 235.814,-332.622"/>
<polygon fill="#9a32cd" stroke="#9a32cd" points="60.1217,-442.644 50.2235,-446.422 60.3175,-449.641 60.1217,-442.644"/>
<text text-anchor="middle" x="124.5" y="-465.455" font-family="Helvetica,sans-Serif" font-size="14.00"> filename_output</text>
<text text-anchor="middle" x="124.5" y="-450.455" font-family="Helvetica,sans-Serif" font-size="14.00">dirname_output</text>
</g>
<!-- Node12 -->
<g id="node12" class="node"><title>Node12</title>
<polygon fill="white" stroke="#bfbfbf" points="4,-291.155 4,-314.155 46,-314.155 46,-291.155 4,-291.155"/>
<text text-anchor="middle" x="25" y="-298.955" font-family="Helvetica,sans-Serif" font-size="14.00">bool</text>
</g>
<!-- Node12&#45;&gt;Node1 -->
<g id="edge13" class="edge"><title>Node12&#45;&gt;Node1</title>
<path fill="none" stroke="#9a32cd" stroke-dasharray="5,2" d="M56.5911,-300.812C91.1524,-298.83 149.093,-295.808 199,-294.655 300.306,-292.314 325.899,-287.793 427,-294.655 497.381,-299.431 577.593,-311.292 630.948,-320.102"/>
<polygon fill="#9a32cd" stroke="#9a32cd" points="56.0109,-297.34 46.2312,-301.416 56.4178,-304.328 56.0109,-297.34"/>
<text text-anchor="middle" x="313" y="-298.455" font-family="Helvetica,sans-Serif" font-size="14.00"> is_laplace</text>
</g>
<!-- Node12&#45;&gt;Node9 -->
<g id="edge11" class="edge"><title>Node12&#45;&gt;Node9</title>
<path fill="none" stroke="#9a32cd" stroke-dasharray="5,2" d="M56.3171,-305.623C98.6663,-309.769 176.944,-317.433 235.775,-323.192"/>
<polygon fill="#9a32cd" stroke="#9a32cd" points="56.4044,-302.115 46.111,-304.624 55.7223,-309.082 56.4044,-302.115"/>
<text text-anchor="middle" x="124.5" y="-411.455" font-family="Helvetica,sans-Serif" font-size="14.00"> is_pure_neumann</text>
<text text-anchor="middle" x="124.5" y="-396.455" font-family="Helvetica,sans-Serif" font-size="14.00">renumber_dofs</text>
<text text-anchor="middle" x="124.5" y="-381.455" font-family="Helvetica,sans-Serif" font-size="14.00">degree</text>
<text text-anchor="middle" x="124.5" y="-366.455" font-family="Helvetica,sans-Serif" font-size="14.00">use_direct_solver</text>
<text text-anchor="middle" x="124.5" y="-351.455" font-family="Helvetica,sans-Serif" font-size="14.00">verbose</text>
<text text-anchor="middle" x="124.5" y="-336.455" font-family="Helvetica,sans-Serif" font-size="14.00">compute_solution</text>
<text text-anchor="middle" x="124.5" y="-321.455" font-family="Helvetica,sans-Serif" font-size="14.00">is_laplace</text>
</g>
<!-- Node13 -->
<g id="node13" class="node"><title>Node13</title>
<polygon fill="white" stroke="#bfbfbf" points="257.5,-226.155 257.5,-249.155 368.5,-249.155 368.5,-226.155 257.5,-226.155"/>
<text text-anchor="middle" x="313" y="-233.955" font-family="Helvetica,sans-Serif" font-size="14.00">FESystem&lt; 3 &gt;</text>
</g>
<!-- Node13&#45;&gt;Node1 -->
<g id="edge12" class="edge"><title>Node13&#45;&gt;Node1</title>
<path fill="none" stroke="#9a32cd" stroke-dasharray="5,2" d="M378.838,-229.428C441.483,-224.263 537.691,-223.809 613,-256.655 644.14,-270.236 670.426,-301.909 683.021,-319.084"/>
<polygon fill="#9a32cd" stroke="#9a32cd" points="378.348,-225.957 368.697,-230.329 378.967,-232.93 378.348,-225.957"/>
<text text-anchor="middle" x="529" y="-260.455" font-family="Helvetica,sans-Serif" font-size="14.00"> fe</text>
</g>
<!-- Node14 -->
<g id="node14" class="node"><title>Node14</title>
<polygon fill="white" stroke="#bfbfbf" points="248,-184.155 248,-207.155 378,-207.155 378,-184.155 248,-184.155"/>
<text text-anchor="middle" x="313" y="-191.955" font-family="Helvetica,sans-Serif" font-size="14.00">BlockSparseMatrix</text>
</g>
<!-- Node14&#45;&gt;Node1 -->
<g id="edge14" class="edge"><title>Node14&#45;&gt;Node1</title>
<path fill="none" stroke="#9a32cd" stroke-dasharray="5,2" d="M388.273,-191.223C464.232,-188.029 576.161,-187.43 613,-208.655 656.348,-233.63 679.436,-293.497 687.568,-318.918"/>
<polygon fill="#9a32cd" stroke="#9a32cd" points="388.104,-187.727 378.269,-191.668 388.414,-194.721 388.104,-187.727"/>
<text text-anchor="middle" x="529" y="-212.455" font-family="Helvetica,sans-Serif" font-size="14.00"> system_matrix</text>
</g>
<!-- Node15 -->
<g id="node15" class="node"><title>Node15</title>
<polygon fill="white" stroke="#bfbfbf" points="247.5,-142.155 247.5,-165.155 378.5,-165.155 378.5,-142.155 247.5,-142.155"/>
<text text-anchor="middle" x="313" y="-149.955" font-family="Helvetica,sans-Serif" font-size="14.00">vector&lt; IndexSet &gt;</text>
</g>
<!-- Node15&#45;&gt;Node1 -->
<g id="edge15" class="edge"><title>Node15&#45;&gt;Node1</title>
<path fill="none" stroke="#9a32cd" stroke-dasharray="5,2" d="M388.775,-145.173C465.161,-138.066 577.449,-132.409 613,-155.655 671.185,-193.701 686.353,-286.266 689.962,-318.972"/>
<polygon fill="#9a32cd" stroke="#9a32cd" points="388.335,-141.699 378.714,-146.136 389.002,-148.667 388.335,-141.699"/>
<text text-anchor="middle" x="529" y="-174.455" font-family="Helvetica,sans-Serif" font-size="14.00"> relevant_partitioning</text>
<text text-anchor="middle" x="529" y="-159.455" font-family="Helvetica,sans-Serif" font-size="14.00">owned_partitioning</text>
</g>
<!-- Node16 -->
<g id="node16" class="node"><title>Node16</title>
<polygon fill="white" stroke="#bfbfbf" points="268,-100.155 268,-123.155 358,-123.155 358,-100.155 268,-100.155"/>
<text text-anchor="middle" x="313" y="-107.955" font-family="Helvetica,sans-Serif" font-size="14.00">MPI_Comm</text>
</g>
<!-- Node16&#45;&gt;Node1 -->
<g id="edge16" class="edge"><title>Node16&#45;&gt;Node1</title>
<path fill="none" stroke="#9a32cd" stroke-dasharray="5,2" d="M368.533,-106.259C443.99,-99.9543 575.226,-93.5372 613,-120.655 680.295,-168.965 689.604,-282.262 690.833,-318.96"/>
<polygon fill="#9a32cd" stroke="#9a32cd" points="367.934,-102.798 358.272,-107.144 368.535,-109.772 367.934,-102.798"/>
<text text-anchor="middle" x="529" y="-124.455" font-family="Helvetica,sans-Serif" font-size="14.00"> mpi_communicator</text>
</g>
<!-- Node17 -->
<g id="node17" class="node"><title>Node17</title>
<polygon fill="white" stroke="#bfbfbf" points="278,-58.1548 278,-81.1548 348,-81.1548 348,-58.1548 278,-58.1548"/>
<text text-anchor="middle" x="313" y="-65.9548" font-family="Helvetica,sans-Serif" font-size="14.00">IndexSet</text>
</g>
<!-- Node17&#45;&gt;Node1 -->
<g id="edge17" class="edge"><title>Node17&#45;&gt;Node1</title>
<path fill="none" stroke="#9a32cd" stroke-dasharray="5,2" d="M358.436,-65.5799C431.885,-59.8083 574.357,-52.9867 613,-82.6548 690.508,-142.162 692.705,-278.391 691.538,-319.014"/>
<polygon fill="#9a32cd" stroke="#9a32cd" points="357.803,-62.1197 348.12,-66.4194 358.371,-69.0967 357.803,-62.1197"/>
<text text-anchor="middle" x="529" y="-86.4548" font-family="Helvetica,sans-Serif" font-size="14.00"> locally_relevant_dofs</text>
</g>
<!-- Node18 -->
<g id="node18" class="node"><title>Node18</title>
<polygon fill="white" stroke="#bfbfbf" points="250,-16.1548 250,-39.1548 376,-39.1548 376,-16.1548 250,-16.1548"/>
<text text-anchor="middle" x="313" y="-23.9548" font-family="Helvetica,sans-Serif" font-size="14.00">Triangulation&lt; 3 &gt;</text>
</g>
<!-- Node18&#45;&gt;Node1 -->
<g id="edge18" class="edge"><title>Node18&#45;&gt;Node1</title>
<path fill="none" stroke="#9a32cd" stroke-dasharray="5,2" d="M363.952,-13.7751C428.866,0.994878 542.253,15.2032 613,-41.6548 658.065,-77.873 683.716,-269.446 689.658,-318.964"/>
<polygon fill="#9a32cd" stroke="#9a32cd" points="362.888,-10.4301 353.964,-16.1397 364.501,-17.2418 362.888,-10.4301"/>
<text text-anchor="middle" x="529" y="-45.4548" font-family="Helvetica,sans-Serif" font-size="14.00"> triangulation</text>
</g>
</g>
</svg>
