<?xml version="1.0" encoding="UTF-8" standalone="no"?>
<!DOCTYPE svg PUBLIC "-//W3C//DTD SVG 1.1//EN"
 "http://www.w3.org/Graphics/SVG/1.1/DTD/svg11.dtd">
<!-- Generated by graphviz version 2.38.0 (20140413.2041)
 -->
<!-- Title: EquationData::Diffusion_B Pages: 1 -->
<svg width="324pt" height="107pt"
 viewBox="0.00 0.00 324.00 107.00" xmlns="http://www.w3.org/2000/svg" xmlns:xlink="http://www.w3.org/1999/xlink">
<g id="graph0" class="graph" transform="scale(1 1) rotate(0) translate(4 103)">
<title>EquationData::Diffusion_B</title>
<polygon fill="white" stroke="none" points="-4,4 -4,-103 320,-103 320,4 -4,4"/>
<!-- Node1 -->
<g id="node1" class="node"><title>Node1</title>
<polygon fill="#bfbfbf" stroke="black" points="65.5,-0.5 65.5,-23.5 240.5,-23.5 240.5,-0.5 65.5,-0.5"/>
<text text-anchor="middle" x="153" y="-8.3" font-family="Helvetica,sans-Serif" font-size="14.00">EquationData::Diffusion_B</text>
</g>
<!-- Node2 -->
<g id="node2" class="node"><title>Node2</title>
<g id="a_node2"><a xlink:href="classFunctionParser.html" target="_top" xlink:title="FunctionParser\&lt; 3 \&gt;">
<polygon fill="white" stroke="black" points="0,-68 0,-91 140,-91 140,-68 0,-68"/>
<text text-anchor="middle" x="70" y="-75.8" font-family="Helvetica,sans-Serif" font-size="14.00">FunctionParser&lt; 3 &gt;</text>
</a>
</g>
</g>
<!-- Node2&#45;&gt;Node1 -->
<g id="edge1" class="edge"><title>Node2&#45;&gt;Node1</title>
<path fill="none" stroke="midnightblue" d="M91.1957,-61.7733C106.368,-49.8001 126.345,-34.0353 139.422,-23.7152"/>
<polygon fill="midnightblue" stroke="midnightblue" points="89.0172,-59.0338 83.3354,-67.9763 93.3537,-64.5289 89.0172,-59.0338"/>
</g>
<!-- Node3 -->
<g id="node3" class="node"><title>Node3</title>
<g id="a_node3"><a xlink:href="classEquationData_1_1Diffusion__B__Data.html" target="_top" xlink:title="Class containing data to construct a positive scalar. ">
<polygon fill="white" stroke="black" points="158,-60.5 158,-98.5 316,-98.5 316,-60.5 158,-60.5"/>
<text text-anchor="start" x="166" y="-83.3" font-family="Helvetica,sans-Serif" font-size="14.00">EquationData::Diffusion</text>
<text text-anchor="middle" x="237" y="-68.3" font-family="Helvetica,sans-Serif" font-size="14.00">_B_Data</text>
</a>
</g>
</g>
<!-- Node3&#45;&gt;Node1 -->
<g id="edge2" class="edge"><title>Node3&#45;&gt;Node1</title>
<path fill="none" stroke="midnightblue" d="M205.487,-53.9272C192.051,-43.4504 177.085,-31.7808 166.584,-23.5919"/>
<polygon fill="midnightblue" stroke="midnightblue" points="203.563,-56.8655 213.601,-60.2546 207.868,-51.3453 203.563,-56.8655"/>
</g>
</g>
</svg>
