<?xml version="1.0" encoding="UTF-8" standalone="no"?>
<!DOCTYPE svg PUBLIC "-//W3C//DTD SVG 1.1//EN"
 "http://www.w3.org/Graphics/SVG/1.1/DTD/svg11.dtd">
<!-- Generated by graphviz version 2.38.0 (20140413.2041)
 -->
<!-- Title: EquationData::Diffusion_B_Data Pages: 1 -->
<svg width="209pt" height="137pt"
 viewBox="0.00 0.00 208.50 137.00" xmlns="http://www.w3.org/2000/svg" xmlns:xlink="http://www.w3.org/1999/xlink">
<g id="graph0" class="graph" transform="scale(1 1) rotate(0) translate(4 133)">
<title>EquationData::Diffusion_B_Data</title>
<polygon fill="white" stroke="none" points="-4,4 -4,-133 204.5,-133 204.5,4 -4,4"/>
<!-- Node1 -->
<g id="node1" class="node"><title>Node1</title>
<polygon fill="#bfbfbf" stroke="black" points="11.5,-0.5 11.5,-38.5 169.5,-38.5 169.5,-0.5 11.5,-0.5"/>
<text text-anchor="start" x="19.5" y="-23.3" font-family="Helvetica,sans-Serif" font-size="14.00">EquationData::Diffusion</text>
<text text-anchor="middle" x="90.5" y="-8.3" font-family="Helvetica,sans-Serif" font-size="14.00">_B_Data</text>
</g>
<!-- Node2 -->
<g id="node2" class="node"><title>Node2</title>
<polygon fill="white" stroke="#bfbfbf" points="0,-105.5 0,-128.5 57,-128.5 57,-105.5 0,-105.5"/>
<text text-anchor="middle" x="28.5" y="-113.3" font-family="Helvetica,sans-Serif" font-size="14.00">double</text>
</g>
<!-- Node2&#45;&gt;Node1 -->
<g id="edge1" class="edge"><title>Node2&#45;&gt;Node1</title>
<path fill="none" stroke="#9a32cd" stroke-dasharray="5,2" d="M33.5744,-95.3704C37.1146,-83.4901 42.63,-68.6526 50.5,-57 55.0251,-50.3 61.024,-43.9824 66.9959,-38.5464"/>
<polygon fill="#9a32cd" stroke="#9a32cd" points="30.1282,-94.7043 30.8677,-105.273 36.8805,-96.5499 30.1282,-94.7043"/>
<text text-anchor="middle" x="68.5" y="-75.8" font-family="Helvetica,sans-Serif" font-size="14.00"> scale</text>
<text text-anchor="middle" x="68.5" y="-60.8" font-family="Helvetica,sans-Serif" font-size="14.00">alpha</text>
</g>
<!-- Node3 -->
<g id="node3" class="node"><title>Node3</title>
<polygon fill="white" stroke="#bfbfbf" points="75,-105.5 75,-128.5 106,-128.5 106,-105.5 75,-105.5"/>
<text text-anchor="middle" x="90.5" y="-113.3" font-family="Helvetica,sans-Serif" font-size="14.00">int</text>
</g>
<!-- Node3&#45;&gt;Node1 -->
<g id="edge2" class="edge"><title>Node3&#45;&gt;Node1</title>
<path fill="none" stroke="#9a32cd" stroke-dasharray="5,2" d="M90.5,-94.9565C90.5,-78.0904 90.5,-54.6716 90.5,-38.6278"/>
<polygon fill="#9a32cd" stroke="#9a32cd" points="87.0001,-95.4149 90.5,-105.415 94.0001,-95.415 87.0001,-95.4149"/>
<text text-anchor="middle" x="96" y="-68.3" font-family="Helvetica,sans-Serif" font-size="14.00"> k</text>
</g>
<!-- Node4 -->
<g id="node4" class="node"><title>Node4</title>
<polygon fill="white" stroke="#bfbfbf" points="124.5,-105.5 124.5,-128.5 174.5,-128.5 174.5,-105.5 124.5,-105.5"/>
<text text-anchor="middle" x="149.5" y="-113.3" font-family="Helvetica,sans-Serif" font-size="14.00">string</text>
</g>
<!-- Node4&#45;&gt;Node1 -->
<g id="edge3" class="edge"><title>Node4&#45;&gt;Node1</title>
<path fill="none" stroke="#9a32cd" stroke-dasharray="5,2" d="M137.683,-96.8727C127.199,-79.9028 111.993,-55.2887 101.699,-38.6278"/>
<polygon fill="#9a32cd" stroke="#9a32cd" points="134.727,-98.7471 142.961,-105.415 140.682,-95.068 134.727,-98.7471"/>
<text text-anchor="middle" x="165.5" y="-68.3" font-family="Helvetica,sans-Serif" font-size="14.00"> expression</text>
</g>
</g>
</svg>
