<?xml version="1.0" encoding="UTF-8" standalone="no"?>
<!DOCTYPE svg PUBLIC "-//W3C//DTD SVG 1.1//EN"
 "http://www.w3.org/Graphics/SVG/1.1/DTD/svg11.dtd">
<!-- Generated by graphviz version 2.38.0 (20140413.2041)
 -->
<!-- Title: ShapeFun::MyMappingQ1&lt; dim &gt; Pages: 1 -->
<svg width="368pt" height="137pt"
 viewBox="0.00 0.00 367.50 137.00" xmlns="http://www.w3.org/2000/svg" xmlns:xlink="http://www.w3.org/1999/xlink">
<g id="graph0" class="graph" transform="scale(1 1) rotate(0) translate(4 133)">
<title>ShapeFun::MyMappingQ1&lt; dim &gt;</title>
<polygon fill="white" stroke="none" points="-4,4 -4,-133 363.5,-133 363.5,4 -4,4"/>
<!-- Node1 -->
<g id="node1" class="node"><title>Node1</title>
<polygon fill="#bfbfbf" stroke="black" points="72.5,-0.5 72.5,-38.5 248.5,-38.5 248.5,-0.5 72.5,-0.5"/>
<text text-anchor="start" x="80.5" y="-23.3" font-family="Helvetica,sans-Serif" font-size="14.00">ShapeFun::MyMappingQ1</text>
<text text-anchor="middle" x="160.5" y="-8.3" font-family="Helvetica,sans-Serif" font-size="14.00">&lt; dim &gt;</text>
</g>
<!-- Node2 -->
<g id="node2" class="node"><title>Node2</title>
<polygon fill="white" stroke="#bfbfbf" points="0,-105.5 0,-128.5 155,-128.5 155,-105.5 0,-105.5"/>
<text text-anchor="middle" x="77.5" y="-113.3" font-family="Helvetica,sans-Serif" font-size="14.00">vector&lt; Point&lt; dim &gt; &gt;</text>
</g>
<!-- Node2&#45;&gt;Node1 -->
<g id="edge1" class="edge"><title>Node2&#45;&gt;Node1</title>
<path fill="none" stroke="#9a32cd" stroke-dasharray="5,2" d="M93.3113,-97.8075C108.078,-80.8171 129.997,-55.5973 144.745,-38.6278"/>
<polygon fill="#9a32cd" stroke="#9a32cd" points="90.6177,-95.5712 86.6996,-105.415 95.9012,-100.163 90.6177,-95.5712"/>
<text text-anchor="middle" x="161" y="-68.3" font-family="Helvetica,sans-Serif" font-size="14.00"> cell_vertex</text>
</g>
<!-- Node3 -->
<g id="node3" class="node"><title>Node3</title>
<polygon fill="white" stroke="#bfbfbf" points="173.5,-105.5 173.5,-128.5 313.5,-128.5 313.5,-105.5 173.5,-105.5"/>
<text text-anchor="middle" x="243.5" y="-113.3" font-family="Helvetica,sans-Serif" font-size="14.00">FullMatrix&lt; double &gt;</text>
</g>
<!-- Node3&#45;&gt;Node1 -->
<g id="edge2" class="edge"><title>Node3&#45;&gt;Node1</title>
<path fill="none" stroke="#9a32cd" stroke-dasharray="5,2" d="M230.498,-96.8075C222.139,-84.9313 210.767,-69.5995 199.5,-57 193.936,-50.7786 187.464,-44.4204 181.41,-38.7905"/>
<polygon fill="#9a32cd" stroke="#9a32cd" points="227.68,-98.8862 236.252,-105.113 233.434,-94.9 227.68,-98.8862"/>
<text text-anchor="middle" x="291.5" y="-75.8" font-family="Helvetica,sans-Serif" font-size="14.00"> coeff_matrix_unit_cell</text>
<text text-anchor="middle" x="291.5" y="-60.8" font-family="Helvetica,sans-Serif" font-size="14.00">coeff_matrix</text>
</g>
</g>
</svg>
