<?xml version="1.0" encoding="UTF-8" standalone="no"?>
<!DOCTYPE svg PUBLIC "-//W3C//DTD SVG 1.1//EN"
 "http://www.w3.org/Graphics/SVG/1.1/DTD/svg11.dtd">
<!-- Generated by graphviz version 2.38.0 (20140413.2041)
 -->
<!-- Title: EquationData::ExactSolutionLin_Data Pages: 1 -->
<svg width="438pt" height="204pt"
 viewBox="0.00 0.00 438.00 203.50" xmlns="http://www.w3.org/2000/svg" xmlns:xlink="http://www.w3.org/1999/xlink">
<g id="graph0" class="graph" transform="scale(1 1) rotate(0) translate(4 199.5)">
<title>EquationData::ExactSolutionLin_Data</title>
<polygon fill="white" stroke="none" points="-4,4 -4,-199.5 434,-199.5 434,4 -4,4"/>
<!-- Node1 -->
<g id="node1" class="node"><title>Node1</title>
<polygon fill="#bfbfbf" stroke="black" points="0,-85.5 0,-123.5 188,-123.5 188,-85.5 0,-85.5"/>
<text text-anchor="start" x="8" y="-108.3" font-family="Helvetica,sans-Serif" font-size="14.00">EquationData::ExactSolution</text>
<text text-anchor="middle" x="94" y="-93.3" font-family="Helvetica,sans-Serif" font-size="14.00">Lin_Data</text>
</g>
<!-- Node2 -->
<g id="node2" class="node"><title>Node2</title>
<g id="a_node2"><a xlink:href="classEquationData_1_1ExactSolutionLin.html" target="_top" xlink:title="Class for analytic solution . ">
<polygon fill="white" stroke="black" points="224,-172 224,-195 430,-195 430,-172 224,-172"/>
<text text-anchor="middle" x="327" y="-179.8" font-family="Helvetica,sans-Serif" font-size="14.00">EquationData::ExactSolutionLin</text>
</a>
</g>
</g>
<!-- Node1&#45;&gt;Node2 -->
<g id="edge1" class="edge"><title>Node1&#45;&gt;Node2</title>
<path fill="none" stroke="midnightblue" d="M140.969,-128.137C165.17,-139.814 195.639,-153.328 224,-162.5 235.268,-166.144 247.447,-169.298 259.333,-171.974"/>
<polygon fill="midnightblue" stroke="midnightblue" points="142.204,-124.845 131.682,-123.599 139.13,-131.134 142.204,-124.845"/>
</g>
<!-- Node3 -->
<g id="node3" class="node"><title>Node3</title>
<g id="a_node3"><a xlink:href="classEquationData_1_1ExactSolutionLin__A__curl.html" target="_top" xlink:title="Auxiliary variable &#160;for 2&#45;forms. ">
<polygon fill="white" stroke="black" points="233,-114.5 233,-152.5 421,-152.5 421,-114.5 233,-114.5"/>
<text text-anchor="start" x="241" y="-137.3" font-family="Helvetica,sans-Serif" font-size="14.00">EquationData::ExactSolution</text>
<text text-anchor="middle" x="327" y="-122.3" font-family="Helvetica,sans-Serif" font-size="14.00">Lin_A_curl</text>
</a>
</g>
</g>
<!-- Node1&#45;&gt;Node3 -->
<g id="edge2" class="edge"><title>Node1&#45;&gt;Node3</title>
<path fill="none" stroke="midnightblue" d="M198.313,-117.47C209.779,-118.909 221.406,-120.369 232.737,-121.792"/>
<polygon fill="midnightblue" stroke="midnightblue" points="198.649,-113.985 188.291,-116.212 197.777,-120.93 198.649,-113.985"/>
</g>
<!-- Node4 -->
<g id="node4" class="node"><title>Node4</title>
<g id="a_node4"><a xlink:href="classEquationData_1_1ExactSolutionLin__B__div.html" target="_top" xlink:title="Auxiliary variable &#160;for 1&#45;forms. ">
<polygon fill="white" stroke="black" points="233,-57.5 233,-95.5 421,-95.5 421,-57.5 233,-57.5"/>
<text text-anchor="start" x="241" y="-80.3" font-family="Helvetica,sans-Serif" font-size="14.00">EquationData::ExactSolution</text>
<text text-anchor="middle" x="327" y="-65.3" font-family="Helvetica,sans-Serif" font-size="14.00">Lin_B_div</text>
</a>
</g>
</g>
<!-- Node1&#45;&gt;Node4 -->
<g id="edge3" class="edge"><title>Node1&#45;&gt;Node4</title>
<path fill="none" stroke="midnightblue" d="M198.313,-91.9772C209.779,-90.5875 221.406,-89.1781 232.737,-87.8047"/>
<polygon fill="midnightblue" stroke="midnightblue" points="197.797,-88.5141 188.291,-93.192 198.639,-95.4632 197.797,-88.5141"/>
</g>
<!-- Node5 -->
<g id="node5" class="node"><title>Node5</title>
<g id="a_node5"><a xlink:href="classEquationData_1_1RightHandSideExactLin.html" target="_top" xlink:title="Right hand side used if user chooses to compare an analytic solutions. ">
<polygon fill="white" stroke="black" points="228.5,-0.5 228.5,-38.5 425.5,-38.5 425.5,-0.5 228.5,-0.5"/>
<text text-anchor="start" x="236.5" y="-23.3" font-family="Helvetica,sans-Serif" font-size="14.00">EquationData::RightHandSide</text>
<text text-anchor="middle" x="327" y="-8.3" font-family="Helvetica,sans-Serif" font-size="14.00">ExactLin</text>
</a>
</g>
</g>
<!-- Node1&#45;&gt;Node5 -->
<g id="edge4" class="edge"><title>Node1&#45;&gt;Node5</title>
<path fill="none" stroke="midnightblue" d="M144.29,-81.2736C168.079,-70.5377 197.209,-58.0761 224,-48.5 233.795,-44.999 244.235,-41.6308 254.557,-38.5072"/>
<polygon fill="midnightblue" stroke="midnightblue" points="142.77,-78.12 135.117,-85.447 145.669,-84.4915 142.77,-78.12"/>
</g>
</g>
</svg>
