<?xml version="1.0" encoding="UTF-8" standalone="no"?>
<!DOCTYPE svg PUBLIC "-//W3C//DTD SVG 1.1//EN"
 "http://www.w3.org/Graphics/SVG/1.1/DTD/svg11.dtd">
<!-- Generated by graphviz version 2.38.0 (20140413.2041)
 -->
<!-- Title: LinearSolvers::SchurComplement&lt; BlockMatrixType, VectorType, PreconditionerType, DoFHandlerType &gt; Pages: 1 -->
<svg width="637pt" height="318pt"
 viewBox="0.00 0.00 637.00 317.50" xmlns="http://www.w3.org/2000/svg" xmlns:xlink="http://www.w3.org/1999/xlink">
<g id="graph0" class="graph" transform="scale(1 1) rotate(0) translate(4 313.5)">
<title>LinearSolvers::SchurComplement&lt; BlockMatrixType, VectorType, PreconditionerType, DoFHandlerType &gt;</title>
<polygon fill="white" stroke="none" points="-4,4 -4,-313.5 633,-313.5 633,4 -4,4"/>
<!-- Node1 -->
<g id="node1" class="node"><title>Node1</title>
<polygon fill="#bfbfbf" stroke="black" points="369,-142 369,-195 629,-195 629,-142 369,-142"/>
<text text-anchor="start" x="377" y="-179.8" font-family="Helvetica,sans-Serif" font-size="14.00">LinearSolvers::SchurComplement</text>
<text text-anchor="start" x="377" y="-164.8" font-family="Helvetica,sans-Serif" font-size="14.00">&lt; BlockMatrixType, VectorType,</text>
<text text-anchor="middle" x="499" y="-149.8" font-family="Helvetica,sans-Serif" font-size="14.00"> PreconditionerType, DoFHandlerType &gt;</text>
</g>
<!-- Node2 -->
<g id="node2" class="node"><title>Node2</title>
<g id="a_node2"><a xlink:href="classSubscriptor.html" target="_top" xlink:title="Subscriptor">
<polygon fill="white" stroke="black" points="50,-286 50,-309 135,-309 135,-286 50,-286"/>
<text text-anchor="middle" x="92.5" y="-293.8" font-family="Helvetica,sans-Serif" font-size="14.00">Subscriptor</text>
</a>
</g>
</g>
<!-- Node2&#45;&gt;Node1 -->
<g id="edge1" class="edge"><title>Node2&#45;&gt;Node1</title>
<path fill="none" stroke="midnightblue" d="M145.316,-300.142C198.591,-301.117 283.122,-297.76 351,-272.5 397.146,-255.327 442.152,-219.92 469.954,-195.215"/>
<polygon fill="midnightblue" stroke="midnightblue" points="145.174,-296.637 135.092,-299.894 145.004,-303.635 145.174,-296.637"/>
</g>
<!-- Node3 -->
<g id="node3" class="node"><title>Node3</title>
<polygon fill="white" stroke="#bfbfbf" points="33,-244 33,-267 152,-267 152,-244 33,-244"/>
<text text-anchor="middle" x="92.5" y="-251.8" font-family="Helvetica,sans-Serif" font-size="14.00">DoFHandlerType</text>
</g>
<!-- Node3&#45;&gt;Node1 -->
<g id="edge2" class="edge"><title>Node3&#45;&gt;Node1</title>
<path fill="none" stroke="#9a32cd" stroke-dasharray="5,2" d="M162.398,-255.756C214.856,-254.484 288.452,-249.523 351,-233.5 385.06,-224.775 421.202,-208.892 449.127,-195.012"/>
<polygon fill="#9a32cd" stroke="#9a32cd" points="162.125,-252.261 152.198,-255.963 162.267,-259.259 162.125,-252.261"/>
<text text-anchor="middle" x="277" y="-257.3" font-family="Helvetica,sans-Serif" font-size="14.00"> dof_handler</text>
</g>
<!-- Node4 -->
<g id="node4" class="node"><title>Node4</title>
<polygon fill="white" stroke="#bfbfbf" points="49.5,-188 49.5,-211 135.5,-211 135.5,-188 49.5,-188"/>
<text text-anchor="middle" x="92.5" y="-195.8" font-family="Helvetica,sans-Serif" font-size="14.00">VectorType</text>
</g>
<!-- Node4&#45;&gt;Node1 -->
<g id="edge3" class="edge"><title>Node4&#45;&gt;Node1</title>
<path fill="none" stroke="#9a32cd" stroke-dasharray="5,2" d="M145.679,-193.91C163.813,-192.06 184.292,-190.073 203,-188.5 257.221,-183.94 317.118,-179.727 368.693,-176.356"/>
<polygon fill="#9a32cd" stroke="#9a32cd" points="145.177,-190.443 135.589,-194.95 145.895,-197.406 145.177,-190.443"/>
<text text-anchor="middle" x="277" y="-222.3" font-family="Helvetica,sans-Serif" font-size="14.00"> tmp3</text>
<text text-anchor="middle" x="277" y="-207.3" font-family="Helvetica,sans-Serif" font-size="14.00">tmp1</text>
<text text-anchor="middle" x="277" y="-192.3" font-family="Helvetica,sans-Serif" font-size="14.00">tmp2</text>
</g>
<!-- Node5 -->
<g id="node5" class="node"><title>Node5</title>
<polygon fill="white" stroke="#bfbfbf" points="4,-130.5 4,-168.5 181,-168.5 181,-130.5 4,-130.5"/>
<text text-anchor="start" x="12" y="-153.3" font-family="Helvetica,sans-Serif" font-size="14.00">const SmartPointer</text>
<text text-anchor="middle" x="92.5" y="-138.3" font-family="Helvetica,sans-Serif" font-size="14.00">&lt; const BlockMatrixType &gt;</text>
</g>
<!-- Node5&#45;&gt;Node1 -->
<g id="edge4" class="edge"><title>Node5&#45;&gt;Node1</title>
<path fill="none" stroke="#9a32cd" stroke-dasharray="5,2" d="M191.289,-147.171C239.43,-146.714 298.308,-147.183 351,-150.5 356.774,-150.863 362.668,-151.302 368.617,-151.8"/>
<polygon fill="#9a32cd" stroke="#9a32cd" points="191.146,-143.672 181.185,-147.281 191.223,-150.671 191.146,-143.672"/>
<text text-anchor="middle" x="277" y="-154.3" font-family="Helvetica,sans-Serif" font-size="14.00"> system_matrix</text>
</g>
<!-- Node6 -->
<g id="node6" class="node"><title>Node6</title>
<polygon fill="white" stroke="#bfbfbf" points="71.5,-88 71.5,-111 113.5,-111 113.5,-88 71.5,-88"/>
<text text-anchor="middle" x="92.5" y="-95.8" font-family="Helvetica,sans-Serif" font-size="14.00">bool</text>
</g>
<!-- Node6&#45;&gt;Node1 -->
<g id="edge5" class="edge"><title>Node6&#45;&gt;Node1</title>
<path fill="none" stroke="#9a32cd" stroke-dasharray="5,2" d="M123.793,-101.398C172.159,-104.768 269.661,-112.949 351,-128.5 369.964,-132.126 390.066,-136.936 409.115,-141.961"/>
<polygon fill="#9a32cd" stroke="#9a32cd" points="123.904,-97.898 113.691,-100.715 123.432,-104.882 123.904,-97.898"/>
<text text-anchor="middle" x="277" y="-132.3" font-family="Helvetica,sans-Serif" font-size="14.00"> correct_mean_value</text>
</g>
<!-- Node7 -->
<g id="node7" class="node"><title>Node7</title>
<polygon fill="white" stroke="#bfbfbf" points="0,-0.5 0,-68.5 185,-68.5 185,-0.5 0,-0.5"/>
<text text-anchor="start" x="8" y="-53.3" font-family="Helvetica,sans-Serif" font-size="14.00">const SmartPointer</text>
<text text-anchor="start" x="8" y="-38.3" font-family="Helvetica,sans-Serif" font-size="14.00">&lt; const LinearSolvers</text>
<text text-anchor="start" x="8" y="-23.3" font-family="Helvetica,sans-Serif" font-size="14.00">::InverseMatrix&lt; BlockType,</text>
<text text-anchor="middle" x="92.5" y="-8.3" font-family="Helvetica,sans-Serif" font-size="14.00"> PreconditionerType &gt; &gt;</text>
</g>
<!-- Node7&#45;&gt;Node1 -->
<g id="edge6" class="edge"><title>Node7&#45;&gt;Node1</title>
<path fill="none" stroke="#9a32cd" stroke-dasharray="5,2" d="M195.35,-49.4097C243.452,-58.1706 301.12,-71.1918 351,-89.5 388.126,-103.127 427.453,-124.682 456.08,-141.837"/>
<polygon fill="#9a32cd" stroke="#9a32cd" points="195.697,-45.9163 185.237,-47.6045 194.467,-52.8073 195.697,-45.9163"/>
<text text-anchor="middle" x="277" y="-93.3" font-family="Helvetica,sans-Serif" font-size="14.00"> relevant_inverse_matrix</text>
</g>
</g>
</svg>
