<?xml version="1.0" encoding="UTF-8" standalone="no"?>
<!DOCTYPE svg PUBLIC "-//W3C//DTD SVG 1.1//EN"
 "http://www.w3.org/Graphics/SVG/1.1/DTD/svg11.dtd">
<!-- Generated by graphviz version 2.38.0 (20140413.2041)
 -->
<!-- Title: EquationData::ExactSolutionLin_A_curl Pages: 1 -->
<svg width="372pt" height="122pt"
 viewBox="0.00 0.00 371.50 122.00" xmlns="http://www.w3.org/2000/svg" xmlns:xlink="http://www.w3.org/1999/xlink">
<g id="graph0" class="graph" transform="scale(1 1) rotate(0) translate(4 118)">
<title>EquationData::ExactSolutionLin_A_curl</title>
<polygon fill="white" stroke="none" points="-4,4 -4,-118 367.5,-118 367.5,4 -4,4"/>
<!-- Node1 -->
<g id="node1" class="node"><title>Node1</title>
<polygon fill="#bfbfbf" stroke="black" points="79.5,-0.5 79.5,-38.5 267.5,-38.5 267.5,-0.5 79.5,-0.5"/>
<text text-anchor="start" x="87.5" y="-23.3" font-family="Helvetica,sans-Serif" font-size="14.00">EquationData::ExactSolution</text>
<text text-anchor="middle" x="173.5" y="-8.3" font-family="Helvetica,sans-Serif" font-size="14.00">Lin_A_curl</text>
</g>
<!-- Node2 -->
<g id="node2" class="node"><title>Node2</title>
<g id="a_node2"><a xlink:href="classTensorFunction.html" target="_top" xlink:title="TensorFunction\&lt; 1, 3 \&gt;">
<polygon fill="white" stroke="black" points="0,-83 0,-106 157,-106 157,-83 0,-83"/>
<text text-anchor="middle" x="78.5" y="-90.8" font-family="Helvetica,sans-Serif" font-size="14.00">TensorFunction&lt; 1, 3 &gt;</text>
</a>
</g>
</g>
<!-- Node2&#45;&gt;Node1 -->
<g id="edge1" class="edge"><title>Node2&#45;&gt;Node1</title>
<path fill="none" stroke="midnightblue" d="M100.606,-76.513C115.369,-65.1688 134.768,-50.2628 149.841,-38.6798"/>
<polygon fill="midnightblue" stroke="midnightblue" points="98.3144,-73.8602 92.5176,-82.7286 102.58,-79.4108 98.3144,-73.8602"/>
</g>
<!-- Node3 -->
<g id="node3" class="node"><title>Node3</title>
<g id="a_node3"><a xlink:href="classEquationData_1_1ExactSolutionLin__Data.html" target="_top" xlink:title="Data class to construct an analytic solution. ">
<polygon fill="white" stroke="black" points="175.5,-75.5 175.5,-113.5 363.5,-113.5 363.5,-75.5 175.5,-75.5"/>
<text text-anchor="start" x="183.5" y="-98.3" font-family="Helvetica,sans-Serif" font-size="14.00">EquationData::ExactSolution</text>
<text text-anchor="middle" x="269.5" y="-83.3" font-family="Helvetica,sans-Serif" font-size="14.00">Lin_Data</text>
</a>
</g>
</g>
<!-- Node3&#45;&gt;Node1 -->
<g id="edge2" class="edge"><title>Node3&#45;&gt;Node1</title>
<path fill="none" stroke="midnightblue" d="M237.453,-69.1311C224.331,-59.153 209.415,-47.8102 197.29,-38.5904"/>
<polygon fill="midnightblue" stroke="midnightblue" points="235.691,-72.1881 245.77,-75.4551 239.928,-66.6161 235.691,-72.1881"/>
</g>
</g>
</svg>
