<?xml version="1.0" encoding="UTF-8" standalone="no"?>
<!DOCTYPE svg PUBLIC "-//W3C//DTD SVG 1.1//EN"
 "http://www.w3.org/Graphics/SVG/1.1/DTD/svg11.dtd">
<!-- Generated by graphviz version 2.38.0 (20140413.2041)
 -->
<!-- Title: ShapeFun::TestFunctionCurl Pages: 1 -->
<svg width="201pt" height="107pt"
 viewBox="0.00 0.00 200.50 107.00" xmlns="http://www.w3.org/2000/svg" xmlns:xlink="http://www.w3.org/1999/xlink">
<g id="graph0" class="graph" transform="scale(1 1) rotate(0) translate(4 103)">
<title>ShapeFun::TestFunctionCurl</title>
<polygon fill="white" stroke="none" points="-4,4 -4,-103 196.5,-103 196.5,4 -4,4"/>
<!-- Node1 -->
<g id="node1" class="node"><title>Node1</title>
<polygon fill="#bfbfbf" stroke="black" points="3.5,-0.5 3.5,-23.5 192.5,-23.5 192.5,-0.5 3.5,-0.5"/>
<text text-anchor="middle" x="98" y="-8.3" font-family="Helvetica,sans-Serif" font-size="14.00">ShapeFun::TestFunctionCurl</text>
</g>
<!-- Node2 -->
<g id="node2" class="node"><title>Node2</title>
<polygon fill="white" stroke="#bfbfbf" points="0,-75.5 0,-98.5 100,-98.5 100,-75.5 0,-75.5"/>
<text text-anchor="middle" x="50" y="-83.3" font-family="Helvetica,sans-Serif" font-size="14.00">Function&lt; 3 &gt;</text>
</g>
<!-- Node2&#45;&gt;Node1 -->
<g id="edge1" class="edge"><title>Node2&#45;&gt;Node1</title>
<path fill="none" stroke="midnightblue" d="M62.7934,-66.5433C71.7929,-52.8566 83.5034,-35.0469 90.8884,-23.8156"/>
<polygon fill="midnightblue" stroke="midnightblue" points="59.6522,-64.9501 57.0826,-75.2286 65.5011,-68.796 59.6522,-64.9501"/>
</g>
<!-- Node3 -->
<g id="node3" class="node"><title>Node3</title>
<polygon fill="white" stroke="#bfbfbf" points="118.5,-75.5 118.5,-98.5 175.5,-98.5 175.5,-75.5 118.5,-75.5"/>
<text text-anchor="middle" x="147" y="-83.3" font-family="Helvetica,sans-Serif" font-size="14.00">double</text>
</g>
<!-- Node3&#45;&gt;Node1 -->
<g id="edge2" class="edge"><title>Node3&#45;&gt;Node1</title>
<path fill="none" stroke="#9a32cd" stroke-dasharray="5,2" d="M133.94,-66.5433C124.753,-52.8566 112.799,-35.0469 105.26,-23.8156"/>
<polygon fill="#9a32cd" stroke="#9a32cd" points="131.291,-68.8763 139.77,-75.2286 137.103,-64.975 131.291,-68.8763"/>
<text text-anchor="middle" x="145" y="-45.8" font-family="Helvetica,sans-Serif" font-size="14.00"> scale</text>
</g>
</g>
</svg>
