<?xml version="1.0" encoding="UTF-8" standalone="no"?>
<!DOCTYPE svg PUBLIC "-//W3C//DTD SVG 1.1//EN"
 "http://www.w3.org/Graphics/SVG/1.1/DTD/svg11.dtd">
<!-- Generated by graphviz version 2.38.0 (20140413.2041)
 -->
<!-- Title: LinearSolvers::ApproximateInverseMatrix&lt; MatrixType, PreconditionerType &gt; Pages: 1 -->
<svg width="457pt" height="152pt"
 viewBox="0.00 0.00 456.50 152.00" xmlns="http://www.w3.org/2000/svg" xmlns:xlink="http://www.w3.org/1999/xlink">
<g id="graph0" class="graph" transform="scale(1 1) rotate(0) translate(4 148)">
<title>LinearSolvers::ApproximateInverseMatrix&lt; MatrixType, PreconditionerType &gt;</title>
<polygon fill="white" stroke="none" points="-4,4 -4,-148 452.5,-148 452.5,4 -4,4"/>
<!-- Node1 -->
<g id="node1" class="node"><title>Node1</title>
<polygon fill="#bfbfbf" stroke="black" points="77,-0.5 77,-53.5 260,-53.5 260,-0.5 77,-0.5"/>
<text text-anchor="start" x="85" y="-38.3" font-family="Helvetica,sans-Serif" font-size="14.00">LinearSolvers::Approximate</text>
<text text-anchor="start" x="85" y="-23.3" font-family="Helvetica,sans-Serif" font-size="14.00">InverseMatrix&lt; MatrixType,</text>
<text text-anchor="middle" x="168.5" y="-8.3" font-family="Helvetica,sans-Serif" font-size="14.00"> PreconditionerType &gt;</text>
</g>
<!-- Node2 -->
<g id="node2" class="node"><title>Node2</title>
<g id="a_node2"><a xlink:href="classSubscriptor.html" target="_top" xlink:title="Subscriptor">
<polygon fill="white" stroke="black" points="0,-113 0,-136 85,-136 85,-113 0,-113"/>
<text text-anchor="middle" x="42.5" y="-120.8" font-family="Helvetica,sans-Serif" font-size="14.00">Subscriptor</text>
</a>
</g>
</g>
<!-- Node2&#45;&gt;Node1 -->
<g id="edge1" class="edge"><title>Node2&#45;&gt;Node1</title>
<path fill="none" stroke="midnightblue" d="M64.695,-106.678C84.117,-91.957 112.62,-70.3536 134.847,-53.507"/>
<polygon fill="midnightblue" stroke="midnightblue" points="62.321,-104.085 56.4656,-112.915 66.5493,-109.664 62.321,-104.085"/>
</g>
<!-- Node3 -->
<g id="node3" class="node"><title>Node3</title>
<polygon fill="white" stroke="#bfbfbf" points="103,-113 103,-136 134,-136 134,-113 103,-113"/>
<text text-anchor="middle" x="118.5" y="-120.8" font-family="Helvetica,sans-Serif" font-size="14.00">int</text>
</g>
<!-- Node3&#45;&gt;Node1 -->
<g id="edge2" class="edge"><title>Node3&#45;&gt;Node1</title>
<path fill="none" stroke="#9a32cd" stroke-dasharray="5,2" d="M126.32,-103.098C130.227,-93.492 135.238,-81.9791 140.5,-72 143.71,-65.9129 147.481,-59.5621 151.198,-53.6407"/>
<polygon fill="#9a32cd" stroke="#9a32cd" points="122.98,-102.025 122.554,-112.611 129.489,-104.601 122.98,-102.025"/>
<text text-anchor="middle" x="169" y="-75.8" font-family="Helvetica,sans-Serif" font-size="14.00"> max_iter</text>
</g>
<!-- Node4 -->
<g id="node4" class="node"><title>Node4</title>
<polygon fill="white" stroke="#bfbfbf" points="152.5,-113 152.5,-136 286.5,-136 286.5,-113 152.5,-113"/>
<text text-anchor="middle" x="219.5" y="-120.8" font-family="Helvetica,sans-Serif" font-size="14.00">PreconditionerType</text>
</g>
<!-- Node4&#45;&gt;Node1 -->
<g id="edge3" class="edge"><title>Node4&#45;&gt;Node1</title>
<path fill="none" stroke="#9a32cd" stroke-dasharray="5,2" d="M211.899,-103.424C207.987,-93.7372 202.909,-82.0624 197.5,-72 194.208,-65.8756 190.315,-59.5097 186.467,-53.5854"/>
<polygon fill="#9a32cd" stroke="#9a32cd" points="208.739,-104.952 215.646,-112.986 215.256,-102.398 208.739,-104.952"/>
<text text-anchor="middle" x="249.5" y="-75.8" font-family="Helvetica,sans-Serif" font-size="14.00"> preconditioner</text>
</g>
<!-- Node5 -->
<g id="node5" class="node"><title>Node5</title>
<polygon fill="white" stroke="#bfbfbf" points="304.5,-105.5 304.5,-143.5 448.5,-143.5 448.5,-105.5 304.5,-105.5"/>
<text text-anchor="start" x="312.5" y="-128.3" font-family="Helvetica,sans-Serif" font-size="14.00">const SmartPointer</text>
<text text-anchor="middle" x="376.5" y="-113.3" font-family="Helvetica,sans-Serif" font-size="14.00">&lt; const MatrixType &gt;</text>
</g>
<!-- Node5&#45;&gt;Node1 -->
<g id="edge4" class="edge"><title>Node5&#45;&gt;Node1</title>
<path fill="none" stroke="#9a32cd" stroke-dasharray="5,2" d="M344.014,-99.3446C330.422,-89.9667 314.164,-79.6625 298.5,-72 284.588,-65.1944 269.359,-59.0081 254.38,-53.5655"/>
<polygon fill="#9a32cd" stroke="#9a32cd" points="342.336,-102.444 352.529,-105.336 346.365,-96.719 342.336,-102.444"/>
<text text-anchor="middle" x="344.5" y="-75.8" font-family="Helvetica,sans-Serif" font-size="14.00"> matrix</text>
</g>
</g>
</svg>
