<?xml version="1.0" encoding="UTF-8" standalone="no"?>
<!DOCTYPE svg PUBLIC "-//W3C//DTD SVG 1.1//EN"
 "http://www.w3.org/Graphics/SVG/1.1/DTD/svg11.dtd">
<!-- Generated by graphviz version 2.38.0 (20140413.2041)
 -->
<!-- Title: EquationData::ExactSolutionLin_Data Pages: 1 -->
<svg width="311pt" height="137pt"
 viewBox="0.00 0.00 311.00 137.00" xmlns="http://www.w3.org/2000/svg" xmlns:xlink="http://www.w3.org/1999/xlink">
<g id="graph0" class="graph" transform="scale(1 1) rotate(0) translate(4 133)">
<title>EquationData::ExactSolutionLin_Data</title>
<polygon fill="white" stroke="none" points="-4,4 -4,-133 307,-133 307,4 -4,4"/>
<!-- Node1 -->
<g id="node1" class="node"><title>Node1</title>
<polygon fill="#bfbfbf" stroke="black" points="33.5,-0.5 33.5,-38.5 221.5,-38.5 221.5,-0.5 33.5,-0.5"/>
<text text-anchor="start" x="41.5" y="-23.3" font-family="Helvetica,sans-Serif" font-size="14.00">EquationData::ExactSolution</text>
<text text-anchor="middle" x="127.5" y="-8.3" font-family="Helvetica,sans-Serif" font-size="14.00">Lin_Data</text>
</g>
<!-- Node2 -->
<g id="node2" class="node"><title>Node2</title>
<polygon fill="white" stroke="#bfbfbf" points="0,-105.5 0,-128.5 57,-128.5 57,-105.5 0,-105.5"/>
<text text-anchor="middle" x="28.5" y="-113.3" font-family="Helvetica,sans-Serif" font-size="14.00">double</text>
</g>
<!-- Node2&#45;&gt;Node1 -->
<g id="edge1" class="edge"><title>Node2&#45;&gt;Node1</title>
<path fill="none" stroke="#9a32cd" stroke-dasharray="5,2" d="M45.7411,-97.8442C57.1211,-86.0155 72.4668,-70.3559 86.5,-57 92.851,-50.9555 99.9324,-44.5415 106.399,-38.8042"/>
<polygon fill="#9a32cd" stroke="#9a32cd" points="42.9472,-95.7014 38.5612,-105.346 48.0042,-100.542 42.9472,-95.7014"/>
<text text-anchor="middle" x="105" y="-68.3" font-family="Helvetica,sans-Serif" font-size="14.00"> div_u</text>
</g>
<!-- Node3 -->
<g id="node3" class="node"><title>Node3</title>
<polygon fill="white" stroke="#bfbfbf" points="75,-105.5 75,-128.5 180,-128.5 180,-105.5 75,-105.5"/>
<text text-anchor="middle" x="127.5" y="-113.3" font-family="Helvetica,sans-Serif" font-size="14.00">Tensor&lt; 1, 3 &gt;</text>
</g>
<!-- Node3&#45;&gt;Node1 -->
<g id="edge2" class="edge"><title>Node3&#45;&gt;Node1</title>
<path fill="none" stroke="#9a32cd" stroke-dasharray="5,2" d="M127.5,-94.9565C127.5,-78.0904 127.5,-54.6716 127.5,-38.6278"/>
<polygon fill="#9a32cd" stroke="#9a32cd" points="124,-95.4149 127.5,-105.415 131,-95.415 124,-95.4149"/>
<text text-anchor="middle" x="148" y="-75.8" font-family="Helvetica,sans-Serif" font-size="14.00"> curl_u</text>
<text text-anchor="middle" x="148" y="-60.8" font-family="Helvetica,sans-Serif" font-size="14.00">b</text>
</g>
<!-- Node4 -->
<g id="node4" class="node"><title>Node4</title>
<polygon fill="white" stroke="#bfbfbf" points="198,-105.5 198,-128.5 303,-128.5 303,-105.5 198,-105.5"/>
<text text-anchor="middle" x="250.5" y="-113.3" font-family="Helvetica,sans-Serif" font-size="14.00">Tensor&lt; 2, 3 &gt;</text>
</g>
<!-- Node4&#45;&gt;Node1 -->
<g id="edge3" class="edge"><title>Node4&#45;&gt;Node1</title>
<path fill="none" stroke="#9a32cd" stroke-dasharray="5,2" d="M228.835,-99.1789C206.966,-82.1989 173.3,-56.0601 150.848,-38.6278"/>
<polygon fill="#9a32cd" stroke="#9a32cd" points="226.822,-102.047 236.867,-105.415 231.115,-96.5176 226.822,-102.047"/>
<text text-anchor="middle" x="217" y="-68.3" font-family="Helvetica,sans-Serif" font-size="14.00"> A</text>
</g>
</g>
</svg>
