<?xml version="1.0" encoding="UTF-8" standalone="no"?>
<!DOCTYPE svg PUBLIC "-//W3C//DTD SVG 1.1//EN"
 "http://www.w3.org/Graphics/SVG/1.1/DTD/svg11.dtd">
<!-- Generated by graphviz version 2.38.0 (20140413.2041)
 -->
<!-- Title: LinearSolvers::ApproximateSchurComplementMPI&lt; BlockMatrixType, VectorType, PreconditionerType &gt; Pages: 1 -->
<svg width="602pt" height="270pt"
 viewBox="0.00 0.00 602.00 270.00" xmlns="http://www.w3.org/2000/svg" xmlns:xlink="http://www.w3.org/1999/xlink">
<g id="graph0" class="graph" transform="scale(1 1) rotate(0) translate(4 266)">
<title>LinearSolvers::ApproximateSchurComplementMPI&lt; BlockMatrixType, VectorType, PreconditionerType &gt;</title>
<polygon fill="white" stroke="none" points="-4,4 -4,-266 598,-266 598,4 -4,4"/>
<!-- Node1 -->
<g id="node1" class="node"><title>Node1</title>
<polygon fill="#bfbfbf" stroke="black" points="334,-94.5 334,-147.5 594,-147.5 594,-94.5 334,-94.5"/>
<text text-anchor="start" x="342" y="-132.3" font-family="Helvetica,sans-Serif" font-size="14.00">LinearSolvers::Approximate</text>
<text text-anchor="start" x="342" y="-117.3" font-family="Helvetica,sans-Serif" font-size="14.00">SchurComplementMPI&lt; BlockMatrix</text>
<text text-anchor="middle" x="464" y="-102.3" font-family="Helvetica,sans-Serif" font-size="14.00">Type, VectorType, PreconditionerType &gt;</text>
</g>
<!-- Node2 -->
<g id="node2" class="node"><title>Node2</title>
<g id="a_node2"><a xlink:href="classSubscriptor.html" target="_top" xlink:title="Subscriptor">
<polygon fill="white" stroke="black" points="46,-238.5 46,-261.5 131,-261.5 131,-238.5 46,-238.5"/>
<text text-anchor="middle" x="88.5" y="-246.3" font-family="Helvetica,sans-Serif" font-size="14.00">Subscriptor</text>
</a>
</g>
</g>
<!-- Node2&#45;&gt;Node1 -->
<g id="edge1" class="edge"><title>Node2&#45;&gt;Node1</title>
<path fill="none" stroke="midnightblue" d="M141.341,-252.935C188.43,-253.823 259.026,-250.643 316,-229 363.367,-211.006 408.947,-173.317 436.471,-147.581"/>
<polygon fill="midnightblue" stroke="midnightblue" points="141.164,-249.43 131.077,-252.67 140.983,-256.428 141.164,-249.43"/>
</g>
<!-- Node3 -->
<g id="node3" class="node"><title>Node3</title>
<polygon fill="white" stroke="#bfbfbf" points="45.5,-184.5 45.5,-207.5 131.5,-207.5 131.5,-184.5 45.5,-184.5"/>
<text text-anchor="middle" x="88.5" y="-192.3" font-family="Helvetica,sans-Serif" font-size="14.00">VectorType</text>
</g>
<!-- Node3&#45;&gt;Node1 -->
<g id="edge2" class="edge"><title>Node3&#45;&gt;Node1</title>
<path fill="none" stroke="#9a32cd" stroke-dasharray="5,2" d="M141.898,-188.431C187.949,-181.489 256.679,-170.421 316,-158 330.94,-154.872 346.656,-151.262 362.029,-147.549"/>
<polygon fill="#9a32cd" stroke="#9a32cd" points="141.224,-184.993 131.852,-189.934 142.26,-191.916 141.224,-184.993"/>
<text text-anchor="middle" x="255.5" y="-213.8" font-family="Helvetica,sans-Serif" font-size="14.00"> tmp3</text>
<text text-anchor="middle" x="255.5" y="-198.8" font-family="Helvetica,sans-Serif" font-size="14.00">tmp1</text>
<text text-anchor="middle" x="255.5" y="-183.8" font-family="Helvetica,sans-Serif" font-size="14.00">tmp2</text>
</g>
<!-- Node4 -->
<g id="node4" class="node"><title>Node4</title>
<polygon fill="white" stroke="#bfbfbf" points="0,-127 0,-165 177,-165 177,-127 0,-127"/>
<text text-anchor="start" x="8" y="-149.8" font-family="Helvetica,sans-Serif" font-size="14.00">const SmartPointer</text>
<text text-anchor="middle" x="88.5" y="-134.8" font-family="Helvetica,sans-Serif" font-size="14.00">&lt; const BlockMatrixType &gt;</text>
</g>
<!-- Node4&#45;&gt;Node1 -->
<g id="edge3" class="edge"><title>Node4&#45;&gt;Node1</title>
<path fill="none" stroke="#9a32cd" stroke-dasharray="5,2" d="M187.082,-139.468C231.92,-136.467 285.719,-132.866 333.857,-129.644"/>
<polygon fill="#9a32cd" stroke="#9a32cd" points="186.813,-135.978 177.069,-140.139 187.281,-142.963 186.813,-135.978"/>
<text text-anchor="middle" x="255.5" y="-142.8" font-family="Helvetica,sans-Serif" font-size="14.00"> system_matrix</text>
</g>
<!-- Node5 -->
<g id="node5" class="node"><title>Node5</title>
<polygon fill="white" stroke="#bfbfbf" points="17,-84.5 17,-107.5 160,-107.5 160,-84.5 17,-84.5"/>
<text text-anchor="middle" x="88.5" y="-92.3" font-family="Helvetica,sans-Serif" font-size="14.00">vector&lt; IndexSet &gt; &amp;</text>
</g>
<!-- Node5&#45;&gt;Node1 -->
<g id="edge4" class="edge"><title>Node5&#45;&gt;Node1</title>
<path fill="none" stroke="#9a32cd" stroke-dasharray="5,2" d="M170.448,-101.418C218.086,-104.607 279.432,-108.713 333.634,-112.341"/>
<polygon fill="#9a32cd" stroke="#9a32cd" points="170.403,-97.9075 160.192,-100.732 169.935,-104.892 170.403,-97.9075"/>
<text text-anchor="middle" x="255.5" y="-114.8" font-family="Helvetica,sans-Serif" font-size="14.00"> owned_partitioning</text>
</g>
<!-- Node6 -->
<g id="node6" class="node"><title>Node6</title>
<polygon fill="white" stroke="#bfbfbf" points="43.5,-42.5 43.5,-65.5 133.5,-65.5 133.5,-42.5 43.5,-42.5"/>
<text text-anchor="middle" x="88.5" y="-50.3" font-family="Helvetica,sans-Serif" font-size="14.00">MPI_Comm</text>
</g>
<!-- Node6&#45;&gt;Node1 -->
<g id="edge5" class="edge"><title>Node6&#45;&gt;Node1</title>
<path fill="none" stroke="#9a32cd" stroke-dasharray="5,2" d="M143.626,-59.8021C189.675,-65.1213 257.459,-73.8571 316,-85 330.454,-87.7513 345.619,-91.0216 360.492,-94.4522"/>
<polygon fill="#9a32cd" stroke="#9a32cd" points="143.897,-56.3104 133.565,-58.6543 143.103,-63.2653 143.897,-56.3104"/>
<text text-anchor="middle" x="255.5" y="-88.8" font-family="Helvetica,sans-Serif" font-size="14.00"> mpi_communicator</text>
</g>
<!-- Node7 -->
<g id="node7" class="node"><title>Node7</title>
<polygon fill="white" stroke="#bfbfbf" points="21.5,-0.5 21.5,-23.5 155.5,-23.5 155.5,-0.5 21.5,-0.5"/>
<text text-anchor="middle" x="88.5" y="-8.3" font-family="Helvetica,sans-Serif" font-size="14.00">PreconditionerType</text>
</g>
<!-- Node7&#45;&gt;Node1 -->
<g id="edge6" class="edge"><title>Node7&#45;&gt;Node1</title>
<path fill="none" stroke="#9a32cd" stroke-dasharray="5,2" d="M165.828,-18.3072C210.393,-23.419 267.267,-32.4284 316,-48 351.964,-59.4914 390.079,-78.6431 418.484,-94.4472"/>
<polygon fill="#9a32cd" stroke="#9a32cd" points="165.971,-14.8018 155.648,-17.1823 165.203,-21.7595 165.971,-14.8018"/>
<text text-anchor="middle" x="255.5" y="-51.8" font-family="Helvetica,sans-Serif" font-size="14.00"> preconditioner</text>
</g>
</g>
</svg>
