<?xml version="1.0" encoding="UTF-8" standalone="no"?>
<!DOCTYPE svg PUBLIC "-//W3C//DTD SVG 1.1//EN"
 "http://www.w3.org/Graphics/SVG/1.1/DTD/svg11.dtd">
<!-- Generated by graphviz version 2.38.0 (20140413.2041)
 -->
<!-- Title: Q::QMultiscale Pages: 1 -->
<svg width="670pt" height="628pt"
 viewBox="0.00 0.00 670.00 628.40" xmlns="http://www.w3.org/2000/svg" xmlns:xlink="http://www.w3.org/1999/xlink">
<g id="graph0" class="graph" transform="scale(1 1) rotate(0) translate(4 624.404)">
<title>Q::QMultiscale</title>
<polygon fill="white" stroke="none" points="-4,4 -4,-624.404 666,-624.404 666,4 -4,4"/>
<!-- Node1 -->
<g id="node1" class="node"><title>Node1</title>
<polygon fill="#bfbfbf" stroke="black" points="555,-289.904 555,-312.904 662,-312.904 662,-289.904 555,-289.904"/>
<text text-anchor="middle" x="608.5" y="-297.704" font-family="Helvetica,sans-Serif" font-size="14.00">Q::QMultiscale</text>
</g>
<!-- Node2 -->
<g id="node2" class="node"><title>Node2</title>
<polygon fill="white" stroke="#bfbfbf" points="221,-577.904 221,-600.904 342,-600.904 342,-577.904 221,-577.904"/>
<text text-anchor="middle" x="281.5" y="-585.704" font-family="Helvetica,sans-Serif" font-size="14.00">DoFHandler&lt; 3 &gt;</text>
</g>
<!-- Node2&#45;&gt;Node1 -->
<g id="edge1" class="edge"><title>Node2&#45;&gt;Node1</title>
<path fill="none" stroke="#9a32cd" stroke-dasharray="5,2" d="M348.484,-602.257C405.055,-609.257 485.37,-609.063 537,-565.404 577.028,-531.557 600.486,-359.402 606.152,-312.961"/>
<polygon fill="#9a32cd" stroke="#9a32cd" points="348.938,-598.787 338.562,-600.927 348.008,-605.725 348.938,-598.787"/>
<text text-anchor="middle" x="461.5" y="-609.204" font-family="Helvetica,sans-Serif" font-size="14.00"> dof_handler</text>
</g>
<!-- Node3 -->
<g id="node3" class="node"><title>Node3</title>
<polygon fill="white" stroke="#bfbfbf" points="211.5,-535.904 211.5,-558.904 351.5,-558.904 351.5,-535.904 211.5,-535.904"/>
<text text-anchor="middle" x="281.5" y="-543.704" font-family="Helvetica,sans-Serif" font-size="14.00">ConditionalOStream</text>
</g>
<!-- Node3&#45;&gt;Node1 -->
<g id="edge2" class="edge"><title>Node3&#45;&gt;Node1</title>
<path fill="none" stroke="#9a32cd" stroke-dasharray="5,2" d="M361.884,-547.512C426.418,-545.973 510.891,-539.738 537,-518.404 602.49,-464.894 607.78,-349.707 607.731,-312.937"/>
<polygon fill="#9a32cd" stroke="#9a32cd" points="361.637,-544.016 351.71,-547.72 361.78,-551.014 361.637,-544.016"/>
<text text-anchor="middle" x="461.5" y="-550.204" font-family="Helvetica,sans-Serif" font-size="14.00"> pcout</text>
</g>
<!-- Node4 -->
<g id="node4" class="node"><title>Node4</title>
<polygon fill="white" stroke="#bfbfbf" points="217.5,-478.404 217.5,-516.404 345.5,-516.404 345.5,-478.404 217.5,-478.404"/>
<text text-anchor="start" x="225.5" y="-501.204" font-family="Helvetica,sans-Serif" font-size="14.00">AffineConstraints&lt;</text>
<text text-anchor="middle" x="281.5" y="-486.204" font-family="Helvetica,sans-Serif" font-size="14.00"> double &gt;</text>
</g>
<!-- Node4&#45;&gt;Node1 -->
<g id="edge3" class="edge"><title>Node4&#45;&gt;Node1</title>
<path fill="none" stroke="#9a32cd" stroke-dasharray="5,2" d="M355.741,-499.362C420.588,-499.634 509.146,-495.972 537,-475.404 591.538,-435.134 603.993,-345.436 606.746,-313.215"/>
<polygon fill="#9a32cd" stroke="#9a32cd" points="355.576,-495.86 345.55,-499.286 355.524,-502.86 355.576,-495.86"/>
<text text-anchor="middle" x="461.5" y="-503.204" font-family="Helvetica,sans-Serif" font-size="14.00"> constraints</text>
</g>
<!-- Node5 -->
<g id="node5" class="node"><title>Node5</title>
<polygon fill="white" stroke="#bfbfbf" points="250.5,-435.904 250.5,-458.904 312.5,-458.904 312.5,-435.904 250.5,-435.904"/>
<text text-anchor="middle" x="281.5" y="-443.704" font-family="Helvetica,sans-Serif" font-size="14.00">string &amp;</text>
</g>
<!-- Node5&#45;&gt;Node1 -->
<g id="edge4" class="edge"><title>Node5&#45;&gt;Node1</title>
<path fill="none" stroke="#9a32cd" stroke-dasharray="5,2" d="M322.883,-453.82C376.343,-460.114 471.477,-463.469 537,-421.404 577.26,-395.559 597.416,-337.908 604.483,-313.112"/>
<polygon fill="#9a32cd" stroke="#9a32cd" points="323.129,-450.323 312.767,-452.535 322.246,-457.268 323.129,-450.323"/>
<text text-anchor="middle" x="461.5" y="-462.204" font-family="Helvetica,sans-Serif" font-size="14.00"> parameter_filename</text>
</g>
<!-- Node6 -->
<g id="node6" class="node"><title>Node6</title>
<polygon fill="white" stroke="#bfbfbf" points="233,-393.904 233,-416.904 330,-416.904 330,-393.904 233,-393.904"/>
<text text-anchor="middle" x="281.5" y="-401.704" font-family="Helvetica,sans-Serif" font-size="14.00">SparseMatrix</text>
</g>
<!-- Node6&#45;&gt;Node1 -->
<g id="edge5" class="edge"><title>Node6&#45;&gt;Node1</title>
<path fill="none" stroke="#9a32cd" stroke-dasharray="5,2" d="M340.219,-403.99C404.477,-401.598 503.681,-395.228 537,-378.404 566.609,-363.455 589.912,-330.531 600.794,-312.97"/>
<polygon fill="#9a32cd" stroke="#9a32cd" points="340.093,-400.493 330.222,-404.341 340.338,-407.488 340.093,-400.493"/>
<text text-anchor="middle" x="461.5" y="-406.204" font-family="Helvetica,sans-Serif" font-size="14.00"> system_matrix</text>
</g>
<!-- Node7 -->
<g id="node7" class="node"><title>Node7</title>
<g id="a_node7"><a xlink:href="structQ_1_1ParametersMs.html" target="_top" xlink:title="Q::ParametersMs">
<polygon fill="white" stroke="black" points="219,-351.904 219,-374.904 344,-374.904 344,-351.904 219,-351.904"/>
<text text-anchor="middle" x="281.5" y="-359.704" font-family="Helvetica,sans-Serif" font-size="14.00">Q::ParametersMs</text>
</a>
</g>
</g>
<!-- Node7&#45;&gt;Node1 -->
<g id="edge6" class="edge"><title>Node7&#45;&gt;Node1</title>
<path fill="none" stroke="#9a32cd" stroke-dasharray="5,2" d="M354.317,-361.413C405.965,-358.496 476.825,-351.423 537,-334.404 554.685,-329.403 573.477,-320.402 587.208,-313.062"/>
<polygon fill="#9a32cd" stroke="#9a32cd" points="354.054,-357.922 344.252,-361.943 354.422,-364.912 354.054,-357.922"/>
<text text-anchor="middle" x="461.5" y="-363.204" font-family="Helvetica,sans-Serif" font-size="14.00"> parameters</text>
</g>
<!-- Node8 -->
<g id="node8" class="node"><title>Node8</title>
<polygon fill="white" stroke="#bfbfbf" points="9.5,-404.904 9.5,-427.904 40.5,-427.904 40.5,-404.904 9.5,-404.904"/>
<text text-anchor="middle" x="25" y="-412.704" font-family="Helvetica,sans-Serif" font-size="14.00">int</text>
</g>
<!-- Node8&#45;&gt;Node7 -->
<g id="edge7" class="edge"><title>Node8&#45;&gt;Node7</title>
<path fill="none" stroke="#9a32cd" stroke-dasharray="5,2" d="M50.6921,-415.536C81.1269,-413.852 134.083,-408.908 177,-394.404 185.67,-391.475 186.481,-387.748 195,-384.404 204.249,-380.775 214.313,-377.635 224.182,-374.969"/>
<polygon fill="#9a32cd" stroke="#9a32cd" points="50.3799,-412.046 40.5586,-416.02 50.7144,-419.038 50.3799,-412.046"/>
<text text-anchor="middle" x="122.5" y="-433.204" font-family="Helvetica,sans-Serif" font-size="14.00"> n_refine_global</text>
<text text-anchor="middle" x="122.5" y="-418.204" font-family="Helvetica,sans-Serif" font-size="14.00">n_refine_local</text>
</g>
<!-- Node9 -->
<g id="node9" class="node"><title>Node9</title>
<polygon fill="white" stroke="#bfbfbf" points="0,-351.904 0,-374.904 50,-374.904 50,-351.904 0,-351.904"/>
<text text-anchor="middle" x="25" y="-359.704" font-family="Helvetica,sans-Serif" font-size="14.00">string</text>
</g>
<!-- Node9&#45;&gt;Node7 -->
<g id="edge8" class="edge"><title>Node9&#45;&gt;Node7</title>
<path fill="none" stroke="#9a32cd" stroke-dasharray="5,2" d="M60.5857,-363.404C101.144,-363.404 169.134,-363.404 218.799,-363.404"/>
<polygon fill="#9a32cd" stroke="#9a32cd" points="60.4026,-359.905 50.4025,-363.404 60.4025,-366.905 60.4026,-359.905"/>
<text text-anchor="middle" x="122.5" y="-382.204" font-family="Helvetica,sans-Serif" font-size="14.00"> filename_output</text>
<text text-anchor="middle" x="122.5" y="-367.204" font-family="Helvetica,sans-Serif" font-size="14.00">dirname_output</text>
</g>
<!-- Node10 -->
<g id="node10" class="node"><title>Node10</title>
<polygon fill="white" stroke="#bfbfbf" points="4,-178.904 4,-201.904 46,-201.904 46,-178.904 4,-178.904"/>
<text text-anchor="middle" x="25" y="-186.704" font-family="Helvetica,sans-Serif" font-size="14.00">bool</text>
</g>
<!-- Node10&#45;&gt;Node7 -->
<g id="edge9" class="edge"><title>Node10&#45;&gt;Node7</title>
<path fill="none" stroke="#9a32cd" stroke-dasharray="5,2" d="M56.016,-184.531C90.2182,-179.746 145.445,-178.143 177,-209.404 219.376,-251.386 155.122,-298.044 195,-342.404 201.438,-349.566 209.885,-354.474 218.963,-357.805"/>
<polygon fill="#9a32cd" stroke="#9a32cd" points="55.4614,-181.075 46.1261,-186.085 56.5482,-187.99 55.4614,-181.075"/>
<text text-anchor="middle" x="122.5" y="-348.204" font-family="Helvetica,sans-Serif" font-size="14.00"> verbose_basis</text>
<text text-anchor="middle" x="122.5" y="-333.204" font-family="Helvetica,sans-Serif" font-size="14.00">prevent_output</text>
<text text-anchor="middle" x="122.5" y="-318.204" font-family="Helvetica,sans-Serif" font-size="14.00">is_pure_neumann</text>
<text text-anchor="middle" x="122.5" y="-303.204" font-family="Helvetica,sans-Serif" font-size="14.00">renumber_dofs</text>
<text text-anchor="start" x="68" y="-288.204" font-family="Helvetica,sans-Serif" font-size="14.00">use_direct_solver</text>
<text text-anchor="middle" x="122.5" y="-273.204" font-family="Helvetica,sans-Serif" font-size="14.00">_basis</text>
<text text-anchor="middle" x="122.5" y="-258.204" font-family="Helvetica,sans-Serif" font-size="14.00">use_direct_solver</text>
<text text-anchor="middle" x="122.5" y="-243.204" font-family="Helvetica,sans-Serif" font-size="14.00">verbose</text>
<text text-anchor="middle" x="122.5" y="-228.204" font-family="Helvetica,sans-Serif" font-size="14.00">compute_solution</text>
<text text-anchor="middle" x="122.5" y="-213.204" font-family="Helvetica,sans-Serif" font-size="14.00">is_laplace</text>
</g>
<!-- Node11 -->
<g id="node11" class="node"><title>Node11</title>
<polygon fill="white" stroke="#bfbfbf" points="235,-309.904 235,-332.904 328,-332.904 328,-309.904 235,-309.904"/>
<text text-anchor="middle" x="281.5" y="-317.704" font-family="Helvetica,sans-Serif" font-size="14.00">TimerOutput</text>
</g>
<!-- Node11&#45;&gt;Node1 -->
<g id="edge10" class="edge"><title>Node11&#45;&gt;Node1</title>
<path fill="none" stroke="#9a32cd" stroke-dasharray="5,2" d="M338.283,-318.309C389.853,-315.401 468.614,-310.845 537,-306.404 542.755,-306.031 548.773,-305.626 554.764,-305.214"/>
<polygon fill="#9a32cd" stroke="#9a32cd" points="337.811,-314.829 328.024,-318.885 338.205,-321.818 337.811,-314.829"/>
<text text-anchor="middle" x="461.5" y="-319.204" font-family="Helvetica,sans-Serif" font-size="14.00"> computing_timer</text>
</g>
<!-- Node12 -->
<g id="node12" class="node"><title>Node12</title>
<polygon fill="white" stroke="#bfbfbf" points="253.5,-267.904 253.5,-290.904 309.5,-290.904 309.5,-267.904 253.5,-267.904"/>
<text text-anchor="middle" x="281.5" y="-275.704" font-family="Helvetica,sans-Serif" font-size="14.00">Vector</text>
</g>
<!-- Node12&#45;&gt;Node1 -->
<g id="edge11" class="edge"><title>Node12&#45;&gt;Node1</title>
<path fill="none" stroke="#9a32cd" stroke-dasharray="5,2" d="M319.581,-273.303C369.515,-266.237 460.893,-257.363 537,-272.404 554.008,-275.766 572.071,-283.281 585.654,-289.818"/>
<polygon fill="#9a32cd" stroke="#9a32cd" points="318.96,-269.857 309.575,-274.775 319.978,-276.783 318.96,-269.857"/>
<text text-anchor="middle" x="461.5" y="-291.204" font-family="Helvetica,sans-Serif" font-size="14.00"> locally_relevant_solution</text>
<text text-anchor="middle" x="461.5" y="-276.204" font-family="Helvetica,sans-Serif" font-size="14.00">system_rhs</text>
</g>
<!-- Node13 -->
<g id="node13" class="node"><title>Node13</title>
<polygon fill="white" stroke="#bfbfbf" points="256,-225.904 256,-248.904 307,-248.904 307,-225.904 256,-225.904"/>
<text text-anchor="middle" x="281.5" y="-233.704" font-family="Helvetica,sans-Serif" font-size="14.00">CellId</text>
</g>
<!-- Node13&#45;&gt;Node1 -->
<g id="edge12" class="edge"><title>Node13&#45;&gt;Node1</title>
<path fill="none" stroke="#9a32cd" stroke-dasharray="5,2" d="M317.348,-231.777C367.616,-225.13 462.602,-218.133 537,-245.404 561.949,-254.55 584.852,-276.244 597.424,-289.787"/>
<polygon fill="#9a32cd" stroke="#9a32cd" points="316.743,-228.327 307.324,-233.177 317.712,-235.26 316.743,-228.327"/>
<text text-anchor="middle" x="461.5" y="-249.204" font-family="Helvetica,sans-Serif" font-size="14.00"> first_cell</text>
</g>
<!-- Node14 -->
<g id="node14" class="node"><title>Node14</title>
<polygon fill="white" stroke="#bfbfbf" points="195,-183.904 195,-206.904 368,-206.904 368,-183.904 195,-183.904"/>
<text text-anchor="middle" x="281.5" y="-191.704" font-family="Helvetica,sans-Serif" font-size="14.00">map&lt; CellId, Q::QBasis &gt;</text>
</g>
<!-- Node14&#45;&gt;Node1 -->
<g id="edge13" class="edge"><title>Node14&#45;&gt;Node1</title>
<path fill="none" stroke="#9a32cd" stroke-dasharray="5,2" d="M357.16,-182.808C410.364,-177.532 481.92,-178.223 537,-207.404 571.429,-225.645 593.728,-268.993 602.832,-289.83"/>
<polygon fill="#9a32cd" stroke="#9a32cd" points="356.676,-179.34 347.111,-183.896 357.429,-186.299 356.676,-179.34"/>
<text text-anchor="middle" x="461.5" y="-211.204" font-family="Helvetica,sans-Serif" font-size="14.00"> cell_basis_map</text>
</g>
<!-- Node15 -->
<g id="node15" class="node"><title>Node15</title>
<polygon fill="white" stroke="#bfbfbf" points="239.5,-141.904 239.5,-164.904 323.5,-164.904 323.5,-141.904 239.5,-141.904"/>
<text text-anchor="middle" x="281.5" y="-149.704" font-family="Helvetica,sans-Serif" font-size="14.00">FE_Q&lt; 3 &gt;</text>
</g>
<!-- Node15&#45;&gt;Node1 -->
<g id="edge14" class="edge"><title>Node15&#45;&gt;Node1</title>
<path fill="none" stroke="#9a32cd" stroke-dasharray="5,2" d="M334.061,-148.979C398.583,-144.46 504.566,-140.713 537,-161.404 583.573,-191.116 600.614,-261.739 605.675,-289.708"/>
<polygon fill="#9a32cd" stroke="#9a32cd" points="333.408,-145.517 323.69,-149.737 333.919,-152.499 333.408,-145.517"/>
<text text-anchor="middle" x="461.5" y="-165.204" font-family="Helvetica,sans-Serif" font-size="14.00"> fe</text>
</g>
<!-- Node16 -->
<g id="node16" class="node"><title>Node16</title>
<polygon fill="white" stroke="#bfbfbf" points="236.5,-99.9044 236.5,-122.904 326.5,-122.904 326.5,-99.9044 236.5,-99.9044"/>
<text text-anchor="middle" x="281.5" y="-107.704" font-family="Helvetica,sans-Serif" font-size="14.00">MPI_Comm</text>
</g>
<!-- Node16&#45;&gt;Node1 -->
<g id="edge15" class="edge"><title>Node16&#45;&gt;Node1</title>
<path fill="none" stroke="#9a32cd" stroke-dasharray="5,2" d="M336.691,-108.256C401.787,-105.577 506.1,-105.143 537,-127.404 592.006,-167.033 604.168,-257.132 606.795,-289.526"/>
<polygon fill="#9a32cd" stroke="#9a32cd" points="336.433,-104.763 326.598,-108.702 336.743,-111.757 336.433,-104.763"/>
<text text-anchor="middle" x="461.5" y="-131.204" font-family="Helvetica,sans-Serif" font-size="14.00"> mpi_communicator</text>
</g>
<!-- Node17 -->
<g id="node17" class="node"><title>Node17</title>
<polygon fill="white" stroke="#bfbfbf" points="246.5,-52.9044 246.5,-75.9044 316.5,-75.9044 316.5,-52.9044 246.5,-52.9044"/>
<text text-anchor="middle" x="281.5" y="-60.7044" font-family="Helvetica,sans-Serif" font-size="14.00">IndexSet</text>
</g>
<!-- Node17&#45;&gt;Node1 -->
<g id="edge16" class="edge"><title>Node17&#45;&gt;Node1</title>
<path fill="none" stroke="#9a32cd" stroke-dasharray="5,2" d="M327.127,-60.0022C391.249,-54.6545 505.236,-49.1001 537,-73.4044 607.746,-127.536 609.387,-251.56 608.098,-289.898"/>
<polygon fill="#9a32cd" stroke="#9a32cd" points="326.565,-56.5377 316.905,-60.8882 327.169,-63.5115 326.565,-56.5377"/>
<text text-anchor="middle" x="461.5" y="-92.2044" font-family="Helvetica,sans-Serif" font-size="14.00"> locally_owned_dofs</text>
<text text-anchor="middle" x="461.5" y="-77.2044" font-family="Helvetica,sans-Serif" font-size="14.00">locally_relevant_dofs</text>
</g>
<!-- Node18 -->
<g id="node18" class="node"><title>Node18</title>
<polygon fill="white" stroke="#bfbfbf" points="218.5,-10.9044 218.5,-33.9044 344.5,-33.9044 344.5,-10.9044 218.5,-10.9044"/>
<text text-anchor="middle" x="281.5" y="-18.7044" font-family="Helvetica,sans-Serif" font-size="14.00">Triangulation&lt; 3 &gt;</text>
</g>
<!-- Node18&#45;&gt;Node1 -->
<g id="edge17" class="edge"><title>Node18&#45;&gt;Node1</title>
<path fill="none" stroke="#9a32cd" stroke-dasharray="5,2" d="M335.52,-8.81543C391.932,2.243 480.652,9.42994 537,-36.4044 577.81,-69.5999 600.699,-242.974 606.195,-289.76"/>
<polygon fill="#9a32cd" stroke="#9a32cd" points="334.808,-5.38858 325.722,-10.8386 336.223,-12.244 334.808,-5.38858"/>
<text text-anchor="middle" x="461.5" y="-40.2044" font-family="Helvetica,sans-Serif" font-size="14.00"> triangulation</text>
</g>
</g>
</svg>
