<?xml version="1.0" encoding="UTF-8" standalone="no"?>
<!DOCTYPE svg PUBLIC "-//W3C//DTD SVG 1.1//EN"
 "http://www.w3.org/Graphics/SVG/1.1/DTD/svg11.dtd">
<!-- Generated by graphviz version 2.38.0 (20140413.2041)
 -->
<!-- Title: EquationData::DiffusionInverse_A Pages: 1 -->
<svg width="342pt" height="107pt"
 viewBox="0.00 0.00 341.50 107.00" xmlns="http://www.w3.org/2000/svg" xmlns:xlink="http://www.w3.org/1999/xlink">
<g id="graph0" class="graph" transform="scale(1 1) rotate(0) translate(4 103)">
<title>EquationData::DiffusionInverse_A</title>
<polygon fill="white" stroke="none" points="-4,4 -4,-103 337.5,-103 337.5,4 -4,4"/>
<!-- Node1 -->
<g id="node1" class="node"><title>Node1</title>
<polygon fill="#bfbfbf" stroke="black" points="57,-0.5 57,-23.5 276,-23.5 276,-0.5 57,-0.5"/>
<text text-anchor="middle" x="166.5" y="-8.3" font-family="Helvetica,sans-Serif" font-size="14.00">EquationData::DiffusionInverse_A</text>
</g>
<!-- Node2 -->
<g id="node2" class="node"><title>Node2</title>
<g id="a_node2"><a xlink:href="classTensorFunction.html" target="_top" xlink:title="TensorFunction\&lt; 2, 3 \&gt;">
<polygon fill="white" stroke="black" points="0,-68 0,-91 157,-91 157,-68 0,-68"/>
<text text-anchor="middle" x="78.5" y="-75.8" font-family="Helvetica,sans-Serif" font-size="14.00">TensorFunction&lt; 2, 3 &gt;</text>
</a>
</g>
</g>
<!-- Node2&#45;&gt;Node1 -->
<g id="edge1" class="edge"><title>Node2&#45;&gt;Node1</title>
<path fill="none" stroke="midnightblue" d="M100.973,-61.7733C117.059,-49.8001 138.239,-34.0353 152.104,-23.7152"/>
<polygon fill="midnightblue" stroke="midnightblue" points="98.5708,-59.1978 92.6387,-67.9763 102.75,-64.8131 98.5708,-59.1978"/>
</g>
<!-- Node3 -->
<g id="node3" class="node"><title>Node3</title>
<g id="a_node3"><a xlink:href="classEquationData_1_1Diffusion__A__Data.html" target="_top" xlink:title="Class containing data to construct a positive tensor. ">
<polygon fill="white" stroke="black" points="175.5,-60.5 175.5,-98.5 333.5,-98.5 333.5,-60.5 175.5,-60.5"/>
<text text-anchor="start" x="183.5" y="-83.3" font-family="Helvetica,sans-Serif" font-size="14.00">EquationData::Diffusion</text>
<text text-anchor="middle" x="254.5" y="-68.3" font-family="Helvetica,sans-Serif" font-size="14.00">_A_Data</text>
</a>
</g>
</g>
<!-- Node3&#45;&gt;Node1 -->
<g id="edge2" class="edge"><title>Node3&#45;&gt;Node1</title>
<path fill="none" stroke="midnightblue" d="M221.884,-54.2234C207.707,-43.6709 191.836,-31.8581 180.73,-23.5919"/>
<polygon fill="midnightblue" stroke="midnightblue" points="219.875,-57.0914 229.987,-60.2546 224.055,-51.4761 219.875,-57.0914"/>
</g>
</g>
</svg>
