<?xml version="1.0" encoding="UTF-8" standalone="no"?>
<!DOCTYPE svg PUBLIC "-//W3C//DTD SVG 1.1//EN"
 "http://www.w3.org/Graphics/SVG/1.1/DTD/svg11.dtd">
<!-- Generated by graphviz version 2.38.0 (20140413.2041)
 -->
<!-- Title: EquationData::ExactSolutionLin_B_div Pages: 1 -->
<svg width="314pt" height="122pt"
 viewBox="0.00 0.00 314.00 122.00" xmlns="http://www.w3.org/2000/svg" xmlns:xlink="http://www.w3.org/1999/xlink">
<g id="graph0" class="graph" transform="scale(1 1) rotate(0) translate(4 118)">
<title>EquationData::ExactSolutionLin_B_div</title>
<polygon fill="white" stroke="none" points="-4,4 -4,-118 310,-118 310,4 -4,4"/>
<!-- Node1 -->
<g id="node1" class="node"><title>Node1</title>
<polygon fill="#bfbfbf" stroke="black" points="37,-0.5 37,-38.5 225,-38.5 225,-0.5 37,-0.5"/>
<text text-anchor="start" x="45" y="-23.3" font-family="Helvetica,sans-Serif" font-size="14.00">EquationData::ExactSolution</text>
<text text-anchor="middle" x="131" y="-8.3" font-family="Helvetica,sans-Serif" font-size="14.00">Lin_B_div</text>
</g>
<!-- Node2 -->
<g id="node2" class="node"><title>Node2</title>
<polygon fill="white" stroke="#bfbfbf" points="0,-83 0,-106 100,-106 100,-83 0,-83"/>
<text text-anchor="middle" x="50" y="-90.8" font-family="Helvetica,sans-Serif" font-size="14.00">Function&lt; 3 &gt;</text>
</g>
<!-- Node2&#45;&gt;Node1 -->
<g id="edge1" class="edge"><title>Node2&#45;&gt;Node1</title>
<path fill="none" stroke="midnightblue" d="M69.5586,-75.8731C82.053,-64.6127 98.2158,-50.0463 110.828,-38.6798"/>
<polygon fill="midnightblue" stroke="midnightblue" points="67.0371,-73.4339 61.9518,-82.7286 71.7234,-78.6338 67.0371,-73.4339"/>
</g>
<!-- Node3 -->
<g id="node3" class="node"><title>Node3</title>
<g id="a_node3"><a xlink:href="classEquationData_1_1ExactSolutionLin__Data.html" target="_top" xlink:title="Data class to construct an analytic solution. ">
<polygon fill="white" stroke="black" points="118,-75.5 118,-113.5 306,-113.5 306,-75.5 118,-75.5"/>
<text text-anchor="start" x="126" y="-98.3" font-family="Helvetica,sans-Serif" font-size="14.00">EquationData::ExactSolution</text>
<text text-anchor="middle" x="212" y="-83.3" font-family="Helvetica,sans-Serif" font-size="14.00">Lin_Data</text>
</a>
</g>
</g>
<!-- Node3&#45;&gt;Node1 -->
<g id="edge2" class="edge"><title>Node3&#45;&gt;Node1</title>
<path fill="none" stroke="midnightblue" d="M184.326,-68.5595C173.41,-58.7217 161.108,-47.6346 151.073,-38.5904"/>
<polygon fill="midnightblue" stroke="midnightblue" points="182.206,-71.3602 191.978,-75.4551 186.892,-66.1604 182.206,-71.3602"/>
</g>
</g>
</svg>
