<?xml version="1.0" encoding="UTF-8" standalone="no"?>
<!DOCTYPE svg PUBLIC "-//W3C//DTD SVG 1.1//EN"
 "http://www.w3.org/Graphics/SVG/1.1/DTD/svg11.dtd">
<!-- Generated by graphviz version 2.38.0 (20140413.2041)
 -->
<!-- Title: ShapeFun::BasisRaviartThomas&lt; dim &gt; Pages: 1 -->
<svg width="542pt" height="122pt"
 viewBox="0.00 0.00 541.50 122.00" xmlns="http://www.w3.org/2000/svg" xmlns:xlink="http://www.w3.org/1999/xlink">
<g id="graph0" class="graph" transform="scale(1 1) rotate(0) translate(4 118)">
<title>ShapeFun::BasisRaviartThomas&lt; dim &gt;</title>
<polygon fill="white" stroke="none" points="-4,4 -4,-118 537.5,-118 537.5,4 -4,4"/>
<!-- Node1 -->
<g id="node1" class="node"><title>Node1</title>
<polygon fill="#bfbfbf" stroke="black" points="158.5,-0.5 158.5,-38.5 370.5,-38.5 370.5,-0.5 158.5,-0.5"/>
<text text-anchor="start" x="166.5" y="-23.3" font-family="Helvetica,sans-Serif" font-size="14.00">ShapeFun::BasisRaviartThomas</text>
<text text-anchor="middle" x="264.5" y="-8.3" font-family="Helvetica,sans-Serif" font-size="14.00">&lt; dim &gt;</text>
</g>
<!-- Node2 -->
<g id="node2" class="node"><title>Node2</title>
<polygon fill="white" stroke="#bfbfbf" points="0,-90.5 0,-113.5 115,-113.5 115,-90.5 0,-90.5"/>
<text text-anchor="middle" x="57.5" y="-98.3" font-family="Helvetica,sans-Serif" font-size="14.00">Function&lt; dim &gt;</text>
</g>
<!-- Node2&#45;&gt;Node1 -->
<g id="edge1" class="edge"><title>Node2&#45;&gt;Node1</title>
<path fill="none" stroke="midnightblue" d="M94.2556,-86.7062C128.801,-73.2719 180.645,-53.1104 218.041,-38.5673"/>
<polygon fill="midnightblue" stroke="midnightblue" points="92.6131,-83.5895 84.5616,-90.476 95.1503,-90.1135 92.6131,-83.5895"/>
</g>
<!-- Node3 -->
<g id="node3" class="node"><title>Node3</title>
<polygon fill="white" stroke="#bfbfbf" points="133,-90.5 133,-113.5 286,-113.5 286,-90.5 133,-90.5"/>
<text text-anchor="middle" x="209.5" y="-98.3" font-family="Helvetica,sans-Serif" font-size="14.00">MyMappingQ1&lt; dim &gt;</text>
</g>
<!-- Node3&#45;&gt;Node1 -->
<g id="edge2" class="edge"><title>Node3&#45;&gt;Node1</title>
<path fill="none" stroke="#9a32cd" stroke-dasharray="5,2" d="M222.349,-82.1942C231.303,-69.0885 243.184,-51.6987 252.05,-38.7227"/>
<polygon fill="#9a32cd" stroke="#9a32cd" points="219.442,-80.2447 216.69,-90.476 225.222,-84.1936 219.442,-80.2447"/>
<text text-anchor="middle" x="268" y="-60.8" font-family="Helvetica,sans-Serif" font-size="14.00"> mapping</text>
</g>
<!-- Node4 -->
<g id="node4" class="node"><title>Node4</title>
<polygon fill="white" stroke="#bfbfbf" points="304,-90.5 304,-113.5 335,-113.5 335,-90.5 304,-90.5"/>
<text text-anchor="middle" x="319.5" y="-98.3" font-family="Helvetica,sans-Serif" font-size="14.00">int</text>
</g>
<!-- Node4&#45;&gt;Node1 -->
<g id="edge3" class="edge"><title>Node4&#45;&gt;Node1</title>
<path fill="none" stroke="#9a32cd" stroke-dasharray="5,2" d="M311.043,-81.2754C307.333,-73.4493 302.649,-64.5367 297.5,-57 293.163,-50.6517 287.797,-44.2558 282.661,-38.6303"/>
<polygon fill="#9a32cd" stroke="#9a32cd" points="307.871,-82.7551 315.183,-90.4221 314.248,-79.8686 307.871,-82.7551"/>
<text text-anchor="middle" x="344.5" y="-60.8" font-family="Helvetica,sans-Serif" font-size="14.00"> index_basis</text>
</g>
<!-- Node5 -->
<g id="node5" class="node"><title>Node5</title>
<polygon fill="white" stroke="#bfbfbf" points="353.5,-90.5 353.5,-113.5 533.5,-113.5 533.5,-90.5 353.5,-90.5"/>
<text text-anchor="middle" x="443.5" y="-98.3" font-family="Helvetica,sans-Serif" font-size="14.00">FE_RaviartThomas&lt; dim &gt;</text>
</g>
<!-- Node5&#45;&gt;Node1 -->
<g id="edge4" class="edge"><title>Node5&#45;&gt;Node1</title>
<path fill="none" stroke="#9a32cd" stroke-dasharray="5,2" d="M424.433,-83.4158C413.895,-74.4667 400.191,-64.0246 386.5,-57 372.239,-49.6832 356.271,-43.5832 340.706,-38.5977"/>
<polygon fill="#9a32cd" stroke="#9a32cd" points="422.319,-86.2171 432.145,-90.1788 426.934,-80.954 422.319,-86.2171"/>
<text text-anchor="middle" x="418.5" y="-60.8" font-family="Helvetica,sans-Serif" font-size="14.00"> fe</text>
</g>
</g>
</svg>
