<?xml version="1.0" encoding="UTF-8" standalone="no"?>
<!DOCTYPE svg PUBLIC "-//W3C//DTD SVG 1.1//EN"
 "http://www.w3.org/Graphics/SVG/1.1/DTD/svg11.dtd">
<!-- Generated by graphviz version 2.38.0 (20140413.2041)
 -->
<!-- Title: Subscriptor Pages: 1 -->
<svg width="389pt" height="408pt"
 viewBox="0.00 0.00 389.00 408.00" xmlns="http://www.w3.org/2000/svg" xmlns:xlink="http://www.w3.org/1999/xlink">
<g id="graph0" class="graph" transform="scale(1 1) rotate(0) translate(4 404)">
<title>Subscriptor</title>
<polygon fill="white" stroke="none" points="-4,4 -4,-404 385,-404 385,4 -4,4"/>
<!-- Node1 -->
<g id="node1" class="node"><title>Node1</title>
<polygon fill="#bfbfbf" stroke="black" points="0,-184.5 0,-207.5 85,-207.5 85,-184.5 0,-184.5"/>
<text text-anchor="middle" x="42.5" y="-192.3" font-family="Helvetica,sans-Serif" font-size="14.00">Subscriptor</text>
</g>
<!-- Node2 -->
<g id="node2" class="node"><title>Node2</title>
<g id="a_node2"><a xlink:href="classLinearSolvers_1_1ApproximateInverseMatrix.html" target="_top" xlink:title="Approximate inverse matrix. ">
<polygon fill="white" stroke="black" points="159.5,-346.5 159.5,-399.5 342.5,-399.5 342.5,-346.5 159.5,-346.5"/>
<text text-anchor="start" x="167.5" y="-384.3" font-family="Helvetica,sans-Serif" font-size="14.00">LinearSolvers::Approximate</text>
<text text-anchor="start" x="167.5" y="-369.3" font-family="Helvetica,sans-Serif" font-size="14.00">InverseMatrix&lt; MatrixType,</text>
<text text-anchor="middle" x="251" y="-354.3" font-family="Helvetica,sans-Serif" font-size="14.00"> PreconditionerType &gt;</text>
</a>
</g>
</g>
<!-- Node1&#45;&gt;Node2 -->
<g id="edge1" class="edge"><title>Node1&#45;&gt;Node2</title>
<path fill="none" stroke="midnightblue" d="M49.5495,-217.748C59.3381,-248.875 81.6391,-305.804 121,-337 132.298,-345.954 145.69,-352.683 159.499,-357.739"/>
<polygon fill="midnightblue" stroke="midnightblue" points="52.822,-216.476 46.6015,-207.899 46.116,-218.483 52.822,-216.476"/>
</g>
<!-- Node3 -->
<g id="node3" class="node"><title>Node3</title>
<g id="a_node3"><a xlink:href="classLinearSolvers_1_1ApproximateSchurComplement.html" target="_top" xlink:title="Implements a serial approximate Schur complement. ">
<polygon fill="white" stroke="black" points="128,-274.5 128,-327.5 374,-327.5 374,-274.5 128,-274.5"/>
<text text-anchor="start" x="136" y="-312.3" font-family="Helvetica,sans-Serif" font-size="14.00">LinearSolvers::Approximate</text>
<text text-anchor="start" x="136" y="-297.3" font-family="Helvetica,sans-Serif" font-size="14.00">SchurComplement&lt; BlockMatrixType,</text>
<text text-anchor="middle" x="251" y="-282.3" font-family="Helvetica,sans-Serif" font-size="14.00"> VectorType, PreconditionerType &gt;</text>
</a>
</g>
</g>
<!-- Node1&#45;&gt;Node3 -->
<g id="edge2" class="edge"><title>Node1&#45;&gt;Node3</title>
<path fill="none" stroke="midnightblue" d="M60.196,-215.071C74.7895,-230.622 97.3029,-252.061 121,-265 127.326,-268.454 134.012,-271.6 140.878,-274.461"/>
<polygon fill="midnightblue" stroke="midnightblue" points="62.6527,-212.571 53.3222,-207.552 57.4861,-217.294 62.6527,-212.571"/>
</g>
<!-- Node4 -->
<g id="node4" class="node"><title>Node4</title>
<g id="a_node4"><a xlink:href="classLinearSolvers_1_1ApproximateSchurComplementMPI.html" target="_top" xlink:title="Implements a MPI parallel approximate Schur complement. ">
<polygon fill="white" stroke="black" points="121,-202.5 121,-255.5 381,-255.5 381,-202.5 121,-202.5"/>
<text text-anchor="start" x="129" y="-240.3" font-family="Helvetica,sans-Serif" font-size="14.00">LinearSolvers::Approximate</text>
<text text-anchor="start" x="129" y="-225.3" font-family="Helvetica,sans-Serif" font-size="14.00">SchurComplementMPI&lt; BlockMatrix</text>
<text text-anchor="middle" x="251" y="-210.3" font-family="Helvetica,sans-Serif" font-size="14.00">Type, VectorType, PreconditionerType &gt;</text>
</a>
</g>
</g>
<!-- Node1&#45;&gt;Node4 -->
<g id="edge3" class="edge"><title>Node1&#45;&gt;Node4</title>
<path fill="none" stroke="midnightblue" d="M95.1858,-204.26C103.256,-205.549 111.891,-206.929 120.801,-208.353"/>
<polygon fill="midnightblue" stroke="midnightblue" points="95.7154,-200.8 85.2884,-202.678 94.6107,-207.712 95.7154,-200.8"/>
</g>
<!-- Node5 -->
<g id="node5" class="node"><title>Node5</title>
<g id="a_node5"><a xlink:href="classLinearSolvers_1_1InverseMatrix.html" target="_top" xlink:title="Implements an iterative inverse. ">
<polygon fill="white" stroke="black" points="134.5,-145 134.5,-183 367.5,-183 367.5,-145 134.5,-145"/>
<text text-anchor="start" x="142.5" y="-167.8" font-family="Helvetica,sans-Serif" font-size="14.00">LinearSolvers::InverseMatrix</text>
<text text-anchor="middle" x="251" y="-152.8" font-family="Helvetica,sans-Serif" font-size="14.00">&lt; MatrixType, PreconditionerType &gt;</text>
</a>
</g>
</g>
<!-- Node1&#45;&gt;Node5 -->
<g id="edge4" class="edge"><title>Node1&#45;&gt;Node5</title>
<path fill="none" stroke="midnightblue" d="M95.5083,-187.941C107.529,-186.078 120.79,-184.023 134.342,-181.923"/>
<polygon fill="midnightblue" stroke="midnightblue" points="94.6344,-184.534 85.2884,-189.524 95.7064,-191.452 94.6344,-184.534"/>
</g>
<!-- Node6 -->
<g id="node6" class="node"><title>Node6</title>
<g id="a_node6"><a xlink:href="classLinearSolvers_1_1SchurComplement.html" target="_top" xlink:title="Implements a serial Schur complement. ">
<polygon fill="white" stroke="black" points="121,-72.5 121,-125.5 381,-125.5 381,-72.5 121,-72.5"/>
<text text-anchor="start" x="129" y="-110.3" font-family="Helvetica,sans-Serif" font-size="14.00">LinearSolvers::SchurComplement</text>
<text text-anchor="start" x="129" y="-95.3" font-family="Helvetica,sans-Serif" font-size="14.00">&lt; BlockMatrixType, VectorType,</text>
<text text-anchor="middle" x="251" y="-80.3" font-family="Helvetica,sans-Serif" font-size="14.00"> PreconditionerType, DoFHandlerType &gt;</text>
</a>
</g>
</g>
<!-- Node1&#45;&gt;Node6 -->
<g id="edge5" class="edge"><title>Node1&#45;&gt;Node6</title>
<path fill="none" stroke="midnightblue" d="M62.9099,-177.566C77.7798,-164.333 99.3571,-146.968 121,-136 128.482,-132.208 136.41,-128.751 144.512,-125.61"/>
<polygon fill="midnightblue" stroke="midnightblue" points="60.4159,-175.103 55.381,-184.425 65.1303,-180.278 60.4159,-175.103"/>
</g>
<!-- Node7 -->
<g id="node7" class="node"><title>Node7</title>
<g id="a_node7"><a xlink:href="classLinearSolvers_1_1SchurComplementMPI.html" target="_top" xlink:title="Implements a MPI parallel Schur complement. ">
<polygon fill="white" stroke="black" points="134,-0.5 134,-53.5 368,-53.5 368,-0.5 134,-0.5"/>
<text text-anchor="start" x="142" y="-38.3" font-family="Helvetica,sans-Serif" font-size="14.00">LinearSolvers::SchurComplement</text>
<text text-anchor="start" x="142" y="-23.3" font-family="Helvetica,sans-Serif" font-size="14.00">MPI&lt; BlockMatrixType, VectorType,</text>
<text text-anchor="middle" x="251" y="-8.3" font-family="Helvetica,sans-Serif" font-size="14.00"> PreconditionerType &gt;</text>
</a>
</g>
</g>
<!-- Node1&#45;&gt;Node7 -->
<g id="edge6" class="edge"><title>Node1&#45;&gt;Node7</title>
<path fill="none" stroke="midnightblue" d="M50.193,-174.644C60.5585,-145.094 83.3261,-92.0983 121,-63 125.508,-59.5178 130.335,-56.3724 135.379,-53.5312"/>
<polygon fill="midnightblue" stroke="midnightblue" points="46.7885,-173.788 46.9306,-184.382 53.4259,-176.012 46.7885,-173.788"/>
</g>
</g>
</svg>
