<?xml version="1.0" encoding="UTF-8" standalone="no"?>
<!DOCTYPE svg PUBLIC "-//W3C//DTD SVG 1.1//EN"
 "http://www.w3.org/Graphics/SVG/1.1/DTD/svg11.dtd">
<!-- Generated by graphviz version 2.38.0 (20140413.2041)
 -->
<!-- Title: EquationData::ExactSolutionLin_A_curl Pages: 1 -->
<svg width="840pt" height="420pt"
 viewBox="0.00 0.00 840.00 420.00" xmlns="http://www.w3.org/2000/svg" xmlns:xlink="http://www.w3.org/1999/xlink">
<g id="graph0" class="graph" transform="scale(1 1) rotate(0) translate(4 416)">
<title>EquationData::ExactSolutionLin_A_curl</title>
<polygon fill="white" stroke="none" points="-4,4 -4,-416 836,-416 836,4 -4,4"/>
<!-- Node1 -->
<g id="node1" class="node"><title>Node1</title>
<polygon fill="#bfbfbf" stroke="black" points="644,-221 644,-259 832,-259 832,-221 644,-221"/>
<text text-anchor="start" x="652" y="-243.8" font-family="Helvetica,sans-Serif" font-size="14.00">EquationData::ExactSolution</text>
<text text-anchor="middle" x="738" y="-228.8" font-family="Helvetica,sans-Serif" font-size="14.00">Lin_A_curl</text>
</g>
<!-- Node2 -->
<g id="node2" class="node"><title>Node2</title>
<g id="a_node2"><a xlink:href="classTensorFunction.html" target="_top" xlink:title="TensorFunction\&lt; 1, 3 \&gt;">
<polygon fill="white" stroke="black" points="430,-268.5 430,-291.5 587,-291.5 587,-268.5 430,-268.5"/>
<text text-anchor="middle" x="508.5" y="-276.3" font-family="Helvetica,sans-Serif" font-size="14.00">TensorFunction&lt; 1, 3 &gt;</text>
</a>
</g>
</g>
<!-- Node2&#45;&gt;Node1 -->
<g id="edge1" class="edge"><title>Node2&#45;&gt;Node1</title>
<path fill="none" stroke="midnightblue" d="M584.957,-266.733C603.738,-263.431 624.096,-259.851 643.625,-256.418"/>
<polygon fill="midnightblue" stroke="midnightblue" points="584.24,-263.305 574.997,-268.484 585.452,-270.199 584.24,-263.305"/>
</g>
<!-- Node3 -->
<g id="node3" class="node"><title>Node3</title>
<g id="a_node3"><a xlink:href="classEquationData_1_1ExactSolutionLin__Data.html" target="_top" xlink:title="Data class to construct an analytic solution. ">
<polygon fill="white" stroke="black" points="196,-280 196,-318 384,-318 384,-280 196,-280"/>
<text text-anchor="start" x="204" y="-302.8" font-family="Helvetica,sans-Serif" font-size="14.00">EquationData::ExactSolution</text>
<text text-anchor="middle" x="290" y="-287.8" font-family="Helvetica,sans-Serif" font-size="14.00">Lin_Data</text>
</a>
</g>
</g>
<!-- Node3&#45;&gt;Node1 -->
<g id="edge2" class="edge"><title>Node3&#45;&gt;Node1</title>
<path fill="none" stroke="midnightblue" d="M352.417,-276.811C373.846,-269.954 398.231,-263.126 421,-259 495.089,-245.573 580.379,-241.076 643.664,-239.796"/>
<polygon fill="midnightblue" stroke="midnightblue" points="351.215,-273.522 342.796,-279.954 353.388,-280.176 351.215,-273.522"/>
</g>
<!-- Node4 -->
<g id="node4" class="node"><title>Node4</title>
<polygon fill="white" stroke="#bfbfbf" points="24,-187.5 24,-210.5 81,-210.5 81,-187.5 24,-187.5"/>
<text text-anchor="middle" x="52.5" y="-195.3" font-family="Helvetica,sans-Serif" font-size="14.00">double</text>
</g>
<!-- Node4&#45;&gt;Node3 -->
<g id="edge3" class="edge"><title>Node4&#45;&gt;Node3</title>
<path fill="none" stroke="#9a32cd" stroke-dasharray="5,2" d="M71.1046,-218.023C84.2199,-231.102 103.213,-247.874 123,-258 145.462,-269.495 171.309,-277.877 195.816,-283.945"/>
<polygon fill="#9a32cd" stroke="#9a32cd" points="73.5834,-215.552 64.1001,-210.828 68.5675,-220.435 73.5834,-215.552"/>
<text text-anchor="middle" x="150.5" y="-282.8" font-family="Helvetica,sans-Serif" font-size="14.00"> div_u</text>
</g>
<!-- Node9 -->
<g id="node9" class="node"><title>Node9</title>
<g id="a_node9"><a xlink:href="classEquationData_1_1Diffusion__A__Data.html" target="_top" xlink:title="Class containing data to construct a positive tensor. ">
<polygon fill="white" stroke="black" points="211,-103 211,-141 369,-141 369,-103 211,-103"/>
<text text-anchor="start" x="219" y="-125.8" font-family="Helvetica,sans-Serif" font-size="14.00">EquationData::Diffusion</text>
<text text-anchor="middle" x="290" y="-110.8" font-family="Helvetica,sans-Serif" font-size="14.00">_A_Data</text>
</a>
</g>
</g>
<!-- Node4&#45;&gt;Node9 -->
<g id="edge9" class="edge"><title>Node4&#45;&gt;Node9</title>
<path fill="none" stroke="#9a32cd" stroke-dasharray="5,2" d="M65.235,-178.648C77.1348,-160.25 97.4196,-134.363 123,-123 149.997,-111.008 181.987,-108.458 210.644,-109.713"/>
<polygon fill="#9a32cd" stroke="#9a32cd" points="62.2143,-176.878 59.9366,-187.225 68.1697,-180.557 62.2143,-176.878"/>
<text text-anchor="middle" x="150.5" y="-246.8" font-family="Helvetica,sans-Serif" font-size="14.00"> alpha_</text>
<text text-anchor="middle" x="150.5" y="-231.8" font-family="Helvetica,sans-Serif" font-size="14.00">scale_x</text>
<text text-anchor="middle" x="150.5" y="-216.8" font-family="Helvetica,sans-Serif" font-size="14.00">scale_y</text>
<text text-anchor="middle" x="150.5" y="-201.8" font-family="Helvetica,sans-Serif" font-size="14.00">gamma_</text>
<text text-anchor="middle" x="150.5" y="-186.8" font-family="Helvetica,sans-Serif" font-size="14.00">beta_</text>
<text text-anchor="middle" x="150.5" y="-171.8" font-family="Helvetica,sans-Serif" font-size="14.00">scale_z</text>
<text text-anchor="middle" x="150.5" y="-156.8" font-family="Helvetica,sans-Serif" font-size="14.00">alpha_x</text>
<text text-anchor="middle" x="150.5" y="-141.8" font-family="Helvetica,sans-Serif" font-size="14.00">alpha_y</text>
<text text-anchor="middle" x="150.5" y="-126.8" font-family="Helvetica,sans-Serif" font-size="14.00">alpha_z</text>
</g>
<!-- Node5 -->
<g id="node5" class="node"><title>Node5</title>
<polygon fill="white" stroke="#bfbfbf" points="0,-306.5 0,-329.5 105,-329.5 105,-306.5 0,-306.5"/>
<text text-anchor="middle" x="52.5" y="-314.3" font-family="Helvetica,sans-Serif" font-size="14.00">Tensor&lt; 1, 3 &gt;</text>
</g>
<!-- Node5&#45;&gt;Node3 -->
<g id="edge4" class="edge"><title>Node5&#45;&gt;Node3</title>
<path fill="none" stroke="#9a32cd" stroke-dasharray="5,2" d="M115.426,-313.004C139.972,-311.023 168.729,-308.703 195.697,-306.528"/>
<polygon fill="#9a32cd" stroke="#9a32cd" points="114.868,-309.537 105.181,-313.83 115.431,-316.515 114.868,-309.537"/>
<text text-anchor="middle" x="150.5" y="-331.8" font-family="Helvetica,sans-Serif" font-size="14.00"> curl_u</text>
<text text-anchor="middle" x="150.5" y="-316.8" font-family="Helvetica,sans-Serif" font-size="14.00">b</text>
</g>
<!-- Node6 -->
<g id="node6" class="node"><title>Node6</title>
<polygon fill="white" stroke="#bfbfbf" points="0,-378.5 0,-401.5 105,-401.5 105,-378.5 0,-378.5"/>
<text text-anchor="middle" x="52.5" y="-386.3" font-family="Helvetica,sans-Serif" font-size="14.00">Tensor&lt; 2, 3 &gt;</text>
</g>
<!-- Node6&#45;&gt;Node3 -->
<g id="edge5" class="edge"><title>Node6&#45;&gt;Node3</title>
<path fill="none" stroke="#9a32cd" stroke-dasharray="5,2" d="M115.311,-396.225C135.784,-396.281 158.347,-394.112 178,-387 216.849,-372.942 252.513,-339.436 272.441,-318.063"/>
<polygon fill="#9a32cd" stroke="#9a32cd" points="115.206,-392.722 105.137,-396.02 115.064,-399.721 115.206,-392.722"/>
<text text-anchor="middle" x="150.5" y="-400.8" font-family="Helvetica,sans-Serif" font-size="14.00"> A</text>
</g>
<!-- Node6&#45;&gt;Node9 -->
<g id="edge10" class="edge"><title>Node6&#45;&gt;Node9</title>
<path fill="none" stroke="#9a32cd" stroke-dasharray="5,2" d="M99.5194,-375.256C133.8,-364.089 175.16,-350.149 178,-347 201.54,-320.904 182.465,-302.434 196,-270 216.686,-220.43 253.225,-168.656 273.807,-141.422"/>
<polygon fill="#9a32cd" stroke="#9a32cd" points="98.05,-372.053 89.6185,-378.468 100.211,-378.711 98.05,-372.053"/>
<text text-anchor="middle" x="150.5" y="-370.8" font-family="Helvetica,sans-Serif" font-size="14.00"> rot</text>
</g>
<!-- Node7 -->
<g id="node7" class="node"><title>Node7</title>
<g id="a_node7"><a xlink:href="classEquationData_1_1Diffusion__A.html" target="_top" xlink:title="Class containing a positive tensor. ">
<polygon fill="white" stroke="black" points="421,-110.5 421,-133.5 596,-133.5 596,-110.5 421,-110.5"/>
<text text-anchor="middle" x="508.5" y="-118.3" font-family="Helvetica,sans-Serif" font-size="14.00">EquationData::Diffusion_A</text>
</a>
</g>
</g>
<!-- Node7&#45;&gt;Node1 -->
<g id="edge6" class="edge"><title>Node7&#45;&gt;Node1</title>
<path fill="none" stroke="#9a32cd" stroke-dasharray="5,2" d="M540.847,-138.259C582.471,-159.848 655.861,-197.915 700.106,-220.864"/>
<polygon fill="#9a32cd" stroke="#9a32cd" points="542.216,-135.027 531.728,-133.529 538.993,-141.24 542.216,-135.027"/>
<text text-anchor="middle" x="620" y="-184.8" font-family="Helvetica,sans-Serif" font-size="14.00"> a</text>
</g>
<!-- Node8 -->
<g id="node8" class="node"><title>Node8</title>
<g id="a_node8"><a xlink:href="classTensorFunction.html" target="_top" xlink:title="TensorFunction\&lt; 2, 3 \&gt;">
<polygon fill="white" stroke="black" points="211.5,-60.5 211.5,-83.5 368.5,-83.5 368.5,-60.5 211.5,-60.5"/>
<text text-anchor="middle" x="290" y="-68.3" font-family="Helvetica,sans-Serif" font-size="14.00">TensorFunction&lt; 2, 3 &gt;</text>
</a>
</g>
</g>
<!-- Node8&#45;&gt;Node7 -->
<g id="edge7" class="edge"><title>Node8&#45;&gt;Node7</title>
<path fill="none" stroke="midnightblue" d="M352.599,-85.8314C363.08,-88.2073 373.854,-90.6634 384,-93 408.682,-98.6844 436.11,-105.114 458.837,-110.472"/>
<polygon fill="midnightblue" stroke="midnightblue" points="353.195,-82.378 342.669,-83.5847 351.65,-89.2054 353.195,-82.378"/>
</g>
<!-- Node9&#45;&gt;Node7 -->
<g id="edge8" class="edge"><title>Node9&#45;&gt;Node7</title>
<path fill="none" stroke="midnightblue" d="M379.461,-122C393.058,-122 407.087,-122 420.65,-122"/>
<polygon fill="midnightblue" stroke="midnightblue" points="379.162,-118.5 369.161,-122 379.161,-125.5 379.162,-118.5"/>
</g>
<!-- Node10 -->
<g id="node10" class="node"><title>Node10</title>
<polygon fill="white" stroke="#bfbfbf" points="37,-42.5 37,-65.5 68,-65.5 68,-42.5 37,-42.5"/>
<text text-anchor="middle" x="52.5" y="-50.3" font-family="Helvetica,sans-Serif" font-size="14.00">int</text>
</g>
<!-- Node10&#45;&gt;Node9 -->
<g id="edge11" class="edge"><title>Node10&#45;&gt;Node9</title>
<path fill="none" stroke="#9a32cd" stroke-dasharray="5,2" d="M78.0735,-47.0232C104.864,-40.945 147.924,-35.7972 178,-55 193.751,-65.0566 181.893,-80.743 196,-93 200.468,-96.8824 205.453,-100.245 210.73,-103.158"/>
<polygon fill="#9a32cd" stroke="#9a32cd" points="77.197,-43.6345 68.3331,-49.4381 78.8815,-50.4288 77.197,-43.6345"/>
<text text-anchor="middle" x="150.5" y="-88.8" font-family="Helvetica,sans-Serif" font-size="14.00"> k_x</text>
<text text-anchor="middle" x="150.5" y="-73.8" font-family="Helvetica,sans-Serif" font-size="14.00">k_y</text>
<text text-anchor="middle" x="150.5" y="-58.8" font-family="Helvetica,sans-Serif" font-size="14.00">k_z</text>
</g>
<!-- Node11 -->
<g id="node11" class="node"><title>Node11</title>
<polygon fill="white" stroke="#bfbfbf" points="31.5,-0.5 31.5,-23.5 73.5,-23.5 73.5,-0.5 31.5,-0.5"/>
<text text-anchor="middle" x="52.5" y="-8.3" font-family="Helvetica,sans-Serif" font-size="14.00">bool</text>
</g>
<!-- Node11&#45;&gt;Node9 -->
<g id="edge12" class="edge"><title>Node11&#45;&gt;Node9</title>
<path fill="none" stroke="#9a32cd" stroke-dasharray="5,2" d="M83.8013,-5.70362C111.571,-1.80625 152.179,-1.09093 178,-23 202.494,-43.783 173.867,-69.7183 196,-93 200.312,-97.5353 205.319,-101.365 210.732,-104.599"/>
<polygon fill="#9a32cd" stroke="#9a32cd" points="83.158,-2.26208 73.8445,-7.31259 84.2748,-9.17244 83.158,-2.26208"/>
<text text-anchor="middle" x="150.5" y="-26.8" font-family="Helvetica,sans-Serif" font-size="14.00"> rotate</text>
</g>
</g>
</svg>
