<?xml version="1.0" encoding="UTF-8" standalone="no"?>
<!DOCTYPE svg PUBLIC "-//W3C//DTD SVG 1.1//EN"
 "http://www.w3.org/Graphics/SVG/1.1/DTD/svg11.dtd">
<!-- Generated by graphviz version 2.38.0 (20140413.2041)
 -->
<!-- Title: ShapeFun::BasisQ1Grad&lt; dim &gt; Pages: 1 -->
<svg width="331pt" height="122pt"
 viewBox="0.00 0.00 330.50 122.00" xmlns="http://www.w3.org/2000/svg" xmlns:xlink="http://www.w3.org/1999/xlink">
<g id="graph0" class="graph" transform="scale(1 1) rotate(0) translate(4 118)">
<title>ShapeFun::BasisQ1Grad&lt; dim &gt;</title>
<polygon fill="white" stroke="none" points="-4,4 -4,-118 326.5,-118 326.5,4 -4,4"/>
<!-- Node1 -->
<g id="node1" class="node"><title>Node1</title>
<polygon fill="#bfbfbf" stroke="black" points="64,-0.5 64,-38.5 233,-38.5 233,-0.5 64,-0.5"/>
<text text-anchor="start" x="72" y="-23.3" font-family="Helvetica,sans-Serif" font-size="14.00">ShapeFun::BasisQ1Grad</text>
<text text-anchor="middle" x="148.5" y="-8.3" font-family="Helvetica,sans-Serif" font-size="14.00">&lt; dim &gt;</text>
</g>
<!-- Node2 -->
<g id="node2" class="node"><title>Node2</title>
<polygon fill="white" stroke="#bfbfbf" points="0,-90.5 0,-113.5 115,-113.5 115,-90.5 0,-90.5"/>
<text text-anchor="middle" x="57.5" y="-98.3" font-family="Helvetica,sans-Serif" font-size="14.00">Function&lt; dim &gt;</text>
</g>
<!-- Node2&#45;&gt;Node1 -->
<g id="edge1" class="edge"><title>Node2&#45;&gt;Node1</title>
<path fill="none" stroke="midnightblue" d="M77.0713,-83.6869C92.0543,-70.4327 112.668,-52.1978 127.9,-38.7227"/>
<polygon fill="midnightblue" stroke="midnightblue" points="74.5676,-81.2288 69.3967,-90.476 79.2057,-86.4718 74.5676,-81.2288"/>
</g>
<!-- Node3 -->
<g id="node3" class="node"><title>Node3</title>
<polygon fill="white" stroke="#bfbfbf" points="133,-90.5 133,-113.5 164,-113.5 164,-90.5 133,-90.5"/>
<text text-anchor="middle" x="148.5" y="-98.3" font-family="Helvetica,sans-Serif" font-size="14.00">int</text>
</g>
<!-- Node3&#45;&gt;Node1 -->
<g id="edge2" class="edge"><title>Node3&#45;&gt;Node1</title>
<path fill="none" stroke="#9a32cd" stroke-dasharray="5,2" d="M148.5,-80.2752C148.5,-67.4266 148.5,-51.0749 148.5,-38.7227"/>
<polygon fill="#9a32cd" stroke="#9a32cd" points="145,-80.476 148.5,-90.476 152,-80.4761 145,-80.476"/>
<text text-anchor="middle" x="186.5" y="-60.8" font-family="Helvetica,sans-Serif" font-size="14.00"> index_basis</text>
</g>
<!-- Node4 -->
<g id="node4" class="node"><title>Node4</title>
<polygon fill="white" stroke="#bfbfbf" points="182.5,-90.5 182.5,-113.5 322.5,-113.5 322.5,-90.5 182.5,-90.5"/>
<text text-anchor="middle" x="252.5" y="-98.3" font-family="Helvetica,sans-Serif" font-size="14.00">FullMatrix&lt; double &gt;</text>
</g>
<!-- Node4&#45;&gt;Node1 -->
<g id="edge3" class="edge"><title>Node4&#45;&gt;Node1</title>
<path fill="none" stroke="#9a32cd" stroke-dasharray="5,2" d="M244.917,-80.9567C241.01,-72.7127 235.563,-63.5763 228.5,-57 220.567,-49.6138 210.881,-43.517 201.025,-38.5626"/>
<polygon fill="#9a32cd" stroke="#9a32cd" points="241.777,-82.5156 248.922,-90.338 248.214,-79.7668 241.777,-82.5156"/>
<text text-anchor="middle" x="279" y="-60.8" font-family="Helvetica,sans-Serif" font-size="14.00"> coeff_matrix</text>
</g>
</g>
</svg>
