<?xml version="1.0" encoding="UTF-8" standalone="no"?>
<!DOCTYPE svg PUBLIC "-//W3C//DTD SVG 1.1//EN"
 "http://www.w3.org/Graphics/SVG/1.1/DTD/svg11.dtd">
<!-- Generated by graphviz version 2.38.0 (20140413.2041)
 -->
<!-- Title: QNed::QNedBasis Pages: 1 -->
<svg width="807pt" height="1087pt"
 viewBox="0.00 0.00 807.00 1086.73" xmlns="http://www.w3.org/2000/svg" xmlns:xlink="http://www.w3.org/1999/xlink">
<g id="graph0" class="graph" transform="scale(1 1) rotate(0) translate(4 1082.73)">
<title>QNed::QNedBasis</title>
<polygon fill="white" stroke="none" points="-4,4 -4,-1082.73 803,-1082.73 803,4 -4,4"/>
<!-- Node1 -->
<g id="node1" class="node"><title>Node1</title>
<polygon fill="#bfbfbf" stroke="black" points="670,-477.227 670,-500.227 799,-500.227 799,-477.227 670,-477.227"/>
<text text-anchor="middle" x="734.5" y="-485.027" font-family="Helvetica,sans-Serif" font-size="14.00">QNed::QNedBasis</text>
</g>
<!-- Node2 -->
<g id="node2" class="node"><title>Node2</title>
<polygon fill="white" stroke="#bfbfbf" points="277,-998.227 277,-1021.23 395,-1021.23 395,-998.227 277,-998.227"/>
<text text-anchor="middle" x="336" y="-1006.03" font-family="Helvetica,sans-Serif" font-size="14.00">vector&lt; double &gt;</text>
</g>
<!-- Node2&#45;&gt;Node1 -->
<g id="edge1" class="edge"><title>Node2&#45;&gt;Node1</title>
<path fill="none" stroke="#9a32cd" stroke-dasharray="5,2" d="M391.428,-1023.31C461.26,-1037.18 581.739,-1048.53 652,-983.727 725.787,-915.675 732.772,-568.871 733.432,-500.457"/>
<polygon fill="#9a32cd" stroke="#9a32cd" points="392.007,-1019.86 381.504,-1021.26 390.587,-1026.71 392.007,-1019.86"/>
<text text-anchor="middle" x="568" y="-1067.53" font-family="Helvetica,sans-Serif" font-size="14.00"> face_measure</text>
<text text-anchor="middle" x="568" y="-1052.53" font-family="Helvetica,sans-Serif" font-size="14.00">global_weights</text>
<text text-anchor="middle" x="568" y="-1037.53" font-family="Helvetica,sans-Serif" font-size="14.00">edge_measure</text>
</g>
<!-- Node3 -->
<g id="node3" class="node"><title>Node3</title>
<polygon fill="white" stroke="#bfbfbf" points="275.5,-956.227 275.5,-979.227 396.5,-979.227 396.5,-956.227 275.5,-956.227"/>
<text text-anchor="middle" x="336" y="-964.027" font-family="Helvetica,sans-Serif" font-size="14.00">DoFHandler&lt; 3 &gt;</text>
</g>
<!-- Node3&#45;&gt;Node1 -->
<g id="edge2" class="edge"><title>Node3&#45;&gt;Node1</title>
<path fill="none" stroke="#9a32cd" stroke-dasharray="5,2" d="M406.91,-967.319C494.174,-966.131 634.202,-961.719 652,-945.727 720.788,-883.916 731.742,-565.646 733.272,-500.417"/>
<polygon fill="#9a32cd" stroke="#9a32cd" points="406.759,-963.821 396.804,-967.446 406.847,-970.82 406.759,-963.821"/>
<text text-anchor="middle" x="568" y="-968.527" font-family="Helvetica,sans-Serif" font-size="14.00"> dof_handler</text>
</g>
<!-- Node4 -->
<g id="node4" class="node"><title>Node4</title>
<polygon fill="white" stroke="#bfbfbf" points="307.5,-914.227 307.5,-937.227 364.5,-937.227 364.5,-914.227 307.5,-914.227"/>
<text text-anchor="middle" x="336" y="-922.027" font-family="Helvetica,sans-Serif" font-size="14.00">double</text>
</g>
<!-- Node4&#45;&gt;Node1 -->
<g id="edge3" class="edge"><title>Node4&#45;&gt;Node1</title>
<path fill="none" stroke="#9a32cd" stroke-dasharray="5,2" d="M374.903,-927.655C449.614,-930.614 612.117,-932.615 652,-896.727 713.212,-841.646 730.037,-561.047 732.985,-500.325"/>
<polygon fill="#9a32cd" stroke="#9a32cd" points="374.681,-924.142 364.542,-927.216 374.385,-931.136 374.681,-924.142"/>
<text text-anchor="middle" x="568" y="-931.527" font-family="Helvetica,sans-Serif" font-size="14.00"> volume_measure</text>
</g>
<!-- Node5 -->
<g id="node5" class="node"><title>Node5</title>
<polygon fill="white" stroke="#bfbfbf" points="305,-872.227 305,-895.227 367,-895.227 367,-872.227 305,-872.227"/>
<text text-anchor="middle" x="336" y="-880.027" font-family="Helvetica,sans-Serif" font-size="14.00">string &amp;</text>
</g>
<!-- Node5&#45;&gt;Node1 -->
<g id="edge4" class="edge"><title>Node5&#45;&gt;Node1</title>
<path fill="none" stroke="#9a32cd" stroke-dasharray="5,2" d="M377.232,-883.307C452.968,-881.666 612.648,-873.89 652,-837.727 703.655,-790.258 727.545,-555.622 732.505,-500.386"/>
<polygon fill="#9a32cd" stroke="#9a32cd" points="377.055,-879.81 367.124,-883.5 377.189,-886.809 377.055,-879.81"/>
<text text-anchor="middle" x="568" y="-881.527" font-family="Helvetica,sans-Serif" font-size="14.00"> parameter_filename</text>
</g>
<!-- Node6 -->
<g id="node6" class="node"><title>Node6</title>
<g id="a_node6"><a xlink:href="structQNed_1_1ParametersBasis.html" target="_top" xlink:title="QNed::ParametersBasis">
<polygon fill="white" stroke="black" points="254,-764.227 254,-787.227 418,-787.227 418,-764.227 254,-764.227"/>
<text text-anchor="middle" x="336" y="-772.027" font-family="Helvetica,sans-Serif" font-size="14.00">QNed::ParametersBasis</text>
</a>
</g>
</g>
<!-- Node6&#45;&gt;Node1 -->
<g id="edge5" class="edge"><title>Node6&#45;&gt;Node1</title>
<path fill="none" stroke="#9a32cd" stroke-dasharray="5,2" d="M428.258,-779.542C497.374,-777.564 590.598,-763.805 652,-710.727 718.314,-653.402 730.704,-537.285 732.99,-500.311"/>
<polygon fill="#9a32cd" stroke="#9a32cd" points="428.167,-776.043 418.242,-779.752 428.313,-783.042 428.167,-776.043"/>
<text text-anchor="middle" x="568" y="-779.527" font-family="Helvetica,sans-Serif" font-size="14.00"> parameters</text>
</g>
<!-- Node7 -->
<g id="node7" class="node"><title>Node7</title>
<polygon fill="white" stroke="#bfbfbf" points="9.5,-847.227 9.5,-870.227 40.5,-870.227 40.5,-847.227 9.5,-847.227"/>
<text text-anchor="middle" x="25" y="-855.027" font-family="Helvetica,sans-Serif" font-size="14.00">int</text>
</g>
<!-- Node7&#45;&gt;Node1 -->
<g id="edge13" class="edge"><title>Node7&#45;&gt;Node1</title>
<path fill="none" stroke="#9a32cd" stroke-dasharray="5,2" d="M50.4708,-870.078C84.3481,-883.945 146.091,-902.361 188,-874.727 204.955,-863.547 189.536,-844.617 206,-832.727 286.64,-774.491 575.777,-858.636 652,-794.727 699.078,-755.254 726.074,-551.468 732.169,-500.361"/>
<polygon fill="#9a32cd" stroke="#9a32cd" points="51.4746,-866.7 40.9045,-865.977 48.7163,-873.134 51.4746,-866.7"/>
<text text-anchor="middle" x="336" y="-851.527" font-family="Helvetica,sans-Serif" font-size="14.00"> length_system_basis</text>
<text text-anchor="middle" x="336" y="-836.527" font-family="Helvetica,sans-Serif" font-size="14.00">local_subdomain</text>
</g>
<!-- Node7&#45;&gt;Node6 -->
<g id="edge6" class="edge"><title>Node7&#45;&gt;Node6</title>
<path fill="none" stroke="#9a32cd" stroke-dasharray="5,2" d="M47.961,-841.04C54.1459,-836.779 61.0816,-832.626 68,-829.727 118.084,-808.738 135.128,-819.115 188,-806.727 196.084,-804.833 197.925,-803.659 206,-801.727 227.774,-796.515 251.782,-791.484 273.122,-787.258"/>
<polygon fill="#9a32cd" stroke="#9a32cd" points="45.5203,-838.489 39.526,-847.225 49.6599,-844.134 45.5203,-838.489"/>
<text text-anchor="middle" x="128" y="-863.527" font-family="Helvetica,sans-Serif" font-size="14.00"> n_refine_global</text>
<text text-anchor="middle" x="128" y="-848.527" font-family="Helvetica,sans-Serif" font-size="14.00">n_refine_local</text>
<text text-anchor="middle" x="128" y="-833.527" font-family="Helvetica,sans-Serif" font-size="14.00">degree</text>
</g>
<!-- Node8 -->
<g id="node8" class="node"><title>Node8</title>
<polygon fill="white" stroke="#bfbfbf" points="0,-764.227 0,-787.227 50,-787.227 50,-764.227 0,-764.227"/>
<text text-anchor="middle" x="25" y="-772.027" font-family="Helvetica,sans-Serif" font-size="14.00">string</text>
</g>
<!-- Node8&#45;&gt;Node6 -->
<g id="edge7" class="edge"><title>Node8&#45;&gt;Node6</title>
<path fill="none" stroke="#9a32cd" stroke-dasharray="5,2" d="M60.3816,-775.727C106.811,-775.727 190.983,-775.727 253.946,-775.727"/>
<polygon fill="#9a32cd" stroke="#9a32cd" points="60.2467,-772.227 50.2467,-775.727 60.2467,-779.227 60.2467,-772.227"/>
<text text-anchor="middle" x="128" y="-794.527" font-family="Helvetica,sans-Serif" font-size="14.00"> dirname_output</text>
<text text-anchor="middle" x="128" y="-779.527" font-family="Helvetica,sans-Serif" font-size="14.00">filename_global</text>
</g>
<!-- Node9 -->
<g id="node9" class="node"><title>Node9</title>
<polygon fill="white" stroke="#bfbfbf" points="4,-605.227 4,-628.227 46,-628.227 46,-605.227 4,-605.227"/>
<text text-anchor="middle" x="25" y="-613.027" font-family="Helvetica,sans-Serif" font-size="14.00">bool</text>
</g>
<!-- Node9&#45;&gt;Node1 -->
<g id="edge14" class="edge"><title>Node9&#45;&gt;Node1</title>
<path fill="none" stroke="#9a32cd" stroke-dasharray="5,2" d="M56.1156,-607.642C90.3789,-599.145 146.898,-590.862 188,-613.727 201.257,-621.101 193.297,-634.434 206,-642.727 303.738,-706.529 350.648,-661.909 466,-679.727 474.015,-680.965 475.917,-682.058 484,-682.727 558.412,-688.885 589.813,-724.053 652,-682.727 716.351,-639.962 730.001,-535.443 732.802,-500.398"/>
<polygon fill="#9a32cd" stroke="#9a32cd" points="55.0127,-604.313 46.2384,-610.251 56.8007,-611.081 55.0127,-604.313"/>
<text text-anchor="middle" x="336" y="-743.527" font-family="Helvetica,sans-Serif" font-size="14.00"> is_copyable</text>
<text text-anchor="middle" x="336" y="-728.527" font-family="Helvetica,sans-Serif" font-size="14.00">is_set_global_weights</text>
<text text-anchor="start" x="265" y="-713.527" font-family="Helvetica,sans-Serif" font-size="14.00">is_built_global_element</text>
<text text-anchor="middle" x="336" y="-698.527" font-family="Helvetica,sans-Serif" font-size="14.00">_matrix</text>
<text text-anchor="middle" x="336" y="-683.527" font-family="Helvetica,sans-Serif" font-size="14.00">is_set_cell_data</text>
</g>
<!-- Node9&#45;&gt;Node6 -->
<g id="edge8" class="edge"><title>Node9&#45;&gt;Node6</title>
<path fill="none" stroke="#9a32cd" stroke-dasharray="5,2" d="M56.3224,-614.058C92.899,-612.645 153.732,-616.375 188,-651.727 218.822,-683.524 174.957,-718.144 206,-749.727 218.732,-762.68 235.997,-770.095 253.751,-774.163"/>
<polygon fill="#9a32cd" stroke="#9a32cd" points="56.0456,-610.568 46.2487,-614.602 56.4227,-617.558 56.0456,-610.568"/>
<text text-anchor="middle" x="128" y="-760.527" font-family="Helvetica,sans-Serif" font-size="14.00"> use_exact_solution</text>
<text text-anchor="middle" x="128" y="-745.527" font-family="Helvetica,sans-Serif" font-size="14.00">full_rhs</text>
<text text-anchor="middle" x="128" y="-730.527" font-family="Helvetica,sans-Serif" font-size="14.00">prevent_output</text>
<text text-anchor="middle" x="128" y="-715.527" font-family="Helvetica,sans-Serif" font-size="14.00">renumber_dofs</text>
<text text-anchor="middle" x="128" y="-700.527" font-family="Helvetica,sans-Serif" font-size="14.00">set_to_std</text>
<text text-anchor="middle" x="128" y="-685.527" font-family="Helvetica,sans-Serif" font-size="14.00">use_direct_solver</text>
<text text-anchor="middle" x="128" y="-670.527" font-family="Helvetica,sans-Serif" font-size="14.00">verbose</text>
<text text-anchor="middle" x="128" y="-655.527" font-family="Helvetica,sans-Serif" font-size="14.00">output_flag</text>
</g>
<!-- Node10 -->
<g id="node10" class="node"><title>Node10</title>
<polygon fill="white" stroke="#bfbfbf" points="267.5,-595.727 267.5,-633.727 404.5,-633.727 404.5,-595.727 267.5,-595.727"/>
<text text-anchor="start" x="275.5" y="-618.527" font-family="Helvetica,sans-Serif" font-size="14.00">vector&lt; BlockVector</text>
<text text-anchor="middle" x="336" y="-603.527" font-family="Helvetica,sans-Serif" font-size="14.00">&lt; double &gt; &gt;</text>
</g>
<!-- Node10&#45;&gt;Node1 -->
<g id="edge9" class="edge"><title>Node10&#45;&gt;Node1</title>
<path fill="none" stroke="#9a32cd" stroke-dasharray="5,2" d="M414.561,-610.115C501.008,-604.501 631.428,-594.434 652,-583.727 688.817,-564.563 716.064,-521.113 727.526,-500.284"/>
<polygon fill="#9a32cd" stroke="#9a32cd" points="414.264,-606.627 404.509,-610.761 414.713,-613.612 414.264,-606.627"/>
<text text-anchor="middle" x="568" y="-668.527" font-family="Helvetica,sans-Serif" font-size="14.00"> basis_h1_v</text>
<text text-anchor="middle" x="568" y="-653.527" font-family="Helvetica,sans-Serif" font-size="14.00">system_rhs_h1_v</text>
<text text-anchor="start" x="514.5" y="-638.527" font-family="Helvetica,sans-Serif" font-size="14.00">system_rhs_curl</text>
<text text-anchor="middle" x="568" y="-623.527" font-family="Helvetica,sans-Serif" font-size="14.00">_v</text>
<text text-anchor="middle" x="568" y="-608.527" font-family="Helvetica,sans-Serif" font-size="14.00">basis_curl_v</text>
</g>
<!-- Node11 -->
<g id="node11" class="node"><title>Node11</title>
<polygon fill="white" stroke="#bfbfbf" points="266,-553.227 266,-576.227 406,-576.227 406,-553.227 266,-553.227"/>
<text text-anchor="middle" x="336" y="-561.027" font-family="Helvetica,sans-Serif" font-size="14.00">vector&lt; Point&lt; 3 &gt; &gt;</text>
</g>
<!-- Node11&#45;&gt;Node1 -->
<g id="edge10" class="edge"><title>Node11&#45;&gt;Node1</title>
<path fill="none" stroke="#9a32cd" stroke-dasharray="5,2" d="M416.421,-566.732C481.256,-566.18 574.491,-560.338 652,-535.727 676.908,-527.818 702.517,-511.436 718.221,-500.261"/>
<polygon fill="#9a32cd" stroke="#9a32cd" points="416.25,-563.233 406.266,-566.777 416.281,-570.233 416.25,-563.233"/>
<text text-anchor="middle" x="568" y="-568.527" font-family="Helvetica,sans-Serif" font-size="14.00"> corner_points</text>
</g>
<!-- Node12 -->
<g id="node12" class="node"><title>Node12</title>
<polygon fill="white" stroke="#bfbfbf" points="206,-481.227 206,-534.227 466,-534.227 466,-481.227 206,-481.227"/>
<text text-anchor="start" x="214" y="-519.027" font-family="Helvetica,sans-Serif" font-size="14.00">shared_ptr&lt; typename</text>
<text text-anchor="start" x="214" y="-504.027" font-family="Helvetica,sans-Serif" font-size="14.00"> LinearSolvers::LocalInnerPreconditioner</text>
<text text-anchor="middle" x="336" y="-489.027" font-family="Helvetica,sans-Serif" font-size="14.00">&lt; 3 &gt;::type &gt;</text>
</g>
<!-- Node12&#45;&gt;Node1 -->
<g id="edge11" class="edge"><title>Node12&#45;&gt;Node1</title>
<path fill="none" stroke="#9a32cd" stroke-dasharray="5,2" d="M476.309,-515.54C531.231,-516.698 594.755,-515.648 652,-508.727 666.03,-507.03 681.129,-503.748 694.472,-500.325"/>
<polygon fill="#9a32cd" stroke="#9a32cd" points="476.238,-512.037 466.158,-515.299 476.072,-519.035 476.238,-512.037"/>
<text text-anchor="middle" x="568" y="-520.527" font-family="Helvetica,sans-Serif" font-size="14.00"> inner_schur_preconditioner</text>
</g>
<!-- Node13 -->
<g id="node13" class="node"><title>Node13</title>
<polygon fill="white" stroke="#bfbfbf" points="259.5,-436.227 259.5,-459.227 412.5,-459.227 412.5,-436.227 259.5,-436.227"/>
<text text-anchor="middle" x="336" y="-444.027" font-family="Helvetica,sans-Serif" font-size="14.00">BlockVector&lt; double &gt;</text>
</g>
<!-- Node13&#45;&gt;Node1 -->
<g id="edge12" class="edge"><title>Node13&#45;&gt;Node1</title>
<path fill="none" stroke="#9a32cd" stroke-dasharray="5,2" d="M422.813,-435.27C486.952,-428.741 576.252,-425.585 652,-444.727 676.632,-450.951 701.904,-466.253 717.643,-477.056"/>
<polygon fill="#9a32cd" stroke="#9a32cd" points="422.314,-431.803 412.741,-436.344 423.056,-438.764 422.314,-431.803"/>
<text text-anchor="middle" x="568" y="-493.527" font-family="Helvetica,sans-Serif" font-size="14.00"> global_solution</text>
<text text-anchor="start" x="515.5" y="-478.527" font-family="Helvetica,sans-Serif" font-size="14.00">exact_solution_in</text>
<text text-anchor="middle" x="568" y="-463.527" font-family="Helvetica,sans-Serif" font-size="14.00">_cell</text>
<text text-anchor="middle" x="568" y="-448.527" font-family="Helvetica,sans-Serif" font-size="14.00">global_rhs</text>
</g>
<!-- Node14 -->
<g id="node14" class="node"><title>Node14</title>
<polygon fill="white" stroke="#bfbfbf" points="310.5,-393.227 310.5,-416.227 361.5,-416.227 361.5,-393.227 310.5,-393.227"/>
<text text-anchor="middle" x="336" y="-401.027" font-family="Helvetica,sans-Serif" font-size="14.00">CellId</text>
</g>
<!-- Node14&#45;&gt;Node1 -->
<g id="edge15" class="edge"><title>Node14&#45;&gt;Node1</title>
<path fill="none" stroke="#9a32cd" stroke-dasharray="5,2" d="M371.769,-400.109C442.989,-391.252 602.89,-374.623 652,-396.727 689.165,-413.454 716.24,-456.433 727.594,-477.18"/>
<polygon fill="#9a32cd" stroke="#9a32cd" points="371.01,-396.677 361.529,-401.405 371.889,-403.622 371.01,-396.677"/>
<text text-anchor="middle" x="568" y="-415.527" font-family="Helvetica,sans-Serif" font-size="14.00"> global_cell_id</text>
<text text-anchor="middle" x="568" y="-400.527" font-family="Helvetica,sans-Serif" font-size="14.00">first_cell</text>
</g>
<!-- Node15 -->
<g id="node15" class="node"><title>Node15</title>
<polygon fill="white" stroke="#bfbfbf" points="280.5,-351.227 280.5,-374.227 391.5,-374.227 391.5,-351.227 280.5,-351.227"/>
<text text-anchor="middle" x="336" y="-359.027" font-family="Helvetica,sans-Serif" font-size="14.00">FESystem&lt; 3 &gt;</text>
</g>
<!-- Node15&#45;&gt;Node1 -->
<g id="edge16" class="edge"><title>Node15&#45;&gt;Node1</title>
<path fill="none" stroke="#9a32cd" stroke-dasharray="5,2" d="M402.103,-356.823C481.561,-350.801 610.474,-345.205 652,-367.727 696.305,-391.756 720.977,-451.543 729.767,-476.976"/>
<polygon fill="#9a32cd" stroke="#9a32cd" points="401.409,-353.366 391.712,-357.634 401.954,-360.345 401.409,-353.366"/>
<text text-anchor="middle" x="568" y="-371.527" font-family="Helvetica,sans-Serif" font-size="14.00"> fe</text>
</g>
<!-- Node16 -->
<g id="node16" class="node"><title>Node16</title>
<polygon fill="white" stroke="#bfbfbf" points="265,-309.227 265,-332.227 407,-332.227 407,-309.227 265,-309.227"/>
<text text-anchor="middle" x="336" y="-317.027" font-family="Helvetica,sans-Serif" font-size="14.00">BlockSparsityPattern</text>
</g>
<!-- Node16&#45;&gt;Node1 -->
<g id="edge17" class="edge"><title>Node16&#45;&gt;Node1</title>
<path fill="none" stroke="#9a32cd" stroke-dasharray="5,2" d="M417.253,-314.855C497.554,-310.537 614.403,-308.96 652,-332.727 705.207,-366.361 725.557,-446.879 731.477,-477.048"/>
<polygon fill="#9a32cd" stroke="#9a32cd" points="416.947,-311.367 407.159,-315.422 417.34,-318.356 416.947,-311.367"/>
<text text-anchor="middle" x="568" y="-336.527" font-family="Helvetica,sans-Serif" font-size="14.00"> sparsity_pattern</text>
</g>
<!-- Node17 -->
<g id="node17" class="node"><title>Node17</title>
<polygon fill="white" stroke="#bfbfbf" points="291,-267.227 291,-290.227 381,-290.227 381,-267.227 291,-267.227"/>
<text text-anchor="middle" x="336" y="-275.027" font-family="Helvetica,sans-Serif" font-size="14.00">MPI_Comm</text>
</g>
<!-- Node17&#45;&gt;Node1 -->
<g id="edge18" class="edge"><title>Node17&#45;&gt;Node1</title>
<path fill="none" stroke="#9a32cd" stroke-dasharray="5,2" d="M391.353,-274.542C470.202,-269.584 611.343,-265.235 652,-293.727 715.552,-338.263 729.723,-442.309 732.729,-477.136"/>
<polygon fill="#9a32cd" stroke="#9a32cd" points="390.874,-271.066 381.124,-275.211 391.331,-278.051 390.874,-271.066"/>
<text text-anchor="middle" x="568" y="-297.527" font-family="Helvetica,sans-Serif" font-size="14.00"> mpi_communicator</text>
</g>
<!-- Node18 -->
<g id="node18" class="node"><title>Node18</title>
<polygon fill="white" stroke="#bfbfbf" points="266,-225.227 266,-248.227 406,-248.227 406,-225.227 266,-225.227"/>
<text text-anchor="middle" x="336" y="-233.027" font-family="Helvetica,sans-Serif" font-size="14.00">FullMatrix&lt; double &gt;</text>
</g>
<!-- Node18&#45;&gt;Node1 -->
<g id="edge19" class="edge"><title>Node18&#45;&gt;Node1</title>
<path fill="none" stroke="#9a32cd" stroke-dasharray="5,2" d="M416.275,-230.969C497.293,-226.767 616.162,-225.791 652,-252.727 726.673,-308.85 733.38,-437.719 733.633,-477.09"/>
<polygon fill="#9a32cd" stroke="#9a32cd" points="415.892,-227.484 406.097,-231.524 416.273,-234.474 415.892,-227.484"/>
<text text-anchor="middle" x="568" y="-256.527" font-family="Helvetica,sans-Serif" font-size="14.00"> global_element_matrix</text>
</g>
<!-- Node19 -->
<g id="node19" class="node"><title>Node19</title>
<polygon fill="white" stroke="#bfbfbf" points="276,-183.227 276,-206.227 396,-206.227 396,-183.227 276,-183.227"/>
<text text-anchor="middle" x="336" y="-191.027" font-family="Helvetica,sans-Serif" font-size="14.00">Vector&lt; double &gt;</text>
</g>
<!-- Node19&#45;&gt;Node1 -->
<g id="edge20" class="edge"><title>Node19&#45;&gt;Node1</title>
<path fill="none" stroke="#9a32cd" stroke-dasharray="5,2" d="M406.394,-189.228C487.499,-184.316 615.315,-181.771 652,-210.727 695.822,-245.315 724.929,-428.974 731.888,-477.149"/>
<polygon fill="#9a32cd" stroke="#9a32cd" points="406.014,-185.745 396.255,-189.868 406.456,-192.731 406.014,-185.745"/>
<text text-anchor="middle" x="568" y="-214.527" font-family="Helvetica,sans-Serif" font-size="14.00"> global_element_rhs</text>
</g>
<!-- Node20 -->
<g id="node20" class="node"><title>Node20</title>
<polygon fill="white" stroke="#bfbfbf" points="267,-125.727 267,-163.727 405,-163.727 405,-125.727 267,-125.727"/>
<text text-anchor="start" x="275" y="-148.527" font-family="Helvetica,sans-Serif" font-size="14.00">BlockSparseMatrix&lt;</text>
<text text-anchor="middle" x="336" y="-133.527" font-family="Helvetica,sans-Serif" font-size="14.00"> double &gt;</text>
</g>
<!-- Node20&#45;&gt;Node1 -->
<g id="edge21" class="edge"><title>Node20&#45;&gt;Node1</title>
<path fill="none" stroke="#9a32cd" stroke-dasharray="5,2" d="M415.235,-136.257C496.606,-129.233 616.944,-124.43 652,-152.727 704.546,-195.141 727.683,-422.551 732.516,-477.005"/>
<polygon fill="#9a32cd" stroke="#9a32cd" points="414.667,-132.794 405.017,-137.168 415.289,-139.766 414.667,-132.794"/>
<text text-anchor="middle" x="568" y="-171.527" font-family="Helvetica,sans-Serif" font-size="14.00"> system_matrix</text>
<text text-anchor="middle" x="568" y="-156.527" font-family="Helvetica,sans-Serif" font-size="14.00">assembled_matrix</text>
</g>
<!-- Node21 -->
<g id="node21" class="node"><title>Node21</title>
<polygon fill="white" stroke="#bfbfbf" points="252,-68.7267 252,-106.727 420,-106.727 420,-68.7267 252,-68.7267"/>
<text text-anchor="start" x="260" y="-91.5267" font-family="Helvetica,sans-Serif" font-size="14.00">vector&lt; AffineConstraints</text>
<text text-anchor="middle" x="336" y="-76.5267" font-family="Helvetica,sans-Serif" font-size="14.00">&lt; double &gt; &gt;</text>
</g>
<!-- Node21&#45;&gt;Node1 -->
<g id="edge22" class="edge"><title>Node21&#45;&gt;Node1</title>
<path fill="none" stroke="#9a32cd" stroke-dasharray="5,2" d="M430.435,-78.4201C511.074,-72.5402 619.553,-70.4791 652,-97.7267 712.402,-148.45 729.813,-417.808 732.94,-477.154"/>
<polygon fill="#9a32cd" stroke="#9a32cd" points="429.956,-74.9464 420.249,-79.1935 430.486,-81.9263 429.956,-74.9464"/>
<text text-anchor="middle" x="568" y="-116.527" font-family="Helvetica,sans-Serif" font-size="14.00"> constraints_curl_v</text>
<text text-anchor="middle" x="568" y="-101.527" font-family="Helvetica,sans-Serif" font-size="14.00">constraints_h1_v</text>
</g>
<!-- Node22 -->
<g id="node22" class="node"><title>Node22</title>
<polygon fill="white" stroke="#bfbfbf" points="273,-25.2267 273,-48.2267 399,-48.2267 399,-25.2267 273,-25.2267"/>
<text text-anchor="middle" x="336" y="-33.0267" font-family="Helvetica,sans-Serif" font-size="14.00">Triangulation&lt; 3 &gt;</text>
</g>
<!-- Node22&#45;&gt;Node1 -->
<g id="edge23" class="edge"><title>Node22&#45;&gt;Node1</title>
<path fill="none" stroke="#9a32cd" stroke-dasharray="5,2" d="M379.979,-22.1117C446.684,-2.41988 575.41,23.199 652,-41.7267 720.898,-100.132 731.748,-411.73 733.271,-476.808"/>
<polygon fill="#9a32cd" stroke="#9a32cd" points="378.76,-18.8242 370.212,-25.0844 380.798,-25.5209 378.76,-18.8242"/>
<text text-anchor="middle" x="568" y="-60.5267" font-family="Helvetica,sans-Serif" font-size="14.00"> global_cell_it</text>
<text text-anchor="middle" x="568" y="-45.5267" font-family="Helvetica,sans-Serif" font-size="14.00">triangulation</text>
</g>
</g>
</svg>
