<?xml version="1.0" encoding="UTF-8" standalone="no"?>
<!DOCTYPE svg PUBLIC "-//W3C//DTD SVG 1.1//EN"
 "http://www.w3.org/Graphics/SVG/1.1/DTD/svg11.dtd">
<!-- Generated by graphviz version 2.38.0 (20140413.2041)
 -->
<!-- Title: LinearSolvers::ApproximateSchurComplement&lt; BlockMatrixType, VectorType, PreconditionerType &gt; Pages: 1 -->
<svg width="560pt" height="186pt"
 viewBox="0.00 0.00 560.00 186.00" xmlns="http://www.w3.org/2000/svg" xmlns:xlink="http://www.w3.org/1999/xlink">
<g id="graph0" class="graph" transform="scale(1 1) rotate(0) translate(4 182)">
<title>LinearSolvers::ApproximateSchurComplement&lt; BlockMatrixType, VectorType, PreconditionerType &gt;</title>
<polygon fill="white" stroke="none" points="-4,4 -4,-182 556,-182 556,4 -4,4"/>
<!-- Node1 -->
<g id="node1" class="node"><title>Node1</title>
<polygon fill="#bfbfbf" stroke="black" points="306,-57.5 306,-110.5 552,-110.5 552,-57.5 306,-57.5"/>
<text text-anchor="start" x="314" y="-95.3" font-family="Helvetica,sans-Serif" font-size="14.00">LinearSolvers::Approximate</text>
<text text-anchor="start" x="314" y="-80.3" font-family="Helvetica,sans-Serif" font-size="14.00">SchurComplement&lt; BlockMatrixType,</text>
<text text-anchor="middle" x="429" y="-65.3" font-family="Helvetica,sans-Serif" font-size="14.00"> VectorType, PreconditionerType &gt;</text>
</g>
<!-- Node2 -->
<g id="node2" class="node"><title>Node2</title>
<g id="a_node2"><a xlink:href="classSubscriptor.html" target="_top" xlink:title="Subscriptor">
<polygon fill="white" stroke="black" points="46,-154.5 46,-177.5 131,-177.5 131,-154.5 46,-154.5"/>
<text text-anchor="middle" x="88.5" y="-162.3" font-family="Helvetica,sans-Serif" font-size="14.00">Subscriptor</text>
</a>
</g>
</g>
<!-- Node2&#45;&gt;Node1 -->
<g id="edge1" class="edge"><title>Node2&#45;&gt;Node1</title>
<path fill="none" stroke="midnightblue" d="M141.508,-167.685C182.077,-167.726 239.49,-164.971 288,-152 321.935,-142.926 357.507,-125.532 384.303,-110.609"/>
<polygon fill="midnightblue" stroke="midnightblue" points="141.337,-164.183 131.313,-167.615 141.289,-171.183 141.337,-164.183"/>
</g>
<!-- Node3 -->
<g id="node3" class="node"><title>Node3</title>
<polygon fill="white" stroke="#bfbfbf" points="45.5,-100.5 45.5,-123.5 131.5,-123.5 131.5,-100.5 45.5,-100.5"/>
<text text-anchor="middle" x="88.5" y="-108.3" font-family="Helvetica,sans-Serif" font-size="14.00">VectorType</text>
</g>
<!-- Node3&#45;&gt;Node1 -->
<g id="edge2" class="edge"><title>Node3&#45;&gt;Node1</title>
<path fill="none" stroke="#9a32cd" stroke-dasharray="5,2" d="M141.775,-107.676C185.408,-104.067 249.343,-98.7782 305.725,-94.1144"/>
<polygon fill="#9a32cd" stroke="#9a32cd" points="141.364,-104.198 131.687,-108.51 141.941,-111.174 141.364,-104.198"/>
<text text-anchor="middle" x="241.5" y="-136.8" font-family="Helvetica,sans-Serif" font-size="14.00"> tmp3</text>
<text text-anchor="middle" x="241.5" y="-121.8" font-family="Helvetica,sans-Serif" font-size="14.00">tmp1</text>
<text text-anchor="middle" x="241.5" y="-106.8" font-family="Helvetica,sans-Serif" font-size="14.00">tmp2</text>
</g>
<!-- Node4 -->
<g id="node4" class="node"><title>Node4</title>
<polygon fill="white" stroke="#bfbfbf" points="0,-43 0,-81 177,-81 177,-43 0,-43"/>
<text text-anchor="start" x="8" y="-65.8" font-family="Helvetica,sans-Serif" font-size="14.00">const SmartPointer</text>
<text text-anchor="middle" x="88.5" y="-50.8" font-family="Helvetica,sans-Serif" font-size="14.00">&lt; const BlockMatrixType &gt;</text>
</g>
<!-- Node4&#45;&gt;Node1 -->
<g id="edge3" class="edge"><title>Node4&#45;&gt;Node1</title>
<path fill="none" stroke="#9a32cd" stroke-dasharray="5,2" d="M187.309,-64.0598C219.415,-65.1068 255.256,-66.6715 288,-69 293.852,-69.4161 299.837,-69.8861 305.879,-70.3961"/>
<polygon fill="#9a32cd" stroke="#9a32cd" points="187.129,-60.5525 177.025,-63.7377 186.91,-67.5491 187.129,-60.5525"/>
<text text-anchor="middle" x="241.5" y="-72.8" font-family="Helvetica,sans-Serif" font-size="14.00"> system_matrix</text>
</g>
<!-- Node5 -->
<g id="node5" class="node"><title>Node5</title>
<polygon fill="white" stroke="#bfbfbf" points="21.5,-0.5 21.5,-23.5 155.5,-23.5 155.5,-0.5 21.5,-0.5"/>
<text text-anchor="middle" x="88.5" y="-8.3" font-family="Helvetica,sans-Serif" font-size="14.00">PreconditionerType</text>
</g>
<!-- Node5&#45;&gt;Node1 -->
<g id="edge4" class="edge"><title>Node5&#45;&gt;Node1</title>
<path fill="none" stroke="#9a32cd" stroke-dasharray="5,2" d="M165.75,-23.3148C202.809,-29.2577 247.899,-37.1445 288,-46 303.247,-49.3671 319.321,-53.3321 334.926,-57.4079"/>
<polygon fill="#9a32cd" stroke="#9a32cd" points="165.947,-19.8023 155.521,-21.691 164.849,-26.7157 165.947,-19.8023"/>
<text text-anchor="middle" x="241.5" y="-49.8" font-family="Helvetica,sans-Serif" font-size="14.00"> preconditioner</text>
</g>
</g>
</svg>
