<?xml version="1.0" encoding="UTF-8" standalone="no"?>
<!DOCTYPE svg PUBLIC "-//W3C//DTD SVG 1.1//EN"
 "http://www.w3.org/Graphics/SVG/1.1/DTD/svg11.dtd">
<!-- Generated by graphviz version 2.38.0 (20140413.2041)
 -->
<!-- Title: EquationData::RightHandSideExactLin Pages: 1 -->
<svg width="754pt" height="654pt"
 viewBox="0.00 0.00 754.00 654.00" xmlns="http://www.w3.org/2000/svg" xmlns:xlink="http://www.w3.org/1999/xlink">
<g id="graph0" class="graph" transform="scale(1 1) rotate(0) translate(4 650)">
<title>EquationData::RightHandSideExactLin</title>
<polygon fill="white" stroke="none" points="-4,4 -4,-650 750,-650 750,4 -4,4"/>
<!-- Node1 -->
<g id="node1" class="node"><title>Node1</title>
<polygon fill="#bfbfbf" stroke="black" points="549,-408 549,-446 746,-446 746,-408 549,-408"/>
<text text-anchor="start" x="557" y="-430.8" font-family="Helvetica,sans-Serif" font-size="14.00">EquationData::RightHandSide</text>
<text text-anchor="middle" x="647.5" y="-415.8" font-family="Helvetica,sans-Serif" font-size="14.00">ExactLin</text>
</g>
<!-- Node2 -->
<g id="node2" class="node"><title>Node2</title>
<g id="a_node2"><a xlink:href="classEquationData_1_1RightHandSide.html" target="_top" xlink:title="Base class for right&#45;hand side. ">
<polygon fill="white" stroke="black" points="315,-622.5 315,-645.5 512,-645.5 512,-622.5 315,-622.5"/>
<text text-anchor="middle" x="413.5" y="-630.3" font-family="Helvetica,sans-Serif" font-size="14.00">EquationData::RightHandSide</text>
</a>
</g>
</g>
<!-- Node2&#45;&gt;Node1 -->
<g id="edge1" class="edge"><title>Node2&#45;&gt;Node1</title>
<path fill="none" stroke="midnightblue" d="M499.966,-619.116C510.997,-614.992 521.68,-609.725 531,-603 588.201,-561.726 624.801,-482.652 639.351,-446.232"/>
<polygon fill="midnightblue" stroke="midnightblue" points="498.537,-615.905 490.208,-622.454 500.802,-622.529 498.537,-615.905"/>
</g>
<!-- Node3 -->
<g id="node3" class="node"><title>Node3</title>
<polygon fill="white" stroke="#bfbfbf" points="0,-622.5 0,-645.5 209,-645.5 209,-622.5 0,-622.5"/>
<text text-anchor="middle" x="104.5" y="-630.3" font-family="Helvetica,sans-Serif" font-size="14.00">Functions::ParsedFunction&lt; 3 &gt;</text>
</g>
<!-- Node3&#45;&gt;Node2 -->
<g id="edge2" class="edge"><title>Node3&#45;&gt;Node2</title>
<path fill="none" stroke="midnightblue" d="M219.128,-634C250.581,-634 284.433,-634 314.886,-634"/>
<polygon fill="midnightblue" stroke="midnightblue" points="219.008,-630.5 209.008,-634 219.008,-637.5 219.008,-630.5"/>
</g>
<!-- Node4 -->
<g id="node4" class="node"><title>Node4</title>
<g id="a_node4"><a xlink:href="classEquationData_1_1ExactSolutionLin__Data.html" target="_top" xlink:title="Data class to construct an analytic solution. ">
<polygon fill="white" stroke="black" points="319.5,-458 319.5,-496 507.5,-496 507.5,-458 319.5,-458"/>
<text text-anchor="start" x="327.5" y="-480.8" font-family="Helvetica,sans-Serif" font-size="14.00">EquationData::ExactSolution</text>
<text text-anchor="middle" x="413.5" y="-465.8" font-family="Helvetica,sans-Serif" font-size="14.00">Lin_Data</text>
</a>
</g>
</g>
<!-- Node4&#45;&gt;Node1 -->
<g id="edge3" class="edge"><title>Node4&#45;&gt;Node1</title>
<path fill="none" stroke="midnightblue" d="M512.685,-455.839C527.726,-452.598 543.175,-449.268 557.991,-446.075"/>
<polygon fill="midnightblue" stroke="midnightblue" points="511.909,-452.426 502.871,-457.955 513.384,-459.269 511.909,-452.426"/>
</g>
<!-- Node5 -->
<g id="node5" class="node"><title>Node5</title>
<polygon fill="white" stroke="#bfbfbf" points="76,-205.5 76,-228.5 133,-228.5 133,-205.5 76,-205.5"/>
<text text-anchor="middle" x="104.5" y="-213.3" font-family="Helvetica,sans-Serif" font-size="14.00">double</text>
</g>
<!-- Node5&#45;&gt;Node1 -->
<g id="edge16" class="edge"><title>Node5&#45;&gt;Node1</title>
<path fill="none" stroke="#9a32cd" stroke-dasharray="5,2" d="M143.279,-212.812C182.522,-209.694 245.301,-208.191 297,-223 432.419,-261.79 570.103,-364.954 623.437,-407.862"/>
<polygon fill="#9a32cd" stroke="#9a32cd" points="142.763,-209.344 133.105,-213.699 143.371,-216.317 142.763,-209.344"/>
<text text-anchor="middle" x="413.5" y="-330.8" font-family="Helvetica,sans-Serif" font-size="14.00"> pi</text>
</g>
<!-- Node5&#45;&gt;Node4 -->
<g id="edge4" class="edge"><title>Node5&#45;&gt;Node4</title>
<path fill="none" stroke="#9a32cd" stroke-dasharray="5,2" d="M120.269,-237.014C141.242,-265.853 180.29,-321.119 209,-371 218.122,-386.849 212.914,-396.338 227,-408 251.831,-428.558 266.574,-416.347 297,-427 322.572,-435.954 350.47,-447.964 372.44,-457.97"/>
<polygon fill="#9a32cd" stroke="#9a32cd" points="122.859,-234.626 114.131,-228.62 117.209,-238.758 122.859,-234.626"/>
<text text-anchor="middle" x="262" y="-430.8" font-family="Helvetica,sans-Serif" font-size="14.00"> div_u</text>
</g>
<!-- Node8 -->
<g id="node8" class="node"><title>Node8</title>
<g id="a_node8"><a xlink:href="classEquationData_1_1Diffusion__A__Data.html" target="_top" xlink:title="Class containing data to construct a positive tensor. ">
<polygon fill="white" stroke="black" points="334.5,-373 334.5,-411 492.5,-411 492.5,-373 334.5,-373"/>
<text text-anchor="start" x="342.5" y="-395.8" font-family="Helvetica,sans-Serif" font-size="14.00">EquationData::Diffusion</text>
<text text-anchor="middle" x="413.5" y="-380.8" font-family="Helvetica,sans-Serif" font-size="14.00">_A_Data</text>
</a>
</g>
</g>
<!-- Node5&#45;&gt;Node8 -->
<g id="edge8" class="edge"><title>Node5&#45;&gt;Node8</title>
<path fill="none" stroke="#9a32cd" stroke-dasharray="5,2" d="M143.239,-216.704C183.873,-217.993 249.118,-224.839 297,-253 347.033,-282.426 385.071,-341.913 402.321,-372.646"/>
<polygon fill="#9a32cd" stroke="#9a32cd" points="143.289,-213.205 133.215,-216.484 143.135,-220.203 143.289,-213.205"/>
<text text-anchor="middle" x="262" y="-376.8" font-family="Helvetica,sans-Serif" font-size="14.00"> alpha_</text>
<text text-anchor="middle" x="262" y="-361.8" font-family="Helvetica,sans-Serif" font-size="14.00">scale_x</text>
<text text-anchor="middle" x="262" y="-346.8" font-family="Helvetica,sans-Serif" font-size="14.00">scale_y</text>
<text text-anchor="middle" x="262" y="-331.8" font-family="Helvetica,sans-Serif" font-size="14.00">gamma_</text>
<text text-anchor="middle" x="262" y="-316.8" font-family="Helvetica,sans-Serif" font-size="14.00">beta_</text>
<text text-anchor="middle" x="262" y="-301.8" font-family="Helvetica,sans-Serif" font-size="14.00">scale_z</text>
<text text-anchor="middle" x="262" y="-286.8" font-family="Helvetica,sans-Serif" font-size="14.00">alpha_x</text>
<text text-anchor="middle" x="262" y="-271.8" font-family="Helvetica,sans-Serif" font-size="14.00">alpha_y</text>
<text text-anchor="middle" x="262" y="-256.8" font-family="Helvetica,sans-Serif" font-size="14.00">alpha_z</text>
</g>
<!-- Node11 -->
<g id="node11" class="node"><title>Node11</title>
<g id="a_node11"><a xlink:href="classEquationData_1_1Diffusion__B__Data.html" target="_top" xlink:title="Class containing data to construct a positive scalar. ">
<polygon fill="white" stroke="black" points="334.5,-50 334.5,-88 492.5,-88 492.5,-50 334.5,-50"/>
<text text-anchor="start" x="342.5" y="-72.8" font-family="Helvetica,sans-Serif" font-size="14.00">EquationData::Diffusion</text>
<text text-anchor="middle" x="413.5" y="-57.8" font-family="Helvetica,sans-Serif" font-size="14.00">_B_Data</text>
</a>
</g>
</g>
<!-- Node5&#45;&gt;Node11 -->
<g id="edge13" class="edge"><title>Node5&#45;&gt;Node11</title>
<path fill="none" stroke="#9a32cd" stroke-dasharray="5,2" d="M127.953,-198.88C150.145,-180.286 184.271,-149.797 209,-119 218.735,-106.876 213.9,-97.3763 227,-89 244.67,-77.7016 291.931,-72.7162 334.324,-70.5479"/>
<polygon fill="#9a32cd" stroke="#9a32cd" points="125.548,-196.327 120.076,-205.4 130.011,-201.72 125.548,-196.327"/>
<text text-anchor="middle" x="262" y="-107.8" font-family="Helvetica,sans-Serif" font-size="14.00"> scale</text>
<text text-anchor="middle" x="262" y="-92.8" font-family="Helvetica,sans-Serif" font-size="14.00">alpha</text>
</g>
<!-- Node6 -->
<g id="node6" class="node"><title>Node6</title>
<polygon fill="white" stroke="#bfbfbf" points="52,-554.5 52,-577.5 157,-577.5 157,-554.5 52,-554.5"/>
<text text-anchor="middle" x="104.5" y="-562.3" font-family="Helvetica,sans-Serif" font-size="14.00">Tensor&lt; 1, 3 &gt;</text>
</g>
<!-- Node6&#45;&gt;Node1 -->
<g id="edge17" class="edge"><title>Node6&#45;&gt;Node1</title>
<path fill="none" stroke="#9a32cd" stroke-dasharray="5,2" d="M167.677,-569.374C205.291,-570.418 254.111,-570.006 297,-564 395.131,-550.258 420.606,-543.283 512,-505 550.715,-488.783 592.023,-463.488 618.489,-446.127"/>
<polygon fill="#9a32cd" stroke="#9a32cd" points="167.487,-565.866 157.38,-569.044 167.263,-572.862 167.487,-565.866"/>
<text text-anchor="middle" x="413.5" y="-565.8" font-family="Helvetica,sans-Serif" font-size="14.00"> R_trans_curl_u</text>
</g>
<!-- Node6&#45;&gt;Node4 -->
<g id="edge5" class="edge"><title>Node6&#45;&gt;Node4</title>
<path fill="none" stroke="#9a32cd" stroke-dasharray="5,2" d="M154.993,-551.652C207.038,-536.564 289.2,-512.745 346.681,-496.081"/>
<polygon fill="#9a32cd" stroke="#9a32cd" points="153.95,-548.31 145.32,-554.456 155.899,-555.033 153.95,-548.31"/>
<text text-anchor="middle" x="262" y="-548.8" font-family="Helvetica,sans-Serif" font-size="14.00"> curl_u</text>
<text text-anchor="middle" x="262" y="-533.8" font-family="Helvetica,sans-Serif" font-size="14.00">b</text>
</g>
<!-- Node7 -->
<g id="node7" class="node"><title>Node7</title>
<polygon fill="white" stroke="#bfbfbf" points="52,-475.5 52,-498.5 157,-498.5 157,-475.5 52,-475.5"/>
<text text-anchor="middle" x="104.5" y="-483.3" font-family="Helvetica,sans-Serif" font-size="14.00">Tensor&lt; 2, 3 &gt;</text>
</g>
<!-- Node7&#45;&gt;Node4 -->
<g id="edge6" class="edge"><title>Node7&#45;&gt;Node4</title>
<path fill="none" stroke="#9a32cd" stroke-dasharray="5,2" d="M167.395,-486.734C204.907,-486.397 253.721,-485.65 297,-484 304.227,-483.725 311.705,-483.388 319.221,-483.013"/>
<polygon fill="#9a32cd" stroke="#9a32cd" points="167.099,-483.236 157.128,-486.818 167.157,-490.236 167.099,-483.236"/>
<text text-anchor="middle" x="262" y="-489.8" font-family="Helvetica,sans-Serif" font-size="14.00"> A</text>
</g>
<!-- Node7&#45;&gt;Node8 -->
<g id="edge9" class="edge"><title>Node7&#45;&gt;Node8</title>
<path fill="none" stroke="#9a32cd" stroke-dasharray="5,2" d="M167.015,-475.396C213.523,-466.33 273.279,-453.97 297,-446 324.802,-436.659 354.766,-422.522 377.205,-411.055"/>
<polygon fill="#9a32cd" stroke="#9a32cd" points="166.162,-471.996 157.011,-477.336 167.494,-478.869 166.162,-471.996"/>
<text text-anchor="middle" x="262" y="-467.8" font-family="Helvetica,sans-Serif" font-size="14.00"> rot</text>
</g>
<!-- Node8&#45;&gt;Node1 -->
<g id="edge7" class="edge"><title>Node8&#45;&gt;Node1</title>
<path fill="none" stroke="midnightblue" d="M502.989,-405.35C517.99,-407.613 533.643,-409.974 548.863,-412.27"/>
<polygon fill="midnightblue" stroke="midnightblue" points="503.131,-401.832 492.721,-403.801 502.087,-408.753 503.131,-401.832"/>
</g>
<!-- Node9 -->
<g id="node9" class="node"><title>Node9</title>
<polygon fill="white" stroke="#bfbfbf" points="89,-86.5 89,-109.5 120,-109.5 120,-86.5 89,-86.5"/>
<text text-anchor="middle" x="104.5" y="-94.3" font-family="Helvetica,sans-Serif" font-size="14.00">int</text>
</g>
<!-- Node9&#45;&gt;Node8 -->
<g id="edge10" class="edge"><title>Node9&#45;&gt;Node8</title>
<path fill="none" stroke="#9a32cd" stroke-dasharray="5,2" d="M129.977,-102.099C169.916,-109.983 249.407,-130.842 297,-178 311.426,-192.294 305.979,-201.805 315,-220 343.208,-276.892 381.564,-341.381 400.67,-372.777"/>
<polygon fill="#9a32cd" stroke="#9a32cd" points="130.517,-98.6392 120.045,-100.247 129.234,-105.521 130.517,-98.6392"/>
<text text-anchor="middle" x="262" y="-211.8" font-family="Helvetica,sans-Serif" font-size="14.00"> k_x</text>
<text text-anchor="middle" x="262" y="-196.8" font-family="Helvetica,sans-Serif" font-size="14.00">k_y</text>
<text text-anchor="middle" x="262" y="-181.8" font-family="Helvetica,sans-Serif" font-size="14.00">k_z</text>
</g>
<!-- Node9&#45;&gt;Node11 -->
<g id="edge14" class="edge"><title>Node9&#45;&gt;Node11</title>
<path fill="none" stroke="#9a32cd" stroke-dasharray="5,2" d="M129.349,-85.7304C153.302,-74.1485 191.631,-57.6024 227,-51 261.987,-44.4687 301.157,-46.8736 334.454,-51.7411"/>
<polygon fill="#9a32cd" stroke="#9a32cd" points="127.727,-82.6278 120.313,-90.1959 130.829,-88.9033 127.727,-82.6278"/>
<text text-anchor="middle" x="262" y="-54.8" font-family="Helvetica,sans-Serif" font-size="14.00"> k</text>
</g>
<!-- Node10 -->
<g id="node10" class="node"><title>Node10</title>
<polygon fill="white" stroke="#bfbfbf" points="83.5,-380.5 83.5,-403.5 125.5,-403.5 125.5,-380.5 83.5,-380.5"/>
<text text-anchor="middle" x="104.5" y="-388.3" font-family="Helvetica,sans-Serif" font-size="14.00">bool</text>
</g>
<!-- Node10&#45;&gt;Node8 -->
<g id="edge11" class="edge"><title>Node10&#45;&gt;Node8</title>
<path fill="none" stroke="#9a32cd" stroke-dasharray="5,2" d="M135.798,-392C181.571,-392 269.857,-392 334.435,-392"/>
<polygon fill="#9a32cd" stroke="#9a32cd" points="135.643,-388.5 125.643,-392 135.643,-395.5 135.643,-388.5"/>
<text text-anchor="middle" x="262" y="-395.8" font-family="Helvetica,sans-Serif" font-size="14.00"> rotate</text>
</g>
<!-- Node11&#45;&gt;Node1 -->
<g id="edge12" class="edge"><title>Node11&#45;&gt;Node1</title>
<path fill="none" stroke="midnightblue" d="M445.195,-94.877C470.507,-117.351 506.164,-151.749 531,-187 583.998,-262.224 624.393,-365.521 639.754,-407.792"/>
<polygon fill="midnightblue" stroke="midnightblue" points="447.194,-91.9745 437.367,-88.0131 442.578,-97.2377 447.194,-91.9745"/>
</g>
<!-- Node12 -->
<g id="node12" class="node"><title>Node12</title>
<polygon fill="white" stroke="#bfbfbf" points="79.5,-0.5 79.5,-23.5 129.5,-23.5 129.5,-0.5 79.5,-0.5"/>
<text text-anchor="middle" x="104.5" y="-8.3" font-family="Helvetica,sans-Serif" font-size="14.00">string</text>
</g>
<!-- Node12&#45;&gt;Node11 -->
<g id="edge15" class="edge"><title>Node12&#45;&gt;Node11</title>
<path fill="none" stroke="#9a32cd" stroke-dasharray="5,2" d="M139.844,-12.5261C178.462,-13.6984 242.854,-17.4045 297,-29 320.24,-33.9769 345.252,-42.2553 366.038,-49.9937"/>
<polygon fill="#9a32cd" stroke="#9a32cd" points="139.753,-9.02259 129.665,-12.2582 139.569,-16.0202 139.753,-9.02259"/>
<text text-anchor="middle" x="262" y="-32.8" font-family="Helvetica,sans-Serif" font-size="14.00"> expression</text>
</g>
</g>
</svg>
