<?xml version="1.0" encoding="UTF-8" standalone="no"?>
<!DOCTYPE svg PUBLIC "-//W3C//DTD SVG 1.1//EN"
 "http://www.w3.org/Graphics/SVG/1.1/DTD/svg11.dtd">
<!-- Generated by graphviz version 2.38.0 (20140413.2041)
 -->
<!-- Title: FunctionParser Pages: 1 -->
<svg width="387pt" height="107pt"
 viewBox="0.00 0.00 386.50 107.00" xmlns="http://www.w3.org/2000/svg" xmlns:xlink="http://www.w3.org/1999/xlink">
<g id="graph0" class="graph" transform="scale(1 1) rotate(0) translate(4 103)">
<title>FunctionParser</title>
<polygon fill="white" stroke="none" points="-4,4 -4,-103 382.5,-103 382.5,4 -4,4"/>
<!-- Node1 -->
<g id="node1" class="node"><title>Node1</title>
<polygon fill="#bfbfbf" stroke="black" points="124,-75.5 124,-98.5 232,-98.5 232,-75.5 124,-75.5"/>
<text text-anchor="middle" x="178" y="-83.3" font-family="Helvetica,sans-Serif" font-size="14.00">FunctionParser</text>
</g>
<!-- Node2 -->
<g id="node2" class="node"><title>Node2</title>
<g id="a_node2"><a xlink:href="classEquationData_1_1Diffusion__B.html" target="_top" xlink:title="Class containing a positive scalar coefficient. ">
<polygon fill="white" stroke="black" points="0,-0.5 0,-38.5 158,-38.5 158,-0.5 0,-0.5"/>
<text text-anchor="start" x="8" y="-23.3" font-family="Helvetica,sans-Serif" font-size="14.00">EquationData::Diffusion</text>
<text text-anchor="middle" x="79" y="-8.3" font-family="Helvetica,sans-Serif" font-size="14.00">_B&lt; 3 &gt;</text>
</a>
</g>
</g>
<!-- Node1&#45;&gt;Node2 -->
<g id="edge1" class="edge"><title>Node1&#45;&gt;Node2</title>
<path fill="none" stroke="midnightblue" d="M153.747,-69.954C139.442,-60.4894 121.295,-48.4831 106.464,-38.6706"/>
<polygon fill="midnightblue" stroke="midnightblue" points="151.823,-72.8774 162.094,-75.4763 155.685,-67.0395 151.823,-72.8774"/>
</g>
<!-- Node3 -->
<g id="node3" class="node"><title>Node3</title>
<g id="a_node3"><a xlink:href="classEquationData_1_1DiffusionInverse__B.html" target="_top" xlink:title="Class containing the inverse of a positive scalar coefficient. ">
<polygon fill="white" stroke="black" points="175.5,-0.5 175.5,-38.5 378.5,-38.5 378.5,-0.5 175.5,-0.5"/>
<text text-anchor="start" x="183.5" y="-23.3" font-family="Helvetica,sans-Serif" font-size="14.00">EquationData::DiffusionInverse</text>
<text text-anchor="middle" x="277" y="-8.3" font-family="Helvetica,sans-Serif" font-size="14.00">_B&lt; 3 &gt;</text>
</a>
</g>
</g>
<!-- Node1&#45;&gt;Node3 -->
<g id="edge2" class="edge"><title>Node1&#45;&gt;Node3</title>
<path fill="none" stroke="midnightblue" d="M202.253,-69.954C216.558,-60.4894 234.705,-48.4831 249.536,-38.6706"/>
<polygon fill="midnightblue" stroke="midnightblue" points="200.315,-67.0395 193.906,-75.4763 204.177,-72.8774 200.315,-67.0395"/>
</g>
</g>
</svg>
