<?xml version="1.0" encoding="UTF-8" standalone="no"?>
<!DOCTYPE svg PUBLIC "-//W3C//DTD SVG 1.1//EN"
 "http://www.w3.org/Graphics/SVG/1.1/DTD/svg11.dtd">
<!-- Generated by graphviz version 2.38.0 (20140413.2041)
 -->
<!-- Title: RTDQ::RTDQ_PostProcessor Pages: 1 -->
<svg width="563pt" height="378pt"
 viewBox="0.00 0.00 562.50 378.00" xmlns="http://www.w3.org/2000/svg" xmlns:xlink="http://www.w3.org/1999/xlink">
<g id="graph0" class="graph" transform="scale(1 1) rotate(0) translate(4 374)">
<title>RTDQ::RTDQ_PostProcessor</title>
<polygon fill="white" stroke="none" points="-4,4 -4,-374 558.5,-374 558.5,4 -4,4"/>
<!-- Node1 -->
<g id="node1" class="node"><title>Node1</title>
<polygon fill="#bfbfbf" stroke="black" points="43,-0.5 43,-23.5 240,-23.5 240,-0.5 43,-0.5"/>
<text text-anchor="middle" x="141.5" y="-8.3" font-family="Helvetica,sans-Serif" font-size="14.00">RTDQ::RTDQ_PostProcessor</text>
</g>
<!-- Node2 -->
<g id="node2" class="node"><title>Node2</title>
<g id="a_node2"><a xlink:href="classDataPostprocessor.html" target="_top" xlink:title="DataPostprocessor\&lt; 3 \&gt;">
<polygon fill="white" stroke="black" points="0,-75.5 0,-98.5 163,-98.5 163,-75.5 0,-75.5"/>
<text text-anchor="middle" x="81.5" y="-83.3" font-family="Helvetica,sans-Serif" font-size="14.00">DataPostprocessor&lt; 3 &gt;</text>
</a>
</g>
</g>
<!-- Node2&#45;&gt;Node1 -->
<g id="edge1" class="edge"><title>Node2&#45;&gt;Node1</title>
<path fill="none" stroke="midnightblue" d="M96.8466,-67.3283C108.176,-53.544 123.202,-35.2629 132.61,-23.8156"/>
<polygon fill="midnightblue" stroke="midnightblue" points="93.999,-65.2808 90.3532,-75.2286 99.4068,-69.7256 93.999,-65.2808"/>
</g>
<!-- Node3 -->
<g id="node3" class="node"><title>Node3</title>
<g id="a_node3"><a xlink:href="classEquationData_1_1DiffusionInverse__A.html" target="_top" xlink:title="Class containing the inverse of a positive tensor. ">
<polygon fill="white" stroke="black" points="181,-75.5 181,-98.5 400,-98.5 400,-75.5 181,-75.5"/>
<text text-anchor="middle" x="290.5" y="-83.3" font-family="Helvetica,sans-Serif" font-size="14.00">EquationData::DiffusionInverse_A</text>
</a>
</g>
</g>
<!-- Node3&#45;&gt;Node1 -->
<g id="edge2" class="edge"><title>Node3&#45;&gt;Node1</title>
<path fill="none" stroke="#9a32cd" stroke-dasharray="5,2" d="M259.624,-70.8731C230.82,-56.761 188.584,-36.0679 163.192,-23.6276"/>
<polygon fill="#9a32cd" stroke="#9a32cd" points="258.314,-74.1285 268.834,-75.3852 261.394,-67.8424 258.314,-74.1285"/>
<text text-anchor="middle" x="260" y="-45.8" font-family="Helvetica,sans-Serif" font-size="14.00"> a_inverse</text>
</g>
<!-- Node4 -->
<g id="node4" class="node"><title>Node4</title>
<g id="a_node4"><a xlink:href="classTensorFunction.html" target="_top" xlink:title="TensorFunction\&lt; 2, 3 \&gt;">
<polygon fill="white" stroke="black" points="162,-144 162,-167 319,-167 319,-144 162,-144"/>
<text text-anchor="middle" x="240.5" y="-151.8" font-family="Helvetica,sans-Serif" font-size="14.00">TensorFunction&lt; 2, 3 &gt;</text>
</a>
</g>
</g>
<!-- Node4&#45;&gt;Node3 -->
<g id="edge3" class="edge"><title>Node4&#45;&gt;Node3</title>
<path fill="none" stroke="midnightblue" d="M254.556,-135.806C263.514,-123.892 274.807,-108.871 282.32,-98.8788"/>
<polygon fill="midnightblue" stroke="midnightblue" points="251.746,-133.719 248.533,-143.816 257.34,-137.926 251.746,-133.719"/>
</g>
<!-- Node5 -->
<g id="node5" class="node"><title>Node5</title>
<g id="a_node5"><a xlink:href="classEquationData_1_1Diffusion__A__Data.html" target="_top" xlink:title="Class containing data to construct a positive tensor. ">
<polygon fill="white" stroke="black" points="337.5,-136.5 337.5,-174.5 495.5,-174.5 495.5,-136.5 337.5,-136.5"/>
<text text-anchor="start" x="345.5" y="-159.3" font-family="Helvetica,sans-Serif" font-size="14.00">EquationData::Diffusion</text>
<text text-anchor="middle" x="416.5" y="-144.3" font-family="Helvetica,sans-Serif" font-size="14.00">_A_Data</text>
</a>
</g>
</g>
<!-- Node5&#45;&gt;Node3 -->
<g id="edge4" class="edge"><title>Node5&#45;&gt;Node3</title>
<path fill="none" stroke="midnightblue" d="M373.223,-131.66C352.033,-120.476 327.533,-107.545 310.727,-98.6752"/>
<polygon fill="midnightblue" stroke="midnightblue" points="371.592,-134.756 382.07,-136.329 374.86,-128.566 371.592,-134.756"/>
</g>
<!-- Node6 -->
<g id="node6" class="node"><title>Node6</title>
<polygon fill="white" stroke="#bfbfbf" points="246,-346.5 246,-369.5 303,-369.5 303,-346.5 246,-346.5"/>
<text text-anchor="middle" x="274.5" y="-354.3" font-family="Helvetica,sans-Serif" font-size="14.00">double</text>
</g>
<!-- Node6&#45;&gt;Node5 -->
<g id="edge5" class="edge"><title>Node6&#45;&gt;Node5</title>
<path fill="none" stroke="#9a32cd" stroke-dasharray="5,2" d="M274.615,-336.014C275.926,-301.76 283.399,-233.595 320.5,-193 327.477,-185.366 336.22,-179.318 345.571,-174.528"/>
<polygon fill="#9a32cd" stroke="#9a32cd" points="271.11,-336.161 274.372,-346.241 278.108,-336.327 271.11,-336.161"/>
<text text-anchor="middle" x="348" y="-316.8" font-family="Helvetica,sans-Serif" font-size="14.00"> alpha_</text>
<text text-anchor="middle" x="348" y="-301.8" font-family="Helvetica,sans-Serif" font-size="14.00">scale_x</text>
<text text-anchor="middle" x="348" y="-286.8" font-family="Helvetica,sans-Serif" font-size="14.00">scale_y</text>
<text text-anchor="middle" x="348" y="-271.8" font-family="Helvetica,sans-Serif" font-size="14.00">gamma_</text>
<text text-anchor="middle" x="348" y="-256.8" font-family="Helvetica,sans-Serif" font-size="14.00">beta_</text>
<text text-anchor="middle" x="348" y="-241.8" font-family="Helvetica,sans-Serif" font-size="14.00">scale_z</text>
<text text-anchor="middle" x="348" y="-226.8" font-family="Helvetica,sans-Serif" font-size="14.00">alpha_x</text>
<text text-anchor="middle" x="348" y="-211.8" font-family="Helvetica,sans-Serif" font-size="14.00">alpha_y</text>
<text text-anchor="middle" x="348" y="-196.8" font-family="Helvetica,sans-Serif" font-size="14.00">alpha_z</text>
</g>
<!-- Node7 -->
<g id="node7" class="node"><title>Node7</title>
<polygon fill="white" stroke="#bfbfbf" points="321,-346.5 321,-369.5 426,-369.5 426,-346.5 321,-346.5"/>
<text text-anchor="middle" x="373.5" y="-354.3" font-family="Helvetica,sans-Serif" font-size="14.00">Tensor&lt; 2, 3 &gt;</text>
</g>
<!-- Node7&#45;&gt;Node5 -->
<g id="edge6" class="edge"><title>Node7&#45;&gt;Node5</title>
<path fill="none" stroke="#9a32cd" stroke-dasharray="5,2" d="M377.909,-336.442C386.326,-297.197 404.557,-212.186 412.578,-174.786"/>
<polygon fill="#9a32cd" stroke="#9a32cd" points="374.487,-335.709 375.812,-346.22 381.331,-337.177 374.487,-335.709"/>
<text text-anchor="middle" x="417.5" y="-256.8" font-family="Helvetica,sans-Serif" font-size="14.00"> rot</text>
</g>
<!-- Node8 -->
<g id="node8" class="node"><title>Node8</title>
<polygon fill="white" stroke="#bfbfbf" points="444,-346.5 444,-369.5 475,-369.5 475,-346.5 444,-346.5"/>
<text text-anchor="middle" x="459.5" y="-354.3" font-family="Helvetica,sans-Serif" font-size="14.00">int</text>
</g>
<!-- Node8&#45;&gt;Node5 -->
<g id="edge7" class="edge"><title>Node8&#45;&gt;Node5</title>
<path fill="none" stroke="#9a32cd" stroke-dasharray="5,2" d="M457.452,-336.316C454.009,-304.892 445.978,-243.442 431.5,-193 429.761,-186.942 427.335,-180.524 424.94,-174.787"/>
<polygon fill="#9a32cd" stroke="#9a32cd" points="453.991,-336.879 458.516,-346.46 460.953,-336.149 453.991,-336.879"/>
<text text-anchor="middle" x="468" y="-271.8" font-family="Helvetica,sans-Serif" font-size="14.00"> k_x</text>
<text text-anchor="middle" x="468" y="-256.8" font-family="Helvetica,sans-Serif" font-size="14.00">k_y</text>
<text text-anchor="middle" x="468" y="-241.8" font-family="Helvetica,sans-Serif" font-size="14.00">k_z</text>
</g>
<!-- Node9 -->
<g id="node9" class="node"><title>Node9</title>
<polygon fill="white" stroke="#bfbfbf" points="492.5,-346.5 492.5,-369.5 534.5,-369.5 534.5,-346.5 492.5,-346.5"/>
<text text-anchor="middle" x="513.5" y="-354.3" font-family="Helvetica,sans-Serif" font-size="14.00">bool</text>
</g>
<!-- Node9&#45;&gt;Node5 -->
<g id="edge8" class="edge"><title>Node9&#45;&gt;Node5</title>
<path fill="none" stroke="#9a32cd" stroke-dasharray="5,2" d="M515.281,-336.194C517.044,-302.736 515.88,-236.347 484.5,-193 479.157,-185.62 471.855,-179.585 464.011,-174.701"/>
<polygon fill="#9a32cd" stroke="#9a32cd" points="511.787,-335.985 514.61,-346.197 518.772,-336.454 511.787,-335.985"/>
<text text-anchor="middle" x="535" y="-256.8" font-family="Helvetica,sans-Serif" font-size="14.00"> rotate</text>
</g>
</g>
</svg>
