<?xml version="1.0" encoding="UTF-8" standalone="no"?>
<!DOCTYPE svg PUBLIC "-//W3C//DTD SVG 1.1//EN"
 "http://www.w3.org/Graphics/SVG/1.1/DTD/svg11.dtd">
<!-- Generated by graphviz version 2.38.0 (20140413.2041)
 -->
<!-- Title: NedRT::NedRTStd Pages: 1 -->
<svg width="776pt" height="666pt"
 viewBox="0.00 0.00 776.00 666.09" xmlns="http://www.w3.org/2000/svg" xmlns:xlink="http://www.w3.org/1999/xlink">
<g id="graph0" class="graph" transform="scale(1 1) rotate(0) translate(4 662.089)">
<title>NedRT::NedRTStd</title>
<polygon fill="white" stroke="none" points="-4,4 -4,-662.089 772,-662.089 772,4 -4,4"/>
<!-- Node1 -->
<g id="node1" class="node"><title>Node1</title>
<polygon fill="#bfbfbf" stroke="black" points="638,-287.589 638,-310.589 768,-310.589 768,-287.589 638,-287.589"/>
<text text-anchor="middle" x="703" y="-295.389" font-family="Helvetica,sans-Serif" font-size="14.00">NedRT::NedRTStd</text>
</g>
<!-- Node2 -->
<g id="node2" class="node"><title>Node2</title>
<polygon fill="white" stroke="#bfbfbf" points="259.5,-606.589 259.5,-629.589 380.5,-629.589 380.5,-606.589 259.5,-606.589"/>
<text text-anchor="middle" x="320" y="-614.389" font-family="Helvetica,sans-Serif" font-size="14.00">DoFHandler&lt; 3 &gt;</text>
</g>
<!-- Node2&#45;&gt;Node1 -->
<g id="edge1" class="edge"><title>Node2&#45;&gt;Node1</title>
<path fill="none" stroke="#9a32cd" stroke-dasharray="5,2" d="M377.894,-631.592C443.84,-643.642 552.125,-651.816 620,-596.089 666.097,-558.242 694.106,-360.966 700.562,-310.735"/>
<polygon fill="#9a32cd" stroke="#9a32cd" points="378.167,-628.081 367.687,-629.634 376.848,-634.956 378.167,-628.081"/>
<text text-anchor="middle" x="536" y="-644.889" font-family="Helvetica,sans-Serif" font-size="14.00"> dof_handler</text>
</g>
<!-- Node3 -->
<g id="node3" class="node"><title>Node3</title>
<g id="a_node3"><a xlink:href="structNedRT_1_1ParametersStd.html" target="_top" xlink:title="NedRT::ParametersStd">
<polygon fill="white" stroke="black" points="241,-564.589 241,-587.589 399,-587.589 399,-564.589 241,-564.589"/>
<text text-anchor="middle" x="320" y="-572.389" font-family="Helvetica,sans-Serif" font-size="14.00">NedRT::ParametersStd</text>
</a>
</g>
</g>
<!-- Node3&#45;&gt;Node1 -->
<g id="edge2" class="edge"><title>Node3&#45;&gt;Node1</title>
<path fill="none" stroke="#9a32cd" stroke-dasharray="5,2" d="M409.425,-578.866C485.697,-579.418 588.411,-575.161 620,-550.089 697.74,-488.387 702.637,-351.529 702.298,-310.765"/>
<polygon fill="#9a32cd" stroke="#9a32cd" points="409.355,-575.365 399.32,-578.764 409.284,-582.365 409.355,-575.365"/>
<text text-anchor="middle" x="536" y="-582.889" font-family="Helvetica,sans-Serif" font-size="14.00"> parameters</text>
</g>
<!-- Node4 -->
<g id="node4" class="node"><title>Node4</title>
<polygon fill="white" stroke="#bfbfbf" points="9.5,-617.589 9.5,-640.589 40.5,-640.589 40.5,-617.589 9.5,-617.589"/>
<text text-anchor="middle" x="25" y="-625.389" font-family="Helvetica,sans-Serif" font-size="14.00">int</text>
</g>
<!-- Node4&#45;&gt;Node3 -->
<g id="edge3" class="edge"><title>Node4&#45;&gt;Node3</title>
<path fill="none" stroke="#9a32cd" stroke-dasharray="5,2" d="M51.0487,-628.549C83.4453,-627.211 141.261,-622.632 188,-607.089 196.684,-604.201 197.389,-600.187 206,-597.089 217.077,-593.103 229.051,-589.838 240.919,-587.175"/>
<polygon fill="#9a32cd" stroke="#9a32cd" points="50.5851,-625.063 40.7095,-628.9 50.8224,-632.059 50.5851,-625.063"/>
<text text-anchor="middle" x="128" y="-646.889" font-family="Helvetica,sans-Serif" font-size="14.00"> transfer_to_level</text>
<text text-anchor="middle" x="128" y="-631.889" font-family="Helvetica,sans-Serif" font-size="14.00">n_refine</text>
</g>
<!-- Node5 -->
<g id="node5" class="node"><title>Node5</title>
<polygon fill="white" stroke="#bfbfbf" points="0,-564.589 0,-587.589 50,-587.589 50,-564.589 0,-564.589"/>
<text text-anchor="middle" x="25" y="-572.389" font-family="Helvetica,sans-Serif" font-size="14.00">string</text>
</g>
<!-- Node5&#45;&gt;Node3 -->
<g id="edge4" class="edge"><title>Node5&#45;&gt;Node3</title>
<path fill="none" stroke="#9a32cd" stroke-dasharray="5,2" d="M60.6763,-576.089C104.778,-576.089 182.239,-576.089 240.868,-576.089"/>
<polygon fill="#9a32cd" stroke="#9a32cd" points="60.4771,-572.589 50.4771,-576.089 60.477,-579.589 60.4771,-572.589"/>
<text text-anchor="middle" x="128" y="-594.889" font-family="Helvetica,sans-Serif" font-size="14.00"> filename_output</text>
<text text-anchor="middle" x="128" y="-579.889" font-family="Helvetica,sans-Serif" font-size="14.00">dirname_output</text>
</g>
<!-- Node6 -->
<g id="node6" class="node"><title>Node6</title>
<polygon fill="white" stroke="#bfbfbf" points="4,-451.589 4,-474.589 46,-474.589 46,-451.589 4,-451.589"/>
<text text-anchor="middle" x="25" y="-459.389" font-family="Helvetica,sans-Serif" font-size="14.00">bool</text>
</g>
<!-- Node6&#45;&gt;Node3 -->
<g id="edge5" class="edge"><title>Node6&#45;&gt;Node3</title>
<path fill="none" stroke="#9a32cd" stroke-dasharray="5,2" d="M55.9273,-457.356C91.8477,-452.329 151.761,-450.119 188,-482.089 213.059,-504.196 181.696,-532.155 206,-555.089 215.651,-564.196 227.913,-569.988 240.778,-573.574"/>
<polygon fill="#9a32cd" stroke="#9a32cd" points="55.3791,-453.899 46.0372,-458.897 56.4568,-460.816 55.3791,-453.899"/>
<text text-anchor="middle" x="128" y="-560.889" font-family="Helvetica,sans-Serif" font-size="14.00"> use_exact_solution</text>
<text text-anchor="middle" x="128" y="-545.889" font-family="Helvetica,sans-Serif" font-size="14.00">renumber_dofs</text>
<text text-anchor="middle" x="128" y="-530.889" font-family="Helvetica,sans-Serif" font-size="14.00">degree</text>
<text text-anchor="middle" x="128" y="-515.889" font-family="Helvetica,sans-Serif" font-size="14.00">use_direct_solver</text>
<text text-anchor="middle" x="128" y="-500.889" font-family="Helvetica,sans-Serif" font-size="14.00">verbose</text>
<text text-anchor="middle" x="128" y="-485.889" font-family="Helvetica,sans-Serif" font-size="14.00">compute_solution</text>
</g>
<!-- Node7 -->
<g id="node7" class="node"><title>Node7</title>
<polygon fill="white" stroke="#bfbfbf" points="250,-522.589 250,-545.589 390,-545.589 390,-522.589 250,-522.589"/>
<text text-anchor="middle" x="320" y="-530.389" font-family="Helvetica,sans-Serif" font-size="14.00">ConditionalOStream</text>
</g>
<!-- Node7&#45;&gt;Node1 -->
<g id="edge6" class="edge"><title>Node7&#45;&gt;Node1</title>
<path fill="none" stroke="#9a32cd" stroke-dasharray="5,2" d="M400.417,-532.59C483.02,-530.347 602.721,-524.91 620,-512.089 687.779,-461.795 699.536,-347.738 701.574,-310.841"/>
<polygon fill="#9a32cd" stroke="#9a32cd" points="400.19,-529.094 390.285,-532.854 400.373,-536.092 400.19,-529.094"/>
<text text-anchor="middle" x="536" y="-534.889" font-family="Helvetica,sans-Serif" font-size="14.00"> pcout</text>
</g>
<!-- Node8 -->
<g id="node8" class="node"><title>Node8</title>
<polygon fill="white" stroke="#bfbfbf" points="206,-450.589 206,-503.589 434,-503.589 434,-450.589 206,-450.589"/>
<text text-anchor="start" x="214" y="-488.389" font-family="Helvetica,sans-Serif" font-size="14.00">shared_ptr&lt; typename</text>
<text text-anchor="start" x="214" y="-473.389" font-family="Helvetica,sans-Serif" font-size="14.00"> LinearSolvers::InnerPreconditioner</text>
<text text-anchor="middle" x="320" y="-458.389" font-family="Helvetica,sans-Serif" font-size="14.00">&lt; 3 &gt;::type &gt;</text>
</g>
<!-- Node8&#45;&gt;Node1 -->
<g id="edge7" class="edge"><title>Node8&#45;&gt;Node1</title>
<path fill="none" stroke="#9a32cd" stroke-dasharray="5,2" d="M444.362,-494.729C501.992,-496.723 568.974,-489.505 620,-456.089 672.994,-421.384 693.798,-340.871 699.902,-310.745"/>
<polygon fill="#9a32cd" stroke="#9a32cd" points="444.234,-491.22 434.089,-494.274 443.924,-498.213 444.234,-491.22"/>
<text text-anchor="middle" x="536" y="-498.889" font-family="Helvetica,sans-Serif" font-size="14.00"> inner_schur_preconditioner</text>
</g>
<!-- Node9 -->
<g id="node9" class="node"><title>Node9</title>
<polygon fill="white" stroke="#bfbfbf" points="275.5,-408.589 275.5,-431.589 364.5,-431.589 364.5,-408.589 275.5,-408.589"/>
<text text-anchor="middle" x="320" y="-416.389" font-family="Helvetica,sans-Serif" font-size="14.00">BlockVector</text>
</g>
<!-- Node9&#45;&gt;Node1 -->
<g id="edge8" class="edge"><title>Node9&#45;&gt;Node1</title>
<path fill="none" stroke="#9a32cd" stroke-dasharray="5,2" d="M374.445,-409.733C398.158,-405.284 426.429,-400.179 452,-396.089 526.417,-384.184 551.659,-404.855 620,-373.089 651.475,-358.459 679.433,-327.524 693.114,-310.654"/>
<polygon fill="#9a32cd" stroke="#9a32cd" points="373.759,-406.301 364.582,-411.595 375.058,-413.179 373.759,-406.301"/>
<text text-anchor="middle" x="536" y="-444.889" font-family="Helvetica,sans-Serif" font-size="14.00"> locally_relevant_solution</text>
<text text-anchor="start" x="460.5" y="-429.889" font-family="Helvetica,sans-Serif" font-size="14.00">locally_relevant_exact</text>
<text text-anchor="middle" x="536" y="-414.889" font-family="Helvetica,sans-Serif" font-size="14.00">_solution</text>
<text text-anchor="middle" x="536" y="-399.889" font-family="Helvetica,sans-Serif" font-size="14.00">system_rhs</text>
</g>
<!-- Node10 -->
<g id="node10" class="node"><title>Node10</title>
<polygon fill="white" stroke="#bfbfbf" points="256,-351.089 256,-389.089 384,-389.089 384,-351.089 256,-351.089"/>
<text text-anchor="start" x="264" y="-373.889" font-family="Helvetica,sans-Serif" font-size="14.00">AffineConstraints&lt;</text>
<text text-anchor="middle" x="320" y="-358.889" font-family="Helvetica,sans-Serif" font-size="14.00"> double &gt;</text>
</g>
<!-- Node10&#45;&gt;Node1 -->
<g id="edge9" class="edge"><title>Node10&#45;&gt;Node1</title>
<path fill="none" stroke="#9a32cd" stroke-dasharray="5,2" d="M394.26,-362.95C468.687,-355.308 578.707,-342.831 620,-332.089 640.049,-326.873 661.756,-317.981 677.797,-310.741"/>
<polygon fill="#9a32cd" stroke="#9a32cd" points="393.599,-359.499 384.005,-363.995 394.309,-366.463 393.599,-359.499"/>
<text text-anchor="middle" x="536" y="-360.889" font-family="Helvetica,sans-Serif" font-size="14.00"> constraints</text>
</g>
<!-- Node11 -->
<g id="node11" class="node"><title>Node11</title>
<polygon fill="white" stroke="#bfbfbf" points="289,-308.589 289,-331.589 351,-331.589 351,-308.589 289,-308.589"/>
<text text-anchor="middle" x="320" y="-316.389" font-family="Helvetica,sans-Serif" font-size="14.00">string &amp;</text>
</g>
<!-- Node11&#45;&gt;Node1 -->
<g id="edge10" class="edge"><title>Node11&#45;&gt;Node1</title>
<path fill="none" stroke="#9a32cd" stroke-dasharray="5,2" d="M361.213,-317.872C427.137,-314.239 558.748,-306.985 637.727,-302.631"/>
<polygon fill="#9a32cd" stroke="#9a32cd" points="361.007,-314.378 351.215,-318.423 361.392,-321.368 361.007,-314.378"/>
<text text-anchor="middle" x="536" y="-316.889" font-family="Helvetica,sans-Serif" font-size="14.00"> parameter_filename</text>
</g>
<!-- Node12 -->
<g id="node12" class="node"><title>Node12</title>
<polygon fill="white" stroke="#bfbfbf" points="273.5,-266.589 273.5,-289.589 366.5,-289.589 366.5,-266.589 273.5,-266.589"/>
<text text-anchor="middle" x="320" y="-274.389" font-family="Helvetica,sans-Serif" font-size="14.00">TimerOutput</text>
</g>
<!-- Node12&#45;&gt;Node1 -->
<g id="edge11" class="edge"><title>Node12&#45;&gt;Node1</title>
<path fill="none" stroke="#9a32cd" stroke-dasharray="5,2" d="M376.76,-276.975C436.924,-276.337 535.477,-276.928 620,-285.089 626.613,-285.727 633.496,-286.588 640.34,-287.571"/>
<polygon fill="#9a32cd" stroke="#9a32cd" points="376.67,-273.476 366.714,-277.097 376.755,-280.475 376.67,-273.476"/>
<text text-anchor="middle" x="536" y="-288.889" font-family="Helvetica,sans-Serif" font-size="14.00"> computing_timer</text>
</g>
<!-- Node13 -->
<g id="node13" class="node"><title>Node13</title>
<polygon fill="white" stroke="#bfbfbf" points="264.5,-224.589 264.5,-247.589 375.5,-247.589 375.5,-224.589 264.5,-224.589"/>
<text text-anchor="middle" x="320" y="-232.389" font-family="Helvetica,sans-Serif" font-size="14.00">FESystem&lt; 3 &gt;</text>
</g>
<!-- Node13&#45;&gt;Node1 -->
<g id="edge12" class="edge"><title>Node13&#45;&gt;Node1</title>
<path fill="none" stroke="#9a32cd" stroke-dasharray="5,2" d="M385.82,-234.129C447.197,-233.888 541.398,-237.731 620,-259.089 643.081,-265.36 667.463,-278.15 683.58,-287.586"/>
<polygon fill="#9a32cd" stroke="#9a32cd" points="385.479,-230.631 375.507,-234.209 385.534,-237.631 385.479,-230.631"/>
<text text-anchor="middle" x="536" y="-262.889" font-family="Helvetica,sans-Serif" font-size="14.00"> fe</text>
</g>
<!-- Node14 -->
<g id="node14" class="node"><title>Node14</title>
<polygon fill="white" stroke="#bfbfbf" points="255,-182.589 255,-205.589 385,-205.589 385,-182.589 255,-182.589"/>
<text text-anchor="middle" x="320" y="-190.389" font-family="Helvetica,sans-Serif" font-size="14.00">BlockSparseMatrix</text>
</g>
<!-- Node14&#45;&gt;Node1 -->
<g id="edge13" class="edge"><title>Node14&#45;&gt;Node1</title>
<path fill="none" stroke="#9a32cd" stroke-dasharray="5,2" d="M395.37,-185.897C458.135,-182.157 548.871,-184.374 620,-217.089 654.021,-232.736 681.893,-268.933 694.591,-287.558"/>
<polygon fill="#9a32cd" stroke="#9a32cd" points="394.903,-182.42 385.155,-186.573 395.365,-189.405 394.903,-182.42"/>
<text text-anchor="middle" x="536" y="-220.889" font-family="Helvetica,sans-Serif" font-size="14.00"> system_matrix</text>
</g>
<!-- Node15 -->
<g id="node15" class="node"><title>Node15</title>
<polygon fill="white" stroke="#bfbfbf" points="254.5,-140.589 254.5,-163.589 385.5,-163.589 385.5,-140.589 254.5,-140.589"/>
<text text-anchor="middle" x="320" y="-148.389" font-family="Helvetica,sans-Serif" font-size="14.00">vector&lt; IndexSet &gt;</text>
</g>
<!-- Node15&#45;&gt;Node1 -->
<g id="edge14" class="edge"><title>Node15&#45;&gt;Node1</title>
<path fill="none" stroke="#9a32cd" stroke-dasharray="5,2" d="M395.701,-143.342C471.734,-135.923 583.457,-129.559 620,-151.089 671.883,-181.657 693.255,-258.173 699.711,-287.447"/>
<polygon fill="#9a32cd" stroke="#9a32cd" points="395.287,-139.866 385.686,-144.346 395.985,-146.831 395.287,-139.866"/>
<text text-anchor="middle" x="536" y="-169.889" font-family="Helvetica,sans-Serif" font-size="14.00"> relevant_partitioning</text>
<text text-anchor="middle" x="536" y="-154.889" font-family="Helvetica,sans-Serif" font-size="14.00">owned_partitioning</text>
</g>
<!-- Node16 -->
<g id="node16" class="node"><title>Node16</title>
<polygon fill="white" stroke="#bfbfbf" points="275,-98.5887 275,-121.589 365,-121.589 365,-98.5887 275,-98.5887"/>
<text text-anchor="middle" x="320" y="-106.389" font-family="Helvetica,sans-Serif" font-size="14.00">MPI_Comm</text>
</g>
<!-- Node16&#45;&gt;Node1 -->
<g id="edge15" class="edge"><title>Node16&#45;&gt;Node1</title>
<path fill="none" stroke="#9a32cd" stroke-dasharray="5,2" d="M375.273,-104.856C450.412,-98.7192 581.264,-92.3718 620,-118.089 680.355,-158.159 696.869,-254.286 700.855,-287.538"/>
<polygon fill="#9a32cd" stroke="#9a32cd" points="374.726,-101.389 365.055,-105.717 375.314,-108.365 374.726,-101.389"/>
<text text-anchor="middle" x="536" y="-121.889" font-family="Helvetica,sans-Serif" font-size="14.00"> mpi_communicator</text>
</g>
<!-- Node17 -->
<g id="node17" class="node"><title>Node17</title>
<polygon fill="white" stroke="#bfbfbf" points="285,-56.5887 285,-79.5887 355,-79.5887 355,-56.5887 285,-56.5887"/>
<text text-anchor="middle" x="320" y="-64.3887" font-family="Helvetica,sans-Serif" font-size="14.00">IndexSet</text>
</g>
<!-- Node17&#45;&gt;Node1 -->
<g id="edge16" class="edge"><title>Node17&#45;&gt;Node1</title>
<path fill="none" stroke="#9a32cd" stroke-dasharray="5,2" d="M365.543,-64.2239C438.817,-58.8012 580.605,-52.5318 620,-81.0887 690.062,-131.876 700.29,-250.09 701.76,-287.512"/>
<polygon fill="#9a32cd" stroke="#9a32cd" points="364.952,-60.7588 355.249,-65.0135 365.488,-67.7383 364.952,-60.7588"/>
<text text-anchor="middle" x="536" y="-84.8887" font-family="Helvetica,sans-Serif" font-size="14.00"> locally_relevant_dofs</text>
</g>
<!-- Node18 -->
<g id="node18" class="node"><title>Node18</title>
<polygon fill="white" stroke="#bfbfbf" points="257,-14.5887 257,-37.5887 383,-37.5887 383,-14.5887 257,-14.5887"/>
<text text-anchor="middle" x="320" y="-22.3887" font-family="Helvetica,sans-Serif" font-size="14.00">Triangulation&lt; 3 &gt;</text>
</g>
<!-- Node18&#45;&gt;Node1 -->
<g id="edge17" class="edge"><title>Node18&#45;&gt;Node1</title>
<path fill="none" stroke="#9a32cd" stroke-dasharray="5,2" d="M373.258,-12.3158C438.194,1.45438 549.074,13.5711 620,-41.0887 700.969,-103.489 703.545,-246.091 702.488,-287.572"/>
<polygon fill="#9a32cd" stroke="#9a32cd" points="372.253,-8.9535 363.244,-14.53 373.764,-15.7884 372.253,-8.9535"/>
<text text-anchor="middle" x="536" y="-44.8887" font-family="Helvetica,sans-Serif" font-size="14.00"> triangulation</text>
</g>
</g>
</svg>
