<?xml version="1.0" encoding="UTF-8" standalone="no"?>
<!DOCTYPE svg PUBLIC "-//W3C//DTD SVG 1.1//EN"
 "http://www.w3.org/Graphics/SVG/1.1/DTD/svg11.dtd">
<!-- Generated by graphviz version 2.38.0 (20140413.2041)
 -->
<!-- Title: QNed::QNedStd Pages: 1 -->
<svg width="762pt" height="663pt"
 viewBox="0.00 0.00 762.00 663.04" xmlns="http://www.w3.org/2000/svg" xmlns:xlink="http://www.w3.org/1999/xlink">
<g id="graph0" class="graph" transform="scale(1 1) rotate(0) translate(4 659.039)">
<title>QNed::QNedStd</title>
<polygon fill="white" stroke="none" points="-4,4 -4,-659.039 758,-659.039 758,4 -4,4"/>
<!-- Node1 -->
<g id="node1" class="node"><title>Node1</title>
<polygon fill="#bfbfbf" stroke="black" points="638,-286.539 638,-309.539 754,-309.539 754,-286.539 638,-286.539"/>
<text text-anchor="middle" x="696" y="-294.339" font-family="Helvetica,sans-Serif" font-size="14.00">QNed::QNedStd</text>
</g>
<!-- Node2 -->
<g id="node2" class="node"><title>Node2</title>
<polygon fill="white" stroke="#bfbfbf" points="259.5,-607.539 259.5,-630.539 380.5,-630.539 380.5,-607.539 259.5,-607.539"/>
<text text-anchor="middle" x="320" y="-615.339" font-family="Helvetica,sans-Serif" font-size="14.00">DoFHandler&lt; 3 &gt;</text>
</g>
<!-- Node2&#45;&gt;Node1 -->
<g id="edge1" class="edge"><title>Node2&#45;&gt;Node1</title>
<path fill="none" stroke="#9a32cd" stroke-dasharray="5,2" d="M378.315,-632.378C444.531,-644.152 552.948,-651.719 620,-595.039 665.285,-556.758 688.585,-359.804 693.84,-309.663"/>
<polygon fill="#9a32cd" stroke="#9a32cd" points="378.934,-628.933 368.462,-630.539 377.65,-635.814 378.934,-628.933"/>
<text text-anchor="middle" x="536" y="-643.839" font-family="Helvetica,sans-Serif" font-size="14.00"> dof_handler</text>
</g>
<!-- Node3 -->
<g id="node3" class="node"><title>Node3</title>
<polygon fill="white" stroke="#bfbfbf" points="250,-565.539 250,-588.539 390,-588.539 390,-565.539 250,-565.539"/>
<text text-anchor="middle" x="320" y="-573.339" font-family="Helvetica,sans-Serif" font-size="14.00">ConditionalOStream</text>
</g>
<!-- Node3&#45;&gt;Node1 -->
<g id="edge2" class="edge"><title>Node3&#45;&gt;Node1</title>
<path fill="none" stroke="#9a32cd" stroke-dasharray="5,2" d="M400.232,-577.579C477.379,-576.46 587.605,-569.965 620,-543.039 693.891,-481.62 696.484,-349.426 695.491,-309.615"/>
<polygon fill="#9a32cd" stroke="#9a32cd" points="400.009,-574.081 390.05,-577.698 400.091,-581.081 400.009,-574.081"/>
<text text-anchor="middle" x="536" y="-579.839" font-family="Helvetica,sans-Serif" font-size="14.00"> pcout</text>
</g>
<!-- Node4 -->
<g id="node4" class="node"><title>Node4</title>
<polygon fill="white" stroke="#bfbfbf" points="206,-493.539 206,-546.539 434,-546.539 434,-493.539 206,-493.539"/>
<text text-anchor="start" x="214" y="-531.339" font-family="Helvetica,sans-Serif" font-size="14.00">shared_ptr&lt; typename</text>
<text text-anchor="start" x="214" y="-516.339" font-family="Helvetica,sans-Serif" font-size="14.00"> LinearSolvers::InnerPreconditioner</text>
<text text-anchor="middle" x="320" y="-501.339" font-family="Helvetica,sans-Serif" font-size="14.00">&lt; 3 &gt;::type &gt;</text>
</g>
<!-- Node4&#45;&gt;Node1 -->
<g id="edge3" class="edge"><title>Node4&#45;&gt;Node1</title>
<path fill="none" stroke="#9a32cd" stroke-dasharray="5,2" d="M444.505,-524.046C514.141,-523.817 592.55,-518.593 620,-498.039 682.929,-450.917 693.066,-344.682 694.692,-309.556"/>
<polygon fill="#9a32cd" stroke="#9a32cd" points="444.302,-520.546 434.302,-524.045 444.301,-527.546 444.302,-520.546"/>
<text text-anchor="middle" x="536" y="-527.839" font-family="Helvetica,sans-Serif" font-size="14.00"> inner_schur_preconditioner</text>
</g>
<!-- Node5 -->
<g id="node5" class="node"><title>Node5</title>
<polygon fill="white" stroke="#bfbfbf" points="275.5,-450.539 275.5,-473.539 364.5,-473.539 364.5,-450.539 275.5,-450.539"/>
<text text-anchor="middle" x="320" y="-458.339" font-family="Helvetica,sans-Serif" font-size="14.00">BlockVector</text>
</g>
<!-- Node5&#45;&gt;Node1 -->
<g id="edge4" class="edge"><title>Node5&#45;&gt;Node1</title>
<path fill="none" stroke="#9a32cd" stroke-dasharray="5,2" d="M374.445,-451.683C398.158,-447.234 426.429,-442.129 452,-438.039 526.417,-426.134 556.487,-455.606 620,-415.039 660.057,-389.453 682.877,-333.96 691.268,-309.741"/>
<polygon fill="#9a32cd" stroke="#9a32cd" points="373.759,-448.251 364.582,-453.545 375.058,-455.129 373.759,-448.251"/>
<text text-anchor="middle" x="536" y="-486.839" font-family="Helvetica,sans-Serif" font-size="14.00"> locally_relevant_solution</text>
<text text-anchor="start" x="460.5" y="-471.839" font-family="Helvetica,sans-Serif" font-size="14.00">locally_relevant_exact</text>
<text text-anchor="middle" x="536" y="-456.839" font-family="Helvetica,sans-Serif" font-size="14.00">_solution</text>
<text text-anchor="middle" x="536" y="-441.839" font-family="Helvetica,sans-Serif" font-size="14.00">system_rhs</text>
</g>
<!-- Node6 -->
<g id="node6" class="node"><title>Node6</title>
<polygon fill="white" stroke="#bfbfbf" points="256,-393.039 256,-431.039 384,-431.039 384,-393.039 256,-393.039"/>
<text text-anchor="start" x="264" y="-415.839" font-family="Helvetica,sans-Serif" font-size="14.00">AffineConstraints&lt;</text>
<text text-anchor="middle" x="320" y="-400.839" font-family="Helvetica,sans-Serif" font-size="14.00"> double &gt;</text>
</g>
<!-- Node6&#45;&gt;Node1 -->
<g id="edge5" class="edge"><title>Node6&#45;&gt;Node1</title>
<path fill="none" stroke="#9a32cd" stroke-dasharray="5,2" d="M394.267,-404.722C479.52,-396.021 609.993,-382.046 620,-377.039 651.119,-361.467 676.25,-327.468 687.924,-309.575"/>
<polygon fill="#9a32cd" stroke="#9a32cd" points="393.699,-401.262 384.105,-405.756 394.408,-408.226 393.699,-401.262"/>
<text text-anchor="middle" x="536" y="-402.839" font-family="Helvetica,sans-Serif" font-size="14.00"> constraints</text>
</g>
<!-- Node7 -->
<g id="node7" class="node"><title>Node7</title>
<polygon fill="white" stroke="#bfbfbf" points="289,-350.539 289,-373.539 351,-373.539 351,-350.539 289,-350.539"/>
<text text-anchor="middle" x="320" y="-358.339" font-family="Helvetica,sans-Serif" font-size="14.00">string &amp;</text>
</g>
<!-- Node7&#45;&gt;Node1 -->
<g id="edge6" class="edge"><title>Node7&#45;&gt;Node1</title>
<path fill="none" stroke="#9a32cd" stroke-dasharray="5,2" d="M361.533,-362.112C419.732,-361.293 529.888,-356.282 620,-332.039 639.19,-326.876 659.652,-317.296 674.347,-309.617"/>
<polygon fill="#9a32cd" stroke="#9a32cd" points="361.25,-358.614 351.287,-362.22 361.323,-365.614 361.25,-358.614"/>
<text text-anchor="middle" x="536" y="-361.839" font-family="Helvetica,sans-Serif" font-size="14.00"> parameter_filename</text>
</g>
<!-- Node8 -->
<g id="node8" class="node"><title>Node8</title>
<g id="a_node8"><a xlink:href="structQNed_1_1ParametersStd.html" target="_top" xlink:title="QNed::ParametersStd">
<polygon fill="white" stroke="black" points="244.5,-308.539 244.5,-331.539 395.5,-331.539 395.5,-308.539 244.5,-308.539"/>
<text text-anchor="middle" x="320" y="-316.339" font-family="Helvetica,sans-Serif" font-size="14.00">QNed::ParametersStd</text>
</a>
</g>
</g>
<!-- Node8&#45;&gt;Node1 -->
<g id="edge7" class="edge"><title>Node8&#45;&gt;Node1</title>
<path fill="none" stroke="#9a32cd" stroke-dasharray="5,2" d="M406.033,-315.037C476.924,-310.867 575.977,-305.04 637.759,-301.406"/>
<polygon fill="#9a32cd" stroke="#9a32cd" points="405.563,-311.558 395.786,-315.639 405.974,-318.546 405.563,-311.558"/>
<text text-anchor="middle" x="536" y="-316.839" font-family="Helvetica,sans-Serif" font-size="14.00"> parameters</text>
</g>
<!-- Node9 -->
<g id="node9" class="node"><title>Node9</title>
<polygon fill="white" stroke="#bfbfbf" points="9.5,-361.539 9.5,-384.539 40.5,-384.539 40.5,-361.539 9.5,-361.539"/>
<text text-anchor="middle" x="25" y="-369.339" font-family="Helvetica,sans-Serif" font-size="14.00">int</text>
</g>
<!-- Node9&#45;&gt;Node8 -->
<g id="edge8" class="edge"><title>Node9&#45;&gt;Node8</title>
<path fill="none" stroke="#9a32cd" stroke-dasharray="5,2" d="M51.0487,-372.499C83.4453,-371.161 141.261,-366.581 188,-351.039 196.684,-348.151 197.389,-344.137 206,-341.039 218.11,-336.681 231.291,-333.186 244.235,-330.395"/>
<polygon fill="#9a32cd" stroke="#9a32cd" points="50.5851,-369.013 40.7095,-372.85 50.8224,-376.009 50.5851,-369.013"/>
<text text-anchor="middle" x="128" y="-390.839" font-family="Helvetica,sans-Serif" font-size="14.00"> transfer_to_level</text>
<text text-anchor="middle" x="128" y="-375.839" font-family="Helvetica,sans-Serif" font-size="14.00">n_refine</text>
</g>
<!-- Node10 -->
<g id="node10" class="node"><title>Node10</title>
<polygon fill="white" stroke="#bfbfbf" points="0,-308.539 0,-331.539 50,-331.539 50,-308.539 0,-308.539"/>
<text text-anchor="middle" x="25" y="-316.339" font-family="Helvetica,sans-Serif" font-size="14.00">string</text>
</g>
<!-- Node10&#45;&gt;Node8 -->
<g id="edge9" class="edge"><title>Node10&#45;&gt;Node8</title>
<path fill="none" stroke="#9a32cd" stroke-dasharray="5,2" d="M60.5908,-320.039C105.549,-320.039 185.279,-320.039 244.324,-320.039"/>
<polygon fill="#9a32cd" stroke="#9a32cd" points="60.4771,-316.539 50.4771,-320.039 60.477,-323.539 60.4771,-316.539"/>
<text text-anchor="middle" x="128" y="-338.839" font-family="Helvetica,sans-Serif" font-size="14.00"> filename_output</text>
<text text-anchor="middle" x="128" y="-323.839" font-family="Helvetica,sans-Serif" font-size="14.00">dirname_output</text>
</g>
<!-- Node11 -->
<g id="node11" class="node"><title>Node11</title>
<polygon fill="white" stroke="#bfbfbf" points="4,-195.539 4,-218.539 46,-218.539 46,-195.539 4,-195.539"/>
<text text-anchor="middle" x="25" y="-203.339" font-family="Helvetica,sans-Serif" font-size="14.00">bool</text>
</g>
<!-- Node11&#45;&gt;Node8 -->
<g id="edge10" class="edge"><title>Node11&#45;&gt;Node8</title>
<path fill="none" stroke="#9a32cd" stroke-dasharray="5,2" d="M55.9273,-201.306C91.8477,-196.279 151.761,-194.068 188,-226.039 213.059,-248.145 181.696,-276.105 206,-299.039 216.522,-308.967 230.147,-314.956 244.274,-318.441"/>
<polygon fill="#9a32cd" stroke="#9a32cd" points="55.3791,-197.849 46.0372,-202.847 56.4568,-204.766 55.3791,-197.849"/>
<text text-anchor="middle" x="128" y="-304.839" font-family="Helvetica,sans-Serif" font-size="14.00"> use_exact_solution</text>
<text text-anchor="middle" x="128" y="-289.839" font-family="Helvetica,sans-Serif" font-size="14.00">renumber_dofs</text>
<text text-anchor="middle" x="128" y="-274.839" font-family="Helvetica,sans-Serif" font-size="14.00">degree</text>
<text text-anchor="middle" x="128" y="-259.839" font-family="Helvetica,sans-Serif" font-size="14.00">use_direct_solver</text>
<text text-anchor="middle" x="128" y="-244.839" font-family="Helvetica,sans-Serif" font-size="14.00">verbose</text>
<text text-anchor="middle" x="128" y="-229.839" font-family="Helvetica,sans-Serif" font-size="14.00">compute_solution</text>
</g>
<!-- Node12 -->
<g id="node12" class="node"><title>Node12</title>
<polygon fill="white" stroke="#bfbfbf" points="273.5,-266.539 273.5,-289.539 366.5,-289.539 366.5,-266.539 273.5,-266.539"/>
<text text-anchor="middle" x="320" y="-274.339" font-family="Helvetica,sans-Serif" font-size="14.00">TimerOutput</text>
</g>
<!-- Node12&#45;&gt;Node1 -->
<g id="edge11" class="edge"><title>Node12&#45;&gt;Node1</title>
<path fill="none" stroke="#9a32cd" stroke-dasharray="5,2" d="M376.578,-275.079C436.784,-272.692 535.556,-271.159 620,-281.039 630.211,-282.233 641.064,-284.247 651.25,-286.479"/>
<polygon fill="#9a32cd" stroke="#9a32cd" points="376.371,-271.585 366.526,-275.5 376.664,-278.579 376.371,-271.585"/>
<text text-anchor="middle" x="536" y="-284.839" font-family="Helvetica,sans-Serif" font-size="14.00"> computing_timer</text>
</g>
<!-- Node13 -->
<g id="node13" class="node"><title>Node13</title>
<polygon fill="white" stroke="#bfbfbf" points="264.5,-224.539 264.5,-247.539 375.5,-247.539 375.5,-224.539 264.5,-224.539"/>
<text text-anchor="middle" x="320" y="-232.339" font-family="Helvetica,sans-Serif" font-size="14.00">FESystem&lt; 3 &gt;</text>
</g>
<!-- Node13&#45;&gt;Node1 -->
<g id="edge12" class="edge"><title>Node13&#45;&gt;Node1</title>
<path fill="none" stroke="#9a32cd" stroke-dasharray="5,2" d="M386.125,-231.796C447.719,-229.722 542.069,-231.611 620,-255.039 642.279,-261.736 665.074,-276.087 679.593,-286.368"/>
<polygon fill="#9a32cd" stroke="#9a32cd" points="385.632,-228.312 375.773,-232.192 385.9,-235.307 385.632,-228.312"/>
<text text-anchor="middle" x="536" y="-258.839" font-family="Helvetica,sans-Serif" font-size="14.00"> fe</text>
</g>
<!-- Node14 -->
<g id="node14" class="node"><title>Node14</title>
<polygon fill="white" stroke="#bfbfbf" points="255,-182.539 255,-205.539 385,-205.539 385,-182.539 255,-182.539"/>
<text text-anchor="middle" x="320" y="-190.339" font-family="Helvetica,sans-Serif" font-size="14.00">BlockSparseMatrix</text>
</g>
<!-- Node14&#45;&gt;Node1 -->
<g id="edge13" class="edge"><title>Node14&#45;&gt;Node1</title>
<path fill="none" stroke="#9a32cd" stroke-dasharray="5,2" d="M395.528,-192.355C471.016,-191.78 581.914,-194.376 620,-213.039 653.047,-229.233 677.833,-267.123 688.794,-286.372"/>
<polygon fill="#9a32cd" stroke="#9a32cd" points="395.088,-188.859 385.122,-192.455 395.156,-195.858 395.088,-188.859"/>
<text text-anchor="middle" x="536" y="-216.839" font-family="Helvetica,sans-Serif" font-size="14.00"> system_matrix</text>
</g>
<!-- Node15 -->
<g id="node15" class="node"><title>Node15</title>
<polygon fill="white" stroke="#bfbfbf" points="254.5,-140.539 254.5,-163.539 385.5,-163.539 385.5,-140.539 254.5,-140.539"/>
<text text-anchor="middle" x="320" y="-148.339" font-family="Helvetica,sans-Serif" font-size="14.00">vector&lt; IndexSet &gt;</text>
</g>
<!-- Node15&#45;&gt;Node1 -->
<g id="edge14" class="edge"><title>Node15&#45;&gt;Node1</title>
<path fill="none" stroke="#9a32cd" stroke-dasharray="5,2" d="M395.845,-145.426C472,-140.154 583.825,-136.874 620,-159.039 667.464,-188.119 686.813,-258.483 692.79,-286.371"/>
<polygon fill="#9a32cd" stroke="#9a32cd" points="395.537,-141.939 385.814,-146.146 396.039,-148.921 395.537,-141.939"/>
<text text-anchor="middle" x="536" y="-177.839" font-family="Helvetica,sans-Serif" font-size="14.00"> relevant_partitioning</text>
<text text-anchor="middle" x="536" y="-162.839" font-family="Helvetica,sans-Serif" font-size="14.00">owned_partitioning</text>
</g>
<!-- Node16 -->
<g id="node16" class="node"><title>Node16</title>
<polygon fill="white" stroke="#bfbfbf" points="275,-98.5385 275,-121.539 365,-121.539 365,-98.5385 275,-98.5385"/>
<text text-anchor="middle" x="320" y="-106.339" font-family="Helvetica,sans-Serif" font-size="14.00">MPI_Comm</text>
</g>
<!-- Node16&#45;&gt;Node1 -->
<g id="edge15" class="edge"><title>Node16&#45;&gt;Node1</title>
<path fill="none" stroke="#9a32cd" stroke-dasharray="5,2" d="M375.398,-105.69C450.69,-100.783 581.726,-96.5903 620,-123.039 676.834,-162.313 690.858,-254.1 694.091,-286.48"/>
<polygon fill="#9a32cd" stroke="#9a32cd" points="374.9,-102.216 365.159,-106.385 375.373,-109.2 374.9,-102.216"/>
<text text-anchor="middle" x="536" y="-126.839" font-family="Helvetica,sans-Serif" font-size="14.00"> mpi_communicator</text>
</g>
<!-- Node17 -->
<g id="node17" class="node"><title>Node17</title>
<polygon fill="white" stroke="#bfbfbf" points="285,-56.5385 285,-79.5385 355,-79.5385 355,-56.5385 285,-56.5385"/>
<text text-anchor="middle" x="320" y="-64.3385" font-family="Helvetica,sans-Serif" font-size="14.00">IndexSet</text>
</g>
<!-- Node17&#45;&gt;Node1 -->
<g id="edge16" class="edge"><title>Node17&#45;&gt;Node1</title>
<path fill="none" stroke="#9a32cd" stroke-dasharray="5,2" d="M365.361,-64.5828C438.699,-59.8067 581.009,-54.7901 620,-84.0385 687.237,-134.475 694.49,-249.628 695.044,-286.473"/>
<polygon fill="#9a32cd" stroke="#9a32cd" points="364.802,-61.1126 355.062,-65.2816 365.276,-68.0965 364.802,-61.1126"/>
<text text-anchor="middle" x="536" y="-87.8385" font-family="Helvetica,sans-Serif" font-size="14.00"> locally_relevant_dofs</text>
</g>
<!-- Node18 -->
<g id="node18" class="node"><title>Node18</title>
<polygon fill="white" stroke="#bfbfbf" points="257,-14.5385 257,-37.5385 383,-37.5385 383,-14.5385 257,-14.5385"/>
<text text-anchor="middle" x="320" y="-22.3385" font-family="Helvetica,sans-Serif" font-size="14.00">Triangulation&lt; 3 &gt;</text>
</g>
<!-- Node18&#45;&gt;Node1 -->
<g id="edge17" class="edge"><title>Node18&#45;&gt;Node1</title>
<path fill="none" stroke="#9a32cd" stroke-dasharray="5,2" d="M373.216,-12.2752C438.35,1.53237 549.684,13.6275 620,-42.0385 660.033,-73.7311 686.744,-240.751 693.383,-286.464"/>
<polygon fill="#9a32cd" stroke="#9a32cd" points="372.181,-8.91937 363.173,-14.4958 373.692,-15.7543 372.181,-8.91937"/>
<text text-anchor="middle" x="536" y="-45.8385" font-family="Helvetica,sans-Serif" font-size="14.00"> triangulation</text>
</g>
</g>
</svg>
