<?xml version="1.0" encoding="UTF-8" standalone="no"?>
<!DOCTYPE svg PUBLIC "-//W3C//DTD SVG 1.1//EN"
 "http://www.w3.org/Graphics/SVG/1.1/DTD/svg11.dtd">
<!-- Generated by graphviz version 2.38.0 (20140413.2041)
 -->
<!-- Title: Q::Q_PostProcessor Pages: 1 -->
<svg width="541pt" height="378pt"
 viewBox="0.00 0.00 540.50 378.00" xmlns="http://www.w3.org/2000/svg" xmlns:xlink="http://www.w3.org/1999/xlink">
<g id="graph0" class="graph" transform="scale(1 1) rotate(0) translate(4 374)">
<title>Q::Q_PostProcessor</title>
<polygon fill="white" stroke="none" points="-4,4 -4,-374 536.5,-374 536.5,4 -4,4"/>
<!-- Node1 -->
<g id="node1" class="node"><title>Node1</title>
<polygon fill="#bfbfbf" stroke="black" points="65.5,-0.5 65.5,-23.5 207.5,-23.5 207.5,-0.5 65.5,-0.5"/>
<text text-anchor="middle" x="136.5" y="-8.3" font-family="Helvetica,sans-Serif" font-size="14.00">Q::Q_PostProcessor</text>
</g>
<!-- Node2 -->
<g id="node2" class="node"><title>Node2</title>
<g id="a_node2"><a xlink:href="classDataPostprocessor.html" target="_top" xlink:title="DataPostprocessor\&lt; 3 \&gt;">
<polygon fill="white" stroke="black" points="0,-75.5 0,-98.5 163,-98.5 163,-75.5 0,-75.5"/>
<text text-anchor="middle" x="81.5" y="-83.3" font-family="Helvetica,sans-Serif" font-size="14.00">DataPostprocessor&lt; 3 &gt;</text>
</a>
</g>
</g>
<!-- Node2&#45;&gt;Node1 -->
<g id="edge1" class="edge"><title>Node2&#45;&gt;Node1</title>
<path fill="none" stroke="midnightblue" d="M95.8625,-66.937C106.213,-53.1997 119.808,-35.1549 128.351,-23.8156"/>
<polygon fill="midnightblue" stroke="midnightblue" points="92.8376,-65.1356 89.6154,-75.2286 98.4284,-69.3479 92.8376,-65.1356"/>
</g>
<!-- Node3 -->
<g id="node3" class="node"><title>Node3</title>
<g id="a_node3"><a xlink:href="classEquationData_1_1Diffusion__A.html" target="_top" xlink:title="Class containing a positive tensor. ">
<polygon fill="white" stroke="black" points="181,-75.5 181,-98.5 356,-98.5 356,-75.5 181,-75.5"/>
<text text-anchor="middle" x="268.5" y="-83.3" font-family="Helvetica,sans-Serif" font-size="14.00">EquationData::Diffusion_A</text>
</a>
</g>
</g>
<!-- Node3&#45;&gt;Node1 -->
<g id="edge2" class="edge"><title>Node3&#45;&gt;Node1</title>
<path fill="none" stroke="#9a32cd" stroke-dasharray="5,2" d="M240.479,-70.5034C214.98,-56.4017 178.016,-35.9598 155.717,-23.6276"/>
<polygon fill="#9a32cd" stroke="#9a32cd" points="238.861,-73.6084 249.306,-75.3852 242.249,-67.4828 238.861,-73.6084"/>
<text text-anchor="middle" x="219.5" y="-45.8" font-family="Helvetica,sans-Serif" font-size="14.00"> a</text>
</g>
<!-- Node4 -->
<g id="node4" class="node"><title>Node4</title>
<g id="a_node4"><a xlink:href="classTensorFunction.html" target="_top" xlink:title="TensorFunction\&lt; 2, 3 \&gt;">
<polygon fill="white" stroke="black" points="140,-144 140,-167 297,-167 297,-144 140,-144"/>
<text text-anchor="middle" x="218.5" y="-151.8" font-family="Helvetica,sans-Serif" font-size="14.00">TensorFunction&lt; 2, 3 &gt;</text>
</a>
</g>
</g>
<!-- Node4&#45;&gt;Node3 -->
<g id="edge3" class="edge"><title>Node4&#45;&gt;Node3</title>
<path fill="none" stroke="midnightblue" d="M232.556,-135.806C241.514,-123.892 252.807,-108.871 260.32,-98.8788"/>
<polygon fill="midnightblue" stroke="midnightblue" points="229.746,-133.719 226.533,-143.816 235.34,-137.926 229.746,-133.719"/>
</g>
<!-- Node5 -->
<g id="node5" class="node"><title>Node5</title>
<g id="a_node5"><a xlink:href="classEquationData_1_1Diffusion__A__Data.html" target="_top" xlink:title="Class containing data to construct a positive tensor. ">
<polygon fill="white" stroke="black" points="315.5,-136.5 315.5,-174.5 473.5,-174.5 473.5,-136.5 315.5,-136.5"/>
<text text-anchor="start" x="323.5" y="-159.3" font-family="Helvetica,sans-Serif" font-size="14.00">EquationData::Diffusion</text>
<text text-anchor="middle" x="394.5" y="-144.3" font-family="Helvetica,sans-Serif" font-size="14.00">_A_Data</text>
</a>
</g>
</g>
<!-- Node5&#45;&gt;Node3 -->
<g id="edge4" class="edge"><title>Node5&#45;&gt;Node3</title>
<path fill="none" stroke="midnightblue" d="M351.223,-131.66C330.033,-120.476 305.533,-107.545 288.727,-98.6752"/>
<polygon fill="midnightblue" stroke="midnightblue" points="349.592,-134.756 360.07,-136.329 352.86,-128.566 349.592,-134.756"/>
</g>
<!-- Node6 -->
<g id="node6" class="node"><title>Node6</title>
<polygon fill="white" stroke="#bfbfbf" points="224,-346.5 224,-369.5 281,-369.5 281,-346.5 224,-346.5"/>
<text text-anchor="middle" x="252.5" y="-354.3" font-family="Helvetica,sans-Serif" font-size="14.00">double</text>
</g>
<!-- Node6&#45;&gt;Node5 -->
<g id="edge5" class="edge"><title>Node6&#45;&gt;Node5</title>
<path fill="none" stroke="#9a32cd" stroke-dasharray="5,2" d="M252.615,-336.014C253.926,-301.76 261.399,-233.595 298.5,-193 305.477,-185.366 314.22,-179.318 323.571,-174.528"/>
<polygon fill="#9a32cd" stroke="#9a32cd" points="249.11,-336.161 252.372,-346.241 256.108,-336.327 249.11,-336.161"/>
<text text-anchor="middle" x="326" y="-316.8" font-family="Helvetica,sans-Serif" font-size="14.00"> alpha_</text>
<text text-anchor="middle" x="326" y="-301.8" font-family="Helvetica,sans-Serif" font-size="14.00">scale_x</text>
<text text-anchor="middle" x="326" y="-286.8" font-family="Helvetica,sans-Serif" font-size="14.00">scale_y</text>
<text text-anchor="middle" x="326" y="-271.8" font-family="Helvetica,sans-Serif" font-size="14.00">gamma_</text>
<text text-anchor="middle" x="326" y="-256.8" font-family="Helvetica,sans-Serif" font-size="14.00">beta_</text>
<text text-anchor="middle" x="326" y="-241.8" font-family="Helvetica,sans-Serif" font-size="14.00">scale_z</text>
<text text-anchor="middle" x="326" y="-226.8" font-family="Helvetica,sans-Serif" font-size="14.00">alpha_x</text>
<text text-anchor="middle" x="326" y="-211.8" font-family="Helvetica,sans-Serif" font-size="14.00">alpha_y</text>
<text text-anchor="middle" x="326" y="-196.8" font-family="Helvetica,sans-Serif" font-size="14.00">alpha_z</text>
</g>
<!-- Node7 -->
<g id="node7" class="node"><title>Node7</title>
<polygon fill="white" stroke="#bfbfbf" points="299,-346.5 299,-369.5 404,-369.5 404,-346.5 299,-346.5"/>
<text text-anchor="middle" x="351.5" y="-354.3" font-family="Helvetica,sans-Serif" font-size="14.00">Tensor&lt; 2, 3 &gt;</text>
</g>
<!-- Node7&#45;&gt;Node5 -->
<g id="edge6" class="edge"><title>Node7&#45;&gt;Node5</title>
<path fill="none" stroke="#9a32cd" stroke-dasharray="5,2" d="M355.909,-336.442C364.326,-297.197 382.557,-212.186 390.578,-174.786"/>
<polygon fill="#9a32cd" stroke="#9a32cd" points="352.487,-335.709 353.812,-346.22 359.331,-337.177 352.487,-335.709"/>
<text text-anchor="middle" x="395.5" y="-256.8" font-family="Helvetica,sans-Serif" font-size="14.00"> rot</text>
</g>
<!-- Node8 -->
<g id="node8" class="node"><title>Node8</title>
<polygon fill="white" stroke="#bfbfbf" points="422,-346.5 422,-369.5 453,-369.5 453,-346.5 422,-346.5"/>
<text text-anchor="middle" x="437.5" y="-354.3" font-family="Helvetica,sans-Serif" font-size="14.00">int</text>
</g>
<!-- Node8&#45;&gt;Node5 -->
<g id="edge7" class="edge"><title>Node8&#45;&gt;Node5</title>
<path fill="none" stroke="#9a32cd" stroke-dasharray="5,2" d="M435.452,-336.316C432.009,-304.892 423.978,-243.442 409.5,-193 407.761,-186.942 405.335,-180.524 402.94,-174.787"/>
<polygon fill="#9a32cd" stroke="#9a32cd" points="431.991,-336.879 436.516,-346.46 438.953,-336.149 431.991,-336.879"/>
<text text-anchor="middle" x="446" y="-271.8" font-family="Helvetica,sans-Serif" font-size="14.00"> k_x</text>
<text text-anchor="middle" x="446" y="-256.8" font-family="Helvetica,sans-Serif" font-size="14.00">k_y</text>
<text text-anchor="middle" x="446" y="-241.8" font-family="Helvetica,sans-Serif" font-size="14.00">k_z</text>
</g>
<!-- Node9 -->
<g id="node9" class="node"><title>Node9</title>
<polygon fill="white" stroke="#bfbfbf" points="470.5,-346.5 470.5,-369.5 512.5,-369.5 512.5,-346.5 470.5,-346.5"/>
<text text-anchor="middle" x="491.5" y="-354.3" font-family="Helvetica,sans-Serif" font-size="14.00">bool</text>
</g>
<!-- Node9&#45;&gt;Node5 -->
<g id="edge8" class="edge"><title>Node9&#45;&gt;Node5</title>
<path fill="none" stroke="#9a32cd" stroke-dasharray="5,2" d="M493.281,-336.194C495.044,-302.736 493.88,-236.347 462.5,-193 457.157,-185.62 449.855,-179.585 442.011,-174.701"/>
<polygon fill="#9a32cd" stroke="#9a32cd" points="489.787,-335.985 492.61,-346.197 496.772,-336.454 489.787,-335.985"/>
<text text-anchor="middle" x="513" y="-256.8" font-family="Helvetica,sans-Serif" font-size="14.00"> rotate</text>
</g>
</g>
</svg>
