<?xml version="1.0" encoding="UTF-8" standalone="no"?>
<!DOCTYPE svg PUBLIC "-//W3C//DTD SVG 1.1//EN"
 "http://www.w3.org/Graphics/SVG/1.1/DTD/svg11.dtd">
<!-- Generated by graphviz version 2.38.0 (20140413.2041)
 -->
<!-- Title: EquationData::ExactSolutionLin Pages: 1 -->
<svg width="372pt" height="107pt"
 viewBox="0.00 0.00 371.50 107.00" xmlns="http://www.w3.org/2000/svg" xmlns:xlink="http://www.w3.org/1999/xlink">
<g id="graph0" class="graph" transform="scale(1 1) rotate(0) translate(4 103)">
<title>EquationData::ExactSolutionLin</title>
<polygon fill="white" stroke="none" points="-4,4 -4,-103 367.5,-103 367.5,4 -4,4"/>
<!-- Node1 -->
<g id="node1" class="node"><title>Node1</title>
<polygon fill="#bfbfbf" stroke="black" points="70.5,-0.5 70.5,-23.5 276.5,-23.5 276.5,-0.5 70.5,-0.5"/>
<text text-anchor="middle" x="173.5" y="-8.3" font-family="Helvetica,sans-Serif" font-size="14.00">EquationData::ExactSolutionLin</text>
</g>
<!-- Node2 -->
<g id="node2" class="node"><title>Node2</title>
<g id="a_node2"><a xlink:href="classTensorFunction.html" target="_top" xlink:title="TensorFunction\&lt; 1, 3 \&gt;">
<polygon fill="white" stroke="black" points="0,-68 0,-91 157,-91 157,-68 0,-68"/>
<text text-anchor="middle" x="78.5" y="-75.8" font-family="Helvetica,sans-Serif" font-size="14.00">TensorFunction&lt; 1, 3 &gt;</text>
</a>
</g>
</g>
<!-- Node2&#45;&gt;Node1 -->
<g id="edge1" class="edge"><title>Node2&#45;&gt;Node1</title>
<path fill="none" stroke="midnightblue" d="M102.279,-62.1049C119.702,-50.0925 142.852,-34.1308 157.959,-23.7152"/>
<polygon fill="midnightblue" stroke="midnightblue" points="100.01,-59.4184 93.7634,-67.9763 103.983,-65.1814 100.01,-59.4184"/>
</g>
<!-- Node3 -->
<g id="node3" class="node"><title>Node3</title>
<g id="a_node3"><a xlink:href="classEquationData_1_1ExactSolutionLin__Data.html" target="_top" xlink:title="Data class to construct an analytic solution. ">
<polygon fill="white" stroke="black" points="175.5,-60.5 175.5,-98.5 363.5,-98.5 363.5,-60.5 175.5,-60.5"/>
<text text-anchor="start" x="183.5" y="-83.3" font-family="Helvetica,sans-Serif" font-size="14.00">EquationData::ExactSolution</text>
<text text-anchor="middle" x="269.5" y="-68.3" font-family="Helvetica,sans-Serif" font-size="14.00">Lin_Data</text>
</a>
</g>
</g>
<!-- Node3&#45;&gt;Node1 -->
<g id="edge2" class="edge"><title>Node3&#45;&gt;Node1</title>
<path fill="none" stroke="midnightblue" d="M234.598,-54.6868C218.997,-44.0423 201.397,-32.0338 189.108,-23.6489"/>
<polygon fill="midnightblue" stroke="midnightblue" points="232.78,-57.6835 243.013,-60.4284 236.726,-51.9012 232.78,-57.6835"/>
</g>
</g>
</svg>
