<?xml version="1.0" encoding="UTF-8" standalone="no"?>
<!DOCTYPE svg PUBLIC "-//W3C//DTD SVG 1.1//EN"
 "http://www.w3.org/Graphics/SVG/1.1/DTD/svg11.dtd">
<!-- Generated by graphviz version 2.38.0 (20140413.2041)
 -->
<!-- Title: Q::QBasis Pages: 1 -->
<svg width="713pt" height="1104pt"
 viewBox="0.00 0.00 713.00 1104.15" xmlns="http://www.w3.org/2000/svg" xmlns:xlink="http://www.w3.org/1999/xlink">
<g id="graph0" class="graph" transform="scale(1 1) rotate(0) translate(4 1100.15)">
<title>Q::QBasis</title>
<polygon fill="white" stroke="none" points="-4,4 -4,-1100.15 709,-1100.15 709,4 -4,4"/>
<!-- Node1 -->
<g id="node1" class="node"><title>Node1</title>
<polygon fill="#bfbfbf" stroke="black" points="625,-466.655 625,-489.655 705,-489.655 705,-466.655 625,-466.655"/>
<text text-anchor="middle" x="665" y="-474.455" font-family="Helvetica,sans-Serif" font-size="14.00">Q::QBasis</text>
</g>
<!-- Node2 -->
<g id="node2" class="node"><title>Node2</title>
<polygon fill="white" stroke="#bfbfbf" points="313.5,-1024.65 313.5,-1047.65 431.5,-1047.65 431.5,-1024.65 313.5,-1024.65"/>
<text text-anchor="middle" x="372.5" y="-1032.45" font-family="Helvetica,sans-Serif" font-size="14.00">vector&lt; double &gt;</text>
</g>
<!-- Node2&#45;&gt;Node1 -->
<g id="edge1" class="edge"><title>Node2&#45;&gt;Node1</title>
<path fill="none" stroke="#9a32cd" stroke-dasharray="5,2" d="M437.877,-1049.05C490.723,-1055.56 563.67,-1054.49 607,-1011.15 645.247,-972.903 661.037,-564.496 663.614,-489.838"/>
<polygon fill="#9a32cd" stroke="#9a32cd" points="438.301,-1045.57 427.923,-1047.71 437.365,-1052.51 438.301,-1045.57"/>
<text text-anchor="middle" x="544" y="-1084.95" font-family="Helvetica,sans-Serif" font-size="14.00"> face_measure</text>
<text text-anchor="middle" x="544" y="-1069.95" font-family="Helvetica,sans-Serif" font-size="14.00">global_weights</text>
<text text-anchor="middle" x="544" y="-1054.95" font-family="Helvetica,sans-Serif" font-size="14.00">edge_measure</text>
</g>
<!-- Node3 -->
<g id="node3" class="node"><title>Node3</title>
<polygon fill="white" stroke="#bfbfbf" points="312,-982.655 312,-1005.65 433,-1005.65 433,-982.655 312,-982.655"/>
<text text-anchor="middle" x="372.5" y="-990.455" font-family="Helvetica,sans-Serif" font-size="14.00">DoFHandler&lt; 3 &gt;</text>
</g>
<!-- Node3&#45;&gt;Node1 -->
<g id="edge2" class="edge"><title>Node3&#45;&gt;Node1</title>
<path fill="none" stroke="#9a32cd" stroke-dasharray="5,2" d="M443.435,-994.031C503.818,-992.337 584.754,-985.737 607,-963.155 641.434,-928.2 660.203,-559.854 663.48,-489.671"/>
<polygon fill="#9a32cd" stroke="#9a32cd" points="443.09,-990.538 433.177,-994.277 443.258,-997.536 443.09,-990.538"/>
<text text-anchor="middle" x="544" y="-995.955" font-family="Helvetica,sans-Serif" font-size="14.00"> dof_handler</text>
</g>
<!-- Node4 -->
<g id="node4" class="node"><title>Node4</title>
<g id="a_node4"><a xlink:href="structQ_1_1ParametersBasis.html" target="_top" xlink:title="Q::ParametersBasis">
<polygon fill="white" stroke="black" points="303,-698.655 303,-721.655 442,-721.655 442,-698.655 303,-698.655"/>
<text text-anchor="middle" x="372.5" y="-706.455" font-family="Helvetica,sans-Serif" font-size="14.00">Q::ParametersBasis</text>
</a>
</g>
</g>
<!-- Node4&#45;&gt;Node1 -->
<g id="edge3" class="edge"><title>Node4&#45;&gt;Node1</title>
<path fill="none" stroke="#9a32cd" stroke-dasharray="5,2" d="M452.235,-720.117C502.208,-721.962 565.12,-715.388 607,-679.155 665.016,-628.962 666.076,-524.51 664.691,-489.714"/>
<polygon fill="#9a32cd" stroke="#9a32cd" points="452.261,-716.614 442.102,-719.622 451.919,-723.606 452.261,-716.614"/>
<text text-anchor="middle" x="544" y="-723.955" font-family="Helvetica,sans-Serif" font-size="14.00"> parameters</text>
</g>
<!-- Node5 -->
<g id="node5" class="node"><title>Node5</title>
<polygon fill="white" stroke="#bfbfbf" points="54.5,-907.655 54.5,-930.655 85.5,-930.655 85.5,-907.655 54.5,-907.655"/>
<text text-anchor="middle" x="70" y="-915.455" font-family="Helvetica,sans-Serif" font-size="14.00">int</text>
</g>
<!-- Node5&#45;&gt;Node1 -->
<g id="edge10" class="edge"><title>Node5&#45;&gt;Node1</title>
<path fill="none" stroke="#9a32cd" stroke-dasharray="5,2" d="M95.4266,-924.689C181.363,-942.557 471.841,-989.067 607,-836.155 653.995,-782.987 662.425,-545.709 663.767,-489.925"/>
<polygon fill="#9a32cd" stroke="#9a32cd" points="96.0624,-921.246 85.5508,-922.572 94.5948,-928.091 96.0624,-921.246"/>
<text text-anchor="middle" x="372.5" y="-948.955" font-family="Helvetica,sans-Serif" font-size="14.00"> local_subdomain</text>
</g>
<!-- Node5&#45;&gt;Node4 -->
<g id="edge4" class="edge"><title>Node5&#45;&gt;Node4</title>
<path fill="none" stroke="#9a32cd" stroke-dasharray="5,2" d="M89.7926,-900.344C106.474,-884.544 132.147,-862.336 158,-848.155 201.499,-824.295 230.519,-849.767 264,-813.155 287.717,-787.22 257.817,-761.657 282,-736.155 287.79,-730.05 294.92,-725.352 302.607,-721.742"/>
<polygon fill="#9a32cd" stroke="#9a32cd" points="87.1233,-898.056 82.3646,-907.522 91.9878,-903.09 87.1233,-898.056"/>
<text text-anchor="middle" x="211" y="-881.955" font-family="Helvetica,sans-Serif" font-size="14.00"> n_refine_global</text>
<text text-anchor="middle" x="211" y="-866.955" font-family="Helvetica,sans-Serif" font-size="14.00">n_refine_local</text>
<text text-anchor="middle" x="211" y="-851.955" font-family="Helvetica,sans-Serif" font-size="14.00">degree</text>
</g>
<!-- Node12 -->
<g id="node12" class="node"><title>Node12</title>
<g id="a_node12"><a xlink:href="classShapeFun_1_1BasisQ1.html" target="_top" xlink:title="ShapeFun::BasisQ1\&lt; 3 \&gt;">
<polygon fill="white" stroke="black" points="287.5,-799.655 287.5,-822.655 457.5,-822.655 457.5,-799.655 287.5,-799.655"/>
<text text-anchor="middle" x="372.5" y="-807.455" font-family="Helvetica,sans-Serif" font-size="14.00">ShapeFun::BasisQ1&lt; 3 &gt;</text>
</a>
</g>
</g>
<!-- Node5&#45;&gt;Node12 -->
<g id="edge14" class="edge"><title>Node5&#45;&gt;Node12</title>
<path fill="none" stroke="#9a32cd" stroke-dasharray="5,2" d="M95.8309,-920.61C133.663,-921.901 207.318,-920.728 264,-897.155 305.268,-879.993 343.606,-842.015 361.275,-822.79"/>
<polygon fill="#9a32cd" stroke="#9a32cd" points="95.8667,-917.109 85.7254,-920.175 95.5657,-924.102 95.8667,-917.109"/>
<text text-anchor="middle" x="211" y="-922.955" font-family="Helvetica,sans-Serif" font-size="14.00"> index_basis</text>
</g>
<!-- Node6 -->
<g id="node6" class="node"><title>Node6</title>
<polygon fill="white" stroke="#bfbfbf" points="45,-681.655 45,-704.655 95,-704.655 95,-681.655 45,-681.655"/>
<text text-anchor="middle" x="70" y="-689.455" font-family="Helvetica,sans-Serif" font-size="14.00">string</text>
</g>
<!-- Node6&#45;&gt;Node1 -->
<g id="edge18" class="edge"><title>Node6&#45;&gt;Node1</title>
<path fill="none" stroke="#9a32cd" stroke-dasharray="5,2" d="M105.093,-689.82C210.474,-678.904 528.592,-641.221 607,-577.155 636.18,-553.312 653.444,-510.328 660.406,-489.749"/>
<polygon fill="#9a32cd" stroke="#9a32cd" points="104.599,-686.352 95.0063,-690.85 105.31,-693.316 104.599,-686.352"/>
<text text-anchor="middle" x="372.5" y="-670.955" font-family="Helvetica,sans-Serif" font-size="14.00"> filename_global</text>
</g>
<!-- Node6&#45;&gt;Node4 -->
<g id="edge5" class="edge"><title>Node6&#45;&gt;Node4</title>
<path fill="none" stroke="#9a32cd" stroke-dasharray="5,2" d="M105.231,-695.091C153.117,-697.801 241.15,-702.781 302.842,-706.271"/>
<polygon fill="#9a32cd" stroke="#9a32cd" points="105.265,-691.588 95.0832,-694.517 104.87,-698.577 105.265,-691.588"/>
<text text-anchor="middle" x="211" y="-722.955" font-family="Helvetica,sans-Serif" font-size="14.00"> dirname_output</text>
<text text-anchor="middle" x="211" y="-707.955" font-family="Helvetica,sans-Serif" font-size="14.00">filename_global</text>
</g>
<!-- Node7 -->
<g id="node7" class="node"><title>Node7</title>
<polygon fill="white" stroke="#bfbfbf" points="49,-529.655 49,-552.655 91,-552.655 91,-529.655 49,-529.655"/>
<text text-anchor="middle" x="70" y="-537.455" font-family="Helvetica,sans-Serif" font-size="14.00">bool</text>
</g>
<!-- Node7&#45;&gt;Node1 -->
<g id="edge17" class="edge"><title>Node7&#45;&gt;Node1</title>
<path fill="none" stroke="#9a32cd" stroke-dasharray="5,2" d="M101.322,-540.721C118.04,-540.503 139.166,-540.263 158,-540.155 205.11,-539.884 220.222,-522.75 264,-540.155 274.225,-544.22 271.775,-553.09 282,-557.155 349.128,-583.844 542.754,-583.184 607,-550.155 632.664,-536.961 650.531,-506.432 658.798,-489.676"/>
<polygon fill="#9a32cd" stroke="#9a32cd" points="100.993,-537.225 91.0414,-540.859 101.088,-544.224 100.993,-537.225"/>
<text text-anchor="middle" x="372.5" y="-609.955" font-family="Helvetica,sans-Serif" font-size="14.00"> is_set_global_weights</text>
<text text-anchor="start" x="301.5" y="-594.955" font-family="Helvetica,sans-Serif" font-size="14.00">is_built_global_element</text>
<text text-anchor="middle" x="372.5" y="-579.955" font-family="Helvetica,sans-Serif" font-size="14.00">_matrix</text>
</g>
<!-- Node7&#45;&gt;Node4 -->
<g id="edge6" class="edge"><title>Node7&#45;&gt;Node4</title>
<path fill="none" stroke="#9a32cd" stroke-dasharray="5,2" d="M101.142,-539.566C143.849,-539.086 221.491,-545.042 264,-590.155 293.171,-621.113 253.361,-652.704 282,-684.155 287.774,-690.496 294.993,-695.325 302.812,-698.998"/>
<polygon fill="#9a32cd" stroke="#9a32cd" points="100.994,-536.069 91.0803,-539.807 101.161,-543.067 100.994,-536.069"/>
<text text-anchor="middle" x="211" y="-683.955" font-family="Helvetica,sans-Serif" font-size="14.00"> prevent_output</text>
<text text-anchor="middle" x="211" y="-668.955" font-family="Helvetica,sans-Serif" font-size="14.00">renumber_dofs</text>
<text text-anchor="middle" x="211" y="-653.955" font-family="Helvetica,sans-Serif" font-size="14.00">set_to_std</text>
<text text-anchor="middle" x="211" y="-638.955" font-family="Helvetica,sans-Serif" font-size="14.00">use_direct_solver</text>
<text text-anchor="middle" x="211" y="-623.955" font-family="Helvetica,sans-Serif" font-size="14.00">verbose</text>
<text text-anchor="middle" x="211" y="-608.955" font-family="Helvetica,sans-Serif" font-size="14.00">is_laplace</text>
<text text-anchor="middle" x="211" y="-593.955" font-family="Helvetica,sans-Serif" font-size="14.00">output_flag</text>
</g>
<!-- Node8 -->
<g id="node8" class="node"><title>Node8</title>
<polygon fill="white" stroke="#bfbfbf" points="344,-524.655 344,-547.655 401,-547.655 401,-524.655 344,-524.655"/>
<text text-anchor="middle" x="372.5" y="-532.455" font-family="Helvetica,sans-Serif" font-size="14.00">double</text>
</g>
<!-- Node8&#45;&gt;Node1 -->
<g id="edge7" class="edge"><title>Node8&#45;&gt;Node1</title>
<path fill="none" stroke="#9a32cd" stroke-dasharray="5,2" d="M411.108,-535.466C457.958,-533.711 540.001,-527.668 607,-507.155 620.483,-503.027 634.617,-495.858 645.437,-489.68"/>
<polygon fill="#9a32cd" stroke="#9a32cd" points="410.984,-531.969 401.104,-535.795 411.214,-538.965 410.984,-531.969"/>
<text text-anchor="middle" x="544" y="-534.955" font-family="Helvetica,sans-Serif" font-size="14.00"> volume_measure</text>
</g>
<!-- Node9 -->
<g id="node9" class="node"><title>Node9</title>
<polygon fill="white" stroke="#bfbfbf" points="341.5,-482.655 341.5,-505.655 403.5,-505.655 403.5,-482.655 341.5,-482.655"/>
<text text-anchor="middle" x="372.5" y="-490.455" font-family="Helvetica,sans-Serif" font-size="14.00">string &amp;</text>
</g>
<!-- Node9&#45;&gt;Node1 -->
<g id="edge8" class="edge"><title>Node9&#45;&gt;Node1</title>
<path fill="none" stroke="#9a32cd" stroke-dasharray="5,2" d="M413.97,-491.926C469.703,-488.856 569.433,-483.363 624.598,-480.325"/>
<polygon fill="#9a32cd" stroke="#9a32cd" points="413.559,-488.443 403.766,-492.488 413.944,-495.433 413.559,-488.443"/>
<text text-anchor="middle" x="544" y="-491.955" font-family="Helvetica,sans-Serif" font-size="14.00"> parameter_filename</text>
</g>
<!-- Node10 -->
<g id="node10" class="node"><title>Node10</title>
<polygon fill="white" stroke="#bfbfbf" points="302.5,-440.655 302.5,-463.655 442.5,-463.655 442.5,-440.655 302.5,-440.655"/>
<text text-anchor="middle" x="372.5" y="-448.455" font-family="Helvetica,sans-Serif" font-size="14.00">vector&lt; Point&lt; 3 &gt; &gt;</text>
</g>
<!-- Node10&#45;&gt;Node1 -->
<g id="edge9" class="edge"><title>Node10&#45;&gt;Node1</title>
<path fill="none" stroke="#9a32cd" stroke-dasharray="5,2" d="M452.666,-451.764C498.068,-452.567 556.001,-455.332 607,-463.155 612.866,-464.055 619,-465.317 624.98,-466.731"/>
<polygon fill="#9a32cd" stroke="#9a32cd" points="452.639,-448.264 442.588,-451.615 452.535,-455.263 452.639,-448.264"/>
<text text-anchor="middle" x="544" y="-466.955" font-family="Helvetica,sans-Serif" font-size="14.00"> corner_points</text>
</g>
<!-- Node11 -->
<g id="node11" class="node"><title>Node11</title>
<polygon fill="white" stroke="#bfbfbf" points="318,-398.655 318,-421.655 427,-421.655 427,-398.655 318,-398.655"/>
<text text-anchor="middle" x="372.5" y="-406.455" font-family="Helvetica,sans-Serif" font-size="14.00">SparsityPattern</text>
</g>
<!-- Node11&#45;&gt;Node1 -->
<g id="edge11" class="edge"><title>Node11&#45;&gt;Node1</title>
<path fill="none" stroke="#9a32cd" stroke-dasharray="5,2" d="M437.71,-407.422C485.924,-407.556 552.701,-412.473 607,-434.155 625.111,-441.387 642.316,-456.144 652.993,-466.569"/>
<polygon fill="#9a32cd" stroke="#9a32cd" points="437.394,-403.923 427.409,-407.465 437.424,-410.923 437.394,-403.923"/>
<text text-anchor="middle" x="544" y="-437.955" font-family="Helvetica,sans-Serif" font-size="14.00"> sparsity_pattern</text>
</g>
<!-- Node12&#45;&gt;Node1 -->
<g id="edge12" class="edge"><title>Node12&#45;&gt;Node1</title>
<path fill="none" stroke="#9a32cd" stroke-dasharray="5,2" d="M467.767,-819.079C515.473,-817.815 570.792,-807.434 607,-772.155 648.428,-731.79 660.901,-539.502 663.455,-489.867"/>
<polygon fill="#9a32cd" stroke="#9a32cd" points="467.664,-815.58 457.712,-819.216 467.759,-822.58 467.664,-815.58"/>
<text text-anchor="middle" x="544" y="-820.955" font-family="Helvetica,sans-Serif" font-size="14.00"> basis_q1</text>
</g>
<!-- Node13 -->
<g id="node13" class="node"><title>Node13</title>
<polygon fill="white" stroke="#bfbfbf" points="12.5,-806.655 12.5,-829.655 127.5,-829.655 127.5,-806.655 12.5,-806.655"/>
<text text-anchor="middle" x="70" y="-814.455" font-family="Helvetica,sans-Serif" font-size="14.00">Function&lt; dim &gt;</text>
</g>
<!-- Node13&#45;&gt;Node12 -->
<g id="edge13" class="edge"><title>Node13&#45;&gt;Node12</title>
<path fill="none" stroke="midnightblue" d="M137.571,-816.604C181.727,-815.576 240.039,-814.217 287.398,-813.114"/>
<polygon fill="midnightblue" stroke="midnightblue" points="137.437,-813.106 127.522,-816.838 137.601,-820.104 137.437,-813.106"/>
</g>
<!-- Node14 -->
<g id="node14" class="node"><title>Node14</title>
<polygon fill="white" stroke="#bfbfbf" points="0,-753.655 0,-776.655 140,-776.655 140,-753.655 0,-753.655"/>
<text text-anchor="middle" x="70" y="-761.455" font-family="Helvetica,sans-Serif" font-size="14.00">FullMatrix&lt; double &gt;</text>
</g>
<!-- Node14&#45;&gt;Node1 -->
<g id="edge21" class="edge"><title>Node14&#45;&gt;Node1</title>
<path fill="none" stroke="#9a32cd" stroke-dasharray="5,2" d="M150.343,-766.532C291.111,-768.218 573.019,-767.9 607,-739.155 646.04,-706.13 660.115,-536.363 663.268,-489.915"/>
<polygon fill="#9a32cd" stroke="#9a32cd" points="150.09,-763.029 140.047,-766.402 150.002,-770.028 150.09,-763.029"/>
<text text-anchor="middle" x="372.5" y="-770.955" font-family="Helvetica,sans-Serif" font-size="14.00"> global_element_matrix</text>
</g>
<!-- Node14&#45;&gt;Node12 -->
<g id="edge15" class="edge"><title>Node14&#45;&gt;Node12</title>
<path fill="none" stroke="#9a32cd" stroke-dasharray="5,2" d="M150.363,-777.304C195.517,-784.216 251.753,-792.824 296.214,-799.63"/>
<polygon fill="#9a32cd" stroke="#9a32cd" points="150.733,-773.82 140.318,-775.766 149.673,-780.739 150.733,-773.82"/>
<text text-anchor="middle" x="211" y="-797.955" font-family="Helvetica,sans-Serif" font-size="14.00"> coeff_matrix</text>
</g>
<!-- Node15 -->
<g id="node15" class="node"><title>Node15</title>
<polygon fill="white" stroke="#bfbfbf" points="347,-356.655 347,-379.655 398,-379.655 398,-356.655 347,-356.655"/>
<text text-anchor="middle" x="372.5" y="-364.455" font-family="Helvetica,sans-Serif" font-size="14.00">CellId</text>
</g>
<!-- Node15&#45;&gt;Node1 -->
<g id="edge16" class="edge"><title>Node15&#45;&gt;Node1</title>
<path fill="none" stroke="#9a32cd" stroke-dasharray="5,2" d="M408.203,-359.23C456.612,-348.858 545.387,-337.578 607,-375.155 640.85,-395.8 656.13,-444.306 661.546,-466.59"/>
<polygon fill="#9a32cd" stroke="#9a32cd" points="407.211,-355.866 398.225,-361.479 408.75,-362.694 407.211,-355.866"/>
<text text-anchor="middle" x="544" y="-393.955" font-family="Helvetica,sans-Serif" font-size="14.00"> global_cell_id</text>
<text text-anchor="middle" x="544" y="-378.955" font-family="Helvetica,sans-Serif" font-size="14.00">first_cell</text>
</g>
<!-- Node16 -->
<g id="node16" class="node"><title>Node16</title>
<polygon fill="white" stroke="#bfbfbf" points="330.5,-314.655 330.5,-337.655 414.5,-337.655 414.5,-314.655 330.5,-314.655"/>
<text text-anchor="middle" x="372.5" y="-322.455" font-family="Helvetica,sans-Serif" font-size="14.00">FE_Q&lt; 3 &gt;</text>
</g>
<!-- Node16&#45;&gt;Node1 -->
<g id="edge19" class="edge"><title>Node16&#45;&gt;Node1</title>
<path fill="none" stroke="#9a32cd" stroke-dasharray="5,2" d="M424.631,-320.83C484.372,-315.695 578.669,-311.305 607,-331.155 652.732,-363.196 661.774,-437.518 663.561,-466.389"/>
<polygon fill="#9a32cd" stroke="#9a32cd" points="424.278,-317.347 414.629,-321.724 424.901,-324.32 424.278,-317.347"/>
<text text-anchor="middle" x="544" y="-334.955" font-family="Helvetica,sans-Serif" font-size="14.00"> fe</text>
</g>
<!-- Node17 -->
<g id="node17" class="node"><title>Node17</title>
<polygon fill="white" stroke="#bfbfbf" points="327.5,-272.655 327.5,-295.655 417.5,-295.655 417.5,-272.655 327.5,-272.655"/>
<text text-anchor="middle" x="372.5" y="-280.455" font-family="Helvetica,sans-Serif" font-size="14.00">MPI_Comm</text>
</g>
<!-- Node17&#45;&gt;Node1 -->
<g id="edge20" class="edge"><title>Node17&#45;&gt;Node1</title>
<path fill="none" stroke="#9a32cd" stroke-dasharray="5,2" d="M427.735,-280.549C487.909,-277.709 580.088,-277.182 607,-298.155 661.037,-340.267 664.833,-433.592 664.406,-466.44"/>
<polygon fill="#9a32cd" stroke="#9a32cd" points="427.442,-277.059 417.632,-281.061 427.796,-284.05 427.442,-277.059"/>
<text text-anchor="middle" x="544" y="-301.955" font-family="Helvetica,sans-Serif" font-size="14.00"> mpi_communicator</text>
</g>
<!-- Node18 -->
<g id="node18" class="node"><title>Node18</title>
<polygon fill="white" stroke="#bfbfbf" points="312.5,-199.655 312.5,-222.655 432.5,-222.655 432.5,-199.655 312.5,-199.655"/>
<text text-anchor="middle" x="372.5" y="-207.455" font-family="Helvetica,sans-Serif" font-size="14.00">Vector&lt; double &gt;</text>
</g>
<!-- Node18&#45;&gt;Node1 -->
<g id="edge22" class="edge"><title>Node18&#45;&gt;Node1</title>
<path fill="none" stroke="#9a32cd" stroke-dasharray="5,2" d="M442.753,-203.202C502.448,-197.952 582.743,-195.247 607,-215.155 646.906,-247.907 660.391,-420.112 663.333,-466.588"/>
<polygon fill="#9a32cd" stroke="#9a32cd" points="442.251,-199.733 432.614,-204.135 442.893,-206.704 442.251,-199.733"/>
<text text-anchor="middle" x="544" y="-263.955" font-family="Helvetica,sans-Serif" font-size="14.00"> global_solution</text>
<text text-anchor="middle" x="544" y="-248.955" font-family="Helvetica,sans-Serif" font-size="14.00">global_element_rhs</text>
<text text-anchor="middle" x="544" y="-233.955" font-family="Helvetica,sans-Serif" font-size="14.00">global_rhs</text>
<text text-anchor="middle" x="544" y="-218.955" font-family="Helvetica,sans-Serif" font-size="14.00">system_rhs</text>
</g>
<!-- Node19 -->
<g id="node19" class="node"><title>Node19</title>
<polygon fill="white" stroke="#bfbfbf" points="282,-157.655 282,-180.655 463,-180.655 463,-157.655 282,-157.655"/>
<text text-anchor="middle" x="372.5" y="-165.455" font-family="Helvetica,sans-Serif" font-size="14.00">vector&lt; Vector&lt; double &gt; &gt;</text>
</g>
<!-- Node19&#45;&gt;Node1 -->
<g id="edge23" class="edge"><title>Node19&#45;&gt;Node1</title>
<path fill="none" stroke="#9a32cd" stroke-dasharray="5,2" d="M473.158,-162.422C527.276,-161.012 587.112,-163.843 607,-181.155 651.156,-219.592 661.636,-416.429 663.604,-466.538"/>
<polygon fill="#9a32cd" stroke="#9a32cd" points="473.018,-158.924 463.131,-162.732 473.234,-165.921 473.018,-158.924"/>
<text text-anchor="middle" x="544" y="-184.955" font-family="Helvetica,sans-Serif" font-size="14.00"> solution_vector</text>
</g>
<!-- Node20 -->
<g id="node20" class="node"><title>Node20</title>
<polygon fill="white" stroke="#bfbfbf" points="292,-110.655 292,-133.655 453,-133.655 453,-110.655 292,-110.655"/>
<text text-anchor="middle" x="372.5" y="-118.455" font-family="Helvetica,sans-Serif" font-size="14.00">SparseMatrix&lt; double &gt;</text>
</g>
<!-- Node20&#45;&gt;Node1 -->
<g id="edge24" class="edge"><title>Node20&#45;&gt;Node1</title>
<path fill="none" stroke="#9a32cd" stroke-dasharray="5,2" d="M463.2,-113.075C519.745,-109.451 585.924,-109.762 607,-128.155 659.299,-173.796 663.689,-410.6 663.993,-466.378"/>
<polygon fill="#9a32cd" stroke="#9a32cd" points="462.868,-109.589 453.131,-113.767 463.348,-116.573 462.868,-109.589"/>
<text text-anchor="middle" x="544" y="-146.955" font-family="Helvetica,sans-Serif" font-size="14.00"> diffusion_matrix</text>
<text text-anchor="middle" x="544" y="-131.955" font-family="Helvetica,sans-Serif" font-size="14.00">system_matrix</text>
</g>
<!-- Node21 -->
<g id="node21" class="node"><title>Node21</title>
<polygon fill="white" stroke="#bfbfbf" points="288.5,-53.155 288.5,-91.155 456.5,-91.155 456.5,-53.155 288.5,-53.155"/>
<text text-anchor="start" x="296.5" y="-75.955" font-family="Helvetica,sans-Serif" font-size="14.00">vector&lt; AffineConstraints</text>
<text text-anchor="middle" x="372.5" y="-60.955" font-family="Helvetica,sans-Serif" font-size="14.00">&lt; double &gt; &gt;</text>
</g>
<!-- Node21&#45;&gt;Node1 -->
<g id="edge25" class="edge"><title>Node21&#45;&gt;Node1</title>
<path fill="none" stroke="#9a32cd" stroke-dasharray="5,2" d="M466.799,-55.4874C514.644,-52.5232 570.393,-58.5874 607,-93.155 662.759,-145.808 664.45,-407.798 664.118,-466.48"/>
<polygon fill="#9a32cd" stroke="#9a32cd" points="466.427,-52.0055 456.719,-56.25 466.955,-58.9855 466.427,-52.0055"/>
<text text-anchor="middle" x="544" y="-96.955" font-family="Helvetica,sans-Serif" font-size="14.00"> constraints_vector</text>
</g>
<!-- Node22 -->
<g id="node22" class="node"><title>Node22</title>
<polygon fill="white" stroke="#bfbfbf" points="309.5,-10.655 309.5,-33.655 435.5,-33.655 435.5,-10.655 309.5,-10.655"/>
<text text-anchor="middle" x="372.5" y="-18.455" font-family="Helvetica,sans-Serif" font-size="14.00">Triangulation&lt; 3 &gt;</text>
</g>
<!-- Node22&#45;&gt;Node1 -->
<g id="edge26" class="edge"><title>Node22&#45;&gt;Node1</title>
<path fill="none" stroke="#9a32cd" stroke-dasharray="5,2" d="M424.408,-8.46659C477.19,2.34767 558.621,9.02421 607,-36.155 639.515,-66.5197 659.614,-399.101 663.362,-466.343"/>
<polygon fill="#9a32cd" stroke="#9a32cd" points="423.608,-5.05851 414.576,-10.5963 425.09,-11.8999 423.608,-5.05851"/>
<text text-anchor="middle" x="544" y="-39.955" font-family="Helvetica,sans-Serif" font-size="14.00"> triangulation</text>
</g>
</g>
</svg>
