<?xml version="1.0" encoding="UTF-8" standalone="no"?>
<!DOCTYPE svg PUBLIC "-//W3C//DTD SVG 1.1//EN"
 "http://www.w3.org/Graphics/SVG/1.1/DTD/svg11.dtd">
<!-- Generated by graphviz version 2.38.0 (20140413.2041)
 -->
<!-- Title: QNed::QNedMultiscale Pages: 1 -->
<svg width="842pt" height="746pt"
 viewBox="0.00 0.00 842.00 746.46" xmlns="http://www.w3.org/2000/svg" xmlns:xlink="http://www.w3.org/1999/xlink">
<g id="graph0" class="graph" transform="scale(1 1) rotate(0) translate(4 742.458)">
<title>QNed::QNedMultiscale</title>
<polygon fill="white" stroke="none" points="-4,4 -4,-742.458 838,-742.458 838,4 -4,4"/>
<!-- Node1 -->
<g id="node1" class="node"><title>Node1</title>
<polygon fill="#bfbfbf" stroke="black" points="677,-327.958 677,-350.958 834,-350.958 834,-327.958 677,-327.958"/>
<text text-anchor="middle" x="755.5" y="-335.758" font-family="Helvetica,sans-Serif" font-size="14.00">QNed::QNedMultiscale</text>
</g>
<!-- Node2 -->
<g id="node2" class="node"><title>Node2</title>
<polygon fill="white" stroke="#bfbfbf" points="269.5,-689.958 269.5,-712.958 448.5,-712.958 448.5,-689.958 269.5,-689.958"/>
<text text-anchor="middle" x="359" y="-697.758" font-family="Helvetica,sans-Serif" font-size="14.00">map&lt; CellId, QNedBasis &gt;</text>
</g>
<!-- Node2&#45;&gt;Node1 -->
<g id="edge1" class="edge"><title>Node2&#45;&gt;Node1</title>
<path fill="none" stroke="#9a32cd" stroke-dasharray="5,2" d="M416.851,-714.909C482.755,-726.909 591.002,-735.034 659,-679.458 712.407,-635.808 745.706,-406.244 752.987,-351.287"/>
<polygon fill="#9a32cd" stroke="#9a32cd" points="417.13,-711.399 406.65,-712.959 415.815,-718.274 417.13,-711.399"/>
<text text-anchor="middle" x="575" y="-727.258" font-family="Helvetica,sans-Serif" font-size="14.00"> cell_basis_map</text>
</g>
<!-- Node3 -->
<g id="node3" class="node"><title>Node3</title>
<polygon fill="white" stroke="#bfbfbf" points="298.5,-647.958 298.5,-670.958 419.5,-670.958 419.5,-647.958 298.5,-647.958"/>
<text text-anchor="middle" x="359" y="-655.758" font-family="Helvetica,sans-Serif" font-size="14.00">DoFHandler&lt; 3 &gt;</text>
</g>
<!-- Node3&#45;&gt;Node1 -->
<g id="edge2" class="edge"><title>Node3&#45;&gt;Node1</title>
<path fill="none" stroke="#9a32cd" stroke-dasharray="5,2" d="M429.912,-663.048C507.009,-665.526 624.707,-664.463 659,-637.458 752.901,-563.513 755.939,-396.58 754.936,-351.093"/>
<polygon fill="#9a32cd" stroke="#9a32cd" points="429.901,-659.545 419.785,-662.695 429.657,-666.541 429.901,-659.545"/>
<text text-anchor="middle" x="575" y="-667.258" font-family="Helvetica,sans-Serif" font-size="14.00"> dof_handler</text>
</g>
<!-- Node4 -->
<g id="node4" class="node"><title>Node4</title>
<polygon fill="white" stroke="#bfbfbf" points="289,-605.958 289,-628.958 429,-628.958 429,-605.958 289,-605.958"/>
<text text-anchor="middle" x="359" y="-613.758" font-family="Helvetica,sans-Serif" font-size="14.00">ConditionalOStream</text>
</g>
<!-- Node4&#45;&gt;Node1 -->
<g id="edge3" class="edge"><title>Node4&#45;&gt;Node1</title>
<path fill="none" stroke="#9a32cd" stroke-dasharray="5,2" d="M439.432,-621.012C516.16,-622.814 625.528,-620.567 659,-595.458 741.344,-533.688 752.708,-392.696 754.259,-351.171"/>
<polygon fill="#9a32cd" stroke="#9a32cd" points="439.393,-617.51 429.305,-620.747 439.209,-624.508 439.393,-617.51"/>
<text text-anchor="middle" x="575" y="-625.258" font-family="Helvetica,sans-Serif" font-size="14.00"> pcout</text>
</g>
<!-- Node5 -->
<g id="node5" class="node"><title>Node5</title>
<polygon fill="white" stroke="#bfbfbf" points="245,-533.958 245,-586.958 473,-586.958 473,-533.958 245,-533.958"/>
<text text-anchor="start" x="253" y="-571.758" font-family="Helvetica,sans-Serif" font-size="14.00">shared_ptr&lt; typename</text>
<text text-anchor="start" x="253" y="-556.758" font-family="Helvetica,sans-Serif" font-size="14.00"> LinearSolvers::InnerPreconditioner</text>
<text text-anchor="middle" x="359" y="-541.758" font-family="Helvetica,sans-Serif" font-size="14.00">&lt; 3 &gt;::type &gt;</text>
</g>
<!-- Node5&#45;&gt;Node1 -->
<g id="edge4" class="edge"><title>Node5&#45;&gt;Node1</title>
<path fill="none" stroke="#9a32cd" stroke-dasharray="5,2" d="M483.549,-578.886C541.38,-581.107 608.479,-573.852 659,-539.458 726.43,-493.553 747.672,-386.52 752.982,-351.083"/>
<polygon fill="#9a32cd" stroke="#9a32cd" points="483.395,-575.375 473.238,-578.388 483.057,-582.367 483.395,-575.375"/>
<text text-anchor="middle" x="575" y="-583.258" font-family="Helvetica,sans-Serif" font-size="14.00"> inner_schur_preconditioner</text>
</g>
<!-- Node6 -->
<g id="node6" class="node"><title>Node6</title>
<polygon fill="white" stroke="#bfbfbf" points="314.5,-491.958 314.5,-514.958 403.5,-514.958 403.5,-491.958 314.5,-491.958"/>
<text text-anchor="middle" x="359" y="-499.758" font-family="Helvetica,sans-Serif" font-size="14.00">BlockVector</text>
</g>
<!-- Node6&#45;&gt;Node1 -->
<g id="edge5" class="edge"><title>Node6&#45;&gt;Node1</title>
<path fill="none" stroke="#9a32cd" stroke-dasharray="5,2" d="M413.445,-493.103C437.158,-488.654 465.429,-483.549 491,-479.458 565.417,-467.553 593.269,-493.324 659,-456.458 704.051,-431.19 736.319,-375.526 748.799,-351.211"/>
<polygon fill="#9a32cd" stroke="#9a32cd" points="412.759,-489.67 403.582,-494.964 414.058,-496.549 412.759,-489.67"/>
<text text-anchor="middle" x="575" y="-528.258" font-family="Helvetica,sans-Serif" font-size="14.00"> locally_relevant_solution</text>
<text text-anchor="start" x="499.5" y="-513.258" font-family="Helvetica,sans-Serif" font-size="14.00">locally_relevant_exact</text>
<text text-anchor="middle" x="575" y="-498.258" font-family="Helvetica,sans-Serif" font-size="14.00">_solution</text>
<text text-anchor="middle" x="575" y="-483.258" font-family="Helvetica,sans-Serif" font-size="14.00">system_rhs</text>
</g>
<!-- Node7 -->
<g id="node7" class="node"><title>Node7</title>
<polygon fill="white" stroke="#bfbfbf" points="295,-434.458 295,-472.458 423,-472.458 423,-434.458 295,-434.458"/>
<text text-anchor="start" x="303" y="-457.258" font-family="Helvetica,sans-Serif" font-size="14.00">AffineConstraints&lt;</text>
<text text-anchor="middle" x="359" y="-442.258" font-family="Helvetica,sans-Serif" font-size="14.00"> double &gt;</text>
</g>
<!-- Node7&#45;&gt;Node1 -->
<g id="edge6" class="edge"><title>Node7&#45;&gt;Node1</title>
<path fill="none" stroke="#9a32cd" stroke-dasharray="5,2" d="M433.145,-446.524C514.933,-438.436 638.658,-425.078 659,-416.458 694.886,-401.25 728.267,-368.438 744.386,-350.961"/>
<polygon fill="#9a32cd" stroke="#9a32cd" points="432.75,-443.045 423.14,-447.507 433.435,-450.012 432.75,-443.045"/>
<text text-anchor="middle" x="575" y="-444.258" font-family="Helvetica,sans-Serif" font-size="14.00"> constraints</text>
</g>
<!-- Node8 -->
<g id="node8" class="node"><title>Node8</title>
<polygon fill="white" stroke="#bfbfbf" points="328,-391.958 328,-414.958 390,-414.958 390,-391.958 328,-391.958"/>
<text text-anchor="middle" x="359" y="-399.758" font-family="Helvetica,sans-Serif" font-size="14.00">string &amp;</text>
</g>
<!-- Node8&#45;&gt;Node1 -->
<g id="edge7" class="edge"><title>Node8&#45;&gt;Node1</title>
<path fill="none" stroke="#9a32cd" stroke-dasharray="5,2" d="M400.279,-402.5C458.169,-400.431 567.954,-393.915 659,-373.458 682.696,-368.134 708.596,-358.67 727.438,-351.076"/>
<polygon fill="#9a32cd" stroke="#9a32cd" points="399.968,-399.008 390.089,-402.837 400.199,-406.004 399.968,-399.008"/>
<text text-anchor="middle" x="575" y="-401.258" font-family="Helvetica,sans-Serif" font-size="14.00"> parameter_filename</text>
</g>
<!-- Node9 -->
<g id="node9" class="node"><title>Node9</title>
<g id="a_node9"><a xlink:href="structQNed_1_1ParametersMs.html" target="_top" xlink:title="QNed::ParametersMs">
<polygon fill="white" stroke="black" points="284.5,-349.958 284.5,-372.958 433.5,-372.958 433.5,-349.958 284.5,-349.958"/>
<text text-anchor="middle" x="359" y="-357.758" font-family="Helvetica,sans-Serif" font-size="14.00">QNed::ParametersMs</text>
</a>
</g>
</g>
<!-- Node9&#45;&gt;Node1 -->
<g id="edge8" class="edge"><title>Node9&#45;&gt;Node1</title>
<path fill="none" stroke="#9a32cd" stroke-dasharray="5,2" d="M444.118,-356.767C512.988,-352.926 609.655,-347.535 676.737,-343.795"/>
<polygon fill="#9a32cd" stroke="#9a32cd" points="443.529,-353.294 433.74,-357.346 443.919,-360.283 443.529,-353.294"/>
<text text-anchor="middle" x="575" y="-358.258" font-family="Helvetica,sans-Serif" font-size="14.00"> parameters</text>
</g>
<!-- Node10 -->
<g id="node10" class="node"><title>Node10</title>
<polygon fill="white" stroke="#bfbfbf" points="19.5,-507.958 19.5,-530.958 69.5,-530.958 69.5,-507.958 19.5,-507.958"/>
<text text-anchor="middle" x="44.5" y="-515.758" font-family="Helvetica,sans-Serif" font-size="14.00">string</text>
</g>
<!-- Node10&#45;&gt;Node9 -->
<g id="edge9" class="edge"><title>Node10&#45;&gt;Node9</title>
<path fill="none" stroke="#9a32cd" stroke-dasharray="5,2" d="M79.5832,-526.302C120.375,-532.327 188.042,-535.089 227,-497.458 264.209,-461.516 208.944,-419.556 245,-382.458 255.5,-371.655 269.635,-365.397 284.348,-361.943"/>
<polygon fill="#9a32cd" stroke="#9a32cd" points="80.0096,-522.825 69.5782,-524.679 78.8886,-529.735 80.0096,-522.825"/>
<text text-anchor="middle" x="167" y="-549.258" font-family="Helvetica,sans-Serif" font-size="14.00"> filename_output</text>
<text text-anchor="middle" x="167" y="-534.258" font-family="Helvetica,sans-Serif" font-size="14.00">dirname_output</text>
</g>
<!-- Node11 -->
<g id="node11" class="node"><title>Node11</title>
<polygon fill="white" stroke="#bfbfbf" points="23.5,-349.958 23.5,-372.958 65.5,-372.958 65.5,-349.958 23.5,-349.958"/>
<text text-anchor="middle" x="44.5" y="-357.758" font-family="Helvetica,sans-Serif" font-size="14.00">bool</text>
</g>
<!-- Node11&#45;&gt;Node9 -->
<g id="edge10" class="edge"><title>Node11&#45;&gt;Node9</title>
<path fill="none" stroke="#9a32cd" stroke-dasharray="5,2" d="M75.8149,-361.458C123.626,-361.458 217.922,-361.458 284.314,-361.458"/>
<polygon fill="#9a32cd" stroke="#9a32cd" points="75.5237,-357.958 65.5237,-361.458 75.5236,-364.958 75.5237,-357.958"/>
<text text-anchor="middle" x="167" y="-485.258" font-family="Helvetica,sans-Serif" font-size="14.00"> use_exact_solution</text>
<text text-anchor="middle" x="167" y="-470.258" font-family="Helvetica,sans-Serif" font-size="14.00">verbose_basis</text>
<text text-anchor="middle" x="167" y="-455.258" font-family="Helvetica,sans-Serif" font-size="14.00">prevent_output</text>
<text text-anchor="middle" x="167" y="-440.258" font-family="Helvetica,sans-Serif" font-size="14.00">renumber_dofs</text>
<text text-anchor="start" x="107" y="-425.258" font-family="Helvetica,sans-Serif" font-size="14.00">use_direct_solver</text>
<text text-anchor="middle" x="167" y="-410.258" font-family="Helvetica,sans-Serif" font-size="14.00">_basis</text>
<text text-anchor="middle" x="167" y="-395.258" font-family="Helvetica,sans-Serif" font-size="14.00">use_direct_solver</text>
<text text-anchor="middle" x="167" y="-380.258" font-family="Helvetica,sans-Serif" font-size="14.00">verbose</text>
<text text-anchor="middle" x="167" y="-365.258" font-family="Helvetica,sans-Serif" font-size="14.00">compute_solution</text>
</g>
<!-- Node12 -->
<g id="node12" class="node"><title>Node12</title>
<polygon fill="white" stroke="#bfbfbf" points="0,-296.958 0,-319.958 89,-319.958 89,-296.958 0,-296.958"/>
<text text-anchor="middle" x="44.5" y="-304.758" font-family="Helvetica,sans-Serif" font-size="14.00">unsigned int</text>
</g>
<!-- Node12&#45;&gt;Node9 -->
<g id="edge11" class="edge"><title>Node12&#45;&gt;Node9</title>
<path fill="none" stroke="#9a32cd" stroke-dasharray="5,2" d="M99.2177,-306.896C136.261,-307.524 186.014,-311.801 227,-327.458 236.219,-330.979 235.929,-336.573 245,-340.458 257.29,-345.721 270.887,-349.667 284.265,-352.626"/>
<polygon fill="#9a32cd" stroke="#9a32cd" points="99.1543,-303.395 89.1246,-306.809 99.0941,-310.395 99.1543,-303.395"/>
<text text-anchor="middle" x="167" y="-346.258" font-family="Helvetica,sans-Serif" font-size="14.00"> n_refine_global</text>
<text text-anchor="middle" x="167" y="-331.258" font-family="Helvetica,sans-Serif" font-size="14.00">n_refine_local</text>
</g>
<!-- Node13 -->
<g id="node13" class="node"><title>Node13</title>
<polygon fill="white" stroke="#bfbfbf" points="312.5,-307.958 312.5,-330.958 405.5,-330.958 405.5,-307.958 312.5,-307.958"/>
<text text-anchor="middle" x="359" y="-315.758" font-family="Helvetica,sans-Serif" font-size="14.00">TimerOutput</text>
</g>
<!-- Node13&#45;&gt;Node1 -->
<g id="edge12" class="edge"><title>Node13&#45;&gt;Node1</title>
<path fill="none" stroke="#9a32cd" stroke-dasharray="5,2" d="M415.757,-317.261C475.919,-315.533 574.471,-314.566 659,-322.458 671.911,-323.663 685.695,-325.682 698.659,-327.915"/>
<polygon fill="#9a32cd" stroke="#9a32cd" points="415.6,-313.764 405.711,-317.567 415.813,-320.76 415.6,-313.764"/>
<text text-anchor="middle" x="575" y="-326.258" font-family="Helvetica,sans-Serif" font-size="14.00"> computing_timer</text>
</g>
<!-- Node14 -->
<g id="node14" class="node"><title>Node14</title>
<polygon fill="white" stroke="#bfbfbf" points="333.5,-265.958 333.5,-288.958 384.5,-288.958 384.5,-265.958 333.5,-265.958"/>
<text text-anchor="middle" x="359" y="-273.758" font-family="Helvetica,sans-Serif" font-size="14.00">CellId</text>
</g>
<!-- Node14&#45;&gt;Node1 -->
<g id="edge13" class="edge"><title>Node14&#45;&gt;Node1</title>
<path fill="none" stroke="#9a32cd" stroke-dasharray="5,2" d="M395.033,-275.918C451.495,-274.295 565.725,-274.576 659,-297.458 686.09,-304.103 715.147,-317.952 734.001,-327.933"/>
<polygon fill="#9a32cd" stroke="#9a32cd" points="394.738,-272.425 384.857,-276.25 394.966,-279.422 394.738,-272.425"/>
<text text-anchor="middle" x="575" y="-301.258" font-family="Helvetica,sans-Serif" font-size="14.00"> first_cell</text>
</g>
<!-- Node15 -->
<g id="node15" class="node"><title>Node15</title>
<polygon fill="white" stroke="#bfbfbf" points="303.5,-223.958 303.5,-246.958 414.5,-246.958 414.5,-223.958 303.5,-223.958"/>
<text text-anchor="middle" x="359" y="-231.758" font-family="Helvetica,sans-Serif" font-size="14.00">FESystem&lt; 3 &gt;</text>
</g>
<!-- Node15&#45;&gt;Node1 -->
<g id="edge14" class="edge"><title>Node15&#45;&gt;Node1</title>
<path fill="none" stroke="#9a32cd" stroke-dasharray="5,2" d="M424.789,-229.218C487.197,-225.752 583.055,-227.232 659,-258.458 696.198,-273.753 729.506,-309.243 745.121,-327.752"/>
<polygon fill="#9a32cd" stroke="#9a32cd" points="424.453,-225.732 414.686,-229.838 424.882,-232.719 424.453,-225.732"/>
<text text-anchor="middle" x="575" y="-262.258" font-family="Helvetica,sans-Serif" font-size="14.00"> fe</text>
</g>
<!-- Node16 -->
<g id="node16" class="node"><title>Node16</title>
<polygon fill="white" stroke="#bfbfbf" points="294,-181.958 294,-204.958 424,-204.958 424,-181.958 294,-181.958"/>
<text text-anchor="middle" x="359" y="-189.758" font-family="Helvetica,sans-Serif" font-size="14.00">BlockSparseMatrix</text>
</g>
<!-- Node16&#45;&gt;Node1 -->
<g id="edge15" class="edge"><title>Node16&#45;&gt;Node1</title>
<path fill="none" stroke="#9a32cd" stroke-dasharray="5,2" d="M434.509,-190.297C510.266,-188.336 621.652,-189.28 659,-209.458 708.524,-236.214 739.153,-301.096 750.028,-327.74"/>
<polygon fill="#9a32cd" stroke="#9a32cd" points="433.964,-186.811 424.067,-190.591 434.161,-193.808 433.964,-186.811"/>
<text text-anchor="middle" x="575" y="-213.258" font-family="Helvetica,sans-Serif" font-size="14.00"> system_matrix</text>
</g>
<!-- Node17 -->
<g id="node17" class="node"><title>Node17</title>
<polygon fill="white" stroke="#bfbfbf" points="293.5,-139.958 293.5,-162.958 424.5,-162.958 424.5,-139.958 293.5,-139.958"/>
<text text-anchor="middle" x="359" y="-147.758" font-family="Helvetica,sans-Serif" font-size="14.00">vector&lt; IndexSet &gt;</text>
</g>
<!-- Node17&#45;&gt;Node1 -->
<g id="edge16" class="edge"><title>Node17&#45;&gt;Node1</title>
<path fill="none" stroke="#9a32cd" stroke-dasharray="5,2" d="M434.544,-144.226C510.733,-138.309 622.856,-134.135 659,-156.458 723.03,-196.003 746.274,-293.813 752.56,-327.686"/>
<polygon fill="#9a32cd" stroke="#9a32cd" points="434.197,-140.742 424.509,-145.031 434.757,-147.72 434.197,-140.742"/>
<text text-anchor="middle" x="575" y="-175.258" font-family="Helvetica,sans-Serif" font-size="14.00"> relevant_partitioning</text>
<text text-anchor="middle" x="575" y="-160.258" font-family="Helvetica,sans-Serif" font-size="14.00">owned_partitioning</text>
</g>
<!-- Node18 -->
<g id="node18" class="node"><title>Node18</title>
<polygon fill="white" stroke="#bfbfbf" points="314,-97.9579 314,-120.958 404,-120.958 404,-97.9579 314,-97.9579"/>
<text text-anchor="middle" x="359" y="-105.758" font-family="Helvetica,sans-Serif" font-size="14.00">MPI_Comm</text>
</g>
<!-- Node18&#45;&gt;Node1 -->
<g id="edge17" class="edge"><title>Node18&#45;&gt;Node1</title>
<path fill="none" stroke="#9a32cd" stroke-dasharray="5,2" d="M414.359,-104.953C489.603,-99.8245 620.582,-95.2308 659,-121.458 732.029,-171.313 749.697,-290.153 753.529,-327.806"/>
<polygon fill="#9a32cd" stroke="#9a32cd" points="413.855,-101.48 404.127,-105.677 414.349,-108.463 413.855,-101.48"/>
<text text-anchor="middle" x="575" y="-125.258" font-family="Helvetica,sans-Serif" font-size="14.00"> mpi_communicator</text>
</g>
<!-- Node19 -->
<g id="node19" class="node"><title>Node19</title>
<polygon fill="white" stroke="#bfbfbf" points="324,-55.9579 324,-78.9579 394,-78.9579 394,-55.9579 324,-55.9579"/>
<text text-anchor="middle" x="359" y="-63.7579" font-family="Helvetica,sans-Serif" font-size="14.00">IndexSet</text>
</g>
<!-- Node19&#45;&gt;Node1 -->
<g id="edge18" class="edge"><title>Node19&#45;&gt;Node1</title>
<path fill="none" stroke="#9a32cd" stroke-dasharray="5,2" d="M404.294,-63.9195C477.532,-58.9961 619.696,-53.6457 659,-82.4579 742.496,-143.666 753.049,-286.38 754.335,-327.921"/>
<polygon fill="#9a32cd" stroke="#9a32cd" points="403.74,-60.4495 394.009,-64.6387 404.229,-67.4325 403.74,-60.4495"/>
<text text-anchor="middle" x="575" y="-86.2579" font-family="Helvetica,sans-Serif" font-size="14.00"> locally_relevant_dofs</text>
</g>
<!-- Node20 -->
<g id="node20" class="node"><title>Node20</title>
<polygon fill="white" stroke="#bfbfbf" points="296,-13.9579 296,-36.9579 422,-36.9579 422,-13.9579 296,-13.9579"/>
<text text-anchor="middle" x="359" y="-21.7579" font-family="Helvetica,sans-Serif" font-size="14.00">Triangulation&lt; 3 &gt;</text>
</g>
<!-- Node20&#45;&gt;Node1 -->
<g id="edge19" class="edge"><title>Node20&#45;&gt;Node1</title>
<path fill="none" stroke="#9a32cd" stroke-dasharray="5,2" d="M413.07,-11.755C478.118,1.66144 588.381,13.0186 659,-41.4579 753.636,-114.461 756.145,-282.071 754.98,-327.767"/>
<polygon fill="#9a32cd" stroke="#9a32cd" points="412.071,-8.38988 403.032,-13.9162 413.544,-15.2331 412.071,-8.38988"/>
<text text-anchor="middle" x="575" y="-45.2579" font-family="Helvetica,sans-Serif" font-size="14.00"> triangulation</text>
</g>
</g>
</svg>
