<?xml version="1.0" encoding="UTF-8" standalone="no"?>
<!DOCTYPE svg PUBLIC "-//W3C//DTD SVG 1.1//EN"
 "http://www.w3.org/Graphics/SVG/1.1/DTD/svg11.dtd">
<!-- Generated by graphviz version 2.38.0 (20140413.2041)
 -->
<!-- Title: Q::QStd Pages: 1 -->
<svg width="640pt" height="639pt"
 viewBox="0.00 0.00 640.00 639.00" xmlns="http://www.w3.org/2000/svg" xmlns:xlink="http://www.w3.org/1999/xlink">
<g id="graph0" class="graph" transform="scale(1 1) rotate(0) translate(4 635)">
<title>Q::QStd</title>
<polygon fill="white" stroke="none" points="-4,4 -4,-635 636,-635 636,4 -4,4"/>
<!-- Node1 -->
<g id="node1" class="node"><title>Node1</title>
<polygon fill="#bfbfbf" stroke="black" points="565,-343.5 565,-366.5 632,-366.5 632,-343.5 565,-343.5"/>
<text text-anchor="middle" x="598.5" y="-351.3" font-family="Helvetica,sans-Serif" font-size="14.00">Q::QStd</text>
</g>
<!-- Node2 -->
<g id="node2" class="node"><title>Node2</title>
<polygon fill="white" stroke="#bfbfbf" points="247.5,-590.5 247.5,-613.5 368.5,-613.5 368.5,-590.5 247.5,-590.5"/>
<text text-anchor="middle" x="308" y="-598.3" font-family="Helvetica,sans-Serif" font-size="14.00">DoFHandler&lt; 3 &gt;</text>
</g>
<!-- Node2&#45;&gt;Node1 -->
<g id="edge1" class="edge"><title>Node2&#45;&gt;Node1</title>
<path fill="none" stroke="#9a32cd" stroke-dasharray="5,2" d="M378.935,-614.522C431.498,-619.702 501.92,-617.011 547,-577 579.149,-548.467 593.122,-408.17 596.598,-366.617"/>
<polygon fill="#9a32cd" stroke="#9a32cd" points="378.997,-611.007 368.674,-613.389 378.23,-617.965 378.997,-611.007"/>
<text text-anchor="middle" x="471.5" y="-619.8" font-family="Helvetica,sans-Serif" font-size="14.00"> dof_handler</text>
</g>
<!-- Node3 -->
<g id="node3" class="node"><title>Node3</title>
<polygon fill="white" stroke="#bfbfbf" points="238,-548.5 238,-571.5 378,-571.5 378,-548.5 238,-548.5"/>
<text text-anchor="middle" x="308" y="-556.3" font-family="Helvetica,sans-Serif" font-size="14.00">ConditionalOStream</text>
</g>
<!-- Node3&#45;&gt;Node1 -->
<g id="edge2" class="edge"><title>Node3&#45;&gt;Node1</title>
<path fill="none" stroke="#9a32cd" stroke-dasharray="5,2" d="M388.477,-559.159C448.238,-556.88 523.665,-549.961 547,-530 596.982,-487.246 599.081,-398.44 598.111,-366.641"/>
<polygon fill="#9a32cd" stroke="#9a32cd" points="388.15,-555.668 378.276,-559.509 388.39,-562.664 388.15,-555.668"/>
<text text-anchor="middle" x="471.5" y="-561.8" font-family="Helvetica,sans-Serif" font-size="14.00"> pcout</text>
</g>
<!-- Node4 -->
<g id="node4" class="node"><title>Node4</title>
<polygon fill="white" stroke="#bfbfbf" points="244,-491 244,-529 372,-529 372,-491 244,-491"/>
<text text-anchor="start" x="252" y="-513.8" font-family="Helvetica,sans-Serif" font-size="14.00">AffineConstraints&lt;</text>
<text text-anchor="middle" x="308" y="-498.8" font-family="Helvetica,sans-Serif" font-size="14.00"> double &gt;</text>
</g>
<!-- Node4&#45;&gt;Node1 -->
<g id="edge3" class="edge"><title>Node4&#45;&gt;Node1</title>
<path fill="none" stroke="#9a32cd" stroke-dasharray="5,2" d="M382.262,-511.509C442.494,-511.274 521.863,-507.111 547,-488 586.52,-457.954 595.113,-393.099 596.981,-366.619"/>
<polygon fill="#9a32cd" stroke="#9a32cd" points="382.013,-508.009 372.014,-511.512 382.015,-515.009 382.013,-508.009"/>
<text text-anchor="middle" x="471.5" y="-514.8" font-family="Helvetica,sans-Serif" font-size="14.00"> constraints</text>
</g>
<!-- Node5 -->
<g id="node5" class="node"><title>Node5</title>
<polygon fill="white" stroke="#bfbfbf" points="277,-448.5 277,-471.5 339,-471.5 339,-448.5 277,-448.5"/>
<text text-anchor="middle" x="308" y="-456.3" font-family="Helvetica,sans-Serif" font-size="14.00">string &amp;</text>
</g>
<!-- Node5&#45;&gt;Node1 -->
<g id="edge4" class="edge"><title>Node5&#45;&gt;Node1</title>
<path fill="none" stroke="#9a32cd" stroke-dasharray="5,2" d="M349.271,-466.374C399.553,-472.168 486.326,-474.834 547,-437 573.246,-420.634 587.931,-385.099 594.058,-366.647"/>
<polygon fill="#9a32cd" stroke="#9a32cd" points="349.475,-462.872 339.117,-465.104 348.605,-469.818 349.475,-462.872"/>
<text text-anchor="middle" x="471.5" y="-472.8" font-family="Helvetica,sans-Serif" font-size="14.00"> parameter_filename</text>
</g>
<!-- Node6 -->
<g id="node6" class="node"><title>Node6</title>
<polygon fill="white" stroke="#bfbfbf" points="259.5,-406.5 259.5,-429.5 356.5,-429.5 356.5,-406.5 259.5,-406.5"/>
<text text-anchor="middle" x="308" y="-414.3" font-family="Helvetica,sans-Serif" font-size="14.00">SparseMatrix</text>
</g>
<!-- Node6&#45;&gt;Node1 -->
<g id="edge5" class="edge"><title>Node6&#45;&gt;Node1</title>
<path fill="none" stroke="#9a32cd" stroke-dasharray="5,2" d="M366.836,-418.944C416.209,-417.955 488.327,-412.191 547,-390 560.968,-384.717 574.762,-374.745 584.394,-366.792"/>
<polygon fill="#9a32cd" stroke="#9a32cd" points="366.608,-415.447 356.659,-419.087 366.707,-422.447 366.608,-415.447"/>
<text text-anchor="middle" x="471.5" y="-421.8" font-family="Helvetica,sans-Serif" font-size="14.00"> system_matrix</text>
</g>
<!-- Node7 -->
<g id="node7" class="node"><title>Node7</title>
<polygon fill="white" stroke="#bfbfbf" points="261.5,-364.5 261.5,-387.5 354.5,-387.5 354.5,-364.5 261.5,-364.5"/>
<text text-anchor="middle" x="308" y="-372.3" font-family="Helvetica,sans-Serif" font-size="14.00">TimerOutput</text>
</g>
<!-- Node7&#45;&gt;Node1 -->
<g id="edge6" class="edge"><title>Node7&#45;&gt;Node1</title>
<path fill="none" stroke="#9a32cd" stroke-dasharray="5,2" d="M364.891,-372.742C413.146,-369.81 484.712,-365.176 547,-360 552.795,-359.518 558.958,-358.953 564.915,-358.379"/>
<polygon fill="#9a32cd" stroke="#9a32cd" points="364.429,-369.264 354.658,-373.36 364.851,-376.251 364.429,-369.264"/>
<text text-anchor="middle" x="471.5" y="-374.8" font-family="Helvetica,sans-Serif" font-size="14.00"> computing_timer</text>
</g>
<!-- Node8 -->
<g id="node8" class="node"><title>Node8</title>
<polygon fill="white" stroke="#bfbfbf" points="280,-321.5 280,-344.5 336,-344.5 336,-321.5 280,-321.5"/>
<text text-anchor="middle" x="308" y="-329.3" font-family="Helvetica,sans-Serif" font-size="14.00">Vector</text>
</g>
<!-- Node8&#45;&gt;Node1 -->
<g id="edge7" class="edge"><title>Node8&#45;&gt;Node1</title>
<path fill="none" stroke="#9a32cd" stroke-dasharray="5,2" d="M346.489,-325.381C394.034,-317.186 478.119,-307.629 547,-326 559.699,-329.387 572.523,-336.812 582.071,-343.301"/>
<polygon fill="#9a32cd" stroke="#9a32cd" points="345.574,-321.989 336.351,-327.204 346.813,-328.879 345.574,-321.989"/>
<text text-anchor="middle" x="471.5" y="-344.8" font-family="Helvetica,sans-Serif" font-size="14.00"> locally_relevant_solution</text>
<text text-anchor="middle" x="471.5" y="-329.8" font-family="Helvetica,sans-Serif" font-size="14.00">system_rhs</text>
</g>
<!-- Node9 -->
<g id="node9" class="node"><title>Node9</title>
<polygon fill="white" stroke="#bfbfbf" points="266,-279.5 266,-302.5 350,-302.5 350,-279.5 266,-279.5"/>
<text text-anchor="middle" x="308" y="-287.3" font-family="Helvetica,sans-Serif" font-size="14.00">FE_Q&lt; 3 &gt;</text>
</g>
<!-- Node9&#45;&gt;Node1 -->
<g id="edge8" class="edge"><title>Node9&#45;&gt;Node1</title>
<path fill="none" stroke="#9a32cd" stroke-dasharray="5,2" d="M359.962,-280.886C410.085,-273.484 487.519,-269.012 547,-297 567.537,-306.664 583.068,-329.07 591.185,-343.033"/>
<polygon fill="#9a32cd" stroke="#9a32cd" points="359.343,-277.44 350.006,-282.448 360.428,-284.355 359.343,-277.44"/>
<text text-anchor="middle" x="471.5" y="-300.8" font-family="Helvetica,sans-Serif" font-size="14.00"> fe</text>
</g>
<!-- Node10 -->
<g id="node10" class="node"><title>Node10</title>
<polygon fill="white" stroke="#bfbfbf" points="263,-237.5 263,-260.5 353,-260.5 353,-237.5 263,-237.5"/>
<text text-anchor="middle" x="308" y="-245.3" font-family="Helvetica,sans-Serif" font-size="14.00">MPI_Comm</text>
</g>
<!-- Node10&#45;&gt;Node1 -->
<g id="edge9" class="edge"><title>Node10&#45;&gt;Node1</title>
<path fill="none" stroke="#9a32cd" stroke-dasharray="5,2" d="M363.345,-244.62C424.033,-240.793 517.61,-238.398 547,-257 578.052,-276.654 590.932,-321.952 595.432,-343.373"/>
<polygon fill="#9a32cd" stroke="#9a32cd" points="362.908,-241.141 353.161,-245.295 363.371,-248.126 362.908,-241.141"/>
<text text-anchor="middle" x="471.5" y="-260.8" font-family="Helvetica,sans-Serif" font-size="14.00"> mpi_communicator</text>
</g>
<!-- Node11 -->
<g id="node11" class="node"><title>Node11</title>
<polygon fill="white" stroke="#bfbfbf" points="273,-190.5 273,-213.5 343,-213.5 343,-190.5 273,-190.5"/>
<text text-anchor="middle" x="308" y="-198.3" font-family="Helvetica,sans-Serif" font-size="14.00">IndexSet</text>
</g>
<!-- Node11&#45;&gt;Node1 -->
<g id="edge10" class="edge"><title>Node11&#45;&gt;Node1</title>
<path fill="none" stroke="#9a32cd" stroke-dasharray="5,2" d="M353.059,-189.346C404.764,-177.344 490.59,-166.65 547,-208 591.398,-240.545 597.105,-314.568 597.591,-343.297"/>
<polygon fill="#9a32cd" stroke="#9a32cd" points="352.08,-185.982 343.192,-191.749 353.736,-192.783 352.08,-185.982"/>
<text text-anchor="middle" x="471.5" y="-226.8" font-family="Helvetica,sans-Serif" font-size="14.00"> locally_owned_dofs</text>
<text text-anchor="middle" x="471.5" y="-211.8" font-family="Helvetica,sans-Serif" font-size="14.00">locally_relevant_dofs</text>
</g>
<!-- Node12 -->
<g id="node12" class="node"><title>Node12</title>
<polygon fill="white" stroke="#bfbfbf" points="245,-148.5 245,-171.5 371,-171.5 371,-148.5 245,-148.5"/>
<text text-anchor="middle" x="308" y="-156.3" font-family="Helvetica,sans-Serif" font-size="14.00">Triangulation&lt; 3 &gt;</text>
</g>
<!-- Node12&#45;&gt;Node1 -->
<g id="edge11" class="edge"><title>Node12&#45;&gt;Node1</title>
<path fill="none" stroke="#9a32cd" stroke-dasharray="5,2" d="M381.554,-150.592C441.974,-144.426 522.019,-140.664 547,-160 576.729,-183.011 592.142,-304.911 596.317,-343.368"/>
<polygon fill="#9a32cd" stroke="#9a32cd" points="380.854,-147.147 371.28,-151.683 381.593,-154.108 380.854,-147.147"/>
<text text-anchor="middle" x="471.5" y="-163.8" font-family="Helvetica,sans-Serif" font-size="14.00"> triangulation</text>
</g>
<!-- Node13 -->
<g id="node13" class="node"><title>Node13</title>
<g id="a_node13"><a xlink:href="structQ_1_1ParametersStd.html" target="_top" xlink:title="Q::ParametersStd">
<polygon fill="white" stroke="black" points="245,-106.5 245,-129.5 371,-129.5 371,-106.5 245,-106.5"/>
<text text-anchor="middle" x="308" y="-114.3" font-family="Helvetica,sans-Serif" font-size="14.00">Q::ParametersStd</text>
</a>
</g>
</g>
<!-- Node13&#45;&gt;Node1 -->
<g id="edge12" class="edge"><title>Node13&#45;&gt;Node1</title>
<path fill="none" stroke="#9a32cd" stroke-dasharray="5,2" d="M357.65,-104.109C410.537,-92.2255 494.503,-83.2019 547,-127 580.933,-155.31 593.694,-300.741 596.735,-343.292"/>
<polygon fill="#9a32cd" stroke="#9a32cd" points="356.757,-100.724 347.829,-106.429 358.366,-107.536 356.757,-100.724"/>
<text text-anchor="middle" x="471.5" y="-130.8" font-family="Helvetica,sans-Serif" font-size="14.00"> parameters</text>
</g>
<!-- Node14 -->
<g id="node14" class="node"><title>Node14</title>
<polygon fill="white" stroke="#bfbfbf" points="29,-223.5 29,-246.5 60,-246.5 60,-223.5 29,-223.5"/>
<text text-anchor="middle" x="44.5" y="-231.3" font-family="Helvetica,sans-Serif" font-size="14.00">int</text>
</g>
<!-- Node14&#45;&gt;Node13 -->
<g id="edge13" class="edge"><title>Node14&#45;&gt;Node13</title>
<path fill="none" stroke="#9a32cd" stroke-dasharray="5,2" d="M70.4015,-239.823C107.811,-245.515 178.536,-250.017 220,-213 245.25,-190.458 214.756,-163.604 238,-139 241.526,-135.268 245.692,-132.193 250.203,-129.66"/>
<polygon fill="#9a32cd" stroke="#9a32cd" points="70.798,-236.34 60.3573,-238.141 69.642,-243.244 70.798,-236.34"/>
<text text-anchor="middle" x="163.5" y="-247.8" font-family="Helvetica,sans-Serif" font-size="14.00"> transfer_to_level</text>
</g>
<!-- Node15 -->
<g id="node15" class="node"><title>Node15</title>
<polygon fill="white" stroke="#bfbfbf" points="19.5,-170.5 19.5,-193.5 69.5,-193.5 69.5,-170.5 19.5,-170.5"/>
<text text-anchor="middle" x="44.5" y="-178.3" font-family="Helvetica,sans-Serif" font-size="14.00">string</text>
</g>
<!-- Node15&#45;&gt;Node13 -->
<g id="edge14" class="edge"><title>Node15&#45;&gt;Node13</title>
<path fill="none" stroke="#9a32cd" stroke-dasharray="5,2" d="M79.7391,-180.592C123.514,-178.298 196.465,-172.668 220,-160 230.824,-154.174 227.71,-145.724 238,-139 243.765,-135.233 250.238,-132.115 256.848,-129.541"/>
<polygon fill="#9a32cd" stroke="#9a32cd" points="79.3661,-177.106 69.5502,-181.094 79.7102,-184.098 79.3661,-177.106"/>
<text text-anchor="middle" x="163.5" y="-197.8" font-family="Helvetica,sans-Serif" font-size="14.00"> filename_output</text>
<text text-anchor="middle" x="163.5" y="-182.8" font-family="Helvetica,sans-Serif" font-size="14.00">dirname_output</text>
</g>
<!-- Node16 -->
<g id="node16" class="node"><title>Node16</title>
<polygon fill="white" stroke="#bfbfbf" points="23.5,-42.5 23.5,-65.5 65.5,-65.5 65.5,-42.5 23.5,-42.5"/>
<text text-anchor="middle" x="44.5" y="-50.3" font-family="Helvetica,sans-Serif" font-size="14.00">bool</text>
</g>
<!-- Node16&#45;&gt;Node13 -->
<g id="edge15" class="edge"><title>Node16&#45;&gt;Node13</title>
<path fill="none" stroke="#9a32cd" stroke-dasharray="5,2" d="M75.7438,-47.4287C111.318,-41.0571 171.651,-34.5405 220,-51 252.304,-61.9973 281.968,-90.3723 296.89,-106.447"/>
<polygon fill="#9a32cd" stroke="#9a32cd" points="74.706,-44.0635 65.5392,-49.3759 76.0181,-50.9395 74.706,-44.0635"/>
<text text-anchor="middle" x="163.5" y="-144.8" font-family="Helvetica,sans-Serif" font-size="14.00"> is_pure_neumann</text>
<text text-anchor="middle" x="163.5" y="-129.8" font-family="Helvetica,sans-Serif" font-size="14.00">renumber_dofs</text>
<text text-anchor="middle" x="163.5" y="-114.8" font-family="Helvetica,sans-Serif" font-size="14.00">degree</text>
<text text-anchor="middle" x="163.5" y="-99.8" font-family="Helvetica,sans-Serif" font-size="14.00">use_direct_solver</text>
<text text-anchor="middle" x="163.5" y="-84.8" font-family="Helvetica,sans-Serif" font-size="14.00">verbose</text>
<text text-anchor="middle" x="163.5" y="-69.8" font-family="Helvetica,sans-Serif" font-size="14.00">compute_solution</text>
<text text-anchor="middle" x="163.5" y="-54.8" font-family="Helvetica,sans-Serif" font-size="14.00">is_laplace</text>
</g>
<!-- Node17 -->
<g id="node17" class="node"><title>Node17</title>
<polygon fill="white" stroke="#bfbfbf" points="0,-0.5 0,-23.5 89,-23.5 89,-0.5 0,-0.5"/>
<text text-anchor="middle" x="44.5" y="-8.3" font-family="Helvetica,sans-Serif" font-size="14.00">unsigned int</text>
</g>
<!-- Node17&#45;&gt;Node13 -->
<g id="edge16" class="edge"><title>Node17&#45;&gt;Node13</title>
<path fill="none" stroke="#9a32cd" stroke-dasharray="5,2" d="M99.6241,-4.82676C135.483,-2.47941 182.623,-4.13374 220,-22 258.963,-40.6243 288.419,-85.3122 300.712,-106.492"/>
<polygon fill="#9a32cd" stroke="#9a32cd" points="99.0527,-1.36059 89.3549,-5.62713 99.5966,-8.33943 99.0527,-1.36059"/>
<text text-anchor="middle" x="163.5" y="-25.8" font-family="Helvetica,sans-Serif" font-size="14.00"> n_refine</text>
</g>
</g>
</svg>
