<?xml version="1.0" encoding="UTF-8" standalone="no"?>
<!DOCTYPE svg PUBLIC "-//W3C//DTD SVG 1.1//EN"
 "http://www.w3.org/Graphics/SVG/1.1/DTD/svg11.dtd">
<!-- Generated by graphviz version 2.38.0 (20140413.2041)
 -->
<!-- Title: EquationData::Diffusion_A_Data Pages: 1 -->
<svg width="317pt" height="242pt"
 viewBox="0.00 0.00 316.50 242.00" xmlns="http://www.w3.org/2000/svg" xmlns:xlink="http://www.w3.org/1999/xlink">
<g id="graph0" class="graph" transform="scale(1 1) rotate(0) translate(4 238)">
<title>EquationData::Diffusion_A_Data</title>
<polygon fill="white" stroke="none" points="-4,4 -4,-238 312.5,-238 312.5,4 -4,4"/>
<!-- Node1 -->
<g id="node1" class="node"><title>Node1</title>
<polygon fill="#bfbfbf" stroke="black" points="91.5,-0.5 91.5,-38.5 249.5,-38.5 249.5,-0.5 91.5,-0.5"/>
<text text-anchor="start" x="99.5" y="-23.3" font-family="Helvetica,sans-Serif" font-size="14.00">EquationData::Diffusion</text>
<text text-anchor="middle" x="170.5" y="-8.3" font-family="Helvetica,sans-Serif" font-size="14.00">_A_Data</text>
</g>
<!-- Node2 -->
<g id="node2" class="node"><title>Node2</title>
<polygon fill="white" stroke="#bfbfbf" points="0,-210.5 0,-233.5 57,-233.5 57,-210.5 0,-210.5"/>
<text text-anchor="middle" x="28.5" y="-218.3" font-family="Helvetica,sans-Serif" font-size="14.00">double</text>
</g>
<!-- Node2&#45;&gt;Node1 -->
<g id="edge1" class="edge"><title>Node2&#45;&gt;Node1</title>
<path fill="none" stroke="#9a32cd" stroke-dasharray="5,2" d="M28.6146,-200.014C29.9264,-165.76 37.3986,-97.595 74.5,-57 81.4769,-49.3662 90.2201,-43.3178 99.5712,-38.5284"/>
<polygon fill="#9a32cd" stroke="#9a32cd" points="25.1102,-200.161 28.3719,-210.241 32.1082,-200.327 25.1102,-200.161"/>
<text text-anchor="middle" x="102" y="-180.8" font-family="Helvetica,sans-Serif" font-size="14.00"> alpha_</text>
<text text-anchor="middle" x="102" y="-165.8" font-family="Helvetica,sans-Serif" font-size="14.00">scale_x</text>
<text text-anchor="middle" x="102" y="-150.8" font-family="Helvetica,sans-Serif" font-size="14.00">scale_y</text>
<text text-anchor="middle" x="102" y="-135.8" font-family="Helvetica,sans-Serif" font-size="14.00">gamma_</text>
<text text-anchor="middle" x="102" y="-120.8" font-family="Helvetica,sans-Serif" font-size="14.00">beta_</text>
<text text-anchor="middle" x="102" y="-105.8" font-family="Helvetica,sans-Serif" font-size="14.00">scale_z</text>
<text text-anchor="middle" x="102" y="-90.8" font-family="Helvetica,sans-Serif" font-size="14.00">alpha_x</text>
<text text-anchor="middle" x="102" y="-75.8" font-family="Helvetica,sans-Serif" font-size="14.00">alpha_y</text>
<text text-anchor="middle" x="102" y="-60.8" font-family="Helvetica,sans-Serif" font-size="14.00">alpha_z</text>
</g>
<!-- Node3 -->
<g id="node3" class="node"><title>Node3</title>
<polygon fill="white" stroke="#bfbfbf" points="75,-210.5 75,-233.5 180,-233.5 180,-210.5 75,-210.5"/>
<text text-anchor="middle" x="127.5" y="-218.3" font-family="Helvetica,sans-Serif" font-size="14.00">Tensor&lt; 2, 3 &gt;</text>
</g>
<!-- Node3&#45;&gt;Node1 -->
<g id="edge2" class="edge"><title>Node3&#45;&gt;Node1</title>
<path fill="none" stroke="#9a32cd" stroke-dasharray="5,2" d="M131.909,-200.442C140.326,-161.197 158.557,-76.1856 166.578,-38.7856"/>
<polygon fill="#9a32cd" stroke="#9a32cd" points="128.487,-199.709 129.812,-210.22 135.331,-201.177 128.487,-199.709"/>
<text text-anchor="middle" x="171.5" y="-120.8" font-family="Helvetica,sans-Serif" font-size="14.00"> rot</text>
</g>
<!-- Node4 -->
<g id="node4" class="node"><title>Node4</title>
<polygon fill="white" stroke="#bfbfbf" points="198,-210.5 198,-233.5 229,-233.5 229,-210.5 198,-210.5"/>
<text text-anchor="middle" x="213.5" y="-218.3" font-family="Helvetica,sans-Serif" font-size="14.00">int</text>
</g>
<!-- Node4&#45;&gt;Node1 -->
<g id="edge3" class="edge"><title>Node4&#45;&gt;Node1</title>
<path fill="none" stroke="#9a32cd" stroke-dasharray="5,2" d="M211.452,-200.316C208.009,-168.892 199.978,-107.442 185.5,-57 183.761,-50.9417 181.335,-44.5238 178.94,-38.7872"/>
<polygon fill="#9a32cd" stroke="#9a32cd" points="207.991,-200.879 212.516,-210.46 214.953,-200.149 207.991,-200.879"/>
<text text-anchor="middle" x="222" y="-135.8" font-family="Helvetica,sans-Serif" font-size="14.00"> k_x</text>
<text text-anchor="middle" x="222" y="-120.8" font-family="Helvetica,sans-Serif" font-size="14.00">k_y</text>
<text text-anchor="middle" x="222" y="-105.8" font-family="Helvetica,sans-Serif" font-size="14.00">k_z</text>
</g>
<!-- Node5 -->
<g id="node5" class="node"><title>Node5</title>
<polygon fill="white" stroke="#bfbfbf" points="246.5,-210.5 246.5,-233.5 288.5,-233.5 288.5,-210.5 246.5,-210.5"/>
<text text-anchor="middle" x="267.5" y="-218.3" font-family="Helvetica,sans-Serif" font-size="14.00">bool</text>
</g>
<!-- Node5&#45;&gt;Node1 -->
<g id="edge4" class="edge"><title>Node5&#45;&gt;Node1</title>
<path fill="none" stroke="#9a32cd" stroke-dasharray="5,2" d="M269.281,-200.194C271.044,-166.736 269.88,-100.347 238.5,-57 233.157,-49.6197 225.855,-43.5849 218.011,-38.7015"/>
<polygon fill="#9a32cd" stroke="#9a32cd" points="265.787,-199.985 268.61,-210.197 272.772,-200.454 265.787,-199.985"/>
<text text-anchor="middle" x="289" y="-120.8" font-family="Helvetica,sans-Serif" font-size="14.00"> rotate</text>
</g>
</g>
</svg>
