<?xml version="1.0" encoding="UTF-8" standalone="no"?>
<!DOCTYPE svg PUBLIC "-//W3C//DTD SVG 1.1//EN"
 "http://www.w3.org/Graphics/SVG/1.1/DTD/svg11.dtd">
<!-- Generated by graphviz version 2.38.0 (20140413.2041)
 -->
<!-- Title: ShapeFun::TestFunction Pages: 1 -->
<svg width="220pt" height="107pt"
 viewBox="0.00 0.00 219.50 107.00" xmlns="http://www.w3.org/2000/svg" xmlns:xlink="http://www.w3.org/1999/xlink">
<g id="graph0" class="graph" transform="scale(1 1) rotate(0) translate(4 103)">
<title>ShapeFun::TestFunction</title>
<polygon fill="white" stroke="none" points="-4,4 -4,-103 215.5,-103 215.5,4 -4,4"/>
<!-- Node1 -->
<g id="node1" class="node"><title>Node1</title>
<polygon fill="#bfbfbf" stroke="black" points="25,-0.5 25,-23.5 189,-23.5 189,-0.5 25,-0.5"/>
<text text-anchor="middle" x="107" y="-8.3" font-family="Helvetica,sans-Serif" font-size="14.00">ShapeFun::TestFunction</text>
</g>
<!-- Node2 -->
<g id="node2" class="node"><title>Node2</title>
<polygon fill="white" stroke="#bfbfbf" points="0,-75.5 0,-98.5 100,-98.5 100,-75.5 0,-75.5"/>
<text text-anchor="middle" x="50" y="-83.3" font-family="Helvetica,sans-Serif" font-size="14.00">Function&lt; 3 &gt;</text>
</g>
<!-- Node2&#45;&gt;Node1 -->
<g id="edge1" class="edge"><title>Node2&#45;&gt;Node1</title>
<path fill="none" stroke="midnightblue" d="M64.5793,-67.3283C75.3424,-53.544 89.6167,-35.2629 98.5549,-23.8156"/>
<polygon fill="midnightblue" stroke="midnightblue" points="61.8063,-65.1927 58.4105,-75.2286 67.3236,-69.5007 61.8063,-65.1927"/>
</g>
<!-- Node3 -->
<g id="node3" class="node"><title>Node3</title>
<polygon fill="white" stroke="#bfbfbf" points="118.5,-75.5 118.5,-98.5 211.5,-98.5 211.5,-75.5 118.5,-75.5"/>
<text text-anchor="middle" x="165" y="-83.3" font-family="Helvetica,sans-Serif" font-size="14.00">const double</text>
</g>
<!-- Node3&#45;&gt;Node1 -->
<g id="edge2" class="edge"><title>Node3&#45;&gt;Node1</title>
<path fill="none" stroke="#9a32cd" stroke-dasharray="5,2" d="M150.165,-67.3283C139.213,-53.544 124.688,-35.2629 115.593,-23.8156"/>
<polygon fill="#9a32cd" stroke="#9a32cd" points="147.481,-69.5763 156.442,-75.2286 152.961,-65.2217 147.481,-69.5763"/>
<text text-anchor="middle" x="160" y="-45.8" font-family="Helvetica,sans-Serif" font-size="14.00"> scale</text>
</g>
</g>
</svg>
