<?xml version="1.0" encoding="UTF-8" standalone="no"?>
<!DOCTYPE svg PUBLIC "-//W3C//DTD SVG 1.1//EN"
 "http://www.w3.org/Graphics/SVG/1.1/DTD/svg11.dtd">
<!-- Generated by graphviz version 2.38.0 (20140413.2041)
 -->
<!-- Title: NedRT::NedRT_PostProcessor Pages: 1 -->
<svg width="1014pt" height="589pt"
 viewBox="0.00 0.00 1014.00 589.07" xmlns="http://www.w3.org/2000/svg" xmlns:xlink="http://www.w3.org/1999/xlink">
<g id="graph0" class="graph" transform="scale(1 1) rotate(0) translate(4 585.074)">
<title>NedRT::NedRT_PostProcessor</title>
<polygon fill="white" stroke="none" points="-4,4 -4,-585.074 1010,-585.074 1010,4 -4,4"/>
<!-- Node1 -->
<g id="node1" class="node"><title>Node1</title>
<polygon fill="#bfbfbf" stroke="black" points="801,-189.574 801,-212.574 1006,-212.574 1006,-189.574 801,-189.574"/>
<text text-anchor="middle" x="903.5" y="-197.374" font-family="Helvetica,sans-Serif" font-size="14.00">NedRT::NedRT_PostProcessor</text>
</g>
<!-- Node2 -->
<g id="node2" class="node"><title>Node2</title>
<g id="a_node2"><a xlink:href="classDataPostprocessor.html" target="_top" xlink:title="DataPostprocessor\&lt; 3 \&gt;">
<polygon fill="white" stroke="black" points="511,-284.574 511,-307.574 674,-307.574 674,-284.574 511,-284.574"/>
<text text-anchor="middle" x="592.5" y="-292.374" font-family="Helvetica,sans-Serif" font-size="14.00">DataPostprocessor&lt; 3 &gt;</text>
</a>
</g>
</g>
<!-- Node2&#45;&gt;Node1 -->
<g id="edge1" class="edge"><title>Node2&#45;&gt;Node1</title>
<path fill="none" stroke="midnightblue" d="M667.932,-282.541C679.376,-280.209 691.029,-277.688 702,-275.074 738.404,-266.399 747.719,-264.555 783,-252.074 816.387,-240.263 853.768,-223.757 877.687,-212.757"/>
<polygon fill="midnightblue" stroke="midnightblue" points="667.07,-279.144 657.952,-284.54 668.445,-286.008 667.07,-279.144"/>
</g>
<!-- Node3 -->
<g id="node3" class="node"><title>Node3</title>
<g id="a_node3"><a xlink:href="classEquationData_1_1Diffusion__B.html" target="_top" xlink:title="Class containing a positive scalar coefficient. ">
<polygon fill="white" stroke="black" points="505,-149.574 505,-172.574 680,-172.574 680,-149.574 505,-149.574"/>
<text text-anchor="middle" x="592.5" y="-157.374" font-family="Helvetica,sans-Serif" font-size="14.00">EquationData::Diffusion_B</text>
</a>
</g>
</g>
<!-- Node3&#45;&gt;Node1 -->
<g id="edge2" class="edge"><title>Node3&#45;&gt;Node1</title>
<path fill="none" stroke="#9a32cd" stroke-dasharray="5,2" d="M690.536,-173.635C729.902,-178.731 775.073,-184.578 813.573,-189.562"/>
<polygon fill="#9a32cd" stroke="#9a32cd" points="690.763,-170.135 680.396,-172.322 689.864,-177.077 690.763,-170.135"/>
<text text-anchor="middle" x="751.5" y="-188.874" font-family="Helvetica,sans-Serif" font-size="14.00"> b</text>
</g>
<!-- Node4 -->
<g id="node4" class="node"><title>Node4</title>
<g id="a_node4"><a xlink:href="classFunctionParser.html" target="_top" xlink:title="FunctionParser\&lt; 3 \&gt;">
<polygon fill="white" stroke="black" points="228,-172.574 228,-195.574 368,-195.574 368,-172.574 228,-172.574"/>
<text text-anchor="middle" x="298" y="-180.374" font-family="Helvetica,sans-Serif" font-size="14.00">FunctionParser&lt; 3 &gt;</text>
</a>
</g>
</g>
<!-- Node4&#45;&gt;Node3 -->
<g id="edge3" class="edge"><title>Node4&#45;&gt;Node3</title>
<path fill="none" stroke="midnightblue" d="M378.595,-177.815C417.691,-174.741 464.871,-171.031 504.872,-167.885"/>
<polygon fill="midnightblue" stroke="midnightblue" points="378.013,-174.35 368.318,-178.623 378.562,-181.328 378.013,-174.35"/>
</g>
<!-- Node5 -->
<g id="node5" class="node"><title>Node5</title>
<g id="a_node5"><a xlink:href="classEquationData_1_1Diffusion__B__Data.html" target="_top" xlink:title="Class containing data to construct a positive scalar. ">
<polygon fill="white" stroke="black" points="219,-215.074 219,-253.074 377,-253.074 377,-215.074 219,-215.074"/>
<text text-anchor="start" x="227" y="-237.874" font-family="Helvetica,sans-Serif" font-size="14.00">EquationData::Diffusion</text>
<text text-anchor="middle" x="298" y="-222.874" font-family="Helvetica,sans-Serif" font-size="14.00">_B_Data</text>
</a>
</g>
</g>
<!-- Node5&#45;&gt;Node3 -->
<g id="edge4" class="edge"><title>Node5&#45;&gt;Node3</title>
<path fill="none" stroke="midnightblue" d="M385.418,-212.506C437.718,-199.453 502.353,-183.322 545.141,-172.644"/>
<polygon fill="midnightblue" stroke="midnightblue" points="384.324,-209.172 375.469,-214.989 386.019,-215.963 384.324,-209.172"/>
</g>
<!-- Node6 -->
<g id="node6" class="node"><title>Node6</title>
<polygon fill="white" stroke="#bfbfbf" points="24,-224.574 24,-247.574 81,-247.574 81,-224.574 24,-224.574"/>
<text text-anchor="middle" x="52.5" y="-232.374" font-family="Helvetica,sans-Serif" font-size="14.00">double</text>
</g>
<!-- Node6&#45;&gt;Node5 -->
<g id="edge5" class="edge"><title>Node6&#45;&gt;Node5</title>
<path fill="none" stroke="#9a32cd" stroke-dasharray="5,2" d="M88.5325,-220.817C99.3708,-216.826 111.491,-213.081 123,-211.074 156.92,-205.158 194.798,-208.947 226.529,-215.024"/>
<polygon fill="#9a32cd" stroke="#9a32cd" points="87.0558,-217.636 78.9936,-224.51 89.5828,-224.164 87.0558,-217.636"/>
<text text-anchor="middle" x="158" y="-229.874" font-family="Helvetica,sans-Serif" font-size="14.00"> scale</text>
<text text-anchor="middle" x="158" y="-214.874" font-family="Helvetica,sans-Serif" font-size="14.00">alpha</text>
</g>
<!-- Node12 -->
<g id="node12" class="node"><title>Node12</title>
<g id="a_node12"><a xlink:href="classEquationData_1_1Diffusion__A__Data.html" target="_top" xlink:title="Class containing data to construct a positive tensor. ">
<polygon fill="white" stroke="black" points="219,-440.074 219,-478.074 377,-478.074 377,-440.074 219,-440.074"/>
<text text-anchor="start" x="227" y="-462.874" font-family="Helvetica,sans-Serif" font-size="14.00">EquationData::Diffusion</text>
<text text-anchor="middle" x="298" y="-447.874" font-family="Helvetica,sans-Serif" font-size="14.00">_A_Data</text>
</a>
</g>
</g>
<!-- Node6&#45;&gt;Node12 -->
<g id="edge15" class="edge"><title>Node6&#45;&gt;Node12</title>
<path fill="none" stroke="#9a32cd" stroke-dasharray="5,2" d="M91.3713,-238.465C127.215,-241.445 177.743,-247.727 193,-260.074 209.745,-273.624 201.73,-285.63 211,-305.074 234.854,-355.105 267.968,-411.372 285.323,-440.047"/>
<polygon fill="#9a32cd" stroke="#9a32cd" points="91.4752,-234.963 81.2339,-237.677 90.9324,-241.942 91.4752,-234.963"/>
<text text-anchor="middle" x="158" y="-383.874" font-family="Helvetica,sans-Serif" font-size="14.00"> alpha_</text>
<text text-anchor="middle" x="158" y="-368.874" font-family="Helvetica,sans-Serif" font-size="14.00">scale_x</text>
<text text-anchor="middle" x="158" y="-353.874" font-family="Helvetica,sans-Serif" font-size="14.00">scale_y</text>
<text text-anchor="middle" x="158" y="-338.874" font-family="Helvetica,sans-Serif" font-size="14.00">gamma_</text>
<text text-anchor="middle" x="158" y="-323.874" font-family="Helvetica,sans-Serif" font-size="14.00">beta_</text>
<text text-anchor="middle" x="158" y="-308.874" font-family="Helvetica,sans-Serif" font-size="14.00">scale_z</text>
<text text-anchor="middle" x="158" y="-293.874" font-family="Helvetica,sans-Serif" font-size="14.00">alpha_x</text>
<text text-anchor="middle" x="158" y="-278.874" font-family="Helvetica,sans-Serif" font-size="14.00">alpha_y</text>
<text text-anchor="middle" x="158" y="-263.874" font-family="Helvetica,sans-Serif" font-size="14.00">alpha_z</text>
</g>
<!-- Node7 -->
<g id="node7" class="node"><title>Node7</title>
<polygon fill="white" stroke="#bfbfbf" points="37,-428.574 37,-451.574 68,-451.574 68,-428.574 37,-428.574"/>
<text text-anchor="middle" x="52.5" y="-436.374" font-family="Helvetica,sans-Serif" font-size="14.00">int</text>
</g>
<!-- Node7&#45;&gt;Node5 -->
<g id="edge6" class="edge"><title>Node7&#45;&gt;Node5</title>
<path fill="none" stroke="#9a32cd" stroke-dasharray="5,2" d="M77.9263,-434.422C115.863,-425.422 185.401,-407.945 193,-399.074 232.663,-352.766 172.256,-310.153 211,-263.074 214.104,-259.302 217.717,-256.019 221.671,-253.16"/>
<polygon fill="#9a32cd" stroke="#9a32cd" points="77.076,-431.027 68.142,-436.722 78.6776,-437.841 77.076,-431.027"/>
<text text-anchor="middle" x="158" y="-426.874" font-family="Helvetica,sans-Serif" font-size="14.00"> k</text>
</g>
<!-- Node7&#45;&gt;Node12 -->
<g id="edge17" class="edge"><title>Node7&#45;&gt;Node12</title>
<path fill="none" stroke="#9a32cd" stroke-dasharray="5,2" d="M78.0101,-441.986C110.698,-444.537 170.099,-449.172 218.796,-452.971"/>
<polygon fill="#9a32cd" stroke="#9a32cd" points="78.2448,-438.494 68.0028,-441.205 77.7002,-445.473 78.2448,-438.494"/>
<text text-anchor="middle" x="158" y="-483.874" font-family="Helvetica,sans-Serif" font-size="14.00"> k_x</text>
<text text-anchor="middle" x="158" y="-468.874" font-family="Helvetica,sans-Serif" font-size="14.00">k_y</text>
<text text-anchor="middle" x="158" y="-453.874" font-family="Helvetica,sans-Serif" font-size="14.00">k_z</text>
</g>
<!-- Node8 -->
<g id="node8" class="node"><title>Node8</title>
<polygon fill="white" stroke="#bfbfbf" points="27.5,-101.574 27.5,-124.574 77.5,-124.574 77.5,-101.574 27.5,-101.574"/>
<text text-anchor="middle" x="52.5" y="-109.374" font-family="Helvetica,sans-Serif" font-size="14.00">string</text>
</g>
<!-- Node8&#45;&gt;Node1 -->
<g id="edge11" class="edge"><title>Node8&#45;&gt;Node1</title>
<path fill="none" stroke="#9a32cd" stroke-dasharray="5,2" d="M75.1854,-94.8521C104.02,-71.9343 157.586,-33.8014 211,-19.0737 319.849,10.9388 354.896,0.944601 465,-24.0737 632.388,-62.1082 818.808,-156.43 881.008,-189.44"/>
<polygon fill="#9a32cd" stroke="#9a32cd" points="72.6271,-92.4201 67.0581,-101.433 77.0323,-97.8602 72.6271,-92.4201"/>
<text text-anchor="middle" x="434" y="-27.8737" font-family="Helvetica,sans-Serif" font-size="14.00"> exact</text>
</g>
<!-- Node8&#45;&gt;Node3 -->
<g id="edge8" class="edge"><title>Node8&#45;&gt;Node3</title>
<path fill="none" stroke="#9a32cd" stroke-dasharray="5,2" d="M87.7952,-116.133C170.718,-123.532 384.126,-142.572 504.874,-153.345"/>
<polygon fill="#9a32cd" stroke="#9a32cd" points="87.9334,-112.632 77.6619,-115.229 87.3113,-119.604 87.9334,-112.632"/>
<text text-anchor="middle" x="298" y="-146.874" font-family="Helvetica,sans-Serif" font-size="14.00"> fnc_expression</text>
</g>
<!-- Node8&#45;&gt;Node3 -->
<g id="edge9" class="edge"><title>Node8&#45;&gt;Node3</title>
<path fill="none" stroke="#9a32cd" stroke-dasharray="5,2" d="M87.6416,-111.957C119.54,-110.972 168.489,-109.613 211,-109.074 288.327,-108.092 308.254,-99.5593 385,-109.074 446.638,-116.715 516.308,-136.722 556.923,-149.573"/>
<polygon fill="#9a32cd" stroke="#9a32cd" points="87.3966,-108.462 77.5113,-112.274 87.6161,-115.459 87.3966,-108.462"/>
<text text-anchor="middle" x="298" y="-112.874" font-family="Helvetica,sans-Serif" font-size="14.00"> variables</text>
</g>
<!-- Node8&#45;&gt;Node5 -->
<g id="edge7" class="edge"><title>Node8&#45;&gt;Node5</title>
<path fill="none" stroke="#9a32cd" stroke-dasharray="5,2" d="M84.0578,-129.54C122.026,-150.062 183.052,-183.274 193,-190.074 201.597,-195.95 201.911,-199.99 211,-205.074 217.601,-208.766 224.75,-212.093 232.009,-215.062"/>
<polygon fill="#9a32cd" stroke="#9a32cd" points="85.4089,-126.292 74.9468,-124.62 82.0826,-132.451 85.4089,-126.292"/>
<text text-anchor="middle" x="158" y="-193.874" font-family="Helvetica,sans-Serif" font-size="14.00"> expression</text>
</g>
<!-- Node9 -->
<g id="node9" class="node"><title>Node9</title>
<polygon fill="white" stroke="#bfbfbf" points="211,-28.5737 211,-51.5737 385,-51.5737 385,-28.5737 211,-28.5737"/>
<text text-anchor="middle" x="298" y="-36.3737" font-family="Helvetica,sans-Serif" font-size="14.00">map&lt; std::string, double &gt;</text>
</g>
<!-- Node9&#45;&gt;Node3 -->
<g id="edge10" class="edge"><title>Node9&#45;&gt;Node3</title>
<path fill="none" stroke="#9a32cd" stroke-dasharray="5,2" d="M395.328,-41.8637C418.785,-44.7804 443.341,-50.0115 465,-59.0737 515.229,-80.09 561.622,-127.392 581.413,-149.4"/>
<polygon fill="#9a32cd" stroke="#9a32cd" points="395.68,-38.3814 385.354,-40.7509 394.904,-45.3382 395.68,-38.3814"/>
<text text-anchor="middle" x="434" y="-62.8737" font-family="Helvetica,sans-Serif" font-size="14.00"> constants</text>
</g>
<!-- Node10 -->
<g id="node10" class="node"><title>Node10</title>
<g id="a_node10"><a xlink:href="classEquationData_1_1DiffusionInverse__A.html" target="_top" xlink:title="Class containing the inverse of a positive tensor. ">
<polygon fill="white" stroke="black" points="483,-242.574 483,-265.574 702,-265.574 702,-242.574 483,-242.574"/>
<text text-anchor="middle" x="592.5" y="-250.374" font-family="Helvetica,sans-Serif" font-size="14.00">EquationData::DiffusionInverse_A</text>
</a>
</g>
</g>
<!-- Node10&#45;&gt;Node1 -->
<g id="edge12" class="edge"><title>Node10&#45;&gt;Node1</title>
<path fill="none" stroke="#9a32cd" stroke-dasharray="5,2" d="M670.469,-240.872C721.12,-232.184 786.777,-220.923 835.316,-212.597"/>
<polygon fill="#9a32cd" stroke="#9a32cd" points="669.813,-237.433 660.548,-242.573 670.996,-244.332 669.813,-237.433"/>
<text text-anchor="middle" x="751.5" y="-236.874" font-family="Helvetica,sans-Serif" font-size="14.00"> a_inverse</text>
</g>
<!-- Node11 -->
<g id="node11" class="node"><title>Node11</title>
<g id="a_node11"><a xlink:href="classTensorFunction.html" target="_top" xlink:title="TensorFunction\&lt; 2, 3 \&gt;">
<polygon fill="white" stroke="black" points="219.5,-272.574 219.5,-295.574 376.5,-295.574 376.5,-272.574 219.5,-272.574"/>
<text text-anchor="middle" x="298" y="-280.374" font-family="Helvetica,sans-Serif" font-size="14.00">TensorFunction&lt; 2, 3 &gt;</text>
</a>
</g>
</g>
<!-- Node11&#45;&gt;Node10 -->
<g id="edge13" class="edge"><title>Node11&#45;&gt;Node10</title>
<path fill="none" stroke="midnightblue" d="M386.716,-275.077C416.976,-271.974 451.24,-268.459 482.963,-265.206"/>
<polygon fill="midnightblue" stroke="midnightblue" points="386.207,-271.611 376.617,-276.113 386.922,-278.574 386.207,-271.611"/>
</g>
<!-- Node12&#45;&gt;Node10 -->
<g id="edge14" class="edge"><title>Node12&#45;&gt;Node10</title>
<path fill="none" stroke="midnightblue" d="M317.778,-431.857C347.667,-390.809 410.181,-313.755 483,-275.074 490.117,-271.293 497.818,-268.188 505.722,-265.639"/>
<polygon fill="midnightblue" stroke="midnightblue" points="314.891,-429.878 311.904,-440.043 320.578,-433.96 314.891,-429.878"/>
</g>
<!-- Node13 -->
<g id="node13" class="node"><title>Node13</title>
<polygon fill="white" stroke="#bfbfbf" points="0,-557.574 0,-580.574 105,-580.574 105,-557.574 0,-557.574"/>
<text text-anchor="middle" x="52.5" y="-565.374" font-family="Helvetica,sans-Serif" font-size="14.00">Tensor&lt; 2, 3 &gt;</text>
</g>
<!-- Node13&#45;&gt;Node12 -->
<g id="edge16" class="edge"><title>Node13&#45;&gt;Node12</title>
<path fill="none" stroke="#9a32cd" stroke-dasharray="5,2" d="M115.178,-558.857C140.076,-553.402 168.624,-545.41 193,-534.074 224.287,-519.524 255.813,-495.098 275.819,-478.09"/>
<polygon fill="#9a32cd" stroke="#9a32cd" points="114.183,-555.489 105.116,-560.969 115.621,-562.34 114.183,-555.489"/>
<text text-anchor="middle" x="158" y="-559.874" font-family="Helvetica,sans-Serif" font-size="14.00"> rot</text>
</g>
<!-- Node14 -->
<g id="node14" class="node"><title>Node14</title>
<polygon fill="white" stroke="#bfbfbf" points="31.5,-515.574 31.5,-538.574 73.5,-538.574 73.5,-515.574 31.5,-515.574"/>
<text text-anchor="middle" x="52.5" y="-523.374" font-family="Helvetica,sans-Serif" font-size="14.00">bool</text>
</g>
<!-- Node14&#45;&gt;Node12 -->
<g id="edge18" class="edge"><title>Node14&#45;&gt;Node12</title>
<path fill="none" stroke="#9a32cd" stroke-dasharray="5,2" d="M83.7541,-522.519C112.252,-517.873 155.979,-509.825 193,-499.074 212.878,-493.301 234.308,-485.366 252.519,-478.085"/>
<polygon fill="#9a32cd" stroke="#9a32cd" points="82.9487,-519.103 73.6232,-524.132 84.0491,-526.016 82.9487,-519.103"/>
<text text-anchor="middle" x="158" y="-518.874" font-family="Helvetica,sans-Serif" font-size="14.00"> rotate</text>
</g>
</g>
</svg>
