<?xml version="1.0" encoding="UTF-8" standalone="no"?>
<!DOCTYPE svg PUBLIC "-//W3C//DTD SVG 1.1//EN"
 "http://www.w3.org/Graphics/SVG/1.1/DTD/svg11.dtd">
<!-- Generated by graphviz version 2.38.0 (20140413.2041)
 -->
<!-- Title: NedRT::NedRTMultiscale Pages: 1 -->
<svg width="855pt" height="753pt"
 viewBox="0.00 0.00 855.00 752.81" xmlns="http://www.w3.org/2000/svg" xmlns:xlink="http://www.w3.org/1999/xlink">
<g id="graph0" class="graph" transform="scale(1 1) rotate(0) translate(4 748.812)">
<title>NedRT::NedRTMultiscale</title>
<polygon fill="white" stroke="none" points="-4,4 -4,-748.812 851,-748.812 851,4 -4,4"/>
<!-- Node1 -->
<g id="node1" class="node"><title>Node1</title>
<polygon fill="#bfbfbf" stroke="black" points="677,-330.312 677,-353.312 847,-353.312 847,-330.312 677,-330.312"/>
<text text-anchor="middle" x="762" y="-338.112" font-family="Helvetica,sans-Serif" font-size="14.00">NedRT::NedRTMultiscale</text>
</g>
<!-- Node2 -->
<g id="node2" class="node"><title>Node2</title>
<polygon fill="white" stroke="#bfbfbf" points="298.5,-691.312 298.5,-714.312 419.5,-714.312 419.5,-691.312 298.5,-691.312"/>
<text text-anchor="middle" x="359" y="-699.112" font-family="Helvetica,sans-Serif" font-size="14.00">DoFHandler&lt; 3 &gt;</text>
</g>
<!-- Node2&#45;&gt;Node1 -->
<g id="edge1" class="edge"><title>Node2&#45;&gt;Node1</title>
<path fill="none" stroke="#9a32cd" stroke-dasharray="5,2" d="M417.787,-716.242C483.623,-727.921 590.877,-735.449 659,-680.812 712.938,-637.551 750.856,-408.465 759.248,-353.618"/>
<polygon fill="#9a32cd" stroke="#9a32cd" points="418.061,-712.733 407.589,-714.341 416.778,-719.614 418.061,-712.733"/>
<text text-anchor="middle" x="575" y="-727.612" font-family="Helvetica,sans-Serif" font-size="14.00"> dof_handler</text>
</g>
<!-- Node3 -->
<g id="node3" class="node"><title>Node3</title>
<polygon fill="white" stroke="#bfbfbf" points="289,-649.312 289,-672.312 429,-672.312 429,-649.312 289,-649.312"/>
<text text-anchor="middle" x="359" y="-657.112" font-family="Helvetica,sans-Serif" font-size="14.00">ConditionalOStream</text>
</g>
<!-- Node3&#45;&gt;Node1 -->
<g id="edge2" class="edge"><title>Node3&#45;&gt;Node1</title>
<path fill="none" stroke="#9a32cd" stroke-dasharray="5,2" d="M439.227,-664.539C516.081,-666.5 625.811,-664.396 659,-638.812 753.993,-565.586 761.047,-398.875 761.152,-353.436"/>
<polygon fill="#9a32cd" stroke="#9a32cd" points="439.179,-661.036 429.084,-664.252 438.981,-668.034 439.179,-661.036"/>
<text text-anchor="middle" x="575" y="-668.612" font-family="Helvetica,sans-Serif" font-size="14.00"> pcout</text>
</g>
<!-- Node4 -->
<g id="node4" class="node"><title>Node4</title>
<polygon fill="white" stroke="#bfbfbf" points="245,-577.312 245,-630.312 473,-630.312 473,-577.312 245,-577.312"/>
<text text-anchor="start" x="253" y="-615.112" font-family="Helvetica,sans-Serif" font-size="14.00">shared_ptr&lt; typename</text>
<text text-anchor="start" x="253" y="-600.112" font-family="Helvetica,sans-Serif" font-size="14.00"> LinearSolvers::InnerPreconditioner</text>
<text text-anchor="middle" x="359" y="-585.112" font-family="Helvetica,sans-Serif" font-size="14.00">&lt; 3 &gt;::type &gt;</text>
</g>
<!-- Node4&#45;&gt;Node1 -->
<g id="edge3" class="edge"><title>Node4&#45;&gt;Node1</title>
<path fill="none" stroke="#9a32cd" stroke-dasharray="5,2" d="M483.251,-621.147C541.501,-622.861 609.043,-614.771 659,-578.812 737.347,-522.417 756.069,-393.025 760.032,-353.496"/>
<polygon fill="#9a32cd" stroke="#9a32cd" points="483.37,-617.649 473.24,-620.755 483.095,-624.644 483.37,-617.649"/>
<text text-anchor="middle" x="575" y="-625.612" font-family="Helvetica,sans-Serif" font-size="14.00"> inner_schur_preconditioner</text>
</g>
<!-- Node5 -->
<g id="node5" class="node"><title>Node5</title>
<g id="a_node5"><a xlink:href="structNedRT_1_1ParametersMs.html" target="_top" xlink:title="NedRT::ParametersMs">
<polygon fill="white" stroke="black" points="281,-535.312 281,-558.312 437,-558.312 437,-535.312 281,-535.312"/>
<text text-anchor="middle" x="359" y="-543.112" font-family="Helvetica,sans-Serif" font-size="14.00">NedRT::ParametersMs</text>
</a>
</g>
</g>
<!-- Node5&#45;&gt;Node1 -->
<g id="edge4" class="edge"><title>Node5&#45;&gt;Node1</title>
<path fill="none" stroke="#9a32cd" stroke-dasharray="5,2" d="M447.247,-555.394C522.71,-561.076 624.898,-564.063 659,-542.812 729.407,-498.936 753.153,-389.885 759.236,-353.696"/>
<polygon fill="#9a32cd" stroke="#9a32cd" points="447.494,-551.903 437.252,-554.614 446.95,-558.881 447.494,-551.903"/>
<text text-anchor="middle" x="575" y="-563.612" font-family="Helvetica,sans-Serif" font-size="14.00"> parameters</text>
</g>
<!-- Node6 -->
<g id="node6" class="node"><title>Node6</title>
<polygon fill="white" stroke="#bfbfbf" points="19.5,-693.312 19.5,-716.312 69.5,-716.312 69.5,-693.312 19.5,-693.312"/>
<text text-anchor="middle" x="44.5" y="-701.112" font-family="Helvetica,sans-Serif" font-size="14.00">string</text>
</g>
<!-- Node6&#45;&gt;Node5 -->
<g id="edge5" class="edge"><title>Node6&#45;&gt;Node5</title>
<path fill="none" stroke="#9a32cd" stroke-dasharray="5,2" d="M79.5832,-711.656C120.375,-717.681 188.042,-720.443 227,-682.812 264.209,-646.87 208.944,-604.91 245,-567.812 254.666,-557.867 267.411,-551.774 280.853,-548.175"/>
<polygon fill="#9a32cd" stroke="#9a32cd" points="80.0096,-708.179 69.5782,-710.033 78.8886,-715.089 80.0096,-708.179"/>
<text text-anchor="middle" x="167" y="-733.612" font-family="Helvetica,sans-Serif" font-size="14.00"> filename_output</text>
<text text-anchor="middle" x="167" y="-718.612" font-family="Helvetica,sans-Serif" font-size="14.00">dirname_output</text>
</g>
<!-- Node7 -->
<g id="node7" class="node"><title>Node7</title>
<polygon fill="white" stroke="#bfbfbf" points="23.5,-535.312 23.5,-558.312 65.5,-558.312 65.5,-535.312 23.5,-535.312"/>
<text text-anchor="middle" x="44.5" y="-543.112" font-family="Helvetica,sans-Serif" font-size="14.00">bool</text>
</g>
<!-- Node7&#45;&gt;Node5 -->
<g id="edge6" class="edge"><title>Node7&#45;&gt;Node5</title>
<path fill="none" stroke="#9a32cd" stroke-dasharray="5,2" d="M75.6411,-546.812C122.596,-546.812 214.687,-546.812 280.947,-546.812"/>
<polygon fill="#9a32cd" stroke="#9a32cd" points="75.5237,-543.312 65.5237,-546.812 75.5236,-550.312 75.5237,-543.312"/>
<text text-anchor="middle" x="167" y="-670.612" font-family="Helvetica,sans-Serif" font-size="14.00"> use_exact_solution</text>
<text text-anchor="middle" x="167" y="-655.612" font-family="Helvetica,sans-Serif" font-size="14.00">verbose_basis</text>
<text text-anchor="middle" x="167" y="-640.612" font-family="Helvetica,sans-Serif" font-size="14.00">prevent_output</text>
<text text-anchor="middle" x="167" y="-625.612" font-family="Helvetica,sans-Serif" font-size="14.00">renumber_dofs</text>
<text text-anchor="start" x="107" y="-610.612" font-family="Helvetica,sans-Serif" font-size="14.00">use_direct_solver</text>
<text text-anchor="middle" x="167" y="-595.612" font-family="Helvetica,sans-Serif" font-size="14.00">_basis</text>
<text text-anchor="middle" x="167" y="-580.612" font-family="Helvetica,sans-Serif" font-size="14.00">use_direct_solver</text>
<text text-anchor="middle" x="167" y="-565.612" font-family="Helvetica,sans-Serif" font-size="14.00">verbose</text>
<text text-anchor="middle" x="167" y="-550.612" font-family="Helvetica,sans-Serif" font-size="14.00">compute_solution</text>
</g>
<!-- Node8 -->
<g id="node8" class="node"><title>Node8</title>
<polygon fill="white" stroke="#bfbfbf" points="0,-482.312 0,-505.312 89,-505.312 89,-482.312 0,-482.312"/>
<text text-anchor="middle" x="44.5" y="-490.112" font-family="Helvetica,sans-Serif" font-size="14.00">unsigned int</text>
</g>
<!-- Node8&#45;&gt;Node5 -->
<g id="edge7" class="edge"><title>Node8&#45;&gt;Node5</title>
<path fill="none" stroke="#9a32cd" stroke-dasharray="5,2" d="M99.2177,-492.249C136.261,-492.878 186.014,-497.155 227,-512.812 236.219,-516.333 235.929,-521.927 245,-525.812 256.281,-530.643 268.663,-534.365 280.966,-537.231"/>
<polygon fill="#9a32cd" stroke="#9a32cd" points="99.1543,-488.749 89.1246,-492.163 99.0941,-495.749 99.1543,-488.749"/>
<text text-anchor="middle" x="167" y="-531.612" font-family="Helvetica,sans-Serif" font-size="14.00"> n_refine_global</text>
<text text-anchor="middle" x="167" y="-516.612" font-family="Helvetica,sans-Serif" font-size="14.00">n_refine_local</text>
</g>
<!-- Node9 -->
<g id="node9" class="node"><title>Node9</title>
<polygon fill="white" stroke="#bfbfbf" points="314.5,-493.312 314.5,-516.312 403.5,-516.312 403.5,-493.312 314.5,-493.312"/>
<text text-anchor="middle" x="359" y="-501.112" font-family="Helvetica,sans-Serif" font-size="14.00">BlockVector</text>
</g>
<!-- Node9&#45;&gt;Node1 -->
<g id="edge8" class="edge"><title>Node9&#45;&gt;Node1</title>
<path fill="none" stroke="#9a32cd" stroke-dasharray="5,2" d="M413.48,-495.454C437.2,-491.4 465.466,-486.703 491,-482.812 565.503,-471.459 592.756,-495.746 659,-459.812 705.891,-434.376 741.016,-378.21 754.716,-353.673"/>
<polygon fill="#9a32cd" stroke="#9a32cd" points="412.877,-492.006 403.614,-497.147 414.062,-498.905 412.877,-492.006"/>
<text text-anchor="middle" x="575" y="-531.612" font-family="Helvetica,sans-Serif" font-size="14.00"> locally_relevant_solution</text>
<text text-anchor="start" x="499.5" y="-516.612" font-family="Helvetica,sans-Serif" font-size="14.00">locally_relevant_exact</text>
<text text-anchor="middle" x="575" y="-501.612" font-family="Helvetica,sans-Serif" font-size="14.00">_solution</text>
<text text-anchor="middle" x="575" y="-486.612" font-family="Helvetica,sans-Serif" font-size="14.00">system_rhs</text>
</g>
<!-- Node10 -->
<g id="node10" class="node"><title>Node10</title>
<polygon fill="white" stroke="#bfbfbf" points="295,-435.812 295,-473.812 423,-473.812 423,-435.812 295,-435.812"/>
<text text-anchor="start" x="303" y="-458.612" font-family="Helvetica,sans-Serif" font-size="14.00">AffineConstraints&lt;</text>
<text text-anchor="middle" x="359" y="-443.612" font-family="Helvetica,sans-Serif" font-size="14.00"> double &gt;</text>
</g>
<!-- Node10&#45;&gt;Node1 -->
<g id="edge9" class="edge"><title>Node10&#45;&gt;Node1</title>
<path fill="none" stroke="#9a32cd" stroke-dasharray="5,2" d="M433.592,-449.712C508.578,-443.76 619.322,-432.67 659,-416.812 695.943,-402.047 731.635,-370.669 749.378,-353.55"/>
<polygon fill="#9a32cd" stroke="#9a32cd" points="432.957,-446.251 423.26,-450.517 433.502,-453.229 432.957,-446.251"/>
<text text-anchor="middle" x="575" y="-448.612" font-family="Helvetica,sans-Serif" font-size="14.00"> constraints</text>
</g>
<!-- Node11 -->
<g id="node11" class="node"><title>Node11</title>
<polygon fill="white" stroke="#bfbfbf" points="328,-393.312 328,-416.312 390,-416.312 390,-393.312 328,-393.312"/>
<text text-anchor="middle" x="359" y="-401.112" font-family="Helvetica,sans-Serif" font-size="14.00">string &amp;</text>
</g>
<!-- Node11&#45;&gt;Node1 -->
<g id="edge10" class="edge"><title>Node11&#45;&gt;Node1</title>
<path fill="none" stroke="#9a32cd" stroke-dasharray="5,2" d="M400.2,-403.492C457.996,-400.984 567.666,-393.94 659,-374.812 683.775,-369.623 711.014,-360.634 731.106,-353.347"/>
<polygon fill="#9a32cd" stroke="#9a32cd" points="399.876,-400.002 390.028,-403.91 400.163,-406.997 399.876,-400.002"/>
<text text-anchor="middle" x="575" y="-401.612" font-family="Helvetica,sans-Serif" font-size="14.00"> parameter_filename</text>
</g>
<!-- Node12 -->
<g id="node12" class="node"><title>Node12</title>
<polygon fill="white" stroke="#bfbfbf" points="312.5,-351.312 312.5,-374.312 405.5,-374.312 405.5,-351.312 312.5,-351.312"/>
<text text-anchor="middle" x="359" y="-359.112" font-family="Helvetica,sans-Serif" font-size="14.00">TimerOutput</text>
</g>
<!-- Node12&#45;&gt;Node1 -->
<g id="edge11" class="edge"><title>Node12&#45;&gt;Node1</title>
<path fill="none" stroke="#9a32cd" stroke-dasharray="5,2" d="M415.642,-359.898C483.286,-356.356 598.115,-350.342 676.651,-346.229"/>
<polygon fill="#9a32cd" stroke="#9a32cd" points="415.413,-356.405 405.609,-360.423 415.779,-363.395 415.413,-356.405"/>
<text text-anchor="middle" x="575" y="-359.612" font-family="Helvetica,sans-Serif" font-size="14.00"> computing_timer</text>
</g>
<!-- Node13 -->
<g id="node13" class="node"><title>Node13</title>
<polygon fill="white" stroke="#bfbfbf" points="333.5,-309.312 333.5,-332.312 384.5,-332.312 384.5,-309.312 333.5,-309.312"/>
<text text-anchor="middle" x="359" y="-317.112" font-family="Helvetica,sans-Serif" font-size="14.00">CellId</text>
</g>
<!-- Node13&#45;&gt;Node1 -->
<g id="edge12" class="edge"><title>Node13&#45;&gt;Node1</title>
<path fill="none" stroke="#9a32cd" stroke-dasharray="5,2" d="M394.922,-320.616C450.786,-320.556 563.665,-321.48 659,-328.812 664.785,-329.257 670.745,-329.798 676.742,-330.405"/>
<polygon fill="#9a32cd" stroke="#9a32cd" points="394.844,-317.116 384.851,-320.638 394.859,-324.116 394.844,-317.116"/>
<text text-anchor="middle" x="575" y="-332.612" font-family="Helvetica,sans-Serif" font-size="14.00"> first_cell</text>
</g>
<!-- Node14 -->
<g id="node14" class="node"><title>Node14</title>
<polygon fill="white" stroke="#bfbfbf" points="303.5,-267.312 303.5,-290.312 414.5,-290.312 414.5,-267.312 303.5,-267.312"/>
<text text-anchor="middle" x="359" y="-275.112" font-family="Helvetica,sans-Serif" font-size="14.00">FESystem&lt; 3 &gt;</text>
</g>
<!-- Node14&#45;&gt;Node1 -->
<g id="edge13" class="edge"><title>Node14&#45;&gt;Node1</title>
<path fill="none" stroke="#9a32cd" stroke-dasharray="5,2" d="M424.985,-278.726C486.096,-279.887 579.778,-284.876 659,-302.812 686.366,-309.008 716.182,-321.074 736.468,-330.153"/>
<polygon fill="#9a32cd" stroke="#9a32cd" points="424.77,-275.222 414.715,-278.561 424.657,-282.221 424.77,-275.222"/>
<text text-anchor="middle" x="575" y="-306.612" font-family="Helvetica,sans-Serif" font-size="14.00"> fe</text>
</g>
<!-- Node15 -->
<g id="node15" class="node"><title>Node15</title>
<polygon fill="white" stroke="#bfbfbf" points="294,-225.312 294,-248.312 424,-248.312 424,-225.312 294,-225.312"/>
<text text-anchor="middle" x="359" y="-233.112" font-family="Helvetica,sans-Serif" font-size="14.00">BlockSparseMatrix</text>
</g>
<!-- Node15&#45;&gt;Node1 -->
<g id="edge14" class="edge"><title>Node15&#45;&gt;Node1</title>
<path fill="none" stroke="#9a32cd" stroke-dasharray="5,2" d="M434.312,-231.839C496.468,-230.325 586.373,-234.403 659,-262.812 697.381,-277.825 733.283,-312.069 750.441,-330.143"/>
<polygon fill="#9a32cd" stroke="#9a32cd" points="434.088,-228.344 424.197,-232.14 434.297,-235.34 434.088,-228.344"/>
<text text-anchor="middle" x="575" y="-266.612" font-family="Helvetica,sans-Serif" font-size="14.00"> system_matrix</text>
</g>
<!-- Node16 -->
<g id="node16" class="node"><title>Node16</title>
<polygon fill="white" stroke="#bfbfbf" points="293.5,-183.312 293.5,-206.312 424.5,-206.312 424.5,-183.312 293.5,-183.312"/>
<text text-anchor="middle" x="359" y="-191.112" font-family="Helvetica,sans-Serif" font-size="14.00">vector&lt; IndexSet &gt;</text>
</g>
<!-- Node16&#45;&gt;Node1 -->
<g id="edge15" class="edge"><title>Node16&#45;&gt;Node1</title>
<path fill="none" stroke="#9a32cd" stroke-dasharray="5,2" d="M435.091,-188.227C510.764,-182.925 621.553,-179.207 659,-198.812 714.113,-227.665 746.161,-301.34 756.906,-330.08"/>
<polygon fill="#9a32cd" stroke="#9a32cd" points="434.378,-184.769 424.658,-188.983 434.884,-191.751 434.378,-184.769"/>
<text text-anchor="middle" x="575" y="-217.612" font-family="Helvetica,sans-Serif" font-size="14.00"> relevant_partitioning</text>
<text text-anchor="middle" x="575" y="-202.612" font-family="Helvetica,sans-Serif" font-size="14.00">owned_partitioning</text>
</g>
<!-- Node17 -->
<g id="node17" class="node"><title>Node17</title>
<polygon fill="white" stroke="#bfbfbf" points="314,-141.312 314,-164.312 404,-164.312 404,-141.312 314,-141.312"/>
<text text-anchor="middle" x="359" y="-149.112" font-family="Helvetica,sans-Serif" font-size="14.00">MPI_Comm</text>
</g>
<!-- Node17&#45;&gt;Node1 -->
<g id="edge16" class="edge"><title>Node17&#45;&gt;Node1</title>
<path fill="none" stroke="#9a32cd" stroke-dasharray="5,2" d="M414.271,-140.506C477.83,-129.215 583.955,-120.367 659,-165.812 722.137,-204.045 750.168,-297.158 758.333,-330.059"/>
<polygon fill="#9a32cd" stroke="#9a32cd" points="413.255,-137.135 404.064,-142.405 414.536,-144.017 413.255,-137.135"/>
<text text-anchor="middle" x="575" y="-169.612" font-family="Helvetica,sans-Serif" font-size="14.00"> mpi_communicator</text>
</g>
<!-- Node18 -->
<g id="node18" class="node"><title>Node18</title>
<polygon fill="white" stroke="#bfbfbf" points="266.5,-99.3119 266.5,-122.312 451.5,-122.312 451.5,-99.3119 266.5,-99.3119"/>
<text text-anchor="middle" x="359" y="-107.112" font-family="Helvetica,sans-Serif" font-size="14.00">map&lt; CellId, NedRTBasis &gt;</text>
</g>
<!-- Node18&#45;&gt;Node1 -->
<g id="edge17" class="edge"><title>Node18&#45;&gt;Node1</title>
<path fill="none" stroke="#9a32cd" stroke-dasharray="5,2" d="M461.866,-100.015C535.545,-94.3106 627.466,-92.1868 659,-112.812 737.492,-164.151 756.115,-291.33 760.043,-330.286"/>
<polygon fill="#9a32cd" stroke="#9a32cd" points="461.285,-96.5504 451.599,-100.842 461.847,-103.528 461.285,-96.5504"/>
<text text-anchor="middle" x="575" y="-116.612" font-family="Helvetica,sans-Serif" font-size="14.00"> cell_basis_map</text>
</g>
<!-- Node19 -->
<g id="node19" class="node"><title>Node19</title>
<polygon fill="white" stroke="#bfbfbf" points="324,-57.3119 324,-80.3119 394,-80.3119 394,-57.3119 324,-57.3119"/>
<text text-anchor="middle" x="359" y="-65.1119" font-family="Helvetica,sans-Serif" font-size="14.00">IndexSet</text>
</g>
<!-- Node19&#45;&gt;Node1 -->
<g id="edge18" class="edge"><title>Node19&#45;&gt;Node1</title>
<path fill="none" stroke="#9a32cd" stroke-dasharray="5,2" d="M404.479,-64.3354C477.658,-57.9092 619.309,-49.7093 659,-77.8119 746.421,-139.709 758.919,-287.629 760.704,-330.18"/>
<polygon fill="#9a32cd" stroke="#9a32cd" points="403.843,-60.8786 394.199,-65.2661 404.474,-67.8501 403.843,-60.8786"/>
<text text-anchor="middle" x="575" y="-81.6119" font-family="Helvetica,sans-Serif" font-size="14.00"> locally_relevant_dofs</text>
</g>
<!-- Node20 -->
<g id="node20" class="node"><title>Node20</title>
<polygon fill="white" stroke="#bfbfbf" points="296,-15.3119 296,-38.3119 422,-38.3119 422,-15.3119 296,-15.3119"/>
<text text-anchor="middle" x="359" y="-23.1119" font-family="Helvetica,sans-Serif" font-size="14.00">Triangulation&lt; 3 &gt;</text>
</g>
<!-- Node20&#45;&gt;Node1 -->
<g id="edge19" class="edge"><title>Node20&#45;&gt;Node1</title>
<path fill="none" stroke="#9a32cd" stroke-dasharray="5,2" d="M411.251,-12.9988C475.856,1.13359 587.132,14.1747 659,-39.8119 756.564,-113.102 761.731,-284.188 761.288,-330.228"/>
<polygon fill="#9a32cd" stroke="#9a32cd" points="410.269,-9.63274 401.297,-15.2663 411.824,-16.4579 410.269,-9.63274"/>
<text text-anchor="middle" x="575" y="-43.6119" font-family="Helvetica,sans-Serif" font-size="14.00"> triangulation</text>
</g>
</g>
</svg>
