<?xml version="1.0" encoding="UTF-8" standalone="no"?>
<!DOCTYPE svg PUBLIC "-//W3C//DTD SVG 1.1//EN"
 "http://www.w3.org/Graphics/SVG/1.1/DTD/svg11.dtd">
<!-- Generated by graphviz version 2.38.0 (20140413.2041)
 -->
<!-- Title: EquationData::RightHandSideExactLin Pages: 1 -->
<svg width="683pt" height="204pt"
 viewBox="0.00 0.00 683.00 203.50" xmlns="http://www.w3.org/2000/svg" xmlns:xlink="http://www.w3.org/1999/xlink">
<g id="graph0" class="graph" transform="scale(1 1) rotate(0) translate(4 199.5)">
<title>EquationData::RightHandSideExactLin</title>
<polygon fill="white" stroke="none" points="-4,4 -4,-199.5 679,-199.5 679,4 -4,4"/>
<!-- Node1 -->
<g id="node1" class="node"><title>Node1</title>
<polygon fill="#bfbfbf" stroke="black" points="478,-85.5 478,-123.5 675,-123.5 675,-85.5 478,-85.5"/>
<text text-anchor="start" x="486" y="-108.3" font-family="Helvetica,sans-Serif" font-size="14.00">EquationData::RightHandSide</text>
<text text-anchor="middle" x="576.5" y="-93.3" font-family="Helvetica,sans-Serif" font-size="14.00">ExactLin</text>
</g>
<!-- Node2 -->
<g id="node2" class="node"><title>Node2</title>
<g id="a_node2"><a xlink:href="classEquationData_1_1RightHandSide.html" target="_top" xlink:title="Base class for right&#45;hand side. ">
<polygon fill="white" stroke="black" points="245,-172 245,-195 442,-195 442,-172 245,-172"/>
<text text-anchor="middle" x="343.5" y="-179.8" font-family="Helvetica,sans-Serif" font-size="14.00">EquationData::RightHandSide</text>
</a>
</g>
</g>
<!-- Node2&#45;&gt;Node1 -->
<g id="edge1" class="edge"><title>Node2&#45;&gt;Node1</title>
<path fill="none" stroke="midnightblue" d="M413.679,-169.53C423.267,-167.119 432.932,-164.432 442,-161.5 474.491,-150.994 509.988,-135.641 536.207,-123.515"/>
<polygon fill="midnightblue" stroke="midnightblue" points="412.635,-166.182 403.743,-171.942 414.287,-172.984 412.635,-166.182"/>
</g>
<!-- Node3 -->
<g id="node3" class="node"><title>Node3</title>
<polygon fill="white" stroke="#bfbfbf" points="0,-172 0,-195 209,-195 209,-172 0,-172"/>
<text text-anchor="middle" x="104.5" y="-179.8" font-family="Helvetica,sans-Serif" font-size="14.00">Functions::ParsedFunction&lt; 3 &gt;</text>
</g>
<!-- Node3&#45;&gt;Node2 -->
<g id="edge2" class="edge"><title>Node3&#45;&gt;Node2</title>
<path fill="none" stroke="midnightblue" d="M219.128,-183.5C227.687,-183.5 236.28,-183.5 244.727,-183.5"/>
<polygon fill="midnightblue" stroke="midnightblue" points="219.107,-180 209.107,-183.5 219.107,-187 219.107,-180"/>
</g>
<!-- Node4 -->
<g id="node4" class="node"><title>Node4</title>
<g id="a_node4"><a xlink:href="classEquationData_1_1ExactSolutionLin__Data.html" target="_top" xlink:title="Data class to construct an analytic solution. ">
<polygon fill="white" stroke="black" points="249.5,-114.5 249.5,-152.5 437.5,-152.5 437.5,-114.5 249.5,-114.5"/>
<text text-anchor="start" x="257.5" y="-137.3" font-family="Helvetica,sans-Serif" font-size="14.00">EquationData::ExactSolution</text>
<text text-anchor="middle" x="343.5" y="-122.3" font-family="Helvetica,sans-Serif" font-size="14.00">Lin_Data</text>
</a>
</g>
</g>
<!-- Node4&#45;&gt;Node1 -->
<g id="edge3" class="edge"><title>Node4&#45;&gt;Node1</title>
<path fill="none" stroke="midnightblue" d="M447.715,-120.542C457.692,-119.29 467.793,-118.022 477.714,-116.776"/>
<polygon fill="midnightblue" stroke="midnightblue" points="447.277,-117.07 437.791,-121.788 448.149,-124.015 447.277,-117.07"/>
</g>
<!-- Node5 -->
<g id="node5" class="node"><title>Node5</title>
<g id="a_node5"><a xlink:href="classEquationData_1_1Diffusion__A__Data.html" target="_top" xlink:title="Class containing data to construct a positive tensor. ">
<polygon fill="white" stroke="black" points="264.5,-57.5 264.5,-95.5 422.5,-95.5 422.5,-57.5 264.5,-57.5"/>
<text text-anchor="start" x="272.5" y="-80.3" font-family="Helvetica,sans-Serif" font-size="14.00">EquationData::Diffusion</text>
<text text-anchor="middle" x="343.5" y="-65.3" font-family="Helvetica,sans-Serif" font-size="14.00">_A_Data</text>
</a>
</g>
</g>
<!-- Node5&#45;&gt;Node1 -->
<g id="edge4" class="edge"><title>Node5&#45;&gt;Node1</title>
<path fill="none" stroke="midnightblue" d="M432.77,-87.1994C447.47,-88.9812 462.793,-90.8386 477.713,-92.647"/>
<polygon fill="midnightblue" stroke="midnightblue" points="433.055,-83.7084 422.706,-85.9795 432.212,-90.6575 433.055,-83.7084"/>
</g>
<!-- Node6 -->
<g id="node6" class="node"><title>Node6</title>
<g id="a_node6"><a xlink:href="classEquationData_1_1Diffusion__B__Data.html" target="_top" xlink:title="Class containing data to construct a positive scalar. ">
<polygon fill="white" stroke="black" points="264.5,-0.5 264.5,-38.5 422.5,-38.5 422.5,-0.5 264.5,-0.5"/>
<text text-anchor="start" x="272.5" y="-23.3" font-family="Helvetica,sans-Serif" font-size="14.00">EquationData::Diffusion</text>
<text text-anchor="middle" x="343.5" y="-8.3" font-family="Helvetica,sans-Serif" font-size="14.00">_B_Data</text>
</a>
</g>
</g>
<!-- Node6&#45;&gt;Node1 -->
<g id="edge5" class="edge"><title>Node6&#45;&gt;Node1</title>
<path fill="none" stroke="midnightblue" d="M424.761,-41.6859C430.622,-43.5697 436.419,-45.5158 442,-47.5 473.581,-58.7281 508.381,-73.6745 534.531,-85.4451"/>
<polygon fill="midnightblue" stroke="midnightblue" points="425.455,-38.2352 414.865,-38.5787 423.358,-44.9137 425.455,-38.2352"/>
</g>
</g>
</svg>
