<?xml version="1.0" encoding="UTF-8" standalone="no"?>
<!DOCTYPE svg PUBLIC "-//W3C//DTD SVG 1.1//EN"
 "http://www.w3.org/Graphics/SVG/1.1/DTD/svg11.dtd">
<!-- Generated by graphviz version 2.38.0 (20140413.2041)
 -->
<!-- Title: RTDQ::RTDQBasis Pages: 1 -->
<svg width="822pt" height="1077pt"
 viewBox="0.00 0.00 822.00 1077.45" xmlns="http://www.w3.org/2000/svg" xmlns:xlink="http://www.w3.org/1999/xlink">
<g id="graph0" class="graph" transform="scale(1 1) rotate(0) translate(4 1073.45)">
<title>RTDQ::RTDQBasis</title>
<polygon fill="white" stroke="none" points="-4,4 -4,-1073.45 818,-1073.45 818,4 -4,4"/>
<!-- Node1 -->
<g id="node1" class="node"><title>Node1</title>
<polygon fill="#bfbfbf" stroke="black" points="679,-469.952 679,-492.952 814,-492.952 814,-469.952 679,-469.952"/>
<text text-anchor="middle" x="746.5" y="-477.752" font-family="Helvetica,sans-Serif" font-size="14.00">RTDQ::RTDQBasis</text>
</g>
<!-- Node2 -->
<g id="node2" class="node"><title>Node2</title>
<polygon fill="white" stroke="#bfbfbf" points="286,-988.952 286,-1011.95 404,-1011.95 404,-988.952 286,-988.952"/>
<text text-anchor="middle" x="345" y="-996.752" font-family="Helvetica,sans-Serif" font-size="14.00">vector&lt; double &gt;</text>
</g>
<!-- Node2&#45;&gt;Node1 -->
<g id="edge1" class="edge"><title>Node2&#45;&gt;Node1</title>
<path fill="none" stroke="#9a32cd" stroke-dasharray="5,2" d="M400.65,-1014.02C470.454,-1027.79 590.623,-1038.93 661,-974.452 734.792,-906.843 744.205,-561.306 745.348,-493.14"/>
<polygon fill="#9a32cd" stroke="#9a32cd" points="401.228,-1010.57 390.728,-1011.98 399.817,-1017.43 401.228,-1010.57"/>
<text text-anchor="middle" x="577" y="-1058.25" font-family="Helvetica,sans-Serif" font-size="14.00"> face_measure</text>
<text text-anchor="middle" x="577" y="-1043.25" font-family="Helvetica,sans-Serif" font-size="14.00">global_weights</text>
<text text-anchor="middle" x="577" y="-1028.25" font-family="Helvetica,sans-Serif" font-size="14.00">edge_measure</text>
</g>
<!-- Node3 -->
<g id="node3" class="node"><title>Node3</title>
<polygon fill="white" stroke="#bfbfbf" points="284.5,-946.952 284.5,-969.952 405.5,-969.952 405.5,-946.952 284.5,-946.952"/>
<text text-anchor="middle" x="345" y="-954.752" font-family="Helvetica,sans-Serif" font-size="14.00">DoFHandler&lt; 3 &gt;</text>
</g>
<!-- Node3&#45;&gt;Node1 -->
<g id="edge2" class="edge"><title>Node3&#45;&gt;Node1</title>
<path fill="none" stroke="#9a32cd" stroke-dasharray="5,2" d="M415.893,-958.025C503.137,-956.815 643.145,-952.381 661,-936.452 729.796,-875.077 743.154,-558.069 745.183,-493.096"/>
<polygon fill="#9a32cd" stroke="#9a32cd" points="415.744,-954.527 405.789,-958.154 415.833,-961.526 415.744,-954.527"/>
<text text-anchor="middle" x="577" y="-959.252" font-family="Helvetica,sans-Serif" font-size="14.00"> dof_handler</text>
</g>
<!-- Node4 -->
<g id="node4" class="node"><title>Node4</title>
<polygon fill="white" stroke="#bfbfbf" points="316.5,-904.952 316.5,-927.952 373.5,-927.952 373.5,-904.952 316.5,-904.952"/>
<text text-anchor="middle" x="345" y="-912.752" font-family="Helvetica,sans-Serif" font-size="14.00">double</text>
</g>
<!-- Node4&#45;&gt;Node1 -->
<g id="edge3" class="edge"><title>Node4&#45;&gt;Node1</title>
<path fill="none" stroke="#9a32cd" stroke-dasharray="5,2" d="M383.86,-918.746C458.494,-922.426 620.863,-925.99 661,-890.452 722.885,-835.657 741.564,-554.041 744.91,-493.093"/>
<polygon fill="#9a32cd" stroke="#9a32cd" points="383.679,-915.232 373.51,-918.207 383.315,-922.222 383.679,-915.232"/>
<text text-anchor="middle" x="577" y="-924.252" font-family="Helvetica,sans-Serif" font-size="14.00"> volume_measure</text>
</g>
<!-- Node5 -->
<g id="node5" class="node"><title>Node5</title>
<polygon fill="white" stroke="#bfbfbf" points="314,-862.952 314,-885.952 376,-885.952 376,-862.952 314,-862.952"/>
<text text-anchor="middle" x="345" y="-870.752" font-family="Helvetica,sans-Serif" font-size="14.00">string &amp;</text>
</g>
<!-- Node5&#45;&gt;Node1 -->
<g id="edge4" class="edge"><title>Node5&#45;&gt;Node1</title>
<path fill="none" stroke="#9a32cd" stroke-dasharray="5,2" d="M386.499,-874.138C466.883,-873.137 640.622,-868.953 661,-851.452 717.61,-802.836 740.194,-550.608 744.648,-493.122"/>
<polygon fill="#9a32cd" stroke="#9a32cd" points="386.218,-870.641 376.259,-874.254 386.298,-877.64 386.218,-870.641"/>
<text text-anchor="middle" x="577" y="-875.252" font-family="Helvetica,sans-Serif" font-size="14.00"> parameter_filename</text>
</g>
<!-- Node6 -->
<g id="node6" class="node"><title>Node6</title>
<polygon fill="white" stroke="#bfbfbf" points="276.5,-805.452 276.5,-843.452 413.5,-843.452 413.5,-805.452 276.5,-805.452"/>
<text text-anchor="start" x="284.5" y="-828.252" font-family="Helvetica,sans-Serif" font-size="14.00">vector&lt; BlockVector</text>
<text text-anchor="middle" x="345" y="-813.252" font-family="Helvetica,sans-Serif" font-size="14.00">&lt; double &gt; &gt;</text>
</g>
<!-- Node6&#45;&gt;Node1 -->
<g id="edge5" class="edge"><title>Node6&#45;&gt;Node1</title>
<path fill="none" stroke="#9a32cd" stroke-dasharray="5,2" d="M423.813,-821.362C511.211,-817.185 643.244,-808.474 661,-793.452 708.983,-752.856 737.691,-544.428 744.118,-492.955"/>
<polygon fill="#9a32cd" stroke="#9a32cd" points="423.477,-817.874 413.651,-821.837 423.804,-824.866 423.477,-817.874"/>
<text text-anchor="middle" x="577" y="-836.252" font-family="Helvetica,sans-Serif" font-size="14.00"> system_rhs_div_v</text>
<text text-anchor="middle" x="577" y="-821.252" font-family="Helvetica,sans-Serif" font-size="14.00">basis_div_v</text>
</g>
<!-- Node7 -->
<g id="node7" class="node"><title>Node7</title>
<polygon fill="white" stroke="#bfbfbf" points="275,-762.952 275,-785.952 415,-785.952 415,-762.952 275,-762.952"/>
<text text-anchor="middle" x="345" y="-770.752" font-family="Helvetica,sans-Serif" font-size="14.00">vector&lt; Point&lt; 3 &gt; &gt;</text>
</g>
<!-- Node7&#45;&gt;Node1 -->
<g id="edge6" class="edge"><title>Node7&#45;&gt;Node1</title>
<path fill="none" stroke="#9a32cd" stroke-dasharray="5,2" d="M425.248,-775.72C506.554,-775.384 625.956,-769.818 661,-741.452 741.055,-676.652 746.107,-534.893 745.788,-493.204"/>
<polygon fill="#9a32cd" stroke="#9a32cd" points="425.029,-772.221 415.034,-775.736 425.04,-779.221 425.029,-772.221"/>
<text text-anchor="middle" x="577" y="-778.252" font-family="Helvetica,sans-Serif" font-size="14.00"> corner_points</text>
</g>
<!-- Node8 -->
<g id="node8" class="node"><title>Node8</title>
<polygon fill="white" stroke="#bfbfbf" points="215,-690.952 215,-743.952 475,-743.952 475,-690.952 215,-690.952"/>
<text text-anchor="start" x="223" y="-728.752" font-family="Helvetica,sans-Serif" font-size="14.00">shared_ptr&lt; typename</text>
<text text-anchor="start" x="223" y="-713.752" font-family="Helvetica,sans-Serif" font-size="14.00"> LinearSolvers::LocalInnerPreconditioner</text>
<text text-anchor="middle" x="345" y="-698.752" font-family="Helvetica,sans-Serif" font-size="14.00">&lt; 3 &gt;::type &gt;</text>
</g>
<!-- Node8&#45;&gt;Node1 -->
<g id="edge7" class="edge"><title>Node8&#45;&gt;Node1</title>
<path fill="none" stroke="#9a32cd" stroke-dasharray="5,2" d="M485.551,-721.984C556.333,-721.514 633.127,-715.87 661,-695.452 729.797,-645.056 742.615,-529.875 744.975,-493.021"/>
<polygon fill="#9a32cd" stroke="#9a32cd" points="485.147,-718.485 475.158,-722.017 485.169,-725.485 485.147,-718.485"/>
<text text-anchor="middle" x="577" y="-726.252" font-family="Helvetica,sans-Serif" font-size="14.00"> inner_schur_preconditioner</text>
</g>
<!-- Node9 -->
<g id="node9" class="node"><title>Node9</title>
<polygon fill="white" stroke="#bfbfbf" points="268.5,-648.952 268.5,-671.952 421.5,-671.952 421.5,-648.952 268.5,-648.952"/>
<text text-anchor="middle" x="345" y="-656.752" font-family="Helvetica,sans-Serif" font-size="14.00">BlockVector&lt; double &gt;</text>
</g>
<!-- Node9&#45;&gt;Node1 -->
<g id="edge8" class="edge"><title>Node9&#45;&gt;Node1</title>
<path fill="none" stroke="#9a32cd" stroke-dasharray="5,2" d="M431.995,-666.565C499.433,-667.205 592.948,-658.543 661,-614.452 707.147,-584.553 732.921,-519.614 741.865,-493.091"/>
<polygon fill="#9a32cd" stroke="#9a32cd" points="431.879,-663.063 421.822,-666.397 431.763,-670.062 431.879,-663.063"/>
<text text-anchor="middle" x="577" y="-683.252" font-family="Helvetica,sans-Serif" font-size="14.00"> global_solution</text>
<text text-anchor="middle" x="577" y="-668.252" font-family="Helvetica,sans-Serif" font-size="14.00">global_rhs</text>
</g>
<!-- Node10 -->
<g id="node10" class="node"><title>Node10</title>
<g id="a_node10"><a xlink:href="structRTDQ_1_1ParametersBasis.html" target="_top" xlink:title="RTDQ::ParametersBasis">
<polygon fill="white" stroke="black" points="261.5,-540.952 261.5,-563.952 428.5,-563.952 428.5,-540.952 261.5,-540.952"/>
<text text-anchor="middle" x="345" y="-548.752" font-family="Helvetica,sans-Serif" font-size="14.00">RTDQ::ParametersBasis</text>
</a>
</g>
</g>
<!-- Node10&#45;&gt;Node1 -->
<g id="edge9" class="edge"><title>Node10&#45;&gt;Node1</title>
<path fill="none" stroke="#9a32cd" stroke-dasharray="5,2" d="M421.376,-539.056C496.258,-525.748 609.869,-505.556 680.783,-492.953"/>
<polygon fill="#9a32cd" stroke="#9a32cd" points="420.309,-535.691 411.076,-540.886 421.534,-542.583 420.309,-535.691"/>
<text text-anchor="middle" x="577" y="-529.252" font-family="Helvetica,sans-Serif" font-size="14.00"> parameters</text>
</g>
<!-- Node11 -->
<g id="node11" class="node"><title>Node11</title>
<polygon fill="white" stroke="#bfbfbf" points="9.5,-623.952 9.5,-646.952 40.5,-646.952 40.5,-623.952 9.5,-623.952"/>
<text text-anchor="middle" x="25" y="-631.752" font-family="Helvetica,sans-Serif" font-size="14.00">int</text>
</g>
<!-- Node11&#45;&gt;Node1 -->
<g id="edge13" class="edge"><title>Node11&#45;&gt;Node1</title>
<path fill="none" stroke="#9a32cd" stroke-dasharray="5,2" d="M50.2932,-646.606C85.7007,-661.038 152.141,-681.032 197,-651.452 213.955,-640.272 198.854,-621.771 215,-609.452 261.373,-574.071 417.293,-581.945 475,-573.452 557.774,-561.269 583.863,-576.852 661,-544.452 690.187,-532.192 718.515,-507.731 733.816,-493.159"/>
<polygon fill="#9a32cd" stroke="#9a32cd" points="51.3372,-643.247 40.7654,-642.548 48.5942,-649.687 51.3372,-643.247"/>
<text text-anchor="middle" x="345" y="-628.252" font-family="Helvetica,sans-Serif" font-size="14.00"> length_system_basis</text>
<text text-anchor="middle" x="345" y="-613.252" font-family="Helvetica,sans-Serif" font-size="14.00">local_subdomain</text>
</g>
<!-- Node11&#45;&gt;Node10 -->
<g id="edge10" class="edge"><title>Node11&#45;&gt;Node10</title>
<path fill="none" stroke="#9a32cd" stroke-dasharray="5,2" d="M47.936,-617.705C54.121,-613.444 61.063,-609.306 68,-606.452 121.856,-584.291 140.214,-596.371 197,-583.452 205.096,-581.61 206.925,-580.384 215,-578.452 236.774,-573.24 260.782,-568.209 282.122,-563.983"/>
<polygon fill="#9a32cd" stroke="#9a32cd" points="45.4914,-615.158 39.5046,-623.899 49.6358,-620.799 45.4914,-615.158"/>
<text text-anchor="middle" x="132.5" y="-640.252" font-family="Helvetica,sans-Serif" font-size="14.00"> n_refine_global</text>
<text text-anchor="middle" x="132.5" y="-625.252" font-family="Helvetica,sans-Serif" font-size="14.00">n_refine_local</text>
<text text-anchor="middle" x="132.5" y="-610.252" font-family="Helvetica,sans-Serif" font-size="14.00">degree</text>
</g>
<!-- Node12 -->
<g id="node12" class="node"><title>Node12</title>
<polygon fill="white" stroke="#bfbfbf" points="0,-540.952 0,-563.952 50,-563.952 50,-540.952 0,-540.952"/>
<text text-anchor="middle" x="25" y="-548.752" font-family="Helvetica,sans-Serif" font-size="14.00">string</text>
</g>
<!-- Node12&#45;&gt;Node10 -->
<g id="edge11" class="edge"><title>Node12&#45;&gt;Node10</title>
<path fill="none" stroke="#9a32cd" stroke-dasharray="5,2" d="M60.2792,-552.452C108.033,-552.452 196.069,-552.452 261.46,-552.452"/>
<polygon fill="#9a32cd" stroke="#9a32cd" points="60.1627,-548.952 50.1627,-552.452 60.1627,-555.952 60.1627,-548.952"/>
<text text-anchor="middle" x="132.5" y="-571.252" font-family="Helvetica,sans-Serif" font-size="14.00"> dirname_output</text>
<text text-anchor="middle" x="132.5" y="-556.252" font-family="Helvetica,sans-Serif" font-size="14.00">filename_global</text>
</g>
<!-- Node13 -->
<g id="node13" class="node"><title>Node13</title>
<polygon fill="white" stroke="#bfbfbf" points="4,-381.952 4,-404.952 46,-404.952 46,-381.952 4,-381.952"/>
<text text-anchor="middle" x="25" y="-389.752" font-family="Helvetica,sans-Serif" font-size="14.00">bool</text>
</g>
<!-- Node13&#45;&gt;Node1 -->
<g id="edge14" class="edge"><title>Node13&#45;&gt;Node1</title>
<path fill="none" stroke="#9a32cd" stroke-dasharray="5,2" d="M55.9305,-384.276C91.9377,-375.088 153.024,-365.553 197,-390.452 210.531,-398.113 201.93,-412.029 215,-420.452 234.275,-432.873 540.7,-462.537 678.855,-475.367"/>
<polygon fill="#9a32cd" stroke="#9a32cd" points="54.7789,-380.962 46.0411,-386.953 56.6083,-387.718 54.7789,-380.962"/>
<text text-anchor="middle" x="345" y="-519.252" font-family="Helvetica,sans-Serif" font-size="14.00"> is_copyable</text>
<text text-anchor="middle" x="345" y="-504.252" font-family="Helvetica,sans-Serif" font-size="14.00">is_set_global_weights</text>
<text text-anchor="start" x="274" y="-489.252" font-family="Helvetica,sans-Serif" font-size="14.00">is_built_global_element</text>
<text text-anchor="middle" x="345" y="-474.252" font-family="Helvetica,sans-Serif" font-size="14.00">_matrix</text>
<text text-anchor="middle" x="345" y="-459.252" font-family="Helvetica,sans-Serif" font-size="14.00">is_set_cell_data</text>
</g>
<!-- Node13&#45;&gt;Node10 -->
<g id="edge12" class="edge"><title>Node13&#45;&gt;Node10</title>
<path fill="none" stroke="#9a32cd" stroke-dasharray="5,2" d="M56.2522,-390.321C94.6081,-388.167 160.165,-390.864 197,-428.452 227.995,-460.081 183.957,-494.87 215,-526.452 227.412,-539.079 244.131,-546.444 261.412,-550.575"/>
<polygon fill="#9a32cd" stroke="#9a32cd" points="55.9297,-386.835 46.2017,-391.032 56.4237,-393.817 55.9297,-386.835"/>
<text text-anchor="middle" x="132.5" y="-537.252" font-family="Helvetica,sans-Serif" font-size="14.00"> prevent_output</text>
<text text-anchor="middle" x="132.5" y="-522.252" font-family="Helvetica,sans-Serif" font-size="14.00">fast_constraint_setup</text>
<text text-anchor="middle" x="132.5" y="-507.252" font-family="Helvetica,sans-Serif" font-size="14.00">renumber_dofs</text>
<text text-anchor="middle" x="132.5" y="-492.252" font-family="Helvetica,sans-Serif" font-size="14.00">set_to_std</text>
<text text-anchor="middle" x="132.5" y="-477.252" font-family="Helvetica,sans-Serif" font-size="14.00">use_direct_solver</text>
<text text-anchor="middle" x="132.5" y="-462.252" font-family="Helvetica,sans-Serif" font-size="14.00">verbose</text>
<text text-anchor="middle" x="132.5" y="-447.252" font-family="Helvetica,sans-Serif" font-size="14.00">is_laplace</text>
<text text-anchor="middle" x="132.5" y="-432.252" font-family="Helvetica,sans-Serif" font-size="14.00">output_flag</text>
</g>
<!-- Node14 -->
<g id="node14" class="node"><title>Node14</title>
<polygon fill="white" stroke="#bfbfbf" points="319.5,-387.952 319.5,-410.952 370.5,-410.952 370.5,-387.952 319.5,-387.952"/>
<text text-anchor="middle" x="345" y="-395.752" font-family="Helvetica,sans-Serif" font-size="14.00">CellId</text>
</g>
<!-- Node14&#45;&gt;Node1 -->
<g id="edge15" class="edge"><title>Node14&#45;&gt;Node1</title>
<path fill="none" stroke="#9a32cd" stroke-dasharray="5,2" d="M380.909,-392.047C440.734,-381.036 565.616,-365.458 661,-403.452 695.313,-417.119 724.162,-451.767 737.524,-469.935"/>
<polygon fill="#9a32cd" stroke="#9a32cd" points="380.022,-388.653 370.857,-393.969 381.336,-395.529 380.022,-388.653"/>
<text text-anchor="middle" x="577" y="-422.252" font-family="Helvetica,sans-Serif" font-size="14.00"> global_cell_id</text>
<text text-anchor="middle" x="577" y="-407.252" font-family="Helvetica,sans-Serif" font-size="14.00">first_cell</text>
</g>
<!-- Node15 -->
<g id="node15" class="node"><title>Node15</title>
<polygon fill="white" stroke="#bfbfbf" points="289.5,-345.952 289.5,-368.952 400.5,-368.952 400.5,-345.952 289.5,-345.952"/>
<text text-anchor="middle" x="345" y="-353.752" font-family="Helvetica,sans-Serif" font-size="14.00">FESystem&lt; 3 &gt;</text>
</g>
<!-- Node15&#45;&gt;Node1 -->
<g id="edge16" class="edge"><title>Node15&#45;&gt;Node1</title>
<path fill="none" stroke="#9a32cd" stroke-dasharray="5,2" d="M411.022,-351.205C490.395,-344.752 619.218,-338.415 661,-360.452 706.1,-384.239 732.144,-444.16 741.506,-469.665"/>
<polygon fill="#9a32cd" stroke="#9a32cd" points="410.316,-347.752 400.642,-352.072 410.899,-354.727 410.316,-347.752"/>
<text text-anchor="middle" x="577" y="-364.252" font-family="Helvetica,sans-Serif" font-size="14.00"> fe</text>
</g>
<!-- Node16 -->
<g id="node16" class="node"><title>Node16</title>
<polygon fill="white" stroke="#bfbfbf" points="274,-303.952 274,-326.952 416,-326.952 416,-303.952 274,-303.952"/>
<text text-anchor="middle" x="345" y="-311.752" font-family="Helvetica,sans-Serif" font-size="14.00">BlockSparsityPattern</text>
</g>
<!-- Node16&#45;&gt;Node1 -->
<g id="edge17" class="edge"><title>Node16&#45;&gt;Node1</title>
<path fill="none" stroke="#9a32cd" stroke-dasharray="5,2" d="M426.156,-309.436C506.378,-304.954 623.162,-303.081 661,-326.452 714.716,-359.629 736.699,-439.778 743.236,-469.82"/>
<polygon fill="#9a32cd" stroke="#9a32cd" points="425.852,-305.948 416.073,-310.024 426.26,-312.936 425.852,-305.948"/>
<text text-anchor="middle" x="577" y="-330.252" font-family="Helvetica,sans-Serif" font-size="14.00"> sparsity_pattern</text>
</g>
<!-- Node17 -->
<g id="node17" class="node"><title>Node17</title>
<polygon fill="white" stroke="#bfbfbf" points="300,-261.952 300,-284.952 390,-284.952 390,-261.952 300,-261.952"/>
<text text-anchor="middle" x="345" y="-269.752" font-family="Helvetica,sans-Serif" font-size="14.00">MPI_Comm</text>
</g>
<!-- Node17&#45;&gt;Node1 -->
<g id="edge18" class="edge"><title>Node17&#45;&gt;Node1</title>
<path fill="none" stroke="#9a32cd" stroke-dasharray="5,2" d="M400.292,-269.355C479.064,-264.509 620.105,-260.303 661,-288.452 724.574,-332.212 740.754,-434.948 744.478,-469.714"/>
<polygon fill="#9a32cd" stroke="#9a32cd" points="399.83,-265.877 390.074,-270.008 400.277,-272.863 399.83,-265.877"/>
<text text-anchor="middle" x="577" y="-292.252" font-family="Helvetica,sans-Serif" font-size="14.00"> mpi_communicator</text>
</g>
<!-- Node18 -->
<g id="node18" class="node"><title>Node18</title>
<polygon fill="white" stroke="#bfbfbf" points="275,-219.952 275,-242.952 415,-242.952 415,-219.952 275,-219.952"/>
<text text-anchor="middle" x="345" y="-227.752" font-family="Helvetica,sans-Serif" font-size="14.00">FullMatrix&lt; double &gt;</text>
</g>
<!-- Node18&#45;&gt;Node1 -->
<g id="edge19" class="edge"><title>Node18&#45;&gt;Node1</title>
<path fill="none" stroke="#9a32cd" stroke-dasharray="5,2" d="M425.202,-225.792C506.158,-221.674 624.974,-220.768 661,-247.452 735.798,-302.852 744.545,-430.798 745.441,-469.895"/>
<polygon fill="#9a32cd" stroke="#9a32cd" points="424.831,-222.307 415.032,-226.336 425.205,-229.297 424.831,-222.307"/>
<text text-anchor="middle" x="577" y="-251.252" font-family="Helvetica,sans-Serif" font-size="14.00"> global_element_matrix</text>
</g>
<!-- Node19 -->
<g id="node19" class="node"><title>Node19</title>
<polygon fill="white" stroke="#bfbfbf" points="285,-177.952 285,-200.952 405,-200.952 405,-177.952 285,-177.952"/>
<text text-anchor="middle" x="345" y="-185.752" font-family="Helvetica,sans-Serif" font-size="14.00">Vector&lt; double &gt;</text>
</g>
<!-- Node19&#45;&gt;Node1 -->
<g id="edge20" class="edge"><title>Node19&#45;&gt;Node1</title>
<path fill="none" stroke="#9a32cd" stroke-dasharray="5,2" d="M415.337,-184.026C496.385,-179.188 624.143,-176.715 661,-205.452 704.867,-239.654 736.197,-422.093 743.746,-469.95"/>
<polygon fill="#9a32cd" stroke="#9a32cd" points="414.968,-180.542 405.205,-184.657 415.403,-187.528 414.968,-180.542"/>
<text text-anchor="middle" x="577" y="-209.252" font-family="Helvetica,sans-Serif" font-size="14.00"> global_element_rhs</text>
</g>
<!-- Node20 -->
<g id="node20" class="node"><title>Node20</title>
<polygon fill="white" stroke="#bfbfbf" points="276,-120.452 276,-158.452 414,-158.452 414,-120.452 276,-120.452"/>
<text text-anchor="start" x="284" y="-143.252" font-family="Helvetica,sans-Serif" font-size="14.00">BlockSparseMatrix&lt;</text>
<text text-anchor="middle" x="345" y="-128.252" font-family="Helvetica,sans-Serif" font-size="14.00"> double &gt;</text>
</g>
<!-- Node20&#45;&gt;Node1 -->
<g id="edge21" class="edge"><title>Node20&#45;&gt;Node1</title>
<path fill="none" stroke="#9a32cd" stroke-dasharray="5,2" d="M424.537,-131.018C505.857,-124.067 625.857,-119.369 661,-147.452 713.567,-189.459 739.005,-415.632 744.395,-469.793"/>
<polygon fill="#9a32cd" stroke="#9a32cd" points="423.978,-127.553 414.325,-131.92 424.594,-134.526 423.978,-127.553"/>
<text text-anchor="middle" x="577" y="-166.252" font-family="Helvetica,sans-Serif" font-size="14.00"> system_matrix</text>
<text text-anchor="middle" x="577" y="-151.252" font-family="Helvetica,sans-Serif" font-size="14.00">assembled_matrix</text>
</g>
<!-- Node21 -->
<g id="node21" class="node"><title>Node21</title>
<polygon fill="white" stroke="#bfbfbf" points="261,-63.4518 261,-101.452 429,-101.452 429,-63.4518 261,-63.4518"/>
<text text-anchor="start" x="269" y="-86.2518" font-family="Helvetica,sans-Serif" font-size="14.00">vector&lt; AffineConstraints</text>
<text text-anchor="middle" x="345" y="-71.2518" font-family="Helvetica,sans-Serif" font-size="14.00">&lt; double &gt; &gt;</text>
</g>
<!-- Node21&#45;&gt;Node1 -->
<g id="edge22" class="edge"><title>Node21&#45;&gt;Node1</title>
<path fill="none" stroke="#9a32cd" stroke-dasharray="5,2" d="M439.219,-78.0596C520.005,-76.3156 628.842,-79.5923 661,-107.452 717.979,-156.814 740.279,-411.599 744.662,-469.664"/>
<polygon fill="#9a32cd" stroke="#9a32cd" points="438.926,-74.5656 429.015,-78.3094 439.098,-81.5635 438.926,-74.5656"/>
<text text-anchor="middle" x="577" y="-111.252" font-family="Helvetica,sans-Serif" font-size="14.00"> constraints_div_v</text>
</g>
<!-- Node22 -->
<g id="node22" class="node"><title>Node22</title>
<polygon fill="white" stroke="#bfbfbf" points="282,-19.9518 282,-42.9518 408,-42.9518 408,-19.9518 282,-19.9518"/>
<text text-anchor="middle" x="345" y="-27.7518" font-family="Helvetica,sans-Serif" font-size="14.00">Triangulation&lt; 3 &gt;</text>
</g>
<!-- Node22&#45;&gt;Node1 -->
<g id="edge23" class="edge"><title>Node22&#45;&gt;Node1</title>
<path fill="none" stroke="#9a32cd" stroke-dasharray="5,2" d="M392.778,-17.2901C460.582,0.0742889 586.216,19.8946 661,-44.4518 728.068,-102.16 742.763,-406.306 745.117,-469.82"/>
<polygon fill="#9a32cd" stroke="#9a32cd" points="391.577,-13.9875 382.808,-19.9331 393.371,-20.7538 391.577,-13.9875"/>
<text text-anchor="middle" x="577" y="-63.2518" font-family="Helvetica,sans-Serif" font-size="14.00"> global_cell_it</text>
<text text-anchor="middle" x="577" y="-48.2518" font-family="Helvetica,sans-Serif" font-size="14.00">triangulation</text>
</g>
</g>
</svg>
