<?xml version="1.0" encoding="UTF-8" standalone="no"?>
<!DOCTYPE svg PUBLIC "-//W3C//DTD SVG 1.1//EN"
 "http://www.w3.org/Graphics/SVG/1.1/DTD/svg11.dtd">
<!-- Generated by graphviz version 2.38.0 (20140413.2041)
 -->
<!-- Title: LinearSolvers::InverseMatrix&lt; MatrixType, PreconditionerType &gt; Pages: 1 -->
<svg width="408pt" height="137pt"
 viewBox="0.00 0.00 407.50 137.00" xmlns="http://www.w3.org/2000/svg" xmlns:xlink="http://www.w3.org/1999/xlink">
<g id="graph0" class="graph" transform="scale(1 1) rotate(0) translate(4 133)">
<title>LinearSolvers::InverseMatrix&lt; MatrixType, PreconditionerType &gt;</title>
<polygon fill="white" stroke="none" points="-4,4 -4,-133 403.5,-133 403.5,4 -4,4"/>
<!-- Node1 -->
<g id="node1" class="node"><title>Node1</title>
<polygon fill="#bfbfbf" stroke="black" points="54,-0.5 54,-38.5 287,-38.5 287,-0.5 54,-0.5"/>
<text text-anchor="start" x="62" y="-23.3" font-family="Helvetica,sans-Serif" font-size="14.00">LinearSolvers::InverseMatrix</text>
<text text-anchor="middle" x="170.5" y="-8.3" font-family="Helvetica,sans-Serif" font-size="14.00">&lt; MatrixType, PreconditionerType &gt;</text>
</g>
<!-- Node2 -->
<g id="node2" class="node"><title>Node2</title>
<g id="a_node2"><a xlink:href="classSubscriptor.html" target="_top" xlink:title="Subscriptor">
<polygon fill="white" stroke="black" points="0,-98 0,-121 85,-121 85,-98 0,-98"/>
<text text-anchor="middle" x="42.5" y="-105.8" font-family="Helvetica,sans-Serif" font-size="14.00">Subscriptor</text>
</a>
</g>
</g>
<!-- Node2&#45;&gt;Node1 -->
<g id="edge1" class="edge"><title>Node2&#45;&gt;Node1</title>
<path fill="none" stroke="midnightblue" d="M66.3804,-92.0822C88.3922,-76.9491 121.015,-54.5212 143.862,-38.8138"/>
<polygon fill="midnightblue" stroke="midnightblue" points="64.1974,-89.3357 57.9398,-97.8851 68.1631,-95.104 64.1974,-89.3357"/>
</g>
<!-- Node3 -->
<g id="node3" class="node"><title>Node3</title>
<polygon fill="white" stroke="#bfbfbf" points="103.5,-98 103.5,-121 237.5,-121 237.5,-98 103.5,-98"/>
<text text-anchor="middle" x="170.5" y="-105.8" font-family="Helvetica,sans-Serif" font-size="14.00">PreconditionerType</text>
</g>
<!-- Node3&#45;&gt;Node1 -->
<g id="edge2" class="edge"><title>Node3&#45;&gt;Node1</title>
<path fill="none" stroke="#9a32cd" stroke-dasharray="5,2" d="M170.5,-87.4707C170.5,-72.6205 170.5,-52.9188 170.5,-38.7337"/>
<polygon fill="#9a32cd" stroke="#9a32cd" points="167,-87.7094 170.5,-97.7095 174,-87.7095 167,-87.7094"/>
<text text-anchor="middle" x="215.5" y="-60.8" font-family="Helvetica,sans-Serif" font-size="14.00"> preconditioner</text>
</g>
<!-- Node4 -->
<g id="node4" class="node"><title>Node4</title>
<polygon fill="white" stroke="#bfbfbf" points="255.5,-90.5 255.5,-128.5 399.5,-128.5 399.5,-90.5 255.5,-90.5"/>
<text text-anchor="start" x="263.5" y="-113.3" font-family="Helvetica,sans-Serif" font-size="14.00">const SmartPointer</text>
<text text-anchor="middle" x="327.5" y="-98.3" font-family="Helvetica,sans-Serif" font-size="14.00">&lt; const MatrixType &gt;</text>
</g>
<!-- Node4&#45;&gt;Node1 -->
<g id="edge3" class="edge"><title>Node4&#45;&gt;Node1</title>
<path fill="none" stroke="#9a32cd" stroke-dasharray="5,2" d="M300.789,-83.5218C290.066,-74.3612 277.24,-64.4277 264.5,-57 252.401,-49.946 238.684,-43.7363 225.542,-38.5321"/>
<polygon fill="#9a32cd" stroke="#9a32cd" points="298.716,-86.3597 308.542,-90.322 303.332,-81.0969 298.716,-86.3597"/>
<text text-anchor="middle" x="306.5" y="-60.8" font-family="Helvetica,sans-Serif" font-size="14.00"> matrix</text>
</g>
</g>
</svg>
