<?xml version="1.0" encoding="UTF-8" standalone="no"?>
<!DOCTYPE svg PUBLIC "-//W3C//DTD SVG 1.1//EN"
 "http://www.w3.org/Graphics/SVG/1.1/DTD/svg11.dtd">
<!-- Generated by graphviz version 2.38.0 (20140413.2041)
 -->
<!-- Title: EquationData::Diffusion_A_Data Pages: 1 -->
<svg width="421pt" height="132pt"
 viewBox="0.00 0.00 421.00 131.50" xmlns="http://www.w3.org/2000/svg" xmlns:xlink="http://www.w3.org/1999/xlink">
<g id="graph0" class="graph" transform="scale(1 1) rotate(0) translate(4 127.5)">
<title>EquationData::Diffusion_A_Data</title>
<polygon fill="white" stroke="none" points="-4,4 -4,-127.5 417,-127.5 417,4 -4,4"/>
<!-- Node1 -->
<g id="node1" class="node"><title>Node1</title>
<polygon fill="#bfbfbf" stroke="black" points="0,-50.5 0,-88.5 158,-88.5 158,-50.5 0,-50.5"/>
<text text-anchor="start" x="8" y="-73.3" font-family="Helvetica,sans-Serif" font-size="14.00">EquationData::Diffusion</text>
<text text-anchor="middle" x="79" y="-58.3" font-family="Helvetica,sans-Serif" font-size="14.00">_A_Data</text>
</g>
<!-- Node2 -->
<g id="node2" class="node"><title>Node2</title>
<g id="a_node2"><a xlink:href="classEquationData_1_1Diffusion__A.html" target="_top" xlink:title="Class containing a positive tensor. ">
<polygon fill="white" stroke="black" points="216,-100 216,-123 391,-123 391,-100 216,-100"/>
<text text-anchor="middle" x="303.5" y="-107.8" font-family="Helvetica,sans-Serif" font-size="14.00">EquationData::Diffusion_A</text>
</a>
</g>
</g>
<!-- Node1&#45;&gt;Node2 -->
<g id="edge1" class="edge"><title>Node1&#45;&gt;Node2</title>
<path fill="none" stroke="midnightblue" d="M168.164,-86.1423C192.683,-90.7706 218.767,-95.6943 241.364,-99.9597"/>
<polygon fill="midnightblue" stroke="midnightblue" points="168.608,-82.6643 158.132,-84.2486 167.31,-89.5428 168.608,-82.6643"/>
</g>
<!-- Node3 -->
<g id="node3" class="node"><title>Node3</title>
<g id="a_node3"><a xlink:href="classEquationData_1_1DiffusionInverse__A.html" target="_top" xlink:title="Class containing the inverse of a positive tensor. ">
<polygon fill="white" stroke="black" points="194,-58 194,-81 413,-81 413,-58 194,-58"/>
<text text-anchor="middle" x="303.5" y="-65.8" font-family="Helvetica,sans-Serif" font-size="14.00">EquationData::DiffusionInverse_A</text>
</a>
</g>
</g>
<!-- Node1&#45;&gt;Node3 -->
<g id="edge2" class="edge"><title>Node1&#45;&gt;Node3</title>
<path fill="none" stroke="midnightblue" d="M168.239,-69.5C176.61,-69.5 185.163,-69.5 193.697,-69.5"/>
<polygon fill="midnightblue" stroke="midnightblue" points="168.132,-66.0001 158.132,-69.5 168.132,-73.0001 168.132,-66.0001"/>
</g>
<!-- Node4 -->
<g id="node4" class="node"><title>Node4</title>
<g id="a_node4"><a xlink:href="classEquationData_1_1RightHandSideExactLin.html" target="_top" xlink:title="Right hand side used if user chooses to compare an analytic solutions. ">
<polygon fill="white" stroke="black" points="205,-0.5 205,-38.5 402,-38.5 402,-0.5 205,-0.5"/>
<text text-anchor="start" x="213" y="-23.3" font-family="Helvetica,sans-Serif" font-size="14.00">EquationData::RightHandSide</text>
<text text-anchor="middle" x="303.5" y="-8.3" font-family="Helvetica,sans-Serif" font-size="14.00">ExactLin</text>
</a>
</g>
</g>
<!-- Node1&#45;&gt;Node4 -->
<g id="edge3" class="edge"><title>Node1&#45;&gt;Node4</title>
<path fill="none" stroke="midnightblue" d="M168.191,-49.6817C184.512,-46.0141 201.525,-42.1909 217.741,-38.5469"/>
<polygon fill="midnightblue" stroke="midnightblue" points="167.122,-46.3347 158.132,-51.9422 168.656,-53.1644 167.122,-46.3347"/>
</g>
</g>
</svg>
