<?xml version="1.0" encoding="UTF-8" standalone="no"?>
<!DOCTYPE svg PUBLIC "-//W3C//DTD SVG 1.1//EN"
 "http://www.w3.org/Graphics/SVG/1.1/DTD/svg11.dtd">
<!-- Generated by graphviz version 2.38.0 (20140413.2041)
 -->
<!-- Title: EquationData::DiffusionInverse_A Pages: 1 -->
<svg width="401pt" height="303pt"
 viewBox="0.00 0.00 400.50 303.00" xmlns="http://www.w3.org/2000/svg" xmlns:xlink="http://www.w3.org/1999/xlink">
<g id="graph0" class="graph" transform="scale(1 1) rotate(0) translate(4 299)">
<title>EquationData::DiffusionInverse_A</title>
<polygon fill="white" stroke="none" points="-4,4 -4,-299 396.5,-299 396.5,4 -4,4"/>
<!-- Node1 -->
<g id="node1" class="node"><title>Node1</title>
<polygon fill="#bfbfbf" stroke="black" points="19,-0.5 19,-23.5 238,-23.5 238,-0.5 19,-0.5"/>
<text text-anchor="middle" x="128.5" y="-8.3" font-family="Helvetica,sans-Serif" font-size="14.00">EquationData::DiffusionInverse_A</text>
</g>
<!-- Node2 -->
<g id="node2" class="node"><title>Node2</title>
<g id="a_node2"><a xlink:href="classTensorFunction.html" target="_top" xlink:title="TensorFunction\&lt; 2, 3 \&gt;">
<polygon fill="white" stroke="black" points="0,-69 0,-92 157,-92 157,-69 0,-69"/>
<text text-anchor="middle" x="78.5" y="-76.8" font-family="Helvetica,sans-Serif" font-size="14.00">TensorFunction&lt; 2, 3 &gt;</text>
</a>
</g>
</g>
<!-- Node2&#45;&gt;Node1 -->
<g id="edge1" class="edge"><title>Node2&#45;&gt;Node1</title>
<path fill="none" stroke="midnightblue" d="M92.5558,-60.8057C101.514,-48.8918 112.807,-33.8713 120.32,-23.8788"/>
<polygon fill="midnightblue" stroke="midnightblue" points="89.7455,-58.7194 86.5334,-68.8156 95.3405,-62.9262 89.7455,-58.7194"/>
</g>
<!-- Node3 -->
<g id="node3" class="node"><title>Node3</title>
<g id="a_node3"><a xlink:href="classEquationData_1_1Diffusion__A__Data.html" target="_top" xlink:title="Class containing data to construct a positive tensor. ">
<polygon fill="white" stroke="black" points="175.5,-61.5 175.5,-99.5 333.5,-99.5 333.5,-61.5 175.5,-61.5"/>
<text text-anchor="start" x="183.5" y="-84.3" font-family="Helvetica,sans-Serif" font-size="14.00">EquationData::Diffusion</text>
<text text-anchor="middle" x="254.5" y="-69.3" font-family="Helvetica,sans-Serif" font-size="14.00">_A_Data</text>
</a>
</g>
</g>
<!-- Node3&#45;&gt;Node1 -->
<g id="edge2" class="edge"><title>Node3&#45;&gt;Node1</title>
<path fill="none" stroke="midnightblue" d="M211.223,-56.6595C190.033,-45.476 165.533,-32.545 148.727,-23.6752"/>
<polygon fill="midnightblue" stroke="midnightblue" points="209.592,-59.7563 220.07,-61.3286 212.86,-53.5656 209.592,-59.7563"/>
</g>
<!-- Node4 -->
<g id="node4" class="node"><title>Node4</title>
<polygon fill="white" stroke="#bfbfbf" points="84,-271.5 84,-294.5 141,-294.5 141,-271.5 84,-271.5"/>
<text text-anchor="middle" x="112.5" y="-279.3" font-family="Helvetica,sans-Serif" font-size="14.00">double</text>
</g>
<!-- Node4&#45;&gt;Node3 -->
<g id="edge3" class="edge"><title>Node4&#45;&gt;Node3</title>
<path fill="none" stroke="#9a32cd" stroke-dasharray="5,2" d="M112.615,-261.014C113.926,-226.76 121.399,-158.595 158.5,-118 165.477,-110.366 174.22,-104.318 183.571,-99.5284"/>
<polygon fill="#9a32cd" stroke="#9a32cd" points="109.11,-261.161 112.372,-271.241 116.108,-261.327 109.11,-261.161"/>
<text text-anchor="middle" x="186" y="-241.8" font-family="Helvetica,sans-Serif" font-size="14.00"> alpha_</text>
<text text-anchor="middle" x="186" y="-226.8" font-family="Helvetica,sans-Serif" font-size="14.00">scale_x</text>
<text text-anchor="middle" x="186" y="-211.8" font-family="Helvetica,sans-Serif" font-size="14.00">scale_y</text>
<text text-anchor="middle" x="186" y="-196.8" font-family="Helvetica,sans-Serif" font-size="14.00">gamma_</text>
<text text-anchor="middle" x="186" y="-181.8" font-family="Helvetica,sans-Serif" font-size="14.00">beta_</text>
<text text-anchor="middle" x="186" y="-166.8" font-family="Helvetica,sans-Serif" font-size="14.00">scale_z</text>
<text text-anchor="middle" x="186" y="-151.8" font-family="Helvetica,sans-Serif" font-size="14.00">alpha_x</text>
<text text-anchor="middle" x="186" y="-136.8" font-family="Helvetica,sans-Serif" font-size="14.00">alpha_y</text>
<text text-anchor="middle" x="186" y="-121.8" font-family="Helvetica,sans-Serif" font-size="14.00">alpha_z</text>
</g>
<!-- Node5 -->
<g id="node5" class="node"><title>Node5</title>
<polygon fill="white" stroke="#bfbfbf" points="159,-271.5 159,-294.5 264,-294.5 264,-271.5 159,-271.5"/>
<text text-anchor="middle" x="211.5" y="-279.3" font-family="Helvetica,sans-Serif" font-size="14.00">Tensor&lt; 2, 3 &gt;</text>
</g>
<!-- Node5&#45;&gt;Node3 -->
<g id="edge4" class="edge"><title>Node5&#45;&gt;Node3</title>
<path fill="none" stroke="#9a32cd" stroke-dasharray="5,2" d="M215.909,-261.442C224.326,-222.197 242.557,-137.186 250.578,-99.7856"/>
<polygon fill="#9a32cd" stroke="#9a32cd" points="212.487,-260.709 213.812,-271.22 219.331,-262.177 212.487,-260.709"/>
<text text-anchor="middle" x="255.5" y="-181.8" font-family="Helvetica,sans-Serif" font-size="14.00"> rot</text>
</g>
<!-- Node6 -->
<g id="node6" class="node"><title>Node6</title>
<polygon fill="white" stroke="#bfbfbf" points="282,-271.5 282,-294.5 313,-294.5 313,-271.5 282,-271.5"/>
<text text-anchor="middle" x="297.5" y="-279.3" font-family="Helvetica,sans-Serif" font-size="14.00">int</text>
</g>
<!-- Node6&#45;&gt;Node3 -->
<g id="edge5" class="edge"><title>Node6&#45;&gt;Node3</title>
<path fill="none" stroke="#9a32cd" stroke-dasharray="5,2" d="M295.452,-261.316C292.009,-229.892 283.978,-168.442 269.5,-118 267.761,-111.942 265.335,-105.524 262.94,-99.7872"/>
<polygon fill="#9a32cd" stroke="#9a32cd" points="291.991,-261.879 296.516,-271.46 298.953,-261.149 291.991,-261.879"/>
<text text-anchor="middle" x="306" y="-196.8" font-family="Helvetica,sans-Serif" font-size="14.00"> k_x</text>
<text text-anchor="middle" x="306" y="-181.8" font-family="Helvetica,sans-Serif" font-size="14.00">k_y</text>
<text text-anchor="middle" x="306" y="-166.8" font-family="Helvetica,sans-Serif" font-size="14.00">k_z</text>
</g>
<!-- Node7 -->
<g id="node7" class="node"><title>Node7</title>
<polygon fill="white" stroke="#bfbfbf" points="330.5,-271.5 330.5,-294.5 372.5,-294.5 372.5,-271.5 330.5,-271.5"/>
<text text-anchor="middle" x="351.5" y="-279.3" font-family="Helvetica,sans-Serif" font-size="14.00">bool</text>
</g>
<!-- Node7&#45;&gt;Node3 -->
<g id="edge6" class="edge"><title>Node7&#45;&gt;Node3</title>
<path fill="none" stroke="#9a32cd" stroke-dasharray="5,2" d="M353.281,-261.194C355.044,-227.736 353.88,-161.347 322.5,-118 317.157,-110.62 309.855,-104.585 302.011,-99.7015"/>
<polygon fill="#9a32cd" stroke="#9a32cd" points="349.787,-260.985 352.61,-271.197 356.772,-261.454 349.787,-260.985"/>
<text text-anchor="middle" x="373" y="-181.8" font-family="Helvetica,sans-Serif" font-size="14.00"> rotate</text>
</g>
</g>
</svg>
