<?xml version="1.0" encoding="UTF-8" standalone="no"?>
<!DOCTYPE svg PUBLIC "-//W3C//DTD SVG 1.1//EN"
 "http://www.w3.org/Graphics/SVG/1.1/DTD/svg11.dtd">
<!-- Generated by graphviz version 2.38.0 (20140413.2041)
 -->
<!-- Title: EquationData::ExactSolutionLin Pages: 1 -->
<svg width="453pt" height="198pt"
 viewBox="0.00 0.00 453.00 198.00" xmlns="http://www.w3.org/2000/svg" xmlns:xlink="http://www.w3.org/1999/xlink">
<g id="graph0" class="graph" transform="scale(1 1) rotate(0) translate(4 194)">
<title>EquationData::ExactSolutionLin</title>
<polygon fill="white" stroke="none" points="-4,4 -4,-194 449,-194 449,4 -4,4"/>
<!-- Node1 -->
<g id="node1" class="node"><title>Node1</title>
<polygon fill="#bfbfbf" stroke="black" points="29.5,-0.5 29.5,-23.5 235.5,-23.5 235.5,-0.5 29.5,-0.5"/>
<text text-anchor="middle" x="132.5" y="-8.3" font-family="Helvetica,sans-Serif" font-size="14.00">EquationData::ExactSolutionLin</text>
</g>
<!-- Node2 -->
<g id="node2" class="node"><title>Node2</title>
<g id="a_node2"><a xlink:href="classTensorFunction.html" target="_top" xlink:title="TensorFunction\&lt; 1, 3 \&gt;">
<polygon fill="white" stroke="black" points="0,-69 0,-92 157,-92 157,-69 0,-69"/>
<text text-anchor="middle" x="78.5" y="-76.8" font-family="Helvetica,sans-Serif" font-size="14.00">TensorFunction&lt; 1, 3 &gt;</text>
</a>
</g>
</g>
<!-- Node2&#45;&gt;Node1 -->
<g id="edge1" class="edge"><title>Node2&#45;&gt;Node1</title>
<path fill="none" stroke="midnightblue" d="M93.6803,-60.8057C103.355,-48.8918 115.552,-33.8713 123.666,-23.8788"/>
<polygon fill="midnightblue" stroke="midnightblue" points="90.7628,-58.8464 87.176,-68.8156 96.1968,-63.259 90.7628,-58.8464"/>
</g>
<!-- Node3 -->
<g id="node3" class="node"><title>Node3</title>
<g id="a_node3"><a xlink:href="classEquationData_1_1ExactSolutionLin__Data.html" target="_top" xlink:title="Data class to construct an analytic solution. ">
<polygon fill="white" stroke="black" points="175.5,-61.5 175.5,-99.5 363.5,-99.5 363.5,-61.5 175.5,-61.5"/>
<text text-anchor="start" x="183.5" y="-84.3" font-family="Helvetica,sans-Serif" font-size="14.00">EquationData::ExactSolution</text>
<text text-anchor="middle" x="269.5" y="-69.3" font-family="Helvetica,sans-Serif" font-size="14.00">Lin_Data</text>
</a>
</g>
</g>
<!-- Node3&#45;&gt;Node1 -->
<g id="edge2" class="edge"><title>Node3&#45;&gt;Node1</title>
<path fill="none" stroke="midnightblue" d="M223.062,-56.9587C199.882,-45.7072 172.929,-32.6242 154.492,-23.6752"/>
<polygon fill="midnightblue" stroke="midnightblue" points="221.54,-60.1104 232.064,-61.3286 224.596,-53.8131 221.54,-60.1104"/>
</g>
<!-- Node4 -->
<g id="node4" class="node"><title>Node4</title>
<polygon fill="white" stroke="#bfbfbf" points="142,-166.5 142,-189.5 199,-189.5 199,-166.5 142,-166.5"/>
<text text-anchor="middle" x="170.5" y="-174.3" font-family="Helvetica,sans-Serif" font-size="14.00">double</text>
</g>
<!-- Node4&#45;&gt;Node3 -->
<g id="edge3" class="edge"><title>Node4&#45;&gt;Node3</title>
<path fill="none" stroke="#9a32cd" stroke-dasharray="5,2" d="M187.741,-158.844C199.121,-147.016 214.467,-131.356 228.5,-118 234.851,-111.956 241.932,-105.542 248.399,-99.8042"/>
<polygon fill="#9a32cd" stroke="#9a32cd" points="184.947,-156.701 180.561,-166.346 190.004,-161.542 184.947,-156.701"/>
<text text-anchor="middle" x="247" y="-129.3" font-family="Helvetica,sans-Serif" font-size="14.00"> div_u</text>
</g>
<!-- Node5 -->
<g id="node5" class="node"><title>Node5</title>
<polygon fill="white" stroke="#bfbfbf" points="217,-166.5 217,-189.5 322,-189.5 322,-166.5 217,-166.5"/>
<text text-anchor="middle" x="269.5" y="-174.3" font-family="Helvetica,sans-Serif" font-size="14.00">Tensor&lt; 1, 3 &gt;</text>
</g>
<!-- Node5&#45;&gt;Node3 -->
<g id="edge4" class="edge"><title>Node5&#45;&gt;Node3</title>
<path fill="none" stroke="#9a32cd" stroke-dasharray="5,2" d="M269.5,-155.956C269.5,-139.09 269.5,-115.672 269.5,-99.6278"/>
<polygon fill="#9a32cd" stroke="#9a32cd" points="266,-156.415 269.5,-166.415 273,-156.415 266,-156.415"/>
<text text-anchor="middle" x="290" y="-136.8" font-family="Helvetica,sans-Serif" font-size="14.00"> curl_u</text>
<text text-anchor="middle" x="290" y="-121.8" font-family="Helvetica,sans-Serif" font-size="14.00">b</text>
</g>
<!-- Node6 -->
<g id="node6" class="node"><title>Node6</title>
<polygon fill="white" stroke="#bfbfbf" points="340,-166.5 340,-189.5 445,-189.5 445,-166.5 340,-166.5"/>
<text text-anchor="middle" x="392.5" y="-174.3" font-family="Helvetica,sans-Serif" font-size="14.00">Tensor&lt; 2, 3 &gt;</text>
</g>
<!-- Node6&#45;&gt;Node3 -->
<g id="edge5" class="edge"><title>Node6&#45;&gt;Node3</title>
<path fill="none" stroke="#9a32cd" stroke-dasharray="5,2" d="M370.835,-160.179C348.966,-143.199 315.3,-117.06 292.848,-99.6278"/>
<polygon fill="#9a32cd" stroke="#9a32cd" points="368.822,-163.047 378.867,-166.415 373.115,-157.518 368.822,-163.047"/>
<text text-anchor="middle" x="359" y="-129.3" font-family="Helvetica,sans-Serif" font-size="14.00"> A</text>
</g>
</g>
</svg>
