<?xml version="1.0" encoding="UTF-8" standalone="no"?>
<!DOCTYPE svg PUBLIC "-//W3C//DTD SVG 1.1//EN"
 "http://www.w3.org/Graphics/SVG/1.1/DTD/svg11.dtd">
<!-- Generated by graphviz version 2.38.0 (20140413.2041)
 -->
<!-- Title: LinearSolvers::InverseMatrix&lt; MatrixType, PreconditionerType &gt; Pages: 1 -->
<svg width="241pt" height="107pt"
 viewBox="0.00 0.00 241.00 107.00" xmlns="http://www.w3.org/2000/svg" xmlns:xlink="http://www.w3.org/1999/xlink">
<g id="graph0" class="graph" transform="scale(1 1) rotate(0) translate(4 103)">
<title>LinearSolvers::InverseMatrix&lt; MatrixType, PreconditionerType &gt;</title>
<polygon fill="white" stroke="none" points="-4,4 -4,-103 237,-103 237,4 -4,4"/>
<!-- Node1 -->
<g id="node1" class="node"><title>Node1</title>
<polygon fill="#bfbfbf" stroke="black" points="-1.42109e-14,-0.5 -1.42109e-14,-38.5 233,-38.5 233,-0.5 -1.42109e-14,-0.5"/>
<text text-anchor="start" x="8" y="-23.3" font-family="Helvetica,sans-Serif" font-size="14.00">LinearSolvers::InverseMatrix</text>
<text text-anchor="middle" x="116.5" y="-8.3" font-family="Helvetica,sans-Serif" font-size="14.00">&lt; MatrixType, PreconditionerType &gt;</text>
</g>
<!-- Node2 -->
<g id="node2" class="node"><title>Node2</title>
<g id="a_node2"><a xlink:href="classSubscriptor.html" target="_top" xlink:title="Subscriptor">
<polygon fill="white" stroke="black" points="74,-75.5 74,-98.5 159,-98.5 159,-75.5 74,-75.5"/>
<text text-anchor="middle" x="116.5" y="-83.3" font-family="Helvetica,sans-Serif" font-size="14.00">Subscriptor</text>
</a>
</g>
</g>
<!-- Node2&#45;&gt;Node1 -->
<g id="edge1" class="edge"><title>Node2&#45;&gt;Node1</title>
<path fill="none" stroke="midnightblue" d="M116.5,-65.2237C116.5,-56.6948 116.5,-46.9094 116.5,-38.6706"/>
<polygon fill="midnightblue" stroke="midnightblue" points="113,-65.4763 116.5,-75.4763 120,-65.4763 113,-65.4763"/>
</g>
</g>
</svg>
