<?xml version="1.0" encoding="UTF-8" standalone="no"?>
<!DOCTYPE svg PUBLIC "-//W3C//DTD SVG 1.1//EN"
 "http://www.w3.org/Graphics/SVG/1.1/DTD/svg11.dtd">
<!-- Generated by graphviz version 2.38.0 (20140413.2041)
 -->
<!-- Title: NedRT::NedRTBasis Pages: 1 -->
<svg width="821pt" height="1085pt"
 viewBox="0.00 0.00 821.00 1085.13" xmlns="http://www.w3.org/2000/svg" xmlns:xlink="http://www.w3.org/1999/xlink">
<g id="graph0" class="graph" transform="scale(1 1) rotate(0) translate(4 1081.13)">
<title>NedRT::NedRTBasis</title>
<polygon fill="white" stroke="none" points="-4,4 -4,-1081.13 817,-1081.13 817,4 -4,4"/>
<!-- Node1 -->
<g id="node1" class="node"><title>Node1</title>
<polygon fill="#bfbfbf" stroke="black" points="670,-485.632 670,-508.632 813,-508.632 813,-485.632 670,-485.632"/>
<text text-anchor="middle" x="741.5" y="-493.432" font-family="Helvetica,sans-Serif" font-size="14.00">NedRT::NedRTBasis</text>
</g>
<!-- Node2 -->
<g id="node2" class="node"><title>Node2</title>
<polygon fill="white" stroke="#bfbfbf" points="277,-994.632 277,-1017.63 395,-1017.63 395,-994.632 277,-994.632"/>
<text text-anchor="middle" x="336" y="-1002.43" font-family="Helvetica,sans-Serif" font-size="14.00">vector&lt; double &gt;</text>
</g>
<!-- Node2&#45;&gt;Node1 -->
<g id="edge1" class="edge"><title>Node2&#45;&gt;Node1</title>
<path fill="none" stroke="#9a32cd" stroke-dasharray="5,2" d="M388.897,-1019.86C458.068,-1034.75 580.09,-1048.53 652,-984.132 725.776,-918.058 738.445,-576.156 740.237,-508.699"/>
<polygon fill="#9a32cd" stroke="#9a32cd" points="389.61,-1016.44 379.087,-1017.67 388.081,-1023.27 389.61,-1016.44"/>
<text text-anchor="middle" x="568" y="-1065.93" font-family="Helvetica,sans-Serif" font-size="14.00"> face_measure</text>
<text text-anchor="middle" x="568" y="-1050.93" font-family="Helvetica,sans-Serif" font-size="14.00">global_weights</text>
<text text-anchor="middle" x="568" y="-1035.93" font-family="Helvetica,sans-Serif" font-size="14.00">edge_measure</text>
</g>
<!-- Node3 -->
<g id="node3" class="node"><title>Node3</title>
<polygon fill="white" stroke="#bfbfbf" points="275.5,-952.632 275.5,-975.632 396.5,-975.632 396.5,-952.632 275.5,-952.632"/>
<text text-anchor="middle" x="336" y="-960.432" font-family="Helvetica,sans-Serif" font-size="14.00">DoFHandler&lt; 3 &gt;</text>
</g>
<!-- Node3&#45;&gt;Node1 -->
<g id="edge2" class="edge"><title>Node3&#45;&gt;Node1</title>
<path fill="none" stroke="#9a32cd" stroke-dasharray="5,2" d="M406.974,-967.529C488.66,-969.93 617.057,-968.334 652,-937.132 718.547,-877.709 736.854,-572.515 739.975,-508.8"/>
<polygon fill="#9a32cd" stroke="#9a32cd" points="406.868,-964.024 396.761,-967.201 406.643,-971.021 406.868,-964.024"/>
<text text-anchor="middle" x="568" y="-970.932" font-family="Helvetica,sans-Serif" font-size="14.00"> dof_handler</text>
</g>
<!-- Node4 -->
<g id="node4" class="node"><title>Node4</title>
<polygon fill="white" stroke="#bfbfbf" points="307.5,-910.632 307.5,-933.632 364.5,-933.632 364.5,-910.632 307.5,-910.632"/>
<text text-anchor="middle" x="336" y="-918.432" font-family="Helvetica,sans-Serif" font-size="14.00">double</text>
</g>
<!-- Node4&#45;&gt;Node1 -->
<g id="edge3" class="edge"><title>Node4&#45;&gt;Node1</title>
<path fill="none" stroke="#9a32cd" stroke-dasharray="5,2" d="M374.61,-921.741C453.657,-920.568 631.461,-915.958 652,-898.132 713.245,-844.975 735.528,-569.611 739.731,-508.959"/>
<polygon fill="#9a32cd" stroke="#9a32cd" points="374.535,-918.241 364.584,-921.879 374.631,-925.241 374.535,-918.241"/>
<text text-anchor="middle" x="568" y="-921.932" font-family="Helvetica,sans-Serif" font-size="14.00"> volume_measure</text>
</g>
<!-- Node5 -->
<g id="node5" class="node"><title>Node5</title>
<polygon fill="white" stroke="#bfbfbf" points="305,-868.632 305,-891.632 367,-891.632 367,-868.632 305,-868.632"/>
<text text-anchor="middle" x="336" y="-876.432" font-family="Helvetica,sans-Serif" font-size="14.00">string &amp;</text>
</g>
<!-- Node5&#45;&gt;Node1 -->
<g id="edge4" class="edge"><title>Node5&#45;&gt;Node1</title>
<path fill="none" stroke="#9a32cd" stroke-dasharray="5,2" d="M377.467,-880.193C457.791,-879.939 631.426,-877.375 652,-860.132 708.179,-813.05 734.14,-566.19 739.453,-508.979"/>
<polygon fill="#9a32cd" stroke="#9a32cd" points="377.227,-876.693 367.234,-880.214 377.242,-883.693 377.227,-876.693"/>
<text text-anchor="middle" x="568" y="-882.932" font-family="Helvetica,sans-Serif" font-size="14.00"> parameter_filename</text>
</g>
<!-- Node6 -->
<g id="node6" class="node"><title>Node6</title>
<polygon fill="white" stroke="#bfbfbf" points="267.5,-811.132 267.5,-849.132 404.5,-849.132 404.5,-811.132 267.5,-811.132"/>
<text text-anchor="start" x="275.5" y="-833.932" font-family="Helvetica,sans-Serif" font-size="14.00">vector&lt; BlockVector</text>
<text text-anchor="middle" x="336" y="-818.932" font-family="Helvetica,sans-Serif" font-size="14.00">&lt; double &gt; &gt;</text>
</g>
<!-- Node6&#45;&gt;Node1 -->
<g id="edge5" class="edge"><title>Node6&#45;&gt;Node1</title>
<path fill="none" stroke="#9a32cd" stroke-dasharray="5,2" d="M414.321,-813.366C436.742,-808.773 461.297,-803.998 484,-800.132 521.147,-793.806 623.188,-801.417 652,-777.132 737.173,-705.339 741.424,-552.122 740.842,-508.775"/>
<polygon fill="#9a32cd" stroke="#9a32cd" points="413.606,-809.94 404.521,-815.39 415.022,-816.795 413.606,-809.94"/>
<text text-anchor="middle" x="568" y="-848.932" font-family="Helvetica,sans-Serif" font-size="14.00"> system_rhs_div_v</text>
<text text-anchor="middle" x="568" y="-833.932" font-family="Helvetica,sans-Serif" font-size="14.00">system_rhs_curl_v</text>
<text text-anchor="middle" x="568" y="-818.932" font-family="Helvetica,sans-Serif" font-size="14.00">basis_div_v</text>
<text text-anchor="middle" x="568" y="-803.932" font-family="Helvetica,sans-Serif" font-size="14.00">basis_curl_v</text>
</g>
<!-- Node7 -->
<g id="node7" class="node"><title>Node7</title>
<polygon fill="white" stroke="#bfbfbf" points="266,-768.632 266,-791.632 406,-791.632 406,-768.632 266,-768.632"/>
<text text-anchor="middle" x="336" y="-776.432" font-family="Helvetica,sans-Serif" font-size="14.00">vector&lt; Point&lt; 3 &gt; &gt;</text>
</g>
<!-- Node7&#45;&gt;Node1 -->
<g id="edge6" class="edge"><title>Node7&#45;&gt;Node1</title>
<path fill="none" stroke="#9a32cd" stroke-dasharray="5,2" d="M416.438,-770.297C508.994,-758.766 649.691,-740.979 652,-739.132 727.275,-678.903 738.53,-548.589 740.208,-508.864"/>
<polygon fill="#9a32cd" stroke="#9a32cd" points="415.733,-766.858 406.242,-771.566 416.597,-773.804 415.733,-766.858"/>
<text text-anchor="middle" x="568" y="-764.932" font-family="Helvetica,sans-Serif" font-size="14.00"> corner_points</text>
</g>
<!-- Node8 -->
<g id="node8" class="node"><title>Node8</title>
<polygon fill="white" stroke="#bfbfbf" points="206,-696.632 206,-749.632 466,-749.632 466,-696.632 206,-696.632"/>
<text text-anchor="start" x="214" y="-734.432" font-family="Helvetica,sans-Serif" font-size="14.00">shared_ptr&lt; typename</text>
<text text-anchor="start" x="214" y="-719.432" font-family="Helvetica,sans-Serif" font-size="14.00"> LinearSolvers::LocalInnerPreconditioner</text>
<text text-anchor="middle" x="336" y="-704.432" font-family="Helvetica,sans-Serif" font-size="14.00">&lt; 3 &gt;::type &gt;</text>
</g>
<!-- Node8&#45;&gt;Node1 -->
<g id="edge7" class="edge"><title>Node8&#45;&gt;Node1</title>
<path fill="none" stroke="#9a32cd" stroke-dasharray="5,2" d="M476.6,-720.005C553.854,-717.107 637.222,-711.584 652,-701.132 718.82,-653.871 735.662,-544.985 739.477,-508.951"/>
<polygon fill="#9a32cd" stroke="#9a32cd" points="476.105,-716.52 466.238,-720.38 476.358,-723.516 476.105,-716.52"/>
<text text-anchor="middle" x="568" y="-723.932" font-family="Helvetica,sans-Serif" font-size="14.00"> inner_schur_preconditioner</text>
</g>
<!-- Node9 -->
<g id="node9" class="node"><title>Node9</title>
<polygon fill="white" stroke="#bfbfbf" points="259.5,-654.632 259.5,-677.632 412.5,-677.632 412.5,-654.632 259.5,-654.632"/>
<text text-anchor="middle" x="336" y="-662.432" font-family="Helvetica,sans-Serif" font-size="14.00">BlockVector&lt; double &gt;</text>
</g>
<!-- Node9&#45;&gt;Node1 -->
<g id="edge8" class="edge"><title>Node9&#45;&gt;Node1</title>
<path fill="none" stroke="#9a32cd" stroke-dasharray="5,2" d="M422.727,-653.226C488.792,-640.563 580.612,-616.893 652,-575.132 683.82,-556.518 714.646,-525.518 730.145,-508.752"/>
<polygon fill="#9a32cd" stroke="#9a32cd" points="421.948,-649.811 412.762,-655.09 423.236,-656.691 421.948,-649.811"/>
<text text-anchor="middle" x="568" y="-687.932" font-family="Helvetica,sans-Serif" font-size="14.00"> global_solution</text>
<text text-anchor="start" x="515.5" y="-672.932" font-family="Helvetica,sans-Serif" font-size="14.00">exact_solution_in</text>
<text text-anchor="middle" x="568" y="-657.932" font-family="Helvetica,sans-Serif" font-size="14.00">_cell</text>
<text text-anchor="middle" x="568" y="-642.932" font-family="Helvetica,sans-Serif" font-size="14.00">global_rhs</text>
</g>
<!-- Node10 -->
<g id="node10" class="node"><title>Node10</title>
<polygon fill="white" stroke="#bfbfbf" points="9.5,-374.632 9.5,-397.632 40.5,-397.632 40.5,-374.632 9.5,-374.632"/>
<text text-anchor="middle" x="25" y="-382.432" font-family="Helvetica,sans-Serif" font-size="14.00">int</text>
</g>
<!-- Node10&#45;&gt;Node1 -->
<g id="edge9" class="edge"><title>Node10&#45;&gt;Node1</title>
<path fill="none" stroke="#9a32cd" stroke-dasharray="5,2" d="M50.5764,-380.462C138.268,-361.576 441.753,-307.85 652,-415.132 686.33,-432.649 717.03,-467.347 731.583,-485.478"/>
<polygon fill="#9a32cd" stroke="#9a32cd" points="49.7636,-377.057 40.7523,-382.629 51.2715,-383.893 49.7636,-377.057"/>
<text text-anchor="middle" x="336" y="-377.932" font-family="Helvetica,sans-Serif" font-size="14.00"> length_system_basis</text>
<text text-anchor="middle" x="336" y="-362.932" font-family="Helvetica,sans-Serif" font-size="14.00">local_subdomain</text>
</g>
<!-- Node14 -->
<g id="node14" class="node"><title>Node14</title>
<g id="a_node14"><a xlink:href="structNedRT_1_1ParametersBasis.html" target="_top" xlink:title="NedRT::ParametersBasis">
<polygon fill="white" stroke="black" points="251,-501.632 251,-524.632 421,-524.632 421,-501.632 251,-501.632"/>
<text text-anchor="middle" x="336" y="-509.432" font-family="Helvetica,sans-Serif" font-size="14.00">NedRT::ParametersBasis</text>
</a>
</g>
</g>
<!-- Node10&#45;&gt;Node14 -->
<g id="edge14" class="edge"><title>Node10&#45;&gt;Node14</title>
<path fill="none" stroke="#9a32cd" stroke-dasharray="5,2" d="M50.8095,-386.303C91.1847,-387.115 168.564,-391.057 188,-409.132 215.641,-434.837 178.622,-466.147 206,-492.132 218.261,-503.769 234.311,-510.412 250.906,-513.981"/>
<polygon fill="#9a32cd" stroke="#9a32cd" points="50.7623,-382.802 40.7105,-386.151 50.6564,-389.802 50.7623,-382.802"/>
<text text-anchor="middle" x="128" y="-442.932" font-family="Helvetica,sans-Serif" font-size="14.00"> n_refine_global</text>
<text text-anchor="middle" x="128" y="-427.932" font-family="Helvetica,sans-Serif" font-size="14.00">n_refine_local</text>
<text text-anchor="middle" x="128" y="-412.932" font-family="Helvetica,sans-Serif" font-size="14.00">degree</text>
</g>
<!-- Node11 -->
<g id="node11" class="node"><title>Node11</title>
<polygon fill="white" stroke="#bfbfbf" points="4,-578.632 4,-601.632 46,-601.632 46,-578.632 4,-578.632"/>
<text text-anchor="middle" x="25" y="-586.432" font-family="Helvetica,sans-Serif" font-size="14.00">bool</text>
</g>
<!-- Node11&#45;&gt;Node1 -->
<g id="edge10" class="edge"><title>Node11&#45;&gt;Node1</title>
<path fill="none" stroke="#9a32cd" stroke-dasharray="5,2" d="M36.0129,-610.864C43.099,-622.982 53.8567,-637.215 68,-644.132 115.91,-667.564 146.067,-677.088 188,-644.132 214.613,-623.217 180.398,-592.273 206,-570.132 243.648,-537.572 603.376,-538.771 652,-528.132 672.993,-523.539 695.866,-515.44 713.1,-508.673"/>
<polygon fill="#9a32cd" stroke="#9a32cd" points="38.9446,-608.926 31.1227,-601.78 32.781,-612.244 38.9446,-608.926"/>
<text text-anchor="middle" x="336" y="-633.932" font-family="Helvetica,sans-Serif" font-size="14.00"> is_copyable</text>
<text text-anchor="middle" x="336" y="-618.932" font-family="Helvetica,sans-Serif" font-size="14.00">is_set_global_weights</text>
<text text-anchor="start" x="265" y="-603.932" font-family="Helvetica,sans-Serif" font-size="14.00">is_built_global_element</text>
<text text-anchor="middle" x="336" y="-588.932" font-family="Helvetica,sans-Serif" font-size="14.00">_matrix</text>
<text text-anchor="middle" x="336" y="-573.932" font-family="Helvetica,sans-Serif" font-size="14.00">is_set_cell_data</text>
</g>
<!-- Node11&#45;&gt;Node14 -->
<g id="edge16" class="edge"><title>Node11&#45;&gt;Node14</title>
<path fill="none" stroke="#9a32cd" stroke-dasharray="5,2" d="M33.3773,-568.833C39.9115,-553.505 51.0751,-533.881 68,-524.132 98.1002,-506.793 184.347,-505.975 250.754,-508.283"/>
<polygon fill="#9a32cd" stroke="#9a32cd" points="29.9475,-567.995 29.5793,-578.584 36.4702,-570.536 29.9475,-567.995"/>
<text text-anchor="middle" x="128" y="-632.932" font-family="Helvetica,sans-Serif" font-size="14.00"> use_exact_solution</text>
<text text-anchor="middle" x="128" y="-617.932" font-family="Helvetica,sans-Serif" font-size="14.00">full_rhs</text>
<text text-anchor="middle" x="128" y="-602.932" font-family="Helvetica,sans-Serif" font-size="14.00">prevent_output</text>
<text text-anchor="middle" x="128" y="-587.932" font-family="Helvetica,sans-Serif" font-size="14.00">renumber_dofs</text>
<text text-anchor="middle" x="128" y="-572.932" font-family="Helvetica,sans-Serif" font-size="14.00">set_to_std</text>
<text text-anchor="middle" x="128" y="-557.932" font-family="Helvetica,sans-Serif" font-size="14.00">use_direct_solver</text>
<text text-anchor="middle" x="128" y="-542.932" font-family="Helvetica,sans-Serif" font-size="14.00">verbose</text>
<text text-anchor="middle" x="128" y="-527.932" font-family="Helvetica,sans-Serif" font-size="14.00">output_flag</text>
</g>
<!-- Node12 -->
<g id="node12" class="node"><title>Node12</title>
<polygon fill="white" stroke="#bfbfbf" points="310.5,-459.632 310.5,-482.632 361.5,-482.632 361.5,-459.632 310.5,-459.632"/>
<text text-anchor="middle" x="336" y="-467.432" font-family="Helvetica,sans-Serif" font-size="14.00">CellId</text>
</g>
<!-- Node12&#45;&gt;Node1 -->
<g id="edge11" class="edge"><title>Node12&#45;&gt;Node1</title>
<path fill="none" stroke="#9a32cd" stroke-dasharray="5,2" d="M371.869,-467.023C430.262,-460.983 551.334,-452.059 652,-468.132 672.916,-471.471 695.6,-478.987 712.765,-485.53"/>
<polygon fill="#9a32cd" stroke="#9a32cd" points="371.285,-463.565 361.714,-468.111 372.03,-470.526 371.285,-463.565"/>
<text text-anchor="middle" x="568" y="-486.932" font-family="Helvetica,sans-Serif" font-size="14.00"> global_cell_id</text>
<text text-anchor="middle" x="568" y="-471.932" font-family="Helvetica,sans-Serif" font-size="14.00">first_cell</text>
</g>
<!-- Node13 -->
<g id="node13" class="node"><title>Node13</title>
<polygon fill="white" stroke="#bfbfbf" points="280.5,-417.632 280.5,-440.632 391.5,-440.632 391.5,-417.632 280.5,-417.632"/>
<text text-anchor="middle" x="336" y="-425.432" font-family="Helvetica,sans-Serif" font-size="14.00">FESystem&lt; 3 &gt;</text>
</g>
<!-- Node13&#45;&gt;Node1 -->
<g id="edge12" class="edge"><title>Node13&#45;&gt;Node1</title>
<path fill="none" stroke="#9a32cd" stroke-dasharray="5,2" d="M401.778,-421.542C466.666,-416.199 568.603,-414.009 652,-440.132 681.823,-449.473 711.291,-471.767 727.572,-485.542"/>
<polygon fill="#9a32cd" stroke="#9a32cd" points="401.348,-418.066 391.691,-422.423 401.957,-425.04 401.348,-418.066"/>
<text text-anchor="middle" x="568" y="-443.932" font-family="Helvetica,sans-Serif" font-size="14.00"> fe</text>
</g>
<!-- Node14&#45;&gt;Node1 -->
<g id="edge13" class="edge"><title>Node14&#45;&gt;Node1</title>
<path fill="none" stroke="#9a32cd" stroke-dasharray="5,2" d="M431.497,-510.363C494.073,-508.399 577.953,-505.516 652,-502.132 657.842,-501.865 663.899,-501.567 669.98,-501.253"/>
<polygon fill="#9a32cd" stroke="#9a32cd" points="431.136,-506.873 421.25,-510.683 431.354,-513.869 431.136,-506.873"/>
<text text-anchor="middle" x="568" y="-512.932" font-family="Helvetica,sans-Serif" font-size="14.00"> parameters</text>
</g>
<!-- Node15 -->
<g id="node15" class="node"><title>Node15</title>
<polygon fill="white" stroke="#bfbfbf" points="0,-458.632 0,-481.632 50,-481.632 50,-458.632 0,-458.632"/>
<text text-anchor="middle" x="25" y="-466.432" font-family="Helvetica,sans-Serif" font-size="14.00">string</text>
</g>
<!-- Node15&#45;&gt;Node14 -->
<g id="edge15" class="edge"><title>Node15&#45;&gt;Node14</title>
<path fill="none" stroke="#9a32cd" stroke-dasharray="5,2" d="M60.0644,-462.457C94.1306,-456.541 147.186,-452.207 188,-471.132 199.152,-476.303 195.282,-486.112 206,-492.132 219.651,-499.799 235.314,-504.859 250.914,-508.16"/>
<polygon fill="#9a32cd" stroke="#9a32cd" points="59.3195,-459.036 50.1364,-464.32 60.6104,-465.916 59.3195,-459.036"/>
<text text-anchor="middle" x="128" y="-489.932" font-family="Helvetica,sans-Serif" font-size="14.00"> dirname_output</text>
<text text-anchor="middle" x="128" y="-474.932" font-family="Helvetica,sans-Serif" font-size="14.00">filename_global</text>
</g>
<!-- Node16 -->
<g id="node16" class="node"><title>Node16</title>
<polygon fill="white" stroke="#bfbfbf" points="265,-309.632 265,-332.632 407,-332.632 407,-309.632 265,-309.632"/>
<text text-anchor="middle" x="336" y="-317.432" font-family="Helvetica,sans-Serif" font-size="14.00">BlockSparsityPattern</text>
</g>
<!-- Node16&#45;&gt;Node1 -->
<g id="edge17" class="edge"><title>Node16&#45;&gt;Node1</title>
<path fill="none" stroke="#9a32cd" stroke-dasharray="5,2" d="M401.97,-308.021C469.742,-298.003 576.447,-292.882 652,-340.132 706.649,-374.308 730.653,-455.143 737.945,-485.415"/>
<polygon fill="#9a32cd" stroke="#9a32cd" points="401.192,-304.599 391.85,-309.596 402.269,-311.516 401.192,-304.599"/>
<text text-anchor="middle" x="568" y="-343.932" font-family="Helvetica,sans-Serif" font-size="14.00"> sparsity_pattern</text>
</g>
<!-- Node17 -->
<g id="node17" class="node"><title>Node17</title>
<polygon fill="white" stroke="#bfbfbf" points="291,-267.632 291,-290.632 381,-290.632 381,-267.632 291,-267.632"/>
<text text-anchor="middle" x="336" y="-275.432" font-family="Helvetica,sans-Serif" font-size="14.00">MPI_Comm</text>
</g>
<!-- Node17&#45;&gt;Node1 -->
<g id="edge18" class="edge"><title>Node17&#45;&gt;Node1</title>
<path fill="none" stroke="#9a32cd" stroke-dasharray="5,2" d="M391.252,-272.857C469.972,-264.898 610.948,-255.306 652,-283.132 723.053,-331.292 737.146,-447.966 739.867,-485.378"/>
<polygon fill="#9a32cd" stroke="#9a32cd" points="390.626,-269.403 381.04,-273.916 391.348,-276.366 390.626,-269.403"/>
<text text-anchor="middle" x="568" y="-286.932" font-family="Helvetica,sans-Serif" font-size="14.00"> mpi_communicator</text>
</g>
<!-- Node18 -->
<g id="node18" class="node"><title>Node18</title>
<polygon fill="white" stroke="#bfbfbf" points="266,-225.632 266,-248.632 406,-248.632 406,-225.632 266,-225.632"/>
<text text-anchor="middle" x="336" y="-233.432" font-family="Helvetica,sans-Serif" font-size="14.00">FullMatrix&lt; double &gt;</text>
</g>
<!-- Node18&#45;&gt;Node1 -->
<g id="edge19" class="edge"><title>Node18&#45;&gt;Node1</title>
<path fill="none" stroke="#9a32cd" stroke-dasharray="5,2" d="M416.495,-229.485C497.388,-223.414 615.864,-219.774 652,-246.132 733.007,-305.219 740.271,-444.484 740.604,-485.545"/>
<polygon fill="#9a32cd" stroke="#9a32cd" points="416.029,-226.011 406.331,-230.276 416.572,-232.99 416.029,-226.011"/>
<text text-anchor="middle" x="568" y="-249.932" font-family="Helvetica,sans-Serif" font-size="14.00"> global_element_matrix</text>
</g>
<!-- Node19 -->
<g id="node19" class="node"><title>Node19</title>
<polygon fill="white" stroke="#bfbfbf" points="276,-183.632 276,-206.632 396,-206.632 396,-183.632 276,-183.632"/>
<text text-anchor="middle" x="336" y="-191.432" font-family="Helvetica,sans-Serif" font-size="14.00">Vector&lt; double &gt;</text>
</g>
<!-- Node19&#45;&gt;Node1 -->
<g id="edge20" class="edge"><title>Node19&#45;&gt;Node1</title>
<path fill="none" stroke="#9a32cd" stroke-dasharray="5,2" d="M406.288,-188.747C487.286,-182.802 614.995,-178.629 652,-207.132 698.394,-242.867 730.996,-435.552 738.734,-485.369"/>
<polygon fill="#9a32cd" stroke="#9a32cd" points="405.868,-185.269 396.162,-189.517 406.399,-192.249 405.868,-185.269"/>
<text text-anchor="middle" x="568" y="-210.932" font-family="Helvetica,sans-Serif" font-size="14.00"> global_element_rhs</text>
</g>
<!-- Node20 -->
<g id="node20" class="node"><title>Node20</title>
<polygon fill="white" stroke="#bfbfbf" points="267,-126.132 267,-164.132 405,-164.132 405,-126.132 267,-126.132"/>
<text text-anchor="start" x="275" y="-148.932" font-family="Helvetica,sans-Serif" font-size="14.00">BlockSparseMatrix&lt;</text>
<text text-anchor="middle" x="336" y="-133.932" font-family="Helvetica,sans-Serif" font-size="14.00"> double &gt;</text>
</g>
<!-- Node20&#45;&gt;Node1 -->
<g id="edge21" class="edge"><title>Node20&#45;&gt;Node1</title>
<path fill="none" stroke="#9a32cd" stroke-dasharray="5,2" d="M415.491,-136.176C496.771,-128.689 616.736,-123.21 652,-151.132 706.808,-194.529 733.728,-429.938 739.365,-485.416"/>
<polygon fill="#9a32cd" stroke="#9a32cd" points="414.908,-132.715 405.284,-137.145 415.57,-139.684 414.908,-132.715"/>
<text text-anchor="middle" x="568" y="-169.932" font-family="Helvetica,sans-Serif" font-size="14.00"> system_matrix</text>
<text text-anchor="middle" x="568" y="-154.932" font-family="Helvetica,sans-Serif" font-size="14.00">assembled_matrix</text>
</g>
<!-- Node21 -->
<g id="node21" class="node"><title>Node21</title>
<polygon fill="white" stroke="#bfbfbf" points="252,-69.1319 252,-107.132 420,-107.132 420,-69.1319 252,-69.1319"/>
<text text-anchor="start" x="260" y="-91.9319" font-family="Helvetica,sans-Serif" font-size="14.00">vector&lt; AffineConstraints</text>
<text text-anchor="middle" x="336" y="-76.9319" font-family="Helvetica,sans-Serif" font-size="14.00">&lt; double &gt; &gt;</text>
</g>
<!-- Node21&#45;&gt;Node1 -->
<g id="edge22" class="edge"><title>Node21&#45;&gt;Node1</title>
<path fill="none" stroke="#9a32cd" stroke-dasharray="5,2" d="M430.339,-78.5992C510.911,-72.5117 619.347,-70.1378 652,-97.1319 714.355,-148.68 735.775,-424.505 739.772,-485.28"/>
<polygon fill="#9a32cd" stroke="#9a32cd" points="429.857,-75.1262 420.161,-79.3986 430.405,-82.1047 429.857,-75.1262"/>
<text text-anchor="middle" x="568" y="-115.932" font-family="Helvetica,sans-Serif" font-size="14.00"> constraints_div_v</text>
<text text-anchor="middle" x="568" y="-100.932" font-family="Helvetica,sans-Serif" font-size="14.00">constraints_curl_v</text>
</g>
<!-- Node22 -->
<g id="node22" class="node"><title>Node22</title>
<polygon fill="white" stroke="#bfbfbf" points="273,-25.6319 273,-48.6319 399,-48.6319 399,-25.6319 273,-25.6319"/>
<text text-anchor="middle" x="336" y="-33.4319" font-family="Helvetica,sans-Serif" font-size="14.00">Triangulation&lt; 3 &gt;</text>
</g>
<!-- Node22&#45;&gt;Node1 -->
<g id="edge23" class="edge"><title>Node22&#45;&gt;Node1</title>
<path fill="none" stroke="#9a32cd" stroke-dasharray="5,2" d="M379.351,-22.6105C445.754,-2.79139 574.745,23.3997 652,-41.1319 723.021,-100.456 737.83,-419.894 740.134,-485.392"/>
<polygon fill="#9a32cd" stroke="#9a32cd" points="378.164,-19.3137 369.635,-25.5992 380.222,-26.0044 378.164,-19.3137"/>
<text text-anchor="middle" x="568" y="-59.9319" font-family="Helvetica,sans-Serif" font-size="14.00"> global_cell_it</text>
<text text-anchor="middle" x="568" y="-44.9319" font-family="Helvetica,sans-Serif" font-size="14.00">triangulation</text>
</g>
</g>
</svg>
