<?xml version="1.0" encoding="UTF-8" standalone="no"?>
<!DOCTYPE svg PUBLIC "-//W3C//DTD SVG 1.1//EN"
 "http://www.w3.org/Graphics/SVG/1.1/DTD/svg11.dtd">
<!-- Generated by graphviz version 2.38.0 (20140413.2041)
 -->
<!-- Title: ShapeFun::BasisNedelec&lt; dim &gt; Pages: 1 -->
<svg width="556pt" height="122pt"
 viewBox="0.00 0.00 556.00 122.00" xmlns="http://www.w3.org/2000/svg" xmlns:xlink="http://www.w3.org/1999/xlink">
<g id="graph0" class="graph" transform="scale(1 1) rotate(0) translate(4 118)">
<title>ShapeFun::BasisNedelec&lt; dim &gt;</title>
<polygon fill="white" stroke="none" points="-4,4 -4,-118 552,-118 552,4 -4,4"/>
<!-- Node1 -->
<g id="node1" class="node"><title>Node1</title>
<polygon fill="#bfbfbf" stroke="black" points="194,-0.5 194,-38.5 363,-38.5 363,-0.5 194,-0.5"/>
<text text-anchor="start" x="202" y="-23.3" font-family="Helvetica,sans-Serif" font-size="14.00">ShapeFun::BasisNedelec</text>
<text text-anchor="middle" x="278.5" y="-8.3" font-family="Helvetica,sans-Serif" font-size="14.00">&lt; dim &gt;</text>
</g>
<!-- Node2 -->
<g id="node2" class="node"><title>Node2</title>
<polygon fill="white" stroke="#bfbfbf" points="0,-90.5 0,-113.5 115,-113.5 115,-90.5 0,-90.5"/>
<text text-anchor="middle" x="57.5" y="-98.3" font-family="Helvetica,sans-Serif" font-size="14.00">Function&lt; dim &gt;</text>
</g>
<!-- Node2&#45;&gt;Node1 -->
<g id="edge1" class="edge"><title>Node2&#45;&gt;Node1</title>
<path fill="none" stroke="midnightblue" d="M95.7958,-87.0506C132.672,-73.6184 188.631,-53.2352 228.899,-38.5673"/>
<polygon fill="midnightblue" stroke="midnightblue" points="94.5901,-83.7648 86.3919,-90.476 96.9859,-90.342 94.5901,-83.7648"/>
</g>
<!-- Node3 -->
<g id="node3" class="node"><title>Node3</title>
<polygon fill="white" stroke="#bfbfbf" points="133,-90.5 133,-113.5 286,-113.5 286,-90.5 133,-90.5"/>
<text text-anchor="middle" x="209.5" y="-98.3" font-family="Helvetica,sans-Serif" font-size="14.00">MyMappingQ1&lt; dim &gt;</text>
</g>
<!-- Node3&#45;&gt;Node1 -->
<g id="edge2" class="edge"><title>Node3&#45;&gt;Node1</title>
<path fill="none" stroke="#9a32cd" stroke-dasharray="5,2" d="M225.296,-82.5711C236.566,-69.4234 251.651,-51.8235 262.881,-38.7227"/>
<polygon fill="#9a32cd" stroke="#9a32cd" points="222.371,-80.6057 218.521,-90.476 227.686,-85.1612 222.371,-80.6057"/>
<text text-anchor="middle" x="275" y="-60.8" font-family="Helvetica,sans-Serif" font-size="14.00"> mapping</text>
</g>
<!-- Node4 -->
<g id="node4" class="node"><title>Node4</title>
<polygon fill="white" stroke="#bfbfbf" points="304,-90.5 304,-113.5 393,-113.5 393,-90.5 304,-90.5"/>
<text text-anchor="middle" x="348.5" y="-98.3" font-family="Helvetica,sans-Serif" font-size="14.00">unsigned int</text>
</g>
<!-- Node4&#45;&gt;Node1 -->
<g id="edge3" class="edge"><title>Node4&#45;&gt;Node1</title>
<path fill="none" stroke="#9a32cd" stroke-dasharray="5,2" d="M332.475,-82.5711C321.042,-69.4234 305.738,-51.8235 294.346,-38.7227"/>
<polygon fill="#9a32cd" stroke="#9a32cd" points="330.146,-85.2266 339.349,-90.476 335.428,-80.6333 330.146,-85.2266"/>
<text text-anchor="middle" x="359.5" y="-60.8" font-family="Helvetica,sans-Serif" font-size="14.00"> index_basis</text>
</g>
<!-- Node5 -->
<g id="node5" class="node"><title>Node5</title>
<polygon fill="white" stroke="#bfbfbf" points="411,-90.5 411,-113.5 548,-113.5 548,-90.5 411,-90.5"/>
<text text-anchor="middle" x="479.5" y="-98.3" font-family="Helvetica,sans-Serif" font-size="14.00">FE_Nedelec&lt; dim &gt;</text>
</g>
<!-- Node5&#45;&gt;Node1 -->
<g id="edge4" class="edge"><title>Node5&#45;&gt;Node1</title>
<path fill="none" stroke="#9a32cd" stroke-dasharray="5,2" d="M454.656,-85.0782C439.684,-75.9732 419.992,-64.8409 401.5,-57 384.992,-50.0002 366.703,-43.7935 349.387,-38.5732"/>
<polygon fill="#9a32cd" stroke="#9a32cd" points="452.97,-88.1508 463.315,-90.4378 456.654,-82.1987 452.97,-88.1508"/>
<text text-anchor="middle" x="437.5" y="-60.8" font-family="Helvetica,sans-Serif" font-size="14.00"> fe</text>
</g>
</g>
</svg>
