<?xml version="1.0" encoding="UTF-8" standalone="no"?>
<!DOCTYPE svg PUBLIC "-//W3C//DTD SVG 1.1//EN"
 "http://www.w3.org/Graphics/SVG/1.1/DTD/svg11.dtd">
<!-- Generated by graphviz version 2.38.0 (20140413.2041)
 -->
<!-- Title: LinearSolvers::ApproximateSchurComplementMPI&lt; BlockMatrixType, VectorType, PreconditionerType &gt; Pages: 1 -->
<svg width="268pt" height="122pt"
 viewBox="0.00 0.00 268.00 122.00" xmlns="http://www.w3.org/2000/svg" xmlns:xlink="http://www.w3.org/1999/xlink">
<g id="graph0" class="graph" transform="scale(1 1) rotate(0) translate(4 118)">
<title>LinearSolvers::ApproximateSchurComplementMPI&lt; BlockMatrixType, VectorType, PreconditionerType &gt;</title>
<polygon fill="white" stroke="none" points="-4,4 -4,-118 264,-118 264,4 -4,4"/>
<!-- Node1 -->
<g id="node1" class="node"><title>Node1</title>
<polygon fill="#bfbfbf" stroke="black" points="0,-0.5 0,-53.5 260,-53.5 260,-0.5 0,-0.5"/>
<text text-anchor="start" x="8" y="-38.3" font-family="Helvetica,sans-Serif" font-size="14.00">LinearSolvers::Approximate</text>
<text text-anchor="start" x="8" y="-23.3" font-family="Helvetica,sans-Serif" font-size="14.00">SchurComplementMPI&lt; BlockMatrix</text>
<text text-anchor="middle" x="130" y="-8.3" font-family="Helvetica,sans-Serif" font-size="14.00">Type, VectorType, PreconditionerType &gt;</text>
</g>
<!-- Node2 -->
<g id="node2" class="node"><title>Node2</title>
<g id="a_node2"><a xlink:href="classSubscriptor.html" target="_top" xlink:title="Subscriptor">
<polygon fill="white" stroke="black" points="87.5,-90.5 87.5,-113.5 172.5,-113.5 172.5,-90.5 87.5,-90.5"/>
<text text-anchor="middle" x="130" y="-98.3" font-family="Helvetica,sans-Serif" font-size="14.00">Subscriptor</text>
</a>
</g>
</g>
<!-- Node2&#45;&gt;Node1 -->
<g id="edge1" class="edge"><title>Node2&#45;&gt;Node1</title>
<path fill="none" stroke="midnightblue" d="M130,-80.0206C130,-71.7975 130,-62.2829 130,-53.6569"/>
<polygon fill="midnightblue" stroke="midnightblue" points="126.5,-80.2286 130,-90.2286 133.5,-80.2286 126.5,-80.2286"/>
</g>
</g>
</svg>
