<?xml version="1.0" encoding="UTF-8" standalone="no"?>
<!DOCTYPE svg PUBLIC "-//W3C//DTD SVG 1.1//EN"
 "http://www.w3.org/Graphics/SVG/1.1/DTD/svg11.dtd">
<!-- Generated by graphviz version 2.38.0 (20140413.2041)
 -->
<!-- Title: TensorFunction Pages: 1 -->
<svg width="357pt" height="332pt"
 viewBox="0.00 0.00 357.00 332.00" xmlns="http://www.w3.org/2000/svg" xmlns:xlink="http://www.w3.org/1999/xlink">
<g id="graph0" class="graph" transform="scale(1 1) rotate(0) translate(4 328)">
<title>TensorFunction</title>
<polygon fill="white" stroke="none" points="-4,4 -4,-328 353,-328 353,4 -4,4"/>
<!-- Node1 -->
<g id="node1" class="node"><title>Node1</title>
<polygon fill="#bfbfbf" stroke="black" points="0,-150 0,-173 110,-173 110,-150 0,-150"/>
<text text-anchor="middle" x="55" y="-157.8" font-family="Helvetica,sans-Serif" font-size="14.00">TensorFunction</text>
</g>
<!-- Node2 -->
<g id="node2" class="node"><title>Node2</title>
<g id="a_node2"><a xlink:href="classEquationData_1_1Boundary__A__curl__u.html" target="_top" xlink:title="Boundary values for &#160;which are essential for 2&#45;forms and natural for 1&#45;forms. ">
<polygon fill="white" stroke="black" points="165.5,-285.5 165.5,-323.5 329.5,-323.5 329.5,-285.5 165.5,-285.5"/>
<text text-anchor="start" x="173.5" y="-308.3" font-family="Helvetica,sans-Serif" font-size="14.00">EquationData::Boundary</text>
<text text-anchor="middle" x="247.5" y="-293.3" font-family="Helvetica,sans-Serif" font-size="14.00">_A_curl_u&lt; 1, 3 &gt;</text>
</a>
</g>
</g>
<!-- Node1&#45;&gt;Node2 -->
<g id="edge1" class="edge"><title>Node1&#45;&gt;Node2</title>
<path fill="none" stroke="midnightblue" d="M66.7709,-182.281C81.2837,-208.222 109.555,-252.139 146,-276.5 152.023,-280.526 158.618,-283.978 165.458,-286.936"/>
<polygon fill="midnightblue" stroke="midnightblue" points="69.7409,-180.416 61.894,-173.297 63.5888,-183.755 69.7409,-180.416"/>
</g>
<!-- Node3 -->
<g id="node3" class="node"><title>Node3</title>
<g id="a_node3"><a xlink:href="classEquationData_1_1Boundary__A__grad__u.html" target="_top" xlink:title="Boundary values for &#160;which are essential for 3&#45;forms and natural for 0&#45;forms. ">
<polygon fill="white" stroke="black" points="165.5,-228.5 165.5,-266.5 329.5,-266.5 329.5,-228.5 165.5,-228.5"/>
<text text-anchor="start" x="173.5" y="-251.3" font-family="Helvetica,sans-Serif" font-size="14.00">EquationData::Boundary</text>
<text text-anchor="middle" x="247.5" y="-236.3" font-family="Helvetica,sans-Serif" font-size="14.00">_A_grad_u&lt; 1, 3 &gt;</text>
</a>
</g>
</g>
<!-- Node1&#45;&gt;Node3 -->
<g id="edge2" class="edge"><title>Node1&#45;&gt;Node3</title>
<path fill="none" stroke="midnightblue" d="M79.2436,-179.272C96.789,-191.974 121.885,-208.67 146,-219.5 153.27,-222.765 161.01,-225.735 168.843,-228.414"/>
<polygon fill="midnightblue" stroke="midnightblue" points="80.9272,-176.164 70.8019,-173.045 76.772,-181.798 80.9272,-176.164"/>
</g>
<!-- Node4 -->
<g id="node4" class="node"><title>Node4</title>
<g id="a_node4"><a xlink:href="classEquationData_1_1Diffusion__A.html" target="_top" xlink:title="Class containing a positive tensor. ">
<polygon fill="white" stroke="black" points="168.5,-171.5 168.5,-209.5 326.5,-209.5 326.5,-171.5 168.5,-171.5"/>
<text text-anchor="start" x="176.5" y="-194.3" font-family="Helvetica,sans-Serif" font-size="14.00">EquationData::Diffusion</text>
<text text-anchor="middle" x="247.5" y="-179.3" font-family="Helvetica,sans-Serif" font-size="14.00">_A&lt; 2, 3 &gt;</text>
</a>
</g>
</g>
<!-- Node1&#45;&gt;Node4 -->
<g id="edge3" class="edge"><title>Node1&#45;&gt;Node4</title>
<path fill="none" stroke="midnightblue" d="M120.083,-171.255C135.608,-173.619 152.374,-176.171 168.462,-178.62"/>
<polygon fill="midnightblue" stroke="midnightblue" points="120.493,-167.778 110.08,-169.733 119.439,-174.698 120.493,-167.778"/>
</g>
<!-- Node5 -->
<g id="node5" class="node"><title>Node5</title>
<g id="a_node5"><a xlink:href="classEquationData_1_1DiffusionInverse__A.html" target="_top" xlink:title="Class containing the inverse of a positive tensor. ">
<polygon fill="white" stroke="black" points="146,-114.5 146,-152.5 349,-152.5 349,-114.5 146,-114.5"/>
<text text-anchor="start" x="154" y="-137.3" font-family="Helvetica,sans-Serif" font-size="14.00">EquationData::DiffusionInverse</text>
<text text-anchor="middle" x="247.5" y="-122.3" font-family="Helvetica,sans-Serif" font-size="14.00">_A&lt; 2, 3 &gt;</text>
</a>
</g>
</g>
<!-- Node1&#45;&gt;Node5 -->
<g id="edge4" class="edge"><title>Node1&#45;&gt;Node5</title>
<path fill="none" stroke="midnightblue" d="M120.027,-152.089C128.343,-150.867 137.015,-149.592 145.75,-148.308"/>
<polygon fill="midnightblue" stroke="midnightblue" points="119.465,-148.634 110.08,-153.551 120.483,-155.56 119.465,-148.634"/>
</g>
<!-- Node6 -->
<g id="node6" class="node"><title>Node6</title>
<g id="a_node6"><a xlink:href="classEquationData_1_1ExactSolutionLin.html" target="_top" xlink:title="Class for analytic solution . ">
<polygon fill="white" stroke="black" points="153.5,-57.5 153.5,-95.5 341.5,-95.5 341.5,-57.5 153.5,-57.5"/>
<text text-anchor="start" x="161.5" y="-80.3" font-family="Helvetica,sans-Serif" font-size="14.00">EquationData::ExactSolution</text>
<text text-anchor="middle" x="247.5" y="-65.3" font-family="Helvetica,sans-Serif" font-size="14.00">Lin&lt; 1, 3 &gt;</text>
</a>
</g>
</g>
<!-- Node1&#45;&gt;Node6 -->
<g id="edge5" class="edge"><title>Node1&#45;&gt;Node6</title>
<path fill="none" stroke="midnightblue" d="M80.0012,-144.011C97.5732,-131.857 122.377,-116.014 146,-105.5 154.212,-101.845 163.006,-98.5188 171.85,-95.5315"/>
<polygon fill="midnightblue" stroke="midnightblue" points="77.6791,-141.365 71.5159,-149.983 81.708,-147.09 77.6791,-141.365"/>
</g>
<!-- Node7 -->
<g id="node7" class="node"><title>Node7</title>
<g id="a_node7"><a xlink:href="classEquationData_1_1ExactSolutionLin__A__curl.html" target="_top" xlink:title="Auxiliary variable &#160;for 2&#45;forms. ">
<polygon fill="white" stroke="black" points="153.5,-0.5 153.5,-38.5 341.5,-38.5 341.5,-0.5 153.5,-0.5"/>
<text text-anchor="start" x="161.5" y="-23.3" font-family="Helvetica,sans-Serif" font-size="14.00">EquationData::ExactSolution</text>
<text text-anchor="middle" x="247.5" y="-8.3" font-family="Helvetica,sans-Serif" font-size="14.00">Lin_A_curl&lt; 1, 3 &gt;</text>
</a>
</g>
</g>
<!-- Node1&#45;&gt;Node7 -->
<g id="edge6" class="edge"><title>Node1&#45;&gt;Node7</title>
<path fill="none" stroke="midnightblue" d="M66.8972,-141.135C81.5433,-115.703 109.955,-72.6117 146,-48.5 151.66,-44.7136 157.819,-41.4143 164.208,-38.5405"/>
<polygon fill="midnightblue" stroke="midnightblue" points="63.7986,-139.506 61.9708,-149.942 69.9076,-142.923 63.7986,-139.506"/>
</g>
</g>
</svg>
