<?xml version="1.0" encoding="UTF-8" standalone="no"?>
<!DOCTYPE svg PUBLIC "-//W3C//DTD SVG 1.1//EN"
 "http://www.w3.org/Graphics/SVG/1.1/DTD/svg11.dtd">
<!-- Generated by graphviz version 2.38.0 (20140413.2041)
 -->
<!-- Title: EquationData::RightHandSideParsed Pages: 1 -->
<svg width="217pt" height="167pt"
 viewBox="0.00 0.00 217.00 167.00" xmlns="http://www.w3.org/2000/svg" xmlns:xlink="http://www.w3.org/1999/xlink">
<g id="graph0" class="graph" transform="scale(1 1) rotate(0) translate(4 163)">
<title>EquationData::RightHandSideParsed</title>
<polygon fill="white" stroke="none" points="-4,4 -4,-163 213,-163 213,4 -4,4"/>
<!-- Node1 -->
<g id="node1" class="node"><title>Node1</title>
<polygon fill="#bfbfbf" stroke="black" points="6,-0.5 6,-38.5 203,-38.5 203,-0.5 6,-0.5"/>
<text text-anchor="start" x="14" y="-23.3" font-family="Helvetica,sans-Serif" font-size="14.00">EquationData::RightHandSide</text>
<text text-anchor="middle" x="104.5" y="-8.3" font-family="Helvetica,sans-Serif" font-size="14.00">Parsed</text>
</g>
<!-- Node2 -->
<g id="node2" class="node"><title>Node2</title>
<g id="a_node2"><a xlink:href="classEquationData_1_1RightHandSide.html" target="_top" xlink:title="Base class for right&#45;hand side. ">
<polygon fill="white" stroke="black" points="6,-75.5 6,-98.5 203,-98.5 203,-75.5 6,-75.5"/>
<text text-anchor="middle" x="104.5" y="-83.3" font-family="Helvetica,sans-Serif" font-size="14.00">EquationData::RightHandSide</text>
</a>
</g>
</g>
<!-- Node2&#45;&gt;Node1 -->
<g id="edge1" class="edge"><title>Node2&#45;&gt;Node1</title>
<path fill="none" stroke="midnightblue" d="M104.5,-65.2237C104.5,-56.6948 104.5,-46.9094 104.5,-38.6706"/>
<polygon fill="midnightblue" stroke="midnightblue" points="101,-65.4763 104.5,-75.4763 108,-65.4763 101,-65.4763"/>
</g>
<!-- Node3 -->
<g id="node3" class="node"><title>Node3</title>
<polygon fill="white" stroke="#bfbfbf" points="0,-135.5 0,-158.5 209,-158.5 209,-135.5 0,-135.5"/>
<text text-anchor="middle" x="104.5" y="-143.3" font-family="Helvetica,sans-Serif" font-size="14.00">Functions::ParsedFunction&lt; 3 &gt;</text>
</g>
<!-- Node3&#45;&gt;Node2 -->
<g id="edge2" class="edge"><title>Node3&#45;&gt;Node2</title>
<path fill="none" stroke="midnightblue" d="M104.5,-125.191C104.5,-116.168 104.5,-105.994 104.5,-98.5707"/>
<polygon fill="midnightblue" stroke="midnightblue" points="101,-125.362 104.5,-135.362 108,-125.362 101,-125.362"/>
</g>
</g>
</svg>
