<?xml version="1.0" encoding="UTF-8" standalone="no"?>
<!DOCTYPE svg PUBLIC "-//W3C//DTD SVG 1.1//EN"
 "http://www.w3.org/Graphics/SVG/1.1/DTD/svg11.dtd">
<!-- Generated by graphviz version 2.38.0 (20140413.2041)
 -->
<!-- Title: EquationData::DiffusionInverse_B Pages: 1 -->
<svg width="662pt" height="251pt"
 viewBox="0.00 0.00 662.00 251.00" xmlns="http://www.w3.org/2000/svg" xmlns:xlink="http://www.w3.org/1999/xlink">
<g id="graph0" class="graph" transform="scale(1 1) rotate(0) translate(4 247)">
<title>EquationData::DiffusionInverse_B</title>
<polygon fill="white" stroke="none" points="-4,4 -4,-247 658,-247 658,4 -4,4"/>
<!-- Node1 -->
<g id="node1" class="node"><title>Node1</title>
<polygon fill="#bfbfbf" stroke="black" points="435,-99.5 435,-122.5 654,-122.5 654,-99.5 435,-99.5"/>
<text text-anchor="middle" x="544.5" y="-107.3" font-family="Helvetica,sans-Serif" font-size="14.00">EquationData::DiffusionInverse_B</text>
</g>
<!-- Node2 -->
<g id="node2" class="node"><title>Node2</title>
<g id="a_node2"><a xlink:href="classFunctionParser.html" target="_top" xlink:title="FunctionParser\&lt; 3 \&gt;">
<polygon fill="white" stroke="black" points="180,-202.5 180,-225.5 320,-225.5 320,-202.5 180,-202.5"/>
<text text-anchor="middle" x="250" y="-210.3" font-family="Helvetica,sans-Serif" font-size="14.00">FunctionParser&lt; 3 &gt;</text>
</a>
</g>
</g>
<!-- Node2&#45;&gt;Node1 -->
<g id="edge1" class="edge"><title>Node2&#45;&gt;Node1</title>
<path fill="none" stroke="midnightblue" d="M313.009,-199.949C321.128,-197.791 329.297,-195.457 337,-193 403.517,-171.784 479.203,-139.578 517.841,-122.528"/>
<polygon fill="midnightblue" stroke="midnightblue" points="311.974,-196.601 303.167,-202.49 313.724,-203.379 311.974,-196.601"/>
</g>
<!-- Node3 -->
<g id="node3" class="node"><title>Node3</title>
<g id="a_node3"><a xlink:href="classEquationData_1_1Diffusion__B__Data.html" target="_top" xlink:title="Class containing data to construct a positive scalar. ">
<polygon fill="white" stroke="black" points="171,-145 171,-183 329,-183 329,-145 171,-145"/>
<text text-anchor="start" x="179" y="-167.8" font-family="Helvetica,sans-Serif" font-size="14.00">EquationData::Diffusion</text>
<text text-anchor="middle" x="250" y="-152.8" font-family="Helvetica,sans-Serif" font-size="14.00">_B_Data</text>
</a>
</g>
</g>
<!-- Node3&#45;&gt;Node1 -->
<g id="edge2" class="edge"><title>Node3&#45;&gt;Node1</title>
<path fill="none" stroke="midnightblue" d="M338.846,-148.083C384.275,-139.851 438.699,-129.99 480,-122.506"/>
<polygon fill="midnightblue" stroke="midnightblue" points="338.216,-144.64 329,-149.867 339.464,-151.528 338.216,-144.64"/>
</g>
<!-- Node4 -->
<g id="node4" class="node"><title>Node4</title>
<polygon fill="white" stroke="#bfbfbf" points="0,-212.5 0,-235.5 57,-235.5 57,-212.5 0,-212.5"/>
<text text-anchor="middle" x="28.5" y="-220.3" font-family="Helvetica,sans-Serif" font-size="14.00">double</text>
</g>
<!-- Node4&#45;&gt;Node3 -->
<g id="edge3" class="edge"><title>Node4&#45;&gt;Node3</title>
<path fill="none" stroke="#9a32cd" stroke-dasharray="5,2" d="M67.0972,-215.986C89.7719,-210.96 119.173,-204.105 145,-197 160.251,-192.805 176.617,-187.835 191.749,-183.043"/>
<polygon fill="#9a32cd" stroke="#9a32cd" points="66.2066,-212.598 57.1894,-218.16 67.7073,-219.435 66.2066,-212.598"/>
<text text-anchor="middle" x="110" y="-231.8" font-family="Helvetica,sans-Serif" font-size="14.00"> scale</text>
<text text-anchor="middle" x="110" y="-216.8" font-family="Helvetica,sans-Serif" font-size="14.00">alpha</text>
</g>
<!-- Node5 -->
<g id="node5" class="node"><title>Node5</title>
<polygon fill="white" stroke="#bfbfbf" points="13,-170.5 13,-193.5 44,-193.5 44,-170.5 13,-170.5"/>
<text text-anchor="middle" x="28.5" y="-178.3" font-family="Helvetica,sans-Serif" font-size="14.00">int</text>
</g>
<!-- Node5&#45;&gt;Node3 -->
<g id="edge4" class="edge"><title>Node5&#45;&gt;Node3</title>
<path fill="none" stroke="#9a32cd" stroke-dasharray="5,2" d="M54.3971,-179.958C82.5868,-177.647 129.92,-173.765 170.846,-170.409"/>
<polygon fill="#9a32cd" stroke="#9a32cd" points="53.9233,-176.485 44.2428,-180.791 54.4955,-183.462 53.9233,-176.485"/>
<text text-anchor="middle" x="110" y="-181.8" font-family="Helvetica,sans-Serif" font-size="14.00"> k</text>
</g>
<!-- Node6 -->
<g id="node6" class="node"><title>Node6</title>
<polygon fill="white" stroke="#bfbfbf" points="3.5,-99.5 3.5,-122.5 53.5,-122.5 53.5,-99.5 3.5,-99.5"/>
<text text-anchor="middle" x="28.5" y="-107.3" font-family="Helvetica,sans-Serif" font-size="14.00">string</text>
</g>
<!-- Node6&#45;&gt;Node1 -->
<g id="edge6" class="edge"><title>Node6&#45;&gt;Node1</title>
<path fill="none" stroke="#9a32cd" stroke-dasharray="5,2" d="M63.8229,-111C138.394,-111 317.887,-111 434.915,-111"/>
<polygon fill="#9a32cd" stroke="#9a32cd" points="63.6019,-107.5 53.6019,-111 63.6018,-114.5 63.6019,-107.5"/>
<text text-anchor="middle" x="250" y="-114.8" font-family="Helvetica,sans-Serif" font-size="14.00"> inverse_fnc_expression</text>
</g>
<!-- Node6&#45;&gt;Node1 -->
<g id="edge7" class="edge"><title>Node6&#45;&gt;Node1</title>
<path fill="none" stroke="#9a32cd" stroke-dasharray="5,2" d="M63.564,-104.796C90.4563,-100.228 128.984,-94.4085 163,-92 258.336,-85.2498 367.276,-92.1735 444.089,-99.4852"/>
<polygon fill="#9a32cd" stroke="#9a32cd" points="62.7633,-101.383 53.5076,-106.539 63.9583,-108.28 62.7633,-101.383"/>
<text text-anchor="middle" x="250" y="-95.8" font-family="Helvetica,sans-Serif" font-size="14.00"> variables</text>
</g>
<!-- Node6&#45;&gt;Node3 -->
<g id="edge5" class="edge"><title>Node6&#45;&gt;Node3</title>
<path fill="none" stroke="#9a32cd" stroke-dasharray="5,2" d="M63.5998,-119.245C67.4453,-120.175 71.3069,-121.108 75,-122 106.264,-129.552 140.69,-137.863 170.61,-145.085"/>
<polygon fill="#9a32cd" stroke="#9a32cd" points="64.1278,-115.772 53.5854,-116.825 62.4831,-122.576 64.1278,-115.772"/>
<text text-anchor="middle" x="110" y="-142.8" font-family="Helvetica,sans-Serif" font-size="14.00"> expression</text>
</g>
<!-- Node7 -->
<g id="node7" class="node"><title>Node7</title>
<polygon fill="white" stroke="#bfbfbf" points="163,-0.5 163,-23.5 337,-23.5 337,-0.5 163,-0.5"/>
<text text-anchor="middle" x="250" y="-8.3" font-family="Helvetica,sans-Serif" font-size="14.00">map&lt; std::string, double &gt;</text>
</g>
<!-- Node7&#45;&gt;Node1 -->
<g id="edge8" class="edge"><title>Node7&#45;&gt;Node1</title>
<path fill="none" stroke="#9a32cd" stroke-dasharray="5,2" d="M347.343,-15.6375C370.61,-18.5188 395.076,-23.2708 417,-31 462.092,-46.8969 507.715,-81.2701 529.81,-99.3476"/>
<polygon fill="#9a32cd" stroke="#9a32cd" points="347.435,-12.1256 337.105,-14.4777 346.647,-19.0811 347.435,-12.1256"/>
<text text-anchor="middle" x="386" y="-34.8" font-family="Helvetica,sans-Serif" font-size="14.00"> constants</text>
</g>
</g>
</svg>
