<?xml version="1.0" encoding="UTF-8" standalone="no"?>
<!DOCTYPE svg PUBLIC "-//W3C//DTD SVG 1.1//EN"
 "http://www.w3.org/Graphics/SVG/1.1/DTD/svg11.dtd">
<!-- Generated by graphviz version 2.38.0 (20140413.2041)
 -->
<!-- Title: RTDQ::RTDQMultiscale Pages: 1 -->
<svg width="798pt" height="780pt"
 viewBox="0.00 0.00 798.00 780.00" xmlns="http://www.w3.org/2000/svg" xmlns:xlink="http://www.w3.org/1999/xlink">
<g id="graph0" class="graph" transform="scale(1 1) rotate(0) translate(4 776)">
<title>RTDQ::RTDQMultiscale</title>
<polygon fill="white" stroke="none" points="-4,4 -4,-776 794,-776 794,4 -4,4"/>
<!-- Node1 -->
<g id="node1" class="node"><title>Node1</title>
<polygon fill="#bfbfbf" stroke="black" points="627,-364.5 627,-387.5 790,-387.5 790,-364.5 627,-364.5"/>
<text text-anchor="middle" x="708.5" y="-372.3" font-family="Helvetica,sans-Serif" font-size="14.00">RTDQ::RTDQMultiscale</text>
</g>
<!-- Node2 -->
<g id="node2" class="node"><title>Node2</title>
<polygon fill="white" stroke="#bfbfbf" points="248.5,-724.5 248.5,-747.5 369.5,-747.5 369.5,-724.5 248.5,-724.5"/>
<text text-anchor="middle" x="309" y="-732.3" font-family="Helvetica,sans-Serif" font-size="14.00">DoFHandler&lt; 3 &gt;</text>
</g>
<!-- Node2&#45;&gt;Node1 -->
<g id="edge1" class="edge"><title>Node2&#45;&gt;Node1</title>
<path fill="none" stroke="#9a32cd" stroke-dasharray="5,2" d="M367.314,-749.436C433.179,-761.269 540.924,-769.089 609,-714 662.453,-670.745 698.034,-442.427 705.868,-387.766"/>
<polygon fill="#9a32cd" stroke="#9a32cd" points="367.59,-745.926 357.115,-747.511 366.292,-752.805 367.59,-745.926"/>
<text text-anchor="middle" x="525" y="-760.8" font-family="Helvetica,sans-Serif" font-size="14.00"> dof_handler</text>
</g>
<!-- Node3 -->
<g id="node3" class="node"><title>Node3</title>
<polygon fill="white" stroke="#bfbfbf" points="239,-682.5 239,-705.5 379,-705.5 379,-682.5 239,-682.5"/>
<text text-anchor="middle" x="309" y="-690.3" font-family="Helvetica,sans-Serif" font-size="14.00">ConditionalOStream</text>
</g>
<!-- Node3&#45;&gt;Node1 -->
<g id="edge2" class="edge"><title>Node3&#45;&gt;Node1</title>
<path fill="none" stroke="#9a32cd" stroke-dasharray="5,2" d="M389.278,-697.793C466.172,-699.805 575.933,-697.743 609,-672 703.019,-598.806 708.187,-432.811 707.782,-387.572"/>
<polygon fill="#9a32cd" stroke="#9a32cd" points="389.227,-694.29 379.129,-697.499 389.024,-701.287 389.227,-694.29"/>
<text text-anchor="middle" x="525" y="-701.8" font-family="Helvetica,sans-Serif" font-size="14.00"> pcout</text>
</g>
<!-- Node4 -->
<g id="node4" class="node"><title>Node4</title>
<polygon fill="white" stroke="#bfbfbf" points="195,-610.5 195,-663.5 423,-663.5 423,-610.5 195,-610.5"/>
<text text-anchor="start" x="203" y="-648.3" font-family="Helvetica,sans-Serif" font-size="14.00">shared_ptr&lt; typename</text>
<text text-anchor="start" x="203" y="-633.3" font-family="Helvetica,sans-Serif" font-size="14.00"> LinearSolvers::InnerPreconditioner</text>
<text text-anchor="middle" x="309" y="-618.3" font-family="Helvetica,sans-Serif" font-size="14.00">&lt; 3 &gt;::type &gt;</text>
</g>
<!-- Node4&#45;&gt;Node1 -->
<g id="edge3" class="edge"><title>Node4&#45;&gt;Node1</title>
<path fill="none" stroke="#9a32cd" stroke-dasharray="5,2" d="M433.372,-656.103C491.65,-658.528 559.182,-651.069 609,-615 687.519,-558.151 703.661,-427.087 706.788,-387.518"/>
<polygon fill="#9a32cd" stroke="#9a32cd" points="433.522,-652.607 423.355,-655.587 433.162,-659.597 433.522,-652.607"/>
<text text-anchor="middle" x="525" y="-660.8" font-family="Helvetica,sans-Serif" font-size="14.00"> inner_schur_preconditioner</text>
</g>
<!-- Node5 -->
<g id="node5" class="node"><title>Node5</title>
<polygon fill="white" stroke="#bfbfbf" points="264.5,-567.5 264.5,-590.5 353.5,-590.5 353.5,-567.5 264.5,-567.5"/>
<text text-anchor="middle" x="309" y="-575.3" font-family="Helvetica,sans-Serif" font-size="14.00">BlockVector</text>
</g>
<!-- Node5&#45;&gt;Node1 -->
<g id="edge4" class="edge"><title>Node5&#45;&gt;Node1</title>
<path fill="none" stroke="#9a32cd" stroke-dasharray="5,2" d="M363.445,-568.645C387.158,-564.196 415.429,-559.091 441,-555 515.417,-543.095 545.626,-572.784 609,-532 664.216,-496.466 694.163,-417.807 703.904,-387.876"/>
<polygon fill="#9a32cd" stroke="#9a32cd" points="362.759,-565.212 353.582,-570.506 364.058,-572.091 362.759,-565.212"/>
<text text-anchor="middle" x="525" y="-603.8" font-family="Helvetica,sans-Serif" font-size="14.00"> locally_relevant_solution</text>
<text text-anchor="start" x="449.5" y="-588.8" font-family="Helvetica,sans-Serif" font-size="14.00">locally_relevant_exact</text>
<text text-anchor="middle" x="525" y="-573.8" font-family="Helvetica,sans-Serif" font-size="14.00">_solution</text>
<text text-anchor="middle" x="525" y="-558.8" font-family="Helvetica,sans-Serif" font-size="14.00">system_rhs</text>
</g>
<!-- Node6 -->
<g id="node6" class="node"><title>Node6</title>
<polygon fill="white" stroke="#bfbfbf" points="245,-510 245,-548 373,-548 373,-510 245,-510"/>
<text text-anchor="start" x="253" y="-532.8" font-family="Helvetica,sans-Serif" font-size="14.00">AffineConstraints&lt;</text>
<text text-anchor="middle" x="309" y="-517.8" font-family="Helvetica,sans-Serif" font-size="14.00"> double &gt;</text>
</g>
<!-- Node6&#45;&gt;Node1 -->
<g id="edge5" class="edge"><title>Node6&#45;&gt;Node1</title>
<path fill="none" stroke="#9a32cd" stroke-dasharray="5,2" d="M383.317,-521.274C468.621,-512.085 599.145,-497.32 609,-492 654.801,-467.278 688.441,-411.912 701.514,-387.705"/>
<polygon fill="#9a32cd" stroke="#9a32cd" points="382.718,-517.818 373.149,-522.366 383.466,-524.778 382.718,-517.818"/>
<text text-anchor="middle" x="525" y="-518.8" font-family="Helvetica,sans-Serif" font-size="14.00"> constraints</text>
</g>
<!-- Node7 -->
<g id="node7" class="node"><title>Node7</title>
<polygon fill="white" stroke="#bfbfbf" points="278,-467.5 278,-490.5 340,-490.5 340,-467.5 278,-467.5"/>
<text text-anchor="middle" x="309" y="-475.3" font-family="Helvetica,sans-Serif" font-size="14.00">string &amp;</text>
</g>
<!-- Node7&#45;&gt;Node1 -->
<g id="edge6" class="edge"><title>Node7&#45;&gt;Node1</title>
<path fill="none" stroke="#9a32cd" stroke-dasharray="5,2" d="M350.424,-477.599C420.823,-474.72 562.831,-466.849 609,-449 644.934,-435.108 679.295,-404.368 696.344,-387.549"/>
<polygon fill="#9a32cd" stroke="#9a32cd" points="350.025,-474.112 340.171,-478.003 350.301,-481.106 350.025,-474.112"/>
<text text-anchor="middle" x="525" y="-476.8" font-family="Helvetica,sans-Serif" font-size="14.00"> parameter_filename</text>
</g>
<!-- Node8 -->
<g id="node8" class="node"><title>Node8</title>
<polygon fill="white" stroke="#bfbfbf" points="262.5,-425.5 262.5,-448.5 355.5,-448.5 355.5,-425.5 262.5,-425.5"/>
<text text-anchor="middle" x="309" y="-433.3" font-family="Helvetica,sans-Serif" font-size="14.00">TimerOutput</text>
</g>
<!-- Node8&#45;&gt;Node1 -->
<g id="edge7" class="edge"><title>Node8&#45;&gt;Node1</title>
<path fill="none" stroke="#9a32cd" stroke-dasharray="5,2" d="M365.637,-435.216C426.093,-432.441 525.261,-425.446 609,-408 632.587,-403.086 658.469,-394.549 677.781,-387.528"/>
<polygon fill="#9a32cd" stroke="#9a32cd" points="365.382,-431.723 355.544,-435.656 365.687,-438.717 365.382,-431.723"/>
<text text-anchor="middle" x="525" y="-433.8" font-family="Helvetica,sans-Serif" font-size="14.00"> computing_timer</text>
</g>
<!-- Node9 -->
<g id="node9" class="node"><title>Node9</title>
<polygon fill="white" stroke="#bfbfbf" points="283.5,-383.5 283.5,-406.5 334.5,-406.5 334.5,-383.5 283.5,-383.5"/>
<text text-anchor="middle" x="309" y="-391.3" font-family="Helvetica,sans-Serif" font-size="14.00">CellId</text>
</g>
<!-- Node9&#45;&gt;Node1 -->
<g id="edge8" class="edge"><title>Node9&#45;&gt;Node1</title>
<path fill="none" stroke="#9a32cd" stroke-dasharray="5,2" d="M344.693,-393.342C407.27,-390.351 540.552,-383.98 626.977,-379.849"/>
<polygon fill="#9a32cd" stroke="#9a32cd" points="344.387,-389.852 334.565,-393.826 344.721,-396.844 344.387,-389.852"/>
<text text-anchor="middle" x="525" y="-392.8" font-family="Helvetica,sans-Serif" font-size="14.00"> first_cell</text>
</g>
<!-- Node10 -->
<g id="node10" class="node"><title>Node10</title>
<polygon fill="white" stroke="#bfbfbf" points="253.5,-341.5 253.5,-364.5 364.5,-364.5 364.5,-341.5 253.5,-341.5"/>
<text text-anchor="middle" x="309" y="-349.3" font-family="Helvetica,sans-Serif" font-size="14.00">FESystem&lt; 3 &gt;</text>
</g>
<!-- Node10&#45;&gt;Node1 -->
<g id="edge9" class="edge"><title>Node10&#45;&gt;Node1</title>
<path fill="none" stroke="#9a32cd" stroke-dasharray="5,2" d="M374.843,-353.343C435.478,-354.096 528.507,-356.358 609,-363 614.845,-363.482 620.875,-364.066 626.937,-364.715"/>
<polygon fill="#9a32cd" stroke="#9a32cd" points="374.692,-349.841 364.653,-353.227 374.613,-356.84 374.692,-349.841"/>
<text text-anchor="middle" x="525" y="-366.8" font-family="Helvetica,sans-Serif" font-size="14.00"> fe</text>
</g>
<!-- Node11 -->
<g id="node11" class="node"><title>Node11</title>
<polygon fill="white" stroke="#bfbfbf" points="244,-299.5 244,-322.5 374,-322.5 374,-299.5 244,-299.5"/>
<text text-anchor="middle" x="309" y="-307.3" font-family="Helvetica,sans-Serif" font-size="14.00">BlockSparseMatrix</text>
</g>
<!-- Node11&#45;&gt;Node1 -->
<g id="edge10" class="edge"><title>Node11&#45;&gt;Node1</title>
<path fill="none" stroke="#9a32cd" stroke-dasharray="5,2" d="M384.49,-311.021C445.587,-312.511 533.927,-318.059 609,-336 635.927,-342.435 665.116,-355.062 684.672,-364.415"/>
<polygon fill="#9a32cd" stroke="#9a32cd" points="384.24,-307.515 374.168,-310.801 384.091,-314.513 384.24,-307.515"/>
<text text-anchor="middle" x="525" y="-339.8" font-family="Helvetica,sans-Serif" font-size="14.00"> system_matrix</text>
</g>
<!-- Node12 -->
<g id="node12" class="node"><title>Node12</title>
<polygon fill="white" stroke="#bfbfbf" points="243.5,-257.5 243.5,-280.5 374.5,-280.5 374.5,-257.5 243.5,-257.5"/>
<text text-anchor="middle" x="309" y="-265.3" font-family="Helvetica,sans-Serif" font-size="14.00">vector&lt; IndexSet &gt;</text>
</g>
<!-- Node12&#45;&gt;Node1 -->
<g id="edge11" class="edge"><title>Node12&#45;&gt;Node1</title>
<path fill="none" stroke="#9a32cd" stroke-dasharray="5,2" d="M384.913,-257.275C447.432,-250.813 537.534,-249.391 609,-280 651.145,-298.051 685.479,-343.025 700.012,-364.384"/>
<polygon fill="#9a32cd" stroke="#9a32cd" points="384.292,-253.822 374.736,-258.396 385.059,-260.78 384.292,-253.822"/>
<text text-anchor="middle" x="525" y="-298.8" font-family="Helvetica,sans-Serif" font-size="14.00"> relevant_partitioning</text>
<text text-anchor="middle" x="525" y="-283.8" font-family="Helvetica,sans-Serif" font-size="14.00">owned_partitioning</text>
</g>
<!-- Node13 -->
<g id="node13" class="node"><title>Node13</title>
<polygon fill="white" stroke="#bfbfbf" points="264,-215.5 264,-238.5 354,-238.5 354,-215.5 264,-215.5"/>
<text text-anchor="middle" x="309" y="-223.3" font-family="Helvetica,sans-Serif" font-size="14.00">MPI_Comm</text>
</g>
<!-- Node13&#45;&gt;Node1 -->
<g id="edge12" class="edge"><title>Node13&#45;&gt;Node1</title>
<path fill="none" stroke="#9a32cd" stroke-dasharray="5,2" d="M364.272,-222.723C438.78,-217.814 568.17,-213.017 609,-235 662.636,-263.877 693.338,-336.268 703.598,-364.485"/>
<polygon fill="#9a32cd" stroke="#9a32cd" points="363.877,-219.242 354.138,-223.414 364.353,-226.226 363.877,-219.242"/>
<text text-anchor="middle" x="525" y="-238.8" font-family="Helvetica,sans-Serif" font-size="14.00"> mpi_communicator</text>
</g>
<!-- Node14 -->
<g id="node14" class="node"><title>Node14</title>
<g id="a_node14"><a xlink:href="structRTDQ_1_1ParametersMs.html" target="_top" xlink:title="RTDQ::ParametersMs">
<polygon fill="white" stroke="black" points="233,-173.5 233,-196.5 385,-196.5 385,-173.5 233,-173.5"/>
<text text-anchor="middle" x="309" y="-181.3" font-family="Helvetica,sans-Serif" font-size="14.00">RTDQ::ParametersMs</text>
</a>
</g>
</g>
<!-- Node14&#45;&gt;Node1 -->
<g id="edge13" class="edge"><title>Node14&#45;&gt;Node1</title>
<path fill="none" stroke="#9a32cd" stroke-dasharray="5,2" d="M371.456,-171.776C435.739,-161.45 537.105,-155.39 609,-200 671.184,-238.584 697.485,-331.475 705.047,-364.283"/>
<polygon fill="#9a32cd" stroke="#9a32cd" points="370.745,-168.346 361.468,-173.463 371.911,-175.249 370.745,-168.346"/>
<text text-anchor="middle" x="525" y="-203.8" font-family="Helvetica,sans-Serif" font-size="14.00"> parameters</text>
</g>
<!-- Node15 -->
<g id="node15" class="node"><title>Node15</title>
<polygon fill="white" stroke="#bfbfbf" points="9.5,-226.5 9.5,-249.5 40.5,-249.5 40.5,-226.5 9.5,-226.5"/>
<text text-anchor="middle" x="25" y="-234.3" font-family="Helvetica,sans-Serif" font-size="14.00">int</text>
</g>
<!-- Node15&#45;&gt;Node14 -->
<g id="edge14" class="edge"><title>Node15&#45;&gt;Node14</title>
<path fill="none" stroke="#9a32cd" stroke-dasharray="5,2" d="M50.6921,-237.131C81.1269,-235.447 134.083,-230.503 177,-216 185.67,-213.07 186.389,-209.099 195,-206 207.016,-201.676 220.087,-198.201 232.934,-195.422"/>
<polygon fill="#9a32cd" stroke="#9a32cd" points="50.3799,-233.642 40.5586,-237.616 50.7144,-240.634 50.3799,-233.642"/>
<text text-anchor="middle" x="122.5" y="-254.8" font-family="Helvetica,sans-Serif" font-size="14.00"> n_refine_global</text>
<text text-anchor="middle" x="122.5" y="-239.8" font-family="Helvetica,sans-Serif" font-size="14.00">n_refine_local</text>
</g>
<!-- Node16 -->
<g id="node16" class="node"><title>Node16</title>
<polygon fill="white" stroke="#bfbfbf" points="0,-173.5 0,-196.5 50,-196.5 50,-173.5 0,-173.5"/>
<text text-anchor="middle" x="25" y="-181.3" font-family="Helvetica,sans-Serif" font-size="14.00">string</text>
</g>
<!-- Node16&#45;&gt;Node14 -->
<g id="edge15" class="edge"><title>Node16&#45;&gt;Node14</title>
<path fill="none" stroke="#9a32cd" stroke-dasharray="5,2" d="M60.1607,-185C102.736,-185 176.721,-185 232.803,-185"/>
<polygon fill="#9a32cd" stroke="#9a32cd" points="60.0432,-181.5 50.0432,-185 60.0431,-188.5 60.0432,-181.5"/>
<text text-anchor="middle" x="122.5" y="-203.8" font-family="Helvetica,sans-Serif" font-size="14.00"> filename_output</text>
<text text-anchor="middle" x="122.5" y="-188.8" font-family="Helvetica,sans-Serif" font-size="14.00">dirname_output</text>
</g>
<!-- Node17 -->
<g id="node17" class="node"><title>Node17</title>
<polygon fill="white" stroke="#bfbfbf" points="4,-0.5 4,-23.5 46,-23.5 46,-0.5 4,-0.5"/>
<text text-anchor="middle" x="25" y="-8.3" font-family="Helvetica,sans-Serif" font-size="14.00">bool</text>
</g>
<!-- Node17&#45;&gt;Node14 -->
<g id="edge16" class="edge"><title>Node17&#45;&gt;Node14</title>
<path fill="none" stroke="#9a32cd" stroke-dasharray="5,2" d="M56.016,-6.12661C90.2182,-1.34152 145.445,0.260967 177,-31 219.376,-72.9813 153.872,-120.796 195,-164 205.043,-174.55 218.547,-180.791 232.722,-184.323"/>
<polygon fill="#9a32cd" stroke="#9a32cd" points="55.4614,-2.67073 46.1261,-7.68096 56.5482,-9.58585 55.4614,-2.67073"/>
<text text-anchor="middle" x="122.5" y="-169.8" font-family="Helvetica,sans-Serif" font-size="14.00"> verbose_basis</text>
<text text-anchor="middle" x="122.5" y="-154.8" font-family="Helvetica,sans-Serif" font-size="14.00">prevent_output</text>
<text text-anchor="middle" x="122.5" y="-139.8" font-family="Helvetica,sans-Serif" font-size="14.00">is_pure_neumann</text>
<text text-anchor="middle" x="122.5" y="-124.8" font-family="Helvetica,sans-Serif" font-size="14.00">renumber_dofs</text>
<text text-anchor="start" x="68" y="-109.8" font-family="Helvetica,sans-Serif" font-size="14.00">use_direct_solver</text>
<text text-anchor="middle" x="122.5" y="-94.8" font-family="Helvetica,sans-Serif" font-size="14.00">_basis</text>
<text text-anchor="middle" x="122.5" y="-79.8" font-family="Helvetica,sans-Serif" font-size="14.00">use_direct_solver</text>
<text text-anchor="middle" x="122.5" y="-64.8" font-family="Helvetica,sans-Serif" font-size="14.00">verbose</text>
<text text-anchor="middle" x="122.5" y="-49.8" font-family="Helvetica,sans-Serif" font-size="14.00">compute_solution</text>
<text text-anchor="middle" x="122.5" y="-34.8" font-family="Helvetica,sans-Serif" font-size="14.00">is_laplace</text>
</g>
<!-- Node18 -->
<g id="node18" class="node"><title>Node18</title>
<polygon fill="white" stroke="#bfbfbf" points="218,-131.5 218,-154.5 400,-154.5 400,-131.5 218,-131.5"/>
<text text-anchor="middle" x="309" y="-139.3" font-family="Helvetica,sans-Serif" font-size="14.00">map&lt; CellId, RTDQBasis &gt;</text>
</g>
<!-- Node18&#45;&gt;Node1 -->
<g id="edge17" class="edge"><title>Node18&#45;&gt;Node1</title>
<path fill="none" stroke="#9a32cd" stroke-dasharray="5,2" d="M410.516,-132.555C484.491,-126.96 577.443,-124.958 609,-146 686.883,-197.933 703.442,-325.415 706.732,-364.451"/>
<polygon fill="#9a32cd" stroke="#9a32cd" points="409.906,-129.092 400.212,-133.366 410.456,-136.071 409.906,-129.092"/>
<text text-anchor="middle" x="525" y="-149.8" font-family="Helvetica,sans-Serif" font-size="14.00"> cell_basis_map</text>
</g>
<!-- Node19 -->
<g id="node19" class="node"><title>Node19</title>
<polygon fill="white" stroke="#bfbfbf" points="274,-89.5 274,-112.5 344,-112.5 344,-89.5 274,-89.5"/>
<text text-anchor="middle" x="309" y="-97.3" font-family="Helvetica,sans-Serif" font-size="14.00">IndexSet</text>
</g>
<!-- Node19&#45;&gt;Node1 -->
<g id="edge18" class="edge"><title>Node19&#45;&gt;Node1</title>
<path fill="none" stroke="#9a32cd" stroke-dasharray="5,2" d="M354.522,-96.4634C427.765,-89.948 569.507,-81.6193 609,-110 696.178,-172.649 706.309,-321.491 707.396,-364.298"/>
<polygon fill="#9a32cd" stroke="#9a32cd" points="353.871,-93.0083 344.233,-97.407 354.511,-99.979 353.871,-93.0083"/>
<text text-anchor="middle" x="525" y="-113.8" font-family="Helvetica,sans-Serif" font-size="14.00"> locally_relevant_dofs</text>
</g>
<!-- Node20 -->
<g id="node20" class="node"><title>Node20</title>
<polygon fill="white" stroke="#bfbfbf" points="246,-47.5 246,-70.5 372,-70.5 372,-47.5 246,-47.5"/>
<text text-anchor="middle" x="309" y="-55.3" font-family="Helvetica,sans-Serif" font-size="14.00">Triangulation&lt; 3 &gt;</text>
</g>
<!-- Node20&#45;&gt;Node1 -->
<g id="edge19" class="edge"><title>Node20&#45;&gt;Node1</title>
<path fill="none" stroke="#9a32cd" stroke-dasharray="5,2" d="M360.825,-45.1646C425.462,-30.8397 537.272,-17.4203 609,-72 706.352,-146.077 709.076,-318.078 707.959,-364.357"/>
<polygon fill="#9a32cd" stroke="#9a32cd" points="359.827,-41.8028 350.87,-47.4611 361.401,-48.6236 359.827,-41.8028"/>
<text text-anchor="middle" x="525" y="-75.8" font-family="Helvetica,sans-Serif" font-size="14.00"> triangulation</text>
</g>
</g>
</svg>
