<?xml version="1.0" encoding="UTF-8" standalone="no"?>
<!DOCTYPE svg PUBLIC "-//W3C//DTD SVG 1.1//EN"
 "http://www.w3.org/Graphics/SVG/1.1/DTD/svg11.dtd">
<!-- Generated by graphviz version 2.38.0 (20140413.2041)
 -->
<!-- Title: ShapeFun::BasisNedelec&lt; dim &gt; Pages: 1 -->
<svg width="177pt" height="107pt"
 viewBox="0.00 0.00 177.00 107.00" xmlns="http://www.w3.org/2000/svg" xmlns:xlink="http://www.w3.org/1999/xlink">
<g id="graph0" class="graph" transform="scale(1 1) rotate(0) translate(4 103)">
<title>ShapeFun::BasisNedelec&lt; dim &gt;</title>
<polygon fill="white" stroke="none" points="-4,4 -4,-103 173,-103 173,4 -4,4"/>
<!-- Node1 -->
<g id="node1" class="node"><title>Node1</title>
<polygon fill="#bfbfbf" stroke="black" points="-1.42109e-14,-0.5 -1.42109e-14,-38.5 169,-38.5 169,-0.5 -1.42109e-14,-0.5"/>
<text text-anchor="start" x="8" y="-23.3" font-family="Helvetica,sans-Serif" font-size="14.00">ShapeFun::BasisNedelec</text>
<text text-anchor="middle" x="84.5" y="-8.3" font-family="Helvetica,sans-Serif" font-size="14.00">&lt; dim &gt;</text>
</g>
<!-- Node2 -->
<g id="node2" class="node"><title>Node2</title>
<polygon fill="white" stroke="#bfbfbf" points="27,-75.5 27,-98.5 142,-98.5 142,-75.5 27,-75.5"/>
<text text-anchor="middle" x="84.5" y="-83.3" font-family="Helvetica,sans-Serif" font-size="14.00">Function&lt; dim &gt;</text>
</g>
<!-- Node2&#45;&gt;Node1 -->
<g id="edge1" class="edge"><title>Node2&#45;&gt;Node1</title>
<path fill="none" stroke="midnightblue" d="M84.5,-65.2237C84.5,-56.6948 84.5,-46.9094 84.5,-38.6706"/>
<polygon fill="midnightblue" stroke="midnightblue" points="81.0001,-65.4763 84.5,-75.4763 88.0001,-65.4763 81.0001,-65.4763"/>
</g>
</g>
</svg>
