<?xml version="1.0" encoding="UTF-8" standalone="no"?>
<!DOCTYPE svg PUBLIC "-//W3C//DTD SVG 1.1//EN"
 "http://www.w3.org/Graphics/SVG/1.1/DTD/svg11.dtd">
<!-- Generated by graphviz version 2.38.0 (20140413.2041)
 -->
<!-- Title: EquationData::ExactSolutionLin_B_div Pages: 1 -->
<svg width="916pt" height="378pt"
 viewBox="0.00 0.00 916.00 378.00" xmlns="http://www.w3.org/2000/svg" xmlns:xlink="http://www.w3.org/1999/xlink">
<g id="graph0" class="graph" transform="scale(1 1) rotate(0) translate(4 374)">
<title>EquationData::ExactSolutionLin_B_div</title>
<polygon fill="white" stroke="none" points="-4,4 -4,-374 912,-374 912,4 -4,4"/>
<!-- Node1 -->
<g id="node1" class="node"><title>Node1</title>
<polygon fill="#bfbfbf" stroke="black" points="720,-219 720,-257 908,-257 908,-219 720,-219"/>
<text text-anchor="start" x="728" y="-241.8" font-family="Helvetica,sans-Serif" font-size="14.00">EquationData::ExactSolution</text>
<text text-anchor="middle" x="814" y="-226.8" font-family="Helvetica,sans-Serif" font-size="14.00">Lin_B_div</text>
</g>
<!-- Node2 -->
<g id="node2" class="node"><title>Node2</title>
<polygon fill="white" stroke="#bfbfbf" points="534.5,-268.5 534.5,-291.5 634.5,-291.5 634.5,-268.5 534.5,-268.5"/>
<text text-anchor="middle" x="584.5" y="-276.3" font-family="Helvetica,sans-Serif" font-size="14.00">Function&lt; 3 &gt;</text>
</g>
<!-- Node2&#45;&gt;Node1 -->
<g id="edge1" class="edge"><title>Node2&#45;&gt;Node1</title>
<path fill="none" stroke="midnightblue" d="M644.525,-269.103C667.536,-264.855 694.47,-259.883 719.966,-255.175"/>
<polygon fill="midnightblue" stroke="midnightblue" points="643.782,-265.681 634.584,-270.938 645.053,-272.565 643.782,-265.681"/>
</g>
<!-- Node3 -->
<g id="node3" class="node"><title>Node3</title>
<g id="a_node3"><a xlink:href="classEquationData_1_1ExactSolutionLin__Data.html" target="_top" xlink:title="Data class to construct an analytic solution. ">
<polygon fill="white" stroke="black" points="211,-65 211,-103 399,-103 399,-65 211,-65"/>
<text text-anchor="start" x="219" y="-87.8" font-family="Helvetica,sans-Serif" font-size="14.00">EquationData::ExactSolution</text>
<text text-anchor="middle" x="305" y="-72.8" font-family="Helvetica,sans-Serif" font-size="14.00">Lin_Data</text>
</a>
</g>
</g>
<!-- Node3&#45;&gt;Node1 -->
<g id="edge2" class="edge"><title>Node3&#45;&gt;Node1</title>
<path fill="none" stroke="midnightblue" d="M378.362,-105.98C477.97,-136.235 655.692,-190.218 750.069,-218.885"/>
<polygon fill="midnightblue" stroke="midnightblue" points="379.262,-102.595 368.677,-103.038 377.228,-109.293 379.262,-102.595"/>
</g>
<!-- Node4 -->
<g id="node4" class="node"><title>Node4</title>
<polygon fill="white" stroke="#bfbfbf" points="24,-112.5 24,-135.5 81,-135.5 81,-112.5 24,-112.5"/>
<text text-anchor="middle" x="52.5" y="-120.3" font-family="Helvetica,sans-Serif" font-size="14.00">double</text>
</g>
<!-- Node4&#45;&gt;Node3 -->
<g id="edge3" class="edge"><title>Node4&#45;&gt;Node3</title>
<path fill="none" stroke="#9a32cd" stroke-dasharray="5,2" d="M91.1783,-111.894C101.417,-108.952 112.561,-106.063 123,-104 151.379,-98.3913 182.594,-94.2369 210.992,-91.2137"/>
<polygon fill="#9a32cd" stroke="#9a32cd" points="89.8925,-108.625 81.3015,-114.825 91.884,-115.336 89.8925,-108.625"/>
<text text-anchor="middle" x="158" y="-107.8" font-family="Helvetica,sans-Serif" font-size="14.00"> div_u</text>
</g>
<!-- Node9 -->
<g id="node9" class="node"><title>Node9</title>
<g id="a_node9"><a xlink:href="classEquationData_1_1Diffusion__B__Data.html" target="_top" xlink:title="Class containing data to construct a positive scalar. ">
<polygon fill="white" stroke="black" points="226,-145 226,-183 384,-183 384,-145 226,-145"/>
<text text-anchor="start" x="234" y="-167.8" font-family="Helvetica,sans-Serif" font-size="14.00">EquationData::Diffusion</text>
<text text-anchor="middle" x="305" y="-152.8" font-family="Helvetica,sans-Serif" font-size="14.00">_B_Data</text>
</a>
</g>
</g>
<!-- Node4&#45;&gt;Node9 -->
<g id="edge9" class="edge"><title>Node4&#45;&gt;Node9</title>
<path fill="none" stroke="#9a32cd" stroke-dasharray="5,2" d="M91.2363,-129.471C119.322,-133.594 158.586,-139.465 193,-145 203.617,-146.708 214.795,-148.558 225.804,-150.412"/>
<polygon fill="#9a32cd" stroke="#9a32cd" points="91.4544,-125.966 81.0529,-127.981 90.4408,-132.892 91.4544,-125.966"/>
<text text-anchor="middle" x="158" y="-163.8" font-family="Helvetica,sans-Serif" font-size="14.00"> scale</text>
<text text-anchor="middle" x="158" y="-148.8" font-family="Helvetica,sans-Serif" font-size="14.00">alpha</text>
</g>
<!-- Node5 -->
<g id="node5" class="node"><title>Node5</title>
<polygon fill="white" stroke="#bfbfbf" points="0,-0.5 0,-23.5 105,-23.5 105,-0.5 0,-0.5"/>
<text text-anchor="middle" x="52.5" y="-8.3" font-family="Helvetica,sans-Serif" font-size="14.00">Tensor&lt; 1, 3 &gt;</text>
</g>
<!-- Node5&#45;&gt;Node3 -->
<g id="edge4" class="edge"><title>Node5&#45;&gt;Node3</title>
<path fill="none" stroke="#9a32cd" stroke-dasharray="5,2" d="M115.296,-15.6372C139.855,-18.1983 168.127,-22.5627 193,-30 220.718,-38.2881 250.071,-52.8518 271.625,-64.7674"/>
<polygon fill="#9a32cd" stroke="#9a32cd" points="115.308,-12.1222 105.019,-14.6462 114.636,-19.0899 115.308,-12.1222"/>
<text text-anchor="middle" x="158" y="-48.8" font-family="Helvetica,sans-Serif" font-size="14.00"> curl_u</text>
<text text-anchor="middle" x="158" y="-33.8" font-family="Helvetica,sans-Serif" font-size="14.00">b</text>
</g>
<!-- Node6 -->
<g id="node6" class="node"><title>Node6</title>
<polygon fill="white" stroke="#bfbfbf" points="0,-53.5 0,-76.5 105,-76.5 105,-53.5 0,-53.5"/>
<text text-anchor="middle" x="52.5" y="-61.3" font-family="Helvetica,sans-Serif" font-size="14.00">Tensor&lt; 2, 3 &gt;</text>
</g>
<!-- Node6&#45;&gt;Node3 -->
<g id="edge5" class="edge"><title>Node6&#45;&gt;Node3</title>
<path fill="none" stroke="#9a32cd" stroke-dasharray="5,2" d="M115.398,-63.4072C139.638,-63.3158 167.659,-63.8672 193,-66 198.836,-66.4912 204.829,-67.1144 210.861,-67.8321"/>
<polygon fill="#9a32cd" stroke="#9a32cd" points="115.233,-59.9083 105.26,-63.4831 115.286,-66.9081 115.233,-59.9083"/>
<text text-anchor="middle" x="158" y="-69.8" font-family="Helvetica,sans-Serif" font-size="14.00"> A</text>
</g>
<!-- Node7 -->
<g id="node7" class="node"><title>Node7</title>
<g id="a_node7"><a xlink:href="classEquationData_1_1Diffusion__B.html" target="_top" xlink:title="Class containing a positive scalar coefficient. ">
<polygon fill="white" stroke="black" points="497,-226.5 497,-249.5 672,-249.5 672,-226.5 497,-226.5"/>
<text text-anchor="middle" x="584.5" y="-234.3" font-family="Helvetica,sans-Serif" font-size="14.00">EquationData::Diffusion_B</text>
</a>
</g>
</g>
<!-- Node7&#45;&gt;Node1 -->
<g id="edge6" class="edge"><title>Node7&#45;&gt;Node1</title>
<path fill="none" stroke="#9a32cd" stroke-dasharray="5,2" d="M682.465,-238C694.828,-238 707.462,-238 719.764,-238"/>
<polygon fill="#9a32cd" stroke="#9a32cd" points="682.157,-234.5 672.157,-238 682.157,-241.5 682.157,-234.5"/>
<text text-anchor="middle" x="696" y="-241.8" font-family="Helvetica,sans-Serif" font-size="14.00"> b</text>
</g>
<!-- Node8 -->
<g id="node8" class="node"><title>Node8</title>
<g id="a_node8"><a xlink:href="classFunctionParser.html" target="_top" xlink:title="FunctionParser\&lt; 3 \&gt;">
<polygon fill="white" stroke="black" points="235,-202.5 235,-225.5 375,-225.5 375,-202.5 235,-202.5"/>
<text text-anchor="middle" x="305" y="-210.3" font-family="Helvetica,sans-Serif" font-size="14.00">FunctionParser&lt; 3 &gt;</text>
</a>
</g>
</g>
<!-- Node8&#45;&gt;Node7 -->
<g id="edge7" class="edge"><title>Node8&#45;&gt;Node7</title>
<path fill="none" stroke="midnightblue" d="M385.441,-220.871C420.301,-223.885 461.313,-227.432 496.948,-230.514"/>
<polygon fill="midnightblue" stroke="midnightblue" points="385.574,-217.369 375.309,-219.994 384.97,-224.343 385.574,-217.369"/>
</g>
<!-- Node9&#45;&gt;Node7 -->
<g id="edge8" class="edge"><title>Node9&#45;&gt;Node7</title>
<path fill="none" stroke="midnightblue" d="M387.279,-185.674C437.212,-198.99 499.206,-215.522 539.988,-226.397"/>
<polygon fill="midnightblue" stroke="midnightblue" points="388.027,-182.252 377.463,-183.057 386.224,-189.015 388.027,-182.252"/>
</g>
<!-- Node10 -->
<g id="node10" class="node"><title>Node10</title>
<polygon fill="white" stroke="#bfbfbf" points="37,-182.5 37,-205.5 68,-205.5 68,-182.5 37,-182.5"/>
<text text-anchor="middle" x="52.5" y="-190.3" font-family="Helvetica,sans-Serif" font-size="14.00">int</text>
</g>
<!-- Node10&#45;&gt;Node9 -->
<g id="edge10" class="edge"><title>Node10&#45;&gt;Node9</title>
<path fill="none" stroke="#9a32cd" stroke-dasharray="5,2" d="M78.0156,-191.064C112.009,-186.993 175.018,-179.447 225.884,-173.355"/>
<polygon fill="#9a32cd" stroke="#9a32cd" points="77.5635,-187.593 68.0507,-192.257 78.396,-194.543 77.5635,-187.593"/>
<text text-anchor="middle" x="158" y="-189.8" font-family="Helvetica,sans-Serif" font-size="14.00"> k</text>
</g>
<!-- Node11 -->
<g id="node11" class="node"><title>Node11</title>
<polygon fill="white" stroke="#bfbfbf" points="27.5,-250.5 27.5,-273.5 77.5,-273.5 77.5,-250.5 27.5,-250.5"/>
<text text-anchor="middle" x="52.5" y="-258.3" font-family="Helvetica,sans-Serif" font-size="14.00">string</text>
</g>
<!-- Node11&#45;&gt;Node7 -->
<g id="edge12" class="edge"><title>Node11&#45;&gt;Node7</title>
<path fill="none" stroke="#9a32cd" stroke-dasharray="5,2" d="M87.7112,-272.595C162.436,-293.767 344.317,-334.477 479,-276 489.094,-271.617 487.33,-264.251 497,-259 503.926,-255.239 511.525,-252.143 519.255,-249.596"/>
<polygon fill="#9a32cd" stroke="#9a32cd" points="88.4735,-269.172 77.8944,-269.75 86.5247,-275.895 88.4735,-269.172"/>
<text text-anchor="middle" x="305" y="-309.8" font-family="Helvetica,sans-Serif" font-size="14.00"> fnc_expression</text>
</g>
<!-- Node11&#45;&gt;Node7 -->
<g id="edge13" class="edge"><title>Node11&#45;&gt;Node7</title>
<path fill="none" stroke="#9a32cd" stroke-dasharray="5,2" d="M87.8839,-260.443C169.682,-256.739 377.892,-247.311 496.791,-241.926"/>
<polygon fill="#9a32cd" stroke="#9a32cd" points="87.4816,-256.958 77.6502,-260.906 87.7983,-263.95 87.4816,-256.958"/>
<text text-anchor="middle" x="305" y="-257.8" font-family="Helvetica,sans-Serif" font-size="14.00"> variables</text>
</g>
<!-- Node11&#45;&gt;Node9 -->
<g id="edge11" class="edge"><title>Node11&#45;&gt;Node9</title>
<path fill="none" stroke="#9a32cd" stroke-dasharray="5,2" d="M87.154,-247.84C98.5235,-243.087 111.299,-237.781 123,-233 154.018,-220.326 163.345,-220.599 193,-205 201.509,-200.524 202.322,-197.14 211,-193 218.632,-189.359 226.831,-186.034 235.083,-183.04"/>
<polygon fill="#9a32cd" stroke="#9a32cd" points="85.4585,-244.755 77.5869,-251.846 88.1627,-251.212 85.4585,-244.755"/>
<text text-anchor="middle" x="158" y="-236.8" font-family="Helvetica,sans-Serif" font-size="14.00"> expression</text>
</g>
<!-- Node12 -->
<g id="node12" class="node"><title>Node12</title>
<polygon fill="white" stroke="#bfbfbf" points="218,-346.5 218,-369.5 392,-369.5 392,-346.5 218,-346.5"/>
<text text-anchor="middle" x="305" y="-354.3" font-family="Helvetica,sans-Serif" font-size="14.00">map&lt; std::string, double &gt;</text>
</g>
<!-- Node12&#45;&gt;Node7 -->
<g id="edge14" class="edge"><title>Node12&#45;&gt;Node7</title>
<path fill="none" stroke="#9a32cd" stroke-dasharray="5,2" d="M402.454,-359.582C430.1,-355.416 458.318,-346.062 479,-327 501.988,-305.812 474.667,-280.877 497,-259 500.753,-255.323 505.036,-252.253 509.64,-249.692"/>
<polygon fill="#9a32cd" stroke="#9a32cd" points="401.78,-356.139 392.31,-360.89 402.675,-363.082 401.78,-356.139"/>
<text text-anchor="middle" x="448" y="-358.8" font-family="Helvetica,sans-Serif" font-size="14.00"> constants</text>
</g>
</g>
</svg>
