<?xml version="1.0" encoding="UTF-8" standalone="no"?>
<!DOCTYPE svg PUBLIC "-//W3C//DTD SVG 1.1//EN"
 "http://www.w3.org/Graphics/SVG/1.1/DTD/svg11.dtd">
<!-- Generated by graphviz version 2.38.0 (20140413.2041)
 -->
<!-- Title: QNed::QNed_PostProcessor Pages: 1 -->
<svg width="1000pt" height="515pt"
 viewBox="0.00 0.00 1000.00 515.11" xmlns="http://www.w3.org/2000/svg" xmlns:xlink="http://www.w3.org/1999/xlink">
<g id="graph0" class="graph" transform="scale(1 1) rotate(0) translate(4 511.105)">
<title>QNed::QNed_PostProcessor</title>
<polygon fill="white" stroke="none" points="-4,4 -4,-511.105 996,-511.105 996,4 -4,4"/>
<!-- Node1 -->
<g id="node1" class="node"><title>Node1</title>
<polygon fill="#bfbfbf" stroke="black" points="801,-154.605 801,-177.605 992,-177.605 992,-154.605 801,-154.605"/>
<text text-anchor="middle" x="896.5" y="-162.405" font-family="Helvetica,sans-Serif" font-size="14.00">QNed::QNed_PostProcessor</text>
</g>
<!-- Node2 -->
<g id="node2" class="node"><title>Node2</title>
<g id="a_node2"><a xlink:href="classDataPostprocessor.html" target="_top" xlink:title="DataPostprocessor\&lt; 3 \&gt;">
<polygon fill="white" stroke="black" points="511,-254.605 511,-277.605 674,-277.605 674,-254.605 511,-254.605"/>
<text text-anchor="middle" x="592.5" y="-262.405" font-family="Helvetica,sans-Serif" font-size="14.00">DataPostprocessor&lt; 3 &gt;</text>
</a>
</g>
</g>
<!-- Node2&#45;&gt;Node1 -->
<g id="edge1" class="edge"><title>Node2&#45;&gt;Node1</title>
<path fill="none" stroke="midnightblue" d="M670.177,-252.562C680.914,-250.289 691.769,-247.788 702,-245.105 738.706,-235.479 747.723,-232.087 783,-218.105 814.604,-205.578 850.051,-188.707 872.558,-177.625"/>
<polygon fill="midnightblue" stroke="midnightblue" points="669.458,-249.137 660.371,-254.585 670.872,-255.993 669.458,-249.137"/>
</g>
<!-- Node3 -->
<g id="node3" class="node"><title>Node3</title>
<g id="a_node3"><a xlink:href="classEquationData_1_1Diffusion__A.html" target="_top" xlink:title="Class containing a positive tensor. ">
<polygon fill="white" stroke="black" points="505,-212.605 505,-235.605 680,-235.605 680,-212.605 505,-212.605"/>
<text text-anchor="middle" x="592.5" y="-220.405" font-family="Helvetica,sans-Serif" font-size="14.00">EquationData::Diffusion_A</text>
</a>
</g>
</g>
<!-- Node3&#45;&gt;Node1 -->
<g id="edge2" class="edge"><title>Node3&#45;&gt;Node1</title>
<path fill="none" stroke="#9a32cd" stroke-dasharray="5,2" d="M663.369,-210.687C715.509,-200.673 786.007,-187.133 835.587,-177.612"/>
<polygon fill="#9a32cd" stroke="#9a32cd" points="662.687,-207.253 653.527,-212.577 664.007,-214.128 662.687,-207.253"/>
<text text-anchor="middle" x="751.5" y="-202.905" font-family="Helvetica,sans-Serif" font-size="14.00"> a</text>
</g>
<!-- Node4 -->
<g id="node4" class="node"><title>Node4</title>
<g id="a_node4"><a xlink:href="classTensorFunction.html" target="_top" xlink:title="TensorFunction\&lt; 2, 3 \&gt;">
<polygon fill="white" stroke="black" points="219.5,-352.605 219.5,-375.605 376.5,-375.605 376.5,-352.605 219.5,-352.605"/>
<text text-anchor="middle" x="298" y="-360.405" font-family="Helvetica,sans-Serif" font-size="14.00">TensorFunction&lt; 2, 3 &gt;</text>
</a>
</g>
</g>
<!-- Node4&#45;&gt;Node3 -->
<g id="edge3" class="edge"><title>Node4&#45;&gt;Node3</title>
<path fill="none" stroke="midnightblue" d="M368.345,-349.301C374.102,-347.195 379.729,-344.808 385,-342.105 426.269,-320.943 434.875,-310.367 465,-275.105 475.1,-263.283 470.262,-254.023 483,-245.105 489.68,-240.429 497.132,-236.726 504.917,-233.803"/>
<polygon fill="midnightblue" stroke="midnightblue" points="366.937,-346.081 358.573,-352.584 369.167,-352.717 366.937,-346.081"/>
</g>
<!-- Node5 -->
<g id="node5" class="node"><title>Node5</title>
<g id="a_node5"><a xlink:href="classEquationData_1_1Diffusion__A__Data.html" target="_top" xlink:title="Class containing data to construct a positive tensor. ">
<polygon fill="white" stroke="black" points="219,-295.105 219,-333.105 377,-333.105 377,-295.105 219,-295.105"/>
<text text-anchor="start" x="227" y="-317.905" font-family="Helvetica,sans-Serif" font-size="14.00">EquationData::Diffusion</text>
<text text-anchor="middle" x="298" y="-302.905" font-family="Helvetica,sans-Serif" font-size="14.00">_A_Data</text>
</a>
</g>
</g>
<!-- Node5&#45;&gt;Node3 -->
<g id="edge4" class="edge"><title>Node5&#45;&gt;Node3</title>
<path fill="none" stroke="midnightblue" d="M352.696,-291.243C388.976,-276.477 438.24,-257.733 483,-245.105 495.649,-241.536 509.297,-238.374 522.504,-235.656"/>
<polygon fill="midnightblue" stroke="midnightblue" points="351.217,-288.067 343.293,-295.099 353.873,-294.543 351.217,-288.067"/>
</g>
<!-- Node6 -->
<g id="node6" class="node"><title>Node6</title>
<polygon fill="white" stroke="#bfbfbf" points="24,-142.605 24,-165.605 81,-165.605 81,-142.605 24,-142.605"/>
<text text-anchor="middle" x="52.5" y="-150.405" font-family="Helvetica,sans-Serif" font-size="14.00">double</text>
</g>
<!-- Node6&#45;&gt;Node5 -->
<g id="edge5" class="edge"><title>Node6&#45;&gt;Node5</title>
<path fill="none" stroke="#9a32cd" stroke-dasharray="5,2" d="M91.2994,-157.789C127.088,-161.955 177.573,-169.807 193,-182.105 208.244,-194.257 200.198,-205.877 211,-222.105 229.536,-249.952 256.634,-277.375 275.439,-294.934"/>
<polygon fill="#9a32cd" stroke="#9a32cd" points="91.5046,-154.29 81.1787,-156.662 90.7299,-161.247 91.5046,-154.29"/>
<text text-anchor="middle" x="158" y="-305.905" font-family="Helvetica,sans-Serif" font-size="14.00"> alpha_</text>
<text text-anchor="middle" x="158" y="-290.905" font-family="Helvetica,sans-Serif" font-size="14.00">scale_x</text>
<text text-anchor="middle" x="158" y="-275.905" font-family="Helvetica,sans-Serif" font-size="14.00">scale_y</text>
<text text-anchor="middle" x="158" y="-260.905" font-family="Helvetica,sans-Serif" font-size="14.00">gamma_</text>
<text text-anchor="middle" x="158" y="-245.905" font-family="Helvetica,sans-Serif" font-size="14.00">beta_</text>
<text text-anchor="middle" x="158" y="-230.905" font-family="Helvetica,sans-Serif" font-size="14.00">scale_z</text>
<text text-anchor="middle" x="158" y="-215.905" font-family="Helvetica,sans-Serif" font-size="14.00">alpha_x</text>
<text text-anchor="middle" x="158" y="-200.905" font-family="Helvetica,sans-Serif" font-size="14.00">alpha_y</text>
<text text-anchor="middle" x="158" y="-185.905" font-family="Helvetica,sans-Serif" font-size="14.00">alpha_z</text>
</g>
<!-- Node13 -->
<g id="node13" class="node"><title>Node13</title>
<g id="a_node13"><a xlink:href="classEquationData_1_1Diffusion__B__Data.html" target="_top" xlink:title="Class containing data to construct a positive scalar. ">
<polygon fill="white" stroke="black" points="219,-175.105 219,-213.105 377,-213.105 377,-175.105 219,-175.105"/>
<text text-anchor="start" x="227" y="-197.905" font-family="Helvetica,sans-Serif" font-size="14.00">EquationData::Diffusion</text>
<text text-anchor="middle" x="298" y="-182.905" font-family="Helvetica,sans-Serif" font-size="14.00">_B_Data</text>
</a>
</g>
</g>
<!-- Node6&#45;&gt;Node13 -->
<g id="edge13" class="edge"><title>Node6&#45;&gt;Node13</title>
<path fill="none" stroke="#9a32cd" stroke-dasharray="5,2" d="M82.6641,-137.865C112.515,-123.635 159.194,-108.212 193,-129.105 208.217,-138.51 197.506,-153.361 211,-165.105 215.279,-168.829 220.055,-172.079 225.104,-174.915"/>
<polygon fill="#9a32cd" stroke="#9a32cd" points="80.9807,-134.794 73.6012,-142.396 84.1109,-141.055 80.9807,-134.794"/>
<text text-anchor="middle" x="158" y="-147.905" font-family="Helvetica,sans-Serif" font-size="14.00"> scale</text>
<text text-anchor="middle" x="158" y="-132.905" font-family="Helvetica,sans-Serif" font-size="14.00">alpha</text>
</g>
<!-- Node7 -->
<g id="node7" class="node"><title>Node7</title>
<polygon fill="white" stroke="#bfbfbf" points="0,-433.605 0,-456.605 105,-456.605 105,-433.605 0,-433.605"/>
<text text-anchor="middle" x="52.5" y="-441.405" font-family="Helvetica,sans-Serif" font-size="14.00">Tensor&lt; 2, 3 &gt;</text>
</g>
<!-- Node7&#45;&gt;Node5 -->
<g id="edge6" class="edge"><title>Node7&#45;&gt;Node5</title>
<path fill="none" stroke="#9a32cd" stroke-dasharray="5,2" d="M115.329,-445.325C142.388,-442.228 172.559,-433.949 193,-414.105 216.357,-391.429 188.883,-366.992 211,-343.105 214.426,-339.405 218.338,-336.177 222.563,-333.361"/>
<polygon fill="#9a32cd" stroke="#9a32cd" points="114.771,-441.861 105.138,-446.271 115.419,-448.831 114.771,-441.861"/>
<text text-anchor="middle" x="158" y="-448.905" font-family="Helvetica,sans-Serif" font-size="14.00"> rot</text>
</g>
<!-- Node8 -->
<g id="node8" class="node"><title>Node8</title>
<polygon fill="white" stroke="#bfbfbf" points="37,-346.605 37,-369.605 68,-369.605 68,-346.605 37,-346.605"/>
<text text-anchor="middle" x="52.5" y="-354.405" font-family="Helvetica,sans-Serif" font-size="14.00">int</text>
</g>
<!-- Node8&#45;&gt;Node5 -->
<g id="edge7" class="edge"><title>Node8&#45;&gt;Node5</title>
<path fill="none" stroke="#9a32cd" stroke-dasharray="5,2" d="M78.4417,-361.679C106.888,-364.826 154.444,-367.233 193,-355.105 202.172,-352.22 202.37,-347.344 211,-343.105 218.354,-339.492 226.269,-336.151 234.213,-333.119"/>
<polygon fill="#9a32cd" stroke="#9a32cd" points="78.5419,-358.165 68.1896,-360.419 77.6879,-365.113 78.5419,-358.165"/>
<text text-anchor="middle" x="158" y="-398.905" font-family="Helvetica,sans-Serif" font-size="14.00"> k_x</text>
<text text-anchor="middle" x="158" y="-383.905" font-family="Helvetica,sans-Serif" font-size="14.00">k_y</text>
<text text-anchor="middle" x="158" y="-368.905" font-family="Helvetica,sans-Serif" font-size="14.00">k_z</text>
</g>
<!-- Node8&#45;&gt;Node13 -->
<g id="edge14" class="edge"><title>Node8&#45;&gt;Node13</title>
<path fill="none" stroke="#9a32cd" stroke-dasharray="5,2" d="M77.9066,-350.106C91.1982,-345.819 107.957,-340.525 123,-336.105 153.929,-327.017 167.567,-336.914 193,-317.105 205.874,-307.078 201.324,-298.244 211,-285.105 230.722,-258.325 257.589,-231.051 276.015,-213.439"/>
<polygon fill="#9a32cd" stroke="#9a32cd" points="76.5204,-346.877 68.0894,-353.293 78.6814,-353.535 76.5204,-346.877"/>
<text text-anchor="middle" x="158" y="-339.905" font-family="Helvetica,sans-Serif" font-size="14.00"> k</text>
</g>
<!-- Node9 -->
<g id="node9" class="node"><title>Node9</title>
<polygon fill="white" stroke="#bfbfbf" points="31.5,-475.605 31.5,-498.605 73.5,-498.605 73.5,-475.605 31.5,-475.605"/>
<text text-anchor="middle" x="52.5" y="-483.405" font-family="Helvetica,sans-Serif" font-size="14.00">bool</text>
</g>
<!-- Node9&#45;&gt;Node5 -->
<g id="edge8" class="edge"><title>Node9&#45;&gt;Node5</title>
<path fill="none" stroke="#9a32cd" stroke-dasharray="5,2" d="M83.679,-491.445C115.473,-494.163 164.766,-492.786 193,-464.105 231.142,-425.359 176.115,-384.807 211,-343.105 214.134,-339.359 217.77,-336.094 221.741,-333.25"/>
<polygon fill="#9a32cd" stroke="#9a32cd" points="83.9315,-487.953 73.6233,-490.401 83.2079,-494.915 83.9315,-487.953"/>
<text text-anchor="middle" x="158" y="-495.905" font-family="Helvetica,sans-Serif" font-size="14.00"> rotate</text>
</g>
<!-- Node10 -->
<g id="node10" class="node"><title>Node10</title>
<polygon fill="white" stroke="#bfbfbf" points="27.5,-19.6051 27.5,-42.6051 77.5,-42.6051 77.5,-19.6051 27.5,-19.6051"/>
<text text-anchor="middle" x="52.5" y="-27.4051" font-family="Helvetica,sans-Serif" font-size="14.00">string</text>
</g>
<!-- Node10&#45;&gt;Node1 -->
<g id="edge9" class="edge"><title>Node10&#45;&gt;Node1</title>
<path fill="none" stroke="#9a32cd" stroke-dasharray="5,2" d="M87.3814,-18.8643C98.5718,-15.3636 111.183,-11.9889 123,-10.1051 161.633,-3.94652 171.881,-8.54953 211,-8.10506 323.889,-6.82239 354.168,10.3872 465,-11.1051 626.036,-42.3327 807.389,-124.035 871.5,-154.463"/>
<polygon fill="#9a32cd" stroke="#9a32cd" points="85.983,-15.6392 77.5673,-22.0755 88.1599,-22.2921 85.983,-15.6392"/>
<text text-anchor="middle" x="434" y="-14.9051" font-family="Helvetica,sans-Serif" font-size="14.00"> exact</text>
</g>
<!-- Node11 -->
<g id="node11" class="node"><title>Node11</title>
<g id="a_node11"><a xlink:href="classEquationData_1_1DiffusionInverse__B.html" target="_top" xlink:title="Class containing the inverse of a positive scalar coefficient. ">
<polygon fill="white" stroke="black" points="483,-111.605 483,-134.605 702,-134.605 702,-111.605 483,-111.605"/>
<text text-anchor="middle" x="592.5" y="-119.405" font-family="Helvetica,sans-Serif" font-size="14.00">EquationData::DiffusionInverse_B</text>
</a>
</g>
</g>
<!-- Node10&#45;&gt;Node11 -->
<g id="edge16" class="edge"><title>Node10&#45;&gt;Node11</title>
<path fill="none" stroke="#9a32cd" stroke-dasharray="5,2" d="M87.9665,-32.8764C148.511,-36.4022 277.721,-45.7781 385,-66.1051 446.207,-77.7023 515.722,-98.5254 556.471,-111.537"/>
<polygon fill="#9a32cd" stroke="#9a32cd" points="88.0048,-29.3731 77.8233,-32.3035 87.61,-36.362 88.0048,-29.3731"/>
<text text-anchor="middle" x="298" y="-69.9051" font-family="Helvetica,sans-Serif" font-size="14.00"> inverse_fnc_expression</text>
</g>
<!-- Node10&#45;&gt;Node11 -->
<g id="edge17" class="edge"><title>Node10&#45;&gt;Node11</title>
<path fill="none" stroke="#9a32cd" stroke-dasharray="5,2" d="M87.7953,-24.9838C148.583,-15.3201 278.828,0.0301261 385,-24.1051 460.211,-41.2023 540.019,-89.2402 574.265,-111.506"/>
<polygon fill="#9a32cd" stroke="#9a32cd" points="86.9189,-21.5807 77.6173,-26.6532 88.052,-28.4884 86.9189,-21.5807"/>
<text text-anchor="middle" x="298" y="-27.9051" font-family="Helvetica,sans-Serif" font-size="14.00"> variables</text>
</g>
<!-- Node10&#45;&gt;Node13 -->
<g id="edge15" class="edge"><title>Node10&#45;&gt;Node13</title>
<path fill="none" stroke="#9a32cd" stroke-dasharray="5,2" d="M83.2017,-47.425C95.4404,-54.0167 109.817,-61.59 123,-68.1051 153.667,-83.2607 170.804,-74.0761 193,-100.105 212.45,-122.914 190.395,-143.333 211,-165.105 214.574,-168.882 218.656,-172.166 223.055,-175.024"/>
<polygon fill="#9a32cd" stroke="#9a32cd" points="84.7742,-44.2963 74.3145,-42.6095 81.4393,-50.4509 84.7742,-44.2963"/>
<text text-anchor="middle" x="158" y="-103.905" font-family="Helvetica,sans-Serif" font-size="14.00"> expression</text>
</g>
<!-- Node11&#45;&gt;Node1 -->
<g id="edge10" class="edge"><title>Node11&#45;&gt;Node1</title>
<path fill="none" stroke="#9a32cd" stroke-dasharray="5,2" d="M684.516,-136.064C725.918,-141.959 774.503,-148.877 814.608,-154.587"/>
<polygon fill="#9a32cd" stroke="#9a32cd" points="684.824,-132.573 674.43,-134.628 683.837,-139.503 684.824,-132.573"/>
<text text-anchor="middle" x="751.5" y="-153.905" font-family="Helvetica,sans-Serif" font-size="14.00"> b_inverse</text>
</g>
<!-- Node12 -->
<g id="node12" class="node"><title>Node12</title>
<g id="a_node12"><a xlink:href="classFunctionParser.html" target="_top" xlink:title="FunctionParser\&lt; 3 \&gt;">
<polygon fill="white" stroke="black" points="228,-90.6051 228,-113.605 368,-113.605 368,-90.6051 228,-90.6051"/>
<text text-anchor="middle" x="298" y="-98.4051" font-family="Helvetica,sans-Serif" font-size="14.00">FunctionParser&lt; 3 &gt;</text>
</a>
</g>
</g>
<!-- Node12&#45;&gt;Node11 -->
<g id="edge11" class="edge"><title>Node12&#45;&gt;Node11</title>
<path fill="none" stroke="midnightblue" d="M378.555,-107.817C410.708,-110.125 448.334,-112.826 482.939,-115.311"/>
<polygon fill="midnightblue" stroke="midnightblue" points="378.543,-104.307 368.318,-107.082 378.042,-111.289 378.543,-104.307"/>
</g>
<!-- Node13&#45;&gt;Node11 -->
<g id="edge12" class="edge"><title>Node13&#45;&gt;Node11</title>
<path fill="none" stroke="midnightblue" d="M387.078,-173.706C412.266,-167.793 439.737,-161.268 465,-155.105 492.18,-148.475 522.576,-140.794 546.76,-134.62"/>
<polygon fill="midnightblue" stroke="midnightblue" points="386.116,-170.337 377.178,-176.026 387.713,-177.152 386.116,-170.337"/>
</g>
<!-- Node14 -->
<g id="node14" class="node"><title>Node14</title>
<polygon fill="white" stroke="#bfbfbf" points="211,-132.605 211,-155.605 385,-155.605 385,-132.605 211,-132.605"/>
<text text-anchor="middle" x="298" y="-140.405" font-family="Helvetica,sans-Serif" font-size="14.00">map&lt; std::string, double &gt;</text>
</g>
<!-- Node14&#45;&gt;Node11 -->
<g id="edge18" class="edge"><title>Node14&#45;&gt;Node11</title>
<path fill="none" stroke="#9a32cd" stroke-dasharray="5,2" d="M395.357,-137.187C423.351,-135.177 454.116,-132.969 482.811,-130.908"/>
<polygon fill="#9a32cd" stroke="#9a32cd" points="394.901,-133.711 385.178,-137.918 395.403,-140.693 394.901,-133.711"/>
<text text-anchor="middle" x="434" y="-139.905" font-family="Helvetica,sans-Serif" font-size="14.00"> constants</text>
</g>
</g>
</svg>
