<?xml version="1.0" encoding="UTF-8" standalone="no"?>
<!DOCTYPE svg PUBLIC "-//W3C//DTD SVG 1.1//EN"
 "http://www.w3.org/Graphics/SVG/1.1/DTD/svg11.dtd">
<!-- Generated by graphviz version 2.38.0 (20140413.2041)
 -->
<!-- Title: ShapeFun::BasisRaviartThomas&lt; dim &gt; Pages: 1 -->
<svg width="220pt" height="107pt"
 viewBox="0.00 0.00 220.00 107.00" xmlns="http://www.w3.org/2000/svg" xmlns:xlink="http://www.w3.org/1999/xlink">
<g id="graph0" class="graph" transform="scale(1 1) rotate(0) translate(4 103)">
<title>ShapeFun::BasisRaviartThomas&lt; dim &gt;</title>
<polygon fill="white" stroke="none" points="-4,4 -4,-103 216,-103 216,4 -4,4"/>
<!-- Node1 -->
<g id="node1" class="node"><title>Node1</title>
<polygon fill="#bfbfbf" stroke="black" points="-1.42109e-14,-0.5 -1.42109e-14,-38.5 212,-38.5 212,-0.5 -1.42109e-14,-0.5"/>
<text text-anchor="start" x="8" y="-23.3" font-family="Helvetica,sans-Serif" font-size="14.00">ShapeFun::BasisRaviartThomas</text>
<text text-anchor="middle" x="106" y="-8.3" font-family="Helvetica,sans-Serif" font-size="14.00">&lt; dim &gt;</text>
</g>
<!-- Node2 -->
<g id="node2" class="node"><title>Node2</title>
<polygon fill="white" stroke="#bfbfbf" points="48.5,-75.5 48.5,-98.5 163.5,-98.5 163.5,-75.5 48.5,-75.5"/>
<text text-anchor="middle" x="106" y="-83.3" font-family="Helvetica,sans-Serif" font-size="14.00">Function&lt; dim &gt;</text>
</g>
<!-- Node2&#45;&gt;Node1 -->
<g id="edge1" class="edge"><title>Node2&#45;&gt;Node1</title>
<path fill="none" stroke="midnightblue" d="M106,-65.2237C106,-56.6948 106,-46.9094 106,-38.6706"/>
<polygon fill="midnightblue" stroke="midnightblue" points="102.5,-65.4763 106,-75.4763 109.5,-65.4763 102.5,-65.4763"/>
</g>
</g>
</svg>
