<?xml version="1.0" encoding="UTF-8" standalone="no"?>
<!DOCTYPE svg PUBLIC "-//W3C//DTD SVG 1.1//EN"
 "http://www.w3.org/Graphics/SVG/1.1/DTD/svg11.dtd">
<!-- Generated by graphviz version 2.38.0 (20140413.2041)
 -->
<!-- Title: EquationData::RightHandSide Pages: 1 -->
<svg width="420pt" height="167pt"
 viewBox="0.00 0.00 420.00 167.00" xmlns="http://www.w3.org/2000/svg" xmlns:xlink="http://www.w3.org/1999/xlink">
<g id="graph0" class="graph" transform="scale(1 1) rotate(0) translate(4 163)">
<title>EquationData::RightHandSide</title>
<polygon fill="white" stroke="none" points="-4,4 -4,-163 416,-163 416,4 -4,4"/>
<!-- Node1 -->
<g id="node1" class="node"><title>Node1</title>
<polygon fill="#bfbfbf" stroke="black" points="107,-75.5 107,-98.5 304,-98.5 304,-75.5 107,-75.5"/>
<text text-anchor="middle" x="205.5" y="-83.3" font-family="Helvetica,sans-Serif" font-size="14.00">EquationData::RightHandSide</text>
</g>
<!-- Node3 -->
<g id="node3" class="node"><title>Node3</title>
<g id="a_node3"><a xlink:href="classEquationData_1_1RightHandSideExactLin.html" target="_top" xlink:title="Right hand side used if user chooses to compare an analytic solutions. ">
<polygon fill="white" stroke="black" points="0,-0.5 0,-38.5 197,-38.5 197,-0.5 0,-0.5"/>
<text text-anchor="start" x="8" y="-23.3" font-family="Helvetica,sans-Serif" font-size="14.00">EquationData::RightHandSide</text>
<text text-anchor="middle" x="98.5" y="-8.3" font-family="Helvetica,sans-Serif" font-size="14.00">ExactLin</text>
</a>
</g>
</g>
<!-- Node1&#45;&gt;Node3 -->
<g id="edge2" class="edge"><title>Node1&#45;&gt;Node3</title>
<path fill="none" stroke="midnightblue" d="M179.724,-70.2212C164.197,-60.7162 144.364,-48.5756 128.183,-38.6706"/>
<polygon fill="midnightblue" stroke="midnightblue" points="177.952,-73.2404 188.309,-75.4763 181.607,-67.2702 177.952,-73.2404"/>
</g>
<!-- Node4 -->
<g id="node4" class="node"><title>Node4</title>
<g id="a_node4"><a xlink:href="classEquationData_1_1RightHandSideParsed.html" target="_top" xlink:title="Right&#45;hand side for user provide function expression. ">
<polygon fill="white" stroke="black" points="215,-0.5 215,-38.5 412,-38.5 412,-0.5 215,-0.5"/>
<text text-anchor="start" x="223" y="-23.3" font-family="Helvetica,sans-Serif" font-size="14.00">EquationData::RightHandSide</text>
<text text-anchor="middle" x="313.5" y="-8.3" font-family="Helvetica,sans-Serif" font-size="14.00">Parsed</text>
</a>
</g>
</g>
<!-- Node1&#45;&gt;Node4 -->
<g id="edge3" class="edge"><title>Node1&#45;&gt;Node4</title>
<path fill="none" stroke="midnightblue" d="M231.517,-70.2212C247.189,-60.7162 267.207,-48.5756 283.539,-38.6706"/>
<polygon fill="midnightblue" stroke="midnightblue" points="229.587,-67.298 222.852,-75.4763 233.217,-73.2832 229.587,-67.298"/>
</g>
<!-- Node2 -->
<g id="node2" class="node"><title>Node2</title>
<polygon fill="white" stroke="#bfbfbf" points="101,-135.5 101,-158.5 310,-158.5 310,-135.5 101,-135.5"/>
<text text-anchor="middle" x="205.5" y="-143.3" font-family="Helvetica,sans-Serif" font-size="14.00">Functions::ParsedFunction&lt; 3 &gt;</text>
</g>
<!-- Node2&#45;&gt;Node1 -->
<g id="edge1" class="edge"><title>Node2&#45;&gt;Node1</title>
<path fill="none" stroke="midnightblue" d="M205.5,-125.191C205.5,-116.168 205.5,-105.994 205.5,-98.5707"/>
<polygon fill="midnightblue" stroke="midnightblue" points="202,-125.362 205.5,-135.362 209,-125.362 202,-125.362"/>
</g>
</g>
</svg>
