<?xml version="1.0" encoding="UTF-8" standalone="no"?>
<!DOCTYPE svg PUBLIC "-//W3C//DTD SVG 1.1//EN"
 "http://www.w3.org/Graphics/SVG/1.1/DTD/svg11.dtd">
<!-- Generated by graphviz version 2.38.0 (20140413.2041)
 -->
<!-- Title: LinearSolvers::SchurComplementMPI&lt; BlockMatrixType, VectorType, PreconditionerType &gt; Pages: 1 -->
<svg width="611pt" height="316pt"
 viewBox="0.00 0.00 611.00 315.50" xmlns="http://www.w3.org/2000/svg" xmlns:xlink="http://www.w3.org/1999/xlink">
<g id="graph0" class="graph" transform="scale(1 1) rotate(0) translate(4 311.5)">
<title>LinearSolvers::SchurComplementMPI&lt; BlockMatrixType, VectorType, PreconditionerType &gt;</title>
<polygon fill="white" stroke="none" points="-4,4 -4,-311.5 607,-311.5 607,4 -4,4"/>
<!-- Node1 -->
<g id="node1" class="node"><title>Node1</title>
<polygon fill="#bfbfbf" stroke="black" points="369,-140 369,-193 603,-193 603,-140 369,-140"/>
<text text-anchor="start" x="377" y="-177.8" font-family="Helvetica,sans-Serif" font-size="14.00">LinearSolvers::SchurComplement</text>
<text text-anchor="start" x="377" y="-162.8" font-family="Helvetica,sans-Serif" font-size="14.00">MPI&lt; BlockMatrixType, VectorType,</text>
<text text-anchor="middle" x="486" y="-147.8" font-family="Helvetica,sans-Serif" font-size="14.00"> PreconditionerType &gt;</text>
</g>
<!-- Node2 -->
<g id="node2" class="node"><title>Node2</title>
<g id="a_node2"><a xlink:href="classSubscriptor.html" target="_top" xlink:title="Subscriptor">
<polygon fill="white" stroke="black" points="50,-284 50,-307 135,-307 135,-284 50,-284"/>
<text text-anchor="middle" x="92.5" y="-291.8" font-family="Helvetica,sans-Serif" font-size="14.00">Subscriptor</text>
</a>
</g>
</g>
<!-- Node2&#45;&gt;Node1 -->
<g id="edge1" class="edge"><title>Node2&#45;&gt;Node1</title>
<path fill="none" stroke="midnightblue" d="M145.641,-300.965C199.177,-304.522 283.914,-304.357 351,-277.5 396.433,-259.312 438.025,-219.693 462.444,-193.05"/>
<polygon fill="midnightblue" stroke="midnightblue" points="145.594,-297.452 135.365,-300.211 145.082,-304.433 145.594,-297.452"/>
</g>
<!-- Node3 -->
<g id="node3" class="node"><title>Node3</title>
<polygon fill="white" stroke="#bfbfbf" points="49.5,-230 49.5,-253 135.5,-253 135.5,-230 49.5,-230"/>
<text text-anchor="middle" x="92.5" y="-237.8" font-family="Helvetica,sans-Serif" font-size="14.00">VectorType</text>
</g>
<!-- Node3&#45;&gt;Node1 -->
<g id="edge2" class="edge"><title>Node3&#45;&gt;Node1</title>
<path fill="none" stroke="#9a32cd" stroke-dasharray="5,2" d="M145.743,-235.701C198.003,-229.453 280.532,-218.37 351,-203.5 365.287,-200.485 380.305,-196.829 394.911,-193.003"/>
<polygon fill="#9a32cd" stroke="#9a32cd" points="145.227,-232.237 135.707,-236.886 146.048,-239.189 145.227,-232.237"/>
<text text-anchor="middle" x="277" y="-262.3" font-family="Helvetica,sans-Serif" font-size="14.00"> tmp3</text>
<text text-anchor="middle" x="277" y="-247.3" font-family="Helvetica,sans-Serif" font-size="14.00">tmp1</text>
<text text-anchor="middle" x="277" y="-232.3" font-family="Helvetica,sans-Serif" font-size="14.00">tmp2</text>
</g>
<!-- Node4 -->
<g id="node4" class="node"><title>Node4</title>
<polygon fill="white" stroke="#bfbfbf" points="4,-172.5 4,-210.5 181,-210.5 181,-172.5 4,-172.5"/>
<text text-anchor="start" x="12" y="-195.3" font-family="Helvetica,sans-Serif" font-size="14.00">const SmartPointer</text>
<text text-anchor="middle" x="92.5" y="-180.3" font-family="Helvetica,sans-Serif" font-size="14.00">&lt; const BlockMatrixType &gt;</text>
</g>
<!-- Node4&#45;&gt;Node1 -->
<g id="edge3" class="edge"><title>Node4&#45;&gt;Node1</title>
<path fill="none" stroke="#9a32cd" stroke-dasharray="5,2" d="M191.591,-185.236C245.391,-181.801 312.423,-177.52 368.83,-173.918"/>
<polygon fill="#9a32cd" stroke="#9a32cd" points="191.117,-181.759 181.36,-185.89 191.563,-188.745 191.117,-181.759"/>
<text text-anchor="middle" x="277" y="-188.3" font-family="Helvetica,sans-Serif" font-size="14.00"> system_matrix</text>
</g>
<!-- Node5 -->
<g id="node5" class="node"><title>Node5</title>
<polygon fill="white" stroke="#bfbfbf" points="21,-130 21,-153 164,-153 164,-130 21,-130"/>
<text text-anchor="middle" x="92.5" y="-137.8" font-family="Helvetica,sans-Serif" font-size="14.00">vector&lt; IndexSet &gt; &amp;</text>
</g>
<!-- Node5&#45;&gt;Node1 -->
<g id="edge4" class="edge"><title>Node5&#45;&gt;Node1</title>
<path fill="none" stroke="#9a32cd" stroke-dasharray="5,2" d="M174.266,-145.866C225.018,-148.694 291.85,-152.57 351,-156.5 356.819,-156.887 362.78,-157.293 368.799,-157.712"/>
<polygon fill="#9a32cd" stroke="#9a32cd" points="174.192,-142.357 164.013,-145.297 173.804,-149.346 174.192,-142.357"/>
<text text-anchor="middle" x="277" y="-160.3" font-family="Helvetica,sans-Serif" font-size="14.00"> owned_partitioning</text>
</g>
<!-- Node6 -->
<g id="node6" class="node"><title>Node6</title>
<polygon fill="white" stroke="#bfbfbf" points="47.5,-88 47.5,-111 137.5,-111 137.5,-88 47.5,-88"/>
<text text-anchor="middle" x="92.5" y="-95.8" font-family="Helvetica,sans-Serif" font-size="14.00">MPI_Comm</text>
</g>
<!-- Node6&#45;&gt;Node1 -->
<g id="edge5" class="edge"><title>Node6&#45;&gt;Node1</title>
<path fill="none" stroke="#9a32cd" stroke-dasharray="5,2" d="M147.628,-103.377C199.993,-107.698 281.426,-115.925 351,-129.5 365.805,-132.389 381.368,-136.072 396.436,-139.99"/>
<polygon fill="#9a32cd" stroke="#9a32cd" points="147.804,-99.88 137.555,-102.565 147.241,-106.857 147.804,-99.88"/>
<text text-anchor="middle" x="277" y="-133.3" font-family="Helvetica,sans-Serif" font-size="14.00"> mpi_communicator</text>
</g>
<!-- Node7 -->
<g id="node7" class="node"><title>Node7</title>
<polygon fill="white" stroke="#bfbfbf" points="0,-0.5 0,-68.5 185,-68.5 185,-0.5 0,-0.5"/>
<text text-anchor="start" x="8" y="-53.3" font-family="Helvetica,sans-Serif" font-size="14.00">const SmartPointer</text>
<text text-anchor="start" x="8" y="-38.3" font-family="Helvetica,sans-Serif" font-size="14.00">&lt; const LinearSolvers</text>
<text text-anchor="start" x="8" y="-23.3" font-family="Helvetica,sans-Serif" font-size="14.00">::InverseMatrix&lt; BlockType,</text>
<text text-anchor="middle" x="92.5" y="-8.3" font-family="Helvetica,sans-Serif" font-size="14.00"> PreconditionerType &gt; &gt;</text>
</g>
<!-- Node7&#45;&gt;Node1 -->
<g id="edge6" class="edge"><title>Node7&#45;&gt;Node1</title>
<path fill="none" stroke="#9a32cd" stroke-dasharray="5,2" d="M195.246,-49.3219C243.447,-58.1745 301.228,-71.479 351,-90.5 384.477,-103.294 419.622,-123.517 445.517,-139.887"/>
<polygon fill="#9a32cd" stroke="#9a32cd" points="195.573,-45.8247 185.112,-47.4999 194.335,-52.7143 195.573,-45.8247"/>
<text text-anchor="middle" x="277" y="-94.3" font-family="Helvetica,sans-Serif" font-size="14.00"> relevant_inverse_matrix</text>
</g>
</g>
</svg>
