<?xml version="1.0" encoding="UTF-8" standalone="no"?>
<!DOCTYPE svg PUBLIC "-//W3C//DTD SVG 1.1//EN"
 "http://www.w3.org/Graphics/SVG/1.1/DTD/svg11.dtd">
<!-- Generated by graphviz version 2.38.0 (20140413.2041)
 -->
<!-- Title: /home/travis/build/konsim83/MPI&#45;MSFEC/include/functions/concatinate_functions.h Pages: 1 -->
<svg width="3245pt" height="152pt"
 viewBox="0.00 0.00 3244.50 152.00" xmlns="http://www.w3.org/2000/svg" xmlns:xlink="http://www.w3.org/1999/xlink">
<g id="graph0" class="graph" transform="scale(1 1) rotate(0) translate(4 148)">
<title>/home/travis/build/konsim83/MPI&#45;MSFEC/include/functions/concatinate_functions.h</title>
<polygon fill="white" stroke="none" points="-4,4 -4,-148 3240.5,-148 3240.5,4 -4,4"/>
<!-- Node1 -->
<g id="node1" class="node"><title>Node1</title>
<polygon fill="#bfbfbf" stroke="black" points="1671,-75.5 1671,-143.5 1865,-143.5 1865,-75.5 1671,-75.5"/>
<text text-anchor="start" x="1679" y="-128.3" font-family="Helvetica,sans-Serif" font-size="14.00">/home/travis/build</text>
<text text-anchor="start" x="1679" y="-113.3" font-family="Helvetica,sans-Serif" font-size="14.00">/konsim83/MPI&#45;MSFEC</text>
<text text-anchor="start" x="1679" y="-98.3" font-family="Helvetica,sans-Serif" font-size="14.00">/include/functions/concatinate</text>
<text text-anchor="middle" x="1768" y="-83.3" font-family="Helvetica,sans-Serif" font-size="14.00">_functions.h</text>
</g>
<!-- Node2 -->
<g id="node2" class="node"><title>Node2</title>
<polygon fill="white" stroke="#bfbfbf" points="0,-8 0,-31 166,-31 166,-8 0,-8"/>
<text text-anchor="middle" x="83" y="-15.8" font-family="Helvetica,sans-Serif" font-size="14.00">deal.II/base/exceptions.h</text>
</g>
<!-- Node1&#45;&gt;Node2 -->
<g id="edge1" class="edge"><title>Node1&#45;&gt;Node2</title>
<path fill="none" stroke="midnightblue" d="M1670.94,-106.238C1371.85,-98.9549 466.976,-74.5086 175,-39 162.997,-37.5402 150.221,-35.3719 138.129,-33.0286"/>
<polygon fill="midnightblue" stroke="midnightblue" points="138.657,-29.565 128.164,-31.0308 137.281,-36.4284 138.657,-29.565"/>
</g>
<!-- Node3 -->
<g id="node3" class="node"><title>Node3</title>
<polygon fill="white" stroke="#bfbfbf" points="184.5,-8 184.5,-31 333.5,-31 333.5,-8 184.5,-8"/>
<text text-anchor="middle" x="259" y="-15.8" font-family="Helvetica,sans-Serif" font-size="14.00">deal.II/base/function.h</text>
</g>
<!-- Node1&#45;&gt;Node3 -->
<g id="edge2" class="edge"><title>Node1&#45;&gt;Node3</title>
<path fill="none" stroke="midnightblue" d="M1670.91,-105.929C1393.32,-98.234 599.77,-73.7502 342,-39 331.467,-37.58 320.294,-35.4956 309.674,-33.2328"/>
<polygon fill="midnightblue" stroke="midnightblue" points="310.221,-29.7692 299.701,-31.0245 308.707,-36.6036 310.221,-29.7692"/>
</g>
<!-- Node4 -->
<g id="node4" class="node"><title>Node4</title>
<polygon fill="white" stroke="#bfbfbf" points="351.5,-8 351.5,-31 482.5,-31 482.5,-8 351.5,-8"/>
<text text-anchor="middle" x="417" y="-15.8" font-family="Helvetica,sans-Serif" font-size="14.00">deal.II/base/point.h</text>
</g>
<!-- Node1&#45;&gt;Node4 -->
<g id="edge3" class="edge"><title>Node1&#45;&gt;Node4</title>
<path fill="none" stroke="midnightblue" d="M1671,-105.617C1413.76,-97.5879 718.368,-73.2877 491,-39 481.865,-37.6223 472.212,-35.6216 463.004,-33.4397"/>
<polygon fill="midnightblue" stroke="midnightblue" points="463.779,-30.026 453.231,-31.0219 462.098,-36.8211 463.779,-30.026"/>
</g>
<!-- Node5 -->
<g id="node5" class="node"><title>Node5</title>
<polygon fill="white" stroke="#bfbfbf" points="500.5,-0.5 500.5,-38.5 655.5,-38.5 655.5,-0.5 500.5,-0.5"/>
<text text-anchor="start" x="508.5" y="-23.3" font-family="Helvetica,sans-Serif" font-size="14.00">deal.II/base/quadrature</text>
<text text-anchor="middle" x="578" y="-8.3" font-family="Helvetica,sans-Serif" font-size="14.00">_lib.h</text>
</g>
<!-- Node1&#45;&gt;Node5 -->
<g id="edge4" class="edge"><title>Node1&#45;&gt;Node5</title>
<path fill="none" stroke="midnightblue" d="M1670.79,-107.237C1479.61,-103.693 1041.33,-90.3258 665.7,-39.133"/>
<polygon fill="midnightblue" stroke="midnightblue" points="666.107,-35.6561 655.723,-37.7623 665.154,-42.5909 666.107,-35.6561"/>
</g>
<!-- Node6 -->
<g id="node6" class="node"><title>Node6</title>
<polygon fill="white" stroke="#bfbfbf" points="673.5,-8 673.5,-31 812.5,-31 812.5,-8 673.5,-8"/>
<text text-anchor="middle" x="743" y="-15.8" font-family="Helvetica,sans-Serif" font-size="14.00">deal.II/base/tensor.h</text>
</g>
<!-- Node1&#45;&gt;Node6 -->
<g id="edge5" class="edge"><title>Node1&#45;&gt;Node6</title>
<path fill="none" stroke="midnightblue" d="M1670.75,-106.374C1498.67,-101.499 1129.67,-86.0297 822,-39 812.389,-37.5308 802.217,-35.509 792.486,-33.3394"/>
<polygon fill="midnightblue" stroke="midnightblue" points="793.079,-29.8841 782.547,-31.0419 791.502,-36.7042 793.079,-29.8841"/>
</g>
<!-- Node7 -->
<g id="node7" class="node"><title>Node7</title>
<polygon fill="white" stroke="#bfbfbf" points="831,-8 831,-31 1009,-31 1009,-8 831,-8"/>
<text text-anchor="middle" x="920" y="-15.8" font-family="Helvetica,sans-Serif" font-size="14.00">deal.II/dofs/dof_accessor.h</text>
</g>
<!-- Node1&#45;&gt;Node7 -->
<g id="edge6" class="edge"><title>Node1&#45;&gt;Node7</title>
<path fill="none" stroke="midnightblue" d="M1670.74,-102.499C1527.23,-92.9679 1250.53,-71.9981 1017,-39 1005.06,-37.3135 992.368,-35.1578 980.229,-32.918"/>
<polygon fill="midnightblue" stroke="midnightblue" points="980.667,-29.439 970.192,-31.0251 979.37,-36.3178 980.667,-29.439"/>
</g>
<!-- Node8 -->
<g id="node8" class="node"><title>Node8</title>
<polygon fill="white" stroke="#bfbfbf" points="1026.5,-8 1026.5,-31 1195.5,-31 1195.5,-8 1026.5,-8"/>
<text text-anchor="middle" x="1111" y="-15.8" font-family="Helvetica,sans-Serif" font-size="14.00">deal.II/dofs/dof_handler.h</text>
</g>
<!-- Node1&#45;&gt;Node8 -->
<g id="edge7" class="edge"><title>Node1&#45;&gt;Node8</title>
<path fill="none" stroke="midnightblue" d="M1670.82,-98.6377C1558.36,-86.7315 1367.77,-65.0299 1205,-39 1194.06,-37.2505 1182.45,-35.159 1171.26,-33.0219"/>
<polygon fill="midnightblue" stroke="midnightblue" points="1171.61,-29.5254 1161.13,-31.0549 1170.28,-36.3971 1171.61,-29.5254"/>
</g>
<!-- Node9 -->
<g id="node9" class="node"><title>Node9</title>
<polygon fill="white" stroke="#bfbfbf" points="1214,-8 1214,-31 1366,-31 1366,-8 1214,-8"/>
<text text-anchor="middle" x="1290" y="-15.8" font-family="Helvetica,sans-Serif" font-size="14.00">deal.II/dofs/dof_tools.h</text>
</g>
<!-- Node1&#45;&gt;Node9 -->
<g id="edge8" class="edge"><title>Node1&#45;&gt;Node9</title>
<path fill="none" stroke="midnightblue" d="M1670.9,-92.4198C1591.24,-78.9662 1475.61,-58.8368 1375,-39 1365.76,-37.1787 1355.98,-35.1472 1346.47,-33.1161"/>
<polygon fill="midnightblue" stroke="midnightblue" points="1347.21,-29.6942 1336.7,-31.0083 1345.73,-36.537 1347.21,-29.6942"/>
</g>
<!-- Node10 -->
<g id="node10" class="node"><title>Node10</title>
<polygon fill="white" stroke="#bfbfbf" points="1384.5,-8 1384.5,-31 1515.5,-31 1515.5,-8 1384.5,-8"/>
<text text-anchor="middle" x="1450" y="-15.8" font-family="Helvetica,sans-Serif" font-size="14.00">deal.II/fe/fe_tools.h</text>
</g>
<!-- Node1&#45;&gt;Node10 -->
<g id="edge9" class="edge"><title>Node1&#45;&gt;Node10</title>
<path fill="none" stroke="midnightblue" d="M1670.86,-81.6189C1613.64,-65.7829 1543.74,-46.4417 1498.12,-33.815"/>
<polygon fill="midnightblue" stroke="midnightblue" points="1498.77,-30.3637 1488.2,-31.0698 1496.9,-37.1101 1498.77,-30.3637"/>
</g>
<!-- Node11 -->
<g id="node11" class="node"><title>Node11</title>
<polygon fill="white" stroke="#bfbfbf" points="1533.5,-8 1533.5,-31 1674.5,-31 1674.5,-8 1533.5,-8"/>
<text text-anchor="middle" x="1604" y="-15.8" font-family="Helvetica,sans-Serif" font-size="14.00">deal.II/fe/fe_values.h</text>
</g>
<!-- Node1&#45;&gt;Node11 -->
<g id="edge10" class="edge"><title>Node1&#45;&gt;Node11</title>
<path fill="none" stroke="midnightblue" d="M1706.47,-75.4817C1681.2,-61.9247 1653.17,-46.8818 1632.82,-35.9626"/>
<polygon fill="midnightblue" stroke="midnightblue" points="1634.23,-32.7515 1623.77,-31.1073 1630.92,-38.9196 1634.23,-32.7515"/>
</g>
<!-- Node12 -->
<g id="node12" class="node"><title>Node12</title>
<polygon fill="white" stroke="#bfbfbf" points="1692.5,-8 1692.5,-31 1843.5,-31 1843.5,-8 1692.5,-8"/>
<text text-anchor="middle" x="1768" y="-15.8" font-family="Helvetica,sans-Serif" font-size="14.00">deal.II/fe/mapping_q.h</text>
</g>
<!-- Node1&#45;&gt;Node12 -->
<g id="edge11" class="edge"><title>Node1&#45;&gt;Node12</title>
<path fill="none" stroke="midnightblue" d="M1768,-75.4817C1768,-64.1426 1768,-51.764 1768,-41.6283"/>
<polygon fill="midnightblue" stroke="midnightblue" points="1771.5,-41.3125 1768,-31.3126 1764.5,-41.3126 1771.5,-41.3125"/>
</g>
<!-- Node13 -->
<g id="node13" class="node"><title>Node13</title>
<polygon fill="white" stroke="#bfbfbf" points="1861.5,-8 1861.5,-31 1974.5,-31 1974.5,-8 1861.5,-8"/>
<text text-anchor="middle" x="1918" y="-15.8" font-family="Helvetica,sans-Serif" font-size="14.00">deal.II/grid/tria.h</text>
</g>
<!-- Node1&#45;&gt;Node13 -->
<g id="edge12" class="edge"><title>Node1&#45;&gt;Node13</title>
<path fill="none" stroke="midnightblue" d="M1824.28,-75.4817C1847.18,-62.0474 1872.57,-47.154 1891.14,-36.2601"/>
<polygon fill="midnightblue" stroke="midnightblue" points="1893.07,-39.1864 1899.92,-31.1073 1889.52,-33.1487 1893.07,-39.1864"/>
</g>
<!-- Node14 -->
<g id="node14" class="node"><title>Node14</title>
<polygon fill="white" stroke="#bfbfbf" points="1992.5,-8 1992.5,-31 2167.5,-31 2167.5,-8 1992.5,-8"/>
<text text-anchor="middle" x="2080" y="-15.8" font-family="Helvetica,sans-Serif" font-size="14.00">deal.II/grid/tria_accessor.h</text>
</g>
<!-- Node1&#45;&gt;Node14 -->
<g id="edge13" class="edge"><title>Node1&#45;&gt;Node14</title>
<path fill="none" stroke="midnightblue" d="M1865.01,-81.1386C1920.89,-65.378 1988.61,-46.2771 2032.92,-33.7784"/>
<polygon fill="midnightblue" stroke="midnightblue" points="2033.88,-37.1434 2042.56,-31.0602 2031.98,-30.4063 2033.88,-37.1434"/>
</g>
<!-- Node15 -->
<g id="node15" class="node"><title>Node15</title>
<polygon fill="white" stroke="#bfbfbf" points="2185.5,-8 2185.5,-31 2348.5,-31 2348.5,-8 2185.5,-8"/>
<text text-anchor="middle" x="2267" y="-15.8" font-family="Helvetica,sans-Serif" font-size="14.00">deal.II/grid/tria_iterator.h</text>
</g>
<!-- Node1&#45;&gt;Node15 -->
<g id="edge14" class="edge"><title>Node1&#45;&gt;Node15</title>
<path fill="none" stroke="midnightblue" d="M1865.27,-92.9385C1948.24,-79.4326 2070.64,-58.9621 2177,-39 2186.76,-37.1683 2197.09,-35.1335 2207.15,-33.1027"/>
<polygon fill="midnightblue" stroke="midnightblue" points="2207.97,-36.5062 2217.08,-31.081 2206.58,-29.647 2207.97,-36.5062"/>
</g>
<!-- Node16 -->
<g id="node16" class="node"><title>Node16</title>
<polygon fill="white" stroke="#bfbfbf" points="2367,-8 2367,-31 2493,-31 2493,-8 2367,-8"/>
<text text-anchor="middle" x="2430" y="-15.8" font-family="Helvetica,sans-Serif" font-size="14.00">deal.II/lac/vector.h</text>
</g>
<!-- Node1&#45;&gt;Node16 -->
<g id="edge15" class="edge"><title>Node1&#45;&gt;Node16</title>
<path fill="none" stroke="midnightblue" d="M1865.18,-101.079C1982.61,-91.1867 2185.89,-71.0983 2358,-39 2366.12,-37.486 2374.68,-35.5732 2382.95,-33.5554"/>
<polygon fill="midnightblue" stroke="midnightblue" points="2384,-36.899 2392.84,-31.0619 2382.29,-30.1111 2384,-36.899"/>
</g>
<!-- Node17 -->
<g id="node17" class="node"><title>Node17</title>
<polygon fill="white" stroke="#bfbfbf" points="2511,-0.5 2511,-38.5 2665,-38.5 2665,-0.5 2511,-0.5"/>
<text text-anchor="start" x="2519" y="-23.3" font-family="Helvetica,sans-Serif" font-size="14.00">deal.II/numerics/matrix</text>
<text text-anchor="middle" x="2588" y="-8.3" font-family="Helvetica,sans-Serif" font-size="14.00">_tools.h</text>
</g>
<!-- Node1&#45;&gt;Node17 -->
<g id="edge16" class="edge"><title>Node1&#45;&gt;Node17</title>
<path fill="none" stroke="midnightblue" d="M1865.22,-102.943C2004.18,-94.1866 2267.65,-74.5667 2500.7,-39.109"/>
<polygon fill="midnightblue" stroke="midnightblue" points="2501.37,-42.5473 2510.72,-37.5713 2500.31,-35.6283 2501.37,-42.5473"/>
</g>
<!-- Node18 -->
<g id="node18" class="node"><title>Node18</title>
<polygon fill="white" stroke="#bfbfbf" points="2683.5,-0.5 2683.5,-38.5 2836.5,-38.5 2836.5,-0.5 2683.5,-0.5"/>
<text text-anchor="start" x="2691.5" y="-23.3" font-family="Helvetica,sans-Serif" font-size="14.00">deal.II/numerics/vector</text>
<text text-anchor="middle" x="2760" y="-8.3" font-family="Helvetica,sans-Serif" font-size="14.00">_tools.h</text>
</g>
<!-- Node1&#45;&gt;Node18 -->
<g id="edge17" class="edge"><title>Node1&#45;&gt;Node18</title>
<path fill="none" stroke="midnightblue" d="M1865.02,-105.366C2029.47,-99.1044 2373.45,-81.9042 2673.01,-39.0305"/>
<polygon fill="midnightblue" stroke="midnightblue" points="2673.8,-42.4525 2683.2,-37.5597 2672.8,-35.5243 2673.8,-42.4525"/>
</g>
<!-- Node19 -->
<g id="node19" class="node"><title>Node19</title>
<polygon fill="white" stroke="#bfbfbf" points="2855,-8 2855,-31 2917,-31 2917,-8 2855,-8"/>
<text text-anchor="middle" x="2886" y="-15.8" font-family="Helvetica,sans-Serif" font-size="14.00">fstream</text>
</g>
<!-- Node1&#45;&gt;Node19 -->
<g id="edge18" class="edge"><title>Node1&#45;&gt;Node19</title>
<path fill="none" stroke="midnightblue" d="M1865.03,-106.797C2093.87,-102.049 2661.85,-85.7849 2846,-39 2849.89,-38.0109 2853.87,-36.6494 2857.74,-35.1099"/>
<polygon fill="midnightblue" stroke="midnightblue" points="2859.26,-38.2635 2867,-31.027 2856.44,-31.8583 2859.26,-38.2635"/>
</g>
<!-- Node20 -->
<g id="node20" class="node"><title>Node20</title>
<polygon fill="white" stroke="#bfbfbf" points="2935.5,-8 2935.5,-31 3004.5,-31 3004.5,-8 2935.5,-8"/>
<text text-anchor="middle" x="2970" y="-15.8" font-family="Helvetica,sans-Serif" font-size="14.00">iostream</text>
</g>
<!-- Node1&#45;&gt;Node20 -->
<g id="edge19" class="edge"><title>Node1&#45;&gt;Node20</title>
<path fill="none" stroke="midnightblue" d="M1865.39,-106.869C2106.36,-102.157 2725.44,-85.744 2926,-39 2930.48,-37.9561 2935.08,-36.4953 2939.55,-34.8474"/>
<polygon fill="midnightblue" stroke="midnightblue" points="2941.04,-38.0206 2949,-31.0304 2938.42,-31.5299 2941.04,-38.0206"/>
</g>
<!-- Node21 -->
<g id="node21" class="node"><title>Node21</title>
<polygon fill="white" stroke="#bfbfbf" points="3022.5,-8 3022.5,-31 3075.5,-31 3075.5,-8 3022.5,-8"/>
<text text-anchor="middle" x="3049" y="-15.8" font-family="Helvetica,sans-Serif" font-size="14.00">vector</text>
</g>
<!-- Node1&#45;&gt;Node21 -->
<g id="edge20" class="edge"><title>Node1&#45;&gt;Node21</title>
<path fill="none" stroke="midnightblue" d="M1865.1,-108.428C2119.09,-107.388 2798.34,-98.9149 3014,-39 3017.18,-38.1169 3020.4,-36.9146 3023.53,-35.5438"/>
<polygon fill="midnightblue" stroke="midnightblue" points="3025.12,-38.6581 3032.52,-31.0768 3022.01,-32.3881 3025.12,-38.6581"/>
</g>
<!-- Node22 -->
<g id="node22" class="node"><title>Node22</title>
<g id="a_node22"><a xlink:href="concatinate__functions_8tpp.html" target="_top" xlink:title="functions/concatinate\l_functions.tpp">
<polygon fill="white" stroke="black" points="3093.5,-0.5 3093.5,-38.5 3236.5,-38.5 3236.5,-0.5 3093.5,-0.5"/>
<text text-anchor="start" x="3101.5" y="-23.3" font-family="Helvetica,sans-Serif" font-size="14.00">functions/concatinate</text>
<text text-anchor="middle" x="3165" y="-8.3" font-family="Helvetica,sans-Serif" font-size="14.00">_functions.tpp</text>
</a>
</g>
</g>
<!-- Node1&#45;&gt;Node22 -->
<g id="edge21" class="edge"><title>Node1&#45;&gt;Node22</title>
<path fill="none" stroke="midnightblue" d="M1865.22,-109.151C2082.55,-109.356 2624.11,-102.911 3083.01,-39.1582"/>
<polygon fill="midnightblue" stroke="midnightblue" points="3083.73,-42.5908 3093.15,-37.7377 3082.76,-35.6584 3083.73,-42.5908"/>
</g>
</g>
</svg>
