<?xml version="1.0" encoding="UTF-8" standalone="no"?>
<!DOCTYPE svg PUBLIC "-//W3C//DTD SVG 1.1//EN"
 "http://www.w3.org/Graphics/SVG/1.1/DTD/svg11.dtd">
<!-- Generated by graphviz version 2.38.0 (20140413.2041)
 -->
<!-- Title: /home/travis/build/konsim83/MPI&#45;MSFEC/include/config.h Pages: 1 -->
<svg width="684pt" height="137pt"
 viewBox="0.00 0.00 683.50 137.00" xmlns="http://www.w3.org/2000/svg" xmlns:xlink="http://www.w3.org/1999/xlink">
<g id="graph0" class="graph" transform="scale(1 1) rotate(0) translate(4 133)">
<title>/home/travis/build/konsim83/MPI&#45;MSFEC/include/config.h</title>
<polygon fill="white" stroke="none" points="-4,4 -4,-133 679.5,-133 679.5,4 -4,4"/>
<!-- Node1 -->
<g id="node1" class="node"><title>Node1</title>
<polygon fill="#bfbfbf" stroke="black" points="321,-75.5 321,-128.5 481,-128.5 481,-75.5 321,-75.5"/>
<text text-anchor="start" x="329" y="-113.3" font-family="Helvetica,sans-Serif" font-size="14.00">/home/travis/build</text>
<text text-anchor="start" x="329" y="-98.3" font-family="Helvetica,sans-Serif" font-size="14.00">/konsim83/MPI&#45;MSFEC</text>
<text text-anchor="middle" x="401" y="-83.3" font-family="Helvetica,sans-Serif" font-size="14.00">/include/config.h</text>
</g>
<!-- Node2 -->
<g id="node2" class="node"><title>Node2</title>
<polygon fill="white" stroke="#bfbfbf" points="0,-8 0,-31 124,-31 124,-8 0,-8"/>
<text text-anchor="middle" x="62" y="-15.8" font-family="Helvetica,sans-Serif" font-size="14.00">deal.II/base/mpi.h</text>
</g>
<!-- Node1&#45;&gt;Node2 -->
<g id="edge1" class="edge"><title>Node1&#45;&gt;Node2</title>
<path fill="none" stroke="midnightblue" d="M320.826,-83.0591C267.501,-70.9771 195.954,-54.4807 133,-39 126.027,-37.2852 118.682,-35.4286 111.466,-33.5756"/>
<polygon fill="midnightblue" stroke="midnightblue" points="112.313,-30.1795 101.755,-31.0649 110.561,-36.9567 112.313,-30.1795"/>
</g>
<!-- Node3 -->
<g id="node3" class="node"><title>Node3</title>
<polygon fill="white" stroke="#bfbfbf" points="142,-0.5 142,-38.5 264,-38.5 264,-0.5 142,-0.5"/>
<text text-anchor="start" x="150" y="-23.3" font-family="Helvetica,sans-Serif" font-size="14.00">deal.II/lac/generic</text>
<text text-anchor="middle" x="203" y="-8.3" font-family="Helvetica,sans-Serif" font-size="14.00">_linear_algebra.h</text>
</g>
<!-- Node1&#45;&gt;Node3 -->
<g id="edge2" class="edge"><title>Node1&#45;&gt;Node3</title>
<path fill="none" stroke="midnightblue" d="M338.08,-75.4187C311.973,-64.8047 281.989,-52.6142 256.913,-42.419"/>
<polygon fill="midnightblue" stroke="midnightblue" points="258.142,-39.1408 247.56,-38.6167 255.506,-45.6253 258.142,-39.1408"/>
</g>
<!-- Node4 -->
<g id="node4" class="node"><title>Node4</title>
<polygon fill="white" stroke="#bfbfbf" points="282.5,-8 282.5,-31 355.5,-31 355.5,-8 282.5,-8"/>
<text text-anchor="middle" x="319" y="-15.8" font-family="Helvetica,sans-Serif" font-size="14.00">algorithm</text>
</g>
<!-- Node1&#45;&gt;Node4 -->
<g id="edge3" class="edge"><title>Node1&#45;&gt;Node4</title>
<path fill="none" stroke="midnightblue" d="M374.603,-75.0862C362.397,-63.1029 348.204,-49.1696 337.213,-38.3794"/>
<polygon fill="midnightblue" stroke="midnightblue" points="339.437,-35.6587 329.849,-31.1508 334.533,-40.654 339.437,-35.6587"/>
</g>
<!-- Node5 -->
<g id="node5" class="node"><title>Node5</title>
<polygon fill="white" stroke="#bfbfbf" points="374,-8 374,-31 428,-31 428,-8 374,-8"/>
<text text-anchor="middle" x="401" y="-15.8" font-family="Helvetica,sans-Serif" font-size="14.00">cmath</text>
</g>
<!-- Node1&#45;&gt;Node5 -->
<g id="edge4" class="edge"><title>Node1&#45;&gt;Node5</title>
<path fill="none" stroke="midnightblue" d="M401,-75.0862C401,-64.15 401,-51.5896 401,-41.2765"/>
<polygon fill="midnightblue" stroke="midnightblue" points="404.5,-41.1508 401,-31.1508 397.5,-41.1509 404.5,-41.1508"/>
</g>
<!-- Node6 -->
<g id="node6" class="node"><title>Node6</title>
<polygon fill="white" stroke="#bfbfbf" points="446.5,-8 446.5,-31 511.5,-31 511.5,-8 446.5,-8"/>
<text text-anchor="middle" x="479" y="-15.8" font-family="Helvetica,sans-Serif" font-size="14.00">iomanip</text>
</g>
<!-- Node1&#45;&gt;Node6 -->
<g id="edge5" class="edge"><title>Node1&#45;&gt;Node6</title>
<path fill="none" stroke="midnightblue" d="M426.109,-75.0862C437.72,-63.1029 451.221,-49.1696 461.676,-38.3794"/>
<polygon fill="midnightblue" stroke="midnightblue" points="464.235,-40.7681 468.68,-31.1508 459.208,-35.897 464.235,-40.7681"/>
</g>
<!-- Node7 -->
<g id="node7" class="node"><title>Node7</title>
<polygon fill="white" stroke="#bfbfbf" points="530,-8 530,-31 578,-31 578,-8 530,-8"/>
<text text-anchor="middle" x="554" y="-15.8" font-family="Helvetica,sans-Serif" font-size="14.00">limits</text>
</g>
<!-- Node1&#45;&gt;Node7 -->
<g id="edge6" class="edge"><title>Node1&#45;&gt;Node7</title>
<path fill="none" stroke="midnightblue" d="M451.411,-75.4365C472.939,-64.3956 498.288,-51.2288 521,-39 522.735,-38.0659 524.516,-37.0966 526.31,-36.1133"/>
<polygon fill="midnightblue" stroke="midnightblue" points="528.165,-39.0867 535.214,-31.177 524.771,-32.9645 528.165,-39.0867"/>
</g>
<!-- Node8 -->
<g id="node8" class="node"><title>Node8</title>
<polygon fill="white" stroke="#bfbfbf" points="596.5,-8 596.5,-31 675.5,-31 675.5,-8 596.5,-8"/>
<text text-anchor="middle" x="636" y="-15.8" font-family="Helvetica,sans-Serif" font-size="14.00">type_traits</text>
</g>
<!-- Node1&#45;&gt;Node8 -->
<g id="edge7" class="edge"><title>Node1&#45;&gt;Node8</title>
<path fill="none" stroke="midnightblue" d="M479.972,-75.4352C513.13,-64.5049 552.039,-51.4212 587,-39 590.952,-37.5958 595.071,-36.0971 599.168,-34.5835"/>
<polygon fill="midnightblue" stroke="midnightblue" points="600.455,-37.8389 608.599,-31.062 598.007,-31.2811 600.455,-37.8389"/>
</g>
</g>
</svg>
