<?xml version="1.0" encoding="UTF-8" standalone="no"?>
<!DOCTYPE svg PUBLIC "-//W3C//DTD SVG 1.1//EN"
 "http://www.w3.org/Graphics/SVG/1.1/DTD/svg11.dtd">
<!-- Generated by graphviz version 2.38.0 (20140413.2041)
 -->
<!-- Title: /home/travis/build/konsim83/MPI&#45;MSFEC/include/vector_tools Pages: 1 -->
<svg width="128pt" height="155pt"
 viewBox="0.00 0.00 128.00 155.00" xmlns="http://www.w3.org/2000/svg" xmlns:xlink="http://www.w3.org/1999/xlink">
<g id="graph0" class="graph" transform="scale(1 1) rotate(0) translate(4 151)">
<title>/home/travis/build/konsim83/MPI&#45;MSFEC/include/vector_tools</title>
<polygon fill="white" stroke="none" points="-4,4 -4,-151 124,-151 124,4 -4,4"/>
<g id="clust1" class="cluster"><title>clusterdir_d44c64559bbebec7f509842c48db8b23</title>
<g id="a_clust1"><a xlink:href="dir_d44c64559bbebec7f509842c48db8b23.html" target="_top" xlink:title="include">
<polygon fill="#ddddee" stroke="black" points="8,-64 8,-139 112,-139 112,-64 8,-64"/>
<text text-anchor="middle" x="60" y="-123.8" font-family="Helvetica,sans-Serif" font-size="14.00">include</text>
</a>
</g>
</g>
<!-- dir_12dc6111bffae2de992502b826ed130a -->
<g id="node1" class="node"><title>dir_12dc6111bffae2de992502b826ed130a</title>
<g id="a_node1"><a xlink:href="dir_12dc6111bffae2de992502b826ed130a.html" target="_top" xlink:title="vector_tools">
<polygon fill="#eeeeff" stroke="black" points="104.5,-108 15.5,-108 15.5,-72 104.5,-72 104.5,-108"/>
<text text-anchor="middle" x="60" y="-86.3" font-family="Helvetica,sans-Serif" font-size="14.00">vector_tools</text>
</a>
</g>
</g>
<!-- dir_94cbabdd1ed76852c334cba7875b9d08 -->
<g id="node2" class="node"><title>dir_94cbabdd1ed76852c334cba7875b9d08</title>
<g id="a_node2"><a xlink:href="dir_94cbabdd1ed76852c334cba7875b9d08.html" target="_top" xlink:title="equation_data">
<polygon fill="none" stroke="black" points="111,-36 9,-36 9,-0 111,-0 111,-36"/>
<text text-anchor="middle" x="60" y="-14.3" font-family="Helvetica,sans-Serif" font-size="14.00">equation_data</text>
</a>
</g>
</g>
<!-- dir_12dc6111bffae2de992502b826ed130a&#45;&gt;dir_94cbabdd1ed76852c334cba7875b9d08 -->
<g id="edge1" class="edge"><title>dir_12dc6111bffae2de992502b826ed130a&#45;&gt;dir_94cbabdd1ed76852c334cba7875b9d08</title>
<path fill="none" stroke="black" d="M60,-71.6966C60,-63.9827 60,-54.7125 60,-46.1124"/>
<polygon fill="black" stroke="black" points="63.5001,-46.1043 60,-36.1043 56.5001,-46.1044 63.5001,-46.1043"/>
<g id="a_edge1&#45;headlabel"><a xlink:href="dir_000009_000001.html" target="_top" xlink:title="1">
<text text-anchor="middle" x="66.3393" y="-45.999" font-family="Helvetica,sans-Serif" font-size="14.00">1</text>
</a>
</g>
</g>
</g>
</svg>
