<?xml version="1.0" encoding="UTF-8" standalone="no"?>
<!DOCTYPE svg PUBLIC "-//W3C//DTD SVG 1.1//EN"
 "http://www.w3.org/Graphics/SVG/1.1/DTD/svg11.dtd">
<!-- Generated by graphviz version 2.38.0 (20140413.2041)
 -->
<!-- Title: /home/travis/build/konsim83/MPI&#45;MSFEC/include/Q Pages: 1 -->
<svg width="229pt" height="227pt"
 viewBox="0.00 0.00 228.50 227.00" xmlns="http://www.w3.org/2000/svg" xmlns:xlink="http://www.w3.org/1999/xlink">
<g id="graph0" class="graph" transform="scale(1 1) rotate(0) translate(4 223)">
<title>/home/travis/build/konsim83/MPI&#45;MSFEC/include/Q</title>
<polygon fill="white" stroke="none" points="-4,4 -4,-223 224.5,-223 224.5,4 -4,4"/>
<g id="clust1" class="cluster"><title>clusterdir_d44c64559bbebec7f509842c48db8b23</title>
<g id="a_clust1"><a xlink:href="dir_d44c64559bbebec7f509842c48db8b23.html" target="_top" xlink:title="include">
<polygon fill="#ddddee" stroke="black" points="98.5,-136 98.5,-211 168.5,-211 168.5,-136 98.5,-136"/>
<text text-anchor="middle" x="133.5" y="-195.8" font-family="Helvetica,sans-Serif" font-size="14.00">include</text>
</a>
</g>
</g>
<!-- dir_49573812a41deed162c4ee230890bf7e -->
<g id="node1" class="node"><title>dir_49573812a41deed162c4ee230890bf7e</title>
<g id="a_node1"><a xlink:href="dir_49573812a41deed162c4ee230890bf7e.html" target="_top" xlink:title="Q">
<polygon fill="#eeeeff" stroke="black" points="160.5,-180 106.5,-180 106.5,-144 160.5,-144 160.5,-180"/>
<text text-anchor="middle" x="133.5" y="-158.3" font-family="Helvetica,sans-Serif" font-size="14.00">Q</text>
</a>
</g>
</g>
<!-- dir_7b9f414af7497816ec826d16b4a48f56 -->
<g id="node2" class="node"><title>dir_7b9f414af7497816ec826d16b4a48f56</title>
<g id="a_node2"><a xlink:href="dir_7b9f414af7497816ec826d16b4a48f56.html" target="_top" xlink:title="functions">
<polygon fill="none" stroke="black" points="71,-108 0,-108 0,-72 71,-72 71,-108"/>
<text text-anchor="middle" x="35.5" y="-86.3" font-family="Helvetica,sans-Serif" font-size="14.00">functions</text>
</a>
</g>
</g>
<!-- dir_49573812a41deed162c4ee230890bf7e&#45;&gt;dir_7b9f414af7497816ec826d16b4a48f56 -->
<g id="edge2" class="edge"><title>dir_49573812a41deed162c4ee230890bf7e&#45;&gt;dir_7b9f414af7497816ec826d16b4a48f56</title>
<path fill="none" stroke="black" d="M109.527,-143.876C96.9503,-134.893 81.3675,-123.763 67.7478,-114.034"/>
<polygon fill="black" stroke="black" points="69.7374,-111.154 59.5657,-108.19 65.6687,-116.85 69.7374,-111.154"/>
<g id="a_edge2&#45;headlabel"><a xlink:href="dir_000005_000002.html" target="_top" xlink:title="1">
<text text-anchor="middle" x="74.3127" y="-107.233" font-family="Helvetica,sans-Serif" font-size="14.00">1</text>
</a>
</g>
</g>
<!-- dir_12dc6111bffae2de992502b826ed130a -->
<g id="node3" class="node"><title>dir_12dc6111bffae2de992502b826ed130a</title>
<g id="a_node3"><a xlink:href="dir_12dc6111bffae2de992502b826ed130a.html" target="_top" xlink:title="vector_tools">
<polygon fill="none" stroke="black" points="178,-108 89,-108 89,-72 178,-72 178,-108"/>
<text text-anchor="middle" x="133.5" y="-86.3" font-family="Helvetica,sans-Serif" font-size="14.00">vector_tools</text>
</a>
</g>
</g>
<!-- dir_49573812a41deed162c4ee230890bf7e&#45;&gt;dir_12dc6111bffae2de992502b826ed130a -->
<g id="edge3" class="edge"><title>dir_49573812a41deed162c4ee230890bf7e&#45;&gt;dir_12dc6111bffae2de992502b826ed130a</title>
<path fill="none" stroke="black" d="M133.5,-143.697C133.5,-135.983 133.5,-126.712 133.5,-118.112"/>
<polygon fill="black" stroke="black" points="137,-118.104 133.5,-108.104 130,-118.104 137,-118.104"/>
<g id="a_edge3&#45;headlabel"><a xlink:href="dir_000005_000009.html" target="_top" xlink:title="2">
<text text-anchor="middle" x="139.839" y="-117.999" font-family="Helvetica,sans-Serif" font-size="14.00">2</text>
</a>
</g>
</g>
<!-- dir_94cbabdd1ed76852c334cba7875b9d08 -->
<g id="node4" class="node"><title>dir_94cbabdd1ed76852c334cba7875b9d08</title>
<g id="a_node4"><a xlink:href="dir_94cbabdd1ed76852c334cba7875b9d08.html" target="_top" xlink:title="equation_data">
<polygon fill="none" stroke="black" points="220.5,-36 118.5,-36 118.5,-0 220.5,-0 220.5,-36"/>
<text text-anchor="middle" x="169.5" y="-14.3" font-family="Helvetica,sans-Serif" font-size="14.00">equation_data</text>
</a>
</g>
</g>
<!-- dir_49573812a41deed162c4ee230890bf7e&#45;&gt;dir_94cbabdd1ed76852c334cba7875b9d08 -->
<g id="edge4" class="edge"><title>dir_49573812a41deed162c4ee230890bf7e&#45;&gt;dir_94cbabdd1ed76852c334cba7875b9d08</title>
<path fill="none" stroke="black" d="M157.977,-143.768C168.904,-134.555 180.624,-122.186 186.5,-108 194.779,-88.0122 189.256,-63.8135 182.371,-45.6973"/>
<polygon fill="black" stroke="black" points="185.548,-44.2211 178.485,-36.3239 179.082,-46.9019 185.548,-44.2211"/>
<g id="a_edge4&#45;headlabel"><a xlink:href="dir_000005_000001.html" target="_top" xlink:title="11">
<text text-anchor="middle" x="189.548" y="-42.7543" font-family="Helvetica,sans-Serif" font-size="14.00">11</text>
</a>
</g>
</g>
<!-- dir_12dc6111bffae2de992502b826ed130a&#45;&gt;dir_94cbabdd1ed76852c334cba7875b9d08 -->
<g id="edge1" class="edge"><title>dir_12dc6111bffae2de992502b826ed130a&#45;&gt;dir_94cbabdd1ed76852c334cba7875b9d08</title>
<path fill="none" stroke="black" d="M142.399,-71.6966C146.497,-63.7284 151.449,-54.0995 155.993,-45.2641"/>
<polygon fill="black" stroke="black" points="159.242,-46.598 160.703,-36.1043 153.017,-43.3965 159.242,-46.598"/>
<g id="a_edge1&#45;headlabel"><a xlink:href="dir_000009_000001.html" target="_top" xlink:title="1">
<text text-anchor="middle" x="160.123" y="-47.3931" font-family="Helvetica,sans-Serif" font-size="14.00">1</text>
</a>
</g>
</g>
</g>
</svg>
