<?xml version="1.0" encoding="UTF-8" standalone="no"?>
<!DOCTYPE svg PUBLIC "-//W3C//DTD SVG 1.1//EN"
 "http://www.w3.org/Graphics/SVG/1.1/DTD/svg11.dtd">
<!-- Generated by graphviz version 2.38.0 (20140413.2041)
 -->
<!-- Title: /home/travis/build/konsim83/MPI&#45;MSFEC/include/RT_DQ Pages: 1 -->
<svg width="349pt" height="227pt"
 viewBox="0.00 0.00 348.50 227.00" xmlns="http://www.w3.org/2000/svg" xmlns:xlink="http://www.w3.org/1999/xlink">
<g id="graph0" class="graph" transform="scale(1 1) rotate(0) translate(4 223)">
<title>/home/travis/build/konsim83/MPI&#45;MSFEC/include/RT_DQ</title>
<polygon fill="white" stroke="none" points="-4,4 -4,-223 344.5,-223 344.5,4 -4,4"/>
<g id="clust1" class="cluster"><title>clusterdir_d44c64559bbebec7f509842c48db8b23</title>
<g id="a_clust1"><a xlink:href="dir_d44c64559bbebec7f509842c48db8b23.html" target="_top" xlink:title="include">
<polygon fill="#ddddee" stroke="black" points="156.5,-136 156.5,-211 236.5,-211 236.5,-136 156.5,-136"/>
<text text-anchor="middle" x="196.5" y="-195.8" font-family="Helvetica,sans-Serif" font-size="14.00">include</text>
</a>
</g>
</g>
<!-- dir_40300847c955504bce2fdd2e36190bd8 -->
<g id="node1" class="node"><title>dir_40300847c955504bce2fdd2e36190bd8</title>
<g id="a_node1"><a xlink:href="dir_40300847c955504bce2fdd2e36190bd8.html" target="_top" xlink:title="RT_DQ">
<polygon fill="#eeeeff" stroke="black" points="228,-180 165,-180 165,-144 228,-144 228,-180"/>
<text text-anchor="middle" x="196.5" y="-158.3" font-family="Helvetica,sans-Serif" font-size="14.00">RT_DQ</text>
</a>
</g>
</g>
<!-- dir_7b9f414af7497816ec826d16b4a48f56 -->
<g id="node2" class="node"><title>dir_7b9f414af7497816ec826d16b4a48f56</title>
<g id="a_node2"><a xlink:href="dir_7b9f414af7497816ec826d16b4a48f56.html" target="_top" xlink:title="functions">
<polygon fill="none" stroke="black" points="71,-108 0,-108 0,-72 71,-72 71,-108"/>
<text text-anchor="middle" x="35.5" y="-86.3" font-family="Helvetica,sans-Serif" font-size="14.00">functions</text>
</a>
</g>
</g>
<!-- dir_40300847c955504bce2fdd2e36190bd8&#45;&gt;dir_7b9f414af7497816ec826d16b4a48f56 -->
<g id="edge2" class="edge"><title>dir_40300847c955504bce2fdd2e36190bd8&#45;&gt;dir_7b9f414af7497816ec826d16b4a48f56</title>
<path fill="none" stroke="black" d="M164.692,-147.17C140.591,-136.692 107.163,-122.158 80.3482,-110.499"/>
<polygon fill="black" stroke="black" points="81.7318,-107.284 71.1656,-106.507 78.9407,-113.704 81.7318,-107.284"/>
<g id="a_edge2&#45;headlabel"><a xlink:href="dir_000007_000002.html" target="_top" xlink:title="3">
<text text-anchor="middle" x="86.1604" y="-102.414" font-family="Helvetica,sans-Serif" font-size="14.00">3</text>
</a>
</g>
</g>
<!-- dir_08d94101c6095526b8db80c237e9cc42 -->
<g id="node3" class="node"><title>dir_08d94101c6095526b8db80c237e9cc42</title>
<g id="a_node3"><a xlink:href="dir_08d94101c6095526b8db80c237e9cc42.html" target="_top" xlink:title="linear_algebra">
<polygon fill="none" stroke="black" points="191.5,-108 89.5,-108 89.5,-72 191.5,-72 191.5,-108"/>
<text text-anchor="middle" x="140.5" y="-86.3" font-family="Helvetica,sans-Serif" font-size="14.00">linear_algebra</text>
</a>
</g>
</g>
<!-- dir_40300847c955504bce2fdd2e36190bd8&#45;&gt;dir_08d94101c6095526b8db80c237e9cc42 -->
<g id="edge3" class="edge"><title>dir_40300847c955504bce2fdd2e36190bd8&#45;&gt;dir_08d94101c6095526b8db80c237e9cc42</title>
<path fill="none" stroke="black" d="M182.657,-143.697C176.011,-135.389 167.922,-125.277 160.613,-116.141"/>
<polygon fill="black" stroke="black" points="163.164,-113.727 154.183,-108.104 157.697,-118.099 163.164,-113.727"/>
<g id="a_edge3&#45;headlabel"><a xlink:href="dir_000007_000003.html" target="_top" xlink:title="15">
<text text-anchor="middle" x="167.626" y="-111.06" font-family="Helvetica,sans-Serif" font-size="14.00">15</text>
</a>
</g>
</g>
<!-- dir_12dc6111bffae2de992502b826ed130a -->
<g id="node4" class="node"><title>dir_12dc6111bffae2de992502b826ed130a</title>
<g id="a_node4"><a xlink:href="dir_12dc6111bffae2de992502b826ed130a.html" target="_top" xlink:title="vector_tools">
<polygon fill="none" stroke="black" points="298,-108 209,-108 209,-72 298,-72 298,-108"/>
<text text-anchor="middle" x="253.5" y="-86.3" font-family="Helvetica,sans-Serif" font-size="14.00">vector_tools</text>
</a>
</g>
</g>
<!-- dir_40300847c955504bce2fdd2e36190bd8&#45;&gt;dir_12dc6111bffae2de992502b826ed130a -->
<g id="edge4" class="edge"><title>dir_40300847c955504bce2fdd2e36190bd8&#45;&gt;dir_12dc6111bffae2de992502b826ed130a</title>
<path fill="none" stroke="black" d="M210.59,-143.697C217.423,-135.305 225.757,-125.07 233.256,-115.861"/>
<polygon fill="black" stroke="black" points="235.972,-118.069 239.572,-108.104 230.544,-113.649 235.972,-118.069"/>
<g id="a_edge4&#45;headlabel"><a xlink:href="dir_000007_000009.html" target="_top" xlink:title="3">
<text text-anchor="middle" x="235.904" y="-118.949" font-family="Helvetica,sans-Serif" font-size="14.00">3</text>
</a>
</g>
</g>
<!-- dir_94cbabdd1ed76852c334cba7875b9d08 -->
<g id="node5" class="node"><title>dir_94cbabdd1ed76852c334cba7875b9d08</title>
<g id="a_node5"><a xlink:href="dir_94cbabdd1ed76852c334cba7875b9d08.html" target="_top" xlink:title="equation_data">
<polygon fill="none" stroke="black" points="340.5,-36 238.5,-36 238.5,-0 340.5,-0 340.5,-36"/>
<text text-anchor="middle" x="289.5" y="-14.3" font-family="Helvetica,sans-Serif" font-size="14.00">equation_data</text>
</a>
</g>
</g>
<!-- dir_40300847c955504bce2fdd2e36190bd8&#45;&gt;dir_94cbabdd1ed76852c334cba7875b9d08 -->
<g id="edge5" class="edge"><title>dir_40300847c955504bce2fdd2e36190bd8&#45;&gt;dir_94cbabdd1ed76852c334cba7875b9d08</title>
<path fill="none" stroke="black" d="M228.242,-155.245C254.261,-148.674 289.473,-135.105 306.5,-108 318.329,-89.1703 311.911,-63.9987 303.791,-45.2304"/>
<polygon fill="black" stroke="black" points="306.903,-43.6237 299.477,-36.0669 300.569,-46.6053 306.903,-43.6237"/>
<g id="a_edge5&#45;headlabel"><a xlink:href="dir_000007_000001.html" target="_top" xlink:title="11">
<text text-anchor="middle" x="311.003" y="-41.9666" font-family="Helvetica,sans-Serif" font-size="14.00">11</text>
</a>
</g>
</g>
<!-- dir_12dc6111bffae2de992502b826ed130a&#45;&gt;dir_94cbabdd1ed76852c334cba7875b9d08 -->
<g id="edge1" class="edge"><title>dir_12dc6111bffae2de992502b826ed130a&#45;&gt;dir_94cbabdd1ed76852c334cba7875b9d08</title>
<path fill="none" stroke="black" d="M262.399,-71.6966C266.497,-63.7284 271.449,-54.0995 275.993,-45.2641"/>
<polygon fill="black" stroke="black" points="279.242,-46.598 280.703,-36.1043 273.017,-43.3965 279.242,-46.598"/>
<g id="a_edge1&#45;headlabel"><a xlink:href="dir_000009_000001.html" target="_top" xlink:title="1">
<text text-anchor="middle" x="280.123" y="-47.3931" font-family="Helvetica,sans-Serif" font-size="14.00">1</text>
</a>
</g>
</g>
</g>
</svg>
