<?xml version="1.0" encoding="UTF-8" standalone="no"?>
<!DOCTYPE svg PUBLIC "-//W3C//DTD SVG 1.1//EN"
 "http://www.w3.org/Graphics/SVG/1.1/DTD/svg11.dtd">
<!-- Generated by graphviz version 2.38.0 (20140413.2041)
 -->
<!-- Title: /home/travis/build/konsim83/MPI&#45;MSFEC/source/Ned_RT Pages: 1 -->
<svg width="108pt" height="155pt"
 viewBox="0.00 0.00 108.00 155.00" xmlns="http://www.w3.org/2000/svg" xmlns:xlink="http://www.w3.org/1999/xlink">
<g id="graph0" class="graph" transform="scale(1 1) rotate(0) translate(4 151)">
<title>/home/travis/build/konsim83/MPI&#45;MSFEC/source/Ned_RT</title>
<polygon fill="white" stroke="none" points="-4,4 -4,-151 104,-151 104,4 -4,4"/>
<g id="clust1" class="cluster"><title>clusterdir_b2f33c71d4aa5e7af42a1ca61ff5af1b</title>
<g id="a_clust1"><a xlink:href="dir_b2f33c71d4aa5e7af42a1ca61ff5af1b.html" target="_top" xlink:title="source">
<polygon fill="#ddddee" stroke="black" points="8,-64 8,-139 92,-139 92,-64 8,-64"/>
<text text-anchor="middle" x="50" y="-123.8" font-family="Helvetica,sans-Serif" font-size="14.00">source</text>
</a>
</g>
</g>
<!-- dir_6dab506f8d8cad66b21d021238b9950f -->
<g id="node1" class="node"><title>dir_6dab506f8d8cad66b21d021238b9950f</title>
<g id="a_node1"><a xlink:href="dir_6dab506f8d8cad66b21d021238b9950f.html" target="_top" xlink:title="Ned_RT">
<polygon fill="#eeeeff" stroke="black" points="83.5,-108 16.5,-108 16.5,-72 83.5,-72 83.5,-108"/>
<text text-anchor="middle" x="50" y="-86.3" font-family="Helvetica,sans-Serif" font-size="14.00">Ned_RT</text>
</a>
</g>
</g>
<!-- dir_d44c64559bbebec7f509842c48db8b23 -->
<g id="node2" class="node"><title>dir_d44c64559bbebec7f509842c48db8b23</title>
<g id="a_node2"><a xlink:href="dir_d44c64559bbebec7f509842c48db8b23.html" target="_top" xlink:title="include">
<polygon fill="white" stroke="red" points="79.5,-36 20.5,-36 20.5,-0 79.5,-0 79.5,-36"/>
<text text-anchor="middle" x="50" y="-14.3" font-family="Helvetica,sans-Serif" font-size="14.00">include</text>
</a>
</g>
</g>
<!-- dir_6dab506f8d8cad66b21d021238b9950f&#45;&gt;dir_d44c64559bbebec7f509842c48db8b23 -->
<g id="edge1" class="edge"><title>dir_6dab506f8d8cad66b21d021238b9950f&#45;&gt;dir_d44c64559bbebec7f509842c48db8b23</title>
<path fill="none" stroke="black" d="M50,-71.6966C50,-63.9827 50,-54.7125 50,-46.1124"/>
<polygon fill="black" stroke="black" points="53.5001,-46.1043 50,-36.1043 46.5001,-46.1044 53.5001,-46.1043"/>
<g id="a_edge1&#45;headlabel"><a xlink:href="dir_000013_000000.html" target="_top" xlink:title="5">
<text text-anchor="middle" x="56.3393" y="-45.999" font-family="Helvetica,sans-Serif" font-size="14.00">5</text>
</a>
</g>
</g>
</g>
</svg>
