<?xml version="1.0" encoding="UTF-8" standalone="no"?>
<!DOCTYPE svg PUBLIC "-//W3C//DTD SVG 1.1//EN"
 "http://www.w3.org/Graphics/SVG/1.1/DTD/svg11.dtd">
<!-- Generated by graphviz version 2.38.0 (20140413.2041)
 -->
<!-- Title: /home/travis/build/konsim83/MPI&#45;MSFEC/source/functions Pages: 1 -->
<svg width="112pt" height="155pt"
 viewBox="0.00 0.00 112.00 155.00" xmlns="http://www.w3.org/2000/svg" xmlns:xlink="http://www.w3.org/1999/xlink">
<g id="graph0" class="graph" transform="scale(1 1) rotate(0) translate(4 151)">
<title>/home/travis/build/konsim83/MPI&#45;MSFEC/source/functions</title>
<polygon fill="white" stroke="none" points="-4,4 -4,-151 108,-151 108,4 -4,4"/>
<g id="clust1" class="cluster"><title>clusterdir_b2f33c71d4aa5e7af42a1ca61ff5af1b</title>
<g id="a_clust1"><a xlink:href="dir_b2f33c71d4aa5e7af42a1ca61ff5af1b.html" target="_top" xlink:title="source">
<polygon fill="#ddddee" stroke="black" points="8,-64 8,-139 96,-139 96,-64 8,-64"/>
<text text-anchor="middle" x="52" y="-123.8" font-family="Helvetica,sans-Serif" font-size="14.00">source</text>
</a>
</g>
</g>
<!-- dir_b40a68cae06189806c437bbd4f17f6e2 -->
<g id="node1" class="node"><title>dir_b40a68cae06189806c437bbd4f17f6e2</title>
<g id="a_node1"><a xlink:href="dir_b40a68cae06189806c437bbd4f17f6e2.html" target="_top" xlink:title="functions">
<polygon fill="#eeeeff" stroke="black" points="87.5,-108 16.5,-108 16.5,-72 87.5,-72 87.5,-108"/>
<text text-anchor="middle" x="52" y="-86.3" font-family="Helvetica,sans-Serif" font-size="14.00">functions</text>
</a>
</g>
</g>
<!-- dir_d44c64559bbebec7f509842c48db8b23 -->
<g id="node2" class="node"><title>dir_d44c64559bbebec7f509842c48db8b23</title>
<g id="a_node2"><a xlink:href="dir_d44c64559bbebec7f509842c48db8b23.html" target="_top" xlink:title="include">
<polygon fill="white" stroke="red" points="81.5,-36 22.5,-36 22.5,-0 81.5,-0 81.5,-36"/>
<text text-anchor="middle" x="52" y="-14.3" font-family="Helvetica,sans-Serif" font-size="14.00">include</text>
</a>
</g>
</g>
<!-- dir_b40a68cae06189806c437bbd4f17f6e2&#45;&gt;dir_d44c64559bbebec7f509842c48db8b23 -->
<g id="edge1" class="edge"><title>dir_b40a68cae06189806c437bbd4f17f6e2&#45;&gt;dir_d44c64559bbebec7f509842c48db8b23</title>
<path fill="none" stroke="black" d="M52,-71.6966C52,-63.9827 52,-54.7125 52,-46.1124"/>
<polygon fill="black" stroke="black" points="55.5001,-46.1043 52,-36.1043 48.5001,-46.1044 55.5001,-46.1043"/>
<g id="a_edge1&#45;headlabel"><a xlink:href="dir_000012_000000.html" target="_top" xlink:title="12">
<text text-anchor="middle" x="58.3393" y="-45.999" font-family="Helvetica,sans-Serif" font-size="14.00">12</text>
</a>
</g>
</g>
</g>
</svg>
