<?xml version="1.0" encoding="UTF-8" standalone="no"?>
<!DOCTYPE svg PUBLIC "-//W3C//DTD SVG 1.1//EN"
 "http://www.w3.org/Graphics/SVG/1.1/DTD/svg11.dtd">
<!-- Generated by graphviz version 2.38.0 (20140413.2041)
 -->
<!-- Title: /home/travis/build/konsim83/MPI&#45;MSFEC/source Pages: 1 -->
<svg width="804pt" height="132pt"
 viewBox="0.00 0.00 804.00 132.00" xmlns="http://www.w3.org/2000/svg" xmlns:xlink="http://www.w3.org/1999/xlink">
<g id="graph0" class="graph" transform="scale(1 1) rotate(0) translate(4 128)">
<title>/home/travis/build/konsim83/MPI&#45;MSFEC/source</title>
<polygon fill="white" stroke="none" points="-4,4 -4,-128 800,-128 800,4 -4,4"/>
<g id="clust1" class="cluster"><title>clusterdir_b2f33c71d4aa5e7af42a1ca61ff5af1b</title>
<g id="a_clust1"><a xlink:href="dir_b2f33c71d4aa5e7af42a1ca61ff5af1b.html" target="_top">
<polygon fill="#eeeeff" stroke="black" points="8,-64 8,-116 788,-116 788,-64 8,-64"/>
</a>
</g>
</g>
<!-- dir_b2f33c71d4aa5e7af42a1ca61ff5af1b -->
<g id="node1" class="node"><title>dir_b2f33c71d4aa5e7af42a1ca61ff5af1b</title>
<text text-anchor="middle" x="751" y="-86.3" font-family="Helvetica,sans-Serif" font-size="14.00">source</text>
</g>
<!-- dir_f2b4e008eea92d3a4746afc9693bce17 -->
<g id="node2" class="node"><title>dir_f2b4e008eea92d3a4746afc9693bce17</title>
<g id="a_node2"><a xlink:href="dir_f2b4e008eea92d3a4746afc9693bce17.html" target="_top" xlink:title="equation_data">
<polygon fill="white" stroke="black" points="704,-108 602,-108 602,-72 704,-72 704,-108"/>
<text text-anchor="middle" x="653" y="-86.3" font-family="Helvetica,sans-Serif" font-size="14.00">equation_data</text>
</a>
</g>
</g>
<!-- dir_d44c64559bbebec7f509842c48db8b23 -->
<g id="node10" class="node"><title>dir_d44c64559bbebec7f509842c48db8b23</title>
<g id="a_node10"><a xlink:href="dir_d44c64559bbebec7f509842c48db8b23.html" target="_top" xlink:title="include">
<polygon fill="white" stroke="red" points="373.5,-36 314.5,-36 314.5,-0 373.5,-0 373.5,-36"/>
<text text-anchor="middle" x="344" y="-14.3" font-family="Helvetica,sans-Serif" font-size="14.00">include</text>
</a>
</g>
</g>
<!-- dir_f2b4e008eea92d3a4746afc9693bce17&#45;&gt;dir_d44c64559bbebec7f509842c48db8b23 -->
<g id="edge8" class="edge"><title>dir_f2b4e008eea92d3a4746afc9693bce17&#45;&gt;dir_d44c64559bbebec7f509842c48db8b23</title>
<path fill="none" stroke="black" d="M615.682,-71.9953C608.27,-69.0341 600.468,-66.2026 593,-64 520.62,-42.6534 433.26,-29.6927 383.614,-23.4754"/>
<polygon fill="black" stroke="black" points="383.963,-19.9921 373.612,-22.2505 383.112,-26.9402 383.963,-19.9921"/>
<g id="a_edge8&#45;headlabel"><a xlink:href="dir_000011_000000.html" target="_top" xlink:title="6">
<text text-anchor="middle" x="387.876" y="-13.9107" font-family="Helvetica,sans-Serif" font-size="14.00">6</text>
</a>
</g>
</g>
<!-- dir_b40a68cae06189806c437bbd4f17f6e2 -->
<g id="node3" class="node"><title>dir_b40a68cae06189806c437bbd4f17f6e2</title>
<g id="a_node3"><a xlink:href="dir_b40a68cae06189806c437bbd4f17f6e2.html" target="_top" xlink:title="functions">
<polygon fill="white" stroke="black" points="583.5,-108 512.5,-108 512.5,-72 583.5,-72 583.5,-108"/>
<text text-anchor="middle" x="548" y="-86.3" font-family="Helvetica,sans-Serif" font-size="14.00">functions</text>
</a>
</g>
</g>
<!-- dir_b40a68cae06189806c437bbd4f17f6e2&#45;&gt;dir_d44c64559bbebec7f509842c48db8b23 -->
<g id="edge2" class="edge"><title>dir_b40a68cae06189806c437bbd4f17f6e2&#45;&gt;dir_d44c64559bbebec7f509842c48db8b23</title>
<path fill="none" stroke="black" d="M520.109,-71.8194C514.868,-68.9773 509.351,-66.2337 504,-64 464.353,-47.4508 416.704,-34.9302 383.77,-27.3499"/>
<polygon fill="black" stroke="black" points="384.148,-23.8474 373.623,-25.0635 382.609,-30.6762 384.148,-23.8474"/>
<g id="a_edge2&#45;headlabel"><a xlink:href="dir_000012_000000.html" target="_top" xlink:title="12">
<text text-anchor="middle" x="388.279" y="-18.1677" font-family="Helvetica,sans-Serif" font-size="14.00">12</text>
</a>
</g>
</g>
<!-- dir_6dab506f8d8cad66b21d021238b9950f -->
<g id="node4" class="node"><title>dir_6dab506f8d8cad66b21d021238b9950f</title>
<g id="a_node4"><a xlink:href="dir_6dab506f8d8cad66b21d021238b9950f.html" target="_top" xlink:title="Ned_RT">
<polygon fill="white" stroke="black" points="494.5,-108 427.5,-108 427.5,-72 494.5,-72 494.5,-108"/>
<text text-anchor="middle" x="461" y="-86.3" font-family="Helvetica,sans-Serif" font-size="14.00">Ned_RT</text>
</a>
</g>
</g>
<!-- dir_6dab506f8d8cad66b21d021238b9950f&#45;&gt;dir_d44c64559bbebec7f509842c48db8b23 -->
<g id="edge6" class="edge"><title>dir_6dab506f8d8cad66b21d021238b9950f&#45;&gt;dir_d44c64559bbebec7f509842c48db8b23</title>
<path fill="none" stroke="black" d="M432.379,-71.8761C417.081,-62.7236 398.057,-51.3417 381.582,-41.485"/>
<polygon fill="black" stroke="black" points="383.11,-38.3205 372.731,-36.1898 379.516,-44.3275 383.11,-38.3205"/>
<g id="a_edge6&#45;headlabel"><a xlink:href="dir_000013_000000.html" target="_top" xlink:title="5">
<text text-anchor="middle" x="387.652" y="-34.0295" font-family="Helvetica,sans-Serif" font-size="14.00">5</text>
</a>
</g>
</g>
<!-- dir_8193a62b90c54355d5501291979a62fb -->
<g id="node5" class="node"><title>dir_8193a62b90c54355d5501291979a62fb</title>
<g id="a_node5"><a xlink:href="dir_8193a62b90c54355d5501291979a62fb.html" target="_top" xlink:title="Q">
<polygon fill="white" stroke="black" points="409,-108 355,-108 355,-72 409,-72 409,-108"/>
<text text-anchor="middle" x="382" y="-86.3" font-family="Helvetica,sans-Serif" font-size="14.00">Q</text>
</a>
</g>
</g>
<!-- dir_8193a62b90c54355d5501291979a62fb&#45;&gt;dir_d44c64559bbebec7f509842c48db8b23 -->
<g id="edge7" class="edge"><title>dir_8193a62b90c54355d5501291979a62fb&#45;&gt;dir_d44c64559bbebec7f509842c48db8b23</title>
<path fill="none" stroke="black" d="M372.607,-71.6966C368.235,-63.6436 362.943,-53.8945 358.105,-44.9824"/>
<polygon fill="black" stroke="black" points="361.132,-43.223 353.285,-36.1043 354.98,-46.5627 361.132,-43.223"/>
<g id="a_edge7&#45;headlabel"><a xlink:href="dir_000014_000000.html" target="_top" xlink:title="5">
<text text-anchor="middle" x="365.342" y="-41.3276" font-family="Helvetica,sans-Serif" font-size="14.00">5</text>
</a>
</g>
</g>
<!-- dir_066c71d0135ba7e460bde1ce0b2af449 -->
<g id="node6" class="node"><title>dir_066c71d0135ba7e460bde1ce0b2af449</title>
<g id="a_node6"><a xlink:href="dir_066c71d0135ba7e460bde1ce0b2af449.html" target="_top" xlink:title="Q_Ned">
<polygon fill="white" stroke="black" points="337,-108 277,-108 277,-72 337,-72 337,-108"/>
<text text-anchor="middle" x="307" y="-86.3" font-family="Helvetica,sans-Serif" font-size="14.00">Q_Ned</text>
</a>
</g>
</g>
<!-- dir_066c71d0135ba7e460bde1ce0b2af449&#45;&gt;dir_d44c64559bbebec7f509842c48db8b23 -->
<g id="edge3" class="edge"><title>dir_066c71d0135ba7e460bde1ce0b2af449&#45;&gt;dir_d44c64559bbebec7f509842c48db8b23</title>
<path fill="none" stroke="black" d="M316.146,-71.6966C320.403,-63.6436 325.556,-53.8945 330.266,-44.9824"/>
<polygon fill="black" stroke="black" points="333.38,-46.5809 334.959,-36.1043 327.192,-43.3097 333.38,-46.5809"/>
<g id="a_edge3&#45;headlabel"><a xlink:href="dir_000015_000000.html" target="_top" xlink:title="5">
<text text-anchor="middle" x="334.211" y="-47.3857" font-family="Helvetica,sans-Serif" font-size="14.00">5</text>
</a>
</g>
</g>
<!-- dir_9a0c0baf1216cb3d3b0d91d1e3b7e614 -->
<g id="node7" class="node"><title>dir_9a0c0baf1216cb3d3b0d91d1e3b7e614</title>
<g id="a_node7"><a xlink:href="dir_9a0c0baf1216cb3d3b0d91d1e3b7e614.html" target="_top" xlink:title="RT_DQ">
<polygon fill="white" stroke="black" points="258.5,-108 195.5,-108 195.5,-72 258.5,-72 258.5,-108"/>
<text text-anchor="middle" x="227" y="-86.3" font-family="Helvetica,sans-Serif" font-size="14.00">RT_DQ</text>
</a>
</g>
</g>
<!-- dir_9a0c0baf1216cb3d3b0d91d1e3b7e614&#45;&gt;dir_d44c64559bbebec7f509842c48db8b23 -->
<g id="edge5" class="edge"><title>dir_9a0c0baf1216cb3d3b0d91d1e3b7e614&#45;&gt;dir_d44c64559bbebec7f509842c48db8b23</title>
<path fill="none" stroke="black" d="M255.202,-71.7379C259.484,-69.1358 263.855,-66.4905 268,-64 280.48,-56.5007 294.158,-48.3737 306.428,-41.1163"/>
<polygon fill="black" stroke="black" points="308.247,-44.1069 315.076,-36.0069 304.686,-38.0801 308.247,-44.1069"/>
<g id="a_edge5&#45;headlabel"><a xlink:href="dir_000016_000000.html" target="_top" xlink:title="5">
<text text-anchor="middle" x="306.596" y="-44.6798" font-family="Helvetica,sans-Serif" font-size="14.00">5</text>
</a>
</g>
</g>
<!-- dir_07dcac86e5e10a018f04ab218a57e611 -->
<g id="node8" class="node"><title>dir_07dcac86e5e10a018f04ab218a57e611</title>
<g id="a_node8"><a xlink:href="dir_07dcac86e5e10a018f04ab218a57e611.html" target="_top" xlink:title="trunk">
<polygon fill="white" stroke="black" points="177,-108 123,-108 123,-72 177,-72 177,-108"/>
<text text-anchor="middle" x="150" y="-86.3" font-family="Helvetica,sans-Serif" font-size="14.00">trunk</text>
</a>
</g>
</g>
<!-- dir_07dcac86e5e10a018f04ab218a57e611&#45;&gt;dir_d44c64559bbebec7f509842c48db8b23 -->
<g id="edge4" class="edge"><title>dir_07dcac86e5e10a018f04ab218a57e611&#45;&gt;dir_d44c64559bbebec7f509842c48db8b23</title>
<path fill="none" stroke="black" d="M172.826,-71.9619C177.373,-69.0386 182.223,-66.2296 187,-64 225.139,-46.1996 271.833,-33.9126 304.339,-26.7298"/>
<polygon fill="black" stroke="black" points="305.323,-30.0982 314.366,-24.5765 303.854,-23.2543 305.323,-30.0982"/>
<g id="a_edge4&#45;headlabel"><a xlink:href="dir_000017_000000.html" target="_top" xlink:title="1">
<text text-anchor="middle" x="302.405" y="-29.9289" font-family="Helvetica,sans-Serif" font-size="14.00">1</text>
</a>
</g>
</g>
<!-- dir_b24058314df6f7f384949f4ef8745825 -->
<g id="node9" class="node"><title>dir_b24058314df6f7f384949f4ef8745825</title>
<g id="a_node9"><a xlink:href="dir_b24058314df6f7f384949f4ef8745825.html" target="_top" xlink:title="vector_tools">
<polygon fill="white" stroke="black" points="104.5,-108 15.5,-108 15.5,-72 104.5,-72 104.5,-108"/>
<text text-anchor="middle" x="60" y="-86.3" font-family="Helvetica,sans-Serif" font-size="14.00">vector_tools</text>
</a>
</g>
</g>
<!-- dir_b24058314df6f7f384949f4ef8745825&#45;&gt;dir_d44c64559bbebec7f509842c48db8b23 -->
<g id="edge1" class="edge"><title>dir_b24058314df6f7f384949f4ef8745825&#45;&gt;dir_d44c64559bbebec7f509842c48db8b23</title>
<path fill="none" stroke="black" d="M93.4909,-71.9873C100.17,-69.0268 107.219,-66.1976 114,-64 179.132,-42.8924 258.014,-30.0906 304.429,-23.7954"/>
<polygon fill="black" stroke="black" points="304.929,-27.2599 314.383,-22.4779 304.01,-20.3204 304.929,-27.2599"/>
<g id="a_edge1&#45;headlabel"><a xlink:href="dir_000018_000000.html" target="_top" xlink:title="1">
<text text-anchor="middle" x="301.738" y="-26.8461" font-family="Helvetica,sans-Serif" font-size="14.00">1</text>
</a>
</g>
</g>
</g>
</svg>
