<?xml version="1.0" encoding="UTF-8" standalone="no"?>
<!DOCTYPE svg PUBLIC "-//W3C//DTD SVG 1.1//EN"
 "http://www.w3.org/Graphics/SVG/1.1/DTD/svg11.dtd">
<!-- Generated by graphviz version 2.38.0 (20140413.2041)
 -->
<!-- Title: /home/travis/build/konsim83/MPI&#45;MSFEC/include Pages: 1 -->
<svg width="489pt" height="220pt"
 viewBox="0.00 0.00 489.00 220.00" xmlns="http://www.w3.org/2000/svg" xmlns:xlink="http://www.w3.org/1999/xlink">
<g id="graph0" class="graph" transform="scale(1 1) rotate(0) translate(4 216)">
<title>/home/travis/build/konsim83/MPI&#45;MSFEC/include</title>
<polygon fill="white" stroke="none" points="-4,4 -4,-216 485,-216 485,4 -4,4"/>
<g id="clust1" class="cluster"><title>clusterdir_d44c64559bbebec7f509842c48db8b23</title>
<g id="a_clust1"><a xlink:href="dir_d44c64559bbebec7f509842c48db8b23.html" target="_top">
<polygon fill="#eeeeff" stroke="black" points="8,-8 8,-204 473,-204 473,-8 8,-8"/>
</a>
</g>
</g>
<!-- dir_d44c64559bbebec7f509842c48db8b23 -->
<g id="node1" class="node"><title>dir_d44c64559bbebec7f509842c48db8b23</title>
<text text-anchor="middle" x="435" y="-174.3" font-family="Helvetica,sans-Serif" font-size="14.00">include</text>
</g>
<!-- dir_94cbabdd1ed76852c334cba7875b9d08 -->
<g id="node2" class="node"><title>dir_94cbabdd1ed76852c334cba7875b9d08</title>
<g id="a_node2"><a xlink:href="dir_94cbabdd1ed76852c334cba7875b9d08.html" target="_top" xlink:title="equation_data">
<polygon fill="white" stroke="black" points="292,-52 190,-52 190,-16 292,-16 292,-52"/>
<text text-anchor="middle" x="241" y="-30.3" font-family="Helvetica,sans-Serif" font-size="14.00">equation_data</text>
</a>
</g>
</g>
<!-- dir_7b9f414af7497816ec826d16b4a48f56 -->
<g id="node3" class="node"><title>dir_7b9f414af7497816ec826d16b4a48f56</title>
<g id="a_node3"><a xlink:href="dir_7b9f414af7497816ec826d16b4a48f56.html" target="_top" xlink:title="functions">
<polygon fill="white" stroke="black" points="178.5,-124 107.5,-124 107.5,-88 178.5,-88 178.5,-124"/>
<text text-anchor="middle" x="143" y="-102.3" font-family="Helvetica,sans-Serif" font-size="14.00">functions</text>
</a>
</g>
</g>
<!-- dir_08d94101c6095526b8db80c237e9cc42 -->
<g id="node4" class="node"><title>dir_08d94101c6095526b8db80c237e9cc42</title>
<g id="a_node4"><a xlink:href="dir_08d94101c6095526b8db80c237e9cc42.html" target="_top" xlink:title="linear_algebra">
<polygon fill="white" stroke="black" points="405,-124 303,-124 303,-88 405,-88 405,-124"/>
<text text-anchor="middle" x="354" y="-102.3" font-family="Helvetica,sans-Serif" font-size="14.00">linear_algebra</text>
</a>
</g>
</g>
<!-- dir_0a04572bbb4aea4baf32e0a73eb1074c -->
<g id="node5" class="node"><title>dir_0a04572bbb4aea4baf32e0a73eb1074c</title>
<g id="a_node5"><a xlink:href="dir_0a04572bbb4aea4baf32e0a73eb1074c.html" target="_top" xlink:title="Ned_RT">
<polygon fill="white" stroke="black" points="387.5,-196 320.5,-196 320.5,-160 387.5,-160 387.5,-196"/>
<text text-anchor="middle" x="354" y="-174.3" font-family="Helvetica,sans-Serif" font-size="14.00">Ned_RT</text>
</a>
</g>
</g>
<!-- dir_0a04572bbb4aea4baf32e0a73eb1074c&#45;&gt;dir_94cbabdd1ed76852c334cba7875b9d08 -->
<g id="edge16" class="edge"><title>dir_0a04572bbb4aea4baf32e0a73eb1074c&#45;&gt;dir_94cbabdd1ed76852c334cba7875b9d08</title>
<path fill="none" stroke="black" d="M387.358,-159.855C400.707,-151.091 414.642,-139.063 422,-124 429.022,-109.623 431.593,-100.805 422,-88 407.414,-68.5302 348.777,-53.8059 302.143,-44.8779"/>
<polygon fill="black" stroke="black" points="302.565,-41.3965 292.093,-43.0067 301.283,-48.2782 302.565,-41.3965"/>
<g id="a_edge16&#45;headlabel"><a xlink:href="dir_000004_000001.html" target="_top" xlink:title="13">
<text text-anchor="middle" x="306.618" y="-35.5631" font-family="Helvetica,sans-Serif" font-size="14.00">13</text>
</a>
</g>
</g>
<!-- dir_0a04572bbb4aea4baf32e0a73eb1074c&#45;&gt;dir_7b9f414af7497816ec826d16b4a48f56 -->
<g id="edge13" class="edge"><title>dir_0a04572bbb4aea4baf32e0a73eb1074c&#45;&gt;dir_7b9f414af7497816ec826d16b4a48f56</title>
<path fill="none" stroke="black" d="M320.31,-163.335C317.177,-162.168 314.038,-161.039 311,-160 259.564,-142.409 243.096,-142.314 188.425,-124.344"/>
<polygon fill="black" stroke="black" points="189.52,-121.02 178.926,-121.171 187.302,-127.659 189.52,-121.02"/>
<g id="a_edge13&#45;headlabel"><a xlink:href="dir_000004_000002.html" target="_top" xlink:title="5">
<text text-anchor="middle" x="193.829" y="-115.766" font-family="Helvetica,sans-Serif" font-size="14.00">5</text>
</a>
</g>
</g>
<!-- dir_0a04572bbb4aea4baf32e0a73eb1074c&#45;&gt;dir_08d94101c6095526b8db80c237e9cc42 -->
<g id="edge14" class="edge"><title>dir_0a04572bbb4aea4baf32e0a73eb1074c&#45;&gt;dir_08d94101c6095526b8db80c237e9cc42</title>
<path fill="none" stroke="black" d="M354,-159.697C354,-151.983 354,-142.712 354,-134.112"/>
<polygon fill="black" stroke="black" points="357.5,-134.104 354,-124.104 350.5,-134.104 357.5,-134.104"/>
<g id="a_edge14&#45;headlabel"><a xlink:href="dir_000004_000003.html" target="_top" xlink:title="16">
<text text-anchor="middle" x="360.339" y="-133.999" font-family="Helvetica,sans-Serif" font-size="14.00">16</text>
</a>
</g>
</g>
<!-- dir_12dc6111bffae2de992502b826ed130a -->
<g id="node10" class="node"><title>dir_12dc6111bffae2de992502b826ed130a</title>
<g id="a_node10"><a xlink:href="dir_12dc6111bffae2de992502b826ed130a.html" target="_top" xlink:title="vector_tools">
<polygon fill="white" stroke="black" points="285.5,-124 196.5,-124 196.5,-88 285.5,-88 285.5,-124"/>
<text text-anchor="middle" x="241" y="-102.3" font-family="Helvetica,sans-Serif" font-size="14.00">vector_tools</text>
</a>
</g>
</g>
<!-- dir_0a04572bbb4aea4baf32e0a73eb1074c&#45;&gt;dir_12dc6111bffae2de992502b826ed130a -->
<g id="edge15" class="edge"><title>dir_0a04572bbb4aea4baf32e0a73eb1074c&#45;&gt;dir_12dc6111bffae2de992502b826ed130a</title>
<path fill="none" stroke="black" d="M326.357,-159.876C311.582,-150.724 293.209,-139.342 277.297,-129.485"/>
<polygon fill="black" stroke="black" points="279.093,-126.481 268.749,-124.19 275.407,-132.431 279.093,-126.481"/>
<g id="a_edge15&#45;headlabel"><a xlink:href="dir_000004_000009.html" target="_top" xlink:title="3">
<text text-anchor="middle" x="283.644" y="-122.26" font-family="Helvetica,sans-Serif" font-size="14.00">3</text>
</a>
</g>
</g>
<!-- dir_49573812a41deed162c4ee230890bf7e -->
<g id="node6" class="node"><title>dir_49573812a41deed162c4ee230890bf7e</title>
<g id="a_node6"><a xlink:href="dir_49573812a41deed162c4ee230890bf7e.html" target="_top" xlink:title="Q">
<polygon fill="white" stroke="black" points="142,-196 88,-196 88,-160 142,-160 142,-196"/>
<text text-anchor="middle" x="115" y="-174.3" font-family="Helvetica,sans-Serif" font-size="14.00">Q</text>
</a>
</g>
</g>
<!-- dir_49573812a41deed162c4ee230890bf7e&#45;&gt;dir_94cbabdd1ed76852c334cba7875b9d08 -->
<g id="edge8" class="edge"><title>dir_49573812a41deed162c4ee230890bf7e&#45;&gt;dir_94cbabdd1ed76852c334cba7875b9d08</title>
<path fill="none" stroke="black" d="M101.571,-159.831C88.4229,-140.775 72.4553,-109.836 88,-88 108.758,-58.8408 146.717,-45.5765 179.63,-39.6091"/>
<polygon fill="black" stroke="black" points="180.348,-43.0385 189.658,-37.9819 179.227,-36.1289 180.348,-43.0385"/>
<g id="a_edge8&#45;headlabel"><a xlink:href="dir_000005_000001.html" target="_top" xlink:title="11">
<text text-anchor="middle" x="177.254" y="-42.7168" font-family="Helvetica,sans-Serif" font-size="14.00">11</text>
</a>
</g>
</g>
<!-- dir_49573812a41deed162c4ee230890bf7e&#45;&gt;dir_7b9f414af7497816ec826d16b4a48f56 -->
<g id="edge6" class="edge"><title>dir_49573812a41deed162c4ee230890bf7e&#45;&gt;dir_7b9f414af7497816ec826d16b4a48f56</title>
<path fill="none" stroke="black" d="M121.921,-159.697C125.075,-151.813 128.878,-142.304 132.381,-133.546"/>
<polygon fill="black" stroke="black" points="135.694,-134.689 136.158,-124.104 129.195,-132.089 135.694,-134.689"/>
<g id="a_edge6&#45;headlabel"><a xlink:href="dir_000005_000002.html" target="_top" xlink:title="1">
<text text-anchor="middle" x="136.995" y="-135.381" font-family="Helvetica,sans-Serif" font-size="14.00">1</text>
</a>
</g>
</g>
<!-- dir_49573812a41deed162c4ee230890bf7e&#45;&gt;dir_12dc6111bffae2de992502b826ed130a -->
<g id="edge7" class="edge"><title>dir_49573812a41deed162c4ee230890bf7e&#45;&gt;dir_12dc6111bffae2de992502b826ed130a</title>
<path fill="none" stroke="black" d="M142.03,-161.983C159.259,-152.412 181.886,-139.841 201.155,-129.136"/>
<polygon fill="black" stroke="black" points="202.981,-132.125 210.023,-124.209 199.582,-126.006 202.981,-132.125"/>
<g id="a_edge7&#45;headlabel"><a xlink:href="dir_000005_000009.html" target="_top" xlink:title="2">
<text text-anchor="middle" x="201.218" y="-132.653" font-family="Helvetica,sans-Serif" font-size="14.00">2</text>
</a>
</g>
</g>
<!-- dir_ee097a784d6cab2b000d061ad19a5422 -->
<g id="node7" class="node"><title>dir_ee097a784d6cab2b000d061ad19a5422</title>
<g id="a_node7"><a xlink:href="dir_ee097a784d6cab2b000d061ad19a5422.html" target="_top" xlink:title="Q_Ned">
<polygon fill="white" stroke="black" points="302,-196 242,-196 242,-160 302,-160 302,-196"/>
<text text-anchor="middle" x="272" y="-174.3" font-family="Helvetica,sans-Serif" font-size="14.00">Q_Ned</text>
</a>
</g>
</g>
<!-- dir_ee097a784d6cab2b000d061ad19a5422&#45;&gt;dir_94cbabdd1ed76852c334cba7875b9d08 -->
<g id="edge4" class="edge"><title>dir_ee097a784d6cab2b000d061ad19a5422&#45;&gt;dir_94cbabdd1ed76852c334cba7875b9d08</title>
<path fill="none" stroke="black" d="M302.141,-163.596C305.122,-162.351 308.112,-161.132 311,-160 356.147,-142.299 385.931,-163.544 414,-124 423.261,-110.953 423.513,-100.864 414,-88 388.539,-53.5706 341.14,-40.78 302.385,-36.3455"/>
<polygon fill="black" stroke="black" points="302.519,-32.8419 292.225,-35.3474 301.835,-39.8084 302.519,-32.8419"/>
<g id="a_edge4&#45;headlabel"><a xlink:href="dir_000006_000001.html" target="_top" xlink:title="16">
<text text-anchor="middle" x="306.374" y="-26.6676" font-family="Helvetica,sans-Serif" font-size="14.00">16</text>
</a>
</g>
</g>
<!-- dir_ee097a784d6cab2b000d061ad19a5422&#45;&gt;dir_7b9f414af7497816ec826d16b4a48f56 -->
<g id="edge1" class="edge"><title>dir_ee097a784d6cab2b000d061ad19a5422&#45;&gt;dir_7b9f414af7497816ec826d16b4a48f56</title>
<path fill="none" stroke="black" d="M241.755,-160.588C224.348,-151.142 202.251,-139.152 183.375,-128.909"/>
<polygon fill="black" stroke="black" points="184.861,-125.733 174.402,-124.04 181.522,-131.886 184.861,-125.733"/>
<g id="a_edge1&#45;headlabel"><a xlink:href="dir_000006_000002.html" target="_top" xlink:title="6">
<text text-anchor="middle" x="189.375" y="-121.252" font-family="Helvetica,sans-Serif" font-size="14.00">6</text>
</a>
</g>
</g>
<!-- dir_ee097a784d6cab2b000d061ad19a5422&#45;&gt;dir_08d94101c6095526b8db80c237e9cc42 -->
<g id="edge2" class="edge"><title>dir_ee097a784d6cab2b000d061ad19a5422&#45;&gt;dir_08d94101c6095526b8db80c237e9cc42</title>
<path fill="none" stroke="black" d="M292.27,-159.697C302.498,-150.965 315.061,-140.24 326.178,-130.75"/>
<polygon fill="black" stroke="black" points="328.63,-133.259 333.963,-124.104 324.085,-127.935 328.63,-133.259"/>
<g id="a_edge2&#45;headlabel"><a xlink:href="dir_000006_000003.html" target="_top" xlink:title="15">
<text text-anchor="middle" x="327.74" y="-134.052" font-family="Helvetica,sans-Serif" font-size="14.00">15</text>
</a>
</g>
</g>
<!-- dir_ee097a784d6cab2b000d061ad19a5422&#45;&gt;dir_12dc6111bffae2de992502b826ed130a -->
<g id="edge3" class="edge"><title>dir_ee097a784d6cab2b000d061ad19a5422&#45;&gt;dir_12dc6111bffae2de992502b826ed130a</title>
<path fill="none" stroke="black" d="M264.337,-159.697C260.808,-151.728 256.544,-142.1 252.631,-133.264"/>
<polygon fill="black" stroke="black" points="255.824,-131.831 248.575,-124.104 249.424,-134.665 255.824,-131.831"/>
<g id="a_edge3&#45;headlabel"><a xlink:href="dir_000006_000009.html" target="_top" xlink:title="3">
<text text-anchor="middle" x="259.876" y="-130.268" font-family="Helvetica,sans-Serif" font-size="14.00">3</text>
</a>
</g>
</g>
<!-- dir_40300847c955504bce2fdd2e36190bd8 -->
<g id="node8" class="node"><title>dir_40300847c955504bce2fdd2e36190bd8</title>
<g id="a_node8"><a xlink:href="dir_40300847c955504bce2fdd2e36190bd8.html" target="_top" xlink:title="RT_DQ">
<polygon fill="white" stroke="black" points="223.5,-196 160.5,-196 160.5,-160 223.5,-160 223.5,-196"/>
<text text-anchor="middle" x="192" y="-174.3" font-family="Helvetica,sans-Serif" font-size="14.00">RT_DQ</text>
</a>
</g>
</g>
<!-- dir_40300847c955504bce2fdd2e36190bd8&#45;&gt;dir_94cbabdd1ed76852c334cba7875b9d08 -->
<g id="edge12" class="edge"><title>dir_40300847c955504bce2fdd2e36190bd8&#45;&gt;dir_94cbabdd1ed76852c334cba7875b9d08</title>
<path fill="none" stroke="black" d="M160.152,-163.279C135.729,-152.029 105.04,-136.052 98,-124 89.9294,-110.185 88.8613,-101.133 98,-88 116.478,-61.4451 149.894,-48.1653 179.779,-41.5378"/>
<polygon fill="black" stroke="black" points="180.636,-44.9356 189.752,-39.5357 179.258,-38.0725 180.636,-44.9356"/>
<g id="a_edge12&#45;headlabel"><a xlink:href="dir_000007_000001.html" target="_top" xlink:title="11">
<text text-anchor="middle" x="177.671" y="-44.7268" font-family="Helvetica,sans-Serif" font-size="14.00">11</text>
</a>
</g>
</g>
<!-- dir_40300847c955504bce2fdd2e36190bd8&#45;&gt;dir_7b9f414af7497816ec826d16b4a48f56 -->
<g id="edge9" class="edge"><title>dir_40300847c955504bce2fdd2e36190bd8&#45;&gt;dir_7b9f414af7497816ec826d16b4a48f56</title>
<path fill="none" stroke="black" d="M179.888,-159.697C174.132,-151.474 167.138,-141.483 160.794,-132.421"/>
<polygon fill="black" stroke="black" points="163.575,-130.29 154.973,-124.104 157.84,-134.304 163.575,-130.29"/>
<g id="a_edge9&#45;headlabel"><a xlink:href="dir_000007_000002.html" target="_top" xlink:title="3">
<text text-anchor="middle" x="167.962" y="-127.906" font-family="Helvetica,sans-Serif" font-size="14.00">3</text>
</a>
</g>
</g>
<!-- dir_40300847c955504bce2fdd2e36190bd8&#45;&gt;dir_08d94101c6095526b8db80c237e9cc42 -->
<g id="edge10" class="edge"><title>dir_40300847c955504bce2fdd2e36190bd8&#45;&gt;dir_08d94101c6095526b8db80c237e9cc42</title>
<path fill="none" stroke="black" d="M223.62,-163.337C246.746,-153.344 278.557,-139.599 304.967,-128.187"/>
<polygon fill="black" stroke="black" points="306.636,-131.279 314.427,-124.099 303.859,-124.853 306.636,-131.279"/>
<g id="a_edge10&#45;headlabel"><a xlink:href="dir_000007_000003.html" target="_top" xlink:title="15">
<text text-anchor="middle" x="304.462" y="-131.611" font-family="Helvetica,sans-Serif" font-size="14.00">15</text>
</a>
</g>
</g>
<!-- dir_40300847c955504bce2fdd2e36190bd8&#45;&gt;dir_12dc6111bffae2de992502b826ed130a -->
<g id="edge11" class="edge"><title>dir_40300847c955504bce2fdd2e36190bd8&#45;&gt;dir_12dc6111bffae2de992502b826ed130a</title>
<path fill="none" stroke="black" d="M204.112,-159.697C209.868,-151.474 216.862,-141.483 223.206,-132.421"/>
<polygon fill="black" stroke="black" points="226.16,-134.304 229.027,-124.104 220.425,-130.29 226.16,-134.304"/>
<g id="a_edge11&#45;headlabel"><a xlink:href="dir_000007_000009.html" target="_top" xlink:title="3">
<text text-anchor="middle" x="226.424" y="-135.177" font-family="Helvetica,sans-Serif" font-size="14.00">3</text>
</a>
</g>
</g>
<!-- dir_68f9ef227cfec1243a05cf9da3ba3c0a -->
<g id="node9" class="node"><title>dir_68f9ef227cfec1243a05cf9da3ba3c0a</title>
<g id="a_node9"><a xlink:href="dir_68f9ef227cfec1243a05cf9da3ba3c0a.html" target="_top" xlink:title="trunk">
<polygon fill="white" stroke="black" points="70,-196 16,-196 16,-160 70,-160 70,-196"/>
<text text-anchor="middle" x="43" y="-174.3" font-family="Helvetica,sans-Serif" font-size="14.00">trunk</text>
</a>
</g>
</g>
<!-- dir_12dc6111bffae2de992502b826ed130a&#45;&gt;dir_94cbabdd1ed76852c334cba7875b9d08 -->
<g id="edge5" class="edge"><title>dir_12dc6111bffae2de992502b826ed130a&#45;&gt;dir_94cbabdd1ed76852c334cba7875b9d08</title>
<path fill="none" stroke="black" d="M241,-87.6966C241,-79.9827 241,-70.7125 241,-62.1124"/>
<polygon fill="black" stroke="black" points="244.5,-62.1043 241,-52.1043 237.5,-62.1044 244.5,-62.1043"/>
<g id="a_edge5&#45;headlabel"><a xlink:href="dir_000009_000001.html" target="_top" xlink:title="1">
<text text-anchor="middle" x="247.339" y="-61.999" font-family="Helvetica,sans-Serif" font-size="14.00">1</text>
</a>
</g>
</g>
</g>
</svg>
