<?xml version="1.0" encoding="UTF-8" standalone="no"?>
<!DOCTYPE svg PUBLIC "-//W3C//DTD SVG 1.1//EN"
 "http://www.w3.org/Graphics/SVG/1.1/DTD/svg11.dtd">
<!-- Generated by graphviz version 2.38.0 (20140413.2041)
 -->
<!-- Title: /home/travis/build/konsim83/MPI&#45;MSFEC/include/equation_data/eqn_boundary_vals.h Pages: 1 -->
<svg width="842pt" height="152pt"
 viewBox="0.00 0.00 842.00 152.00" xmlns="http://www.w3.org/2000/svg" xmlns:xlink="http://www.w3.org/1999/xlink">
<g id="graph0" class="graph" transform="scale(1 1) rotate(0) translate(4 148)">
<title>/home/travis/build/konsim83/MPI&#45;MSFEC/include/equation_data/eqn_boundary_vals.h</title>
<polygon fill="white" stroke="none" points="-4,4 -4,-148 838,-148 838,4 -4,4"/>
<!-- Node1 -->
<g id="node1" class="node"><title>Node1</title>
<polygon fill="#bfbfbf" stroke="black" points="473.5,-75.5 473.5,-143.5 633.5,-143.5 633.5,-75.5 473.5,-75.5"/>
<text text-anchor="start" x="481.5" y="-128.3" font-family="Helvetica,sans-Serif" font-size="14.00">/home/travis/build</text>
<text text-anchor="start" x="481.5" y="-113.3" font-family="Helvetica,sans-Serif" font-size="14.00">/konsim83/MPI&#45;MSFEC</text>
<text text-anchor="start" x="481.5" y="-98.3" font-family="Helvetica,sans-Serif" font-size="14.00">/include/equation_data</text>
<text text-anchor="middle" x="553.5" y="-83.3" font-family="Helvetica,sans-Serif" font-size="14.00">/eqn_boundary_vals.h</text>
</g>
<!-- Node2 -->
<g id="node2" class="node"><title>Node2</title>
<polygon fill="white" stroke="#bfbfbf" points="0,-8 0,-31 149,-31 149,-8 0,-8"/>
<text text-anchor="middle" x="74.5" y="-15.8" font-family="Helvetica,sans-Serif" font-size="14.00">deal.II/base/function.h</text>
</g>
<!-- Node1&#45;&gt;Node2 -->
<g id="edge1" class="edge"><title>Node1&#45;&gt;Node2</title>
<path fill="none" stroke="midnightblue" d="M473.283,-95.5232C393.143,-82.3001 266.518,-60.7045 157.5,-39 148.568,-37.2218 139.121,-35.2263 129.927,-33.2216"/>
<polygon fill="midnightblue" stroke="midnightblue" points="130.604,-29.7868 120.085,-31.0524 129.097,-36.6228 130.604,-29.7868"/>
</g>
<!-- Node3 -->
<g id="node3" class="node"><title>Node3</title>
<polygon fill="white" stroke="#bfbfbf" points="167,-8 167,-31 322,-31 322,-8 167,-8"/>
<text text-anchor="middle" x="244.5" y="-15.8" font-family="Helvetica,sans-Serif" font-size="14.00">deal.II/base/numbers.h</text>
</g>
<!-- Node1&#45;&gt;Node3 -->
<g id="edge2" class="edge"><title>Node1&#45;&gt;Node3</title>
<path fill="none" stroke="midnightblue" d="M473.121,-85.6088C415.358,-69.1585 339.48,-47.5494 291.337,-33.8388"/>
<polygon fill="midnightblue" stroke="midnightblue" points="292.078,-30.4106 281.502,-31.0377 290.161,-37.1429 292.078,-30.4106"/>
</g>
<!-- Node4 -->
<g id="node4" class="node"><title>Node4</title>
<polygon fill="white" stroke="#bfbfbf" points="340,-8 340,-31 471,-31 471,-8 340,-8"/>
<text text-anchor="middle" x="405.5" y="-15.8" font-family="Helvetica,sans-Serif" font-size="14.00">deal.II/base/point.h</text>
</g>
<!-- Node1&#45;&gt;Node4 -->
<g id="edge3" class="edge"><title>Node1&#45;&gt;Node4</title>
<path fill="none" stroke="midnightblue" d="M497.969,-75.4817C475.375,-62.0474 450.327,-47.154 432.006,-36.2601"/>
<polygon fill="midnightblue" stroke="midnightblue" points="433.724,-33.2098 423.34,-31.1073 430.146,-39.2265 433.724,-33.2098"/>
</g>
<!-- Node5 -->
<g id="node5" class="node"><title>Node5</title>
<polygon fill="white" stroke="#bfbfbf" points="489.5,-0.5 489.5,-38.5 617.5,-38.5 617.5,-0.5 489.5,-0.5"/>
<text text-anchor="start" x="497.5" y="-23.3" font-family="Helvetica,sans-Serif" font-size="14.00">deal.II/base/tensor</text>
<text text-anchor="middle" x="553.5" y="-8.3" font-family="Helvetica,sans-Serif" font-size="14.00">_function.h</text>
</g>
<!-- Node1&#45;&gt;Node5 -->
<g id="edge4" class="edge"><title>Node1&#45;&gt;Node5</title>
<path fill="none" stroke="midnightblue" d="M553.5,-75.4817C553.5,-66.703 553.5,-57.3014 553.5,-48.7997"/>
<polygon fill="midnightblue" stroke="midnightblue" points="557,-48.6269 553.5,-38.627 550,-48.627 557,-48.6269"/>
</g>
<!-- Node6 -->
<g id="node6" class="node"><title>Node6</title>
<polygon fill="white" stroke="#bfbfbf" points="635.5,-8 635.5,-31 689.5,-31 689.5,-8 635.5,-8"/>
<text text-anchor="middle" x="662.5" y="-15.8" font-family="Helvetica,sans-Serif" font-size="14.00">cmath</text>
</g>
<!-- Node1&#45;&gt;Node6 -->
<g id="edge5" class="edge"><title>Node1&#45;&gt;Node6</title>
<path fill="none" stroke="midnightblue" d="M594.398,-75.4817C610.255,-62.6795 627.753,-48.5523 641.042,-37.8238"/>
<polygon fill="midnightblue" stroke="midnightblue" points="643.525,-40.3176 649.107,-31.3126 639.128,-34.871 643.525,-40.3176"/>
</g>
<!-- Node7 -->
<g id="node7" class="node"><title>Node7</title>
<polygon fill="white" stroke="#bfbfbf" points="708,-8 708,-31 763,-31 763,-8 708,-8"/>
<text text-anchor="middle" x="735.5" y="-15.8" font-family="Helvetica,sans-Serif" font-size="14.00">cstdlib</text>
</g>
<!-- Node1&#45;&gt;Node7 -->
<g id="edge6" class="edge"><title>Node1&#45;&gt;Node7</title>
<path fill="none" stroke="midnightblue" d="M623.31,-75.3287C647.197,-63.9019 674.055,-50.9687 698.5,-39 700.758,-37.8947 703.089,-36.7458 705.433,-35.5859"/>
<polygon fill="midnightblue" stroke="midnightblue" points="707.003,-38.7139 714.398,-31.1268 703.886,-32.4463 707.003,-38.7139"/>
</g>
<!-- Node8 -->
<g id="node8" class="node"><title>Node8</title>
<polygon fill="white" stroke="#bfbfbf" points="781,-8 781,-31 834,-31 834,-8 781,-8"/>
<text text-anchor="middle" x="807.5" y="-15.8" font-family="Helvetica,sans-Serif" font-size="14.00">vector</text>
</g>
<!-- Node1&#45;&gt;Node8 -->
<g id="edge7" class="edge"><title>Node1&#45;&gt;Node8</title>
<path fill="none" stroke="midnightblue" d="M633.542,-86.842C675.561,-74.5404 727.523,-57.8448 772.5,-39 774.885,-38.0007 777.325,-36.8955 779.752,-35.7371"/>
<polygon fill="midnightblue" stroke="midnightblue" points="781.557,-38.7471 788.908,-31.1175 778.403,-32.4975 781.557,-38.7471"/>
</g>
</g>
</svg>
