<?xml version="1.0" encoding="UTF-8" standalone="no"?>
<!DOCTYPE svg PUBLIC "-//W3C//DTD SVG 1.1//EN"
 "http://www.w3.org/Graphics/SVG/1.1/DTD/svg11.dtd">
<!-- Generated by graphviz version 2.38.0 (20140413.2041)
 -->
<!-- Title: /home/travis/build/konsim83/MPI&#45;MSFEC/include/equation_data/eqn_exact_solution_lin.h Pages: 1 -->
<svg width="1385pt" height="212pt"
 viewBox="0.00 0.00 1385.00 212.00" xmlns="http://www.w3.org/2000/svg" xmlns:xlink="http://www.w3.org/1999/xlink">
<g id="graph0" class="graph" transform="scale(1 1) rotate(0) translate(4 208)">
<title>/home/travis/build/konsim83/MPI&#45;MSFEC/include/equation_data/eqn_exact_solution_lin.h</title>
<polygon fill="white" stroke="none" points="-4,4 -4,-208 1381,-208 1381,4 -4,4"/>
<!-- Node1 -->
<g id="node1" class="node"><title>Node1</title>
<polygon fill="#bfbfbf" stroke="black" points="741.5,-135.5 741.5,-203.5 910.5,-203.5 910.5,-135.5 741.5,-135.5"/>
<text text-anchor="start" x="749.5" y="-188.3" font-family="Helvetica,sans-Serif" font-size="14.00">/home/travis/build</text>
<text text-anchor="start" x="749.5" y="-173.3" font-family="Helvetica,sans-Serif" font-size="14.00">/konsim83/MPI&#45;MSFEC</text>
<text text-anchor="start" x="749.5" y="-158.3" font-family="Helvetica,sans-Serif" font-size="14.00">/include/equation_data</text>
<text text-anchor="middle" x="826" y="-143.3" font-family="Helvetica,sans-Serif" font-size="14.00">/eqn_exact_solution_lin.h</text>
</g>
<!-- Node2 -->
<g id="node2" class="node"><title>Node2</title>
<polygon fill="white" stroke="#bfbfbf" points="146.5,-8 146.5,-31 295.5,-31 295.5,-8 146.5,-8"/>
<text text-anchor="middle" x="221" y="-15.8" font-family="Helvetica,sans-Serif" font-size="14.00">deal.II/base/function.h</text>
</g>
<!-- Node1&#45;&gt;Node2 -->
<g id="edge1" class="edge"><title>Node1&#45;&gt;Node2</title>
<path fill="none" stroke="midnightblue" d="M741.215,-156.488C664.489,-144.754 548.725,-124.894 450,-99 380.647,-80.8096 302.032,-52.0026 257.298,-34.8068"/>
<polygon fill="midnightblue" stroke="midnightblue" points="258.337,-31.4563 247.748,-31.1141 255.813,-37.9852 258.337,-31.4563"/>
</g>
<!-- Node3 -->
<g id="node3" class="node"><title>Node3</title>
<polygon fill="white" stroke="#bfbfbf" points="313.5,-8 313.5,-31 468.5,-31 468.5,-8 313.5,-8"/>
<text text-anchor="middle" x="391" y="-15.8" font-family="Helvetica,sans-Serif" font-size="14.00">deal.II/base/numbers.h</text>
</g>
<!-- Node1&#45;&gt;Node3 -->
<g id="edge2" class="edge"><title>Node1&#45;&gt;Node3</title>
<path fill="none" stroke="midnightblue" d="M741.362,-161.588C671.776,-153.435 571.974,-135.961 492,-99 459.191,-83.8366 427.277,-56.226 408.381,-38.1232"/>
<polygon fill="midnightblue" stroke="midnightblue" points="410.709,-35.5048 401.114,-31.011 405.813,-40.5072 410.709,-35.5048"/>
</g>
<!-- Node4 -->
<g id="node4" class="node"><title>Node4</title>
<polygon fill="white" stroke="#bfbfbf" points="487,-0.5 487,-38.5 639,-38.5 639,-0.5 487,-0.5"/>
<text text-anchor="start" x="495" y="-23.3" font-family="Helvetica,sans-Serif" font-size="14.00">deal.II/base/parameter</text>
<text text-anchor="middle" x="563" y="-8.3" font-family="Helvetica,sans-Serif" font-size="14.00">_handler.h</text>
</g>
<!-- Node1&#45;&gt;Node4 -->
<g id="edge3" class="edge"><title>Node1&#45;&gt;Node4</title>
<path fill="none" stroke="midnightblue" d="M741.381,-162.239C655.384,-153.909 530.707,-135.732 501,-99 486.346,-80.8806 504.089,-60.1883 524.292,-44.5987"/>
<polygon fill="midnightblue" stroke="midnightblue" points="526.387,-47.4029 532.398,-38.6782 522.258,-41.7502 526.387,-47.4029"/>
</g>
<!-- Node5 -->
<g id="node5" class="node"><title>Node5</title>
<polygon fill="white" stroke="#bfbfbf" points="657.5,-8 657.5,-31 788.5,-31 788.5,-8 657.5,-8"/>
<text text-anchor="middle" x="723" y="-15.8" font-family="Helvetica,sans-Serif" font-size="14.00">deal.II/base/point.h</text>
</g>
<!-- Node1&#45;&gt;Node5 -->
<g id="edge4" class="edge"><title>Node1&#45;&gt;Node5</title>
<path fill="none" stroke="midnightblue" d="M741.126,-161.693C657.32,-153.001 537.651,-134.613 509,-99 502.314,-90.689 502.454,-83.4219 509,-75 510.272,-73.3635 607.549,-49.0511 670.497,-33.4572"/>
<polygon fill="midnightblue" stroke="midnightblue" points="671.419,-36.8346 680.285,-31.0341 669.737,-30.0397 671.419,-36.8346"/>
</g>
<!-- Node6 -->
<g id="node6" class="node"><title>Node6</title>
<polygon fill="white" stroke="#bfbfbf" points="1093.5,-75.5 1093.5,-98.5 1232.5,-98.5 1232.5,-75.5 1093.5,-75.5"/>
<text text-anchor="middle" x="1163" y="-83.3" font-family="Helvetica,sans-Serif" font-size="14.00">deal.II/base/tensor.h</text>
</g>
<!-- Node1&#45;&gt;Node6 -->
<g id="edge5" class="edge"><title>Node1&#45;&gt;Node6</title>
<path fill="none" stroke="midnightblue" d="M910.604,-148.29C972.698,-133.458 1055.2,-113.751 1108.7,-100.972"/>
<polygon fill="midnightblue" stroke="midnightblue" points="1109.75,-104.318 1118.66,-98.5907 1108.12,-97.5099 1109.75,-104.318"/>
</g>
<!-- Node7 -->
<g id="node7" class="node"><title>Node7</title>
<polygon fill="white" stroke="#bfbfbf" points="0,-0.5 0,-38.5 128,-38.5 128,-0.5 0,-0.5"/>
<text text-anchor="start" x="8" y="-23.3" font-family="Helvetica,sans-Serif" font-size="14.00">deal.II/base/tensor</text>
<text text-anchor="middle" x="64" y="-8.3" font-family="Helvetica,sans-Serif" font-size="14.00">_function.h</text>
</g>
<!-- Node1&#45;&gt;Node7 -->
<g id="edge6" class="edge"><title>Node1&#45;&gt;Node7</title>
<path fill="none" stroke="midnightblue" d="M741.089,-158.138C649.174,-146.321 498.488,-125.204 370,-99 289.276,-82.537 197.929,-58.3663 136.219,-41.2016"/>
<polygon fill="midnightblue" stroke="midnightblue" points="137.148,-37.8272 126.575,-38.5091 135.266,-44.5694 137.148,-37.8272"/>
</g>
<!-- Node8 -->
<g id="node8" class="node"><title>Node8</title>
<polygon fill="white" stroke="#bfbfbf" points="1251,-75.5 1251,-98.5 1377,-98.5 1377,-75.5 1251,-75.5"/>
<text text-anchor="middle" x="1314" y="-83.3" font-family="Helvetica,sans-Serif" font-size="14.00">deal.II/lac/vector.h</text>
</g>
<!-- Node1&#45;&gt;Node8 -->
<g id="edge7" class="edge"><title>Node1&#45;&gt;Node8</title>
<path fill="none" stroke="midnightblue" d="M910.724,-154.524C1004.02,-139.134 1152.49,-114.642 1240.88,-100.061"/>
<polygon fill="midnightblue" stroke="midnightblue" points="1241.53,-103.502 1250.83,-98.4206 1240.39,-96.595 1241.53,-103.502"/>
</g>
<!-- Node9 -->
<g id="node9" class="node"><title>Node9</title>
<g id="a_node9"><a xlink:href="eqn__coeff__A_8h.html" target="_top" xlink:title="equation_data/eqn_coeff_A.h">
<polygon fill="white" stroke="black" points="518.5,-75.5 518.5,-98.5 711.5,-98.5 711.5,-75.5 518.5,-75.5"/>
<text text-anchor="middle" x="615" y="-83.3" font-family="Helvetica,sans-Serif" font-size="14.00">equation_data/eqn_coeff_A.h</text>
</a>
</g>
</g>
<!-- Node1&#45;&gt;Node9 -->
<g id="edge8" class="edge"><title>Node1&#45;&gt;Node9</title>
<path fill="none" stroke="midnightblue" d="M741.394,-136.221C710.422,-124.405 676.947,-111.634 652.232,-102.205"/>
<polygon fill="midnightblue" stroke="midnightblue" points="653.47,-98.9311 642.88,-98.6366 650.975,-105.471 653.47,-98.9311"/>
</g>
<!-- Node10 -->
<g id="node10" class="node"><title>Node10</title>
<polygon fill="white" stroke="#bfbfbf" points="807,-8 807,-31 861,-31 861,-8 807,-8"/>
<text text-anchor="middle" x="834" y="-15.8" font-family="Helvetica,sans-Serif" font-size="14.00">cmath</text>
</g>
<!-- Node1&#45;&gt;Node10 -->
<g id="edge27" class="edge"><title>Node1&#45;&gt;Node10</title>
<path fill="none" stroke="midnightblue" d="M897.069,-135.446C910.688,-125.706 923.136,-113.635 931,-99 936.049,-89.6038 936.387,-84.2062 931,-75 929.028,-71.6299 890.838,-50.7687 862.976,-35.8601"/>
<polygon fill="midnightblue" stroke="midnightblue" points="864.461,-32.6853 853.991,-31.0662 861.166,-38.8614 864.461,-32.6853"/>
</g>
<!-- Node11 -->
<g id="node11" class="node"><title>Node11</title>
<polygon fill="white" stroke="#bfbfbf" points="879.5,-8 879.5,-31 934.5,-31 934.5,-8 879.5,-8"/>
<text text-anchor="middle" x="907" y="-15.8" font-family="Helvetica,sans-Serif" font-size="14.00">cstdlib</text>
</g>
<!-- Node1&#45;&gt;Node11 -->
<g id="edge28" class="edge"><title>Node1&#45;&gt;Node11</title>
<path fill="none" stroke="midnightblue" d="M910.741,-135.395C925.239,-125.861 938.383,-113.886 947,-99 958.787,-78.6363 941.966,-54.4013 926.661,-38.3002"/>
<polygon fill="midnightblue" stroke="midnightblue" points="928.967,-35.6578 919.402,-31.102 924.039,-40.6285 928.967,-35.6578"/>
</g>
<!-- Node12 -->
<g id="node12" class="node"><title>Node12</title>
<polygon fill="white" stroke="#bfbfbf" points="1179,-8 1179,-31 1241,-31 1241,-8 1179,-8"/>
<text text-anchor="middle" x="1210" y="-15.8" font-family="Helvetica,sans-Serif" font-size="14.00">fstream</text>
</g>
<!-- Node1&#45;&gt;Node12 -->
<g id="edge29" class="edge"><title>Node1&#45;&gt;Node12</title>
<path fill="none" stroke="midnightblue" d="M910.794,-138.538C980.839,-113.32 1082.59,-75.6077 1170,-39 1172.8,-37.826 1175.7,-36.571 1178.59,-35.2884"/>
<polygon fill="midnightblue" stroke="midnightblue" points="1180.04,-38.4761 1187.7,-31.1626 1177.15,-32.0994 1180.04,-38.4761"/>
</g>
<!-- Node13 -->
<g id="node13" class="node"><title>Node13</title>
<polygon fill="white" stroke="#bfbfbf" points="952.5,-8 952.5,-31 1005.5,-31 1005.5,-8 952.5,-8"/>
<text text-anchor="middle" x="979" y="-15.8" font-family="Helvetica,sans-Serif" font-size="14.00">vector</text>
</g>
<!-- Node1&#45;&gt;Node13 -->
<g id="edge30" class="edge"><title>Node1&#45;&gt;Node13</title>
<path fill="none" stroke="midnightblue" d="M910.752,-140.301C930.464,-130.102 949.582,-116.606 963,-99 975.656,-82.3935 978.971,-58.2699 979.548,-41.1556"/>
<polygon fill="midnightblue" stroke="midnightblue" points="983.048,-41.0895 979.602,-31.0707 976.048,-41.0515 983.048,-41.0895"/>
</g>
<!-- Node14 -->
<g id="node14" class="node"><title>Node14</title>
<g id="a_node14"><a xlink:href="eqn__coeff__B_8h.html" target="_top" xlink:title="equation_data/eqn_coeff_B.h">
<polygon fill="white" stroke="black" points="729.5,-75.5 729.5,-98.5 922.5,-98.5 922.5,-75.5 729.5,-75.5"/>
<text text-anchor="middle" x="826" y="-83.3" font-family="Helvetica,sans-Serif" font-size="14.00">equation_data/eqn_coeff_B.h</text>
</a>
</g>
</g>
<!-- Node1&#45;&gt;Node14 -->
<g id="edge17" class="edge"><title>Node1&#45;&gt;Node14</title>
<path fill="none" stroke="midnightblue" d="M826,-135.293C826,-126.241 826,-116.699 826,-108.575"/>
<polygon fill="midnightblue" stroke="midnightblue" points="829.5,-108.555 826,-98.555 822.5,-108.555 829.5,-108.555"/>
</g>
<!-- Node9&#45;&gt;Node3 -->
<g id="edge9" class="edge"><title>Node9&#45;&gt;Node3</title>
<path fill="none" stroke="midnightblue" d="M579.011,-75.4763C540.427,-64.1939 479.055,-46.2482 436.994,-33.949"/>
<polygon fill="midnightblue" stroke="midnightblue" points="437.852,-30.5535 427.272,-31.1062 435.887,-37.2722 437.852,-30.5535"/>
</g>
<!-- Node9&#45;&gt;Node4 -->
<g id="edge10" class="edge"><title>Node9&#45;&gt;Node4</title>
<path fill="none" stroke="midnightblue" d="M606.645,-75.4763C600.438,-67.6578 591.691,-56.6393 583.655,-46.5176"/>
<polygon fill="midnightblue" stroke="midnightblue" points="586.385,-44.3264 577.426,-38.6706 580.902,-48.6789 586.385,-44.3264"/>
</g>
<!-- Node9&#45;&gt;Node5 -->
<g id="edge11" class="edge"><title>Node9&#45;&gt;Node5</title>
<path fill="none" stroke="midnightblue" d="M632.352,-75.4763C649.726,-64.9394 676.683,-48.5905 696.689,-36.4572"/>
<polygon fill="midnightblue" stroke="midnightblue" points="698.597,-39.3935 705.332,-31.2152 694.967,-33.4082 698.597,-39.3935"/>
</g>
<!-- Node9&#45;&gt;Node7 -->
<g id="edge12" class="edge"><title>Node9&#45;&gt;Node7</title>
<path fill="none" stroke="midnightblue" d="M518.292,-80.7651C423.693,-74.6682 275.466,-62.5202 138.624,-39.1477"/>
<polygon fill="midnightblue" stroke="midnightblue" points="138.824,-35.6302 128.373,-37.3718 137.629,-42.5275 138.824,-35.6302"/>
</g>
<!-- Node9&#45;&gt;Node10 -->
<g id="edge13" class="edge"><title>Node9&#45;&gt;Node10</title>
<path fill="none" stroke="midnightblue" d="M667.678,-75.4868C704.512,-67.3921 754.518,-54.9024 797,-39 799.867,-37.9268 802.805,-36.6981 805.711,-35.3954"/>
<polygon fill="midnightblue" stroke="midnightblue" points="807.237,-38.5452 814.758,-31.0822 804.225,-32.2266 807.237,-38.5452"/>
</g>
<!-- Node9&#45;&gt;Node11 -->
<g id="edge14" class="edge"><title>Node9&#45;&gt;Node11</title>
<path fill="none" stroke="midnightblue" d="M706.552,-75.4853C755.831,-68.2499 817.172,-56.6802 870,-39 872.969,-38.0064 876,-36.8147 878.985,-35.5212"/>
<polygon fill="midnightblue" stroke="midnightblue" points="880.683,-38.5904 888.236,-31.1605 877.698,-32.2587 880.683,-38.5904"/>
</g>
<!-- Node9&#45;&gt;Node12 -->
<g id="edge15" class="edge"><title>Node9&#45;&gt;Node12</title>
<path fill="none" stroke="midnightblue" d="M711.682,-75.7812C714.485,-75.5139 717.262,-75.2529 720,-75 919.789,-56.5462 975.926,-89.9044 1170,-39 1173.7,-38.0306 1177.47,-36.7355 1181.16,-35.2785"/>
<polygon fill="midnightblue" stroke="midnightblue" points="1182.82,-38.3719 1190.58,-31.1567 1180.01,-31.9589 1182.82,-38.3719"/>
</g>
<!-- Node9&#45;&gt;Node13 -->
<g id="edge16" class="edge"><title>Node9&#45;&gt;Node13</title>
<path fill="none" stroke="midnightblue" d="M711.598,-75.7412C792.456,-66.4943 901.139,-52.3406 943,-39 945.984,-38.0492 949.019,-36.8688 951.998,-35.5676"/>
<polygon fill="midnightblue" stroke="midnightblue" points="953.705,-38.6306 961.19,-31.1326 950.663,-32.3261 953.705,-38.6306"/>
</g>
<!-- Node14&#45;&gt;Node2 -->
<g id="edge18" class="edge"><title>Node14&#45;&gt;Node2</title>
<path fill="none" stroke="midnightblue" d="M729.244,-75.8905C726.127,-75.5867 723.039,-75.2892 720,-75 535.254,-57.4216 487.417,-67.2492 304,-39 293.932,-37.4494 283.262,-35.3907 273.045,-33.2104"/>
<polygon fill="midnightblue" stroke="midnightblue" points="273.537,-29.735 263.019,-31.0039 272.033,-36.5715 273.537,-29.735"/>
</g>
<!-- Node14&#45;&gt;Node3 -->
<g id="edge20" class="edge"><title>Node14&#45;&gt;Node3</title>
<path fill="none" stroke="midnightblue" d="M733.756,-75.4612C663.449,-66.9645 564.346,-53.9894 478,-39 468.073,-37.2766 457.554,-35.2299 447.39,-33.1367"/>
<polygon fill="midnightblue" stroke="midnightblue" points="447.885,-29.6645 437.38,-31.0381 446.449,-36.5155 447.885,-29.6645"/>
</g>
<!-- Node14&#45;&gt;Node4 -->
<g id="edge21" class="edge"><title>Node14&#45;&gt;Node4</title>
<path fill="none" stroke="midnightblue" d="M783.745,-75.4763C746.543,-66.2114 691.3,-52.4529 645.385,-41.018"/>
<polygon fill="midnightblue" stroke="midnightblue" points="645.989,-37.5615 635.44,-38.541 644.297,-44.354 645.989,-37.5615"/>
</g>
<!-- Node14&#45;&gt;Node5 -->
<g id="edge22" class="edge"><title>Node14&#45;&gt;Node5</title>
<path fill="none" stroke="midnightblue" d="M809.451,-75.4763C792.956,-64.9868 767.404,-48.7376 748.351,-36.6215"/>
<polygon fill="midnightblue" stroke="midnightblue" points="750.166,-33.6279 739.85,-31.2152 746.41,-39.5348 750.166,-33.6279"/>
</g>
<!-- Node14&#45;&gt;Node10 -->
<g id="edge23" class="edge"><title>Node14&#45;&gt;Node10</title>
<path fill="none" stroke="midnightblue" d="M827.285,-75.4763C828.41,-66.2683 830.077,-52.6221 831.468,-41.2293"/>
<polygon fill="midnightblue" stroke="midnightblue" points="834.953,-41.5658 832.691,-31.2152 828.005,-40.7171 834.953,-41.5658"/>
</g>
<!-- Node14&#45;&gt;Node11 -->
<g id="edge24" class="edge"><title>Node14&#45;&gt;Node11</title>
<path fill="none" stroke="midnightblue" d="M839.014,-75.4763C851.575,-65.3191 870.814,-49.7612 885.625,-37.7849"/>
<polygon fill="midnightblue" stroke="midnightblue" points="888.174,-40.2246 893.749,-31.2152 883.773,-34.7815 888.174,-40.2246"/>
</g>
<!-- Node14&#45;&gt;Node12 -->
<g id="edge25" class="edge"><title>Node14&#45;&gt;Node12</title>
<path fill="none" stroke="midnightblue" d="M922.502,-80.5091C992.355,-74.6897 1088.43,-62.8545 1170,-39 1173.59,-37.9504 1177.27,-36.6273 1180.87,-35.1733"/>
<polygon fill="midnightblue" stroke="midnightblue" points="1182.35,-38.3424 1190.1,-31.117 1179.54,-31.9331 1182.35,-38.3424"/>
</g>
<!-- Node14&#45;&gt;Node13 -->
<g id="edge26" class="edge"><title>Node14&#45;&gt;Node13</title>
<path fill="none" stroke="midnightblue" d="M854.683,-75.3315C878.563,-66.2466 913.33,-52.5475 943,-39 945.349,-37.9274 947.766,-36.7815 950.182,-35.6054"/>
<polygon fill="midnightblue" stroke="midnightblue" points="951.981,-38.6186 959.356,-31.0114 948.847,-32.3595 951.981,-38.6186"/>
</g>
<!-- Node15 -->
<g id="node15" class="node"><title>Node15</title>
<polygon fill="white" stroke="#bfbfbf" points="1023.5,-0.5 1023.5,-38.5 1160.5,-38.5 1160.5,-0.5 1023.5,-0.5"/>
<text text-anchor="start" x="1031.5" y="-23.3" font-family="Helvetica,sans-Serif" font-size="14.00">deal.II/base/function</text>
<text text-anchor="middle" x="1092" y="-8.3" font-family="Helvetica,sans-Serif" font-size="14.00">_parser.h</text>
</g>
<!-- Node14&#45;&gt;Node15 -->
<g id="edge19" class="edge"><title>Node14&#45;&gt;Node15</title>
<path fill="none" stroke="midnightblue" d="M868.738,-75.4763C907.676,-65.8881 966.158,-51.4874 1013.5,-39.8298"/>
<polygon fill="midnightblue" stroke="midnightblue" points="1014.55,-43.176 1023.42,-37.3865 1012.88,-36.3791 1014.55,-43.176"/>
</g>
</g>
</svg>
