<?xml version="1.0" encoding="UTF-8" standalone="no"?>
<!DOCTYPE svg PUBLIC "-//W3C//DTD SVG 1.1//EN"
 "http://www.w3.org/Graphics/SVG/1.1/DTD/svg11.dtd">
<!-- Generated by graphviz version 2.38.0 (20140413.2041)
 -->
<!-- Title: /home/travis/build/konsim83/MPI&#45;MSFEC/include/equation_data/eqn_exact_solution_lin.h Pages: 1 -->
<svg width="2447pt" height="497pt"
 viewBox="0.00 0.00 2447.00 497.00" xmlns="http://www.w3.org/2000/svg" xmlns:xlink="http://www.w3.org/1999/xlink">
<g id="graph0" class="graph" transform="scale(1 1) rotate(0) translate(4 493)">
<title>/home/travis/build/konsim83/MPI&#45;MSFEC/include/equation_data/eqn_exact_solution_lin.h</title>
<polygon fill="white" stroke="none" points="-4,4 -4,-493 2443,-493 2443,4 -4,4"/>
<!-- Node1 -->
<g id="node1" class="node"><title>Node1</title>
<polygon fill="#bfbfbf" stroke="black" points="1256.5,-420.5 1256.5,-488.5 1425.5,-488.5 1425.5,-420.5 1256.5,-420.5"/>
<text text-anchor="start" x="1264.5" y="-473.3" font-family="Helvetica,sans-Serif" font-size="14.00">/home/travis/build</text>
<text text-anchor="start" x="1264.5" y="-458.3" font-family="Helvetica,sans-Serif" font-size="14.00">/konsim83/MPI&#45;MSFEC</text>
<text text-anchor="start" x="1264.5" y="-443.3" font-family="Helvetica,sans-Serif" font-size="14.00">/include/equation_data</text>
<text text-anchor="middle" x="1341" y="-428.3" font-family="Helvetica,sans-Serif" font-size="14.00">/eqn_exact_solution_lin.h</text>
</g>
<!-- Node2 -->
<g id="node2" class="node"><title>Node2</title>
<g id="a_node2"><a xlink:href="eqn__exact__solution__lin_8cc.html" target="_top" xlink:title="/home/travis/build\l/konsim83/MPI&#45;MSFEC\l/source/equation_data\l/eqn_exact_solution_lin.cc">
<polygon fill="white" stroke="black" points="813.5,-315.5 813.5,-383.5 988.5,-383.5 988.5,-315.5 813.5,-315.5"/>
<text text-anchor="start" x="821.5" y="-368.3" font-family="Helvetica,sans-Serif" font-size="14.00">/home/travis/build</text>
<text text-anchor="start" x="821.5" y="-353.3" font-family="Helvetica,sans-Serif" font-size="14.00">/konsim83/MPI&#45;MSFEC</text>
<text text-anchor="start" x="821.5" y="-338.3" font-family="Helvetica,sans-Serif" font-size="14.00">/source/equation_data</text>
<text text-anchor="middle" x="901" y="-323.3" font-family="Helvetica,sans-Serif" font-size="14.00">/eqn_exact_solution_lin.cc</text>
</a>
</g>
</g>
<!-- Node1&#45;&gt;Node2 -->
<g id="edge1" class="edge"><title>Node1&#45;&gt;Node2</title>
<path fill="none" stroke="midnightblue" d="M1246.47,-437.064C1178.32,-424.488 1084.39,-405.657 1003,-384 998.317,-382.754 993.533,-381.415 988.717,-380.016"/>
<polygon fill="midnightblue" stroke="midnightblue" points="1245.87,-440.512 1256.34,-438.874 1247.13,-433.627 1245.87,-440.512"/>
</g>
<!-- Node3 -->
<g id="node3" class="node"><title>Node3</title>
<g id="a_node3"><a xlink:href="eqn__rhs_8h.html" target="_top" xlink:title="/home/travis/build\l/konsim83/MPI&#45;MSFEC\l/include/equation_data\l/eqn_rhs.h">
<polygon fill="white" stroke="black" points="1083,-315.5 1083,-383.5 1243,-383.5 1243,-315.5 1083,-315.5"/>
<text text-anchor="start" x="1091" y="-368.3" font-family="Helvetica,sans-Serif" font-size="14.00">/home/travis/build</text>
<text text-anchor="start" x="1091" y="-353.3" font-family="Helvetica,sans-Serif" font-size="14.00">/konsim83/MPI&#45;MSFEC</text>
<text text-anchor="start" x="1091" y="-338.3" font-family="Helvetica,sans-Serif" font-size="14.00">/include/equation_data</text>
<text text-anchor="middle" x="1163" y="-323.3" font-family="Helvetica,sans-Serif" font-size="14.00">/eqn_rhs.h</text>
</a>
</g>
</g>
<!-- Node1&#45;&gt;Node3 -->
<g id="edge2" class="edge"><title>Node1&#45;&gt;Node3</title>
<path fill="none" stroke="midnightblue" d="M1274.99,-415.302C1256.99,-404.89 1237.65,-393.698 1220.19,-383.595"/>
<polygon fill="midnightblue" stroke="midnightblue" points="1273.29,-418.364 1283.7,-420.343 1276.8,-412.305 1273.29,-418.364"/>
</g>
<!-- Node5 -->
<g id="node5" class="node"><title>Node5</title>
<g id="a_node5"><a xlink:href="ned__rt__basis_8h.html" target="_top" xlink:title="/home/travis/build\l/konsim83/MPI&#45;MSFEC\l/include/Ned_RT/ned_rt\l_basis.h">
<polygon fill="white" stroke="black" points="433,-210.5 433,-278.5 593,-278.5 593,-210.5 433,-210.5"/>
<text text-anchor="start" x="441" y="-263.3" font-family="Helvetica,sans-Serif" font-size="14.00">/home/travis/build</text>
<text text-anchor="start" x="441" y="-248.3" font-family="Helvetica,sans-Serif" font-size="14.00">/konsim83/MPI&#45;MSFEC</text>
<text text-anchor="start" x="441" y="-233.3" font-family="Helvetica,sans-Serif" font-size="14.00">/include/Ned_RT/ned_rt</text>
<text text-anchor="middle" x="513" y="-218.3" font-family="Helvetica,sans-Serif" font-size="14.00">_basis.h</text>
</a>
</g>
</g>
<!-- Node1&#45;&gt;Node5 -->
<g id="edge36" class="edge"><title>Node1&#45;&gt;Node5</title>
<path fill="none" stroke="midnightblue" d="M1246.38,-446.269C1191.65,-438.087 1123.95,-420.732 1074,-384 1044.89,-362.593 1061.83,-333.844 1031,-315 949.371,-265.109 695.324,-300.051 602,-279 599.101,-278.346 596.17,-277.619 593.225,-276.831"/>
<polygon fill="midnightblue" stroke="midnightblue" points="1246.05,-449.757 1256.44,-447.693 1247.03,-442.826 1246.05,-449.757"/>
</g>
<!-- Node12 -->
<g id="node12" class="node"><title>Node12</title>
<g id="a_node12"><a xlink:href="q__basis_8h.html" target="_top" xlink:title="/home/travis/build\l/konsim83/MPI&#45;MSFEC\l/include/Q/q_basis.h">
<polygon fill="white" stroke="black" points="255,-218 255,-271 415,-271 415,-218 255,-218"/>
<text text-anchor="start" x="263" y="-255.8" font-family="Helvetica,sans-Serif" font-size="14.00">/home/travis/build</text>
<text text-anchor="start" x="263" y="-240.8" font-family="Helvetica,sans-Serif" font-size="14.00">/konsim83/MPI&#45;MSFEC</text>
<text text-anchor="middle" x="335" y="-225.8" font-family="Helvetica,sans-Serif" font-size="14.00">/include/Q/q_basis.h</text>
</a>
</g>
</g>
<!-- Node1&#45;&gt;Node12 -->
<g id="edge37" class="edge"><title>Node1&#45;&gt;Node12</title>
<path fill="none" stroke="midnightblue" d="M1246.5,-441.409C1168.03,-429.75 1064.1,-410.046 1031,-384 1004.13,-362.857 1025.45,-333.96 997,-315 890.833,-244.245 548.745,-305.768 424,-279 414.637,-276.991 404.949,-274.173 395.563,-271.015"/>
<polygon fill="midnightblue" stroke="midnightblue" points="1246.02,-444.876 1256.42,-442.861 1247.04,-437.95 1246.02,-444.876"/>
</g>
<!-- Node19 -->
<g id="node19" class="node"><title>Node19</title>
<g id="a_node19"><a xlink:href="q__ned__basis_8h.html" target="_top" xlink:title="/home/travis/build\l/konsim83/MPI&#45;MSFEC\l/include/Q_Ned/q_ned\l_basis.h">
<polygon fill="white" stroke="black" points="1837,-210.5 1837,-278.5 1997,-278.5 1997,-210.5 1837,-210.5"/>
<text text-anchor="start" x="1845" y="-263.3" font-family="Helvetica,sans-Serif" font-size="14.00">/home/travis/build</text>
<text text-anchor="start" x="1845" y="-248.3" font-family="Helvetica,sans-Serif" font-size="14.00">/konsim83/MPI&#45;MSFEC</text>
<text text-anchor="start" x="1845" y="-233.3" font-family="Helvetica,sans-Serif" font-size="14.00">/include/Q_Ned/q_ned</text>
<text text-anchor="middle" x="1917" y="-218.3" font-family="Helvetica,sans-Serif" font-size="14.00">_basis.h</text>
</a>
</g>
</g>
<!-- Node1&#45;&gt;Node19 -->
<g id="edge38" class="edge"><title>Node1&#45;&gt;Node19</title>
<path fill="none" stroke="midnightblue" d="M1435.35,-423.814C1472.47,-411.848 1515.37,-397.662 1554,-384 1651.93,-349.364 1763.4,-306.279 1836.68,-277.445"/>
<polygon fill="midnightblue" stroke="midnightblue" points="1433.99,-420.573 1425.54,-426.966 1436.14,-427.237 1433.99,-420.573"/>
</g>
<!-- Node21 -->
<g id="node21" class="node"><title>Node21</title>
<g id="a_node21"><a xlink:href="q__ned__global_8h.html" target="_top" xlink:title="/home/travis/build\l/konsim83/MPI&#45;MSFEC\l/include/Q_Ned/q_ned\l_global.h">
<polygon fill="white" stroke="black" points="2254,-105.5 2254,-173.5 2414,-173.5 2414,-105.5 2254,-105.5"/>
<text text-anchor="start" x="2262" y="-158.3" font-family="Helvetica,sans-Serif" font-size="14.00">/home/travis/build</text>
<text text-anchor="start" x="2262" y="-143.3" font-family="Helvetica,sans-Serif" font-size="14.00">/konsim83/MPI&#45;MSFEC</text>
<text text-anchor="start" x="2262" y="-128.3" font-family="Helvetica,sans-Serif" font-size="14.00">/include/Q_Ned/q_ned</text>
<text text-anchor="middle" x="2334" y="-113.3" font-family="Helvetica,sans-Serif" font-size="14.00">_global.h</text>
</a>
</g>
</g>
<!-- Node1&#45;&gt;Node21 -->
<g id="edge39" class="edge"><title>Node1&#45;&gt;Node21</title>
<path fill="none" stroke="midnightblue" d="M1435.57,-442.52C1583.99,-423.008 1878.65,-374.991 2111,-279 2177.55,-251.506 2246.9,-205.192 2290.24,-173.763"/>
<polygon fill="midnightblue" stroke="midnightblue" points="1435.04,-439.059 1425.58,-443.82 1435.95,-446.001 1435.04,-439.059"/>
</g>
<!-- Node24 -->
<g id="node24" class="node"><title>Node24</title>
<g id="a_node24"><a xlink:href="q__ned__ref_8h.html" target="_top" xlink:title="/home/travis/build\l/konsim83/MPI&#45;MSFEC\l/include/Q_Ned/q_ned_ref.h">
<polygon fill="white" stroke="black" points="1455,-218 1455,-271 1641,-271 1641,-218 1455,-218"/>
<text text-anchor="start" x="1463" y="-255.8" font-family="Helvetica,sans-Serif" font-size="14.00">/home/travis/build</text>
<text text-anchor="start" x="1463" y="-240.8" font-family="Helvetica,sans-Serif" font-size="14.00">/konsim83/MPI&#45;MSFEC</text>
<text text-anchor="middle" x="1548" y="-225.8" font-family="Helvetica,sans-Serif" font-size="14.00">/include/Q_Ned/q_ned_ref.h</text>
</a>
</g>
</g>
<!-- Node1&#45;&gt;Node24 -->
<g id="edge40" class="edge"><title>Node1&#45;&gt;Node24</title>
<path fill="none" stroke="midnightblue" d="M1395.37,-413.865C1407.17,-404.503 1419.3,-394.249 1430,-384 1467.98,-347.611 1506.47,-299.97 1528.74,-271.105"/>
<polygon fill="midnightblue" stroke="midnightblue" points="1393.01,-411.275 1387.29,-420.194 1397.32,-416.788 1393.01,-411.275"/>
</g>
<!-- Node26 -->
<g id="node26" class="node"><title>Node26</title>
<g id="a_node26"><a xlink:href="rt__dq__basis_8h.html" target="_top" xlink:title="/home/travis/build\l/konsim83/MPI&#45;MSFEC\l/include/RT_DQ/rt_dq\l_basis.h">
<polygon fill="white" stroke="black" points="1659,-210.5 1659,-278.5 1819,-278.5 1819,-210.5 1659,-210.5"/>
<text text-anchor="start" x="1667" y="-263.3" font-family="Helvetica,sans-Serif" font-size="14.00">/home/travis/build</text>
<text text-anchor="start" x="1667" y="-248.3" font-family="Helvetica,sans-Serif" font-size="14.00">/konsim83/MPI&#45;MSFEC</text>
<text text-anchor="start" x="1667" y="-233.3" font-family="Helvetica,sans-Serif" font-size="14.00">/include/RT_DQ/rt_dq</text>
<text text-anchor="middle" x="1739" y="-218.3" font-family="Helvetica,sans-Serif" font-size="14.00">_basis.h</text>
</a>
</g>
</g>
<!-- Node1&#45;&gt;Node26 -->
<g id="edge41" class="edge"><title>Node1&#45;&gt;Node26</title>
<path fill="none" stroke="midnightblue" d="M1414.07,-415.683C1433.85,-405.421 1455.25,-394.301 1475,-384 1543.83,-348.094 1622.64,-306.715 1676.1,-278.604"/>
<polygon fill="midnightblue" stroke="midnightblue" points="1412.37,-412.62 1405.1,-420.331 1415.59,-418.835 1412.37,-412.62"/>
</g>
<!-- Node33 -->
<g id="node33" class="node"><title>Node33</title>
<g id="a_node33"><a xlink:href="my__vector__tools_8h.html" target="_top" xlink:title="/home/travis/build\l/konsim83/MPI&#45;MSFEC\l/include/vector_tools\l/my_vector_tools.h">
<polygon fill="white" stroke="black" points="1261,-315.5 1261,-383.5 1421,-383.5 1421,-315.5 1261,-315.5"/>
<text text-anchor="start" x="1269" y="-368.3" font-family="Helvetica,sans-Serif" font-size="14.00">/home/travis/build</text>
<text text-anchor="start" x="1269" y="-353.3" font-family="Helvetica,sans-Serif" font-size="14.00">/konsim83/MPI&#45;MSFEC</text>
<text text-anchor="start" x="1269" y="-338.3" font-family="Helvetica,sans-Serif" font-size="14.00">/include/vector_tools</text>
<text text-anchor="middle" x="1341" y="-323.3" font-family="Helvetica,sans-Serif" font-size="14.00">/my_vector_tools.h</text>
</a>
</g>
</g>
<!-- Node1&#45;&gt;Node33 -->
<g id="edge42" class="edge"><title>Node1&#45;&gt;Node33</title>
<path fill="none" stroke="midnightblue" d="M1341,-410.136C1341,-401.256 1341,-392.045 1341,-383.595"/>
<polygon fill="midnightblue" stroke="midnightblue" points="1337.5,-410.343 1341,-420.343 1344.5,-410.343 1337.5,-410.343"/>
</g>
<!-- Node4 -->
<g id="node4" class="node"><title>Node4</title>
<g id="a_node4"><a xlink:href="eqn__rhs_8cc.html" target="_top" xlink:title="/home/travis/build\l/konsim83/MPI&#45;MSFEC\l/source/equation_data\l/eqn_rhs.cc">
<polygon fill="white" stroke="black" points="611,-210.5 611,-278.5 771,-278.5 771,-210.5 611,-210.5"/>
<text text-anchor="start" x="619" y="-263.3" font-family="Helvetica,sans-Serif" font-size="14.00">/home/travis/build</text>
<text text-anchor="start" x="619" y="-248.3" font-family="Helvetica,sans-Serif" font-size="14.00">/konsim83/MPI&#45;MSFEC</text>
<text text-anchor="start" x="619" y="-233.3" font-family="Helvetica,sans-Serif" font-size="14.00">/source/equation_data</text>
<text text-anchor="middle" x="691" y="-218.3" font-family="Helvetica,sans-Serif" font-size="14.00">/eqn_rhs.cc</text>
</a>
</g>
</g>
<!-- Node3&#45;&gt;Node4 -->
<g id="edge3" class="edge"><title>Node3&#45;&gt;Node4</title>
<path fill="none" stroke="midnightblue" d="M1072.86,-315.945C1071.57,-315.619 1070.28,-315.304 1069,-315 943.065,-285.096 905.667,-310.015 780,-279 777.115,-278.288 774.195,-277.51 771.261,-276.68"/>
<polygon fill="midnightblue" stroke="midnightblue" points="1072.28,-319.413 1082.84,-318.634 1074.1,-312.654 1072.28,-319.413"/>
</g>
<!-- Node3&#45;&gt;Node5 -->
<g id="edge4" class="edge"><title>Node3&#45;&gt;Node5</title>
<path fill="none" stroke="midnightblue" d="M1072.88,-315.86C1071.58,-315.561 1070.29,-315.274 1069,-315 865.386,-271.677 805.223,-324.118 602,-279 599.099,-278.356 596.166,-277.637 593.219,-276.856"/>
<polygon fill="midnightblue" stroke="midnightblue" points="1072.35,-319.336 1082.9,-318.376 1074.05,-312.546 1072.35,-319.336"/>
</g>
<!-- Node10 -->
<g id="node10" class="node"><title>Node10</title>
<g id="a_node10"><a xlink:href="ned__rt__ref_8h.html" target="_top" xlink:title="/home/travis/build\l/konsim83/MPI&#45;MSFEC\l/include/Ned_RT/ned_rt_ref.h">
<polygon fill="white" stroke="black" points="1005,-218 1005,-271 1199,-271 1199,-218 1005,-218"/>
<text text-anchor="start" x="1013" y="-255.8" font-family="Helvetica,sans-Serif" font-size="14.00">/home/travis/build</text>
<text text-anchor="start" x="1013" y="-240.8" font-family="Helvetica,sans-Serif" font-size="14.00">/konsim83/MPI&#45;MSFEC</text>
<text text-anchor="middle" x="1102" y="-225.8" font-family="Helvetica,sans-Serif" font-size="14.00">/include/Ned_RT/ned_rt_ref.h</text>
</a>
</g>
</g>
<!-- Node3&#45;&gt;Node10 -->
<g id="edge9" class="edge"><title>Node3&#45;&gt;Node10</title>
<path fill="none" stroke="midnightblue" d="M1138.26,-306.725C1131.11,-294.655 1123.53,-281.846 1117.15,-271.081"/>
<polygon fill="midnightblue" stroke="midnightblue" points="1135.26,-308.522 1143.36,-315.343 1141.28,-304.955 1135.26,-308.522"/>
</g>
<!-- Node3&#45;&gt;Node12 -->
<g id="edge12" class="edge"><title>Node3&#45;&gt;Node12</title>
<path fill="none" stroke="midnightblue" d="M1072.82,-323.208C1058.9,-320.005 1044.63,-317.114 1031,-315 763.942,-273.575 688.336,-335.236 424,-279 414.634,-277.007 404.944,-274.198 395.556,-271.045"/>
<polygon fill="midnightblue" stroke="midnightblue" points="1072.34,-326.69 1082.87,-325.589 1073.95,-319.879 1072.34,-326.69"/>
</g>
<!-- Node17 -->
<g id="node17" class="node"><title>Node17</title>
<g id="a_node17"><a xlink:href="q__ref_8h.html" target="_top" xlink:title="/home/travis/build\l/konsim83/MPI&#45;MSFEC\l/include/Q/q_ref.h">
<polygon fill="white" stroke="black" points="789,-218 789,-271 949,-271 949,-218 789,-218"/>
<text text-anchor="start" x="797" y="-255.8" font-family="Helvetica,sans-Serif" font-size="14.00">/home/travis/build</text>
<text text-anchor="start" x="797" y="-240.8" font-family="Helvetica,sans-Serif" font-size="14.00">/konsim83/MPI&#45;MSFEC</text>
<text text-anchor="middle" x="869" y="-225.8" font-family="Helvetica,sans-Serif" font-size="14.00">/include/Q/q_ref.h</text>
</a>
</g>
</g>
<!-- Node3&#45;&gt;Node17 -->
<g id="edge17" class="edge"><title>Node3&#45;&gt;Node17</title>
<path fill="none" stroke="midnightblue" d="M1073.25,-316.482C1071.82,-315.984 1070.41,-315.489 1069,-315 1022.01,-298.648 1009.99,-295.352 963,-279 955.637,-276.438 947.958,-273.741 940.302,-271.037"/>
<polygon fill="midnightblue" stroke="midnightblue" points="1072.18,-319.815 1082.78,-319.819 1074.5,-313.209 1072.18,-319.815"/>
</g>
<!-- Node3&#45;&gt;Node19 -->
<g id="edge20" class="edge"><title>Node3&#45;&gt;Node19</title>
<path fill="none" stroke="midnightblue" d="M1253.01,-315.023C1504.72,-263.023 1580.38,-332.091 1828,-279 1830.91,-278.377 1833.84,-277.676 1836.79,-276.911"/>
<polygon fill="midnightblue" stroke="midnightblue" points="1252.27,-311.601 1243.21,-317.089 1253.71,-318.45 1252.27,-311.601"/>
</g>
<!-- Node3&#45;&gt;Node24 -->
<g id="edge25" class="edge"><title>Node3&#45;&gt;Node24</title>
<path fill="none" stroke="midnightblue" d="M1252.95,-314.831C1321.81,-294.463 1341.71,-294.58 1408,-279 1423.08,-275.455 1439.07,-271.662 1454.64,-267.949"/>
<polygon fill="midnightblue" stroke="midnightblue" points="1251.94,-311.479 1243.37,-317.702 1253.95,-318.184 1251.94,-311.479"/>
</g>
<!-- Node3&#45;&gt;Node26 -->
<g id="edge28" class="edge"><title>Node3&#45;&gt;Node26</title>
<path fill="none" stroke="midnightblue" d="M1253.22,-314.952C1427.09,-276.934 1480.08,-317.909 1650,-279 1652.9,-278.337 1655.83,-277.601 1658.77,-276.806"/>
<polygon fill="midnightblue" stroke="midnightblue" points="1252.22,-311.589 1243.23,-317.194 1253.75,-318.419 1252.22,-311.589"/>
</g>
<!-- Node31 -->
<g id="node31" class="node"><title>Node31</title>
<g id="a_node31"><a xlink:href="rt__dq__ref_8h.html" target="_top" xlink:title="/home/travis/build\l/konsim83/MPI&#45;MSFEC\l/include/RT_DQ/rt_dq_ref.h">
<polygon fill="white" stroke="black" points="1217,-218 1217,-271 1399,-271 1399,-218 1217,-218"/>
<text text-anchor="start" x="1225" y="-255.8" font-family="Helvetica,sans-Serif" font-size="14.00">/home/travis/build</text>
<text text-anchor="start" x="1225" y="-240.8" font-family="Helvetica,sans-Serif" font-size="14.00">/konsim83/MPI&#45;MSFEC</text>
<text text-anchor="middle" x="1308" y="-225.8" font-family="Helvetica,sans-Serif" font-size="14.00">/include/RT_DQ/rt_dq_ref.h</text>
</a>
</g>
</g>
<!-- Node3&#45;&gt;Node31 -->
<g id="edge33" class="edge"><title>Node3&#45;&gt;Node31</title>
<path fill="none" stroke="midnightblue" d="M1217.87,-309.523C1235.98,-296.657 1255.66,-282.682 1271.99,-271.081"/>
<polygon fill="midnightblue" stroke="midnightblue" points="1215.8,-306.699 1209.68,-315.343 1219.86,-312.405 1215.8,-306.699"/>
</g>
<!-- Node6 -->
<g id="node6" class="node"><title>Node6</title>
<g id="a_node6"><a xlink:href="ned__rt__basis_8cc.html" target="_top" xlink:title="/home/travis/build\l/konsim83/MPI&#45;MSFEC\l/source/Ned_RT/ned_rt\l_basis.cc">
<polygon fill="white" stroke="black" points="356,-105.5 356,-173.5 516,-173.5 516,-105.5 356,-105.5"/>
<text text-anchor="start" x="364" y="-158.3" font-family="Helvetica,sans-Serif" font-size="14.00">/home/travis/build</text>
<text text-anchor="start" x="364" y="-143.3" font-family="Helvetica,sans-Serif" font-size="14.00">/konsim83/MPI&#45;MSFEC</text>
<text text-anchor="start" x="364" y="-128.3" font-family="Helvetica,sans-Serif" font-size="14.00">/source/Ned_RT/ned_rt</text>
<text text-anchor="middle" x="436" y="-113.3" font-family="Helvetica,sans-Serif" font-size="14.00">_basis.cc</text>
</a>
</g>
</g>
<!-- Node5&#45;&gt;Node6 -->
<g id="edge5" class="edge"><title>Node5&#45;&gt;Node6</title>
<path fill="none" stroke="midnightblue" d="M482.093,-202.157C474.995,-192.662 467.538,-182.688 460.741,-173.595"/>
<polygon fill="midnightblue" stroke="midnightblue" points="479.422,-204.43 488.213,-210.343 485.029,-200.238 479.422,-204.43"/>
</g>
<!-- Node7 -->
<g id="node7" class="node"><title>Node7</title>
<g id="a_node7"><a xlink:href="ned__rt__global_8h.html" target="_top" xlink:title="/home/travis/build\l/konsim83/MPI&#45;MSFEC\l/include/Ned_RT/ned_rt\l_global.h">
<polygon fill="white" stroke="black" points="572,-105.5 572,-173.5 732,-173.5 732,-105.5 572,-105.5"/>
<text text-anchor="start" x="580" y="-158.3" font-family="Helvetica,sans-Serif" font-size="14.00">/home/travis/build</text>
<text text-anchor="start" x="580" y="-143.3" font-family="Helvetica,sans-Serif" font-size="14.00">/konsim83/MPI&#45;MSFEC</text>
<text text-anchor="start" x="580" y="-128.3" font-family="Helvetica,sans-Serif" font-size="14.00">/include/Ned_RT/ned_rt</text>
<text text-anchor="middle" x="652" y="-113.3" font-family="Helvetica,sans-Serif" font-size="14.00">_global.h</text>
</a>
</g>
</g>
<!-- Node5&#45;&gt;Node7 -->
<g id="edge6" class="edge"><title>Node5&#45;&gt;Node7</title>
<path fill="none" stroke="midnightblue" d="M566.085,-204.163C579.697,-194.077 594.199,-183.331 607.338,-173.595"/>
<polygon fill="midnightblue" stroke="midnightblue" points="563.696,-201.577 557.746,-210.343 567.864,-207.202 563.696,-201.577"/>
</g>
<!-- Node8 -->
<g id="node8" class="node"><title>Node8</title>
<g id="a_node8"><a xlink:href="main__ned__rt_8cxx.html" target="_top" xlink:title="/home/travis/build\l/konsim83/MPI&#45;MSFEC\l/source/main_ned_rt.cxx">
<polygon fill="white" stroke="black" points="803,-8 803,-61 967,-61 967,-8 803,-8"/>
<text text-anchor="start" x="811" y="-45.8" font-family="Helvetica,sans-Serif" font-size="14.00">/home/travis/build</text>
<text text-anchor="start" x="811" y="-30.8" font-family="Helvetica,sans-Serif" font-size="14.00">/konsim83/MPI&#45;MSFEC</text>
<text text-anchor="middle" x="885" y="-15.8" font-family="Helvetica,sans-Serif" font-size="14.00">/source/main_ned_rt.cxx</text>
</a>
</g>
</g>
<!-- Node7&#45;&gt;Node8 -->
<g id="edge7" class="edge"><title>Node7&#45;&gt;Node8</title>
<path fill="none" stroke="midnightblue" d="M735.94,-101.393C766.127,-88.0491 799.484,-73.303 826.976,-61.1499"/>
<polygon fill="midnightblue" stroke="midnightblue" points="734.415,-98.2408 726.684,-105.485 737.245,-104.643 734.415,-98.2408"/>
</g>
<!-- Node9 -->
<g id="node9" class="node"><title>Node9</title>
<g id="a_node9"><a xlink:href="ned__rt__global_8cc.html" target="_top" xlink:title="/home/travis/build\l/konsim83/MPI&#45;MSFEC\l/source/Ned_RT/ned_rt\l_global.cc">
<polygon fill="white" stroke="black" points="572,-0.5 572,-68.5 732,-68.5 732,-0.5 572,-0.5"/>
<text text-anchor="start" x="580" y="-53.3" font-family="Helvetica,sans-Serif" font-size="14.00">/home/travis/build</text>
<text text-anchor="start" x="580" y="-38.3" font-family="Helvetica,sans-Serif" font-size="14.00">/konsim83/MPI&#45;MSFEC</text>
<text text-anchor="start" x="580" y="-23.3" font-family="Helvetica,sans-Serif" font-size="14.00">/source/Ned_RT/ned_rt</text>
<text text-anchor="middle" x="652" y="-8.3" font-family="Helvetica,sans-Serif" font-size="14.00">_global.cc</text>
</a>
</g>
</g>
<!-- Node7&#45;&gt;Node9 -->
<g id="edge8" class="edge"><title>Node7&#45;&gt;Node9</title>
<path fill="none" stroke="midnightblue" d="M652,-95.1362C652,-86.256 652,-77.0447 652,-68.5947"/>
<polygon fill="midnightblue" stroke="midnightblue" points="648.5,-95.3432 652,-105.343 655.5,-95.3432 648.5,-95.3432"/>
</g>
<!-- Node10&#45;&gt;Node8 -->
<g id="edge10" class="edge"><title>Node10&#45;&gt;Node8</title>
<path fill="none" stroke="midnightblue" d="M1016.12,-213.488C995.06,-203.282 973.773,-190.237 957,-174 952.522,-169.665 917.286,-100.012 897.82,-61.1754"/>
<polygon fill="midnightblue" stroke="midnightblue" points="1014.9,-216.781 1025.44,-217.834 1017.86,-210.436 1014.9,-216.781"/>
</g>
<!-- Node11 -->
<g id="node11" class="node"><title>Node11</title>
<g id="a_node11"><a xlink:href="ned__rt__ref_8cc.html" target="_top" xlink:title="/home/travis/build\l/konsim83/MPI&#45;MSFEC\l/source/Ned_RT/ned_rt\l_ref.cc">
<polygon fill="white" stroke="black" points="966,-105.5 966,-173.5 1126,-173.5 1126,-105.5 966,-105.5"/>
<text text-anchor="start" x="974" y="-158.3" font-family="Helvetica,sans-Serif" font-size="14.00">/home/travis/build</text>
<text text-anchor="start" x="974" y="-143.3" font-family="Helvetica,sans-Serif" font-size="14.00">/konsim83/MPI&#45;MSFEC</text>
<text text-anchor="start" x="974" y="-128.3" font-family="Helvetica,sans-Serif" font-size="14.00">/source/Ned_RT/ned_rt</text>
<text text-anchor="middle" x="1046" y="-113.3" font-family="Helvetica,sans-Serif" font-size="14.00">_ref.cc</text>
</a>
</g>
</g>
<!-- Node10&#45;&gt;Node11 -->
<g id="edge11" class="edge"><title>Node10&#45;&gt;Node11</title>
<path fill="none" stroke="midnightblue" d="M1083.22,-208.962C1077.03,-197.58 1070.17,-184.953 1064.04,-173.675"/>
<polygon fill="midnightblue" stroke="midnightblue" points="1080.16,-210.661 1088.01,-217.774 1086.31,-207.317 1080.16,-210.661"/>
</g>
<!-- Node13 -->
<g id="node13" class="node"><title>Node13</title>
<g id="a_node13"><a xlink:href="q__basis_8cc.html" target="_top" xlink:title="/home/travis/build\l/konsim83/MPI&#45;MSFEC\l/source/Q/q_basis.cc">
<polygon fill="white" stroke="black" points="178,-113 178,-166 338,-166 338,-113 178,-113"/>
<text text-anchor="start" x="186" y="-150.8" font-family="Helvetica,sans-Serif" font-size="14.00">/home/travis/build</text>
<text text-anchor="start" x="186" y="-135.8" font-family="Helvetica,sans-Serif" font-size="14.00">/konsim83/MPI&#45;MSFEC</text>
<text text-anchor="middle" x="258" y="-120.8" font-family="Helvetica,sans-Serif" font-size="14.00">/source/Q/q_basis.cc</text>
</a>
</g>
</g>
<!-- Node12&#45;&gt;Node13 -->
<g id="edge13" class="edge"><title>Node12&#45;&gt;Node13</title>
<path fill="none" stroke="midnightblue" d="M309.748,-209.721C299.176,-195.58 287.087,-179.409 277.253,-166.255"/>
<polygon fill="midnightblue" stroke="midnightblue" points="306.977,-211.861 315.768,-217.774 312.584,-207.669 306.977,-211.861"/>
</g>
<!-- Node14 -->
<g id="node14" class="node"><title>Node14</title>
<g id="a_node14"><a xlink:href="q__global_8h.html" target="_top" xlink:title="/home/travis/build\l/konsim83/MPI&#45;MSFEC\l/include/Q/q_global.h">
<polygon fill="white" stroke="black" points="0,-113 0,-166 160,-166 160,-113 0,-113"/>
<text text-anchor="start" x="8" y="-150.8" font-family="Helvetica,sans-Serif" font-size="14.00">/home/travis/build</text>
<text text-anchor="start" x="8" y="-135.8" font-family="Helvetica,sans-Serif" font-size="14.00">/konsim83/MPI&#45;MSFEC</text>
<text text-anchor="middle" x="80" y="-120.8" font-family="Helvetica,sans-Serif" font-size="14.00">/include/Q/q_global.h</text>
</a>
</g>
</g>
<!-- Node12&#45;&gt;Node14 -->
<g id="edge14" class="edge"><title>Node12&#45;&gt;Node14</title>
<path fill="none" stroke="midnightblue" d="M262.289,-214.13C224.81,-198.992 179.532,-180.703 143.477,-166.14"/>
<polygon fill="midnightblue" stroke="midnightblue" points="261.056,-217.407 271.639,-217.907 263.677,-210.916 261.056,-217.407"/>
</g>
<!-- Node15 -->
<g id="node15" class="node"><title>Node15</title>
<g id="a_node15"><a xlink:href="main__q_8cxx.html" target="_top" xlink:title="/home/travis/build\l/konsim83/MPI&#45;MSFEC\l/source/main_q.cxx">
<polygon fill="white" stroke="black" points="286,-8 286,-61 446,-61 446,-8 286,-8"/>
<text text-anchor="start" x="294" y="-45.8" font-family="Helvetica,sans-Serif" font-size="14.00">/home/travis/build</text>
<text text-anchor="start" x="294" y="-30.8" font-family="Helvetica,sans-Serif" font-size="14.00">/konsim83/MPI&#45;MSFEC</text>
<text text-anchor="middle" x="366" y="-15.8" font-family="Helvetica,sans-Serif" font-size="14.00">/source/main_q.cxx</text>
</a>
</g>
</g>
<!-- Node14&#45;&gt;Node15 -->
<g id="edge15" class="edge"><title>Node14&#45;&gt;Node15</title>
<path fill="none" stroke="midnightblue" d="M156.997,-109.405C161.054,-107.907 165.074,-106.431 169,-105 209.718,-90.156 255.348,-74.0263 292.432,-61.0457"/>
<polygon fill="midnightblue" stroke="midnightblue" points="155.652,-106.17 147.491,-112.927 158.084,-112.734 155.652,-106.17"/>
</g>
<!-- Node16 -->
<g id="node16" class="node"><title>Node16</title>
<g id="a_node16"><a xlink:href="q__global_8cc.html" target="_top" xlink:title="/home/travis/build\l/konsim83/MPI&#45;MSFEC\l/source/Q/q_global.cc">
<polygon fill="white" stroke="black" points="0,-8 0,-61 160,-61 160,-8 0,-8"/>
<text text-anchor="start" x="8" y="-45.8" font-family="Helvetica,sans-Serif" font-size="14.00">/home/travis/build</text>
<text text-anchor="start" x="8" y="-30.8" font-family="Helvetica,sans-Serif" font-size="14.00">/konsim83/MPI&#45;MSFEC</text>
<text text-anchor="middle" x="80" y="-15.8" font-family="Helvetica,sans-Serif" font-size="14.00">/source/Q/q_global.cc</text>
</a>
</g>
</g>
<!-- Node14&#45;&gt;Node16 -->
<g id="edge16" class="edge"><title>Node14&#45;&gt;Node16</title>
<path fill="none" stroke="midnightblue" d="M80,-102.726C80,-89.0753 80,-73.7942 80,-61.2546"/>
<polygon fill="midnightblue" stroke="midnightblue" points="76.5001,-102.774 80,-112.774 83.5001,-102.774 76.5001,-102.774"/>
</g>
<!-- Node17&#45;&gt;Node15 -->
<g id="edge18" class="edge"><title>Node17&#45;&gt;Node15</title>
<path fill="none" stroke="midnightblue" d="M796.095,-214.761C790.687,-213.029 785.282,-211.418 780,-210 685.579,-184.659 642.799,-230.477 563,-174 534.423,-153.775 550.86,-128.6 525,-105 502.748,-84.6922 473.618,-69.645 446.38,-58.8473"/>
<polygon fill="midnightblue" stroke="midnightblue" points="795.213,-218.156 805.807,-217.992 797.423,-211.514 795.213,-218.156"/>
</g>
<!-- Node18 -->
<g id="node18" class="node"><title>Node18</title>
<g id="a_node18"><a xlink:href="q__ref_8cc.html" target="_top" xlink:title="/home/travis/build\l/konsim83/MPI&#45;MSFEC\l/source/Q/q_ref.cc">
<polygon fill="white" stroke="black" points="750,-113 750,-166 910,-166 910,-113 750,-113"/>
<text text-anchor="start" x="758" y="-150.8" font-family="Helvetica,sans-Serif" font-size="14.00">/home/travis/build</text>
<text text-anchor="start" x="758" y="-135.8" font-family="Helvetica,sans-Serif" font-size="14.00">/konsim83/MPI&#45;MSFEC</text>
<text text-anchor="middle" x="830" y="-120.8" font-family="Helvetica,sans-Serif" font-size="14.00">/source/Q/q_ref.cc</text>
</a>
</g>
</g>
<!-- Node17&#45;&gt;Node18 -->
<g id="edge19" class="edge"><title>Node17&#45;&gt;Node18</title>
<path fill="none" stroke="midnightblue" d="M855.606,-208.127C850.399,-194.375 844.546,-178.917 839.752,-166.255"/>
<polygon fill="midnightblue" stroke="midnightblue" points="852.445,-209.662 859.259,-217.774 858.991,-207.183 852.445,-209.662"/>
</g>
<!-- Node20 -->
<g id="node20" class="node"><title>Node20</title>
<g id="a_node20"><a xlink:href="q__ned__basis_8cc.html" target="_top" xlink:title="/home/travis/build\l/konsim83/MPI&#45;MSFEC\l/source/Q_Ned/q_ned_basis.cc">
<polygon fill="white" stroke="black" points="2030,-113 2030,-166 2236,-166 2236,-113 2030,-113"/>
<text text-anchor="start" x="2038" y="-150.8" font-family="Helvetica,sans-Serif" font-size="14.00">/home/travis/build</text>
<text text-anchor="start" x="2038" y="-135.8" font-family="Helvetica,sans-Serif" font-size="14.00">/konsim83/MPI&#45;MSFEC</text>
<text text-anchor="middle" x="2133" y="-120.8" font-family="Helvetica,sans-Serif" font-size="14.00">/source/Q_Ned/q_ned_basis.cc</text>
</a>
</g>
</g>
<!-- Node19&#45;&gt;Node20 -->
<g id="edge21" class="edge"><title>Node19&#45;&gt;Node20</title>
<path fill="none" stroke="midnightblue" d="M1995.54,-206.048C2023.33,-192.795 2053.94,-178.198 2079.21,-166.15"/>
<polygon fill="midnightblue" stroke="midnightblue" points="1993.75,-203.022 1986.24,-210.485 1996.77,-209.34 1993.75,-203.022"/>
</g>
<!-- Node19&#45;&gt;Node21 -->
<g id="edge22" class="edge"><title>Node19&#45;&gt;Node21</title>
<path fill="none" stroke="midnightblue" d="M2007.06,-228.216C2073.47,-216.029 2165.68,-197.186 2245,-174 2247.85,-173.166 2250.74,-172.284 2253.65,-171.364"/>
<polygon fill="midnightblue" stroke="midnightblue" points="2006.25,-224.805 1997.04,-230.04 2007.5,-231.692 2006.25,-224.805"/>
</g>
<!-- Node22 -->
<g id="node22" class="node"><title>Node22</title>
<g id="a_node22"><a xlink:href="main__q__ned_8cxx.html" target="_top" xlink:title="/home/travis/build\l/konsim83/MPI&#45;MSFEC\l/source/main_q_ned.cxx">
<polygon fill="white" stroke="black" points="1873,-8 1873,-61 2037,-61 2037,-8 1873,-8"/>
<text text-anchor="start" x="1881" y="-45.8" font-family="Helvetica,sans-Serif" font-size="14.00">/home/travis/build</text>
<text text-anchor="start" x="1881" y="-30.8" font-family="Helvetica,sans-Serif" font-size="14.00">/konsim83/MPI&#45;MSFEC</text>
<text text-anchor="middle" x="1955" y="-15.8" font-family="Helvetica,sans-Serif" font-size="14.00">/source/main_q_ned.cxx</text>
</a>
</g>
</g>
<!-- Node21&#45;&gt;Node22 -->
<g id="edge23" class="edge"><title>Node21&#45;&gt;Node22</title>
<path fill="none" stroke="midnightblue" d="M2244.04,-104.812C2169.3,-82.2546 2093.36,-64.5003 2037.3,-52.3535"/>
<polygon fill="midnightblue" stroke="midnightblue" points="2243.04,-108.165 2253.63,-107.733 2245.08,-101.47 2243.04,-108.165"/>
</g>
<!-- Node23 -->
<g id="node23" class="node"><title>Node23</title>
<g id="a_node23"><a xlink:href="q__ned__global_8cc.html" target="_top" xlink:title="/home/travis/build\l/konsim83/MPI&#45;MSFEC\l/source/Q_Ned/q_ned_global.cc">
<polygon fill="white" stroke="black" points="2229,-8 2229,-61 2439,-61 2439,-8 2229,-8"/>
<text text-anchor="start" x="2237" y="-45.8" font-family="Helvetica,sans-Serif" font-size="14.00">/home/travis/build</text>
<text text-anchor="start" x="2237" y="-30.8" font-family="Helvetica,sans-Serif" font-size="14.00">/konsim83/MPI&#45;MSFEC</text>
<text text-anchor="middle" x="2334" y="-15.8" font-family="Helvetica,sans-Serif" font-size="14.00">/source/Q_Ned/q_ned_global.cc</text>
</a>
</g>
</g>
<!-- Node21&#45;&gt;Node23 -->
<g id="edge24" class="edge"><title>Node21&#45;&gt;Node23</title>
<path fill="none" stroke="midnightblue" d="M2334,-95.3157C2334,-83.6635 2334,-71.4279 2334,-61.0806"/>
<polygon fill="midnightblue" stroke="midnightblue" points="2330.5,-95.3432 2334,-105.343 2337.5,-95.3432 2330.5,-95.3432"/>
</g>
<!-- Node24&#45;&gt;Node22 -->
<g id="edge26" class="edge"><title>Node24&#45;&gt;Node22</title>
<path fill="none" stroke="midnightblue" d="M1635.28,-214.779C1640.26,-213.158 1645.19,-211.556 1650,-210 1700.15,-193.776 1722.28,-207.466 1763,-174 1790.05,-151.772 1775.28,-128.753 1801,-105 1821.36,-86.1935 1847.68,-71.8011 1872.77,-61.1266"/>
<polygon fill="midnightblue" stroke="midnightblue" points="1634.09,-211.485 1625.67,-217.912 1636.26,-218.14 1634.09,-211.485"/>
</g>
<!-- Node25 -->
<g id="node25" class="node"><title>Node25</title>
<g id="a_node25"><a xlink:href="q__ned__ref_8cc.html" target="_top" xlink:title="/home/travis/build\l/konsim83/MPI&#45;MSFEC\l/source/Q_Ned/q_ned_ref.cc">
<polygon fill="white" stroke="black" points="1564,-113 1564,-166 1754,-166 1754,-113 1564,-113"/>
<text text-anchor="start" x="1572" y="-150.8" font-family="Helvetica,sans-Serif" font-size="14.00">/home/travis/build</text>
<text text-anchor="start" x="1572" y="-135.8" font-family="Helvetica,sans-Serif" font-size="14.00">/konsim83/MPI&#45;MSFEC</text>
<text text-anchor="middle" x="1659" y="-120.8" font-family="Helvetica,sans-Serif" font-size="14.00">/source/Q_Ned/q_ned_ref.cc</text>
</a>
</g>
</g>
<!-- Node24&#45;&gt;Node25 -->
<g id="edge27" class="edge"><title>Node24&#45;&gt;Node25</title>
<path fill="none" stroke="midnightblue" d="M1583.13,-210.906C1598.66,-196.489 1616.67,-179.778 1631.25,-166.255"/>
<polygon fill="midnightblue" stroke="midnightblue" points="1580.67,-208.407 1575.72,-217.774 1585.43,-213.538 1580.67,-208.407"/>
</g>
<!-- Node27 -->
<g id="node27" class="node"><title>Node27</title>
<g id="a_node27"><a xlink:href="rt__dq__basis_8cc.html" target="_top" xlink:title="/home/travis/build\l/konsim83/MPI&#45;MSFEC\l/source/RT_DQ/rt_dq_basis.cc">
<polygon fill="white" stroke="black" points="1810,-113 1810,-166 2012,-166 2012,-113 1810,-113"/>
<text text-anchor="start" x="1818" y="-150.8" font-family="Helvetica,sans-Serif" font-size="14.00">/home/travis/build</text>
<text text-anchor="start" x="1818" y="-135.8" font-family="Helvetica,sans-Serif" font-size="14.00">/konsim83/MPI&#45;MSFEC</text>
<text text-anchor="middle" x="1911" y="-120.8" font-family="Helvetica,sans-Serif" font-size="14.00">/source/RT_DQ/rt_dq_basis.cc</text>
</a>
</g>
</g>
<!-- Node26&#45;&gt;Node27 -->
<g id="edge29" class="edge"><title>Node26&#45;&gt;Node27</title>
<path fill="none" stroke="midnightblue" d="M1803.22,-205.044C1824.94,-192.036 1848.65,-177.839 1868.28,-166.081"/>
<polygon fill="midnightblue" stroke="midnightblue" points="1801.15,-202.203 1794.37,-210.343 1804.75,-208.208 1801.15,-202.203"/>
</g>
<!-- Node28 -->
<g id="node28" class="node"><title>Node28</title>
<g id="a_node28"><a xlink:href="rt__dq__global_8h.html" target="_top" xlink:title="/home/travis/build\l/konsim83/MPI&#45;MSFEC\l/include/RT_DQ/rt_dq\l_global.h">
<polygon fill="white" stroke="black" points="1386,-105.5 1386,-173.5 1546,-173.5 1546,-105.5 1386,-105.5"/>
<text text-anchor="start" x="1394" y="-158.3" font-family="Helvetica,sans-Serif" font-size="14.00">/home/travis/build</text>
<text text-anchor="start" x="1394" y="-143.3" font-family="Helvetica,sans-Serif" font-size="14.00">/konsim83/MPI&#45;MSFEC</text>
<text text-anchor="start" x="1394" y="-128.3" font-family="Helvetica,sans-Serif" font-size="14.00">/include/RT_DQ/rt_dq</text>
<text text-anchor="middle" x="1466" y="-113.3" font-family="Helvetica,sans-Serif" font-size="14.00">_global.h</text>
</a>
</g>
</g>
<!-- Node26&#45;&gt;Node28 -->
<g id="edge30" class="edge"><title>Node26&#45;&gt;Node28</title>
<path fill="none" stroke="midnightblue" d="M1649.21,-209.623C1615.92,-197.065 1578.43,-182.917 1546.06,-170.707"/>
<polygon fill="midnightblue" stroke="midnightblue" points="1648.34,-213.037 1658.94,-213.293 1650.81,-206.488 1648.34,-213.037"/>
</g>
<!-- Node29 -->
<g id="node29" class="node"><title>Node29</title>
<g id="a_node29"><a xlink:href="main__rt__dq_8cxx.html" target="_top" xlink:title="/home/travis/build\l/konsim83/MPI&#45;MSFEC\l/source/main_rt_dq.cxx">
<polygon fill="white" stroke="black" points="1278,-8 1278,-61 1438,-61 1438,-8 1278,-8"/>
<text text-anchor="start" x="1286" y="-45.8" font-family="Helvetica,sans-Serif" font-size="14.00">/home/travis/build</text>
<text text-anchor="start" x="1286" y="-30.8" font-family="Helvetica,sans-Serif" font-size="14.00">/konsim83/MPI&#45;MSFEC</text>
<text text-anchor="middle" x="1358" y="-15.8" font-family="Helvetica,sans-Serif" font-size="14.00">/source/main_rt_dq.cxx</text>
</a>
</g>
</g>
<!-- Node28&#45;&gt;Node29 -->
<g id="edge31" class="edge"><title>Node28&#45;&gt;Node29</title>
<path fill="none" stroke="midnightblue" d="M1423.67,-98.1277C1410.59,-85.6533 1396.55,-72.2641 1384.82,-61.0806"/>
<polygon fill="midnightblue" stroke="midnightblue" points="1421.58,-100.974 1431.23,-105.343 1426.41,-95.9088 1421.58,-100.974"/>
</g>
<!-- Node30 -->
<g id="node30" class="node"><title>Node30</title>
<g id="a_node30"><a xlink:href="rt__dq__global_8cc.html" target="_top" xlink:title="/home/travis/build\l/konsim83/MPI&#45;MSFEC\l/source/RT_DQ/rt_dq_global.cc">
<polygon fill="white" stroke="black" points="1456,-8 1456,-61 1662,-61 1662,-8 1456,-8"/>
<text text-anchor="start" x="1464" y="-45.8" font-family="Helvetica,sans-Serif" font-size="14.00">/home/travis/build</text>
<text text-anchor="start" x="1464" y="-30.8" font-family="Helvetica,sans-Serif" font-size="14.00">/konsim83/MPI&#45;MSFEC</text>
<text text-anchor="middle" x="1559" y="-15.8" font-family="Helvetica,sans-Serif" font-size="14.00">/source/RT_DQ/rt_dq_global.cc</text>
</a>
</g>
</g>
<!-- Node28&#45;&gt;Node30 -->
<g id="edge32" class="edge"><title>Node28&#45;&gt;Node30</title>
<path fill="none" stroke="midnightblue" d="M1502.77,-97.7777C1513.94,-85.4032 1525.9,-72.1596 1535.9,-61.0806"/>
<polygon fill="midnightblue" stroke="midnightblue" points="1500.04,-95.5754 1495.94,-105.343 1505.24,-100.267 1500.04,-95.5754"/>
</g>
<!-- Node31&#45;&gt;Node29 -->
<g id="edge34" class="edge"><title>Node31&#45;&gt;Node29</title>
<path fill="none" stroke="midnightblue" d="M1325.88,-208.606C1330.8,-197.756 1335.69,-185.595 1339,-174 1349.95,-135.608 1354.68,-89.3678 1356.65,-61.2183"/>
<polygon fill="midnightblue" stroke="midnightblue" points="1322.67,-207.216 1321.58,-217.755 1329,-210.191 1322.67,-207.216"/>
</g>
<!-- Node32 -->
<g id="node32" class="node"><title>Node32</title>
<g id="a_node32"><a xlink:href="rt__dq__ref_8cc.html" target="_top" xlink:title="/home/travis/build\l/konsim83/MPI&#45;MSFEC\l/source/RT_DQ/rt_dq_ref.cc">
<polygon fill="white" stroke="black" points="1144,-113 1144,-166 1330,-166 1330,-113 1144,-113"/>
<text text-anchor="start" x="1152" y="-150.8" font-family="Helvetica,sans-Serif" font-size="14.00">/home/travis/build</text>
<text text-anchor="start" x="1152" y="-135.8" font-family="Helvetica,sans-Serif" font-size="14.00">/konsim83/MPI&#45;MSFEC</text>
<text text-anchor="middle" x="1237" y="-120.8" font-family="Helvetica,sans-Serif" font-size="14.00">/source/RT_DQ/rt_dq_ref.cc</text>
</a>
</g>
</g>
<!-- Node31&#45;&gt;Node32 -->
<g id="edge35" class="edge"><title>Node31&#45;&gt;Node32</title>
<path fill="none" stroke="midnightblue" d="M1284.44,-209.324C1274.76,-195.278 1263.74,-179.286 1254.75,-166.255"/>
<polygon fill="midnightblue" stroke="midnightblue" points="1281.71,-211.527 1290.27,-217.774 1287.47,-207.555 1281.71,-211.527"/>
</g>
<!-- Node33&#45;&gt;Node5 -->
<g id="edge43" class="edge"><title>Node33&#45;&gt;Node5</title>
<path fill="none" stroke="midnightblue" d="M1250.62,-314.952C966.894,-257.28 881.798,-337.954 602,-279 599.092,-278.387 596.153,-277.695 593.202,-276.938"/>
<polygon fill="midnightblue" stroke="midnightblue" points="1250.3,-318.459 1260.8,-317.062 1251.72,-311.605 1250.3,-318.459"/>
</g>
<!-- Node33&#45;&gt;Node7 -->
<g id="edge44" class="edge"><title>Node33&#45;&gt;Node7</title>
<path fill="none" stroke="midnightblue" d="M1250.69,-314.971C1137.8,-289.755 1087.92,-342.366 996,-279 967.176,-259.13 986.577,-230.225 958,-210 878.201,-153.523 835.421,-199.341 741,-174 738.13,-173.23 735.223,-172.402 732.3,-171.529"/>
<polygon fill="midnightblue" stroke="midnightblue" points="1250.18,-318.449 1260.72,-317.379 1251.82,-311.642 1250.18,-318.449"/>
</g>
<!-- Node33&#45;&gt;Node10 -->
<g id="edge45" class="edge"><title>Node33&#45;&gt;Node10</title>
<path fill="none" stroke="midnightblue" d="M1254.9,-311.393C1223.93,-298.049 1189.72,-283.303 1161.52,-271.15"/>
<polygon fill="midnightblue" stroke="midnightblue" points="1253.82,-314.742 1264.39,-315.485 1256.59,-308.313 1253.82,-314.742"/>
</g>
<!-- Node33&#45;&gt;Node12 -->
<g id="edge46" class="edge"><title>Node33&#45;&gt;Node12</title>
<path fill="none" stroke="midnightblue" d="M1250.85,-315.008C889.181,-243.199 781.618,-352.136 424,-279 414.457,-277.048 404.585,-274.217 395.043,-271.015"/>
<polygon fill="midnightblue" stroke="midnightblue" points="1250.31,-318.47 1260.81,-317.017 1251.7,-311.608 1250.31,-318.47"/>
</g>
<!-- Node33&#45;&gt;Node17 -->
<g id="edge47" class="edge"><title>Node33&#45;&gt;Node17</title>
<path fill="none" stroke="midnightblue" d="M1250.69,-314.892C1124.38,-285.215 1085.74,-308.145 963,-279 953.813,-276.819 944.278,-274.048 934.959,-271.037"/>
<polygon fill="midnightblue" stroke="midnightblue" points="1250.2,-318.374 1260.74,-317.32 1251.84,-311.57 1250.2,-318.374"/>
</g>
<!-- Node33&#45;&gt;Node19 -->
<g id="edge48" class="edge"><title>Node33&#45;&gt;Node19</title>
<path fill="none" stroke="midnightblue" d="M1431.57,-341.527C1530.24,-332.558 1692.16,-313.812 1828,-279 1830.88,-278.262 1833.79,-277.463 1836.72,-276.613"/>
<polygon fill="midnightblue" stroke="midnightblue" points="1430.99,-338.065 1421.34,-342.443 1431.61,-345.037 1430.99,-338.065"/>
</g>
<!-- Node33&#45;&gt;Node21 -->
<g id="edge49" class="edge"><title>Node33&#45;&gt;Node21</title>
<path fill="none" stroke="midnightblue" d="M1431.41,-347.453C1560.75,-344.075 1805.15,-330.679 2006,-279 2102.08,-254.278 2206.61,-206.115 2271.23,-173.621"/>
<polygon fill="midnightblue" stroke="midnightblue" points="1431.07,-343.96 1421.16,-347.706 1431.25,-350.958 1431.07,-343.96"/>
</g>
<!-- Node33&#45;&gt;Node24 -->
<g id="edge50" class="edge"><title>Node33&#45;&gt;Node24</title>
<path fill="none" stroke="midnightblue" d="M1416.62,-310.875C1443.16,-297.668 1472.34,-283.146 1496.45,-271.15"/>
<polygon fill="midnightblue" stroke="midnightblue" points="1414.74,-307.897 1407.35,-315.485 1417.86,-314.164 1414.74,-307.897"/>
</g>
<!-- Node33&#45;&gt;Node26 -->
<g id="edge51" class="edge"><title>Node33&#45;&gt;Node26</title>
<path fill="none" stroke="midnightblue" d="M1431.33,-331.626C1493.4,-319.194 1577.39,-300.716 1650,-279 1652.85,-278.148 1655.73,-277.251 1658.64,-276.318"/>
<polygon fill="midnightblue" stroke="midnightblue" points="1430.3,-328.263 1421.17,-333.646 1431.66,-335.128 1430.3,-328.263"/>
</g>
<!-- Node33&#45;&gt;Node28 -->
<g id="edge52" class="edge"><title>Node33&#45;&gt;Node28</title>
<path fill="none" stroke="midnightblue" d="M1384.85,-307.978C1393.2,-298.955 1401.38,-289.064 1408,-279 1429.92,-245.678 1446.36,-202.715 1456.03,-173.537"/>
<polygon fill="midnightblue" stroke="midnightblue" points="1382.2,-305.685 1377.83,-315.337 1387.26,-310.517 1382.2,-305.685"/>
</g>
<!-- Node33&#45;&gt;Node31 -->
<g id="edge53" class="edge"><title>Node33&#45;&gt;Node31</title>
<path fill="none" stroke="midnightblue" d="M1327.28,-305.669C1323.51,-293.911 1319.54,-281.532 1316.2,-271.081"/>
<polygon fill="midnightblue" stroke="midnightblue" points="1323.99,-306.888 1330.38,-315.343 1330.66,-304.752 1323.99,-306.888"/>
</g>
</g>
</svg>
