<?xml version="1.0" encoding="UTF-8" standalone="no"?>
<!DOCTYPE svg PUBLIC "-//W3C//DTD SVG 1.1//EN"
 "http://www.w3.org/Graphics/SVG/1.1/DTD/svg11.dtd">
<!-- Generated by graphviz version 2.38.0 (20140413.2041)
 -->
<!-- Title: /home/travis/build/konsim83/MPI&#45;MSFEC/source/equation_data/eqn_rhs.cc Pages: 1 -->
<svg width="1598pt" height="347pt"
 viewBox="0.00 0.00 1598.00 347.00" xmlns="http://www.w3.org/2000/svg" xmlns:xlink="http://www.w3.org/1999/xlink">
<g id="graph0" class="graph" transform="scale(1 1) rotate(0) translate(4 343)">
<title>/home/travis/build/konsim83/MPI&#45;MSFEC/source/equation_data/eqn_rhs.cc</title>
<polygon fill="white" stroke="none" points="-4,4 -4,-343 1594,-343 1594,4 -4,4"/>
<!-- Node1 -->
<g id="node1" class="node"><title>Node1</title>
<polygon fill="#bfbfbf" stroke="black" points="834.5,-270.5 834.5,-338.5 994.5,-338.5 994.5,-270.5 834.5,-270.5"/>
<text text-anchor="start" x="842.5" y="-323.3" font-family="Helvetica,sans-Serif" font-size="14.00">/home/travis/build</text>
<text text-anchor="start" x="842.5" y="-308.3" font-family="Helvetica,sans-Serif" font-size="14.00">/konsim83/MPI&#45;MSFEC</text>
<text text-anchor="start" x="842.5" y="-293.3" font-family="Helvetica,sans-Serif" font-size="14.00">/source/equation_data</text>
<text text-anchor="middle" x="914.5" y="-278.3" font-family="Helvetica,sans-Serif" font-size="14.00">/eqn_rhs.cc</text>
</g>
<!-- Node2 -->
<g id="node2" class="node"><title>Node2</title>
<g id="a_node2"><a xlink:href="eqn__rhs_8h.html" target="_top" xlink:title="equation_data/eqn_rhs.h">
<polygon fill="white" stroke="black" points="831.5,-210.5 831.5,-233.5 997.5,-233.5 997.5,-210.5 831.5,-210.5"/>
<text text-anchor="middle" x="914.5" y="-218.3" font-family="Helvetica,sans-Serif" font-size="14.00">equation_data/eqn_rhs.h</text>
</a>
</g>
</g>
<!-- Node1&#45;&gt;Node2 -->
<g id="edge1" class="edge"><title>Node1&#45;&gt;Node2</title>
<path fill="none" stroke="midnightblue" d="M914.5,-270.293C914.5,-261.241 914.5,-251.699 914.5,-243.575"/>
<polygon fill="midnightblue" stroke="midnightblue" points="918,-243.555 914.5,-233.555 911,-243.555 918,-243.555"/>
</g>
<!-- Node3 -->
<g id="node3" class="node"><title>Node3</title>
<polygon fill="white" stroke="#bfbfbf" points="0,-8 0,-31 149,-31 149,-8 0,-8"/>
<text text-anchor="middle" x="74.5" y="-15.8" font-family="Helvetica,sans-Serif" font-size="14.00">deal.II/base/function.h</text>
</g>
<!-- Node2&#45;&gt;Node3 -->
<g id="edge2" class="edge"><title>Node2&#45;&gt;Node3</title>
<path fill="none" stroke="midnightblue" d="M831.328,-221.677C676.937,-221.863 352.375,-216.926 249.5,-174 178.286,-144.285 115.951,-73.5051 88.8658,-39.447"/>
<polygon fill="midnightblue" stroke="midnightblue" points="91.3805,-36.9804 82.4679,-31.2517 85.8627,-41.2879 91.3805,-36.9804"/>
</g>
<!-- Node4 -->
<g id="node4" class="node"><title>Node4</title>
<polygon fill="white" stroke="#bfbfbf" points="240,-8 240,-31 395,-31 395,-8 240,-8"/>
<text text-anchor="middle" x="317.5" y="-15.8" font-family="Helvetica,sans-Serif" font-size="14.00">deal.II/base/numbers.h</text>
</g>
<!-- Node2&#45;&gt;Node4 -->
<g id="edge3" class="edge"><title>Node2&#45;&gt;Node4</title>
<path fill="none" stroke="midnightblue" d="M831.43,-221.035C696.409,-219.936 436.098,-212.668 353.5,-174 311.09,-154.146 297.275,-142.323 279.5,-99 270.886,-78.0054 285.383,-54.6874 298.882,-38.9624"/>
<polygon fill="midnightblue" stroke="midnightblue" points="301.556,-41.2249 305.723,-31.4839 296.391,-36.5002 301.556,-41.2249"/>
</g>
<!-- Node5 -->
<g id="node5" class="node"><title>Node5</title>
<polygon fill="white" stroke="#bfbfbf" points="568.5,-0.5 568.5,-38.5 720.5,-38.5 720.5,-0.5 568.5,-0.5"/>
<text text-anchor="start" x="576.5" y="-23.3" font-family="Helvetica,sans-Serif" font-size="14.00">deal.II/base/parameter</text>
<text text-anchor="middle" x="644.5" y="-8.3" font-family="Helvetica,sans-Serif" font-size="14.00">_handler.h</text>
</g>
<!-- Node2&#45;&gt;Node5 -->
<g id="edge4" class="edge"><title>Node2&#45;&gt;Node5</title>
<path fill="none" stroke="midnightblue" d="M831.285,-217.482C679.52,-209.069 367.644,-181.872 305.5,-99 257.431,-34.8982 216.483,-98.9389 558.163,-38.986"/>
<polygon fill="midnightblue" stroke="midnightblue" points="558.886,-42.4124 568.123,-37.2225 557.666,-35.5197 558.886,-42.4124"/>
</g>
<!-- Node6 -->
<g id="node6" class="node"><title>Node6</title>
<polygon fill="white" stroke="#bfbfbf" points="1459,-135.5 1459,-173.5 1590,-173.5 1590,-135.5 1459,-135.5"/>
<text text-anchor="start" x="1467" y="-158.3" font-family="Helvetica,sans-Serif" font-size="14.00">deal.II/base/parsed</text>
<text text-anchor="middle" x="1524.5" y="-143.3" font-family="Helvetica,sans-Serif" font-size="14.00">_function.h</text>
</g>
<!-- Node2&#45;&gt;Node6 -->
<g id="edge5" class="edge"><title>Node2&#45;&gt;Node6</title>
<path fill="none" stroke="midnightblue" d="M997.56,-217.207C1102.28,-211.607 1287.59,-198.976 1444.5,-174 1445.81,-173.792 1447.12,-173.575 1448.45,-173.349"/>
<polygon fill="midnightblue" stroke="midnightblue" points="1449.51,-176.713 1458.72,-171.474 1448.26,-169.827 1449.51,-176.713"/>
</g>
<!-- Node7 -->
<g id="node7" class="node"><title>Node7</title>
<polygon fill="white" stroke="#bfbfbf" points="1165,-8 1165,-31 1296,-31 1296,-8 1165,-8"/>
<text text-anchor="middle" x="1230.5" y="-15.8" font-family="Helvetica,sans-Serif" font-size="14.00">deal.II/base/point.h</text>
</g>
<!-- Node2&#45;&gt;Node7 -->
<g id="edge6" class="edge"><title>Node2&#45;&gt;Node7</title>
<path fill="none" stroke="midnightblue" d="M997.716,-212.442C1057.39,-204.913 1131.49,-192.278 1156.5,-174 1200.92,-141.533 1219.85,-75.2276 1226.89,-41.3837"/>
<polygon fill="midnightblue" stroke="midnightblue" points="1230.39,-41.7275 1228.84,-31.2464 1223.51,-40.4057 1230.39,-41.7275"/>
</g>
<!-- Node8 -->
<g id="node8" class="node"><title>Node8</title>
<polygon fill="white" stroke="#bfbfbf" points="1314.5,-0.5 1314.5,-38.5 1442.5,-38.5 1442.5,-0.5 1314.5,-0.5"/>
<text text-anchor="start" x="1322.5" y="-23.3" font-family="Helvetica,sans-Serif" font-size="14.00">deal.II/base/tensor</text>
<text text-anchor="middle" x="1378.5" y="-8.3" font-family="Helvetica,sans-Serif" font-size="14.00">_function.h</text>
</g>
<!-- Node2&#45;&gt;Node8 -->
<g id="edge7" class="edge"><title>Node2&#45;&gt;Node8</title>
<path fill="none" stroke="midnightblue" d="M997.713,-217.663C1053.75,-212.833 1128.14,-201.296 1188.5,-174 1257.11,-142.972 1321.95,-81.135 1355.25,-46.1578"/>
<polygon fill="midnightblue" stroke="midnightblue" points="1357.95,-48.392 1362.25,-38.7076 1352.85,-43.5987 1357.95,-48.392"/>
</g>
<!-- Node9 -->
<g id="node9" class="node"><title>Node9</title>
<polygon fill="white" stroke="#bfbfbf" points="1012.5,-8 1012.5,-31 1066.5,-31 1066.5,-8 1012.5,-8"/>
<text text-anchor="middle" x="1039.5" y="-15.8" font-family="Helvetica,sans-Serif" font-size="14.00">cmath</text>
</g>
<!-- Node2&#45;&gt;Node9 -->
<g id="edge8" class="edge"><title>Node2&#45;&gt;Node9</title>
<path fill="none" stroke="midnightblue" d="M972.862,-210.482C1032.01,-196.377 1120.48,-165.013 1161.5,-99 1197.62,-40.8742 1091.3,-46.3553 1075.5,-39 1073.21,-37.9364 1070.86,-36.8075 1068.51,-35.6526"/>
<polygon fill="midnightblue" stroke="midnightblue" points="1070.05,-32.5119 1059.55,-31.1522 1066.91,-38.7675 1070.05,-32.5119"/>
</g>
<!-- Node10 -->
<g id="node10" class="node"><title>Node10</title>
<polygon fill="white" stroke="#bfbfbf" points="167,-8 167,-31 222,-31 222,-8 167,-8"/>
<text text-anchor="middle" x="194.5" y="-15.8" font-family="Helvetica,sans-Serif" font-size="14.00">cstdlib</text>
</g>
<!-- Node2&#45;&gt;Node10 -->
<g id="edge9" class="edge"><title>Node2&#45;&gt;Node10</title>
<path fill="none" stroke="midnightblue" d="M831.395,-218.743C673.223,-213.858 340.567,-200.546 295.5,-174 243.911,-143.613 213.678,-75.274 201.217,-40.966"/>
<polygon fill="midnightblue" stroke="midnightblue" points="204.381,-39.4096 197.791,-31.114 197.77,-41.7088 204.381,-39.4096"/>
</g>
<!-- Node11 -->
<g id="node11" class="node"><title>Node11</title>
<polygon fill="white" stroke="#bfbfbf" points="1084.5,-8 1084.5,-31 1146.5,-31 1146.5,-8 1084.5,-8"/>
<text text-anchor="middle" x="1115.5" y="-15.8" font-family="Helvetica,sans-Serif" font-size="14.00">fstream</text>
</g>
<!-- Node2&#45;&gt;Node11 -->
<g id="edge10" class="edge"><title>Node2&#45;&gt;Node11</title>
<path fill="none" stroke="midnightblue" d="M997.73,-213.524C1035.78,-207.2 1080.15,-195.53 1115.5,-174 1160.25,-146.747 1201.47,-122.565 1179.5,-75 1172.12,-59.0237 1157.49,-46.006 1144.08,-36.7044"/>
<polygon fill="midnightblue" stroke="midnightblue" points="1145.82,-33.6614 1135.53,-31.1348 1142,-39.5264 1145.82,-33.6614"/>
</g>
<!-- Node12 -->
<g id="node12" class="node"><title>Node12</title>
<polygon fill="white" stroke="#bfbfbf" points="869,-8 869,-31 922,-31 922,-8 869,-8"/>
<text text-anchor="middle" x="895.5" y="-15.8" font-family="Helvetica,sans-Serif" font-size="14.00">vector</text>
</g>
<!-- Node2&#45;&gt;Node12 -->
<g id="edge11" class="edge"><title>Node2&#45;&gt;Node12</title>
<path fill="none" stroke="midnightblue" d="M913.478,-210.22C910.45,-178.263 901.483,-83.6349 897.475,-41.3368"/>
<polygon fill="midnightblue" stroke="midnightblue" points="900.954,-40.9582 896.527,-31.333 893.986,-41.6187 900.954,-40.9582"/>
</g>
<!-- Node13 -->
<g id="node13" class="node"><title>Node13</title>
<g id="a_node13"><a xlink:href="eqn__coeff__A_8h.html" target="_top" xlink:title="equation_data/eqn_coeff_A.h">
<polygon fill="white" stroke="black" points="943,-75.5 943,-98.5 1136,-98.5 1136,-75.5 943,-75.5"/>
<text text-anchor="middle" x="1039.5" y="-83.3" font-family="Helvetica,sans-Serif" font-size="14.00">equation_data/eqn_coeff_A.h</text>
</a>
</g>
</g>
<!-- Node2&#45;&gt;Node13 -->
<g id="edge12" class="edge"><title>Node2&#45;&gt;Node13</title>
<path fill="none" stroke="midnightblue" d="M924.729,-210.116C946.169,-187.304 996.009,-134.274 1022.4,-106.195"/>
<polygon fill="midnightblue" stroke="midnightblue" points="1025.18,-108.346 1029.48,-98.6626 1020.08,-103.552 1025.18,-108.346"/>
</g>
<!-- Node14 -->
<g id="node14" class="node"><title>Node14</title>
<g id="a_node14"><a xlink:href="eqn__coeff__B_8h.html" target="_top" xlink:title="equation_data/eqn_coeff_B.h">
<polygon fill="white" stroke="black" points="315,-75.5 315,-98.5 508,-98.5 508,-75.5 315,-75.5"/>
<text text-anchor="middle" x="411.5" y="-83.3" font-family="Helvetica,sans-Serif" font-size="14.00">equation_data/eqn_coeff_B.h</text>
</a>
</g>
</g>
<!-- Node2&#45;&gt;Node14 -->
<g id="edge21" class="edge"><title>Node2&#45;&gt;Node14</title>
<path fill="none" stroke="midnightblue" d="M861.732,-210.446C818.477,-201.533 755.765,-188.014 701.5,-174 612.763,-151.083 510.237,-119.444 453.963,-101.625"/>
<polygon fill="midnightblue" stroke="midnightblue" points="454.931,-98.2603 444.34,-98.5701 452.812,-104.932 454.931,-98.2603"/>
</g>
<!-- Node16 -->
<g id="node16" class="node"><title>Node16</title>
<g id="a_node16"><a xlink:href="eqn__exact__solution__lin_8h.html" target="_top" xlink:title="equation_data/eqn_exact\l_solution_lin.h">
<polygon fill="white" stroke="black" points="710.5,-135.5 710.5,-173.5 878.5,-173.5 878.5,-135.5 710.5,-135.5"/>
<text text-anchor="start" x="718.5" y="-158.3" font-family="Helvetica,sans-Serif" font-size="14.00">equation_data/eqn_exact</text>
<text text-anchor="middle" x="794.5" y="-143.3" font-family="Helvetica,sans-Serif" font-size="14.00">_solution_lin.h</text>
</a>
</g>
</g>
<!-- Node2&#45;&gt;Node16 -->
<g id="edge31" class="edge"><title>Node2&#45;&gt;Node16</title>
<path fill="none" stroke="midnightblue" d="M895.22,-210.476C879.478,-201.884 856.655,-189.426 836.713,-178.541"/>
<polygon fill="midnightblue" stroke="midnightblue" points="838.244,-175.39 827.79,-173.671 834.89,-181.534 838.244,-175.39"/>
</g>
<!-- Node13&#45;&gt;Node4 -->
<g id="edge13" class="edge"><title>Node13&#45;&gt;Node4</title>
<path fill="none" stroke="midnightblue" d="M942.906,-79.601C778.114,-68.5739 455.35,-46.4563 403.5,-39 392.961,-37.4844 381.784,-35.4222 371.098,-33.2236"/>
<polygon fill="midnightblue" stroke="midnightblue" points="371.549,-29.7413 361.04,-31.0871 370.094,-36.5886 371.549,-29.7413"/>
</g>
<!-- Node13&#45;&gt;Node5 -->
<g id="edge14" class="edge"><title>Node13&#45;&gt;Node5</title>
<path fill="none" stroke="midnightblue" d="M976.036,-75.4763C909.594,-64.4586 804.83,-47.0864 730.879,-34.8237"/>
<polygon fill="midnightblue" stroke="midnightblue" points="731.094,-31.3116 720.656,-33.1285 729.949,-38.2173 731.094,-31.3116"/>
</g>
<!-- Node13&#45;&gt;Node7 -->
<g id="edge15" class="edge"><title>Node13&#45;&gt;Node7</title>
<path fill="none" stroke="midnightblue" d="M1070.19,-75.4763C1102.67,-64.3368 1154.1,-46.7014 1189.91,-34.4188"/>
<polygon fill="midnightblue" stroke="midnightblue" points="1191.25,-37.6609 1199.57,-31.1062 1188.98,-31.0394 1191.25,-37.6609"/>
</g>
<!-- Node13&#45;&gt;Node8 -->
<g id="edge16" class="edge"><title>Node13&#45;&gt;Node8</title>
<path fill="none" stroke="midnightblue" d="M1106.18,-75.4906C1159.92,-66.7047 1237.33,-53.3354 1304.5,-39 1304.6,-38.9784 1304.7,-38.9568 1304.8,-38.9351"/>
<polygon fill="midnightblue" stroke="midnightblue" points="1305.38,-42.3926 1314.39,-36.8174 1303.87,-35.5574 1305.38,-42.3926"/>
</g>
<!-- Node13&#45;&gt;Node9 -->
<g id="edge17" class="edge"><title>Node13&#45;&gt;Node9</title>
<path fill="none" stroke="midnightblue" d="M1039.5,-75.4763C1039.5,-66.2683 1039.5,-52.6221 1039.5,-41.2293"/>
<polygon fill="midnightblue" stroke="midnightblue" points="1043,-41.2152 1039.5,-31.2152 1036,-41.2152 1043,-41.2152"/>
</g>
<!-- Node13&#45;&gt;Node10 -->
<g id="edge18" class="edge"><title>Node13&#45;&gt;Node10</title>
<path fill="none" stroke="midnightblue" d="M942.688,-80.0944C915.161,-78.43 885.15,-76.6294 857.5,-75 718.179,-66.7901 365.153,-75.6908 230.5,-39 227.246,-38.1133 223.946,-36.9087 220.733,-35.5366"/>
<polygon fill="midnightblue" stroke="midnightblue" points="222.009,-32.2662 211.482,-31.0682 218.964,-38.5694 222.009,-32.2662"/>
</g>
<!-- Node13&#45;&gt;Node11 -->
<g id="edge19" class="edge"><title>Node13&#45;&gt;Node11</title>
<path fill="none" stroke="midnightblue" d="M1051.71,-75.4763C1063.5,-65.3191 1081.55,-49.7612 1095.44,-37.7849"/>
<polygon fill="midnightblue" stroke="midnightblue" points="1097.78,-40.3949 1103.07,-31.2152 1093.21,-35.0924 1097.78,-40.3949"/>
</g>
<!-- Node13&#45;&gt;Node12 -->
<g id="edge20" class="edge"><title>Node13&#45;&gt;Node12</title>
<path fill="none" stroke="midnightblue" d="M1016.36,-75.4763C992.573,-64.6546 955.304,-47.7025 928.44,-35.4829"/>
<polygon fill="midnightblue" stroke="midnightblue" points="929.609,-32.1698 919.057,-31.2152 926.71,-38.5416 929.609,-32.1698"/>
</g>
<!-- Node14&#45;&gt;Node3 -->
<g id="edge22" class="edge"><title>Node14&#45;&gt;Node3</title>
<path fill="none" stroke="midnightblue" d="M351.079,-75.457C299.541,-66.3116 223.522,-52.4617 157.5,-39 148.777,-37.2213 139.557,-35.254 130.56,-33.2857"/>
<polygon fill="midnightblue" stroke="midnightblue" points="131.053,-29.8105 120.534,-31.073 129.544,-36.646 131.053,-29.8105"/>
</g>
<!-- Node14&#45;&gt;Node4 -->
<g id="edge24" class="edge"><title>Node14&#45;&gt;Node4</title>
<path fill="none" stroke="midnightblue" d="M396.397,-75.4763C381.548,-65.1292 358.656,-49.1777 341.348,-37.1171"/>
<polygon fill="midnightblue" stroke="midnightblue" points="343.083,-34.0607 332.878,-31.2152 339.081,-39.8039 343.083,-34.0607"/>
</g>
<!-- Node14&#45;&gt;Node5 -->
<g id="edge25" class="edge"><title>Node14&#45;&gt;Node5</title>
<path fill="none" stroke="midnightblue" d="M448.935,-75.4763C481.617,-66.289 530.016,-52.6834 570.487,-41.3061"/>
<polygon fill="midnightblue" stroke="midnightblue" points="571.644,-44.6168 580.323,-38.541 569.749,-37.878 571.644,-44.6168"/>
</g>
<!-- Node14&#45;&gt;Node7 -->
<g id="edge26" class="edge"><title>Node14&#45;&gt;Node7</title>
<path fill="none" stroke="midnightblue" d="M508.308,-78.3872C524.078,-77.2097 540.241,-76.0405 555.5,-75 822.027,-56.8255 891.389,-79.1552 1155.5,-39 1164.65,-37.6084 1174.32,-35.6222 1183.57,-33.4631"/>
<polygon fill="midnightblue" stroke="midnightblue" points="1184.49,-36.8392 1193.38,-31.0724 1182.84,-30.0379 1184.49,-36.8392"/>
</g>
<!-- Node14&#45;&gt;Node9 -->
<g id="edge27" class="edge"><title>Node14&#45;&gt;Node9</title>
<path fill="none" stroke="midnightblue" d="M508.202,-78.1493C635.233,-67.679 851.435,-49.2738 930.5,-39 954.436,-35.8897 981.158,-31.371 1002.15,-27.5781"/>
<polygon fill="midnightblue" stroke="midnightblue" points="1003.06,-30.971 1012.26,-25.7282 1001.8,-24.0854 1003.06,-30.971"/>
</g>
<!-- Node14&#45;&gt;Node10 -->
<g id="edge28" class="edge"><title>Node14&#45;&gt;Node10</title>
<path fill="none" stroke="midnightblue" d="M358.266,-75.425C321.687,-67.3765 272.361,-54.9662 230.5,-39 227.792,-37.967 225.021,-36.7866 222.28,-35.5331"/>
<polygon fill="midnightblue" stroke="midnightblue" points="223.72,-32.3413 213.198,-31.0977 220.648,-38.6312 223.72,-32.3413"/>
</g>
<!-- Node14&#45;&gt;Node11 -->
<g id="edge29" class="edge"><title>Node14&#45;&gt;Node11</title>
<path fill="none" stroke="midnightblue" d="M508.316,-78.5092C524.085,-77.3165 540.246,-76.1106 555.5,-75 786.553,-58.1773 851.104,-96.5751 1075.5,-39 1079.39,-38.0017 1083.37,-36.6348 1087.23,-35.0925"/>
<polygon fill="midnightblue" stroke="midnightblue" points="1088.76,-38.2455 1096.49,-31.0073 1085.93,-31.841 1088.76,-38.2455"/>
</g>
<!-- Node14&#45;&gt;Node12 -->
<g id="edge30" class="edge"><title>Node14&#45;&gt;Node12</title>
<path fill="none" stroke="midnightblue" d="M489.263,-75.4763C595.049,-61.1602 780.113,-36.1154 858.615,-25.4916"/>
<polygon fill="midnightblue" stroke="midnightblue" points="859.526,-28.9004 868.966,-24.0909 858.587,-21.9637 859.526,-28.9004"/>
</g>
<!-- Node15 -->
<g id="node15" class="node"><title>Node15</title>
<polygon fill="white" stroke="#bfbfbf" points="413,-0.5 413,-38.5 550,-38.5 550,-0.5 413,-0.5"/>
<text text-anchor="start" x="421" y="-23.3" font-family="Helvetica,sans-Serif" font-size="14.00">deal.II/base/function</text>
<text text-anchor="middle" x="481.5" y="-8.3" font-family="Helvetica,sans-Serif" font-size="14.00">_parser.h</text>
</g>
<!-- Node14&#45;&gt;Node15 -->
<g id="edge23" class="edge"><title>Node14&#45;&gt;Node15</title>
<path fill="none" stroke="midnightblue" d="M422.747,-75.4763C431.351,-67.4256 443.58,-55.982 454.656,-45.6181"/>
<polygon fill="midnightblue" stroke="midnightblue" points="457.17,-48.0588 462.081,-38.6706 452.388,-42.9475 457.17,-48.0588"/>
</g>
<!-- Node16&#45;&gt;Node3 -->
<g id="edge32" class="edge"><title>Node16&#45;&gt;Node3</title>
<path fill="none" stroke="midnightblue" d="M710.244,-153.253C602.224,-151.083 409.952,-140.937 251.5,-99 195.953,-84.2986 135.674,-54.2327 101.745,-35.8741"/>
<polygon fill="midnightblue" stroke="midnightblue" points="103.352,-32.7636 92.9,-31.0289 99.9889,-38.9029 103.352,-32.7636"/>
</g>
<!-- Node16&#45;&gt;Node4 -->
<g id="edge33" class="edge"><title>Node16&#45;&gt;Node4</title>
<path fill="none" stroke="midnightblue" d="M710.483,-150.131C577.793,-143.938 331.968,-128.582 305.5,-99 291.36,-83.1966 298.543,-58.0453 306.531,-40.484"/>
<polygon fill="midnightblue" stroke="midnightblue" points="309.854,-41.6619 311.172,-31.1493 303.586,-38.5455 309.854,-41.6619"/>
</g>
<!-- Node16&#45;&gt;Node5 -->
<g id="edge34" class="edge"><title>Node16&#45;&gt;Node5</title>
<path fill="none" stroke="midnightblue" d="M710.458,-145.373C649.628,-137.55 574.84,-123.246 555.5,-99 538.706,-77.9448 562.269,-57.9239 589.354,-43.3712"/>
<polygon fill="midnightblue" stroke="midnightblue" points="591.298,-46.3088 598.621,-38.6519 588.122,-40.0711 591.298,-46.3088"/>
</g>
<!-- Node16&#45;&gt;Node7 -->
<g id="edge35" class="edge"><title>Node16&#45;&gt;Node7</title>
<path fill="none" stroke="midnightblue" d="M878.578,-149.555C976.201,-143.61 1130.04,-129.61 1178.5,-99 1200.19,-85.2993 1214.83,-58.8953 1222.91,-40.512"/>
<polygon fill="midnightblue" stroke="midnightblue" points="1226.15,-41.835 1226.73,-31.2559 1219.68,-39.1656 1226.15,-41.835"/>
</g>
<!-- Node16&#45;&gt;Node8 -->
<g id="edge37" class="edge"><title>Node16&#45;&gt;Node8</title>
<path fill="none" stroke="midnightblue" d="M878.8,-149.477C962.726,-143.809 1094.54,-130.38 1204.5,-99 1251.69,-85.5335 1302.5,-61.3812 1336.96,-43.4108"/>
<polygon fill="midnightblue" stroke="midnightblue" points="1339.02,-46.2825 1346.23,-38.5201 1335.75,-40.0915 1339.02,-46.2825"/>
</g>
<!-- Node16&#45;&gt;Node9 -->
<g id="edge41" class="edge"><title>Node16&#45;&gt;Node9</title>
<path fill="none" stroke="midnightblue" d="M878.641,-152.503C971.085,-149.413 1110.95,-138.178 1144.5,-99 1151.44,-90.898 1150.04,-84.1157 1144.5,-75 1144.22,-74.5439 1100,-51.6827 1069.04,-35.7174"/>
<polygon fill="midnightblue" stroke="midnightblue" points="1070.41,-32.4877 1059.92,-31.0164 1067.21,-38.7096 1070.41,-32.4877"/>
</g>
<!-- Node16&#45;&gt;Node10 -->
<g id="edge42" class="edge"><title>Node16&#45;&gt;Node10</title>
<path fill="none" stroke="midnightblue" d="M710.316,-149.985C587.781,-143.918 366.905,-129.121 293.5,-99 260.296,-85.375 229.093,-57.0978 210.898,-38.4648"/>
<polygon fill="midnightblue" stroke="midnightblue" points="213.358,-35.9723 203.929,-31.1406 208.287,-40.7977 213.358,-35.9723"/>
</g>
<!-- Node16&#45;&gt;Node11 -->
<g id="edge43" class="edge"><title>Node16&#45;&gt;Node11</title>
<path fill="none" stroke="midnightblue" d="M878.818,-153.218C975.635,-150.89 1125.74,-140.462 1161.5,-99 1177.84,-80.0557 1156.36,-54.5069 1137.59,-37.7759"/>
<polygon fill="midnightblue" stroke="midnightblue" points="1139.73,-34.9952 1129.84,-31.1904 1135.2,-40.331 1139.73,-34.9952"/>
</g>
<!-- Node16&#45;&gt;Node12 -->
<g id="edge44" class="edge"><title>Node16&#45;&gt;Node12</title>
<path fill="none" stroke="midnightblue" d="M820.008,-135.359C832.436,-125.607 846.939,-112.771 857.5,-99 871.181,-81.1606 881.775,-57.6083 888.261,-40.9707"/>
<polygon fill="midnightblue" stroke="midnightblue" points="891.703,-41.7581 891.921,-31.1656 885.145,-39.3102 891.703,-41.7581"/>
</g>
<!-- Node16&#45;&gt;Node13 -->
<g id="edge39" class="edge"><title>Node16&#45;&gt;Node13</title>
<path fill="none" stroke="midnightblue" d="M862.096,-135.428C902.619,-124.595 953.248,-111.059 990.036,-101.224"/>
<polygon fill="midnightblue" stroke="midnightblue" points="991.268,-104.518 1000.02,-98.5535 989.46,-97.7551 991.268,-104.518"/>
</g>
<!-- Node16&#45;&gt;Node14 -->
<g id="edge40" class="edge"><title>Node16&#45;&gt;Node14</title>
<path fill="none" stroke="midnightblue" d="M710.449,-139.126C642.414,-127.49 547.625,-111.28 483.149,-100.253"/>
<polygon fill="midnightblue" stroke="midnightblue" points="483.517,-96.7654 473.07,-98.5295 482.336,-103.665 483.517,-96.7654"/>
</g>
<!-- Node17 -->
<g id="node17" class="node"><title>Node17</title>
<polygon fill="white" stroke="#bfbfbf" points="565,-75.5 565,-98.5 704,-98.5 704,-75.5 565,-75.5"/>
<text text-anchor="middle" x="634.5" y="-83.3" font-family="Helvetica,sans-Serif" font-size="14.00">deal.II/base/tensor.h</text>
</g>
<!-- Node16&#45;&gt;Node17 -->
<g id="edge36" class="edge"><title>Node16&#45;&gt;Node17</title>
<path fill="none" stroke="midnightblue" d="M750.356,-135.428C724.991,-125.045 693.563,-112.179 669.842,-102.468"/>
<polygon fill="midnightblue" stroke="midnightblue" points="671.093,-99.1985 660.513,-98.6489 668.441,-105.677 671.093,-99.1985"/>
</g>
<!-- Node18 -->
<g id="node18" class="node"><title>Node18</title>
<polygon fill="white" stroke="#bfbfbf" points="722.5,-75.5 722.5,-98.5 848.5,-98.5 848.5,-75.5 722.5,-75.5"/>
<text text-anchor="middle" x="785.5" y="-83.3" font-family="Helvetica,sans-Serif" font-size="14.00">deal.II/lac/vector.h</text>
</g>
<!-- Node16&#45;&gt;Node18 -->
<g id="edge38" class="edge"><title>Node16&#45;&gt;Node18</title>
<path fill="none" stroke="midnightblue" d="M791.993,-135.255C790.852,-126.951 789.497,-117.087 788.32,-108.526"/>
<polygon fill="midnightblue" stroke="midnightblue" points="791.784,-108.022 786.955,-98.5919 784.849,-108.975 791.784,-108.022"/>
</g>
</g>
</svg>
