<?xml version="1.0" encoding="UTF-8" standalone="no"?>
<!DOCTYPE svg PUBLIC "-//W3C//DTD SVG 1.1//EN"
 "http://www.w3.org/Graphics/SVG/1.1/DTD/svg11.dtd">
<!-- Generated by graphviz version 2.38.0 (20140413.2041)
 -->
<!-- Title: /home/travis/build/konsim83/MPI&#45;MSFEC/include/equation_data/eqn_coeff_B.h Pages: 1 -->
<svg width="1103pt" height="152pt"
 viewBox="0.00 0.00 1103.00 152.00" xmlns="http://www.w3.org/2000/svg" xmlns:xlink="http://www.w3.org/1999/xlink">
<g id="graph0" class="graph" transform="scale(1 1) rotate(0) translate(4 148)">
<title>/home/travis/build/konsim83/MPI&#45;MSFEC/include/equation_data/eqn_coeff_B.h</title>
<polygon fill="white" stroke="none" points="-4,4 -4,-148 1099,-148 1099,4 -4,4"/>
<!-- Node1 -->
<g id="node1" class="node"><title>Node1</title>
<polygon fill="#bfbfbf" stroke="black" points="651.5,-75.5 651.5,-143.5 811.5,-143.5 811.5,-75.5 651.5,-75.5"/>
<text text-anchor="start" x="659.5" y="-128.3" font-family="Helvetica,sans-Serif" font-size="14.00">/home/travis/build</text>
<text text-anchor="start" x="659.5" y="-113.3" font-family="Helvetica,sans-Serif" font-size="14.00">/konsim83/MPI&#45;MSFEC</text>
<text text-anchor="start" x="659.5" y="-98.3" font-family="Helvetica,sans-Serif" font-size="14.00">/include/equation_data</text>
<text text-anchor="middle" x="731.5" y="-83.3" font-family="Helvetica,sans-Serif" font-size="14.00">/eqn_coeff_B.h</text>
</g>
<!-- Node2 -->
<g id="node2" class="node"><title>Node2</title>
<polygon fill="white" stroke="#bfbfbf" points="0,-8 0,-31 149,-31 149,-8 0,-8"/>
<text text-anchor="middle" x="74.5" y="-15.8" font-family="Helvetica,sans-Serif" font-size="14.00">deal.II/base/function.h</text>
</g>
<!-- Node1&#45;&gt;Node2 -->
<g id="edge1" class="edge"><title>Node1&#45;&gt;Node2</title>
<path fill="none" stroke="midnightblue" d="M651.279,-101.312C539.976,-90.7654 332.615,-69.0418 157.5,-39 147.889,-37.3511 137.711,-35.3215 127.9,-33.2173"/>
<polygon fill="midnightblue" stroke="midnightblue" points="128.365,-29.7361 117.847,-31.0104 126.864,-36.5733 128.365,-29.7361"/>
</g>
<!-- Node3 -->
<g id="node3" class="node"><title>Node3</title>
<polygon fill="white" stroke="#bfbfbf" points="167,-0.5 167,-38.5 304,-38.5 304,-0.5 167,-0.5"/>
<text text-anchor="start" x="175" y="-23.3" font-family="Helvetica,sans-Serif" font-size="14.00">deal.II/base/function</text>
<text text-anchor="middle" x="235.5" y="-8.3" font-family="Helvetica,sans-Serif" font-size="14.00">_parser.h</text>
</g>
<!-- Node1&#45;&gt;Node3 -->
<g id="edge2" class="edge"><title>Node1&#45;&gt;Node3</title>
<path fill="none" stroke="midnightblue" d="M651.254,-96.9313C568.915,-84.6652 436.936,-63.9086 314.24,-39.2938"/>
<polygon fill="midnightblue" stroke="midnightblue" points="314.788,-35.8339 304.293,-37.2856 313.402,-42.6954 314.788,-35.8339"/>
</g>
<!-- Node4 -->
<g id="node4" class="node"><title>Node4</title>
<polygon fill="white" stroke="#bfbfbf" points="322,-8 322,-31 477,-31 477,-8 322,-8"/>
<text text-anchor="middle" x="399.5" y="-15.8" font-family="Helvetica,sans-Serif" font-size="14.00">deal.II/base/numbers.h</text>
</g>
<!-- Node1&#45;&gt;Node4 -->
<g id="edge3" class="edge"><title>Node1&#45;&gt;Node4</title>
<path fill="none" stroke="midnightblue" d="M651.132,-87.1977C588.212,-70.52 502.688,-47.8511 449.313,-33.7033"/>
<polygon fill="midnightblue" stroke="midnightblue" points="449.971,-30.257 439.408,-31.0779 448.177,-37.0233 449.971,-30.257"/>
</g>
<!-- Node5 -->
<g id="node5" class="node"><title>Node5</title>
<polygon fill="white" stroke="#bfbfbf" points="495.5,-0.5 495.5,-38.5 647.5,-38.5 647.5,-0.5 495.5,-0.5"/>
<text text-anchor="start" x="503.5" y="-23.3" font-family="Helvetica,sans-Serif" font-size="14.00">deal.II/base/parameter</text>
<text text-anchor="middle" x="571.5" y="-8.3" font-family="Helvetica,sans-Serif" font-size="14.00">_handler.h</text>
</g>
<!-- Node1&#45;&gt;Node5 -->
<g id="edge4" class="edge"><title>Node1&#45;&gt;Node5</title>
<path fill="none" stroke="midnightblue" d="M671.467,-75.4817C652.136,-64.8498 631.144,-53.304 613.409,-43.55"/>
<polygon fill="midnightblue" stroke="midnightblue" points="614.907,-40.3794 604.458,-38.627 611.534,-46.513 614.907,-40.3794"/>
</g>
<!-- Node6 -->
<g id="node6" class="node"><title>Node6</title>
<polygon fill="white" stroke="#bfbfbf" points="666,-8 666,-31 797,-31 797,-8 666,-8"/>
<text text-anchor="middle" x="731.5" y="-15.8" font-family="Helvetica,sans-Serif" font-size="14.00">deal.II/base/point.h</text>
</g>
<!-- Node1&#45;&gt;Node6 -->
<g id="edge5" class="edge"><title>Node1&#45;&gt;Node6</title>
<path fill="none" stroke="midnightblue" d="M731.5,-75.4817C731.5,-64.1426 731.5,-51.764 731.5,-41.6283"/>
<polygon fill="midnightblue" stroke="midnightblue" points="735,-41.3125 731.5,-31.3126 728,-41.3126 735,-41.3125"/>
</g>
<!-- Node7 -->
<g id="node7" class="node"><title>Node7</title>
<polygon fill="white" stroke="#bfbfbf" points="815.5,-8 815.5,-31 869.5,-31 869.5,-8 815.5,-8"/>
<text text-anchor="middle" x="842.5" y="-15.8" font-family="Helvetica,sans-Serif" font-size="14.00">cmath</text>
</g>
<!-- Node1&#45;&gt;Node7 -->
<g id="edge6" class="edge"><title>Node1&#45;&gt;Node7</title>
<path fill="none" stroke="midnightblue" d="M773.148,-75.4817C789.397,-62.5995 807.339,-48.3756 820.902,-37.623"/>
<polygon fill="midnightblue" stroke="midnightblue" points="823.458,-40.0625 829.12,-31.1073 819.11,-34.5772 823.458,-40.0625"/>
</g>
<!-- Node8 -->
<g id="node8" class="node"><title>Node8</title>
<polygon fill="white" stroke="#bfbfbf" points="888,-8 888,-31 943,-31 943,-8 888,-8"/>
<text text-anchor="middle" x="915.5" y="-15.8" font-family="Helvetica,sans-Serif" font-size="14.00">cstdlib</text>
</g>
<!-- Node1&#45;&gt;Node8 -->
<g id="edge7" class="edge"><title>Node1&#45;&gt;Node8</title>
<path fill="none" stroke="midnightblue" d="M802.309,-75.4077C826.527,-63.9869 853.748,-51.0374 878.5,-39 880.76,-37.9007 883.094,-36.7561 885.44,-35.5993"/>
<polygon fill="midnightblue" stroke="midnightblue" points="887.008,-38.7284 894.408,-31.1462 883.895,-32.4587 887.008,-38.7284"/>
</g>
<!-- Node9 -->
<g id="node9" class="node"><title>Node9</title>
<polygon fill="white" stroke="#bfbfbf" points="961.5,-8 961.5,-31 1023.5,-31 1023.5,-8 961.5,-8"/>
<text text-anchor="middle" x="992.5" y="-15.8" font-family="Helvetica,sans-Serif" font-size="14.00">fstream</text>
</g>
<!-- Node1&#45;&gt;Node9 -->
<g id="edge8" class="edge"><title>Node1&#45;&gt;Node9</title>
<path fill="none" stroke="midnightblue" d="M811.626,-86.0077C853.967,-73.4457 906.545,-56.7683 952.5,-39 955.569,-37.8135 958.735,-36.5037 961.88,-35.1454"/>
<polygon fill="midnightblue" stroke="midnightblue" points="963.435,-38.2838 971.129,-31.0001 960.572,-31.896 963.435,-38.2838"/>
</g>
<!-- Node10 -->
<g id="node10" class="node"><title>Node10</title>
<polygon fill="white" stroke="#bfbfbf" points="1042,-8 1042,-31 1095,-31 1095,-8 1042,-8"/>
<text text-anchor="middle" x="1068.5" y="-15.8" font-family="Helvetica,sans-Serif" font-size="14.00">vector</text>
</g>
<!-- Node1&#45;&gt;Node10 -->
<g id="edge9" class="edge"><title>Node1&#45;&gt;Node10</title>
<path fill="none" stroke="midnightblue" d="M811.642,-95.5888C873.203,-84.3428 959.722,-65.6328 1032.5,-39 1035.38,-37.9473 1038.32,-36.7166 1041.22,-35.3991"/>
<polygon fill="midnightblue" stroke="midnightblue" points="1042.76,-38.5401 1050.21,-31.0066 1039.69,-32.2501 1042.76,-38.5401"/>
</g>
</g>
</svg>
