<?xml version="1.0" encoding="UTF-8" standalone="no"?>
<!DOCTYPE svg PUBLIC "-//W3C//DTD SVG 1.1//EN"
 "http://www.w3.org/Graphics/SVG/1.1/DTD/svg11.dtd">
<!-- Generated by graphviz version 2.38.0 (20140413.2041)
 -->
<!-- Title: /home/travis/build/konsim83/MPI&#45;MSFEC/source/equation_data/eqn_coeff_B.cc Pages: 1 -->
<svg width="1103pt" height="212pt"
 viewBox="0.00 0.00 1103.00 212.00" xmlns="http://www.w3.org/2000/svg" xmlns:xlink="http://www.w3.org/1999/xlink">
<g id="graph0" class="graph" transform="scale(1 1) rotate(0) translate(4 208)">
<title>/home/travis/build/konsim83/MPI&#45;MSFEC/source/equation_data/eqn_coeff_B.cc</title>
<polygon fill="white" stroke="none" points="-4,4 -4,-208 1099,-208 1099,4 -4,4"/>
<!-- Node1 -->
<g id="node1" class="node"><title>Node1</title>
<polygon fill="#bfbfbf" stroke="black" points="651.5,-135.5 651.5,-203.5 811.5,-203.5 811.5,-135.5 651.5,-135.5"/>
<text text-anchor="start" x="659.5" y="-188.3" font-family="Helvetica,sans-Serif" font-size="14.00">/home/travis/build</text>
<text text-anchor="start" x="659.5" y="-173.3" font-family="Helvetica,sans-Serif" font-size="14.00">/konsim83/MPI&#45;MSFEC</text>
<text text-anchor="start" x="659.5" y="-158.3" font-family="Helvetica,sans-Serif" font-size="14.00">/source/equation_data</text>
<text text-anchor="middle" x="731.5" y="-143.3" font-family="Helvetica,sans-Serif" font-size="14.00">/eqn_coeff_B.cc</text>
</g>
<!-- Node2 -->
<g id="node2" class="node"><title>Node2</title>
<g id="a_node2"><a xlink:href="eqn__coeff__B_8h.html" target="_top" xlink:title="equation_data/eqn_coeff_B.h">
<polygon fill="white" stroke="black" points="635,-75.5 635,-98.5 828,-98.5 828,-75.5 635,-75.5"/>
<text text-anchor="middle" x="731.5" y="-83.3" font-family="Helvetica,sans-Serif" font-size="14.00">equation_data/eqn_coeff_B.h</text>
</a>
</g>
</g>
<!-- Node1&#45;&gt;Node2 -->
<g id="edge1" class="edge"><title>Node1&#45;&gt;Node2</title>
<path fill="none" stroke="midnightblue" d="M731.5,-135.293C731.5,-126.241 731.5,-116.699 731.5,-108.575"/>
<polygon fill="midnightblue" stroke="midnightblue" points="735,-108.555 731.5,-98.555 728,-108.555 735,-108.555"/>
</g>
<!-- Node3 -->
<g id="node3" class="node"><title>Node3</title>
<polygon fill="white" stroke="#bfbfbf" points="0,-8 0,-31 149,-31 149,-8 0,-8"/>
<text text-anchor="middle" x="74.5" y="-15.8" font-family="Helvetica,sans-Serif" font-size="14.00">deal.II/base/function.h</text>
</g>
<!-- Node2&#45;&gt;Node3 -->
<g id="edge2" class="edge"><title>Node2&#45;&gt;Node3</title>
<path fill="none" stroke="midnightblue" d="M634.802,-82.1466C520.333,-76.6482 324.196,-64.2794 157.5,-39 147.428,-37.4727 136.756,-35.4247 126.539,-33.2477"/>
<polygon fill="midnightblue" stroke="midnightblue" points="127.031,-29.7723 116.513,-31.0422 125.527,-36.6088 127.031,-29.7723"/>
</g>
<!-- Node4 -->
<g id="node4" class="node"><title>Node4</title>
<polygon fill="white" stroke="#bfbfbf" points="167,-0.5 167,-38.5 304,-38.5 304,-0.5 167,-0.5"/>
<text text-anchor="start" x="175" y="-23.3" font-family="Helvetica,sans-Serif" font-size="14.00">deal.II/base/function</text>
<text text-anchor="middle" x="235.5" y="-8.3" font-family="Helvetica,sans-Serif" font-size="14.00">_parser.h</text>
</g>
<!-- Node2&#45;&gt;Node4 -->
<g id="edge3" class="edge"><title>Node2&#45;&gt;Node4</title>
<path fill="none" stroke="midnightblue" d="M634.91,-78.5915C552.086,-71.4482 429.45,-58.9965 314.306,-39.2153"/>
<polygon fill="midnightblue" stroke="midnightblue" points="314.711,-35.7331 304.259,-37.467 313.51,-42.6295 314.711,-35.7331"/>
</g>
<!-- Node5 -->
<g id="node5" class="node"><title>Node5</title>
<polygon fill="white" stroke="#bfbfbf" points="322,-8 322,-31 477,-31 477,-8 322,-8"/>
<text text-anchor="middle" x="399.5" y="-15.8" font-family="Helvetica,sans-Serif" font-size="14.00">deal.II/base/numbers.h</text>
</g>
<!-- Node2&#45;&gt;Node5 -->
<g id="edge4" class="edge"><title>Node2&#45;&gt;Node5</title>
<path fill="none" stroke="midnightblue" d="M674.997,-75.4924C625.299,-66.1711 551.026,-52.0483 486.5,-39 477.289,-37.1373 467.54,-35.1147 458.03,-33.1134"/>
<polygon fill="midnightblue" stroke="midnightblue" points="458.747,-29.6876 448.239,-31.0433 457.299,-36.5362 458.747,-29.6876"/>
</g>
<!-- Node6 -->
<g id="node6" class="node"><title>Node6</title>
<polygon fill="white" stroke="#bfbfbf" points="495.5,-0.5 495.5,-38.5 647.5,-38.5 647.5,-0.5 495.5,-0.5"/>
<text text-anchor="start" x="503.5" y="-23.3" font-family="Helvetica,sans-Serif" font-size="14.00">deal.II/base/parameter</text>
<text text-anchor="middle" x="571.5" y="-8.3" font-family="Helvetica,sans-Serif" font-size="14.00">_handler.h</text>
</g>
<!-- Node2&#45;&gt;Node6 -->
<g id="edge5" class="edge"><title>Node2&#45;&gt;Node6</title>
<path fill="none" stroke="midnightblue" d="M705.793,-75.4763C684.063,-66.5804 652.213,-53.5419 624.984,-42.395"/>
<polygon fill="midnightblue" stroke="midnightblue" points="626.15,-39.0906 615.57,-38.541 623.498,-45.5688 626.15,-39.0906"/>
</g>
<!-- Node7 -->
<g id="node7" class="node"><title>Node7</title>
<polygon fill="white" stroke="#bfbfbf" points="666,-8 666,-31 797,-31 797,-8 666,-8"/>
<text text-anchor="middle" x="731.5" y="-15.8" font-family="Helvetica,sans-Serif" font-size="14.00">deal.II/base/point.h</text>
</g>
<!-- Node2&#45;&gt;Node7 -->
<g id="edge6" class="edge"><title>Node2&#45;&gt;Node7</title>
<path fill="none" stroke="midnightblue" d="M731.5,-75.4763C731.5,-66.2683 731.5,-52.6221 731.5,-41.2293"/>
<polygon fill="midnightblue" stroke="midnightblue" points="735,-41.2152 731.5,-31.2152 728,-41.2152 735,-41.2152"/>
</g>
<!-- Node8 -->
<g id="node8" class="node"><title>Node8</title>
<polygon fill="white" stroke="#bfbfbf" points="815.5,-8 815.5,-31 869.5,-31 869.5,-8 815.5,-8"/>
<text text-anchor="middle" x="842.5" y="-15.8" font-family="Helvetica,sans-Serif" font-size="14.00">cmath</text>
</g>
<!-- Node2&#45;&gt;Node8 -->
<g id="edge7" class="edge"><title>Node2&#45;&gt;Node8</title>
<path fill="none" stroke="midnightblue" d="M749.334,-75.4763C767.191,-64.9394 794.896,-48.5905 815.458,-36.4572"/>
<polygon fill="midnightblue" stroke="midnightblue" points="817.508,-39.3116 824.341,-31.2152 813.95,-33.283 817.508,-39.3116"/>
</g>
<!-- Node9 -->
<g id="node9" class="node"><title>Node9</title>
<polygon fill="white" stroke="#bfbfbf" points="888,-8 888,-31 943,-31 943,-8 888,-8"/>
<text text-anchor="middle" x="915.5" y="-15.8" font-family="Helvetica,sans-Serif" font-size="14.00">cstdlib</text>
</g>
<!-- Node2&#45;&gt;Node9 -->
<g id="edge8" class="edge"><title>Node2&#45;&gt;Node9</title>
<path fill="none" stroke="midnightblue" d="M770.148,-75.4149C800.135,-66.7797 842.516,-53.6466 878.5,-39 881.182,-37.9085 883.936,-36.7021 886.674,-35.4439"/>
<polygon fill="midnightblue" stroke="midnightblue" points="888.295,-38.548 895.789,-31.0589 885.261,-32.24 888.295,-38.548"/>
</g>
<!-- Node10 -->
<g id="node10" class="node"><title>Node10</title>
<polygon fill="white" stroke="#bfbfbf" points="961.5,-8 961.5,-31 1023.5,-31 1023.5,-8 961.5,-8"/>
<text text-anchor="middle" x="992.5" y="-15.8" font-family="Helvetica,sans-Serif" font-size="14.00">fstream</text>
</g>
<!-- Node2&#45;&gt;Node10 -->
<g id="edge9" class="edge"><title>Node2&#45;&gt;Node10</title>
<path fill="none" stroke="midnightblue" d="M800.257,-75.4634C844.415,-67.7022 902.628,-55.6031 952.5,-39 955.869,-37.8785 959.331,-36.5556 962.741,-35.1413"/>
<polygon fill="midnightblue" stroke="midnightblue" points="964.367,-38.2496 972.097,-31.0044 961.536,-31.8475 964.367,-38.2496"/>
</g>
<!-- Node11 -->
<g id="node11" class="node"><title>Node11</title>
<polygon fill="white" stroke="#bfbfbf" points="1042,-8 1042,-31 1095,-31 1095,-8 1042,-8"/>
<text text-anchor="middle" x="1068.5" y="-15.8" font-family="Helvetica,sans-Serif" font-size="14.00">vector</text>
</g>
<!-- Node2&#45;&gt;Node11 -->
<g id="edge10" class="edge"><title>Node2&#45;&gt;Node11</title>
<path fill="none" stroke="midnightblue" d="M828.223,-78.816C888.164,-72.4366 966.116,-60.6163 1032.5,-39 1035.48,-38.0305 1038.51,-36.8379 1041.49,-35.5293"/>
<polygon fill="midnightblue" stroke="midnightblue" points="1043.2,-38.59 1050.67,-31.085 1040.15,-32.2884 1043.2,-38.59"/>
</g>
</g>
</svg>
