<?xml version="1.0" encoding="UTF-8" standalone="no"?>
<!DOCTYPE svg PUBLIC "-//W3C//DTD SVG 1.1//EN"
 "http://www.w3.org/Graphics/SVG/1.1/DTD/svg11.dtd">
<!-- Generated by graphviz version 2.38.0 (20140413.2041)
 -->
<!-- Title: /home/travis/build/konsim83/MPI&#45;MSFEC/source/equation_data/eqn_exact_solution_lin.cc Pages: 1 -->
<svg width="1385pt" height="287pt"
 viewBox="0.00 0.00 1385.00 287.00" xmlns="http://www.w3.org/2000/svg" xmlns:xlink="http://www.w3.org/1999/xlink">
<g id="graph0" class="graph" transform="scale(1 1) rotate(0) translate(4 283)">
<title>/home/travis/build/konsim83/MPI&#45;MSFEC/source/equation_data/eqn_exact_solution_lin.cc</title>
<polygon fill="white" stroke="none" points="-4,4 -4,-283 1381,-283 1381,4 -4,4"/>
<!-- Node1 -->
<g id="node1" class="node"><title>Node1</title>
<polygon fill="#bfbfbf" stroke="black" points="738.5,-210.5 738.5,-278.5 913.5,-278.5 913.5,-210.5 738.5,-210.5"/>
<text text-anchor="start" x="746.5" y="-263.3" font-family="Helvetica,sans-Serif" font-size="14.00">/home/travis/build</text>
<text text-anchor="start" x="746.5" y="-248.3" font-family="Helvetica,sans-Serif" font-size="14.00">/konsim83/MPI&#45;MSFEC</text>
<text text-anchor="start" x="746.5" y="-233.3" font-family="Helvetica,sans-Serif" font-size="14.00">/source/equation_data</text>
<text text-anchor="middle" x="826" y="-218.3" font-family="Helvetica,sans-Serif" font-size="14.00">/eqn_exact_solution_lin.cc</text>
</g>
<!-- Node2 -->
<g id="node2" class="node"><title>Node2</title>
<g id="a_node2"><a xlink:href="eqn__exact__solution__lin_8h.html" target="_top" xlink:title="equation_data/eqn_exact\l_solution_lin.h">
<polygon fill="white" stroke="black" points="742,-135.5 742,-173.5 910,-173.5 910,-135.5 742,-135.5"/>
<text text-anchor="start" x="750" y="-158.3" font-family="Helvetica,sans-Serif" font-size="14.00">equation_data/eqn_exact</text>
<text text-anchor="middle" x="826" y="-143.3" font-family="Helvetica,sans-Serif" font-size="14.00">_solution_lin.h</text>
</a>
</g>
</g>
<!-- Node1&#45;&gt;Node2 -->
<g id="edge1" class="edge"><title>Node1&#45;&gt;Node2</title>
<path fill="none" stroke="midnightblue" d="M826,-210.482C826,-201.703 826,-192.301 826,-183.8"/>
<polygon fill="midnightblue" stroke="midnightblue" points="829.5,-183.627 826,-173.627 822.5,-183.627 829.5,-183.627"/>
</g>
<!-- Node3 -->
<g id="node3" class="node"><title>Node3</title>
<polygon fill="white" stroke="#bfbfbf" points="146.5,-8 146.5,-31 295.5,-31 295.5,-8 146.5,-8"/>
<text text-anchor="middle" x="221" y="-15.8" font-family="Helvetica,sans-Serif" font-size="14.00">deal.II/base/function.h</text>
</g>
<!-- Node2&#45;&gt;Node3 -->
<g id="edge2" class="edge"><title>Node2&#45;&gt;Node3</title>
<path fill="none" stroke="midnightblue" d="M741.659,-145.893C664.682,-137.87 548.143,-123.007 449,-99 379.02,-82.0543 300.158,-52.4454 255.936,-34.8376"/>
<polygon fill="midnightblue" stroke="midnightblue" points="257.099,-31.5334 246.515,-31.0592 254.494,-38.0303 257.099,-31.5334"/>
</g>
<!-- Node4 -->
<g id="node4" class="node"><title>Node4</title>
<polygon fill="white" stroke="#bfbfbf" points="313.5,-8 313.5,-31 468.5,-31 468.5,-8 313.5,-8"/>
<text text-anchor="middle" x="391" y="-15.8" font-family="Helvetica,sans-Serif" font-size="14.00">deal.II/base/numbers.h</text>
</g>
<!-- Node2&#45;&gt;Node4 -->
<g id="edge3" class="edge"><title>Node2&#45;&gt;Node4</title>
<path fill="none" stroke="midnightblue" d="M741.84,-151.403C672.032,-146.989 571.536,-134.33 491,-99 458.105,-84.5696 426.619,-56.76 408.045,-38.415"/>
<polygon fill="midnightblue" stroke="midnightblue" points="410.429,-35.8483 400.909,-31.1989 405.452,-40.7704 410.429,-35.8483"/>
</g>
<!-- Node5 -->
<g id="node5" class="node"><title>Node5</title>
<polygon fill="white" stroke="#bfbfbf" points="487,-0.5 487,-38.5 639,-38.5 639,-0.5 487,-0.5"/>
<text text-anchor="start" x="495" y="-23.3" font-family="Helvetica,sans-Serif" font-size="14.00">deal.II/base/parameter</text>
<text text-anchor="middle" x="563" y="-8.3" font-family="Helvetica,sans-Serif" font-size="14.00">_handler.h</text>
</g>
<!-- Node2&#45;&gt;Node5 -->
<g id="edge4" class="edge"><title>Node2&#45;&gt;Node5</title>
<path fill="none" stroke="midnightblue" d="M741.733,-151.357C655.644,-147.178 530.405,-134.911 500,-99 484.848,-81.1043 502.89,-60.4012 523.49,-44.7507"/>
<polygon fill="midnightblue" stroke="midnightblue" points="525.683,-47.4845 531.758,-38.8037 521.596,-41.802 525.683,-47.4845"/>
</g>
<!-- Node6 -->
<g id="node6" class="node"><title>Node6</title>
<polygon fill="white" stroke="#bfbfbf" points="657.5,-8 657.5,-31 788.5,-31 788.5,-8 657.5,-8"/>
<text text-anchor="middle" x="723" y="-15.8" font-family="Helvetica,sans-Serif" font-size="14.00">deal.II/base/point.h</text>
</g>
<!-- Node2&#45;&gt;Node6 -->
<g id="edge5" class="edge"><title>Node2&#45;&gt;Node6</title>
<path fill="none" stroke="midnightblue" d="M741.73,-150.885C658.086,-146.303 538.239,-133.694 509,-99 502.126,-90.8435 502.454,-83.4219 509,-75 510.272,-73.3635 607.549,-49.0511 670.497,-33.4572"/>
<polygon fill="midnightblue" stroke="midnightblue" points="671.419,-36.8346 680.285,-31.0341 669.737,-30.0397 671.419,-36.8346"/>
</g>
<!-- Node7 -->
<g id="node7" class="node"><title>Node7</title>
<polygon fill="white" stroke="#bfbfbf" points="1093.5,-75.5 1093.5,-98.5 1232.5,-98.5 1232.5,-75.5 1093.5,-75.5"/>
<text text-anchor="middle" x="1163" y="-83.3" font-family="Helvetica,sans-Serif" font-size="14.00">deal.II/base/tensor.h</text>
</g>
<!-- Node2&#45;&gt;Node7 -->
<g id="edge6" class="edge"><title>Node2&#45;&gt;Node7</title>
<path fill="none" stroke="midnightblue" d="M910.17,-137.141C968.595,-125.785 1045.25,-110.887 1098.77,-100.484"/>
<polygon fill="midnightblue" stroke="midnightblue" points="1099.67,-103.875 1108.82,-98.5308 1098.33,-97.0031 1099.67,-103.875"/>
</g>
<!-- Node8 -->
<g id="node8" class="node"><title>Node8</title>
<polygon fill="white" stroke="#bfbfbf" points="0,-0.5 0,-38.5 128,-38.5 128,-0.5 0,-0.5"/>
<text text-anchor="start" x="8" y="-23.3" font-family="Helvetica,sans-Serif" font-size="14.00">deal.II/base/tensor</text>
<text text-anchor="middle" x="64" y="-8.3" font-family="Helvetica,sans-Serif" font-size="14.00">_function.h</text>
</g>
<!-- Node2&#45;&gt;Node8 -->
<g id="edge7" class="edge"><title>Node2&#45;&gt;Node8</title>
<path fill="none" stroke="midnightblue" d="M741.823,-147.146C648.628,-139.288 494.219,-123.822 363,-99 282.951,-83.8572 192.703,-59.0714 132.498,-41.4029"/>
<polygon fill="midnightblue" stroke="midnightblue" points="133.311,-37.9938 122.73,-38.5212 131.331,-44.7077 133.311,-37.9938"/>
</g>
<!-- Node9 -->
<g id="node9" class="node"><title>Node9</title>
<polygon fill="white" stroke="#bfbfbf" points="1251,-75.5 1251,-98.5 1377,-98.5 1377,-75.5 1251,-75.5"/>
<text text-anchor="middle" x="1314" y="-83.3" font-family="Helvetica,sans-Serif" font-size="14.00">deal.II/lac/vector.h</text>
</g>
<!-- Node2&#45;&gt;Node9 -->
<g id="edge8" class="edge"><title>Node2&#45;&gt;Node9</title>
<path fill="none" stroke="midnightblue" d="M910.131,-143.013C991.913,-132.696 1119.92,-116.225 1240.63,-99.1736"/>
<polygon fill="midnightblue" stroke="midnightblue" points="1241.38,-102.602 1250.8,-97.7343 1240.4,-95.6713 1241.38,-102.602"/>
</g>
<!-- Node10 -->
<g id="node10" class="node"><title>Node10</title>
<g id="a_node10"><a xlink:href="eqn__coeff__A_8h.html" target="_top" xlink:title="equation_data/eqn_coeff_A.h">
<polygon fill="white" stroke="black" points="518.5,-75.5 518.5,-98.5 711.5,-98.5 711.5,-75.5 518.5,-75.5"/>
<text text-anchor="middle" x="615" y="-83.3" font-family="Helvetica,sans-Serif" font-size="14.00">equation_data/eqn_coeff_A.h</text>
</a>
</g>
</g>
<!-- Node2&#45;&gt;Node10 -->
<g id="edge9" class="edge"><title>Node2&#45;&gt;Node10</title>
<path fill="none" stroke="midnightblue" d="M767.785,-135.428C733.333,-124.734 690.399,-111.406 658.824,-101.604"/>
<polygon fill="midnightblue" stroke="midnightblue" points="659.585,-98.1757 648.997,-98.5535 657.51,-104.861 659.585,-98.1757"/>
</g>
<!-- Node11 -->
<g id="node11" class="node"><title>Node11</title>
<polygon fill="white" stroke="#bfbfbf" points="807,-8 807,-31 861,-31 861,-8 807,-8"/>
<text text-anchor="middle" x="834" y="-15.8" font-family="Helvetica,sans-Serif" font-size="14.00">cmath</text>
</g>
<!-- Node2&#45;&gt;Node11 -->
<g id="edge28" class="edge"><title>Node2&#45;&gt;Node11</title>
<path fill="none" stroke="midnightblue" d="M886.882,-135.469C904.155,-127.23 920.975,-115.499 931,-99 936.539,-89.8843 936.387,-84.2062 931,-75 929.028,-71.6299 890.838,-50.7687 862.976,-35.8601"/>
<polygon fill="midnightblue" stroke="midnightblue" points="864.461,-32.6853 853.991,-31.0662 861.166,-38.8614 864.461,-32.6853"/>
</g>
<!-- Node12 -->
<g id="node12" class="node"><title>Node12</title>
<polygon fill="white" stroke="#bfbfbf" points="879.5,-8 879.5,-31 934.5,-31 934.5,-8 879.5,-8"/>
<text text-anchor="middle" x="907" y="-15.8" font-family="Helvetica,sans-Serif" font-size="14.00">cstdlib</text>
</g>
<!-- Node2&#45;&gt;Node12 -->
<g id="edge29" class="edge"><title>Node2&#45;&gt;Node12</title>
<path fill="none" stroke="midnightblue" d="M901.585,-135.463C919.815,-127.381 937.145,-115.738 948,-99 960.941,-79.0452 943.273,-54.5441 927.262,-38.2767"/>
<polygon fill="midnightblue" stroke="midnightblue" points="929.319,-35.3997 919.677,-31.0083 924.476,-40.454 929.319,-35.3997"/>
</g>
<!-- Node13 -->
<g id="node13" class="node"><title>Node13</title>
<polygon fill="white" stroke="#bfbfbf" points="1179,-8 1179,-31 1241,-31 1241,-8 1179,-8"/>
<text text-anchor="middle" x="1210" y="-15.8" font-family="Helvetica,sans-Serif" font-size="14.00">fstream</text>
</g>
<!-- Node2&#45;&gt;Node13 -->
<g id="edge30" class="edge"><title>Node2&#45;&gt;Node13</title>
<path fill="none" stroke="midnightblue" d="M887.012,-135.457C956.359,-114.428 1072.57,-77.6058 1170,-39 1172.89,-37.8532 1175.88,-36.6037 1178.85,-35.3129"/>
<polygon fill="midnightblue" stroke="midnightblue" points="1180.49,-38.4123 1188.19,-31.1254 1177.63,-32.0256 1180.49,-38.4123"/>
</g>
<!-- Node14 -->
<g id="node14" class="node"><title>Node14</title>
<polygon fill="white" stroke="#bfbfbf" points="952.5,-8 952.5,-31 1005.5,-31 1005.5,-8 952.5,-8"/>
<text text-anchor="middle" x="979" y="-15.8" font-family="Helvetica,sans-Serif" font-size="14.00">vector</text>
</g>
<!-- Node2&#45;&gt;Node14 -->
<g id="edge31" class="edge"><title>Node2&#45;&gt;Node14</title>
<path fill="none" stroke="midnightblue" d="M910.142,-135.982C930.777,-127.907 950.948,-116.137 965,-99 978.177,-82.9302 980.714,-58.714 980.559,-41.4311"/>
<polygon fill="midnightblue" stroke="midnightblue" points="984.048,-41.0831 980.153,-31.2303 977.053,-41.3617 984.048,-41.0831"/>
</g>
<!-- Node15 -->
<g id="node15" class="node"><title>Node15</title>
<g id="a_node15"><a xlink:href="eqn__coeff__B_8h.html" target="_top" xlink:title="equation_data/eqn_coeff_B.h">
<polygon fill="white" stroke="black" points="729.5,-75.5 729.5,-98.5 922.5,-98.5 922.5,-75.5 729.5,-75.5"/>
<text text-anchor="middle" x="826" y="-83.3" font-family="Helvetica,sans-Serif" font-size="14.00">equation_data/eqn_coeff_B.h</text>
</a>
</g>
</g>
<!-- Node2&#45;&gt;Node15 -->
<g id="edge18" class="edge"><title>Node2&#45;&gt;Node15</title>
<path fill="none" stroke="midnightblue" d="M826,-135.255C826,-127.043 826,-117.306 826,-108.811"/>
<polygon fill="midnightblue" stroke="midnightblue" points="829.5,-108.592 826,-98.5919 822.5,-108.592 829.5,-108.592"/>
</g>
<!-- Node10&#45;&gt;Node4 -->
<g id="edge10" class="edge"><title>Node10&#45;&gt;Node4</title>
<path fill="none" stroke="midnightblue" d="M579.011,-75.4763C540.427,-64.1939 479.055,-46.2482 436.994,-33.949"/>
<polygon fill="midnightblue" stroke="midnightblue" points="437.852,-30.5535 427.272,-31.1062 435.887,-37.2722 437.852,-30.5535"/>
</g>
<!-- Node10&#45;&gt;Node5 -->
<g id="edge11" class="edge"><title>Node10&#45;&gt;Node5</title>
<path fill="none" stroke="midnightblue" d="M606.645,-75.4763C600.438,-67.6578 591.691,-56.6393 583.655,-46.5176"/>
<polygon fill="midnightblue" stroke="midnightblue" points="586.385,-44.3264 577.426,-38.6706 580.902,-48.6789 586.385,-44.3264"/>
</g>
<!-- Node10&#45;&gt;Node6 -->
<g id="edge12" class="edge"><title>Node10&#45;&gt;Node6</title>
<path fill="none" stroke="midnightblue" d="M632.352,-75.4763C649.726,-64.9394 676.683,-48.5905 696.689,-36.4572"/>
<polygon fill="midnightblue" stroke="midnightblue" points="698.597,-39.3935 705.332,-31.2152 694.967,-33.4082 698.597,-39.3935"/>
</g>
<!-- Node10&#45;&gt;Node8 -->
<g id="edge13" class="edge"><title>Node10&#45;&gt;Node8</title>
<path fill="none" stroke="midnightblue" d="M518.292,-80.7651C423.693,-74.6682 275.466,-62.5202 138.624,-39.1477"/>
<polygon fill="midnightblue" stroke="midnightblue" points="138.824,-35.6302 128.373,-37.3718 137.629,-42.5275 138.824,-35.6302"/>
</g>
<!-- Node10&#45;&gt;Node11 -->
<g id="edge14" class="edge"><title>Node10&#45;&gt;Node11</title>
<path fill="none" stroke="midnightblue" d="M667.678,-75.4868C704.512,-67.3921 754.518,-54.9024 797,-39 799.867,-37.9268 802.805,-36.6981 805.711,-35.3954"/>
<polygon fill="midnightblue" stroke="midnightblue" points="807.237,-38.5452 814.758,-31.0822 804.225,-32.2266 807.237,-38.5452"/>
</g>
<!-- Node10&#45;&gt;Node12 -->
<g id="edge15" class="edge"><title>Node10&#45;&gt;Node12</title>
<path fill="none" stroke="midnightblue" d="M706.552,-75.4853C755.831,-68.2499 817.172,-56.6802 870,-39 872.969,-38.0064 876,-36.8147 878.985,-35.5212"/>
<polygon fill="midnightblue" stroke="midnightblue" points="880.683,-38.5904 888.236,-31.1605 877.698,-32.2587 880.683,-38.5904"/>
</g>
<!-- Node10&#45;&gt;Node13 -->
<g id="edge16" class="edge"><title>Node10&#45;&gt;Node13</title>
<path fill="none" stroke="midnightblue" d="M711.682,-75.7812C714.485,-75.5139 717.262,-75.2529 720,-75 919.789,-56.5462 975.926,-89.9044 1170,-39 1173.7,-38.0306 1177.47,-36.7355 1181.16,-35.2785"/>
<polygon fill="midnightblue" stroke="midnightblue" points="1182.82,-38.3719 1190.58,-31.1567 1180.01,-31.9589 1182.82,-38.3719"/>
</g>
<!-- Node10&#45;&gt;Node14 -->
<g id="edge17" class="edge"><title>Node10&#45;&gt;Node14</title>
<path fill="none" stroke="midnightblue" d="M711.598,-75.7412C792.456,-66.4943 901.139,-52.3406 943,-39 945.984,-38.0492 949.019,-36.8688 951.998,-35.5676"/>
<polygon fill="midnightblue" stroke="midnightblue" points="953.705,-38.6306 961.19,-31.1326 950.663,-32.3261 953.705,-38.6306"/>
</g>
<!-- Node15&#45;&gt;Node3 -->
<g id="edge19" class="edge"><title>Node15&#45;&gt;Node3</title>
<path fill="none" stroke="midnightblue" d="M729.244,-75.8905C726.127,-75.5867 723.039,-75.2892 720,-75 535.254,-57.4216 487.417,-67.2492 304,-39 293.932,-37.4494 283.262,-35.3907 273.045,-33.2104"/>
<polygon fill="midnightblue" stroke="midnightblue" points="273.537,-29.735 263.019,-31.0039 272.033,-36.5715 273.537,-29.735"/>
</g>
<!-- Node15&#45;&gt;Node4 -->
<g id="edge21" class="edge"><title>Node15&#45;&gt;Node4</title>
<path fill="none" stroke="midnightblue" d="M733.756,-75.4612C663.449,-66.9645 564.346,-53.9894 478,-39 468.073,-37.2766 457.554,-35.2299 447.39,-33.1367"/>
<polygon fill="midnightblue" stroke="midnightblue" points="447.885,-29.6645 437.38,-31.0381 446.449,-36.5155 447.885,-29.6645"/>
</g>
<!-- Node15&#45;&gt;Node5 -->
<g id="edge22" class="edge"><title>Node15&#45;&gt;Node5</title>
<path fill="none" stroke="midnightblue" d="M783.745,-75.4763C746.543,-66.2114 691.3,-52.4529 645.385,-41.018"/>
<polygon fill="midnightblue" stroke="midnightblue" points="645.989,-37.5615 635.44,-38.541 644.297,-44.354 645.989,-37.5615"/>
</g>
<!-- Node15&#45;&gt;Node6 -->
<g id="edge23" class="edge"><title>Node15&#45;&gt;Node6</title>
<path fill="none" stroke="midnightblue" d="M809.451,-75.4763C792.956,-64.9868 767.404,-48.7376 748.351,-36.6215"/>
<polygon fill="midnightblue" stroke="midnightblue" points="750.166,-33.6279 739.85,-31.2152 746.41,-39.5348 750.166,-33.6279"/>
</g>
<!-- Node15&#45;&gt;Node11 -->
<g id="edge24" class="edge"><title>Node15&#45;&gt;Node11</title>
<path fill="none" stroke="midnightblue" d="M827.285,-75.4763C828.41,-66.2683 830.077,-52.6221 831.468,-41.2293"/>
<polygon fill="midnightblue" stroke="midnightblue" points="834.953,-41.5658 832.691,-31.2152 828.005,-40.7171 834.953,-41.5658"/>
</g>
<!-- Node15&#45;&gt;Node12 -->
<g id="edge25" class="edge"><title>Node15&#45;&gt;Node12</title>
<path fill="none" stroke="midnightblue" d="M839.014,-75.4763C851.575,-65.3191 870.814,-49.7612 885.625,-37.7849"/>
<polygon fill="midnightblue" stroke="midnightblue" points="888.174,-40.2246 893.749,-31.2152 883.773,-34.7815 888.174,-40.2246"/>
</g>
<!-- Node15&#45;&gt;Node13 -->
<g id="edge26" class="edge"><title>Node15&#45;&gt;Node13</title>
<path fill="none" stroke="midnightblue" d="M922.502,-80.5091C992.355,-74.6897 1088.43,-62.8545 1170,-39 1173.59,-37.9504 1177.27,-36.6273 1180.87,-35.1733"/>
<polygon fill="midnightblue" stroke="midnightblue" points="1182.35,-38.3424 1190.1,-31.117 1179.54,-31.9331 1182.35,-38.3424"/>
</g>
<!-- Node15&#45;&gt;Node14 -->
<g id="edge27" class="edge"><title>Node15&#45;&gt;Node14</title>
<path fill="none" stroke="midnightblue" d="M854.683,-75.3315C878.563,-66.2466 913.33,-52.5475 943,-39 945.349,-37.9274 947.766,-36.7815 950.182,-35.6054"/>
<polygon fill="midnightblue" stroke="midnightblue" points="951.981,-38.6186 959.356,-31.0114 948.847,-32.3595 951.981,-38.6186"/>
</g>
<!-- Node16 -->
<g id="node16" class="node"><title>Node16</title>
<polygon fill="white" stroke="#bfbfbf" points="1023.5,-0.5 1023.5,-38.5 1160.5,-38.5 1160.5,-0.5 1023.5,-0.5"/>
<text text-anchor="start" x="1031.5" y="-23.3" font-family="Helvetica,sans-Serif" font-size="14.00">deal.II/base/function</text>
<text text-anchor="middle" x="1092" y="-8.3" font-family="Helvetica,sans-Serif" font-size="14.00">_parser.h</text>
</g>
<!-- Node15&#45;&gt;Node16 -->
<g id="edge20" class="edge"><title>Node15&#45;&gt;Node16</title>
<path fill="none" stroke="midnightblue" d="M868.738,-75.4763C907.676,-65.8881 966.158,-51.4874 1013.5,-39.8298"/>
<polygon fill="midnightblue" stroke="midnightblue" points="1014.55,-43.176 1023.42,-37.3865 1012.88,-36.3791 1014.55,-43.176"/>
</g>
</g>
</svg>
