<?xml version="1.0" encoding="UTF-8" standalone="no"?>
<!DOCTYPE svg PUBLIC "-//W3C//DTD SVG 1.1//EN"
 "http://www.w3.org/Graphics/SVG/1.1/DTD/svg11.dtd">
<!-- Generated by graphviz version 2.38.0 (20140413.2041)
 -->
<!-- Title: /home/travis/build/konsim83/MPI&#45;MSFEC/include/equation_data/eqn_coeff_A.h Pages: 1 -->
<svg width="927pt" height="152pt"
 viewBox="0.00 0.00 927.00 152.00" xmlns="http://www.w3.org/2000/svg" xmlns:xlink="http://www.w3.org/1999/xlink">
<g id="graph0" class="graph" transform="scale(1 1) rotate(0) translate(4 148)">
<title>/home/travis/build/konsim83/MPI&#45;MSFEC/include/equation_data/eqn_coeff_A.h</title>
<polygon fill="white" stroke="none" points="-4,4 -4,-148 923,-148 923,4 -4,4"/>
<!-- Node1 -->
<g id="node1" class="node"><title>Node1</title>
<polygon fill="#bfbfbf" stroke="black" points="531.5,-75.5 531.5,-143.5 691.5,-143.5 691.5,-75.5 531.5,-75.5"/>
<text text-anchor="start" x="539.5" y="-128.3" font-family="Helvetica,sans-Serif" font-size="14.00">/home/travis/build</text>
<text text-anchor="start" x="539.5" y="-113.3" font-family="Helvetica,sans-Serif" font-size="14.00">/konsim83/MPI&#45;MSFEC</text>
<text text-anchor="start" x="539.5" y="-98.3" font-family="Helvetica,sans-Serif" font-size="14.00">/include/equation_data</text>
<text text-anchor="middle" x="611.5" y="-83.3" font-family="Helvetica,sans-Serif" font-size="14.00">/eqn_coeff_A.h</text>
</g>
<!-- Node2 -->
<g id="node2" class="node"><title>Node2</title>
<polygon fill="white" stroke="#bfbfbf" points="0,-8 0,-31 155,-31 155,-8 0,-8"/>
<text text-anchor="middle" x="77.5" y="-15.8" font-family="Helvetica,sans-Serif" font-size="14.00">deal.II/base/numbers.h</text>
</g>
<!-- Node1&#45;&gt;Node2 -->
<g id="edge1" class="edge"><title>Node1&#45;&gt;Node2</title>
<path fill="none" stroke="midnightblue" d="M531.335,-97.3988C441.703,-84.6699 292.334,-62.5108 164.5,-39 154.818,-37.2194 144.563,-35.1783 134.621,-33.117"/>
<polygon fill="midnightblue" stroke="midnightblue" points="135.322,-29.6879 124.816,-31.0578 133.883,-36.5384 135.322,-29.6879"/>
</g>
<!-- Node3 -->
<g id="node3" class="node"><title>Node3</title>
<polygon fill="white" stroke="#bfbfbf" points="173.5,-0.5 173.5,-38.5 325.5,-38.5 325.5,-0.5 173.5,-0.5"/>
<text text-anchor="start" x="181.5" y="-23.3" font-family="Helvetica,sans-Serif" font-size="14.00">deal.II/base/parameter</text>
<text text-anchor="middle" x="249.5" y="-8.3" font-family="Helvetica,sans-Serif" font-size="14.00">_handler.h</text>
</g>
<!-- Node1&#45;&gt;Node3 -->
<g id="edge2" class="edge"><title>Node1&#45;&gt;Node3</title>
<path fill="none" stroke="midnightblue" d="M531.16,-88.9699C472.46,-74.7002 393.048,-55.3957 333.508,-40.9219"/>
<polygon fill="midnightblue" stroke="midnightblue" points="334.3,-37.5125 323.756,-38.5512 332.646,-44.3144 334.3,-37.5125"/>
</g>
<!-- Node4 -->
<g id="node4" class="node"><title>Node4</title>
<polygon fill="white" stroke="#bfbfbf" points="344,-8 344,-31 475,-31 475,-8 344,-8"/>
<text text-anchor="middle" x="409.5" y="-15.8" font-family="Helvetica,sans-Serif" font-size="14.00">deal.II/base/point.h</text>
</g>
<!-- Node1&#45;&gt;Node4 -->
<g id="edge3" class="edge"><title>Node1&#45;&gt;Node4</title>
<path fill="none" stroke="midnightblue" d="M535.708,-75.4817C503.884,-61.618 468.494,-46.2004 443.307,-35.2279"/>
<polygon fill="midnightblue" stroke="midnightblue" points="444.414,-31.8926 433.849,-31.1073 441.619,-38.31 444.414,-31.8926"/>
</g>
<!-- Node5 -->
<g id="node5" class="node"><title>Node5</title>
<polygon fill="white" stroke="#bfbfbf" points="493.5,-0.5 493.5,-38.5 621.5,-38.5 621.5,-0.5 493.5,-0.5"/>
<text text-anchor="start" x="501.5" y="-23.3" font-family="Helvetica,sans-Serif" font-size="14.00">deal.II/base/tensor</text>
<text text-anchor="middle" x="557.5" y="-8.3" font-family="Helvetica,sans-Serif" font-size="14.00">_function.h</text>
</g>
<!-- Node1&#45;&gt;Node5 -->
<g id="edge4" class="edge"><title>Node1&#45;&gt;Node5</title>
<path fill="none" stroke="midnightblue" d="M591.239,-75.4817C585.553,-66.2153 579.44,-56.2548 574.002,-47.3914"/>
<polygon fill="midnightblue" stroke="midnightblue" points="576.837,-45.3196 568.623,-38.627 570.87,-48.9808 576.837,-45.3196"/>
</g>
<!-- Node6 -->
<g id="node6" class="node"><title>Node6</title>
<polygon fill="white" stroke="#bfbfbf" points="639.5,-8 639.5,-31 693.5,-31 693.5,-8 639.5,-8"/>
<text text-anchor="middle" x="666.5" y="-15.8" font-family="Helvetica,sans-Serif" font-size="14.00">cmath</text>
</g>
<!-- Node1&#45;&gt;Node6 -->
<g id="edge5" class="edge"><title>Node1&#45;&gt;Node6</title>
<path fill="none" stroke="midnightblue" d="M632.136,-75.4817C639.604,-63.533 647.794,-50.43 654.304,-40.0134"/>
<polygon fill="midnightblue" stroke="midnightblue" points="657.41,-41.6476 659.742,-31.3126 651.474,-37.9376 657.41,-41.6476"/>
</g>
<!-- Node7 -->
<g id="node7" class="node"><title>Node7</title>
<polygon fill="white" stroke="#bfbfbf" points="712,-8 712,-31 767,-31 767,-8 712,-8"/>
<text text-anchor="middle" x="739.5" y="-15.8" font-family="Helvetica,sans-Serif" font-size="14.00">cstdlib</text>
</g>
<!-- Node1&#45;&gt;Node7 -->
<g id="edge6" class="edge"><title>Node1&#45;&gt;Node7</title>
<path fill="none" stroke="midnightblue" d="M659.527,-75.4817C678.621,-62.3541 699.743,-47.8333 715.482,-37.0124"/>
<polygon fill="midnightblue" stroke="midnightblue" points="717.814,-39.6568 724.071,-31.1073 713.848,-33.8885 717.814,-39.6568"/>
</g>
<!-- Node8 -->
<g id="node8" class="node"><title>Node8</title>
<polygon fill="white" stroke="#bfbfbf" points="785.5,-8 785.5,-31 847.5,-31 847.5,-8 785.5,-8"/>
<text text-anchor="middle" x="816.5" y="-15.8" font-family="Helvetica,sans-Serif" font-size="14.00">fstream</text>
</g>
<!-- Node1&#45;&gt;Node8 -->
<g id="edge7" class="edge"><title>Node1&#45;&gt;Node8</title>
<path fill="none" stroke="midnightblue" d="M691.467,-75.4708C718.551,-64.1106 748.92,-51.1821 776.5,-39 779.28,-37.7721 782.16,-36.48 785.042,-35.173"/>
<polygon fill="midnightblue" stroke="midnightblue" points="786.502,-38.3542 794.137,-31.0084 783.588,-31.9897 786.502,-38.3542"/>
</g>
<!-- Node9 -->
<g id="node9" class="node"><title>Node9</title>
<polygon fill="white" stroke="#bfbfbf" points="866,-8 866,-31 919,-31 919,-8 866,-8"/>
<text text-anchor="middle" x="892.5" y="-15.8" font-family="Helvetica,sans-Serif" font-size="14.00">vector</text>
</g>
<!-- Node1&#45;&gt;Node9 -->
<g id="edge8" class="edge"><title>Node1&#45;&gt;Node9</title>
<path fill="none" stroke="midnightblue" d="M691.711,-90.0262C740.206,-77.8099 802.823,-60.1629 856.5,-39 859.197,-37.9368 861.959,-36.7359 864.696,-35.4693"/>
<polygon fill="midnightblue" stroke="midnightblue" points="866.336,-38.5633 873.77,-31.0144 863.251,-32.2797 866.336,-38.5633"/>
</g>
</g>
</svg>
