<?xml version="1.0" encoding="UTF-8" standalone="no"?>
<!DOCTYPE svg PUBLIC "-//W3C//DTD SVG 1.1//EN"
 "http://www.w3.org/Graphics/SVG/1.1/DTD/svg11.dtd">
<!-- Generated by graphviz version 2.38.0 (20140413.2041)
 -->
<!-- Title: /home/travis/build/konsim83/MPI&#45;MSFEC/include/equation_data/eqn_coeff_R.h Pages: 1 -->
<svg width="696pt" height="137pt"
 viewBox="0.00 0.00 696.00 137.00" xmlns="http://www.w3.org/2000/svg" xmlns:xlink="http://www.w3.org/1999/xlink">
<g id="graph0" class="graph" transform="scale(1 1) rotate(0) translate(4 133)">
<title>/home/travis/build/konsim83/MPI&#45;MSFEC/include/equation_data/eqn_coeff_R.h</title>
<polygon fill="white" stroke="none" points="-4,4 -4,-133 692,-133 692,4 -4,4"/>
<!-- Node1 -->
<g id="node1" class="node"><title>Node1</title>
<polygon fill="#bfbfbf" stroke="black" points="380.5,-60.5 380.5,-128.5 540.5,-128.5 540.5,-60.5 380.5,-60.5"/>
<text text-anchor="start" x="388.5" y="-113.3" font-family="Helvetica,sans-Serif" font-size="14.00">/home/travis/build</text>
<text text-anchor="start" x="388.5" y="-98.3" font-family="Helvetica,sans-Serif" font-size="14.00">/konsim83/MPI&#45;MSFEC</text>
<text text-anchor="start" x="388.5" y="-83.3" font-family="Helvetica,sans-Serif" font-size="14.00">/include/equation_data</text>
<text text-anchor="middle" x="460.5" y="-68.3" font-family="Helvetica,sans-Serif" font-size="14.00">/eqn_coeff_R.h</text>
</g>
<!-- Node2 -->
<g id="node2" class="node"><title>Node2</title>
<polygon fill="white" stroke="#bfbfbf" points="0,-0.5 0,-23.5 149,-23.5 149,-0.5 0,-0.5"/>
<text text-anchor="middle" x="74.5" y="-8.3" font-family="Helvetica,sans-Serif" font-size="14.00">deal.II/base/function.h</text>
</g>
<!-- Node1&#45;&gt;Node2 -->
<g id="edge1" class="edge"><title>Node1&#45;&gt;Node2</title>
<path fill="none" stroke="midnightblue" d="M380.052,-76.7225C307.021,-61.4921 200.941,-39.3692 134.92,-25.6004"/>
<polygon fill="midnightblue" stroke="midnightblue" points="135.582,-22.1635 125.079,-23.5481 134.153,-29.016 135.582,-22.1635"/>
</g>
<!-- Node3 -->
<g id="node3" class="node"><title>Node3</title>
<polygon fill="white" stroke="#bfbfbf" points="167,-0.5 167,-23.5 322,-23.5 322,-0.5 167,-0.5"/>
<text text-anchor="middle" x="244.5" y="-8.3" font-family="Helvetica,sans-Serif" font-size="14.00">deal.II/base/numbers.h</text>
</g>
<!-- Node1&#45;&gt;Node3 -->
<g id="edge2" class="edge"><title>Node1&#45;&gt;Node3</title>
<path fill="none" stroke="midnightblue" d="M380.377,-63.6392C346.801,-51.1259 309.366,-37.1746 282.305,-27.0894"/>
<polygon fill="midnightblue" stroke="midnightblue" points="283.424,-23.7712 272.831,-23.5585 280.979,-30.3305 283.424,-23.7712"/>
</g>
<!-- Node4 -->
<g id="node4" class="node"><title>Node4</title>
<polygon fill="white" stroke="#bfbfbf" points="340,-0.5 340,-23.5 471,-23.5 471,-0.5 340,-0.5"/>
<text text-anchor="middle" x="405.5" y="-8.3" font-family="Helvetica,sans-Serif" font-size="14.00">deal.II/base/point.h</text>
</g>
<!-- Node1&#45;&gt;Node4 -->
<g id="edge3" class="edge"><title>Node1&#45;&gt;Node4</title>
<path fill="none" stroke="midnightblue" d="M437.812,-60.2928C431.206,-50.6239 424.217,-40.3953 418.436,-31.9335"/>
<polygon fill="midnightblue" stroke="midnightblue" points="421.243,-29.8374 412.711,-23.555 415.463,-33.7863 421.243,-29.8374"/>
</g>
<!-- Node5 -->
<g id="node5" class="node"><title>Node5</title>
<polygon fill="white" stroke="#bfbfbf" points="489.5,-0.5 489.5,-23.5 543.5,-23.5 543.5,-0.5 489.5,-0.5"/>
<text text-anchor="middle" x="516.5" y="-8.3" font-family="Helvetica,sans-Serif" font-size="14.00">cmath</text>
</g>
<!-- Node1&#45;&gt;Node5 -->
<g id="edge4" class="edge"><title>Node1&#45;&gt;Node5</title>
<path fill="none" stroke="midnightblue" d="M483.601,-60.2928C490.327,-50.6239 497.442,-40.3953 503.329,-31.9335"/>
<polygon fill="midnightblue" stroke="midnightblue" points="506.32,-33.7628 509.157,-23.555 500.574,-29.7653 506.32,-33.7628"/>
</g>
<!-- Node6 -->
<g id="node6" class="node"><title>Node6</title>
<polygon fill="white" stroke="#bfbfbf" points="562,-0.5 562,-23.5 617,-23.5 617,-0.5 562,-0.5"/>
<text text-anchor="middle" x="589.5" y="-8.3" font-family="Helvetica,sans-Serif" font-size="14.00">cstdlib</text>
</g>
<!-- Node1&#45;&gt;Node6 -->
<g id="edge5" class="edge"><title>Node1&#45;&gt;Node6</title>
<path fill="none" stroke="midnightblue" d="M513.714,-60.2928C531.021,-49.4924 549.448,-37.9937 563.798,-29.0391"/>
<polygon fill="midnightblue" stroke="midnightblue" points="565.955,-31.8184 572.586,-23.555 562.249,-25.8798 565.955,-31.8184"/>
</g>
<!-- Node7 -->
<g id="node7" class="node"><title>Node7</title>
<polygon fill="white" stroke="#bfbfbf" points="635,-0.5 635,-23.5 688,-23.5 688,-0.5 635,-0.5"/>
<text text-anchor="middle" x="661.5" y="-8.3" font-family="Helvetica,sans-Serif" font-size="14.00">vector</text>
</g>
<!-- Node1&#45;&gt;Node7 -->
<g id="edge6" class="edge"><title>Node1&#45;&gt;Node7</title>
<path fill="none" stroke="midnightblue" d="M540.518,-61.453C570.154,-49.5839 602.271,-36.7209 625.962,-27.233"/>
<polygon fill="midnightblue" stroke="midnightblue" points="627.263,-30.482 635.245,-23.5149 624.661,-23.9838 627.263,-30.482"/>
</g>
</g>
</svg>
