<?xml version="1.0" encoding="UTF-8" standalone="no"?>
<!DOCTYPE svg PUBLIC "-//W3C//DTD SVG 1.1//EN"
 "http://www.w3.org/Graphics/SVG/1.1/DTD/svg11.dtd">
<!-- Generated by graphviz version 2.38.0 (20140413.2041)
 -->
<!-- Title: /home/travis/build/konsim83/MPI&#45;MSFEC/source/equation_data/eqn_boundary_vals.cc Pages: 1 -->
<svg width="842pt" height="227pt"
 viewBox="0.00 0.00 842.00 227.00" xmlns="http://www.w3.org/2000/svg" xmlns:xlink="http://www.w3.org/1999/xlink">
<g id="graph0" class="graph" transform="scale(1 1) rotate(0) translate(4 223)">
<title>/home/travis/build/konsim83/MPI&#45;MSFEC/source/equation_data/eqn_boundary_vals.cc</title>
<polygon fill="white" stroke="none" points="-4,4 -4,-223 838,-223 838,4 -4,4"/>
<!-- Node1 -->
<g id="node1" class="node"><title>Node1</title>
<polygon fill="#bfbfbf" stroke="black" points="473.5,-150.5 473.5,-218.5 633.5,-218.5 633.5,-150.5 473.5,-150.5"/>
<text text-anchor="start" x="481.5" y="-203.3" font-family="Helvetica,sans-Serif" font-size="14.00">/home/travis/build</text>
<text text-anchor="start" x="481.5" y="-188.3" font-family="Helvetica,sans-Serif" font-size="14.00">/konsim83/MPI&#45;MSFEC</text>
<text text-anchor="start" x="481.5" y="-173.3" font-family="Helvetica,sans-Serif" font-size="14.00">/source/equation_data</text>
<text text-anchor="middle" x="553.5" y="-158.3" font-family="Helvetica,sans-Serif" font-size="14.00">/eqn_boundary_vals.cc</text>
</g>
<!-- Node2 -->
<g id="node2" class="node"><title>Node2</title>
<g id="a_node2"><a xlink:href="eqn__boundary__vals_8h.html" target="_top" xlink:title="equation_data/eqn_boundary\l_vals.h">
<polygon fill="white" stroke="black" points="457.5,-75.5 457.5,-113.5 649.5,-113.5 649.5,-75.5 457.5,-75.5"/>
<text text-anchor="start" x="465.5" y="-98.3" font-family="Helvetica,sans-Serif" font-size="14.00">equation_data/eqn_boundary</text>
<text text-anchor="middle" x="553.5" y="-83.3" font-family="Helvetica,sans-Serif" font-size="14.00">_vals.h</text>
</a>
</g>
</g>
<!-- Node1&#45;&gt;Node2 -->
<g id="edge1" class="edge"><title>Node1&#45;&gt;Node2</title>
<path fill="none" stroke="midnightblue" d="M553.5,-150.482C553.5,-141.703 553.5,-132.301 553.5,-123.8"/>
<polygon fill="midnightblue" stroke="midnightblue" points="557,-123.627 553.5,-113.627 550,-123.627 557,-123.627"/>
</g>
<!-- Node3 -->
<g id="node3" class="node"><title>Node3</title>
<polygon fill="white" stroke="#bfbfbf" points="0,-8 0,-31 149,-31 149,-8 0,-8"/>
<text text-anchor="middle" x="74.5" y="-15.8" font-family="Helvetica,sans-Serif" font-size="14.00">deal.II/base/function.h</text>
</g>
<!-- Node2&#45;&gt;Node3 -->
<g id="edge2" class="edge"><title>Node2&#45;&gt;Node3</title>
<path fill="none" stroke="midnightblue" d="M457.126,-82.4933C376.721,-72.7705 259.269,-57.3125 157.5,-39 148.118,-37.3118 138.188,-35.2982 128.584,-33.2309"/>
<polygon fill="midnightblue" stroke="midnightblue" points="129.248,-29.7934 118.73,-31.0684 127.748,-36.6307 129.248,-29.7934"/>
</g>
<!-- Node4 -->
<g id="node4" class="node"><title>Node4</title>
<polygon fill="white" stroke="#bfbfbf" points="167,-8 167,-31 322,-31 322,-8 167,-8"/>
<text text-anchor="middle" x="244.5" y="-15.8" font-family="Helvetica,sans-Serif" font-size="14.00">deal.II/base/numbers.h</text>
</g>
<!-- Node2&#45;&gt;Node4 -->
<g id="edge3" class="edge"><title>Node2&#45;&gt;Node4</title>
<path fill="none" stroke="midnightblue" d="M477.118,-75.4551C421.775,-62.3805 348.284,-45.0186 298.843,-33.3382"/>
<polygon fill="midnightblue" stroke="midnightblue" points="299.517,-29.9013 288.98,-31.0083 297.908,-36.7138 299.517,-29.9013"/>
</g>
<!-- Node5 -->
<g id="node5" class="node"><title>Node5</title>
<polygon fill="white" stroke="#bfbfbf" points="340,-8 340,-31 471,-31 471,-8 340,-8"/>
<text text-anchor="middle" x="405.5" y="-15.8" font-family="Helvetica,sans-Serif" font-size="14.00">deal.II/base/point.h</text>
</g>
<!-- Node2&#45;&gt;Node5 -->
<g id="edge4" class="edge"><title>Node2&#45;&gt;Node5</title>
<path fill="none" stroke="midnightblue" d="M516.916,-75.4551C492.088,-63.2092 459.636,-47.2022 436.165,-35.6251"/>
<polygon fill="midnightblue" stroke="midnightblue" points="437.535,-32.3983 427.018,-31.1136 434.438,-38.6762 437.535,-32.3983"/>
</g>
<!-- Node6 -->
<g id="node6" class="node"><title>Node6</title>
<polygon fill="white" stroke="#bfbfbf" points="489.5,-0.5 489.5,-38.5 617.5,-38.5 617.5,-0.5 489.5,-0.5"/>
<text text-anchor="start" x="497.5" y="-23.3" font-family="Helvetica,sans-Serif" font-size="14.00">deal.II/base/tensor</text>
<text text-anchor="middle" x="553.5" y="-8.3" font-family="Helvetica,sans-Serif" font-size="14.00">_function.h</text>
</g>
<!-- Node2&#45;&gt;Node6 -->
<g id="edge5" class="edge"><title>Node2&#45;&gt;Node6</title>
<path fill="none" stroke="midnightblue" d="M553.5,-75.4551C553.5,-67.3828 553.5,-57.6764 553.5,-48.6817"/>
<polygon fill="midnightblue" stroke="midnightblue" points="557,-48.5903 553.5,-38.5904 550,-48.5904 557,-48.5903"/>
</g>
<!-- Node7 -->
<g id="node7" class="node"><title>Node7</title>
<polygon fill="white" stroke="#bfbfbf" points="635.5,-8 635.5,-31 689.5,-31 689.5,-8 635.5,-8"/>
<text text-anchor="middle" x="662.5" y="-15.8" font-family="Helvetica,sans-Serif" font-size="14.00">cmath</text>
</g>
<!-- Node2&#45;&gt;Node7 -->
<g id="edge6" class="edge"><title>Node2&#45;&gt;Node7</title>
<path fill="none" stroke="midnightblue" d="M580.444,-75.4551C598.16,-63.5902 621.148,-48.1946 638.284,-36.7183"/>
<polygon fill="midnightblue" stroke="midnightblue" points="640.291,-39.5863 646.652,-31.1136 636.396,-33.7702 640.291,-39.5863"/>
</g>
<!-- Node8 -->
<g id="node8" class="node"><title>Node8</title>
<polygon fill="white" stroke="#bfbfbf" points="708,-8 708,-31 763,-31 763,-8 708,-8"/>
<text text-anchor="middle" x="735.5" y="-15.8" font-family="Helvetica,sans-Serif" font-size="14.00">cstdlib</text>
</g>
<!-- Node2&#45;&gt;Node8 -->
<g id="edge7" class="edge"><title>Node2&#45;&gt;Node8</title>
<path fill="none" stroke="midnightblue" d="M605.359,-75.4921C633.245,-65.4383 668.061,-52.2873 698.5,-39 701.005,-37.9064 703.584,-36.729 706.158,-35.517"/>
<polygon fill="midnightblue" stroke="midnightblue" points="707.859,-38.5815 715.324,-31.0632 704.8,-32.2854 707.859,-38.5815"/>
</g>
<!-- Node9 -->
<g id="node9" class="node"><title>Node9</title>
<polygon fill="white" stroke="#bfbfbf" points="781,-8 781,-31 834,-31 834,-8 781,-8"/>
<text text-anchor="middle" x="807.5" y="-15.8" font-family="Helvetica,sans-Serif" font-size="14.00">vector</text>
</g>
<!-- Node2&#45;&gt;Node9 -->
<g id="edge8" class="edge"><title>Node2&#45;&gt;Node9</title>
<path fill="none" stroke="midnightblue" d="M646.932,-75.4929C686.356,-66.5575 732.333,-54.352 772.5,-39 775.06,-38.0216 777.672,-36.8991 780.257,-35.7012"/>
<polygon fill="midnightblue" stroke="midnightblue" points="781.98,-38.7531 789.363,-31.155 778.853,-32.4902 781.98,-38.7531"/>
</g>
</g>
</svg>
