<?xml version="1.0" encoding="UTF-8" standalone="no"?>
<!DOCTYPE svg PUBLIC "-//W3C//DTD SVG 1.1//EN"
 "http://www.w3.org/Graphics/SVG/1.1/DTD/svg11.dtd">
<!-- Generated by graphviz version 2.38.0 (20140413.2041)
 -->
<!-- Title: /home/travis/build/konsim83/MPI&#45;MSFEC/source/equation_data/eqn_coeff_A.cc Pages: 1 -->
<svg width="927pt" height="212pt"
 viewBox="0.00 0.00 927.00 212.00" xmlns="http://www.w3.org/2000/svg" xmlns:xlink="http://www.w3.org/1999/xlink">
<g id="graph0" class="graph" transform="scale(1 1) rotate(0) translate(4 208)">
<title>/home/travis/build/konsim83/MPI&#45;MSFEC/source/equation_data/eqn_coeff_A.cc</title>
<polygon fill="white" stroke="none" points="-4,4 -4,-208 923,-208 923,4 -4,4"/>
<!-- Node1 -->
<g id="node1" class="node"><title>Node1</title>
<polygon fill="#bfbfbf" stroke="black" points="531.5,-135.5 531.5,-203.5 691.5,-203.5 691.5,-135.5 531.5,-135.5"/>
<text text-anchor="start" x="539.5" y="-188.3" font-family="Helvetica,sans-Serif" font-size="14.00">/home/travis/build</text>
<text text-anchor="start" x="539.5" y="-173.3" font-family="Helvetica,sans-Serif" font-size="14.00">/konsim83/MPI&#45;MSFEC</text>
<text text-anchor="start" x="539.5" y="-158.3" font-family="Helvetica,sans-Serif" font-size="14.00">/source/equation_data</text>
<text text-anchor="middle" x="611.5" y="-143.3" font-family="Helvetica,sans-Serif" font-size="14.00">/eqn_coeff_A.cc</text>
</g>
<!-- Node2 -->
<g id="node2" class="node"><title>Node2</title>
<g id="a_node2"><a xlink:href="eqn__coeff__A_8h.html" target="_top" xlink:title="equation_data/eqn_coeff_A.h">
<polygon fill="white" stroke="black" points="515,-75.5 515,-98.5 708,-98.5 708,-75.5 515,-75.5"/>
<text text-anchor="middle" x="611.5" y="-83.3" font-family="Helvetica,sans-Serif" font-size="14.00">equation_data/eqn_coeff_A.h</text>
</a>
</g>
</g>
<!-- Node1&#45;&gt;Node2 -->
<g id="edge1" class="edge"><title>Node1&#45;&gt;Node2</title>
<path fill="none" stroke="midnightblue" d="M611.5,-135.293C611.5,-126.241 611.5,-116.699 611.5,-108.575"/>
<polygon fill="midnightblue" stroke="midnightblue" points="615,-108.555 611.5,-98.555 608,-108.555 615,-108.555"/>
</g>
<!-- Node3 -->
<g id="node3" class="node"><title>Node3</title>
<polygon fill="white" stroke="#bfbfbf" points="0,-8 0,-31 155,-31 155,-8 0,-8"/>
<text text-anchor="middle" x="77.5" y="-15.8" font-family="Helvetica,sans-Serif" font-size="14.00">deal.II/base/numbers.h</text>
</g>
<!-- Node2&#45;&gt;Node3 -->
<g id="edge2" class="edge"><title>Node2&#45;&gt;Node3</title>
<path fill="none" stroke="midnightblue" d="M514.766,-78.7725C423.97,-71.2933 284.537,-58.0197 164.5,-39 154.098,-37.3518 143.063,-35.2687 132.472,-33.0995"/>
<polygon fill="midnightblue" stroke="midnightblue" points="132.993,-29.6327 122.487,-31.0046 131.555,-36.4836 132.993,-29.6327"/>
</g>
<!-- Node4 -->
<g id="node4" class="node"><title>Node4</title>
<polygon fill="white" stroke="#bfbfbf" points="173.5,-0.5 173.5,-38.5 325.5,-38.5 325.5,-0.5 173.5,-0.5"/>
<text text-anchor="start" x="181.5" y="-23.3" font-family="Helvetica,sans-Serif" font-size="14.00">deal.II/base/parameter</text>
<text text-anchor="middle" x="249.5" y="-8.3" font-family="Helvetica,sans-Serif" font-size="14.00">_handler.h</text>
</g>
<!-- Node2&#45;&gt;Node4 -->
<g id="edge3" class="edge"><title>Node2&#45;&gt;Node4</title>
<path fill="none" stroke="midnightblue" d="M544.175,-75.4695C490.289,-66.836 412.548,-53.9233 335.766,-39.2055"/>
<polygon fill="midnightblue" stroke="midnightblue" points="336.403,-35.764 325.921,-37.3074 335.078,-42.6374 336.403,-35.764"/>
</g>
<!-- Node5 -->
<g id="node5" class="node"><title>Node5</title>
<polygon fill="white" stroke="#bfbfbf" points="344,-8 344,-31 475,-31 475,-8 344,-8"/>
<text text-anchor="middle" x="409.5" y="-15.8" font-family="Helvetica,sans-Serif" font-size="14.00">deal.II/base/point.h</text>
</g>
<!-- Node2&#45;&gt;Node5 -->
<g id="edge4" class="edge"><title>Node2&#45;&gt;Node5</title>
<path fill="none" stroke="midnightblue" d="M579.045,-75.4763C544.544,-64.2891 489.839,-46.5506 451.94,-34.2616"/>
<polygon fill="midnightblue" stroke="midnightblue" points="452.801,-30.8614 442.209,-31.1062 450.642,-37.5201 452.801,-30.8614"/>
</g>
<!-- Node6 -->
<g id="node6" class="node"><title>Node6</title>
<polygon fill="white" stroke="#bfbfbf" points="493.5,-0.5 493.5,-38.5 621.5,-38.5 621.5,-0.5 493.5,-0.5"/>
<text text-anchor="start" x="501.5" y="-23.3" font-family="Helvetica,sans-Serif" font-size="14.00">deal.II/base/tensor</text>
<text text-anchor="middle" x="557.5" y="-8.3" font-family="Helvetica,sans-Serif" font-size="14.00">_function.h</text>
</g>
<!-- Node2&#45;&gt;Node6 -->
<g id="edge5" class="edge"><title>Node2&#45;&gt;Node6</title>
<path fill="none" stroke="midnightblue" d="M602.824,-75.4763C596.378,-67.6578 587.294,-56.6393 578.95,-46.5176"/>
<polygon fill="midnightblue" stroke="midnightblue" points="581.542,-44.1601 572.48,-38.6706 576.141,-48.613 581.542,-44.1601"/>
</g>
<!-- Node7 -->
<g id="node7" class="node"><title>Node7</title>
<polygon fill="white" stroke="#bfbfbf" points="639.5,-8 639.5,-31 693.5,-31 693.5,-8 639.5,-8"/>
<text text-anchor="middle" x="666.5" y="-15.8" font-family="Helvetica,sans-Serif" font-size="14.00">cmath</text>
</g>
<!-- Node2&#45;&gt;Node7 -->
<g id="edge6" class="edge"><title>Node2&#45;&gt;Node7</title>
<path fill="none" stroke="midnightblue" d="M620.337,-75.4763C628.547,-65.6988 640.959,-50.9169 650.846,-39.1426"/>
<polygon fill="midnightblue" stroke="midnightblue" points="653.752,-41.1241 657.503,-31.2152 648.392,-36.6227 653.752,-41.1241"/>
</g>
<!-- Node8 -->
<g id="node8" class="node"><title>Node8</title>
<polygon fill="white" stroke="#bfbfbf" points="712,-8 712,-31 767,-31 767,-8 712,-8"/>
<text text-anchor="middle" x="739.5" y="-15.8" font-family="Helvetica,sans-Serif" font-size="14.00">cstdlib</text>
</g>
<!-- Node2&#45;&gt;Node8 -->
<g id="edge7" class="edge"><title>Node2&#45;&gt;Node8</title>
<path fill="none" stroke="midnightblue" d="M632.065,-75.4763C653.028,-64.7495 685.761,-47.9994 709.59,-35.8056"/>
<polygon fill="midnightblue" stroke="midnightblue" points="711.253,-38.8864 718.56,-31.2152 708.064,-32.6549 711.253,-38.8864"/>
</g>
<!-- Node9 -->
<g id="node9" class="node"><title>Node9</title>
<polygon fill="white" stroke="#bfbfbf" points="785.5,-8 785.5,-31 847.5,-31 847.5,-8 785.5,-8"/>
<text text-anchor="middle" x="816.5" y="-15.8" font-family="Helvetica,sans-Serif" font-size="14.00">fstream</text>
</g>
<!-- Node2&#45;&gt;Node9 -->
<g id="edge8" class="edge"><title>Node2&#45;&gt;Node9</title>
<path fill="none" stroke="midnightblue" d="M655.522,-75.4521C689.108,-66.9283 736.289,-53.9225 776.5,-39 779.584,-37.8553 782.761,-36.5733 785.912,-35.2322"/>
<polygon fill="midnightblue" stroke="midnightblue" points="787.458,-38.3752 795.171,-31.1107 784.612,-31.9802 787.458,-38.3752"/>
</g>
<!-- Node10 -->
<g id="node10" class="node"><title>Node10</title>
<polygon fill="white" stroke="#bfbfbf" points="866,-8 866,-31 919,-31 919,-8 866,-8"/>
<text text-anchor="middle" x="892.5" y="-15.8" font-family="Helvetica,sans-Serif" font-size="14.00">vector</text>
</g>
<!-- Node2&#45;&gt;Node10 -->
<g id="edge9" class="edge"><title>Node2&#45;&gt;Node10</title>
<path fill="none" stroke="midnightblue" d="M698.387,-75.4966C745.947,-68.2242 805.423,-56.616 856.5,-39 859.396,-38.0012 862.349,-36.8061 865.257,-35.5106"/>
<polygon fill="midnightblue" stroke="midnightblue" points="866.789,-38.6577 874.261,-31.1471 863.736,-32.3584 866.789,-38.6577"/>
</g>
</g>
</svg>
