<?xml version="1.0" encoding="UTF-8" standalone="no"?>
<!DOCTYPE svg PUBLIC "-//W3C//DTD SVG 1.1//EN"
 "http://www.w3.org/Graphics/SVG/1.1/DTD/svg11.dtd">
<!-- Generated by graphviz version 2.38.0 (20140413.2041)
 -->
<!-- Title: /home/travis/build/konsim83/MPI&#45;MSFEC/source/equation_data/eqn_coeff_R.cc Pages: 1 -->
<svg width="696pt" height="197pt"
 viewBox="0.00 0.00 696.00 197.00" xmlns="http://www.w3.org/2000/svg" xmlns:xlink="http://www.w3.org/1999/xlink">
<g id="graph0" class="graph" transform="scale(1 1) rotate(0) translate(4 193)">
<title>/home/travis/build/konsim83/MPI&#45;MSFEC/source/equation_data/eqn_coeff_R.cc</title>
<polygon fill="white" stroke="none" points="-4,4 -4,-193 692,-193 692,4 -4,4"/>
<!-- Node1 -->
<g id="node1" class="node"><title>Node1</title>
<polygon fill="#bfbfbf" stroke="black" points="380.5,-120.5 380.5,-188.5 540.5,-188.5 540.5,-120.5 380.5,-120.5"/>
<text text-anchor="start" x="388.5" y="-173.3" font-family="Helvetica,sans-Serif" font-size="14.00">/home/travis/build</text>
<text text-anchor="start" x="388.5" y="-158.3" font-family="Helvetica,sans-Serif" font-size="14.00">/konsim83/MPI&#45;MSFEC</text>
<text text-anchor="start" x="388.5" y="-143.3" font-family="Helvetica,sans-Serif" font-size="14.00">/source/equation_data</text>
<text text-anchor="middle" x="460.5" y="-128.3" font-family="Helvetica,sans-Serif" font-size="14.00">/eqn_coeff_R.cc</text>
</g>
<!-- Node2 -->
<g id="node2" class="node"><title>Node2</title>
<g id="a_node2"><a xlink:href="eqn__coeff__R_8h.html" target="_top" xlink:title="equation_data/eqn_coeff_R.h">
<polygon fill="white" stroke="black" points="363.5,-60.5 363.5,-83.5 557.5,-83.5 557.5,-60.5 363.5,-60.5"/>
<text text-anchor="middle" x="460.5" y="-68.3" font-family="Helvetica,sans-Serif" font-size="14.00">equation_data/eqn_coeff_R.h</text>
</a>
</g>
</g>
<!-- Node1&#45;&gt;Node2 -->
<g id="edge1" class="edge"><title>Node1&#45;&gt;Node2</title>
<path fill="none" stroke="midnightblue" d="M460.5,-120.293C460.5,-111.241 460.5,-101.699 460.5,-93.5748"/>
<polygon fill="midnightblue" stroke="midnightblue" points="464,-93.5549 460.5,-83.555 457,-93.555 464,-93.5549"/>
</g>
<!-- Node3 -->
<g id="node3" class="node"><title>Node3</title>
<polygon fill="white" stroke="#bfbfbf" points="0,-0.5 0,-23.5 149,-23.5 149,-0.5 0,-0.5"/>
<text text-anchor="middle" x="74.5" y="-8.3" font-family="Helvetica,sans-Serif" font-size="14.00">deal.II/base/function.h</text>
</g>
<!-- Node2&#45;&gt;Node3 -->
<g id="edge2" class="edge"><title>Node2&#45;&gt;Node3</title>
<path fill="none" stroke="midnightblue" d="M390.598,-60.4966C324.128,-50.5089 224.225,-35.4976 154.581,-25.0329"/>
<polygon fill="midnightblue" stroke="midnightblue" points="154.942,-21.5479 144.533,-23.5231 153.902,-28.4702 154.942,-21.5479"/>
</g>
<!-- Node4 -->
<g id="node4" class="node"><title>Node4</title>
<polygon fill="white" stroke="#bfbfbf" points="167,-0.5 167,-23.5 322,-23.5 322,-0.5 167,-0.5"/>
<text text-anchor="middle" x="244.5" y="-8.3" font-family="Helvetica,sans-Serif" font-size="14.00">deal.II/base/numbers.h</text>
</g>
<!-- Node2&#45;&gt;Node4 -->
<g id="edge3" class="edge"><title>Node2&#45;&gt;Node4</title>
<path fill="none" stroke="midnightblue" d="M421.384,-60.4966C385.56,-50.8773 332.383,-36.5981 293.692,-26.209"/>
<polygon fill="midnightblue" stroke="midnightblue" points="294.255,-22.7362 283.689,-23.5231 292.44,-29.4967 294.255,-22.7362"/>
</g>
<!-- Node5 -->
<g id="node5" class="node"><title>Node5</title>
<polygon fill="white" stroke="#bfbfbf" points="340,-0.5 340,-23.5 471,-23.5 471,-0.5 340,-0.5"/>
<text text-anchor="middle" x="405.5" y="-8.3" font-family="Helvetica,sans-Serif" font-size="14.00">deal.II/base/point.h</text>
</g>
<!-- Node2&#45;&gt;Node5 -->
<g id="edge4" class="edge"><title>Node2&#45;&gt;Node5</title>
<path fill="none" stroke="midnightblue" d="M450.412,-60.3619C442.659,-52.1861 431.77,-40.7025 422.655,-31.0907"/>
<polygon fill="midnightblue" stroke="midnightblue" points="424.945,-28.4186 415.524,-23.5707 419.865,-33.2352 424.945,-28.4186"/>
</g>
<!-- Node6 -->
<g id="node6" class="node"><title>Node6</title>
<polygon fill="white" stroke="#bfbfbf" points="489.5,-0.5 489.5,-23.5 543.5,-23.5 543.5,-0.5 489.5,-0.5"/>
<text text-anchor="middle" x="516.5" y="-8.3" font-family="Helvetica,sans-Serif" font-size="14.00">cmath</text>
</g>
<!-- Node2&#45;&gt;Node6 -->
<g id="edge5" class="edge"><title>Node2&#45;&gt;Node6</title>
<path fill="none" stroke="midnightblue" d="M470.771,-60.3619C478.744,-52.1043 489.975,-40.4725 499.311,-30.8029"/>
<polygon fill="midnightblue" stroke="midnightblue" points="501.866,-33.1958 506.294,-23.5707 496.83,-28.3336 501.866,-33.1958"/>
</g>
<!-- Node7 -->
<g id="node7" class="node"><title>Node7</title>
<polygon fill="white" stroke="#bfbfbf" points="562,-0.5 562,-23.5 617,-23.5 617,-0.5 562,-0.5"/>
<text text-anchor="middle" x="589.5" y="-8.3" font-family="Helvetica,sans-Serif" font-size="14.00">cstdlib</text>
</g>
<!-- Node2&#45;&gt;Node7 -->
<g id="edge6" class="edge"><title>Node2&#45;&gt;Node7</title>
<path fill="none" stroke="midnightblue" d="M483.861,-60.4966C504.191,-51.3562 533.878,-38.0082 556.609,-27.7883"/>
<polygon fill="midnightblue" stroke="midnightblue" points="558.192,-30.9142 565.877,-23.6212 555.321,-24.5298 558.192,-30.9142"/>
</g>
<!-- Node8 -->
<g id="node8" class="node"><title>Node8</title>
<polygon fill="white" stroke="#bfbfbf" points="635,-0.5 635,-23.5 688,-23.5 688,-0.5 635,-0.5"/>
<text text-anchor="middle" x="661.5" y="-8.3" font-family="Helvetica,sans-Serif" font-size="14.00">vector</text>
</g>
<!-- Node2&#45;&gt;Node8 -->
<g id="edge7" class="edge"><title>Node2&#45;&gt;Node8</title>
<path fill="none" stroke="midnightblue" d="M498.831,-60.4823C530.428,-51.7375 576.649,-38.775 625.063,-24.3834"/>
<polygon fill="midnightblue" stroke="midnightblue" points="626.189,-27.6999 634.771,-21.4869 624.188,-20.9921 626.189,-27.6999"/>
</g>
</g>
</svg>
