<?xml version="1.0" encoding="UTF-8" standalone="no"?>
<!DOCTYPE svg PUBLIC "-//W3C//DTD SVG 1.1//EN"
 "http://www.w3.org/Graphics/SVG/1.1/DTD/svg11.dtd">
<!-- Generated by graphviz version 2.38.0 (20140413.2041)
 -->
<!-- Title: Graph Legend Pages: 1 -->
<svg width="627pt" height="179pt"
 viewBox="0.00 0.00 627.00 179.00" xmlns="http://www.w3.org/2000/svg" xmlns:xlink="http://www.w3.org/1999/xlink">
<g id="graph0" class="graph" transform="scale(1 1) rotate(0) translate(4 175)">
<title>Graph Legend</title>
<polygon fill="white" stroke="none" points="-4,4 -4,-175 623,-175 623,4 -4,4"/>
<!-- Node9 -->
<g id="node1" class="node"><title>Node9</title>
<polygon fill="#bfbfbf" stroke="black" points="362.5,-23 293.5,-23 293.5,-0 362.5,-0 362.5,-23"/>
<text text-anchor="middle" x="328" y="-7.8" font-family="Helvetica,sans-Serif" font-size="14.00">Inherited</text>
</g>
<!-- Node10 -->
<g id="node2" class="node"><title>Node10</title>
<g id="a_node2"><a xlink:href="$classPublicBase.html" xlink:title="PublicBase">
<polygon fill="none" stroke="black" points="84,-97 7.10543e-15,-97 7.10543e-15,-74 84,-74 84,-97"/>
<text text-anchor="middle" x="42" y="-81.8" font-family="Helvetica,sans-Serif" font-size="14.00">PublicBase</text>
</a>
</g>
</g>
<!-- Node10&#45;&gt;Node9 -->
<g id="edge1" class="edge"><title>Node10&#45;&gt;Node9</title>
<path fill="none" stroke="midnightblue" d="M93.9165,-71.4301C151.695,-56.8844 243.457,-33.7837 293.193,-21.2627"/>
<polygon fill="midnightblue" stroke="midnightblue" points="92.7361,-68.118 83.8931,-73.9535 94.4451,-74.9062 92.7361,-68.118"/>
</g>
<!-- Node11 -->
<g id="node3" class="node"><title>Node11</title>
<g id="a_node3"><a xlink:href="$classTruncated.html" xlink:title="Truncated">
<polygon fill="none" stroke="red" points="80.5,-171 3.5,-171 3.5,-148 80.5,-148 80.5,-171"/>
<text text-anchor="middle" x="42" y="-155.8" font-family="Helvetica,sans-Serif" font-size="14.00">Truncated</text>
</a>
</g>
</g>
<!-- Node11&#45;&gt;Node10 -->
<g id="edge2" class="edge"><title>Node11&#45;&gt;Node10</title>
<path fill="none" stroke="midnightblue" d="M42,-137.735C42,-124.469 42,-107.819 42,-97.1674"/>
<polygon fill="midnightblue" stroke="midnightblue" points="38.5001,-137.876 42,-147.876 45.5001,-137.876 38.5001,-137.876"/>
</g>
<!-- Node13 -->
<g id="node4" class="node"><title>Node13</title>
<g id="a_node4"><a xlink:href="$classProtectedBase.html" xlink:title="ProtectedBase">
<polygon fill="none" stroke="black" points="207.5,-97 102.5,-97 102.5,-74 207.5,-74 207.5,-97"/>
<text text-anchor="middle" x="155" y="-81.8" font-family="Helvetica,sans-Serif" font-size="14.00">ProtectedBase</text>
</a>
</g>
</g>
<!-- Node13&#45;&gt;Node9 -->
<g id="edge3" class="edge"><title>Node13&#45;&gt;Node9</title>
<path fill="none" stroke="darkgreen" d="M189.91,-69.971C223.308,-56.0714 272.873,-35.443 302.65,-23.0501"/>
<polygon fill="darkgreen" stroke="darkgreen" points="188.414,-66.8024 180.527,-73.8762 191.104,-73.2651 188.414,-66.8024"/>
</g>
<!-- Node14 -->
<g id="node5" class="node"><title>Node14</title>
<g id="a_node5"><a xlink:href="$classPrivateBase.html" xlink:title="PrivateBase">
<polygon fill="none" stroke="black" points="314.5,-97 225.5,-97 225.5,-74 314.5,-74 314.5,-97"/>
<text text-anchor="middle" x="270" y="-81.8" font-family="Helvetica,sans-Serif" font-size="14.00">PrivateBase</text>
</a>
</g>
</g>
<!-- Node14&#45;&gt;Node9 -->
<g id="edge4" class="edge"><title>Node14&#45;&gt;Node9</title>
<path fill="none" stroke="#8b1a1a" d="M284.835,-66.0841C295.787,-52.4886 310.312,-34.4579 319.407,-23.1674"/>
<polygon fill="#8b1a1a" stroke="#8b1a1a" points="282.106,-63.8929 278.558,-73.8762 287.557,-68.2843 282.106,-63.8929"/>
</g>
<!-- Node15 -->
<g id="node6" class="node"><title>Node15</title>
<polygon fill="none" stroke="#bfbfbf" points="441.5,-97 332.5,-97 332.5,-74 441.5,-74 441.5,-97"/>
<text text-anchor="middle" x="387" y="-81.8" font-family="Helvetica,sans-Serif" font-size="14.00">Undocumented</text>
</g>
<!-- Node15&#45;&gt;Node9 -->
<g id="edge5" class="edge"><title>Node15&#45;&gt;Node9</title>
<path fill="none" stroke="midnightblue" d="M371.909,-66.0841C360.768,-52.4886 345.993,-34.4579 336.741,-23.1674"/>
<polygon fill="midnightblue" stroke="midnightblue" points="369.249,-68.3597 378.294,-73.8762 374.663,-63.923 369.249,-68.3597"/>
</g>
<!-- Node16 -->
<g id="node7" class="node"><title>Node16</title>
<g id="a_node7"><a xlink:href="$classTempl.html" xlink:title="Templ&lt; int &gt;">
<polygon fill="none" stroke="black" points="552.5,-97 459.5,-97 459.5,-74 552.5,-74 552.5,-97"/>
<text text-anchor="middle" x="506" y="-81.8" font-family="Helvetica,sans-Serif" font-size="14.00">Templ&lt; int &gt;</text>
</a>
</g>
</g>
<!-- Node16&#45;&gt;Node9 -->
<g id="edge6" class="edge"><title>Node16&#45;&gt;Node9</title>
<path fill="none" stroke="midnightblue" d="M470.081,-69.971C435.718,-56.0714 384.72,-35.443 354.082,-23.0501"/>
<polygon fill="midnightblue" stroke="midnightblue" points="469.153,-73.3709 479.735,-73.8762 471.778,-66.8817 469.153,-73.3709"/>
</g>
<!-- Node17 -->
<g id="node8" class="node"><title>Node17</title>
<g id="a_node8"><a xlink:href="$classTempl.html" xlink:title="Templ&lt; T &gt;">
<polygon fill="none" stroke="black" points="549.5,-171 462.5,-171 462.5,-148 549.5,-148 549.5,-171"/>
<text text-anchor="middle" x="506" y="-155.8" font-family="Helvetica,sans-Serif" font-size="14.00">Templ&lt; T &gt;</text>
</a>
</g>
</g>
<!-- Node17&#45;&gt;Node16 -->
<g id="edge7" class="edge"><title>Node17&#45;&gt;Node16</title>
<path fill="none" stroke="orange" stroke-dasharray="5,2" d="M506,-137.735C506,-124.469 506,-107.819 506,-97.1674"/>
<polygon fill="orange" stroke="orange" points="502.5,-137.876 506,-147.876 509.5,-137.876 502.5,-137.876"/>
<text text-anchor="middle" x="525.5" y="-118.8" font-family="Helvetica,sans-Serif" font-size="14.00">&lt; int &gt;</text>
</g>
<!-- Node18 -->
<g id="node9" class="node"><title>Node18</title>
<g id="a_node9"><a xlink:href="$classUsed.html" xlink:title="Used">
<polygon fill="none" stroke="black" points="619,-97 571,-97 571,-74 619,-74 619,-97"/>
<text text-anchor="middle" x="595" y="-81.8" font-family="Helvetica,sans-Serif" font-size="14.00">Used</text>
</a>
</g>
</g>
<!-- Node18&#45;&gt;Node9 -->
<g id="edge8" class="edge"><title>Node18&#45;&gt;Node9</title>
<path fill="none" stroke="#9a32cd" stroke-dasharray="5,2" d="M561.301,-74.0863C561.201,-74.0575 561.1,-74.0287 561,-74 491.015,-53.9666 408.526,-32.7546 362.861,-21.2211"/>
<polygon fill="#9a32cd" stroke="#9a32cd" points="560.309,-77.4427 570.891,-76.9193 562.292,-70.7295 560.309,-77.4427"/>
<text text-anchor="middle" x="532.5" y="-44.8" font-family="Helvetica,sans-Serif" font-size="14.00">m_usedClass</text>
</g>
</g>
</svg>
