<?xml version="1.0" encoding="UTF-8" standalone="no"?>
<!DOCTYPE svg PUBLIC "-//W3C//DTD SVG 1.1//EN"
 "http://www.w3.org/Graphics/SVG/1.1/DTD/svg11.dtd">
<!-- Generated by graphviz version 2.38.0 (20140413.2041)
 -->
<!-- Title: Graphical Class Hierarchy Pages: 1 -->
<svg width="380pt" height="158pt"
 viewBox="0.00 0.00 380.00 158.00" xmlns="http://www.w3.org/2000/svg" xmlns:xlink="http://www.w3.org/1999/xlink">
<g id="graph0" class="graph" transform="scale(1 1) rotate(0) translate(4 154)">
<title>Graphical Class Hierarchy</title>
<polygon fill="white" stroke="none" points="-4,4 -4,-154 376,-154 376,4 -4,4"/>
<!-- Node1 -->
<g id="node1" class="node"><title>Node1</title>
<g id="a_node1"><a xlink:href="classDataPostprocessor.html" target="_top" xlink:title="DataPostprocessor">
<polygon fill="white" stroke="black" points="0,-63.5 0,-86.5 131,-86.5 131,-63.5 0,-63.5"/>
<text text-anchor="middle" x="65.5" y="-71.3" font-family="Helvetica,sans-Serif" font-size="14.00">DataPostprocessor</text>
</a>
</g>
</g>
<!-- Node2 -->
<g id="node2" class="node"><title>Node2</title>
<g id="a_node2"><a xlink:href="classNedRT_1_1NedRT__PostProcessor.html" target="_top" xlink:title="Class to postprocess a solution of a &#45; &#160;problem. ">
<polygon fill="white" stroke="black" points="167,-126.5 167,-149.5 372,-149.5 372,-126.5 167,-126.5"/>
<text text-anchor="middle" x="269.5" y="-134.3" font-family="Helvetica,sans-Serif" font-size="14.00">NedRT::NedRT_PostProcessor</text>
</a>
</g>
</g>
<!-- Node1&#45;&gt;Node2 -->
<g id="edge1" class="edge"><title>Node1&#45;&gt;Node2</title>
<path fill="none" stroke="midnightblue" d="M99.6495,-90.7457C118.961,-99.4362 143.972,-109.878 167,-117 178.604,-120.589 191.146,-123.745 203.323,-126.447"/>
<polygon fill="midnightblue" stroke="midnightblue" points="100.937,-87.4861 90.387,-86.5154 98.0292,-93.8535 100.937,-87.4861"/>
</g>
<!-- Node3 -->
<g id="node3" class="node"><title>Node3</title>
<g id="a_node3"><a xlink:href="classQ_1_1Q__PostProcessor.html" target="_top" xlink:title="Class to postprocess a solution of a &#160;problem. ">
<polygon fill="white" stroke="black" points="198.5,-84.5 198.5,-107.5 340.5,-107.5 340.5,-84.5 198.5,-84.5"/>
<text text-anchor="middle" x="269.5" y="-92.3" font-family="Helvetica,sans-Serif" font-size="14.00">Q::Q_PostProcessor</text>
</a>
</g>
</g>
<!-- Node1&#45;&gt;Node3 -->
<g id="edge2" class="edge"><title>Node1&#45;&gt;Node3</title>
<path fill="none" stroke="midnightblue" d="M141.42,-82.7887C159.995,-84.7198 179.834,-86.7823 198.181,-88.6896"/>
<polygon fill="midnightblue" stroke="midnightblue" points="141.556,-79.2841 131.248,-81.7312 140.832,-86.2465 141.556,-79.2841"/>
</g>
<!-- Node4 -->
<g id="node4" class="node"><title>Node4</title>
<g id="a_node4"><a xlink:href="classQNed_1_1QNed__PostProcessor.html" target="_top" xlink:title="Class to postprocess a solution of a &#45; &#160;problem. ">
<polygon fill="white" stroke="black" points="174,-42.5 174,-65.5 365,-65.5 365,-42.5 174,-42.5"/>
<text text-anchor="middle" x="269.5" y="-50.3" font-family="Helvetica,sans-Serif" font-size="14.00">QNed::QNed_PostProcessor</text>
</a>
</g>
</g>
<!-- Node1&#45;&gt;Node4 -->
<g id="edge3" class="edge"><title>Node1&#45;&gt;Node4</title>
<path fill="none" stroke="midnightblue" d="M141.303,-67.2235C151.941,-66.1175 162.996,-64.9682 173.949,-63.8295"/>
<polygon fill="midnightblue" stroke="midnightblue" points="140.832,-63.7535 131.248,-68.2688 141.556,-70.7159 140.832,-63.7535"/>
</g>
<!-- Node5 -->
<g id="node5" class="node"><title>Node5</title>
<g id="a_node5"><a xlink:href="classRTDQ_1_1RTDQ__PostProcessor.html" target="_top" xlink:title="Class to postprocess a solution of a &#45; &#160;problem. ">
<polygon fill="white" stroke="black" points="171,-0.5 171,-23.5 368,-23.5 368,-0.5 171,-0.5"/>
<text text-anchor="middle" x="269.5" y="-8.3" font-family="Helvetica,sans-Serif" font-size="14.00">RTDQ::RTDQ_PostProcessor</text>
</a>
</g>
</g>
<!-- Node1&#45;&gt;Node5 -->
<g id="edge4" class="edge"><title>Node1&#45;&gt;Node5</title>
<path fill="none" stroke="midnightblue" d="M99.6495,-59.2543C118.961,-50.5638 143.972,-40.1217 167,-33 178.604,-29.4112 191.146,-26.255 203.323,-23.5527"/>
<polygon fill="midnightblue" stroke="midnightblue" points="98.0292,-56.1465 90.387,-63.4846 100.937,-62.5139 98.0292,-56.1465"/>
</g>
</g>
</svg>
