<?xml version="1.0" encoding="UTF-8" standalone="no"?>
<!DOCTYPE svg PUBLIC "-//W3C//DTD SVG 1.1//EN"
 "http://www.w3.org/Graphics/SVG/1.1/DTD/svg11.dtd">
<!-- Generated by graphviz version 2.38.0 (20140413.2041)
 -->
<!-- Title: Graphical Class Hierarchy Pages: 1 -->
<svg width="637pt" height="1440pt"
 viewBox="0.00 0.00 637.00 1440.00" xmlns="http://www.w3.org/2000/svg" xmlns:xlink="http://www.w3.org/1999/xlink">
<g id="graph0" class="graph" transform="scale(1 1) rotate(0) translate(4 1436)">
<title>Graphical Class Hierarchy</title>
<polygon fill="white" stroke="none" points="-4,4 -4,-1436 633,-1436 633,4 -4,4"/>
<!-- Node1 -->
<g id="node1" class="node"><title>Node1</title>
<g id="a_node1"><a xlink:href="classEquationData_1_1Diffusion__A__Data.html" target="_top" xlink:title="Class containing data to construct a positive tensor. ">
<polygon fill="white" stroke="black" points="166.5,-1359 166.5,-1397 324.5,-1397 324.5,-1359 166.5,-1359"/>
<text text-anchor="start" x="174.5" y="-1381.8" font-family="Helvetica,sans-Serif" font-size="14.00">EquationData::Diffusion</text>
<text text-anchor="middle" x="245.5" y="-1366.8" font-family="Helvetica,sans-Serif" font-size="14.00">_A_Data</text>
</a>
</g>
</g>
<!-- Node2 -->
<g id="node2" class="node"><title>Node2</title>
<g id="a_node2"><a xlink:href="classEquationData_1_1Diffusion__A.html" target="_top" xlink:title="Class containing a positive tensor. ">
<polygon fill="white" stroke="black" points="417,-1408.5 417,-1431.5 592,-1431.5 592,-1408.5 417,-1408.5"/>
<text text-anchor="middle" x="504.5" y="-1416.3" font-family="Helvetica,sans-Serif" font-size="14.00">EquationData::Diffusion_A</text>
</a>
</g>
</g>
<!-- Node1&#45;&gt;Node2 -->
<g id="edge1" class="edge"><title>Node1&#45;&gt;Node2</title>
<path fill="none" stroke="midnightblue" d="M334.888,-1392.44C366.839,-1397.67 402.467,-1403.49 432.711,-1408.43"/>
<polygon fill="midnightblue" stroke="midnightblue" points="335.089,-1388.93 324.655,-1390.77 333.96,-1395.84 335.089,-1388.93"/>
</g>
<!-- Node3 -->
<g id="node3" class="node"><title>Node3</title>
<g id="a_node3"><a xlink:href="classEquationData_1_1DiffusionInverse__A.html" target="_top" xlink:title="Class containing the inverse of a positive tensor. ">
<polygon fill="white" stroke="black" points="395,-1366.5 395,-1389.5 614,-1389.5 614,-1366.5 395,-1366.5"/>
<text text-anchor="middle" x="504.5" y="-1374.3" font-family="Helvetica,sans-Serif" font-size="14.00">EquationData::DiffusionInverse_A</text>
</a>
</g>
</g>
<!-- Node1&#45;&gt;Node3 -->
<g id="edge2" class="edge"><title>Node1&#45;&gt;Node3</title>
<path fill="none" stroke="midnightblue" d="M334.666,-1378C354.067,-1378 374.833,-1378 394.932,-1378"/>
<polygon fill="midnightblue" stroke="midnightblue" points="334.655,-1374.5 324.655,-1378 334.655,-1381.5 334.655,-1374.5"/>
</g>
<!-- Node4 -->
<g id="node4" class="node"><title>Node4</title>
<g id="a_node4"><a xlink:href="classEquationData_1_1RightHandSideExactLin.html" target="_top" xlink:title="Right hand side used if user chooses to compare an analytic solutions. ">
<polygon fill="white" stroke="black" points="406,-1095 406,-1133 603,-1133 603,-1095 406,-1095"/>
<text text-anchor="start" x="414" y="-1117.8" font-family="Helvetica,sans-Serif" font-size="14.00">EquationData::RightHandSide</text>
<text text-anchor="middle" x="504.5" y="-1102.8" font-family="Helvetica,sans-Serif" font-size="14.00">ExactLin</text>
</a>
</g>
</g>
<!-- Node1&#45;&gt;Node4 -->
<g id="edge3" class="edge"><title>Node1&#45;&gt;Node4</title>
<path fill="none" stroke="midnightblue" d="M304.297,-1354.16C319.246,-1345.45 333.944,-1334.16 344,-1320 390.474,-1254.54 324.093,-1200.61 380,-1143 387.362,-1135.41 396.306,-1129.65 405.978,-1125.3"/>
<polygon fill="midnightblue" stroke="midnightblue" points="302.577,-1351.12 295.499,-1359 305.948,-1357.25 302.577,-1351.12"/>
</g>
<!-- Node5 -->
<g id="node5" class="node"><title>Node5</title>
<g id="a_node5"><a xlink:href="classEquationData_1_1Diffusion__B__Data.html" target="_top" xlink:title="Class containing data to construct a positive scalar. ">
<polygon fill="white" stroke="black" points="166.5,-996 166.5,-1034 324.5,-1034 324.5,-996 166.5,-996"/>
<text text-anchor="start" x="174.5" y="-1018.8" font-family="Helvetica,sans-Serif" font-size="14.00">EquationData::Diffusion</text>
<text text-anchor="middle" x="245.5" y="-1003.8" font-family="Helvetica,sans-Serif" font-size="14.00">_B_Data</text>
</a>
</g>
</g>
<!-- Node5&#45;&gt;Node4 -->
<g id="edge6" class="edge"><title>Node5&#45;&gt;Node4</title>
<path fill="none" stroke="midnightblue" d="M288.554,-1038.94C320.488,-1056.81 361.894,-1079.27 380,-1086 388.861,-1089.29 398.23,-1092.27 407.686,-1094.94"/>
<polygon fill="midnightblue" stroke="midnightblue" points="290.258,-1035.88 279.825,-1034.03 286.829,-1041.98 290.258,-1035.88"/>
</g>
<!-- Node6 -->
<g id="node6" class="node"><title>Node6</title>
<g id="a_node6"><a xlink:href="classEquationData_1_1Diffusion__B.html" target="_top" xlink:title="Class containing a positive scalar coefficient. ">
<polygon fill="white" stroke="black" points="417,-995.5 417,-1018.5 592,-1018.5 592,-995.5 417,-995.5"/>
<text text-anchor="middle" x="504.5" y="-1003.3" font-family="Helvetica,sans-Serif" font-size="14.00">EquationData::Diffusion_B</text>
</a>
</g>
</g>
<!-- Node5&#45;&gt;Node6 -->
<g id="edge4" class="edge"><title>Node5&#45;&gt;Node6</title>
<path fill="none" stroke="midnightblue" d="M334.689,-1012.25C361.222,-1011.43 390.307,-1010.52 416.747,-1009.7"/>
<polygon fill="midnightblue" stroke="midnightblue" points="334.541,-1008.76 324.655,-1012.57 334.759,-1015.75 334.541,-1008.76"/>
</g>
<!-- Node7 -->
<g id="node7" class="node"><title>Node7</title>
<g id="a_node7"><a xlink:href="classEquationData_1_1DiffusionInverse__B.html" target="_top" xlink:title="Class containing the inverse of a positive scalar coefficient. ">
<polygon fill="white" stroke="black" points="395,-953.5 395,-976.5 614,-976.5 614,-953.5 395,-953.5"/>
<text text-anchor="middle" x="504.5" y="-961.3" font-family="Helvetica,sans-Serif" font-size="14.00">EquationData::DiffusionInverse_B</text>
</a>
</g>
</g>
<!-- Node5&#45;&gt;Node7 -->
<g id="edge5" class="edge"><title>Node5&#45;&gt;Node7</title>
<path fill="none" stroke="midnightblue" d="M334.592,-995.271C349.715,-992.054 365.292,-988.846 380,-986 396.869,-982.735 415.087,-979.486 432.216,-976.553"/>
<polygon fill="midnightblue" stroke="midnightblue" points="333.779,-991.865 324.734,-997.382 335.246,-998.71 333.779,-991.865"/>
</g>
<!-- Node8 -->
<g id="node8" class="node"><title>Node8</title>
<g id="a_node8"><a xlink:href="classEquationData_1_1ExactSolutionLin__Data.html" target="_top" xlink:title="Data class to construct an analytic solution. ">
<polygon fill="white" stroke="black" points="151.5,-1149 151.5,-1187 339.5,-1187 339.5,-1149 151.5,-1149"/>
<text text-anchor="start" x="159.5" y="-1171.8" font-family="Helvetica,sans-Serif" font-size="14.00">EquationData::ExactSolution</text>
<text text-anchor="middle" x="245.5" y="-1156.8" font-family="Helvetica,sans-Serif" font-size="14.00">Lin_Data</text>
</a>
</g>
</g>
<!-- Node8&#45;&gt;Node4 -->
<g id="edge10" class="edge"><title>Node8&#45;&gt;Node4</title>
<path fill="none" stroke="midnightblue" d="M346.995,-1146.88C368.705,-1142.32 391.536,-1137.53 412.843,-1133.05"/>
<polygon fill="midnightblue" stroke="midnightblue" points="346.175,-1143.48 337.109,-1148.96 347.615,-1150.33 346.175,-1143.48"/>
</g>
<!-- Node9 -->
<g id="node9" class="node"><title>Node9</title>
<g id="a_node9"><a xlink:href="classEquationData_1_1ExactSolutionLin.html" target="_top" xlink:title="Class for analytic solution . ">
<polygon fill="white" stroke="black" points="401.5,-1209.5 401.5,-1232.5 607.5,-1232.5 607.5,-1209.5 401.5,-1209.5"/>
<text text-anchor="middle" x="504.5" y="-1217.3" font-family="Helvetica,sans-Serif" font-size="14.00">EquationData::ExactSolutionLin</text>
</a>
</g>
</g>
<!-- Node8&#45;&gt;Node9 -->
<g id="edge7" class="edge"><title>Node8&#45;&gt;Node9</title>
<path fill="none" stroke="midnightblue" d="M332.013,-1189.39C347.922,-1193.12 364.434,-1196.81 380,-1200 396.407,-1203.36 414.116,-1206.59 430.861,-1209.48"/>
<polygon fill="midnightblue" stroke="midnightblue" points="332.735,-1185.97 322.198,-1187.07 331.126,-1192.78 332.735,-1185.97"/>
</g>
<!-- Node10 -->
<g id="node10" class="node"><title>Node10</title>
<g id="a_node10"><a xlink:href="classEquationData_1_1ExactSolutionLin__A__curl.html" target="_top" xlink:title="Auxiliary variable &#160;for 2&#45;forms. ">
<polygon fill="white" stroke="black" points="410.5,-1152 410.5,-1190 598.5,-1190 598.5,-1152 410.5,-1152"/>
<text text-anchor="start" x="418.5" y="-1174.8" font-family="Helvetica,sans-Serif" font-size="14.00">EquationData::ExactSolution</text>
<text text-anchor="middle" x="504.5" y="-1159.8" font-family="Helvetica,sans-Serif" font-size="14.00">Lin_A_curl</text>
</a>
</g>
</g>
<!-- Node8&#45;&gt;Node10 -->
<g id="edge8" class="edge"><title>Node8&#45;&gt;Node10</title>
<path fill="none" stroke="midnightblue" d="M349.705,-1169.2C369.713,-1169.44 390.573,-1169.68 410.24,-1169.91"/>
<polygon fill="midnightblue" stroke="midnightblue" points="349.686,-1165.7 339.646,-1169.09 349.605,-1172.7 349.686,-1165.7"/>
</g>
<!-- Node11 -->
<g id="node11" class="node"><title>Node11</title>
<g id="a_node11"><a xlink:href="classEquationData_1_1ExactSolutionLin__B__div.html" target="_top" xlink:title="Auxiliary variable &#160;for 1&#45;forms. ">
<polygon fill="white" stroke="black" points="410.5,-896 410.5,-934 598.5,-934 598.5,-896 410.5,-896"/>
<text text-anchor="start" x="418.5" y="-918.8" font-family="Helvetica,sans-Serif" font-size="14.00">EquationData::ExactSolution</text>
<text text-anchor="middle" x="504.5" y="-903.8" font-family="Helvetica,sans-Serif" font-size="14.00">Lin_B_div</text>
</a>
</g>
</g>
<!-- Node8&#45;&gt;Node11 -->
<g id="edge9" class="edge"><title>Node8&#45;&gt;Node11</title>
<path fill="none" stroke="midnightblue" d="M305.441,-1143.95C319.952,-1135.49 334.139,-1124.61 344,-1111 388.55,-1049.52 326.805,-998.178 380,-944 388.487,-935.357 399.027,-929.088 410.347,-924.574"/>
<polygon fill="midnightblue" stroke="midnightblue" points="303.485,-1141.04 296.399,-1148.91 306.85,-1147.17 303.485,-1141.04"/>
</g>
<!-- Node12 -->
<g id="node12" class="node"><title>Node12</title>
<polygon fill="white" stroke="#bfbfbf" points="211.5,-447.5 211.5,-470.5 279.5,-470.5 279.5,-447.5 211.5,-447.5"/>
<text text-anchor="middle" x="245.5" y="-455.3" font-family="Helvetica,sans-Serif" font-size="14.00">Function</text>
</g>
<!-- Node12&#45;&gt;Node11 -->
<g id="edge14" class="edge"><title>Node12&#45;&gt;Node11</title>
<path fill="none" stroke="midnightblue" d="M246.222,-481.042C246.601,-551.651 257.859,-774.192 380,-887 388.721,-895.055 399.258,-900.958 410.457,-905.257"/>
<polygon fill="midnightblue" stroke="midnightblue" points="249.723,-480.714 246.243,-470.707 242.723,-480.7 249.723,-480.714"/>
</g>
<!-- Node13 -->
<g id="node13" class="node"><title>Node13</title>
<g id="a_node13"><a xlink:href="classShapeFun_1_1BasisQ1.html" target="_top" xlink:title="ShapeFun::BasisQ1\&lt; 3 \&gt;">
<polygon fill="white" stroke="black" points="419.5,-0.5 419.5,-23.5 589.5,-23.5 589.5,-0.5 419.5,-0.5"/>
<text text-anchor="middle" x="504.5" y="-8.3" font-family="Helvetica,sans-Serif" font-size="14.00">ShapeFun::BasisQ1&lt; 3 &gt;</text>
</a>
</g>
</g>
<!-- Node12&#45;&gt;Node13 -->
<g id="edge11" class="edge"><title>Node12&#45;&gt;Node13</title>
<path fill="none" stroke="midnightblue" d="M246.011,-436.782C245.75,-365.659 255.29,-141.888 380,-33 391.058,-23.3446 404.871,-17.321 419.217,-13.6851"/>
<polygon fill="midnightblue" stroke="midnightblue" points="242.515,-437.235 246.127,-447.195 249.515,-437.157 242.515,-437.235"/>
</g>
<!-- Node14 -->
<g id="node14" class="node"><title>Node14</title>
<g id="a_node14"><a xlink:href="classEquationData_1_1Boundary__B__div__u.html" target="_top" xlink:title="Boundary values for &#160;which are essential for 1&#45;forms and natural for 2&#45;forms. ">
<polygon fill="white" stroke="black" points="422.5,-839 422.5,-877 586.5,-877 586.5,-839 422.5,-839"/>
<text text-anchor="start" x="430.5" y="-861.8" font-family="Helvetica,sans-Serif" font-size="14.00">EquationData::Boundary</text>
<text text-anchor="middle" x="504.5" y="-846.8" font-family="Helvetica,sans-Serif" font-size="14.00">_B_div_u</text>
</a>
</g>
</g>
<!-- Node12&#45;&gt;Node14 -->
<g id="edge12" class="edge"><title>Node12&#45;&gt;Node14</title>
<path fill="none" stroke="midnightblue" d="M247.487,-480.969C251.605,-545.086 272.717,-733.457 380,-829 391.924,-839.619 407,-846.55 422.485,-851.029"/>
<polygon fill="midnightblue" stroke="midnightblue" points="250.972,-480.598 246.914,-470.811 243.983,-480.992 250.972,-480.598"/>
</g>
<!-- Node15 -->
<g id="node15" class="node"><title>Node15</title>
<g id="a_node15"><a xlink:href="classEquationData_1_1BoundaryValues__u.html" target="_top" xlink:title="Scalar boundary values for &#160;which are essential for 0&#45;forms and natural for 3&#45;forms. ">
<polygon fill="white" stroke="black" points="394.5,-796.5 394.5,-819.5 614.5,-819.5 614.5,-796.5 394.5,-796.5"/>
<text text-anchor="middle" x="504.5" y="-804.3" font-family="Helvetica,sans-Serif" font-size="14.00">EquationData::BoundaryValues_u</text>
</a>
</g>
</g>
<!-- Node12&#45;&gt;Node15 -->
<g id="edge13" class="edge"><title>Node12&#45;&gt;Node15</title>
<path fill="none" stroke="midnightblue" d="M248.294,-480.751C254.449,-540.309 280.229,-706.92 380,-787 384.579,-790.676 389.567,-793.81 394.825,-796.475"/>
<polygon fill="midnightblue" stroke="midnightblue" points="251.762,-480.246 247.334,-470.621 244.793,-480.907 251.762,-480.246"/>
</g>
<!-- Node16 -->
<g id="node16" class="node"><title>Node16</title>
<g id="a_node16"><a xlink:href="classEquationData_1_1ReactionRate.html" target="_top" xlink:title="Class for zero order terms. Handle with care! Not used by default. ">
<polygon fill="white" stroke="black" points="410.5,-754.5 410.5,-777.5 598.5,-777.5 598.5,-754.5 410.5,-754.5"/>
<text text-anchor="middle" x="504.5" y="-762.3" font-family="Helvetica,sans-Serif" font-size="14.00">EquationData::ReactionRate</text>
</a>
</g>
</g>
<!-- Node12&#45;&gt;Node16 -->
<g id="edge15" class="edge"><title>Node12&#45;&gt;Node16</title>
<path fill="none" stroke="midnightblue" d="M249.662,-480.514C258.832,-534.632 290.71,-676.945 380,-745 388.995,-751.856 399.431,-756.792 410.352,-760.307"/>
<polygon fill="midnightblue" stroke="midnightblue" points="253.118,-479.957 248.079,-470.637 246.206,-481.065 253.118,-479.957"/>
</g>
<!-- Node17 -->
<g id="node17" class="node"><title>Node17</title>
<g id="a_node17"><a xlink:href="classShapeFun_1_1BasisNedelec.html" target="_top" xlink:title="Nedelec basis on a given cell. ">
<polygon fill="white" stroke="black" points="420,-697 420,-735 589,-735 589,-697 420,-697"/>
<text text-anchor="start" x="428" y="-719.8" font-family="Helvetica,sans-Serif" font-size="14.00">ShapeFun::BasisNedelec</text>
<text text-anchor="middle" x="504.5" y="-704.8" font-family="Helvetica,sans-Serif" font-size="14.00">&lt; dim &gt;</text>
</a>
</g>
</g>
<!-- Node12&#45;&gt;Node17 -->
<g id="edge16" class="edge"><title>Node12&#45;&gt;Node17</title>
<path fill="none" stroke="midnightblue" d="M252.614,-480.556C266.803,-526.46 306.49,-634.067 380,-688 391.699,-696.583 405.575,-702.602 419.727,-706.808"/>
<polygon fill="midnightblue" stroke="midnightblue" points="255.905,-479.345 249.689,-470.765 249.198,-481.348 255.905,-479.345"/>
</g>
<!-- Node18 -->
<g id="node18" class="node"><title>Node18</title>
<g id="a_node18"><a xlink:href="classShapeFun_1_1BasisNedelecCurl.html" target="_top" xlink:title="Curl of Nedelec basis on a given cell. ">
<polygon fill="white" stroke="black" points="407.5,-640 407.5,-678 601.5,-678 601.5,-640 407.5,-640"/>
<text text-anchor="start" x="415.5" y="-662.8" font-family="Helvetica,sans-Serif" font-size="14.00">ShapeFun::BasisNedelecCurl</text>
<text text-anchor="middle" x="504.5" y="-647.8" font-family="Helvetica,sans-Serif" font-size="14.00">&lt; dim &gt;</text>
</a>
</g>
</g>
<!-- Node12&#45;&gt;Node18 -->
<g id="edge17" class="edge"><title>Node12&#45;&gt;Node18</title>
<path fill="none" stroke="midnightblue" d="M256.699,-480.171C275.59,-517 319.664,-592.594 380,-631 388.439,-636.372 397.779,-640.718 407.434,-644.235"/>
<polygon fill="midnightblue" stroke="midnightblue" points="259.651,-478.25 252.046,-470.874 253.391,-481.383 259.651,-478.25"/>
</g>
<!-- Node19 -->
<g id="node19" class="node"><title>Node19</title>
<g id="a_node19"><a xlink:href="classShapeFun_1_1BasisQ1.html" target="_top" xlink:title=" basis on given cell ">
<polygon fill="white" stroke="black" points="431.5,-583 431.5,-621 577.5,-621 577.5,-583 431.5,-583"/>
<text text-anchor="start" x="439.5" y="-605.8" font-family="Helvetica,sans-Serif" font-size="14.00">ShapeFun::BasisQ1&lt;</text>
<text text-anchor="middle" x="504.5" y="-590.8" font-family="Helvetica,sans-Serif" font-size="14.00"> dim &gt;</text>
</a>
</g>
</g>
<!-- Node12&#45;&gt;Node19 -->
<g id="edge18" class="edge"><title>Node12&#45;&gt;Node19</title>
<path fill="none" stroke="midnightblue" d="M263.037,-478.192C286.414,-504.052 331.691,-549.642 380,-574 395.803,-581.968 413.879,-587.694 431.236,-591.799"/>
<polygon fill="midnightblue" stroke="midnightblue" points="265.498,-475.693 256.24,-470.542 260.265,-480.342 265.498,-475.693"/>
</g>
<!-- Node20 -->
<g id="node20" class="node"><title>Node20</title>
<g id="a_node20"><a xlink:href="classShapeFun_1_1BasisQ1Grad.html" target="_top" xlink:title="Gradient of &#160;basis on given cell. ">
<polygon fill="white" stroke="black" points="420,-526 420,-564 589,-564 589,-526 420,-526"/>
<text text-anchor="start" x="428" y="-548.8" font-family="Helvetica,sans-Serif" font-size="14.00">ShapeFun::BasisQ1Grad</text>
<text text-anchor="middle" x="504.5" y="-533.8" font-family="Helvetica,sans-Serif" font-size="14.00">&lt; dim &gt;</text>
</a>
</g>
</g>
<!-- Node12&#45;&gt;Node20 -->
<g id="edge19" class="edge"><title>Node12&#45;&gt;Node20</title>
<path fill="none" stroke="midnightblue" d="M278.839,-475.086C305.474,-487.833 344.494,-505.375 380,-517 392.745,-521.173 406.429,-524.947 419.879,-528.275"/>
<polygon fill="midnightblue" stroke="midnightblue" points="280.143,-471.828 269.617,-470.626 277.096,-478.13 280.143,-471.828"/>
</g>
<!-- Node21 -->
<g id="node21" class="node"><title>Node21</title>
<g id="a_node21"><a xlink:href="classShapeFun_1_1BasisRaviartThomas.html" target="_top" xlink:title="Raviart&#45;Thomas basis on given cell. ">
<polygon fill="white" stroke="black" points="398.5,-469 398.5,-507 610.5,-507 610.5,-469 398.5,-469"/>
<text text-anchor="start" x="406.5" y="-491.8" font-family="Helvetica,sans-Serif" font-size="14.00">ShapeFun::BasisRaviartThomas</text>
<text text-anchor="middle" x="504.5" y="-476.8" font-family="Helvetica,sans-Serif" font-size="14.00">&lt; dim &gt;</text>
</a>
</g>
</g>
<!-- Node12&#45;&gt;Node21 -->
<g id="edge20" class="edge"><title>Node12&#45;&gt;Node21</title>
<path fill="none" stroke="midnightblue" d="M289.606,-463.864C319.353,-467.221 360.254,-471.836 398.328,-476.132"/>
<polygon fill="midnightblue" stroke="midnightblue" points="289.902,-460.375 279.572,-462.732 289.117,-467.331 289.902,-460.375"/>
</g>
<!-- Node22 -->
<g id="node22" class="node"><title>Node22</title>
<g id="a_node22"><a xlink:href="classShapeFun_1_1ShapeFunctionConcatinateVector.html" target="_top" xlink:title="Concatination of Function&lt;dim&gt; objects. ">
<polygon fill="white" stroke="black" points="380,-412 380,-450 629,-450 629,-412 380,-412"/>
<text text-anchor="start" x="388" y="-434.8" font-family="Helvetica,sans-Serif" font-size="14.00">ShapeFun::ShapeFunctionConcatinate</text>
<text text-anchor="middle" x="504.5" y="-419.8" font-family="Helvetica,sans-Serif" font-size="14.00">Vector&lt; dim &gt;</text>
</a>
</g>
</g>
<!-- Node12&#45;&gt;Node22 -->
<g id="edge21" class="edge"><title>Node12&#45;&gt;Node22</title>
<path fill="none" stroke="midnightblue" d="M289.757,-454.287C314.692,-451.571 347.427,-448.004 379.761,-444.481"/>
<polygon fill="midnightblue" stroke="midnightblue" points="289.134,-450.834 279.572,-455.397 289.892,-457.793 289.134,-450.834"/>
</g>
<!-- Node23 -->
<g id="node23" class="node"><title>Node23</title>
<g id="a_node23"><a xlink:href="classShapeFun_1_1ShapeFunctionScalar.html" target="_top" xlink:title="Class for evaluations of scalar valued shape functions. ">
<polygon fill="white" stroke="black" points="397,-355 397,-393 612,-393 612,-355 397,-355"/>
<text text-anchor="start" x="405" y="-377.8" font-family="Helvetica,sans-Serif" font-size="14.00">ShapeFun::ShapeFunctionScalar</text>
<text text-anchor="middle" x="504.5" y="-362.8" font-family="Helvetica,sans-Serif" font-size="14.00">&lt; dim &gt;</text>
</a>
</g>
</g>
<!-- Node12&#45;&gt;Node23 -->
<g id="edge22" class="edge"><title>Node12&#45;&gt;Node23</title>
<path fill="none" stroke="midnightblue" d="M279.897,-443.159C306.551,-430.966 345.083,-414.336 380,-403 390.998,-399.43 402.679,-396.104 414.3,-393.073"/>
<polygon fill="midnightblue" stroke="midnightblue" points="278.254,-440.062 270.642,-447.432 281.188,-446.418 278.254,-440.062"/>
</g>
<!-- Node24 -->
<g id="node24" class="node"><title>Node24</title>
<g id="a_node24"><a xlink:href="classShapeFun_1_1ShapeFunctionScalarGrad.html" target="_top" xlink:title="Class for evaluations of vector valued shape functions. ">
<polygon fill="white" stroke="black" points="397,-298 397,-336 612,-336 612,-298 397,-298"/>
<text text-anchor="start" x="405" y="-320.8" font-family="Helvetica,sans-Serif" font-size="14.00">ShapeFun::ShapeFunctionScalar</text>
<text text-anchor="middle" x="504.5" y="-305.8" font-family="Helvetica,sans-Serif" font-size="14.00">Grad&lt; dim &gt;</text>
</a>
</g>
</g>
<!-- Node12&#45;&gt;Node24 -->
<g id="edge23" class="edge"><title>Node12&#45;&gt;Node24</title>
<path fill="none" stroke="midnightblue" d="M263.497,-439.815C287.09,-414.412 332.28,-370.032 380,-346 387.475,-342.236 395.452,-338.95 403.617,-336.083"/>
<polygon fill="midnightblue" stroke="midnightblue" points="260.778,-437.602 256.619,-447.346 265.947,-442.322 260.778,-437.602"/>
</g>
<!-- Node25 -->
<g id="node25" class="node"><title>Node25</title>
<g id="a_node25"><a xlink:href="classShapeFun_1_1ShapeFunctionVector.html" target="_top" xlink:title="Class for evaluations of vector valued shape functions. ">
<polygon fill="white" stroke="black" points="396.5,-241 396.5,-279 612.5,-279 612.5,-241 396.5,-241"/>
<text text-anchor="start" x="404.5" y="-263.8" font-family="Helvetica,sans-Serif" font-size="14.00">ShapeFun::ShapeFunctionVector</text>
<text text-anchor="middle" x="504.5" y="-248.8" font-family="Helvetica,sans-Serif" font-size="14.00">&lt; dim &gt;</text>
</a>
</g>
</g>
<!-- Node12&#45;&gt;Node25 -->
<g id="edge24" class="edge"><title>Node12&#45;&gt;Node25</title>
<path fill="none" stroke="midnightblue" d="M256.732,-437.952C275.675,-401.336 319.829,-326.182 380,-288 385.291,-284.643 390.934,-281.686 396.785,-279.082"/>
<polygon fill="midnightblue" stroke="midnightblue" points="253.448,-436.691 252.065,-447.195 259.697,-439.846 253.448,-436.691"/>
</g>
<!-- Node26 -->
<g id="node26" class="node"><title>Node26</title>
<g id="a_node26"><a xlink:href="classShapeFun_1_1ShapeFunctionVectorCurl.html" target="_top" xlink:title="Class for evaluations of vector valued shape functions. ">
<polygon fill="white" stroke="black" points="396.5,-184 396.5,-222 612.5,-222 612.5,-184 396.5,-184"/>
<text text-anchor="start" x="404.5" y="-206.8" font-family="Helvetica,sans-Serif" font-size="14.00">ShapeFun::ShapeFunctionVector</text>
<text text-anchor="middle" x="504.5" y="-191.8" font-family="Helvetica,sans-Serif" font-size="14.00">Curl&lt; dim &gt;</text>
</a>
</g>
</g>
<!-- Node12&#45;&gt;Node26 -->
<g id="edge25" class="edge"><title>Node12&#45;&gt;Node26</title>
<path fill="none" stroke="midnightblue" d="M252.643,-437.537C266.888,-391.83 306.678,-284.687 380,-231 385.055,-227.298 390.516,-224.074 396.229,-221.266"/>
<polygon fill="midnightblue" stroke="midnightblue" points="249.24,-436.701 249.706,-447.286 255.942,-438.721 249.24,-436.701"/>
</g>
<!-- Node27 -->
<g id="node27" class="node"><title>Node27</title>
<g id="a_node27"><a xlink:href="classShapeFun_1_1ShapeFunctionVectorDiv.html" target="_top" xlink:title="Class for evaluations of divergence of vector valued shape functions. ">
<polygon fill="white" stroke="black" points="396.5,-127 396.5,-165 612.5,-165 612.5,-127 396.5,-127"/>
<text text-anchor="start" x="404.5" y="-149.8" font-family="Helvetica,sans-Serif" font-size="14.00">ShapeFun::ShapeFunctionVector</text>
<text text-anchor="middle" x="504.5" y="-134.8" font-family="Helvetica,sans-Serif" font-size="14.00">Div&lt; dim &gt;</text>
</a>
</g>
</g>
<!-- Node12&#45;&gt;Node27 -->
<g id="edge26" class="edge"><title>Node12&#45;&gt;Node27</title>
<path fill="none" stroke="midnightblue" d="M250.042,-437.144C259.958,-383.361 293.183,-243.896 380,-174 385.052,-169.933 390.579,-166.431 396.406,-163.419"/>
<polygon fill="midnightblue" stroke="midnightblue" points="246.547,-436.811 248.268,-447.265 253.442,-438.019 246.547,-436.811"/>
</g>
<!-- Node28 -->
<g id="node28" class="node"><title>Node28</title>
<g id="a_node28"><a xlink:href="classShapeFun_1_1TestFunction.html" target="_top" xlink:title="ShapeFun::TestFunction">
<polygon fill="white" stroke="black" points="422.5,-84.5 422.5,-107.5 586.5,-107.5 586.5,-84.5 422.5,-84.5"/>
<text text-anchor="middle" x="504.5" y="-92.3" font-family="Helvetica,sans-Serif" font-size="14.00">ShapeFun::TestFunction</text>
</a>
</g>
</g>
<!-- Node12&#45;&gt;Node28 -->
<g id="edge27" class="edge"><title>Node12&#45;&gt;Node28</title>
<path fill="none" stroke="midnightblue" d="M247.904,-437.15C253.096,-375.828 276.718,-201.126 380,-117 392.057,-107.179 407.013,-101.206 422.308,-97.6978"/>
<polygon fill="midnightblue" stroke="midnightblue" points="244.405,-436.996 247.133,-447.233 251.385,-437.529 244.405,-436.996"/>
</g>
<!-- Node29 -->
<g id="node29" class="node"><title>Node29</title>
<g id="a_node29"><a xlink:href="classShapeFun_1_1TestFunctionCurl.html" target="_top" xlink:title="ShapeFun::TestFunctionCurl">
<polygon fill="white" stroke="black" points="410,-42.5 410,-65.5 599,-65.5 599,-42.5 410,-42.5"/>
<text text-anchor="middle" x="504.5" y="-50.3" font-family="Helvetica,sans-Serif" font-size="14.00">ShapeFun::TestFunctionCurl</text>
</a>
</g>
</g>
<!-- Node12&#45;&gt;Node29 -->
<g id="edge28" class="edge"><title>Node12&#45;&gt;Node29</title>
<path fill="none" stroke="midnightblue" d="M246.861,-437.201C249.223,-371.099 265.915,-171.546 380,-75 388.716,-67.624 399.051,-62.3902 409.975,-58.73"/>
<polygon fill="midnightblue" stroke="midnightblue" points="243.36,-437.193 246.579,-447.287 250.357,-437.389 243.36,-437.193"/>
</g>
<!-- Node30 -->
<g id="node30" class="node"><title>Node30</title>
<g id="a_node30"><a xlink:href="classFunctionParser.html" target="_top" xlink:title="FunctionParser">
<polygon fill="white" stroke="black" points="191.5,-953.5 191.5,-976.5 299.5,-976.5 299.5,-953.5 191.5,-953.5"/>
<text text-anchor="middle" x="245.5" y="-961.3" font-family="Helvetica,sans-Serif" font-size="14.00">FunctionParser</text>
</a>
</g>
</g>
<!-- Node30&#45;&gt;Node6 -->
<g id="edge29" class="edge"><title>Node30&#45;&gt;Node6</title>
<path fill="none" stroke="midnightblue" d="M309.975,-975.373C347.209,-981.458 394.334,-989.16 432.758,-995.439"/>
<polygon fill="midnightblue" stroke="midnightblue" points="310.184,-971.861 299.751,-973.702 309.055,-978.77 310.184,-971.861"/>
</g>
<!-- Node30&#45;&gt;Node7 -->
<g id="edge30" class="edge"><title>Node30&#45;&gt;Node7</title>
<path fill="none" stroke="midnightblue" d="M310.063,-965C335.696,-965 366.005,-965 394.932,-965"/>
<polygon fill="midnightblue" stroke="midnightblue" points="309.751,-961.5 299.751,-965 309.751,-968.5 309.751,-961.5"/>
</g>
<!-- Node31 -->
<g id="node31" class="node"><title>Node31</title>
<polygon fill="white" stroke="#bfbfbf" points="0,-1078.5 0,-1101.5 111,-1101.5 111,-1078.5 0,-1078.5"/>
<text text-anchor="middle" x="55.5" y="-1086.3" font-family="Helvetica,sans-Serif" font-size="14.00">ParsedFunction</text>
</g>
<!-- Node32 -->
<g id="node32" class="node"><title>Node32</title>
<g id="a_node32"><a xlink:href="classEquationData_1_1RightHandSide.html" target="_top" xlink:title="Base class for right&#45;hand side. ">
<polygon fill="white" stroke="black" points="147,-1078.5 147,-1101.5 344,-1101.5 344,-1078.5 147,-1078.5"/>
<text text-anchor="middle" x="245.5" y="-1086.3" font-family="Helvetica,sans-Serif" font-size="14.00">EquationData::RightHandSide</text>
</a>
</g>
</g>
<!-- Node31&#45;&gt;Node32 -->
<g id="edge31" class="edge"><title>Node31&#45;&gt;Node32</title>
<path fill="none" stroke="midnightblue" d="M121.394,-1090C129.654,-1090 138.248,-1090 146.882,-1090"/>
<polygon fill="midnightblue" stroke="midnightblue" points="121.13,-1086.5 111.13,-1090 121.13,-1093.5 121.13,-1086.5"/>
</g>
<!-- Node32&#45;&gt;Node4 -->
<g id="edge32" class="edge"><title>Node32&#45;&gt;Node4</title>
<path fill="none" stroke="midnightblue" d="M354.029,-1100.04C371.133,-1101.64 388.747,-1103.28 405.613,-1104.86"/>
<polygon fill="midnightblue" stroke="midnightblue" points="354.309,-1096.55 344.027,-1099.11 353.658,-1103.52 354.309,-1096.55"/>
</g>
<!-- Node33 -->
<g id="node33" class="node"><title>Node33</title>
<g id="a_node33"><a xlink:href="classEquationData_1_1RightHandSideParsed.html" target="_top" xlink:title="Right&#45;hand side for user provide function expression. ">
<polygon fill="white" stroke="black" points="406,-1038 406,-1076 603,-1076 603,-1038 406,-1038"/>
<text text-anchor="start" x="414" y="-1060.8" font-family="Helvetica,sans-Serif" font-size="14.00">EquationData::RightHandSide</text>
<text text-anchor="middle" x="504.5" y="-1045.8" font-family="Helvetica,sans-Serif" font-size="14.00">Parsed</text>
</a>
</g>
</g>
<!-- Node32&#45;&gt;Node33 -->
<g id="edge33" class="edge"><title>Node32&#45;&gt;Node33</title>
<path fill="none" stroke="midnightblue" d="M346.481,-1077.16C365.967,-1074.66 386.373,-1072.04 405.784,-1069.55"/>
<polygon fill="midnightblue" stroke="midnightblue" points="345.859,-1073.71 336.386,-1078.46 346.75,-1080.66 345.859,-1073.71"/>
</g>
<!-- Node34 -->
<g id="node34" class="node"><title>Node34</title>
<g id="a_node34"><a xlink:href="classTensorFunction.html" target="_top" xlink:title="TensorFunction">
<polygon fill="white" stroke="black" points="190.5,-1287.5 190.5,-1310.5 300.5,-1310.5 300.5,-1287.5 190.5,-1287.5"/>
<text text-anchor="middle" x="245.5" y="-1295.3" font-family="Helvetica,sans-Serif" font-size="14.00">TensorFunction</text>
</a>
</g>
</g>
<!-- Node34&#45;&gt;Node2 -->
<g id="edge36" class="edge"><title>Node34&#45;&gt;Node2</title>
<path fill="none" stroke="midnightblue" d="M286.017,-1314.67C304.827,-1323.32 326.891,-1335.31 344,-1350 364.502,-1367.61 357.001,-1384.81 380,-1399 391.106,-1405.85 403.79,-1410.65 416.702,-1413.97"/>
<polygon fill="midnightblue" stroke="midnightblue" points="287.361,-1311.43 276.801,-1310.57 284.517,-1317.83 287.361,-1311.43"/>
</g>
<!-- Node34&#45;&gt;Node3 -->
<g id="edge37" class="edge"><title>Node34&#45;&gt;Node3</title>
<path fill="none" stroke="midnightblue" d="M277.723,-1315.14C304.277,-1328.23 343.759,-1346.22 380,-1357 392.508,-1360.72 405.936,-1363.85 419.167,-1366.46"/>
<polygon fill="midnightblue" stroke="midnightblue" points="279.065,-1311.89 268.555,-1310.56 275.937,-1318.16 279.065,-1311.89"/>
</g>
<!-- Node34&#45;&gt;Node9 -->
<g id="edge38" class="edge"><title>Node34&#45;&gt;Node9</title>
<path fill="none" stroke="midnightblue" d="M278.767,-1283.09C305.359,-1270.56 344.359,-1253.51 380,-1243 393.996,-1238.87 409.125,-1235.4 423.836,-1232.52"/>
<polygon fill="midnightblue" stroke="midnightblue" points="277.079,-1280.01 269.56,-1287.48 280.093,-1286.33 277.079,-1280.01"/>
</g>
<!-- Node34&#45;&gt;Node10 -->
<g id="edge39" class="edge"><title>Node34&#45;&gt;Node10</title>
<path fill="none" stroke="midnightblue" d="M266.205,-1280.26C290.866,-1257.83 335.318,-1220.73 380,-1200 389.59,-1195.55 399.925,-1191.75 410.39,-1188.51"/>
<polygon fill="midnightblue" stroke="midnightblue" points="263.6,-1277.9 258.628,-1287.25 268.349,-1283.04 263.6,-1277.9"/>
</g>
<!-- Node35 -->
<g id="node35" class="node"><title>Node35</title>
<g id="a_node35"><a xlink:href="classEquationData_1_1Boundary__A__curl__u.html" target="_top" xlink:title="Boundary values for &#160;which are essential for 2&#45;forms and natural for 1&#45;forms. ">
<polygon fill="white" stroke="black" points="422.5,-1309 422.5,-1347 586.5,-1347 586.5,-1309 422.5,-1309"/>
<text text-anchor="start" x="430.5" y="-1331.8" font-family="Helvetica,sans-Serif" font-size="14.00">EquationData::Boundary</text>
<text text-anchor="middle" x="504.5" y="-1316.8" font-family="Helvetica,sans-Serif" font-size="14.00">_A_curl_u</text>
</a>
</g>
</g>
<!-- Node34&#45;&gt;Node35 -->
<g id="edge34" class="edge"><title>Node34&#45;&gt;Node35</title>
<path fill="none" stroke="midnightblue" d="M310.872,-1306.26C344.549,-1310.06 386.129,-1314.76 422.028,-1318.81"/>
<polygon fill="midnightblue" stroke="midnightblue" points="311.018,-1302.76 300.689,-1305.11 310.234,-1309.71 311.018,-1302.76"/>
</g>
<!-- Node36 -->
<g id="node36" class="node"><title>Node36</title>
<g id="a_node36"><a xlink:href="classEquationData_1_1Boundary__A__grad__u.html" target="_top" xlink:title="Boundary values for &#160;which are essential for 3&#45;forms and natural for 0&#45;forms. ">
<polygon fill="white" stroke="black" points="422.5,-1252 422.5,-1290 586.5,-1290 586.5,-1252 422.5,-1252"/>
<text text-anchor="start" x="430.5" y="-1274.8" font-family="Helvetica,sans-Serif" font-size="14.00">EquationData::Boundary</text>
<text text-anchor="middle" x="504.5" y="-1259.8" font-family="Helvetica,sans-Serif" font-size="14.00">_A_grad_u</text>
</a>
</g>
</g>
<!-- Node34&#45;&gt;Node36 -->
<g id="edge35" class="edge"><title>Node34&#45;&gt;Node36</title>
<path fill="none" stroke="midnightblue" d="M310.872,-1291.99C344.549,-1288.32 386.129,-1283.79 422.028,-1279.88"/>
<polygon fill="midnightblue" stroke="midnightblue" points="310.251,-1288.53 300.689,-1293.1 311.009,-1295.49 310.251,-1288.53"/>
</g>
</g>
</svg>
