<?xml version="1.0" encoding="UTF-8" standalone="no"?>
<!DOCTYPE svg PUBLIC "-//W3C//DTD SVG 1.1//EN"
 "http://www.w3.org/Graphics/SVG/1.1/DTD/svg11.dtd">
<!-- Generated by graphviz version 2.38.0 (20140413.2041)
 -->
<!-- Title: /home/travis/build/konsim83/MPI&#45;MSFEC/include/linear_algebra/inverse_matrix.h Pages: 1 -->
<svg width="1834pt" height="497pt"
 viewBox="0.00 0.00 1834.05 497.00" xmlns="http://www.w3.org/2000/svg" xmlns:xlink="http://www.w3.org/1999/xlink">
<g id="graph0" class="graph" transform="scale(1 1) rotate(0) translate(4 493)">
<title>/home/travis/build/konsim83/MPI&#45;MSFEC/include/linear_algebra/inverse_matrix.h</title>
<polygon fill="white" stroke="none" points="-4,4 -4,-493 1830.05,-493 1830.05,4 -4,4"/>
<!-- Node1 -->
<g id="node1" class="node"><title>Node1</title>
<polygon fill="#bfbfbf" stroke="black" points="802.055,-420.5 802.055,-488.5 962.055,-488.5 962.055,-420.5 802.055,-420.5"/>
<text text-anchor="start" x="810.055" y="-473.3" font-family="Helvetica,sans-Serif" font-size="14.00">/home/travis/build</text>
<text text-anchor="start" x="810.055" y="-458.3" font-family="Helvetica,sans-Serif" font-size="14.00">/konsim83/MPI&#45;MSFEC</text>
<text text-anchor="start" x="810.055" y="-443.3" font-family="Helvetica,sans-Serif" font-size="14.00">/include/linear_algebra</text>
<text text-anchor="middle" x="882.055" y="-428.3" font-family="Helvetica,sans-Serif" font-size="14.00">/inverse_matrix.h</text>
</g>
<!-- Node2 -->
<g id="node2" class="node"><title>Node2</title>
<g id="a_node2"><a xlink:href="approximate__schur__complement_8h.html" target="_top" xlink:title="/home/travis/build\l/konsim83/MPI&#45;MSFEC\l/include/linear_algebra\l/approximate_schur_complement.h">
<polygon fill="white" stroke="black" points="767.055,-315.5 767.055,-383.5 997.055,-383.5 997.055,-315.5 767.055,-315.5"/>
<text text-anchor="start" x="775.055" y="-368.3" font-family="Helvetica,sans-Serif" font-size="14.00">/home/travis/build</text>
<text text-anchor="start" x="775.055" y="-353.3" font-family="Helvetica,sans-Serif" font-size="14.00">/konsim83/MPI&#45;MSFEC</text>
<text text-anchor="start" x="775.055" y="-338.3" font-family="Helvetica,sans-Serif" font-size="14.00">/include/linear_algebra</text>
<text text-anchor="middle" x="882.055" y="-323.3" font-family="Helvetica,sans-Serif" font-size="14.00">/approximate_schur_complement.h</text>
</a>
</g>
</g>
<!-- Node1&#45;&gt;Node2 -->
<g id="edge1" class="edge"><title>Node1&#45;&gt;Node2</title>
<path fill="none" stroke="midnightblue" d="M882.055,-410.136C882.055,-401.256 882.055,-392.045 882.055,-383.595"/>
<polygon fill="midnightblue" stroke="midnightblue" points="878.555,-410.343 882.055,-420.343 885.555,-410.343 878.555,-410.343"/>
</g>
<!-- Node3 -->
<g id="node3" class="node"><title>Node3</title>
<g id="a_node3"><a xlink:href="ned__rt__basis_8h.html" target="_top" xlink:title="/home/travis/build\l/konsim83/MPI&#45;MSFEC\l/include/Ned_RT/ned_rt\l_basis.h">
<polygon fill="white" stroke="black" points="437.055,-210.5 437.055,-278.5 597.055,-278.5 597.055,-210.5 437.055,-210.5"/>
<text text-anchor="start" x="445.055" y="-263.3" font-family="Helvetica,sans-Serif" font-size="14.00">/home/travis/build</text>
<text text-anchor="start" x="445.055" y="-248.3" font-family="Helvetica,sans-Serif" font-size="14.00">/konsim83/MPI&#45;MSFEC</text>
<text text-anchor="start" x="445.055" y="-233.3" font-family="Helvetica,sans-Serif" font-size="14.00">/include/Ned_RT/ned_rt</text>
<text text-anchor="middle" x="517.055" y="-218.3" font-family="Helvetica,sans-Serif" font-size="14.00">_basis.h</text>
</a>
</g>
</g>
<!-- Node1&#45;&gt;Node3 -->
<g id="edge39" class="edge"><title>Node1&#45;&gt;Node3</title>
<path fill="none" stroke="midnightblue" d="M792.105,-428.562C758.066,-417.316 719.688,-402.383 687.055,-384 635.146,-354.759 583.171,-309.509 550.61,-278.752"/>
<polygon fill="midnightblue" stroke="midnightblue" points="791.457,-432.031 802.049,-431.784 793.615,-425.372 791.457,-432.031"/>
</g>
<!-- Node5 -->
<g id="node5" class="node"><title>Node5</title>
<g id="a_node5"><a xlink:href="ned__rt__global_8h.html" target="_top" xlink:title="/home/travis/build\l/konsim83/MPI&#45;MSFEC\l/include/Ned_RT/ned_rt\l_global.h">
<polygon fill="white" stroke="black" points="378.055,-105.5 378.055,-173.5 538.055,-173.5 538.055,-105.5 378.055,-105.5"/>
<text text-anchor="start" x="386.055" y="-158.3" font-family="Helvetica,sans-Serif" font-size="14.00">/home/travis/build</text>
<text text-anchor="start" x="386.055" y="-143.3" font-family="Helvetica,sans-Serif" font-size="14.00">/konsim83/MPI&#45;MSFEC</text>
<text text-anchor="start" x="386.055" y="-128.3" font-family="Helvetica,sans-Serif" font-size="14.00">/include/Ned_RT/ned_rt</text>
<text text-anchor="middle" x="458.055" y="-113.3" font-family="Helvetica,sans-Serif" font-size="14.00">_global.h</text>
</a>
</g>
</g>
<!-- Node1&#45;&gt;Node5 -->
<g id="edge40" class="edge"><title>Node1&#45;&gt;Node5</title>
<path fill="none" stroke="midnightblue" d="M791.604,-450.787C680.432,-441.795 497.937,-407.143 428.055,-279 410.032,-245.953 424.268,-202.936 438.641,-173.671"/>
<polygon fill="midnightblue" stroke="midnightblue" points="791.567,-454.294 801.802,-451.556 792.094,-447.314 791.567,-454.294"/>
</g>
<!-- Node8 -->
<g id="node8" class="node"><title>Node8</title>
<g id="a_node8"><a xlink:href="ned__rt__ref_8h.html" target="_top" xlink:title="/home/travis/build\l/konsim83/MPI&#45;MSFEC\l/include/Ned_RT/ned_rt_ref.h">
<polygon fill="white" stroke="black" points="187.055,-218 187.055,-271 381.055,-271 381.055,-218 187.055,-218"/>
<text text-anchor="start" x="195.055" y="-255.8" font-family="Helvetica,sans-Serif" font-size="14.00">/home/travis/build</text>
<text text-anchor="start" x="195.055" y="-240.8" font-family="Helvetica,sans-Serif" font-size="14.00">/konsim83/MPI&#45;MSFEC</text>
<text text-anchor="middle" x="284.055" y="-225.8" font-family="Helvetica,sans-Serif" font-size="14.00">/include/Ned_RT/ned_rt_ref.h</text>
</a>
</g>
</g>
<!-- Node1&#45;&gt;Node8 -->
<g id="edge41" class="edge"><title>Node1&#45;&gt;Node8</title>
<path fill="none" stroke="midnightblue" d="M791.854,-448.533C670.15,-440.501 460.985,-421.615 395.055,-384 348.618,-357.506 314.14,-303.308 296.74,-271.126"/>
<polygon fill="midnightblue" stroke="midnightblue" points="791.7,-452.03 801.906,-449.184 792.153,-445.045 791.7,-452.03"/>
</g>
<!-- Node10 -->
<g id="node10" class="node"><title>Node10</title>
<g id="a_node10"><a xlink:href="q__ned__basis_8h.html" target="_top" xlink:title="/home/travis/build\l/konsim83/MPI&#45;MSFEC\l/include/Q_Ned/q_ned\l_basis.h">
<polygon fill="white" stroke="black" points="729.055,-210.5 729.055,-278.5 889.055,-278.5 889.055,-210.5 729.055,-210.5"/>
<text text-anchor="start" x="737.055" y="-263.3" font-family="Helvetica,sans-Serif" font-size="14.00">/home/travis/build</text>
<text text-anchor="start" x="737.055" y="-248.3" font-family="Helvetica,sans-Serif" font-size="14.00">/konsim83/MPI&#45;MSFEC</text>
<text text-anchor="start" x="737.055" y="-233.3" font-family="Helvetica,sans-Serif" font-size="14.00">/include/Q_Ned/q_ned</text>
<text text-anchor="middle" x="809.055" y="-218.3" font-family="Helvetica,sans-Serif" font-size="14.00">_basis.h</text>
</a>
</g>
</g>
<!-- Node1&#45;&gt;Node10 -->
<g id="edge42" class="edge"><title>Node1&#45;&gt;Node10</title>
<path fill="none" stroke="midnightblue" d="M793.063,-419.322C779.074,-409.996 766.475,-398.371 758.055,-384 742.553,-357.54 748.509,-344.143 758.055,-315 762.294,-302.057 769.964,-289.534 778.089,-278.768"/>
<polygon fill="midnightblue" stroke="midnightblue" points="791.588,-422.527 801.928,-424.837 795.285,-416.583 791.588,-422.527"/>
</g>
<!-- Node12 -->
<g id="node12" class="node"><title>Node12</title>
<g id="a_node12"><a xlink:href="q__ned__global_8h.html" target="_top" xlink:title="/home/travis/build\l/konsim83/MPI&#45;MSFEC\l/include/Q_Ned/q_ned\l_global.h">
<polygon fill="white" stroke="black" points="780.055,-105.5 780.055,-173.5 940.055,-173.5 940.055,-105.5 780.055,-105.5"/>
<text text-anchor="start" x="788.055" y="-158.3" font-family="Helvetica,sans-Serif" font-size="14.00">/home/travis/build</text>
<text text-anchor="start" x="788.055" y="-143.3" font-family="Helvetica,sans-Serif" font-size="14.00">/konsim83/MPI&#45;MSFEC</text>
<text text-anchor="start" x="788.055" y="-128.3" font-family="Helvetica,sans-Serif" font-size="14.00">/include/Q_Ned/q_ned</text>
<text text-anchor="middle" x="860.055" y="-113.3" font-family="Helvetica,sans-Serif" font-size="14.00">_global.h</text>
</a>
</g>
</g>
<!-- Node1&#45;&gt;Node12 -->
<g id="edge43" class="edge"><title>Node1&#45;&gt;Node12</title>
<path fill="none" stroke="midnightblue" d="M793.062,-422.537C774.994,-412.671 757.683,-400.02 745.055,-384 715.358,-346.326 725.648,-326.644 720.055,-279 716.479,-248.543 703.895,-236.064 720.055,-210 727.633,-197.777 752.939,-183.76 779.991,-171.531"/>
<polygon fill="midnightblue" stroke="midnightblue" points="791.488,-425.662 801.976,-427.158 794.71,-419.448 791.488,-425.662"/>
</g>
<!-- Node15 -->
<g id="node15" class="node"><title>Node15</title>
<g id="a_node15"><a xlink:href="q__ned__ref_8h.html" target="_top" xlink:title="/home/travis/build\l/konsim83/MPI&#45;MSFEC\l/include/Q_Ned/q_ned_ref.h">
<polygon fill="white" stroke="black" points="983.055,-218 983.055,-271 1169.05,-271 1169.05,-218 983.055,-218"/>
<text text-anchor="start" x="991.055" y="-255.8" font-family="Helvetica,sans-Serif" font-size="14.00">/home/travis/build</text>
<text text-anchor="start" x="991.055" y="-240.8" font-family="Helvetica,sans-Serif" font-size="14.00">/konsim83/MPI&#45;MSFEC</text>
<text text-anchor="middle" x="1076.05" y="-225.8" font-family="Helvetica,sans-Serif" font-size="14.00">/include/Q_Ned/q_ned_ref.h</text>
</a>
</g>
</g>
<!-- Node1&#45;&gt;Node15 -->
<g id="edge44" class="edge"><title>Node1&#45;&gt;Node15</title>
<path fill="none" stroke="midnightblue" d="M972.221,-445.014C1051.39,-435.476 1157.91,-416.849 1184.05,-384 1203.15,-360.007 1198.74,-341.92 1184.05,-315 1173.86,-296.308 1156.24,-281.89 1138.15,-271.159"/>
<polygon fill="midnightblue" stroke="midnightblue" points="971.745,-441.546 962.221,-446.188 972.561,-448.498 971.745,-441.546"/>
</g>
<!-- Node17 -->
<g id="node17" class="node"><title>Node17</title>
<g id="a_node17"><a xlink:href="rt__dq__basis_8h.html" target="_top" xlink:title="/home/travis/build\l/konsim83/MPI&#45;MSFEC\l/include/RT_DQ/rt_dq\l_basis.h">
<polygon fill="white" stroke="black" points="1225.05,-210.5 1225.05,-278.5 1385.05,-278.5 1385.05,-210.5 1225.05,-210.5"/>
<text text-anchor="start" x="1233.05" y="-263.3" font-family="Helvetica,sans-Serif" font-size="14.00">/home/travis/build</text>
<text text-anchor="start" x="1233.05" y="-248.3" font-family="Helvetica,sans-Serif" font-size="14.00">/konsim83/MPI&#45;MSFEC</text>
<text text-anchor="start" x="1233.05" y="-233.3" font-family="Helvetica,sans-Serif" font-size="14.00">/include/RT_DQ/rt_dq</text>
<text text-anchor="middle" x="1305.05" y="-218.3" font-family="Helvetica,sans-Serif" font-size="14.00">_basis.h</text>
</a>
</g>
</g>
<!-- Node1&#45;&gt;Node17 -->
<g id="edge45" class="edge"><title>Node1&#45;&gt;Node17</title>
<path fill="none" stroke="midnightblue" d="M972.56,-451.267C1041.29,-445.703 1135.51,-429.431 1205.05,-384 1244.66,-358.128 1273.73,-310.731 1290.02,-278.674"/>
<polygon fill="midnightblue" stroke="midnightblue" points="971.896,-447.807 962.184,-452.042 972.417,-454.788 971.896,-447.807"/>
</g>
<!-- Node19 -->
<g id="node19" class="node"><title>Node19</title>
<g id="a_node19"><a xlink:href="rt__dq__global_8h.html" target="_top" xlink:title="/home/travis/build\l/konsim83/MPI&#45;MSFEC\l/include/RT_DQ/rt_dq\l_global.h">
<polygon fill="white" stroke="black" points="1424.05,-105.5 1424.05,-173.5 1584.05,-173.5 1584.05,-105.5 1424.05,-105.5"/>
<text text-anchor="start" x="1432.05" y="-158.3" font-family="Helvetica,sans-Serif" font-size="14.00">/home/travis/build</text>
<text text-anchor="start" x="1432.05" y="-143.3" font-family="Helvetica,sans-Serif" font-size="14.00">/konsim83/MPI&#45;MSFEC</text>
<text text-anchor="start" x="1432.05" y="-128.3" font-family="Helvetica,sans-Serif" font-size="14.00">/include/RT_DQ/rt_dq</text>
<text text-anchor="middle" x="1504.05" y="-113.3" font-family="Helvetica,sans-Serif" font-size="14.00">_global.h</text>
</a>
</g>
</g>
<!-- Node1&#45;&gt;Node19 -->
<g id="edge46" class="edge"><title>Node1&#45;&gt;Node19</title>
<path fill="none" stroke="midnightblue" d="M972.335,-445.262C1048.51,-436.264 1159.47,-418.297 1251.05,-384 1337.43,-351.653 1366.15,-345.503 1430.05,-279 1438.11,-270.621 1468.26,-211.968 1487.5,-173.724"/>
<polygon fill="midnightblue" stroke="midnightblue" points="971.822,-441.798 962.289,-446.421 972.624,-448.752 971.822,-441.798"/>
</g>
<!-- Node22 -->
<g id="node22" class="node"><title>Node22</title>
<g id="a_node22"><a xlink:href="rt__dq__ref_8h.html" target="_top" xlink:title="/home/travis/build\l/konsim83/MPI&#45;MSFEC\l/include/RT_DQ/rt_dq_ref.h">
<polygon fill="white" stroke="black" points="1479.05,-218 1479.05,-271 1661.05,-271 1661.05,-218 1479.05,-218"/>
<text text-anchor="start" x="1487.05" y="-255.8" font-family="Helvetica,sans-Serif" font-size="14.00">/home/travis/build</text>
<text text-anchor="start" x="1487.05" y="-240.8" font-family="Helvetica,sans-Serif" font-size="14.00">/konsim83/MPI&#45;MSFEC</text>
<text text-anchor="middle" x="1570.05" y="-225.8" font-family="Helvetica,sans-Serif" font-size="14.00">/include/RT_DQ/rt_dq_ref.h</text>
</a>
</g>
</g>
<!-- Node1&#45;&gt;Node22 -->
<g id="edge47" class="edge"><title>Node1&#45;&gt;Node22</title>
<path fill="none" stroke="midnightblue" d="M972.137,-451.27C1114.34,-446.35 1383.11,-430.957 1465.05,-384 1510.48,-357.97 1542.56,-303.606 1558.52,-271.271"/>
<polygon fill="midnightblue" stroke="midnightblue" points="971.999,-447.773 962.122,-451.606 972.234,-454.769 971.999,-447.773"/>
</g>
<!-- Node24 -->
<g id="node24" class="node"><title>Node24</title>
<g id="a_node24"><a xlink:href="schur__complement_8h.html" target="_top" xlink:title="/home/travis/build\l/konsim83/MPI&#45;MSFEC\l/include/linear_algebra\l/schur_complement.h">
<polygon fill="white" stroke="black" points="1015.05,-315.5 1015.05,-383.5 1175.05,-383.5 1175.05,-315.5 1015.05,-315.5"/>
<text text-anchor="start" x="1023.05" y="-368.3" font-family="Helvetica,sans-Serif" font-size="14.00">/home/travis/build</text>
<text text-anchor="start" x="1023.05" y="-353.3" font-family="Helvetica,sans-Serif" font-size="14.00">/konsim83/MPI&#45;MSFEC</text>
<text text-anchor="start" x="1023.05" y="-338.3" font-family="Helvetica,sans-Serif" font-size="14.00">/include/linear_algebra</text>
<text text-anchor="middle" x="1095.05" y="-323.3" font-family="Helvetica,sans-Serif" font-size="14.00">/schur_complement.h</text>
</a>
</g>
</g>
<!-- Node1&#45;&gt;Node24 -->
<g id="edge29" class="edge"><title>Node1&#45;&gt;Node24</title>
<path fill="none" stroke="midnightblue" d="M959.339,-416.128C981.416,-405.452 1005.31,-393.899 1026.8,-383.505"/>
<polygon fill="midnightblue" stroke="midnightblue" points="957.807,-412.981 950.328,-420.485 960.855,-419.283 957.807,-412.981"/>
</g>
<!-- Node2&#45;&gt;Node3 -->
<g id="edge2" class="edge"><title>Node2&#45;&gt;Node3</title>
<path fill="none" stroke="midnightblue" d="M757.266,-319.031C711.073,-307.459 658.43,-293.484 611.055,-279 606.499,-277.607 601.837,-276.127 597.144,-274.594"/>
<polygon fill="midnightblue" stroke="midnightblue" points="756.471,-322.44 767.021,-321.463 758.165,-315.648 756.471,-322.44"/>
</g>
<!-- Node2&#45;&gt;Node5 -->
<g id="edge7" class="edge"><title>Node2&#45;&gt;Node5</title>
<path fill="none" stroke="midnightblue" d="M756.857,-328.794C719.504,-318.475 680.248,-302.797 649.055,-279 620.326,-257.083 633.071,-233.996 606.055,-210 594.647,-199.868 566.723,-185.99 538.164,-173.298"/>
<polygon fill="midnightblue" stroke="midnightblue" points="756.255,-332.255 766.818,-331.433 758.048,-325.488 756.255,-332.255"/>
</g>
<!-- Node2&#45;&gt;Node8 -->
<g id="edge8" class="edge"><title>Node2&#45;&gt;Node8</title>
<path fill="none" stroke="midnightblue" d="M756.756,-331.952C665.34,-319.24 538.618,-300.291 428.055,-279 412.932,-276.088 396.988,-272.701 381.438,-269.221"/>
<polygon fill="midnightblue" stroke="midnightblue" points="756.499,-335.45 766.885,-333.355 757.46,-328.516 756.499,-335.45"/>
</g>
<!-- Node2&#45;&gt;Node10 -->
<g id="edge11" class="edge"><title>Node2&#45;&gt;Node10</title>
<path fill="none" stroke="midnightblue" d="M852.753,-307.157C846.024,-297.662 838.955,-287.688 832.51,-278.595"/>
<polygon fill="midnightblue" stroke="midnightblue" points="849.917,-309.208 858.555,-315.343 855.628,-305.161 849.917,-309.208"/>
</g>
<!-- Node2&#45;&gt;Node12 -->
<g id="edge16" class="edge"><title>Node2&#45;&gt;Node12</title>
<path fill="none" stroke="midnightblue" d="M894.958,-305.551C901.322,-277.92 906.087,-241.434 898.055,-210 894.854,-197.476 888.881,-184.779 882.602,-173.724"/>
<polygon fill="midnightblue" stroke="midnightblue" points="891.549,-304.758 892.562,-315.304 898.347,-306.428 891.549,-304.758"/>
</g>
<!-- Node2&#45;&gt;Node15 -->
<g id="edge17" class="edge"><title>Node2&#45;&gt;Node15</title>
<path fill="none" stroke="midnightblue" d="M953.247,-310.702C978.035,-297.541 1005.25,-283.093 1027.74,-271.15"/>
<polygon fill="midnightblue" stroke="midnightblue" points="951.429,-307.704 944.238,-315.485 954.712,-313.887 951.429,-307.704"/>
</g>
<!-- Node2&#45;&gt;Node17 -->
<g id="edge20" class="edge"><title>Node2&#45;&gt;Node17</title>
<path fill="none" stroke="midnightblue" d="M1007.07,-314.864C1098.16,-295.406 1124.67,-301.804 1211.05,-279 1215.58,-277.806 1220.19,-276.491 1224.83,-275.095"/>
<polygon fill="midnightblue" stroke="midnightblue" points="1006.17,-311.477 997.146,-317.029 1007.66,-318.316 1006.17,-311.477"/>
</g>
<!-- Node2&#45;&gt;Node19 -->
<g id="edge25" class="edge"><title>Node2&#45;&gt;Node19</title>
<path fill="none" stroke="midnightblue" d="M1007.36,-314.892C1084.79,-299.03 1117.84,-323.54 1178.05,-279 1206.2,-258.181 1187.63,-230.432 1216.05,-210 1289.04,-157.544 1328.42,-197.929 1415.05,-174 1417.92,-173.209 1420.82,-172.363 1423.74,-171.475"/>
<polygon fill="midnightblue" stroke="midnightblue" points="1006.18,-311.569 997.176,-317.157 1007.7,-318.402 1006.18,-311.569"/>
</g>
<!-- Node2&#45;&gt;Node22 -->
<g id="edge26" class="edge"><title>Node2&#45;&gt;Node22</title>
<path fill="none" stroke="midnightblue" d="M1006.93,-314.955C1178.25,-284.99 1225.75,-302.77 1394.05,-279 1421.77,-275.085 1451.76,-269.783 1478.98,-264.552"/>
<polygon fill="midnightblue" stroke="midnightblue" points="1006.31,-311.51 997.081,-316.706 1007.54,-318.402 1006.31,-311.51"/>
</g>
<!-- Node4 -->
<g id="node4" class="node"><title>Node4</title>
<g id="a_node4"><a xlink:href="ned__rt__basis_8cc.html" target="_top" xlink:title="/home/travis/build\l/konsim83/MPI&#45;MSFEC\l/source/Ned_RT/ned_rt\l_basis.cc">
<polygon fill="white" stroke="black" points="200.055,-105.5 200.055,-173.5 360.055,-173.5 360.055,-105.5 200.055,-105.5"/>
<text text-anchor="start" x="208.055" y="-158.3" font-family="Helvetica,sans-Serif" font-size="14.00">/home/travis/build</text>
<text text-anchor="start" x="208.055" y="-143.3" font-family="Helvetica,sans-Serif" font-size="14.00">/konsim83/MPI&#45;MSFEC</text>
<text text-anchor="start" x="208.055" y="-128.3" font-family="Helvetica,sans-Serif" font-size="14.00">/source/Ned_RT/ned_rt</text>
<text text-anchor="middle" x="280.055" y="-113.3" font-family="Helvetica,sans-Serif" font-size="14.00">_basis.cc</text>
</a>
</g>
</g>
<!-- Node3&#45;&gt;Node4 -->
<g id="edge3" class="edge"><title>Node3&#45;&gt;Node4</title>
<path fill="none" stroke="midnightblue" d="M431.717,-206.412C406.971,-195.658 380.127,-183.991 355.997,-173.505"/>
<polygon fill="midnightblue" stroke="midnightblue" points="430.522,-209.709 441.089,-210.485 433.312,-203.289 430.522,-209.709"/>
</g>
<!-- Node3&#45;&gt;Node5 -->
<g id="edge4" class="edge"><title>Node3&#45;&gt;Node5</title>
<path fill="none" stroke="midnightblue" d="M493.043,-201.581C487.703,-192.259 482.115,-182.504 477.012,-173.595"/>
<polygon fill="midnightblue" stroke="midnightblue" points="490.055,-203.406 498.062,-210.343 496.129,-199.926 490.055,-203.406"/>
</g>
<!-- Node6 -->
<g id="node6" class="node"><title>Node6</title>
<g id="a_node6"><a xlink:href="main__ned__rt_8cxx.html" target="_top" xlink:title="/home/travis/build\l/konsim83/MPI&#45;MSFEC\l/source/main_ned_rt.cxx">
<polygon fill="white" stroke="black" points="54.0548,-8 54.0548,-61 218.055,-61 218.055,-8 54.0548,-8"/>
<text text-anchor="start" x="62.0548" y="-45.8" font-family="Helvetica,sans-Serif" font-size="14.00">/home/travis/build</text>
<text text-anchor="start" x="62.0548" y="-30.8" font-family="Helvetica,sans-Serif" font-size="14.00">/konsim83/MPI&#45;MSFEC</text>
<text text-anchor="middle" x="136.055" y="-15.8" font-family="Helvetica,sans-Serif" font-size="14.00">/source/main_ned_rt.cxx</text>
</a>
</g>
</g>
<!-- Node5&#45;&gt;Node6 -->
<g id="edge5" class="edge"><title>Node5&#45;&gt;Node6</title>
<path fill="none" stroke="midnightblue" d="M368.075,-104.731C313.222,-86.4229 260.556,-70.6864 218.178,-58.4716"/>
<polygon fill="midnightblue" stroke="midnightblue" points="367.021,-108.069 377.615,-107.934 369.249,-101.433 367.021,-108.069"/>
</g>
<!-- Node7 -->
<g id="node7" class="node"><title>Node7</title>
<g id="a_node7"><a xlink:href="ned__rt__global_8cc.html" target="_top" xlink:title="/home/travis/build\l/konsim83/MPI&#45;MSFEC\l/source/Ned_RT/ned_rt\l_global.cc">
<polygon fill="white" stroke="black" points="378.055,-0.5 378.055,-68.5 538.055,-68.5 538.055,-0.5 378.055,-0.5"/>
<text text-anchor="start" x="386.055" y="-53.3" font-family="Helvetica,sans-Serif" font-size="14.00">/home/travis/build</text>
<text text-anchor="start" x="386.055" y="-38.3" font-family="Helvetica,sans-Serif" font-size="14.00">/konsim83/MPI&#45;MSFEC</text>
<text text-anchor="start" x="386.055" y="-23.3" font-family="Helvetica,sans-Serif" font-size="14.00">/source/Ned_RT/ned_rt</text>
<text text-anchor="middle" x="458.055" y="-8.3" font-family="Helvetica,sans-Serif" font-size="14.00">_global.cc</text>
</a>
</g>
</g>
<!-- Node5&#45;&gt;Node7 -->
<g id="edge6" class="edge"><title>Node5&#45;&gt;Node7</title>
<path fill="none" stroke="midnightblue" d="M458.055,-95.1362C458.055,-86.256 458.055,-77.0447 458.055,-68.5947"/>
<polygon fill="midnightblue" stroke="midnightblue" points="454.555,-95.3432 458.055,-105.343 461.555,-95.3432 454.555,-95.3432"/>
</g>
<!-- Node8&#45;&gt;Node6 -->
<g id="edge9" class="edge"><title>Node8&#45;&gt;Node6</title>
<path fill="none" stroke="midnightblue" d="M176.69,-229.557C110.124,-218.46 33.5168,-200.372 13.0548,-174 -5.74443,-149.771 -2.40163,-131.487 13.0548,-105 24.2425,-85.8284 42.8918,-71.526 62.3291,-61.0462"/>
<polygon fill="midnightblue" stroke="midnightblue" points="176.42,-233.059 186.853,-231.211 177.545,-226.15 176.42,-233.059"/>
</g>
<!-- Node9 -->
<g id="node9" class="node"><title>Node9</title>
<g id="a_node9"><a xlink:href="ned__rt__ref_8cc.html" target="_top" xlink:title="/home/travis/build\l/konsim83/MPI&#45;MSFEC\l/source/Ned_RT/ned_rt\l_ref.cc">
<polygon fill="white" stroke="black" points="22.0548,-105.5 22.0548,-173.5 182.055,-173.5 182.055,-105.5 22.0548,-105.5"/>
<text text-anchor="start" x="30.0548" y="-158.3" font-family="Helvetica,sans-Serif" font-size="14.00">/home/travis/build</text>
<text text-anchor="start" x="30.0548" y="-143.3" font-family="Helvetica,sans-Serif" font-size="14.00">/konsim83/MPI&#45;MSFEC</text>
<text text-anchor="start" x="30.0548" y="-128.3" font-family="Helvetica,sans-Serif" font-size="14.00">/source/Ned_RT/ned_rt</text>
<text text-anchor="middle" x="102.055" y="-113.3" font-family="Helvetica,sans-Serif" font-size="14.00">_ref.cc</text>
</a>
</g>
</g>
<!-- Node8&#45;&gt;Node9 -->
<g id="edge10" class="edge"><title>Node8&#45;&gt;Node9</title>
<path fill="none" stroke="midnightblue" d="M229.805,-212.798C208.026,-200.473 182.872,-186.237 160.674,-173.675"/>
<polygon fill="midnightblue" stroke="midnightblue" points="228.171,-215.895 238.598,-217.774 231.619,-209.803 228.171,-215.895"/>
</g>
<!-- Node11 -->
<g id="node11" class="node"><title>Node11</title>
<g id="a_node11"><a xlink:href="q__ned__basis_8cc.html" target="_top" xlink:title="/home/travis/build\l/konsim83/MPI&#45;MSFEC\l/source/Q_Ned/q_ned_basis.cc">
<polygon fill="white" stroke="black" points="556.055,-113 556.055,-166 762.055,-166 762.055,-113 556.055,-113"/>
<text text-anchor="start" x="564.055" y="-150.8" font-family="Helvetica,sans-Serif" font-size="14.00">/home/travis/build</text>
<text text-anchor="start" x="564.055" y="-135.8" font-family="Helvetica,sans-Serif" font-size="14.00">/konsim83/MPI&#45;MSFEC</text>
<text text-anchor="middle" x="659.055" y="-120.8" font-family="Helvetica,sans-Serif" font-size="14.00">/source/Q_Ned/q_ned_basis.cc</text>
</a>
</g>
</g>
<!-- Node10&#45;&gt;Node11 -->
<g id="edge12" class="edge"><title>Node10&#45;&gt;Node11</title>
<path fill="none" stroke="midnightblue" d="M752.292,-204.523C733.556,-191.657 713.204,-177.682 696.308,-166.081"/>
<polygon fill="midnightblue" stroke="midnightblue" points="750.543,-207.568 760.768,-210.343 754.506,-201.797 750.543,-207.568"/>
</g>
<!-- Node10&#45;&gt;Node12 -->
<g id="edge13" class="edge"><title>Node10&#45;&gt;Node12</title>
<path fill="none" stroke="midnightblue" d="M829.954,-201.293C834.526,-192.058 839.302,-182.412 843.668,-173.595"/>
<polygon fill="midnightblue" stroke="midnightblue" points="826.773,-199.829 825.472,-210.343 833.046,-202.935 826.773,-199.829"/>
</g>
<!-- Node13 -->
<g id="node13" class="node"><title>Node13</title>
<g id="a_node13"><a xlink:href="main__q__ned_8cxx.html" target="_top" xlink:title="/home/travis/build\l/konsim83/MPI&#45;MSFEC\l/source/main_q_ned.cxx">
<polygon fill="white" stroke="black" points="886.055,-8 886.055,-61 1050.05,-61 1050.05,-8 886.055,-8"/>
<text text-anchor="start" x="894.055" y="-45.8" font-family="Helvetica,sans-Serif" font-size="14.00">/home/travis/build</text>
<text text-anchor="start" x="894.055" y="-30.8" font-family="Helvetica,sans-Serif" font-size="14.00">/konsim83/MPI&#45;MSFEC</text>
<text text-anchor="middle" x="968.055" y="-15.8" font-family="Helvetica,sans-Serif" font-size="14.00">/source/main_q_ned.cxx</text>
</a>
</g>
</g>
<!-- Node12&#45;&gt;Node13 -->
<g id="edge14" class="edge"><title>Node12&#45;&gt;Node13</title>
<path fill="none" stroke="midnightblue" d="M902.387,-98.1277C915.467,-85.6533 929.506,-72.2641 941.232,-61.0806"/>
<polygon fill="midnightblue" stroke="midnightblue" points="899.642,-95.9088 894.821,-105.343 904.473,-100.974 899.642,-95.9088"/>
</g>
<!-- Node14 -->
<g id="node14" class="node"><title>Node14</title>
<g id="a_node14"><a xlink:href="q__ned__global_8cc.html" target="_top" xlink:title="/home/travis/build\l/konsim83/MPI&#45;MSFEC\l/source/Q_Ned/q_ned_global.cc">
<polygon fill="white" stroke="black" points="658.055,-8 658.055,-61 868.055,-61 868.055,-8 658.055,-8"/>
<text text-anchor="start" x="666.055" y="-45.8" font-family="Helvetica,sans-Serif" font-size="14.00">/home/travis/build</text>
<text text-anchor="start" x="666.055" y="-30.8" font-family="Helvetica,sans-Serif" font-size="14.00">/konsim83/MPI&#45;MSFEC</text>
<text text-anchor="middle" x="763.055" y="-15.8" font-family="Helvetica,sans-Serif" font-size="14.00">/source/Q_Ned/q_ned_global.cc</text>
</a>
</g>
</g>
<!-- Node12&#45;&gt;Node14 -->
<g id="edge15" class="edge"><title>Node12&#45;&gt;Node14</title>
<path fill="none" stroke="midnightblue" d="M821.705,-97.7777C810.051,-85.4032 797.579,-72.1596 787.145,-61.0806"/>
<polygon fill="midnightblue" stroke="midnightblue" points="819.426,-100.463 828.829,-105.343 824.522,-95.6637 819.426,-100.463"/>
</g>
<!-- Node15&#45;&gt;Node13 -->
<g id="edge18" class="edge"><title>Node15&#45;&gt;Node13</title>
<path fill="none" stroke="midnightblue" d="M1021.62,-211.639C1008.3,-201.289 995.475,-188.635 987.055,-174 966.782,-138.763 964.904,-90.3442 966.029,-61.0786"/>
<polygon fill="midnightblue" stroke="midnightblue" points="1019.82,-214.657 1029.94,-217.782 1023.97,-209.026 1019.82,-214.657"/>
</g>
<!-- Node16 -->
<g id="node16" class="node"><title>Node16</title>
<g id="a_node16"><a xlink:href="q__ned__ref_8cc.html" target="_top" xlink:title="/home/travis/build\l/konsim83/MPI&#45;MSFEC\l/source/Q_Ned/q_ned_ref.cc">
<polygon fill="white" stroke="black" points="996.055,-113 996.055,-166 1186.05,-166 1186.05,-113 996.055,-113"/>
<text text-anchor="start" x="1004.05" y="-150.8" font-family="Helvetica,sans-Serif" font-size="14.00">/home/travis/build</text>
<text text-anchor="start" x="1004.05" y="-135.8" font-family="Helvetica,sans-Serif" font-size="14.00">/konsim83/MPI&#45;MSFEC</text>
<text text-anchor="middle" x="1091.05" y="-120.8" font-family="Helvetica,sans-Serif" font-size="14.00">/source/Q_Ned/q_ned_ref.cc</text>
</a>
</g>
</g>
<!-- Node15&#45;&gt;Node16 -->
<g id="edge19" class="edge"><title>Node15&#45;&gt;Node16</title>
<path fill="none" stroke="midnightblue" d="M1081.26,-207.726C1083.25,-194.075 1085.48,-178.794 1087.3,-166.255"/>
<polygon fill="midnightblue" stroke="midnightblue" points="1077.78,-207.374 1079.8,-217.774 1084.71,-208.383 1077.78,-207.374"/>
</g>
<!-- Node18 -->
<g id="node18" class="node"><title>Node18</title>
<g id="a_node18"><a xlink:href="rt__dq__basis_8cc.html" target="_top" xlink:title="/home/travis/build\l/konsim83/MPI&#45;MSFEC\l/source/RT_DQ/rt_dq_basis.cc">
<polygon fill="white" stroke="black" points="1204.05,-113 1204.05,-166 1406.05,-166 1406.05,-113 1204.05,-113"/>
<text text-anchor="start" x="1212.05" y="-150.8" font-family="Helvetica,sans-Serif" font-size="14.00">/home/travis/build</text>
<text text-anchor="start" x="1212.05" y="-135.8" font-family="Helvetica,sans-Serif" font-size="14.00">/konsim83/MPI&#45;MSFEC</text>
<text text-anchor="middle" x="1305.05" y="-120.8" font-family="Helvetica,sans-Serif" font-size="14.00">/source/RT_DQ/rt_dq_basis.cc</text>
</a>
</g>
</g>
<!-- Node17&#45;&gt;Node18 -->
<g id="edge21" class="edge"><title>Node17&#45;&gt;Node18</title>
<path fill="none" stroke="midnightblue" d="M1305.05,-200.316C1305.05,-188.663 1305.05,-176.428 1305.05,-166.081"/>
<polygon fill="midnightblue" stroke="midnightblue" points="1301.55,-200.343 1305.05,-210.343 1308.55,-200.343 1301.55,-200.343"/>
</g>
<!-- Node17&#45;&gt;Node19 -->
<g id="edge22" class="edge"><title>Node17&#45;&gt;Node19</title>
<path fill="none" stroke="midnightblue" d="M1377.81,-205.843C1398.28,-195.247 1420.39,-183.806 1440.29,-173.505"/>
<polygon fill="midnightblue" stroke="midnightblue" points="1376.11,-202.78 1368.84,-210.485 1379.33,-208.997 1376.11,-202.78"/>
</g>
<!-- Node20 -->
<g id="node20" class="node"><title>Node20</title>
<g id="a_node20"><a xlink:href="main__rt__dq_8cxx.html" target="_top" xlink:title="/home/travis/build\l/konsim83/MPI&#45;MSFEC\l/source/main_rt_dq.cxx">
<polygon fill="white" stroke="black" points="1532.05,-8 1532.05,-61 1692.05,-61 1692.05,-8 1532.05,-8"/>
<text text-anchor="start" x="1540.05" y="-45.8" font-family="Helvetica,sans-Serif" font-size="14.00">/home/travis/build</text>
<text text-anchor="start" x="1540.05" y="-30.8" font-family="Helvetica,sans-Serif" font-size="14.00">/konsim83/MPI&#45;MSFEC</text>
<text text-anchor="middle" x="1612.05" y="-15.8" font-family="Helvetica,sans-Serif" font-size="14.00">/source/main_rt_dq.cxx</text>
</a>
</g>
</g>
<!-- Node19&#45;&gt;Node20 -->
<g id="edge23" class="edge"><title>Node19&#45;&gt;Node20</title>
<path fill="none" stroke="midnightblue" d="M1546.39,-98.1277C1559.47,-85.6533 1573.51,-72.2641 1585.23,-61.0806"/>
<polygon fill="midnightblue" stroke="midnightblue" points="1543.64,-95.9088 1538.82,-105.343 1548.47,-100.974 1543.64,-95.9088"/>
</g>
<!-- Node21 -->
<g id="node21" class="node"><title>Node21</title>
<g id="a_node21"><a xlink:href="rt__dq__global_8cc.html" target="_top" xlink:title="/home/travis/build\l/konsim83/MPI&#45;MSFEC\l/source/RT_DQ/rt_dq_global.cc">
<polygon fill="white" stroke="black" points="1308.05,-8 1308.05,-61 1514.05,-61 1514.05,-8 1308.05,-8"/>
<text text-anchor="start" x="1316.05" y="-45.8" font-family="Helvetica,sans-Serif" font-size="14.00">/home/travis/build</text>
<text text-anchor="start" x="1316.05" y="-30.8" font-family="Helvetica,sans-Serif" font-size="14.00">/konsim83/MPI&#45;MSFEC</text>
<text text-anchor="middle" x="1411.05" y="-15.8" font-family="Helvetica,sans-Serif" font-size="14.00">/source/RT_DQ/rt_dq_global.cc</text>
</a>
</g>
</g>
<!-- Node19&#45;&gt;Node21 -->
<g id="edge24" class="edge"><title>Node19&#45;&gt;Node21</title>
<path fill="none" stroke="midnightblue" d="M1467.29,-97.7777C1456.11,-85.4032 1444.16,-72.1596 1434.15,-61.0806"/>
<polygon fill="midnightblue" stroke="midnightblue" points="1464.82,-100.267 1474.12,-105.343 1470.01,-95.5754 1464.82,-100.267"/>
</g>
<!-- Node22&#45;&gt;Node20 -->
<g id="edge27" class="edge"><title>Node22&#45;&gt;Node20</title>
<path fill="none" stroke="midnightblue" d="M1583.13,-208.182C1586.77,-197.334 1590.44,-185.28 1593.05,-174 1602.08,-135.108 1607.35,-89.0109 1609.97,-61.0269"/>
<polygon fill="midnightblue" stroke="midnightblue" points="1579.78,-207.155 1579.83,-217.749 1586.4,-209.439 1579.78,-207.155"/>
</g>
<!-- Node23 -->
<g id="node23" class="node"><title>Node23</title>
<g id="a_node23"><a xlink:href="rt__dq__ref_8cc.html" target="_top" xlink:title="/home/travis/build\l/konsim83/MPI&#45;MSFEC\l/source/RT_DQ/rt_dq_ref.cc">
<polygon fill="white" stroke="black" points="1640.05,-113 1640.05,-166 1826.05,-166 1826.05,-113 1640.05,-113"/>
<text text-anchor="start" x="1648.05" y="-150.8" font-family="Helvetica,sans-Serif" font-size="14.00">/home/travis/build</text>
<text text-anchor="start" x="1648.05" y="-135.8" font-family="Helvetica,sans-Serif" font-size="14.00">/konsim83/MPI&#45;MSFEC</text>
<text text-anchor="middle" x="1733.05" y="-120.8" font-family="Helvetica,sans-Serif" font-size="14.00">/source/RT_DQ/rt_dq_ref.cc</text>
</a>
</g>
</g>
<!-- Node22&#45;&gt;Node23 -->
<g id="edge28" class="edge"><title>Node22&#45;&gt;Node23</title>
<path fill="none" stroke="midnightblue" d="M1619.5,-212.253C1642.89,-197.476 1670.46,-180.053 1692.58,-166.076"/>
<polygon fill="midnightblue" stroke="midnightblue" points="1617.35,-209.474 1610.77,-217.774 1621.09,-215.391 1617.35,-209.474"/>
</g>
<!-- Node24&#45;&gt;Node3 -->
<g id="edge30" class="edge"><title>Node24&#45;&gt;Node3</title>
<path fill="none" stroke="midnightblue" d="M1004.87,-314.939C848.912,-279.734 802.883,-306.122 649.055,-279 632.174,-276.024 614.267,-272.046 597.27,-267.874"/>
<polygon fill="midnightblue" stroke="midnightblue" points="1004.28,-318.395 1014.82,-317.232 1005.86,-311.574 1004.28,-318.395"/>
</g>
<!-- Node24&#45;&gt;Node5 -->
<g id="edge31" class="edge"><title>Node24&#45;&gt;Node5</title>
<path fill="none" stroke="midnightblue" d="M1004.82,-314.956C879.366,-286.573 833.822,-330.452 720.055,-279 677.883,-259.927 681.689,-233.903 642.055,-210 641.421,-209.618 587.423,-189.234 538.093,-170.642"/>
<polygon fill="midnightblue" stroke="midnightblue" points="1004.25,-318.419 1014.79,-317.325 1005.87,-311.608 1004.25,-318.419"/>
</g>
<!-- Node24&#45;&gt;Node8 -->
<g id="edge32" class="edge"><title>Node24&#45;&gt;Node8</title>
<path fill="none" stroke="midnightblue" d="M1005.02,-315.008C752.533,-262.455 679.493,-315.816 428.055,-279 412.817,-276.769 396.811,-273.743 381.235,-270.418"/>
<polygon fill="midnightblue" stroke="midnightblue" points="1004.34,-318.442 1014.85,-317.088 1005.79,-311.594 1004.34,-318.442"/>
</g>
<!-- Node24&#45;&gt;Node10 -->
<g id="edge33" class="edge"><title>Node24&#45;&gt;Node10</title>
<path fill="none" stroke="midnightblue" d="M1005.39,-314.779C961.918,-298.971 922.587,-285.053 889.225,-273.358"/>
<polygon fill="midnightblue" stroke="midnightblue" points="1004.44,-318.155 1015.03,-318.289 1006.83,-311.577 1004.44,-318.155"/>
</g>
<!-- Node24&#45;&gt;Node12 -->
<g id="edge34" class="edge"><title>Node24&#45;&gt;Node12</title>
<path fill="none" stroke="midnightblue" d="M1018.49,-310.128C1003.09,-300.894 987.51,-290.374 974.055,-279 963.917,-270.431 916.715,-211.84 886.317,-173.66"/>
<polygon fill="midnightblue" stroke="midnightblue" points="1017.13,-313.384 1027.53,-315.413 1020.66,-307.343 1017.13,-313.384"/>
</g>
<!-- Node24&#45;&gt;Node15 -->
<g id="edge35" class="edge"><title>Node24&#45;&gt;Node15</title>
<path fill="none" stroke="midnightblue" d="M1087.09,-305.316C1084.94,-293.663 1082.68,-281.428 1080.77,-271.081"/>
<polygon fill="midnightblue" stroke="midnightblue" points="1083.68,-306.144 1088.94,-315.343 1090.57,-304.874 1083.68,-306.144"/>
</g>
<!-- Node24&#45;&gt;Node17 -->
<g id="edge36" class="edge"><title>Node24&#45;&gt;Node17</title>
<path fill="none" stroke="midnightblue" d="M1171.54,-310.985C1193.23,-300.35 1216.67,-288.853 1237.76,-278.505"/>
<polygon fill="midnightblue" stroke="midnightblue" points="1169.8,-307.939 1162.37,-315.485 1172.89,-314.224 1169.8,-307.939"/>
</g>
<!-- Node24&#45;&gt;Node19 -->
<g id="edge37" class="edge"><title>Node24&#45;&gt;Node19</title>
<path fill="none" stroke="midnightblue" d="M1185.23,-345.456C1248.77,-339.296 1333.06,-322.633 1394.05,-279 1423.44,-257.977 1414.84,-238.497 1437.05,-210 1446.74,-197.576 1458.35,-184.905 1469.16,-173.844"/>
<polygon fill="midnightblue" stroke="midnightblue" points="1184.87,-341.975 1175.22,-346.357 1185.5,-348.947 1184.87,-341.975"/>
</g>
<!-- Node24&#45;&gt;Node22 -->
<g id="edge38" class="edge"><title>Node24&#45;&gt;Node22</title>
<path fill="none" stroke="midnightblue" d="M1185.41,-330.188C1252.25,-316.498 1345.44,-297.1 1427.05,-279 1443.86,-275.274 1461.74,-271.183 1478.97,-267.18"/>
<polygon fill="midnightblue" stroke="midnightblue" points="1184.43,-326.817 1175.34,-332.251 1185.83,-333.675 1184.43,-326.817"/>
</g>
</g>
</svg>
