<?xml version="1.0" encoding="UTF-8" standalone="no"?>
<!DOCTYPE svg PUBLIC "-//W3C//DTD SVG 1.1//EN"
 "http://www.w3.org/Graphics/SVG/1.1/DTD/svg11.dtd">
<!-- Generated by graphviz version 2.38.0 (20140413.2041)
 -->
<!-- Title: /home/travis/build/konsim83/MPI&#45;MSFEC/include/linear_algebra/inverse_matrix.tpp Pages: 1 -->
<svg width="1850pt" height="602pt"
 viewBox="0.00 0.00 1850.00 602.00" xmlns="http://www.w3.org/2000/svg" xmlns:xlink="http://www.w3.org/1999/xlink">
<g id="graph0" class="graph" transform="scale(1 1) rotate(0) translate(4 598)">
<title>/home/travis/build/konsim83/MPI&#45;MSFEC/include/linear_algebra/inverse_matrix.tpp</title>
<polygon fill="white" stroke="none" points="-4,4 -4,-598 1846,-598 1846,4 -4,4"/>
<!-- Node1 -->
<g id="node1" class="node"><title>Node1</title>
<polygon fill="#bfbfbf" stroke="black" points="351,-525.5 351,-593.5 511,-593.5 511,-525.5 351,-525.5"/>
<text text-anchor="start" x="359" y="-578.3" font-family="Helvetica,sans-Serif" font-size="14.00">/home/travis/build</text>
<text text-anchor="start" x="359" y="-563.3" font-family="Helvetica,sans-Serif" font-size="14.00">/konsim83/MPI&#45;MSFEC</text>
<text text-anchor="start" x="359" y="-548.3" font-family="Helvetica,sans-Serif" font-size="14.00">/include/linear_algebra</text>
<text text-anchor="middle" x="431" y="-533.3" font-family="Helvetica,sans-Serif" font-size="14.00">/inverse_matrix.tpp</text>
</g>
<!-- Node2 -->
<g id="node2" class="node"><title>Node2</title>
<g id="a_node2"><a xlink:href="inverse__matrix_8h.html" target="_top" xlink:title="/home/travis/build\l/konsim83/MPI&#45;MSFEC\l/include/linear_algebra\l/inverse_matrix.h">
<polygon fill="white" stroke="black" points="674,-420.5 674,-488.5 834,-488.5 834,-420.5 674,-420.5"/>
<text text-anchor="start" x="682" y="-473.3" font-family="Helvetica,sans-Serif" font-size="14.00">/home/travis/build</text>
<text text-anchor="start" x="682" y="-458.3" font-family="Helvetica,sans-Serif" font-size="14.00">/konsim83/MPI&#45;MSFEC</text>
<text text-anchor="start" x="682" y="-443.3" font-family="Helvetica,sans-Serif" font-size="14.00">/include/linear_algebra</text>
<text text-anchor="middle" x="754" y="-428.3" font-family="Helvetica,sans-Serif" font-size="14.00">/inverse_matrix.h</text>
</a>
</g>
</g>
<!-- Node1&#45;&gt;Node2 -->
<g id="edge1" class="edge"><title>Node1&#45;&gt;Node2</title>
<path fill="none" stroke="midnightblue" d="M521.014,-529.796C568.982,-514.499 627.491,-495.842 673.876,-481.05"/>
<polygon fill="midnightblue" stroke="midnightblue" points="519.722,-526.534 511.258,-532.907 521.848,-533.203 519.722,-526.534"/>
</g>
<!-- Node6 -->
<g id="node6" class="node"><title>Node6</title>
<g id="a_node6"><a xlink:href="ned__rt__global_8h.html" target="_top" xlink:title="/home/travis/build\l/konsim83/MPI&#45;MSFEC\l/include/Ned_RT/ned_rt\l_global.h">
<polygon fill="white" stroke="black" points="0,-105.5 0,-173.5 160,-173.5 160,-105.5 0,-105.5"/>
<text text-anchor="start" x="8" y="-158.3" font-family="Helvetica,sans-Serif" font-size="14.00">/home/travis/build</text>
<text text-anchor="start" x="8" y="-143.3" font-family="Helvetica,sans-Serif" font-size="14.00">/konsim83/MPI&#45;MSFEC</text>
<text text-anchor="start" x="8" y="-128.3" font-family="Helvetica,sans-Serif" font-size="14.00">/include/Ned_RT/ned_rt</text>
<text text-anchor="middle" x="80" y="-113.3" font-family="Helvetica,sans-Serif" font-size="14.00">_global.h</text>
</a>
</g>
</g>
<!-- Node1&#45;&gt;Node6 -->
<g id="edge49" class="edge"><title>Node1&#45;&gt;Node6</title>
<path fill="none" stroke="midnightblue" d="M370.626,-519.731C300.532,-471.61 186.341,-383.052 122,-279 101.716,-246.196 90.6563,-202.936 85.0521,-173.553"/>
<polygon fill="midnightblue" stroke="midnightblue" points="368.713,-522.663 378.949,-525.398 372.652,-516.877 368.713,-522.663"/>
</g>
<!-- Node3 -->
<g id="node3" class="node"><title>Node3</title>
<g id="a_node3"><a xlink:href="approximate__schur__complement_8h.html" target="_top" xlink:title="/home/travis/build\l/konsim83/MPI&#45;MSFEC\l/include/linear_algebra\l/approximate_schur_complement.h">
<polygon fill="white" stroke="black" points="711,-315.5 711,-383.5 941,-383.5 941,-315.5 711,-315.5"/>
<text text-anchor="start" x="719" y="-368.3" font-family="Helvetica,sans-Serif" font-size="14.00">/home/travis/build</text>
<text text-anchor="start" x="719" y="-353.3" font-family="Helvetica,sans-Serif" font-size="14.00">/konsim83/MPI&#45;MSFEC</text>
<text text-anchor="start" x="719" y="-338.3" font-family="Helvetica,sans-Serif" font-size="14.00">/include/linear_algebra</text>
<text text-anchor="middle" x="826" y="-323.3" font-family="Helvetica,sans-Serif" font-size="14.00">/approximate_schur_complement.h</text>
</a>
</g>
</g>
<!-- Node2&#45;&gt;Node3 -->
<g id="edge2" class="edge"><title>Node2&#45;&gt;Node3</title>
<path fill="none" stroke="midnightblue" d="M783.101,-411.869C789.678,-402.461 796.574,-392.596 802.866,-383.595"/>
<polygon fill="midnightblue" stroke="midnightblue" points="780.038,-410.142 777.178,-420.343 785.776,-414.152 780.038,-410.142"/>
</g>
<!-- Node4 -->
<g id="node4" class="node"><title>Node4</title>
<g id="a_node4"><a xlink:href="ned__rt__basis_8h.html" target="_top" xlink:title="/home/travis/build\l/konsim83/MPI&#45;MSFEC\l/include/Ned_RT/ned_rt\l_basis.h">
<polygon fill="white" stroke="black" points="457,-210.5 457,-278.5 617,-278.5 617,-210.5 457,-210.5"/>
<text text-anchor="start" x="465" y="-263.3" font-family="Helvetica,sans-Serif" font-size="14.00">/home/travis/build</text>
<text text-anchor="start" x="465" y="-248.3" font-family="Helvetica,sans-Serif" font-size="14.00">/konsim83/MPI&#45;MSFEC</text>
<text text-anchor="start" x="465" y="-233.3" font-family="Helvetica,sans-Serif" font-size="14.00">/include/Ned_RT/ned_rt</text>
<text text-anchor="middle" x="537" y="-218.3" font-family="Helvetica,sans-Serif" font-size="14.00">_basis.h</text>
</a>
</g>
</g>
<!-- Node2&#45;&gt;Node4 -->
<g id="edge40" class="edge"><title>Node2&#45;&gt;Node4</title>
<path fill="none" stroke="midnightblue" d="M673.699,-415.255C658.639,-406.166 643.667,-395.669 631,-384 597.764,-353.383 570.223,-308.86 553.72,-278.621"/>
<polygon fill="midnightblue" stroke="midnightblue" points="672.161,-418.41 682.559,-420.442 675.698,-412.369 672.161,-418.41"/>
</g>
<!-- Node2&#45;&gt;Node6 -->
<g id="edge41" class="edge"><title>Node2&#45;&gt;Node6</title>
<path fill="none" stroke="midnightblue" d="M663.661,-446.182C541.987,-432.191 324.014,-392.115 179,-279 159.54,-263.821 123.34,-209.507 100.521,-173.576"/>
<polygon fill="midnightblue" stroke="midnightblue" points="663.365,-449.67 673.691,-447.301 664.141,-442.713 663.365,-449.67"/>
</g>
<!-- Node9 -->
<g id="node9" class="node"><title>Node9</title>
<g id="a_node9"><a xlink:href="ned__rt__ref_8h.html" target="_top" xlink:title="/home/travis/build\l/konsim83/MPI&#45;MSFEC\l/include/Ned_RT/ned_rt_ref.h">
<polygon fill="white" stroke="black" points="245,-218 245,-271 439,-271 439,-218 245,-218"/>
<text text-anchor="start" x="253" y="-255.8" font-family="Helvetica,sans-Serif" font-size="14.00">/home/travis/build</text>
<text text-anchor="start" x="253" y="-240.8" font-family="Helvetica,sans-Serif" font-size="14.00">/konsim83/MPI&#45;MSFEC</text>
<text text-anchor="middle" x="342" y="-225.8" font-family="Helvetica,sans-Serif" font-size="14.00">/include/Ned_RT/ned_rt_ref.h</text>
</a>
</g>
</g>
<!-- Node2&#45;&gt;Node9 -->
<g id="edge42" class="edge"><title>Node2&#45;&gt;Node9</title>
<path fill="none" stroke="midnightblue" d="M664.303,-422.848C634.458,-411.704 601.357,-398.304 572,-384 501.605,-349.7 424.551,-300.772 379.894,-271.187"/>
<polygon fill="midnightblue" stroke="midnightblue" points="663.277,-426.2 673.87,-426.385 665.704,-419.634 663.277,-426.2"/>
</g>
<!-- Node11 -->
<g id="node11" class="node"><title>Node11</title>
<g id="a_node11"><a xlink:href="q__ned__basis_8h.html" target="_top" xlink:title="/home/travis/build\l/konsim83/MPI&#45;MSFEC\l/include/Q_Ned/q_ned\l_basis.h">
<polygon fill="white" stroke="black" points="673,-210.5 673,-278.5 833,-278.5 833,-210.5 673,-210.5"/>
<text text-anchor="start" x="681" y="-263.3" font-family="Helvetica,sans-Serif" font-size="14.00">/home/travis/build</text>
<text text-anchor="start" x="681" y="-248.3" font-family="Helvetica,sans-Serif" font-size="14.00">/konsim83/MPI&#45;MSFEC</text>
<text text-anchor="start" x="681" y="-233.3" font-family="Helvetica,sans-Serif" font-size="14.00">/include/Q_Ned/q_ned</text>
<text text-anchor="middle" x="753" y="-218.3" font-family="Helvetica,sans-Serif" font-size="14.00">_basis.h</text>
</a>
</g>
</g>
<!-- Node2&#45;&gt;Node11 -->
<g id="edge43" class="edge"><title>Node2&#45;&gt;Node11</title>
<path fill="none" stroke="midnightblue" d="M716.541,-412.204C710.567,-403.452 705.281,-393.861 702,-384 692.319,-354.901 692.454,-344.143 702,-315 706.239,-302.057 713.909,-289.534 722.035,-278.768"/>
<polygon fill="midnightblue" stroke="midnightblue" points="713.727,-414.285 722.436,-420.319 719.39,-410.171 713.727,-414.285"/>
</g>
<!-- Node13 -->
<g id="node13" class="node"><title>Node13</title>
<g id="a_node13"><a xlink:href="q__ned__global_8h.html" target="_top" xlink:title="/home/travis/build\l/konsim83/MPI&#45;MSFEC\l/include/Q_Ned/q_ned\l_global.h">
<polygon fill="white" stroke="black" points="796,-105.5 796,-173.5 956,-173.5 956,-105.5 796,-105.5"/>
<text text-anchor="start" x="804" y="-158.3" font-family="Helvetica,sans-Serif" font-size="14.00">/home/travis/build</text>
<text text-anchor="start" x="804" y="-143.3" font-family="Helvetica,sans-Serif" font-size="14.00">/konsim83/MPI&#45;MSFEC</text>
<text text-anchor="start" x="804" y="-128.3" font-family="Helvetica,sans-Serif" font-size="14.00">/include/Q_Ned/q_ned</text>
<text text-anchor="middle" x="876" y="-113.3" font-family="Helvetica,sans-Serif" font-size="14.00">_global.h</text>
</a>
</g>
</g>
<!-- Node2&#45;&gt;Node13 -->
<g id="edge44" class="edge"><title>Node2&#45;&gt;Node13</title>
<path fill="none" stroke="midnightblue" d="M710.478,-412.907C702.768,-403.997 695.469,-394.167 690,-384 652.961,-315.137 617.114,-272.575 664,-210 698.155,-164.416 732.974,-192.046 787,-174 789.819,-173.059 792.681,-172.084 795.567,-171.085"/>
<polygon fill="midnightblue" stroke="midnightblue" points="708.023,-415.41 717.323,-420.485 713.217,-410.718 708.023,-415.41"/>
</g>
<!-- Node16 -->
<g id="node16" class="node"><title>Node16</title>
<g id="a_node16"><a xlink:href="q__ned__ref_8h.html" target="_top" xlink:title="/home/travis/build\l/konsim83/MPI&#45;MSFEC\l/include/Q_Ned/q_ned_ref.h">
<polygon fill="white" stroke="black" points="1003,-218 1003,-271 1189,-271 1189,-218 1003,-218"/>
<text text-anchor="start" x="1011" y="-255.8" font-family="Helvetica,sans-Serif" font-size="14.00">/home/travis/build</text>
<text text-anchor="start" x="1011" y="-240.8" font-family="Helvetica,sans-Serif" font-size="14.00">/konsim83/MPI&#45;MSFEC</text>
<text text-anchor="middle" x="1096" y="-225.8" font-family="Helvetica,sans-Serif" font-size="14.00">/include/Q_Ned/q_ned_ref.h</text>
</a>
</g>
</g>
<!-- Node2&#45;&gt;Node16 -->
<g id="edge45" class="edge"><title>Node2&#45;&gt;Node16</title>
<path fill="none" stroke="midnightblue" d="M844.087,-449.602C943.016,-443.208 1092.59,-426.594 1128,-384 1154.74,-351.833 1132.04,-301.545 1113.65,-271.234"/>
<polygon fill="midnightblue" stroke="midnightblue" points="843.843,-446.11 834.08,-450.225 844.278,-453.097 843.843,-446.11"/>
</g>
<!-- Node18 -->
<g id="node18" class="node"><title>Node18</title>
<g id="a_node18"><a xlink:href="rt__dq__basis_8h.html" target="_top" xlink:title="/home/travis/build\l/konsim83/MPI&#45;MSFEC\l/include/RT_DQ/rt_dq\l_basis.h">
<polygon fill="white" stroke="black" points="1207,-210.5 1207,-278.5 1367,-278.5 1367,-210.5 1207,-210.5"/>
<text text-anchor="start" x="1215" y="-263.3" font-family="Helvetica,sans-Serif" font-size="14.00">/home/travis/build</text>
<text text-anchor="start" x="1215" y="-248.3" font-family="Helvetica,sans-Serif" font-size="14.00">/konsim83/MPI&#45;MSFEC</text>
<text text-anchor="start" x="1215" y="-233.3" font-family="Helvetica,sans-Serif" font-size="14.00">/include/RT_DQ/rt_dq</text>
<text text-anchor="middle" x="1287" y="-218.3" font-family="Helvetica,sans-Serif" font-size="14.00">_basis.h</text>
</a>
</g>
</g>
<!-- Node2&#45;&gt;Node18 -->
<g id="edge46" class="edge"><title>Node2&#45;&gt;Node18</title>
<path fill="none" stroke="midnightblue" d="M844.538,-452.779C927.737,-448.692 1052.29,-433.717 1148,-384 1196.37,-358.874 1238.57,-311.054 1263.43,-278.722"/>
<polygon fill="midnightblue" stroke="midnightblue" points="844.182,-449.291 834.349,-453.235 844.496,-456.284 844.182,-449.291"/>
</g>
<!-- Node20 -->
<g id="node20" class="node"><title>Node20</title>
<g id="a_node20"><a xlink:href="rt__dq__global_8h.html" target="_top" xlink:title="/home/travis/build\l/konsim83/MPI&#45;MSFEC\l/include/RT_DQ/rt_dq\l_global.h">
<polygon fill="white" stroke="black" points="1440,-105.5 1440,-173.5 1600,-173.5 1600,-105.5 1440,-105.5"/>
<text text-anchor="start" x="1448" y="-158.3" font-family="Helvetica,sans-Serif" font-size="14.00">/home/travis/build</text>
<text text-anchor="start" x="1448" y="-143.3" font-family="Helvetica,sans-Serif" font-size="14.00">/konsim83/MPI&#45;MSFEC</text>
<text text-anchor="start" x="1448" y="-128.3" font-family="Helvetica,sans-Serif" font-size="14.00">/include/RT_DQ/rt_dq</text>
<text text-anchor="middle" x="1520" y="-113.3" font-family="Helvetica,sans-Serif" font-size="14.00">_global.h</text>
</a>
</g>
</g>
<!-- Node2&#45;&gt;Node20 -->
<g id="edge47" class="edge"><title>Node2&#45;&gt;Node20</title>
<path fill="none" stroke="midnightblue" d="M844.121,-447.883C936.163,-440.23 1082.28,-422.739 1203,-384 1301.6,-352.357 1335.31,-349.668 1411,-279 1437.07,-254.657 1430.26,-238.283 1452,-210 1461.67,-197.419 1473.41,-184.707 1484.39,-173.656"/>
<polygon fill="midnightblue" stroke="midnightblue" points="843.686,-444.407 834.001,-448.703 844.251,-451.384 843.686,-444.407"/>
</g>
<!-- Node23 -->
<g id="node23" class="node"><title>Node23</title>
<g id="a_node23"><a xlink:href="rt__dq__ref_8h.html" target="_top" xlink:title="/home/travis/build\l/konsim83/MPI&#45;MSFEC\l/include/RT_DQ/rt_dq_ref.h">
<polygon fill="white" stroke="black" points="1461,-218 1461,-271 1643,-271 1643,-218 1461,-218"/>
<text text-anchor="start" x="1469" y="-255.8" font-family="Helvetica,sans-Serif" font-size="14.00">/home/travis/build</text>
<text text-anchor="start" x="1469" y="-240.8" font-family="Helvetica,sans-Serif" font-size="14.00">/konsim83/MPI&#45;MSFEC</text>
<text text-anchor="middle" x="1552" y="-225.8" font-family="Helvetica,sans-Serif" font-size="14.00">/include/RT_DQ/rt_dq_ref.h</text>
</a>
</g>
</g>
<!-- Node2&#45;&gt;Node23 -->
<g id="edge48" class="edge"><title>Node2&#45;&gt;Node23</title>
<path fill="none" stroke="midnightblue" d="M844.286,-453.274C1007.93,-451.437 1345.96,-440.658 1447,-384 1492.79,-358.322 1524.84,-303.566 1540.68,-271.123"/>
<polygon fill="midnightblue" stroke="midnightblue" points="844.204,-449.775 834.241,-453.378 844.276,-456.775 844.204,-449.775"/>
</g>
<!-- Node25 -->
<g id="node25" class="node"><title>Node25</title>
<g id="a_node25"><a xlink:href="schur__complement_8h.html" target="_top" xlink:title="/home/travis/build\l/konsim83/MPI&#45;MSFEC\l/include/linear_algebra\l/schur_complement.h">
<polygon fill="white" stroke="black" points="959,-315.5 959,-383.5 1119,-383.5 1119,-315.5 959,-315.5"/>
<text text-anchor="start" x="967" y="-368.3" font-family="Helvetica,sans-Serif" font-size="14.00">/home/travis/build</text>
<text text-anchor="start" x="967" y="-353.3" font-family="Helvetica,sans-Serif" font-size="14.00">/konsim83/MPI&#45;MSFEC</text>
<text text-anchor="start" x="967" y="-338.3" font-family="Helvetica,sans-Serif" font-size="14.00">/include/linear_algebra</text>
<text text-anchor="middle" x="1039" y="-323.3" font-family="Helvetica,sans-Serif" font-size="14.00">/schur_complement.h</text>
</a>
</g>
</g>
<!-- Node2&#45;&gt;Node25 -->
<g id="edge30" class="edge"><title>Node2&#45;&gt;Node25</title>
<path fill="none" stroke="midnightblue" d="M843.96,-422.009C877.317,-410.225 915.433,-396.633 950,-384 952.946,-382.923 955.945,-381.822 958.973,-380.705"/>
<polygon fill="midnightblue" stroke="midnightblue" points="842.494,-418.815 834.229,-425.443 844.823,-425.416 842.494,-418.815"/>
</g>
<!-- Node3&#45;&gt;Node4 -->
<g id="edge3" class="edge"><title>Node3&#45;&gt;Node4</title>
<path fill="none" stroke="midnightblue" d="M723.636,-312.017C688.775,-299.593 650.328,-285.89 617.435,-274.167"/>
<polygon fill="midnightblue" stroke="midnightblue" points="722.771,-315.425 733.366,-315.485 725.122,-308.831 722.771,-315.425"/>
</g>
<!-- Node3&#45;&gt;Node6 -->
<g id="edge8" class="edge"><title>Node3&#45;&gt;Node6</title>
<path fill="none" stroke="midnightblue" d="M700.81,-344.604C551.882,-338.109 313.636,-321.292 236,-279 201.069,-259.972 208.207,-237.003 179,-210 164.891,-196.956 148.221,-184.357 132.622,-173.553"/>
<polygon fill="midnightblue" stroke="midnightblue" points="700.791,-348.106 710.931,-345.035 701.089,-341.112 700.791,-348.106"/>
</g>
<!-- Node3&#45;&gt;Node9 -->
<g id="edge9" class="edge"><title>Node3&#45;&gt;Node9</title>
<path fill="none" stroke="midnightblue" d="M700.362,-329.422C626.408,-317.195 531.33,-299.743 448,-279 438.542,-276.646 428.691,-273.917 418.969,-271.052"/>
<polygon fill="midnightblue" stroke="midnightblue" points="700.219,-332.945 710.654,-331.113 701.353,-326.038 700.219,-332.945"/>
</g>
<!-- Node3&#45;&gt;Node11 -->
<g id="edge12" class="edge"><title>Node3&#45;&gt;Node11</title>
<path fill="none" stroke="midnightblue" d="M796.699,-307.157C789.969,-297.662 782.9,-287.688 776.455,-278.595"/>
<polygon fill="midnightblue" stroke="midnightblue" points="793.863,-309.208 802.501,-315.343 799.574,-305.161 793.863,-309.208"/>
</g>
<!-- Node3&#45;&gt;Node13 -->
<g id="edge17" class="edge"><title>Node3&#45;&gt;Node13</title>
<path fill="none" stroke="midnightblue" d="M836.443,-305.055C845.834,-265.991 859.429,-209.434 867.987,-173.836"/>
<polygon fill="midnightblue" stroke="midnightblue" points="832.968,-304.54 834.033,-315.081 839.774,-306.176 832.968,-304.54"/>
</g>
<!-- Node3&#45;&gt;Node16 -->
<g id="edge18" class="edge"><title>Node3&#45;&gt;Node16</title>
<path fill="none" stroke="midnightblue" d="M921.915,-311.91C957.249,-298.431 996.493,-283.46 1028.76,-271.15"/>
<polygon fill="midnightblue" stroke="midnightblue" points="920.639,-308.651 912.544,-315.485 923.135,-315.191 920.639,-308.651"/>
</g>
<!-- Node3&#45;&gt;Node18 -->
<g id="edge21" class="edge"><title>Node3&#45;&gt;Node18</title>
<path fill="none" stroke="midnightblue" d="M950.886,-314.924C1060.89,-293.214 1093.2,-305.993 1198,-279 1200.88,-278.259 1203.79,-277.456 1206.72,-276.605"/>
<polygon fill="midnightblue" stroke="midnightblue" points="950.173,-311.497 941.066,-316.911 951.562,-318.358 950.173,-311.497"/>
</g>
<!-- Node3&#45;&gt;Node20 -->
<g id="edge26" class="edge"><title>Node3&#45;&gt;Node20</title>
<path fill="none" stroke="midnightblue" d="M861.842,-307.584C893.134,-274.936 941.638,-231.268 994,-210 1174.55,-136.663 1240.86,-216.737 1431,-174 1433.9,-173.348 1436.83,-172.623 1439.78,-171.837"/>
<polygon fill="midnightblue" stroke="midnightblue" points="858.969,-305.53 854.655,-315.207 864.062,-310.332 858.969,-305.53"/>
</g>
<!-- Node3&#45;&gt;Node23 -->
<g id="edge27" class="edge"><title>Node3&#45;&gt;Node23</title>
<path fill="none" stroke="midnightblue" d="M950.949,-314.95C1138.91,-282.851 1190.97,-304.358 1376,-279 1403.73,-275.199 1433.72,-269.93 1460.95,-264.695"/>
<polygon fill="midnightblue" stroke="midnightblue" points="950.274,-311.515 941.02,-316.673 951.472,-318.411 950.274,-311.515"/>
</g>
<!-- Node5 -->
<g id="node5" class="node"><title>Node5</title>
<g id="a_node5"><a xlink:href="ned__rt__basis_8cc.html" target="_top" xlink:title="/home/travis/build\l/konsim83/MPI&#45;MSFEC\l/source/Ned_RT/ned_rt\l_basis.cc">
<polygon fill="white" stroke="black" points="394,-105.5 394,-173.5 554,-173.5 554,-105.5 394,-105.5"/>
<text text-anchor="start" x="402" y="-158.3" font-family="Helvetica,sans-Serif" font-size="14.00">/home/travis/build</text>
<text text-anchor="start" x="402" y="-143.3" font-family="Helvetica,sans-Serif" font-size="14.00">/konsim83/MPI&#45;MSFEC</text>
<text text-anchor="start" x="402" y="-128.3" font-family="Helvetica,sans-Serif" font-size="14.00">/source/Ned_RT/ned_rt</text>
<text text-anchor="middle" x="474" y="-113.3" font-family="Helvetica,sans-Serif" font-size="14.00">_basis.cc</text>
</a>
</g>
</g>
<!-- Node4&#45;&gt;Node5 -->
<g id="edge4" class="edge"><title>Node4&#45;&gt;Node5</title>
<path fill="none" stroke="midnightblue" d="M511.36,-201.581C505.659,-192.259 499.692,-182.504 494.242,-173.595"/>
<polygon fill="midnightblue" stroke="midnightblue" points="508.516,-203.639 516.72,-210.343 514.488,-199.986 508.516,-203.639"/>
</g>
<!-- Node4&#45;&gt;Node6 -->
<g id="edge5" class="edge"><title>Node4&#45;&gt;Node6</title>
<path fill="none" stroke="midnightblue" d="M447.007,-209.965C324.779,-180.982 287.239,-203.457 169,-174 166.116,-173.282 163.198,-172.499 160.265,-171.664"/>
<polygon fill="midnightblue" stroke="midnightblue" points="446.191,-213.368 456.735,-212.336 447.849,-206.567 446.191,-213.368"/>
</g>
<!-- Node7 -->
<g id="node7" class="node"><title>Node7</title>
<g id="a_node7"><a xlink:href="main__ned__rt_8cxx.html" target="_top" xlink:title="/home/travis/build\l/konsim83/MPI&#45;MSFEC\l/source/main_ned_rt.cxx">
<polygon fill="white" stroke="black" points="231,-8 231,-61 395,-61 395,-8 231,-8"/>
<text text-anchor="start" x="239" y="-45.8" font-family="Helvetica,sans-Serif" font-size="14.00">/home/travis/build</text>
<text text-anchor="start" x="239" y="-30.8" font-family="Helvetica,sans-Serif" font-size="14.00">/konsim83/MPI&#45;MSFEC</text>
<text text-anchor="middle" x="313" y="-15.8" font-family="Helvetica,sans-Serif" font-size="14.00">/source/main_ned_rt.cxx</text>
</a>
</g>
</g>
<!-- Node6&#45;&gt;Node7 -->
<g id="edge6" class="edge"><title>Node6&#45;&gt;Node7</title>
<path fill="none" stroke="midnightblue" d="M163.94,-101.393C194.127,-88.0491 227.484,-73.303 254.976,-61.1499"/>
<polygon fill="midnightblue" stroke="midnightblue" points="162.415,-98.2408 154.684,-105.485 165.245,-104.643 162.415,-98.2408"/>
</g>
<!-- Node8 -->
<g id="node8" class="node"><title>Node8</title>
<g id="a_node8"><a xlink:href="ned__rt__global_8cc.html" target="_top" xlink:title="/home/travis/build\l/konsim83/MPI&#45;MSFEC\l/source/Ned_RT/ned_rt\l_global.cc">
<polygon fill="white" stroke="black" points="0,-0.5 0,-68.5 160,-68.5 160,-0.5 0,-0.5"/>
<text text-anchor="start" x="8" y="-53.3" font-family="Helvetica,sans-Serif" font-size="14.00">/home/travis/build</text>
<text text-anchor="start" x="8" y="-38.3" font-family="Helvetica,sans-Serif" font-size="14.00">/konsim83/MPI&#45;MSFEC</text>
<text text-anchor="start" x="8" y="-23.3" font-family="Helvetica,sans-Serif" font-size="14.00">/source/Ned_RT/ned_rt</text>
<text text-anchor="middle" x="80" y="-8.3" font-family="Helvetica,sans-Serif" font-size="14.00">_global.cc</text>
</a>
</g>
</g>
<!-- Node6&#45;&gt;Node8 -->
<g id="edge7" class="edge"><title>Node6&#45;&gt;Node8</title>
<path fill="none" stroke="midnightblue" d="M80,-95.1362C80,-86.256 80,-77.0447 80,-68.5947"/>
<polygon fill="midnightblue" stroke="midnightblue" points="76.5001,-95.3432 80,-105.343 83.5001,-95.3432 76.5001,-95.3432"/>
</g>
<!-- Node9&#45;&gt;Node7 -->
<g id="edge10" class="edge"><title>Node9&#45;&gt;Node7</title>
<path fill="none" stroke="midnightblue" d="M348.375,-207.639C352.187,-179.385 354.915,-139.192 347,-105 343.456,-89.689 336.049,-73.8562 329.051,-61.1767"/>
<polygon fill="midnightblue" stroke="midnightblue" points="344.866,-207.444 346.881,-217.846 351.792,-208.458 344.866,-207.444"/>
</g>
<!-- Node10 -->
<g id="node10" class="node"><title>Node10</title>
<g id="a_node10"><a xlink:href="ned__rt__ref_8cc.html" target="_top" xlink:title="/home/travis/build\l/konsim83/MPI&#45;MSFEC\l/source/Ned_RT/ned_rt\l_ref.cc">
<polygon fill="white" stroke="black" points="178,-105.5 178,-173.5 338,-173.5 338,-105.5 178,-105.5"/>
<text text-anchor="start" x="186" y="-158.3" font-family="Helvetica,sans-Serif" font-size="14.00">/home/travis/build</text>
<text text-anchor="start" x="186" y="-143.3" font-family="Helvetica,sans-Serif" font-size="14.00">/konsim83/MPI&#45;MSFEC</text>
<text text-anchor="start" x="186" y="-128.3" font-family="Helvetica,sans-Serif" font-size="14.00">/source/Ned_RT/ned_rt</text>
<text text-anchor="middle" x="258" y="-113.3" font-family="Helvetica,sans-Serif" font-size="14.00">_ref.cc</text>
</a>
</g>
</g>
<!-- Node9&#45;&gt;Node10 -->
<g id="edge11" class="edge"><title>Node9&#45;&gt;Node10</title>
<path fill="none" stroke="midnightblue" d="M314.658,-209.973C305.163,-198.331 294.526,-185.288 285.055,-173.675"/>
<polygon fill="midnightblue" stroke="midnightblue" points="311.987,-212.237 321.02,-217.774 317.412,-207.813 311.987,-212.237"/>
</g>
<!-- Node12 -->
<g id="node12" class="node"><title>Node12</title>
<g id="a_node12"><a xlink:href="q__ned__basis_8cc.html" target="_top" xlink:title="/home/travis/build\l/konsim83/MPI&#45;MSFEC\l/source/Q_Ned/q_ned_basis.cc">
<polygon fill="white" stroke="black" points="572,-113 572,-166 778,-166 778,-113 572,-113"/>
<text text-anchor="start" x="580" y="-150.8" font-family="Helvetica,sans-Serif" font-size="14.00">/home/travis/build</text>
<text text-anchor="start" x="580" y="-135.8" font-family="Helvetica,sans-Serif" font-size="14.00">/konsim83/MPI&#45;MSFEC</text>
<text text-anchor="middle" x="675" y="-120.8" font-family="Helvetica,sans-Serif" font-size="14.00">/source/Q_Ned/q_ned_basis.cc</text>
</a>
</g>
</g>
<!-- Node11&#45;&gt;Node12 -->
<g id="edge13" class="edge"><title>Node11&#45;&gt;Node12</title>
<path fill="none" stroke="midnightblue" d="M721.631,-202.076C712.413,-189.904 702.603,-176.951 694.372,-166.081"/>
<polygon fill="midnightblue" stroke="midnightblue" points="719.064,-204.484 727.891,-210.343 724.644,-200.258 719.064,-204.484"/>
</g>
<!-- Node11&#45;&gt;Node13 -->
<g id="edge14" class="edge"><title>Node11&#45;&gt;Node13</title>
<path fill="none" stroke="midnightblue" d="M800.316,-203.878C812.262,-193.874 824.962,-183.239 836.479,-173.595"/>
<polygon fill="midnightblue" stroke="midnightblue" points="798.015,-201.24 792.595,-210.343 802.509,-206.606 798.015,-201.24"/>
</g>
<!-- Node14 -->
<g id="node14" class="node"><title>Node14</title>
<g id="a_node14"><a xlink:href="main__q__ned_8cxx.html" target="_top" xlink:title="/home/travis/build\l/konsim83/MPI&#45;MSFEC\l/source/main_q_ned.cxx">
<polygon fill="white" stroke="black" points="1055,-8 1055,-61 1219,-61 1219,-8 1055,-8"/>
<text text-anchor="start" x="1063" y="-45.8" font-family="Helvetica,sans-Serif" font-size="14.00">/home/travis/build</text>
<text text-anchor="start" x="1063" y="-30.8" font-family="Helvetica,sans-Serif" font-size="14.00">/konsim83/MPI&#45;MSFEC</text>
<text text-anchor="middle" x="1137" y="-15.8" font-family="Helvetica,sans-Serif" font-size="14.00">/source/main_q_ned.cxx</text>
</a>
</g>
</g>
<!-- Node13&#45;&gt;Node14 -->
<g id="edge15" class="edge"><title>Node13&#45;&gt;Node14</title>
<path fill="none" stroke="midnightblue" d="M965.387,-103.224C1000.52,-89.3584 1040.09,-73.7446 1072.37,-61.0064"/>
<polygon fill="midnightblue" stroke="midnightblue" points="964.099,-99.97 956.082,-106.897 966.669,-106.481 964.099,-99.97"/>
</g>
<!-- Node15 -->
<g id="node15" class="node"><title>Node15</title>
<g id="a_node15"><a xlink:href="q__ned__global_8cc.html" target="_top" xlink:title="/home/travis/build\l/konsim83/MPI&#45;MSFEC\l/source/Q_Ned/q_ned_global.cc">
<polygon fill="white" stroke="black" points="771,-8 771,-61 981,-61 981,-8 771,-8"/>
<text text-anchor="start" x="779" y="-45.8" font-family="Helvetica,sans-Serif" font-size="14.00">/home/travis/build</text>
<text text-anchor="start" x="779" y="-30.8" font-family="Helvetica,sans-Serif" font-size="14.00">/konsim83/MPI&#45;MSFEC</text>
<text text-anchor="middle" x="876" y="-15.8" font-family="Helvetica,sans-Serif" font-size="14.00">/source/Q_Ned/q_ned_global.cc</text>
</a>
</g>
</g>
<!-- Node13&#45;&gt;Node15 -->
<g id="edge16" class="edge"><title>Node13&#45;&gt;Node15</title>
<path fill="none" stroke="midnightblue" d="M876,-95.3157C876,-83.6635 876,-71.4279 876,-61.0806"/>
<polygon fill="midnightblue" stroke="midnightblue" points="872.5,-95.3432 876,-105.343 879.5,-95.3432 872.5,-95.3432"/>
</g>
<!-- Node16&#45;&gt;Node14 -->
<g id="edge19" class="edge"><title>Node16&#45;&gt;Node14</title>
<path fill="none" stroke="midnightblue" d="M1144.06,-211.325C1155.72,-200.915 1166.64,-188.309 1173,-174 1189.7,-136.428 1169.76,-89.5502 1153.58,-61.1019"/>
<polygon fill="midnightblue" stroke="midnightblue" points="1141.73,-208.72 1136.34,-217.845 1146.24,-214.068 1141.73,-208.72"/>
</g>
<!-- Node17 -->
<g id="node17" class="node"><title>Node17</title>
<g id="a_node17"><a xlink:href="q__ned__ref_8cc.html" target="_top" xlink:title="/home/travis/build\l/konsim83/MPI&#45;MSFEC\l/source/Q_Ned/q_ned_ref.cc">
<polygon fill="white" stroke="black" points="974,-113 974,-166 1164,-166 1164,-113 974,-113"/>
<text text-anchor="start" x="982" y="-150.8" font-family="Helvetica,sans-Serif" font-size="14.00">/home/travis/build</text>
<text text-anchor="start" x="982" y="-135.8" font-family="Helvetica,sans-Serif" font-size="14.00">/konsim83/MPI&#45;MSFEC</text>
<text text-anchor="middle" x="1069" y="-120.8" font-family="Helvetica,sans-Serif" font-size="14.00">/source/Q_Ned/q_ned_ref.cc</text>
</a>
</g>
</g>
<!-- Node16&#45;&gt;Node17 -->
<g id="edge20" class="edge"><title>Node16&#45;&gt;Node17</title>
<path fill="none" stroke="midnightblue" d="M1086.62,-207.726C1083.04,-194.075 1079.04,-178.794 1075.75,-166.255"/>
<polygon fill="midnightblue" stroke="midnightblue" points="1083.34,-208.989 1089.26,-217.774 1090.11,-207.214 1083.34,-208.989"/>
</g>
<!-- Node19 -->
<g id="node19" class="node"><title>Node19</title>
<g id="a_node19"><a xlink:href="rt__dq__basis_8cc.html" target="_top" xlink:title="/home/travis/build\l/konsim83/MPI&#45;MSFEC\l/source/RT_DQ/rt_dq_basis.cc">
<polygon fill="white" stroke="black" points="1220,-113 1220,-166 1422,-166 1422,-113 1220,-113"/>
<text text-anchor="start" x="1228" y="-150.8" font-family="Helvetica,sans-Serif" font-size="14.00">/home/travis/build</text>
<text text-anchor="start" x="1228" y="-135.8" font-family="Helvetica,sans-Serif" font-size="14.00">/konsim83/MPI&#45;MSFEC</text>
<text text-anchor="middle" x="1321" y="-120.8" font-family="Helvetica,sans-Serif" font-size="14.00">/source/RT_DQ/rt_dq_basis.cc</text>
</a>
</g>
</g>
<!-- Node18&#45;&gt;Node19 -->
<g id="edge22" class="edge"><title>Node18&#45;&gt;Node19</title>
<path fill="none" stroke="midnightblue" d="M1301.14,-200.669C1305.02,-188.911 1309.11,-176.532 1312.56,-166.081"/>
<polygon fill="midnightblue" stroke="midnightblue" points="1297.76,-199.75 1297.94,-210.343 1304.4,-201.944 1297.76,-199.75"/>
</g>
<!-- Node18&#45;&gt;Node20 -->
<g id="edge23" class="edge"><title>Node18&#45;&gt;Node20</title>
<path fill="none" stroke="midnightblue" d="M1370.9,-206.412C1395.23,-195.658 1421.62,-183.991 1445.34,-173.505"/>
<polygon fill="midnightblue" stroke="midnightblue" points="1369.42,-203.241 1361.68,-210.485 1372.25,-209.643 1369.42,-203.241"/>
</g>
<!-- Node21 -->
<g id="node21" class="node"><title>Node21</title>
<g id="a_node21"><a xlink:href="main__rt__dq_8cxx.html" target="_top" xlink:title="/home/travis/build\l/konsim83/MPI&#45;MSFEC\l/source/main_rt_dq.cxx">
<polygon fill="white" stroke="black" points="1548,-8 1548,-61 1708,-61 1708,-8 1548,-8"/>
<text text-anchor="start" x="1556" y="-45.8" font-family="Helvetica,sans-Serif" font-size="14.00">/home/travis/build</text>
<text text-anchor="start" x="1556" y="-30.8" font-family="Helvetica,sans-Serif" font-size="14.00">/konsim83/MPI&#45;MSFEC</text>
<text text-anchor="middle" x="1628" y="-15.8" font-family="Helvetica,sans-Serif" font-size="14.00">/source/main_rt_dq.cxx</text>
</a>
</g>
</g>
<!-- Node20&#45;&gt;Node21 -->
<g id="edge24" class="edge"><title>Node20&#45;&gt;Node21</title>
<path fill="none" stroke="midnightblue" d="M1562.33,-98.1277C1575.41,-85.6533 1589.45,-72.2641 1601.18,-61.0806"/>
<polygon fill="midnightblue" stroke="midnightblue" points="1559.59,-95.9088 1554.77,-105.343 1564.42,-100.974 1559.59,-95.9088"/>
</g>
<!-- Node22 -->
<g id="node22" class="node"><title>Node22</title>
<g id="a_node22"><a xlink:href="rt__dq__global_8cc.html" target="_top" xlink:title="/home/travis/build\l/konsim83/MPI&#45;MSFEC\l/source/RT_DQ/rt_dq_global.cc">
<polygon fill="white" stroke="black" points="1324,-8 1324,-61 1530,-61 1530,-8 1324,-8"/>
<text text-anchor="start" x="1332" y="-45.8" font-family="Helvetica,sans-Serif" font-size="14.00">/home/travis/build</text>
<text text-anchor="start" x="1332" y="-30.8" font-family="Helvetica,sans-Serif" font-size="14.00">/konsim83/MPI&#45;MSFEC</text>
<text text-anchor="middle" x="1427" y="-15.8" font-family="Helvetica,sans-Serif" font-size="14.00">/source/RT_DQ/rt_dq_global.cc</text>
</a>
</g>
</g>
<!-- Node20&#45;&gt;Node22 -->
<g id="edge25" class="edge"><title>Node20&#45;&gt;Node22</title>
<path fill="none" stroke="midnightblue" d="M1483.23,-97.7777C1472.06,-85.4032 1460.1,-72.1596 1450.1,-61.0806"/>
<polygon fill="midnightblue" stroke="midnightblue" points="1480.76,-100.267 1490.06,-105.343 1485.96,-95.5754 1480.76,-100.267"/>
</g>
<!-- Node23&#45;&gt;Node21 -->
<g id="edge28" class="edge"><title>Node23&#45;&gt;Node21</title>
<path fill="none" stroke="midnightblue" d="M1585.72,-209.983C1594.66,-199.295 1603.38,-186.878 1609,-174 1625.12,-137.076 1628.32,-89.8028 1628.58,-61.1272"/>
<polygon fill="midnightblue" stroke="midnightblue" points="1582.83,-207.966 1578.88,-217.797 1588.1,-212.574 1582.83,-207.966"/>
</g>
<!-- Node24 -->
<g id="node24" class="node"><title>Node24</title>
<g id="a_node24"><a xlink:href="rt__dq__ref_8cc.html" target="_top" xlink:title="/home/travis/build\l/konsim83/MPI&#45;MSFEC\l/source/RT_DQ/rt_dq_ref.cc">
<polygon fill="white" stroke="black" points="1656,-113 1656,-166 1842,-166 1842,-113 1656,-113"/>
<text text-anchor="start" x="1664" y="-150.8" font-family="Helvetica,sans-Serif" font-size="14.00">/home/travis/build</text>
<text text-anchor="start" x="1664" y="-135.8" font-family="Helvetica,sans-Serif" font-size="14.00">/konsim83/MPI&#45;MSFEC</text>
<text text-anchor="middle" x="1749" y="-120.8" font-family="Helvetica,sans-Serif" font-size="14.00">/source/RT_DQ/rt_dq_ref.cc</text>
</a>
</g>
</g>
<!-- Node23&#45;&gt;Node24 -->
<g id="edge29" class="edge"><title>Node23&#45;&gt;Node24</title>
<path fill="none" stroke="midnightblue" d="M1610.02,-213.164C1638.61,-198.219 1672.7,-180.394 1699.96,-166.14"/>
<polygon fill="midnightblue" stroke="midnightblue" points="1608.19,-210.172 1600.95,-217.907 1611.43,-216.375 1608.19,-210.172"/>
</g>
<!-- Node25&#45;&gt;Node4 -->
<g id="edge31" class="edge"><title>Node25&#45;&gt;Node4</title>
<path fill="none" stroke="midnightblue" d="M948.785,-314.903C823.758,-285.168 786.577,-302.772 664,-279 648.778,-276.048 632.682,-272.3 617.25,-268.388"/>
<polygon fill="midnightblue" stroke="midnightblue" points="948.194,-318.361 958.738,-317.325 949.849,-311.56 948.194,-318.361"/>
</g>
<!-- Node25&#45;&gt;Node6 -->
<g id="edge32" class="edge"><title>Node25&#45;&gt;Node6</title>
<path fill="none" stroke="midnightblue" d="M975.503,-310.003C960.073,-300.206 943.768,-289.477 929,-279 888.748,-250.446 888.153,-227.477 842,-210 701.936,-156.963 315.581,-204.74 169,-174 166.092,-173.39 163.152,-172.7 160.2,-171.945"/>
<polygon fill="midnightblue" stroke="midnightblue" points="973.645,-312.969 983.971,-315.343 977.379,-307.048 973.645,-312.969"/>
</g>
<!-- Node25&#45;&gt;Node9 -->
<g id="edge33" class="edge"><title>Node25&#45;&gt;Node9</title>
<path fill="none" stroke="midnightblue" d="M948.901,-314.992C729.601,-268.662 664.489,-320.376 448,-279 437.195,-276.935 425.946,-274.129 414.987,-271.013"/>
<polygon fill="midnightblue" stroke="midnightblue" points="948.272,-318.436 958.785,-317.124 949.748,-311.594 948.272,-318.436"/>
</g>
<!-- Node25&#45;&gt;Node11 -->
<g id="edge34" class="edge"><title>Node25&#45;&gt;Node11</title>
<path fill="none" stroke="midnightblue" d="M949.523,-314.852C902.876,-298.009 889.96,-294.163 847,-279 842.507,-277.414 837.895,-275.783 833.241,-274.133"/>
<polygon fill="midnightblue" stroke="midnightblue" points="948.385,-318.163 958.98,-318.278 950.769,-311.581 948.385,-318.163"/>
</g>
<!-- Node25&#45;&gt;Node13 -->
<g id="edge35" class="edge"><title>Node25&#45;&gt;Node13</title>
<path fill="none" stroke="midnightblue" d="M1006.51,-307.035C975.855,-267.922 930.496,-210.04 902.124,-173.836"/>
<polygon fill="midnightblue" stroke="midnightblue" points="1003.89,-309.369 1012.81,-315.081 1009.4,-305.051 1003.89,-309.369"/>
</g>
<!-- Node25&#45;&gt;Node16 -->
<g id="edge36" class="edge"><title>Node25&#45;&gt;Node16</title>
<path fill="none" stroke="midnightblue" d="M1062.31,-306.373C1068.94,-294.407 1075.94,-281.741 1081.84,-271.081"/>
<polygon fill="midnightblue" stroke="midnightblue" points="1059.13,-304.899 1057.35,-315.343 1065.25,-308.288 1059.13,-304.899"/>
</g>
<!-- Node25&#45;&gt;Node18 -->
<g id="edge37" class="edge"><title>Node25&#45;&gt;Node18</title>
<path fill="none" stroke="midnightblue" d="M1127.96,-311.554C1153.95,-300.761 1182.17,-289.037 1207.53,-278.505"/>
<polygon fill="midnightblue" stroke="midnightblue" points="1126.38,-308.417 1118.49,-315.485 1129.07,-314.882 1126.38,-308.417"/>
</g>
<!-- Node25&#45;&gt;Node20 -->
<g id="edge38" class="edge"><title>Node25&#45;&gt;Node20</title>
<path fill="none" stroke="midnightblue" d="M1129.22,-338.016C1215.07,-326.615 1336.81,-306.303 1376,-279 1405.65,-258.346 1394.04,-236.124 1419,-210 1431.94,-196.458 1447.92,-184.014 1463.32,-173.513"/>
<polygon fill="midnightblue" stroke="midnightblue" points="1128.66,-334.56 1119.2,-339.329 1129.56,-341.501 1128.66,-334.56"/>
</g>
<!-- Node25&#45;&gt;Node23 -->
<g id="edge39" class="edge"><title>Node25&#45;&gt;Node23</title>
<path fill="none" stroke="midnightblue" d="M1129.22,-332.71C1204.27,-319.297 1313.83,-299.076 1409,-279 1425.84,-275.448 1443.74,-271.439 1460.97,-267.463"/>
<polygon fill="midnightblue" stroke="midnightblue" points="1128.55,-329.274 1119.32,-334.475 1129.78,-336.165 1128.55,-329.274"/>
</g>
</g>
</svg>
