<?xml version="1.0" encoding="UTF-8" standalone="no"?>
<!DOCTYPE svg PUBLIC "-//W3C//DTD SVG 1.1//EN"
 "http://www.w3.org/Graphics/SVG/1.1/DTD/svg11.dtd">
<!-- Generated by graphviz version 2.38.0 (20140413.2041)
 -->
<!-- Title: /home/travis/build/konsim83/MPI&#45;MSFEC/include/linear_algebra/inverse_matrix.h Pages: 1 -->
<svg width="1832pt" height="227pt"
 viewBox="0.00 0.00 1832.00 227.00" xmlns="http://www.w3.org/2000/svg" xmlns:xlink="http://www.w3.org/1999/xlink">
<g id="graph0" class="graph" transform="scale(1 1) rotate(0) translate(4 223)">
<title>/home/travis/build/konsim83/MPI&#45;MSFEC/include/linear_algebra/inverse_matrix.h</title>
<polygon fill="white" stroke="none" points="-4,4 -4,-223 1828,-223 1828,4 -4,4"/>
<!-- Node1 -->
<g id="node1" class="node"><title>Node1</title>
<polygon fill="#bfbfbf" stroke="black" points="940.5,-150.5 940.5,-218.5 1100.5,-218.5 1100.5,-150.5 940.5,-150.5"/>
<text text-anchor="start" x="948.5" y="-203.3" font-family="Helvetica,sans-Serif" font-size="14.00">/home/travis/build</text>
<text text-anchor="start" x="948.5" y="-188.3" font-family="Helvetica,sans-Serif" font-size="14.00">/konsim83/MPI&#45;MSFEC</text>
<text text-anchor="start" x="948.5" y="-173.3" font-family="Helvetica,sans-Serif" font-size="14.00">/include/linear_algebra</text>
<text text-anchor="middle" x="1020.5" y="-158.3" font-family="Helvetica,sans-Serif" font-size="14.00">/inverse_matrix.h</text>
</g>
<!-- Node2 -->
<g id="node2" class="node"><title>Node2</title>
<polygon fill="white" stroke="#bfbfbf" points="-1.42109e-14,-83 -1.42109e-14,-106 167,-106 167,-83 -1.42109e-14,-83"/>
<text text-anchor="middle" x="83.5" y="-90.8" font-family="Helvetica,sans-Serif" font-size="14.00">deal.II/base/subscriptor.h</text>
</g>
<!-- Node1&#45;&gt;Node2 -->
<g id="edge1" class="edge"><title>Node1&#45;&gt;Node2</title>
<path fill="none" stroke="midnightblue" d="M940.454,-179.959C790.154,-172.635 455.689,-153.133 176.5,-114 165.026,-112.392 152.831,-110.269 141.179,-108.037"/>
<polygon fill="midnightblue" stroke="midnightblue" points="141.599,-104.553 131.112,-106.057 140.248,-111.421 141.599,-104.553"/>
</g>
<!-- Node3 -->
<g id="node3" class="node"><title>Node3</title>
<polygon fill="white" stroke="#bfbfbf" points="185,-83 185,-106 388,-106 388,-83 185,-83"/>
<text text-anchor="middle" x="286.5" y="-90.8" font-family="Helvetica,sans-Serif" font-size="14.00">deal.II/lac/petsc_precondition.h</text>
</g>
<!-- Node1&#45;&gt;Node3 -->
<g id="edge2" class="edge"><title>Node1&#45;&gt;Node3</title>
<path fill="none" stroke="midnightblue" d="M940.175,-175.94C821.343,-164.439 591.799,-141.009 397.5,-114 384.031,-112.128 369.68,-109.906 355.923,-107.663"/>
<polygon fill="midnightblue" stroke="midnightblue" points="356.468,-104.206 346.032,-106.031 355.329,-111.112 356.468,-104.206"/>
</g>
<!-- Node4 -->
<g id="node4" class="node"><title>Node4</title>
<polygon fill="white" stroke="#bfbfbf" points="406,-83 406,-106 571,-106 571,-83 406,-83"/>
<text text-anchor="middle" x="488.5" y="-90.8" font-family="Helvetica,sans-Serif" font-size="14.00">deal.II/lac/petsc_solver.h</text>
</g>
<!-- Node1&#45;&gt;Node4 -->
<g id="edge3" class="edge"><title>Node1&#45;&gt;Node4</title>
<path fill="none" stroke="midnightblue" d="M940.443,-171.882C852.134,-158.827 705.908,-136.503 580.5,-114 570.292,-112.168 559.472,-110.104 548.976,-108.035"/>
<polygon fill="midnightblue" stroke="midnightblue" points="549.533,-104.578 539.043,-106.058 548.167,-111.443 549.533,-104.578"/>
</g>
<!-- Node5 -->
<g id="node5" class="node"><title>Node5</title>
<polygon fill="white" stroke="#bfbfbf" points="589,-83 589,-106 714,-106 714,-83 589,-83"/>
<text text-anchor="middle" x="651.5" y="-90.8" font-family="Helvetica,sans-Serif" font-size="14.00">deal.II/lac/solver.h</text>
</g>
<!-- Node1&#45;&gt;Node5 -->
<g id="edge4" class="edge"><title>Node1&#45;&gt;Node5</title>
<path fill="none" stroke="midnightblue" d="M940.343,-165.237C880.509,-151.485 796.786,-131.988 723.5,-114 716.434,-112.266 708.988,-110.398 701.673,-108.54"/>
<polygon fill="midnightblue" stroke="midnightblue" points="702.382,-105.109 691.826,-106.025 700.649,-111.891 702.382,-105.109"/>
</g>
<!-- Node6 -->
<g id="node6" class="node"><title>Node6</title>
<polygon fill="white" stroke="#bfbfbf" points="732,-83 732,-106 879,-106 879,-83 732,-83"/>
<text text-anchor="middle" x="805.5" y="-90.8" font-family="Helvetica,sans-Serif" font-size="14.00">deal.II/lac/solver_cg.h</text>
</g>
<!-- Node1&#45;&gt;Node6 -->
<g id="edge5" class="edge"><title>Node1&#45;&gt;Node6</title>
<path fill="none" stroke="midnightblue" d="M940.442,-150.732C906.097,-136.675 867.747,-120.978 840.734,-109.922"/>
<polygon fill="midnightblue" stroke="midnightblue" points="841.904,-106.619 831.324,-106.07 839.253,-113.097 841.904,-106.619"/>
</g>
<!-- Node7 -->
<g id="node7" class="node"><title>Node7</title>
<polygon fill="white" stroke="#bfbfbf" points="897.5,-75.5 897.5,-113.5 1011.5,-113.5 1011.5,-75.5 897.5,-75.5"/>
<text text-anchor="start" x="905.5" y="-98.3" font-family="Helvetica,sans-Serif" font-size="14.00">deal.II/lac/solver</text>
<text text-anchor="middle" x="954.5" y="-83.3" font-family="Helvetica,sans-Serif" font-size="14.00">_gmres.h</text>
</g>
<!-- Node1&#45;&gt;Node7 -->
<g id="edge6" class="edge"><title>Node1&#45;&gt;Node7</title>
<path fill="none" stroke="midnightblue" d="M995.736,-150.482C988.64,-141.02 981.001,-130.835 974.25,-121.833"/>
<polygon fill="midnightblue" stroke="midnightblue" points="976.895,-119.527 968.095,-113.627 971.295,-123.727 976.895,-119.527"/>
</g>
<!-- Node8 -->
<g id="node8" class="node"><title>Node8</title>
<polygon fill="white" stroke="#bfbfbf" points="1029.5,-75.5 1029.5,-113.5 1143.5,-113.5 1143.5,-75.5 1029.5,-75.5"/>
<text text-anchor="start" x="1037.5" y="-98.3" font-family="Helvetica,sans-Serif" font-size="14.00">deal.II/lac/solver</text>
<text text-anchor="middle" x="1086.5" y="-83.3" font-family="Helvetica,sans-Serif" font-size="14.00">_minres.h</text>
</g>
<!-- Node1&#45;&gt;Node8 -->
<g id="edge7" class="edge"><title>Node1&#45;&gt;Node8</title>
<path fill="none" stroke="midnightblue" d="M1045.26,-150.482C1052.36,-141.02 1060,-130.835 1066.75,-121.833"/>
<polygon fill="midnightblue" stroke="midnightblue" points="1069.7,-123.727 1072.9,-113.627 1064.1,-119.527 1069.7,-123.727"/>
</g>
<!-- Node9 -->
<g id="node9" class="node"><title>Node9</title>
<polygon fill="white" stroke="#bfbfbf" points="1162,-75.5 1162,-113.5 1279,-113.5 1279,-75.5 1162,-75.5"/>
<text text-anchor="start" x="1170" y="-98.3" font-family="Helvetica,sans-Serif" font-size="14.00">deal.II/lac/trilinos</text>
<text text-anchor="middle" x="1220.5" y="-83.3" font-family="Helvetica,sans-Serif" font-size="14.00">_precondition.h</text>
</g>
<!-- Node1&#45;&gt;Node9 -->
<g id="edge8" class="edge"><title>Node1&#45;&gt;Node9</title>
<path fill="none" stroke="midnightblue" d="M1095.54,-150.482C1120.47,-139.514 1147.6,-127.575 1170.2,-117.633"/>
<polygon fill="midnightblue" stroke="midnightblue" points="1171.84,-120.734 1179.59,-113.503 1169.02,-114.326 1171.84,-120.734"/>
</g>
<!-- Node10 -->
<g id="node10" class="node"><title>Node10</title>
<polygon fill="white" stroke="#bfbfbf" points="1297,-75.5 1297,-113.5 1414,-113.5 1414,-75.5 1297,-75.5"/>
<text text-anchor="start" x="1305" y="-98.3" font-family="Helvetica,sans-Serif" font-size="14.00">deal.II/lac/trilinos</text>
<text text-anchor="middle" x="1355.5" y="-83.3" font-family="Helvetica,sans-Serif" font-size="14.00">_solver.h</text>
</g>
<!-- Node1&#45;&gt;Node10 -->
<g id="edge9" class="edge"><title>Node1&#45;&gt;Node10</title>
<path fill="none" stroke="midnightblue" d="M1100.62,-163.071C1151.43,-150.036 1218.8,-132.6 1286.67,-114.474"/>
<polygon fill="midnightblue" stroke="midnightblue" points="1287.93,-117.76 1296.69,-111.795 1286.12,-110.998 1287.93,-117.76"/>
</g>
<!-- Node11 -->
<g id="node11" class="node"><title>Node11</title>
<polygon fill="white" stroke="#bfbfbf" points="1432,-83 1432,-106 1499,-106 1499,-83 1432,-83"/>
<text text-anchor="middle" x="1465.5" y="-90.8" font-family="Helvetica,sans-Serif" font-size="14.00">memory</text>
</g>
<!-- Node1&#45;&gt;Node11 -->
<g id="edge10" class="edge"><title>Node1&#45;&gt;Node11</title>
<path fill="none" stroke="midnightblue" d="M1100.59,-175.523C1182.88,-165.979 1314.06,-146.997 1423.5,-114 1427.15,-112.9 1430.9,-111.566 1434.58,-110.123"/>
<polygon fill="midnightblue" stroke="midnightblue" points="1436.22,-113.234 1444.08,-106.137 1433.51,-106.779 1436.22,-113.234"/>
</g>
<!-- Node12 -->
<g id="node12" class="node"><title>Node12</title>
<g id="a_node12"><a xlink:href="config_8h.html" target="_top" xlink:title="config.h">
<polygon fill="white" stroke="black" points="1517.5,-83 1517.5,-106 1581.5,-106 1581.5,-83 1517.5,-83"/>
<text text-anchor="middle" x="1549.5" y="-90.8" font-family="Helvetica,sans-Serif" font-size="14.00">config.h</text>
</a>
</g>
</g>
<!-- Node1&#45;&gt;Node12 -->
<g id="edge11" class="edge"><title>Node1&#45;&gt;Node12</title>
<path fill="none" stroke="midnightblue" d="M1100.55,-179.04C1198.44,-172.013 1368.38,-154.697 1508.5,-114 1512.17,-112.935 1515.93,-111.603 1519.61,-110.144"/>
<polygon fill="midnightblue" stroke="midnightblue" points="1521.27,-113.243 1529.07,-106.082 1518.5,-106.81 1521.27,-113.243"/>
</g>
<!-- Node20 -->
<g id="node20" class="node"><title>Node20</title>
<g id="a_node20"><a xlink:href="inverse__matrix_8tpp.html" target="_top" xlink:title="linear_algebra/inverse\l_matrix.tpp">
<polygon fill="white" stroke="black" points="1599,-75.5 1599,-113.5 1748,-113.5 1748,-75.5 1599,-75.5"/>
<text text-anchor="start" x="1607" y="-98.3" font-family="Helvetica,sans-Serif" font-size="14.00">linear_algebra/inverse</text>
<text text-anchor="middle" x="1673.5" y="-83.3" font-family="Helvetica,sans-Serif" font-size="14.00">_matrix.tpp</text>
</a>
</g>
</g>
<!-- Node1&#45;&gt;Node20 -->
<g id="edge19" class="edge"><title>Node1&#45;&gt;Node20</title>
<path fill="none" stroke="midnightblue" d="M1100.63,-176.229C1209.27,-165.813 1409.45,-144.648 1589.02,-114.178"/>
<polygon fill="midnightblue" stroke="midnightblue" points="1589.64,-117.623 1598.91,-112.487 1588.46,-110.723 1589.64,-117.623"/>
</g>
<!-- Node13 -->
<g id="node13" class="node"><title>Node13</title>
<polygon fill="white" stroke="#bfbfbf" points="1148.5,-8 1148.5,-31 1272.5,-31 1272.5,-8 1148.5,-8"/>
<text text-anchor="middle" x="1210.5" y="-15.8" font-family="Helvetica,sans-Serif" font-size="14.00">deal.II/base/mpi.h</text>
</g>
<!-- Node12&#45;&gt;Node13 -->
<g id="edge12" class="edge"><title>Node12&#45;&gt;Node13</title>
<path fill="none" stroke="midnightblue" d="M1529.05,-82.9848C1522.61,-80.0265 1515.38,-77.0583 1508.5,-75 1410.63,-45.7339 1381.49,-59.9031 1281.5,-39 1273.87,-37.4055 1265.84,-35.5167 1258.02,-33.5653"/>
<polygon fill="midnightblue" stroke="midnightblue" points="1258.85,-30.1634 1248.29,-31.0775 1257.11,-36.9453 1258.85,-30.1634"/>
</g>
<!-- Node14 -->
<g id="node14" class="node"><title>Node14</title>
<polygon fill="white" stroke="#bfbfbf" points="1290.5,-0.5 1290.5,-38.5 1412.5,-38.5 1412.5,-0.5 1290.5,-0.5"/>
<text text-anchor="start" x="1298.5" y="-23.3" font-family="Helvetica,sans-Serif" font-size="14.00">deal.II/lac/generic</text>
<text text-anchor="middle" x="1351.5" y="-8.3" font-family="Helvetica,sans-Serif" font-size="14.00">_linear_algebra.h</text>
</g>
<!-- Node12&#45;&gt;Node14 -->
<g id="edge13" class="edge"><title>Node12&#45;&gt;Node14</title>
<path fill="none" stroke="midnightblue" d="M1527.1,-82.9551C1521.1,-80.2531 1514.59,-77.427 1508.5,-75 1478.89,-63.2068 1445.59,-51.4427 1417.31,-41.8788"/>
<polygon fill="midnightblue" stroke="midnightblue" points="1418.13,-38.46 1407.53,-38.5912 1415.9,-45.0951 1418.13,-38.46"/>
</g>
<!-- Node15 -->
<g id="node15" class="node"><title>Node15</title>
<polygon fill="white" stroke="#bfbfbf" points="1431,-8 1431,-31 1504,-31 1504,-8 1431,-8"/>
<text text-anchor="middle" x="1467.5" y="-15.8" font-family="Helvetica,sans-Serif" font-size="14.00">algorithm</text>
</g>
<!-- Node12&#45;&gt;Node15 -->
<g id="edge14" class="edge"><title>Node12&#45;&gt;Node15</title>
<path fill="none" stroke="midnightblue" d="M1537.4,-82.7286C1524.12,-70.9079 1502.62,-51.7622 1486.96,-37.8252"/>
<polygon fill="midnightblue" stroke="midnightblue" points="1489.18,-35.1134 1479.38,-31.0783 1484.52,-40.3418 1489.18,-35.1134"/>
</g>
<!-- Node16 -->
<g id="node16" class="node"><title>Node16</title>
<polygon fill="white" stroke="#bfbfbf" points="1522.5,-8 1522.5,-31 1576.5,-31 1576.5,-8 1522.5,-8"/>
<text text-anchor="middle" x="1549.5" y="-15.8" font-family="Helvetica,sans-Serif" font-size="14.00">cmath</text>
</g>
<!-- Node12&#45;&gt;Node16 -->
<g id="edge15" class="edge"><title>Node12&#45;&gt;Node16</title>
<path fill="none" stroke="midnightblue" d="M1549.5,-82.7286C1549.5,-71.9459 1549.5,-55.0681 1549.5,-41.6087"/>
<polygon fill="midnightblue" stroke="midnightblue" points="1553,-41.3156 1549.5,-31.3156 1546,-41.3156 1553,-41.3156"/>
</g>
<!-- Node17 -->
<g id="node17" class="node"><title>Node17</title>
<polygon fill="white" stroke="#bfbfbf" points="1595,-8 1595,-31 1660,-31 1660,-8 1595,-8"/>
<text text-anchor="middle" x="1627.5" y="-15.8" font-family="Helvetica,sans-Serif" font-size="14.00">iomanip</text>
</g>
<!-- Node12&#45;&gt;Node17 -->
<g id="edge16" class="edge"><title>Node12&#45;&gt;Node17</title>
<path fill="none" stroke="midnightblue" d="M1561.01,-82.7286C1573.52,-71.0164 1593.72,-52.1129 1608.58,-38.2101"/>
<polygon fill="midnightblue" stroke="midnightblue" points="1611.29,-40.4669 1616.2,-31.0783 1606.5,-35.356 1611.29,-40.4669"/>
</g>
<!-- Node18 -->
<g id="node18" class="node"><title>Node18</title>
<polygon fill="white" stroke="#bfbfbf" points="1678.5,-8 1678.5,-31 1726.5,-31 1726.5,-8 1678.5,-8"/>
<text text-anchor="middle" x="1702.5" y="-15.8" font-family="Helvetica,sans-Serif" font-size="14.00">limits</text>
</g>
<!-- Node12&#45;&gt;Node18 -->
<g id="edge17" class="edge"><title>Node12&#45;&gt;Node18</title>
<path fill="none" stroke="midnightblue" d="M1572.9,-82.9353C1606.49,-67.7596 1664.87,-41.3447 1669.5,-39 1671.3,-38.0878 1673.15,-37.1278 1675,-36.1447"/>
<polygon fill="midnightblue" stroke="midnightblue" points="1677.05,-39.014 1684.15,-31.1503 1673.69,-32.8698 1677.05,-39.014"/>
</g>
<!-- Node19 -->
<g id="node19" class="node"><title>Node19</title>
<polygon fill="white" stroke="#bfbfbf" points="1745,-8 1745,-31 1824,-31 1824,-8 1745,-8"/>
<text text-anchor="middle" x="1784.5" y="-15.8" font-family="Helvetica,sans-Serif" font-size="14.00">type_traits</text>
</g>
<!-- Node12&#45;&gt;Node19 -->
<g id="edge18" class="edge"><title>Node12&#45;&gt;Node19</title>
<path fill="none" stroke="midnightblue" d="M1570.91,-82.9626C1577.13,-80.1396 1584.01,-77.2503 1590.5,-75 1653.24,-53.2565 1672.11,-58.7611 1735.5,-39 1739.82,-37.6546 1744.3,-36.1339 1748.73,-34.5569"/>
<polygon fill="midnightblue" stroke="midnightblue" points="1750.07,-37.7944 1758.25,-31.0605 1747.66,-31.2238 1750.07,-37.7944"/>
</g>
</g>
</svg>
