<?xml version="1.0" encoding="UTF-8" standalone="no"?>
<!DOCTYPE svg PUBLIC "-//W3C//DTD SVG 1.1//EN"
 "http://www.w3.org/Graphics/SVG/1.1/DTD/svg11.dtd">
<!-- Generated by graphviz version 2.38.0 (20140413.2041)
 -->
<!-- Title: /home/travis/build/konsim83/MPI&#45;MSFEC/include/my_other_tools.h Pages: 1 -->
<svg width="242pt" height="122pt"
 viewBox="0.00 0.00 242.00 122.00" xmlns="http://www.w3.org/2000/svg" xmlns:xlink="http://www.w3.org/1999/xlink">
<g id="graph0" class="graph" transform="scale(1 1) rotate(0) translate(4 118)">
<title>/home/travis/build/konsim83/MPI&#45;MSFEC/include/my_other_tools.h</title>
<polygon fill="white" stroke="none" points="-4,4 -4,-118 238,-118 238,4 -4,4"/>
<!-- Node1 -->
<g id="node1" class="node"><title>Node1</title>
<polygon fill="#bfbfbf" stroke="black" points="43.5,-60.5 43.5,-113.5 214.5,-113.5 214.5,-60.5 43.5,-60.5"/>
<text text-anchor="start" x="51.5" y="-98.3" font-family="Helvetica,sans-Serif" font-size="14.00">/home/travis/build</text>
<text text-anchor="start" x="51.5" y="-83.3" font-family="Helvetica,sans-Serif" font-size="14.00">/konsim83/MPI&#45;MSFEC</text>
<text text-anchor="middle" x="129" y="-68.3" font-family="Helvetica,sans-Serif" font-size="14.00">/include/my_other_tools.h</text>
</g>
<!-- Node2 -->
<g id="node2" class="node"><title>Node2</title>
<polygon fill="white" stroke="#bfbfbf" points="0,-0.5 0,-23.5 74,-23.5 74,-0.5 0,-0.5"/>
<text text-anchor="middle" x="37" y="-8.3" font-family="Helvetica,sans-Serif" font-size="14.00">sys/stat.h</text>
</g>
<!-- Node1&#45;&gt;Node2 -->
<g id="edge1" class="edge"><title>Node1&#45;&gt;Node2</title>
<path fill="none" stroke="midnightblue" d="M96.8229,-60.4681C84.1051,-50.3769 69.8333,-39.0525 58.4199,-29.9963"/>
<polygon fill="midnightblue" stroke="midnightblue" points="60.3314,-27.045 50.3223,-23.5709 55.9803,-32.5285 60.3314,-27.045"/>
</g>
<!-- Node3 -->
<g id="node3" class="node"><title>Node3</title>
<polygon fill="white" stroke="#bfbfbf" points="92,-0.5 92,-23.5 166,-23.5 166,-0.5 92,-0.5"/>
<text text-anchor="middle" x="129" y="-8.3" font-family="Helvetica,sans-Serif" font-size="14.00">stdexcept</text>
</g>
<!-- Node1&#45;&gt;Node3 -->
<g id="edge2" class="edge"><title>Node1&#45;&gt;Node3</title>
<path fill="none" stroke="midnightblue" d="M129,-60.4681C129,-51.762 129,-42.138 129,-33.8444"/>
<polygon fill="midnightblue" stroke="midnightblue" points="132.5,-33.5709 129,-23.5709 125.5,-33.571 132.5,-33.5709"/>
</g>
<!-- Node4 -->
<g id="node4" class="node"><title>Node4</title>
<polygon fill="white" stroke="#bfbfbf" points="184,-0.5 184,-23.5 234,-23.5 234,-0.5 184,-0.5"/>
<text text-anchor="middle" x="209" y="-8.3" font-family="Helvetica,sans-Serif" font-size="14.00">string</text>
</g>
<!-- Node1&#45;&gt;Node4 -->
<g id="edge3" class="edge"><title>Node1&#45;&gt;Node4</title>
<path fill="none" stroke="midnightblue" d="M156.98,-60.4681C167.822,-50.5747 179.963,-39.4962 189.787,-30.5316"/>
<polygon fill="midnightblue" stroke="midnightblue" points="192.388,-32.8969 197.415,-23.5709 187.669,-27.7261 192.388,-32.8969"/>
</g>
</g>
</svg>
