<?xml version="1.0" encoding="UTF-8" standalone="no"?>
<!DOCTYPE svg PUBLIC "-//W3C//DTD SVG 1.1//EN"
 "http://www.w3.org/Graphics/SVG/1.1/DTD/svg11.dtd">
<!-- Generated by graphviz version 2.38.0 (20140413.2041)
 -->
<!-- Title: /home/travis/build/konsim83/MPI&#45;MSFEC/include/functions/my_mapping_q1.h Pages: 1 -->
<svg width="1195pt" height="152pt"
 viewBox="0.00 0.00 1195.00 152.00" xmlns="http://www.w3.org/2000/svg" xmlns:xlink="http://www.w3.org/1999/xlink">
<g id="graph0" class="graph" transform="scale(1 1) rotate(0) translate(4 148)">
<title>/home/travis/build/konsim83/MPI&#45;MSFEC/include/functions/my_mapping_q1.h</title>
<polygon fill="white" stroke="none" points="-4,4 -4,-148 1191,-148 1191,4 -4,4"/>
<!-- Node1 -->
<g id="node1" class="node"><title>Node1</title>
<polygon fill="#bfbfbf" stroke="black" points="545.5,-75.5 545.5,-143.5 705.5,-143.5 705.5,-75.5 545.5,-75.5"/>
<text text-anchor="start" x="553.5" y="-128.3" font-family="Helvetica,sans-Serif" font-size="14.00">/home/travis/build</text>
<text text-anchor="start" x="553.5" y="-113.3" font-family="Helvetica,sans-Serif" font-size="14.00">/konsim83/MPI&#45;MSFEC</text>
<text text-anchor="start" x="553.5" y="-98.3" font-family="Helvetica,sans-Serif" font-size="14.00">/include/functions/my</text>
<text text-anchor="middle" x="625.5" y="-83.3" font-family="Helvetica,sans-Serif" font-size="14.00">_mapping_q1.h</text>
</g>
<!-- Node2 -->
<g id="node2" class="node"><title>Node2</title>
<polygon fill="white" stroke="#bfbfbf" points="0,-0.5 0,-38.5 147,-38.5 147,-0.5 0,-0.5"/>
<text text-anchor="start" x="8" y="-23.3" font-family="Helvetica,sans-Serif" font-size="14.00">deal.II/base/geometry</text>
<text text-anchor="middle" x="73.5" y="-8.3" font-family="Helvetica,sans-Serif" font-size="14.00">_info.h</text>
</g>
<!-- Node1&#45;&gt;Node2 -->
<g id="edge1" class="edge"><title>Node1&#45;&gt;Node2</title>
<path fill="none" stroke="midnightblue" d="M545.361,-98.5136C453.766,-86.679 299.182,-65.4274 157.389,-39.2926"/>
<polygon fill="midnightblue" stroke="midnightblue" points="157.674,-35.7857 147.203,-37.4025 156.397,-42.6683 157.674,-35.7857"/>
</g>
<!-- Node3 -->
<g id="node3" class="node"><title>Node3</title>
<polygon fill="white" stroke="#bfbfbf" points="165,-8 165,-31 296,-31 296,-8 165,-8"/>
<text text-anchor="middle" x="230.5" y="-15.8" font-family="Helvetica,sans-Serif" font-size="14.00">deal.II/base/point.h</text>
</g>
<!-- Node1&#45;&gt;Node3 -->
<g id="edge2" class="edge"><title>Node1&#45;&gt;Node3</title>
<path fill="none" stroke="midnightblue" d="M545.201,-91.853C480.174,-78.1943 386.269,-58.0679 304.5,-39 296.974,-37.2449 289.033,-35.3286 281.258,-33.4158"/>
<polygon fill="midnightblue" stroke="midnightblue" points="282.091,-30.0163 271.543,-31.0071 280.407,-36.8107 282.091,-30.0163"/>
</g>
<!-- Node4 -->
<g id="node4" class="node"><title>Node4</title>
<polygon fill="white" stroke="#bfbfbf" points="314,-8 314,-31 427,-31 427,-8 314,-8"/>
<text text-anchor="middle" x="370.5" y="-15.8" font-family="Helvetica,sans-Serif" font-size="14.00">deal.II/grid/tria.h</text>
</g>
<!-- Node1&#45;&gt;Node4 -->
<g id="edge3" class="edge"><title>Node1&#45;&gt;Node4</title>
<path fill="none" stroke="midnightblue" d="M545.166,-80.777C500.463,-65.3501 446.756,-46.8157 410.804,-34.4087"/>
<polygon fill="midnightblue" stroke="midnightblue" points="411.751,-31.0332 401.156,-31.0795 409.468,-37.6503 411.751,-31.0332"/>
</g>
<!-- Node5 -->
<g id="node5" class="node"><title>Node5</title>
<polygon fill="white" stroke="#bfbfbf" points="445,-8 445,-31 620,-31 620,-8 445,-8"/>
<text text-anchor="middle" x="532.5" y="-15.8" font-family="Helvetica,sans-Serif" font-size="14.00">deal.II/grid/tria_accessor.h</text>
</g>
<!-- Node1&#45;&gt;Node5 -->
<g id="edge4" class="edge"><title>Node1&#45;&gt;Node5</title>
<path fill="none" stroke="midnightblue" d="M590.606,-75.4817C577.334,-62.9233 562.714,-49.09 551.46,-38.4405"/>
<polygon fill="midnightblue" stroke="midnightblue" points="553.596,-35.6434 543.927,-31.3126 548.785,-40.728 553.596,-35.6434"/>
</g>
<!-- Node6 -->
<g id="node6" class="node"><title>Node6</title>
<polygon fill="white" stroke="#bfbfbf" points="638,-8 638,-31 801,-31 801,-8 638,-8"/>
<text text-anchor="middle" x="719.5" y="-15.8" font-family="Helvetica,sans-Serif" font-size="14.00">deal.II/grid/tria_iterator.h</text>
</g>
<!-- Node1&#45;&gt;Node6 -->
<g id="edge5" class="edge"><title>Node1&#45;&gt;Node6</title>
<path fill="none" stroke="midnightblue" d="M660.77,-75.4817C674.184,-62.9233 688.961,-49.09 700.336,-38.4405"/>
<polygon fill="midnightblue" stroke="midnightblue" points="703.042,-40.7019 707.95,-31.3126 698.258,-35.5918 703.042,-40.7019"/>
</g>
<!-- Node7 -->
<g id="node7" class="node"><title>Node7</title>
<polygon fill="white" stroke="#bfbfbf" points="819.5,-8 819.5,-31 971.5,-31 971.5,-8 819.5,-8"/>
<text text-anchor="middle" x="895.5" y="-15.8" font-family="Helvetica,sans-Serif" font-size="14.00">deal.II/lac/full_matrix.h</text>
</g>
<!-- Node1&#45;&gt;Node7 -->
<g id="edge6" class="edge"><title>Node1&#45;&gt;Node7</title>
<path fill="none" stroke="midnightblue" d="M705.778,-82.3354C754.357,-66.502 814.317,-46.9597 853.665,-34.1351"/>
<polygon fill="midnightblue" stroke="midnightblue" points="854.782,-37.4523 863.205,-31.0257 852.613,-30.7969 854.782,-37.4523"/>
</g>
<!-- Node8 -->
<g id="node8" class="node"><title>Node8</title>
<polygon fill="white" stroke="#bfbfbf" points="989.5,-8 989.5,-31 1115.5,-31 1115.5,-8 989.5,-8"/>
<text text-anchor="middle" x="1052.5" y="-15.8" font-family="Helvetica,sans-Serif" font-size="14.00">deal.II/lac/vector.h</text>
</g>
<!-- Node1&#45;&gt;Node8 -->
<g id="edge7" class="edge"><title>Node1&#45;&gt;Node8</title>
<path fill="none" stroke="midnightblue" d="M705.792,-94.1594C777.926,-80.9483 886.627,-60.2302 980.5,-39 987.852,-37.3372 995.597,-35.4702 1003.17,-33.5787"/>
<polygon fill="midnightblue" stroke="midnightblue" points="1004.15,-36.941 1012.99,-31.0931 1002.44,-30.1552 1004.15,-36.941"/>
</g>
<!-- Node9 -->
<g id="node9" class="node"><title>Node9</title>
<polygon fill="white" stroke="#bfbfbf" points="1134,-8 1134,-31 1187,-31 1187,-8 1134,-8"/>
<text text-anchor="middle" x="1160.5" y="-15.8" font-family="Helvetica,sans-Serif" font-size="14.00">vector</text>
</g>
<!-- Node1&#45;&gt;Node9 -->
<g id="edge8" class="edge"><title>Node1&#45;&gt;Node9</title>
<path fill="none" stroke="midnightblue" d="M705.527,-105.602C805.628,-100.121 981.277,-84.333 1124.5,-39 1127.49,-38.0551 1130.52,-36.8785 1133.5,-35.5797"/>
<polygon fill="midnightblue" stroke="midnightblue" points="1135.21,-38.6433 1142.69,-31.1476 1132.17,-32.3379 1135.21,-38.6433"/>
</g>
</g>
</svg>
