<?xml version="1.0" encoding="UTF-8" standalone="no"?>
<!DOCTYPE svg PUBLIC "-//W3C//DTD SVG 1.1//EN"
 "http://www.w3.org/Graphics/SVG/1.1/DTD/svg11.dtd">
<!-- Generated by graphviz version 2.38.0 (20140413.2041)
 -->
<!-- Title: /home/travis/build/konsim83/MPI&#45;MSFEC/include/functions/my_mapping_q1.h Pages: 1 -->
<svg width="1333pt" height="497pt"
 viewBox="0.00 0.00 1333.00 497.00" xmlns="http://www.w3.org/2000/svg" xmlns:xlink="http://www.w3.org/1999/xlink">
<g id="graph0" class="graph" transform="scale(1 1) rotate(0) translate(4 493)">
<title>/home/travis/build/konsim83/MPI&#45;MSFEC/include/functions/my_mapping_q1.h</title>
<polygon fill="white" stroke="none" points="-4,4 -4,-493 1329,-493 1329,4 -4,4"/>
<!-- Node1 -->
<g id="node1" class="node"><title>Node1</title>
<polygon fill="#bfbfbf" stroke="black" points="357,-420.5 357,-488.5 517,-488.5 517,-420.5 357,-420.5"/>
<text text-anchor="start" x="365" y="-473.3" font-family="Helvetica,sans-Serif" font-size="14.00">/home/travis/build</text>
<text text-anchor="start" x="365" y="-458.3" font-family="Helvetica,sans-Serif" font-size="14.00">/konsim83/MPI&#45;MSFEC</text>
<text text-anchor="start" x="365" y="-443.3" font-family="Helvetica,sans-Serif" font-size="14.00">/include/functions/my</text>
<text text-anchor="middle" x="437" y="-428.3" font-family="Helvetica,sans-Serif" font-size="14.00">_mapping_q1.h</text>
</g>
<!-- Node2 -->
<g id="node2" class="node"><title>Node2</title>
<g id="a_node2"><a xlink:href="my__mapping__q1_8inst_8cc.html" target="_top" xlink:title="/home/travis/build\l/konsim83/MPI&#45;MSFEC\l/source/functions/my\l_mapping_q1.inst.cc">
<polygon fill="white" stroke="black" points="90,-315.5 90,-383.5 250,-383.5 250,-315.5 90,-315.5"/>
<text text-anchor="start" x="98" y="-368.3" font-family="Helvetica,sans-Serif" font-size="14.00">/home/travis/build</text>
<text text-anchor="start" x="98" y="-353.3" font-family="Helvetica,sans-Serif" font-size="14.00">/konsim83/MPI&#45;MSFEC</text>
<text text-anchor="start" x="98" y="-338.3" font-family="Helvetica,sans-Serif" font-size="14.00">/source/functions/my</text>
<text text-anchor="middle" x="170" y="-323.3" font-family="Helvetica,sans-Serif" font-size="14.00">_mapping_q1.inst.cc</text>
</a>
</g>
</g>
<!-- Node1&#45;&gt;Node2 -->
<g id="edge1" class="edge"><title>Node1&#45;&gt;Node2</title>
<path fill="none" stroke="midnightblue" d="M347.252,-418.878C315.785,-406.739 280.672,-393.194 250.052,-381.382"/>
<polygon fill="midnightblue" stroke="midnightblue" points="346.302,-422.263 356.891,-422.597 348.821,-415.732 346.302,-422.263"/>
</g>
<!-- Node3 -->
<g id="node3" class="node"><title>Node3</title>
<g id="a_node3"><a xlink:href="basis__nedelec_8h.html" target="_top" xlink:title="/home/travis/build\l/konsim83/MPI&#45;MSFEC\l/include/functions/basis\l_nedelec.h">
<polygon fill="white" stroke="black" points="268,-315.5 268,-383.5 428,-383.5 428,-315.5 268,-315.5"/>
<text text-anchor="start" x="276" y="-368.3" font-family="Helvetica,sans-Serif" font-size="14.00">/home/travis/build</text>
<text text-anchor="start" x="276" y="-353.3" font-family="Helvetica,sans-Serif" font-size="14.00">/konsim83/MPI&#45;MSFEC</text>
<text text-anchor="start" x="276" y="-338.3" font-family="Helvetica,sans-Serif" font-size="14.00">/include/functions/basis</text>
<text text-anchor="middle" x="348" y="-323.3" font-family="Helvetica,sans-Serif" font-size="14.00">_nedelec.h</text>
</a>
</g>
</g>
<!-- Node1&#45;&gt;Node3 -->
<g id="edge2" class="edge"><title>Node1&#45;&gt;Node3</title>
<path fill="none" stroke="midnightblue" d="M401.773,-412.732C393.421,-403.066 384.612,-392.871 376.596,-383.595"/>
<polygon fill="midnightblue" stroke="midnightblue" points="399.163,-415.065 408.35,-420.343 404.46,-410.488 399.163,-415.065"/>
</g>
<!-- Node15 -->
<g id="node15" class="node"><title>Node15</title>
<g id="a_node15"><a xlink:href="basis__nedelec__curl_8h.html" target="_top" xlink:title="/home/travis/build\l/konsim83/MPI&#45;MSFEC\l/include/functions/basis\l_nedelec_curl.h">
<polygon fill="white" stroke="black" points="446,-315.5 446,-383.5 606,-383.5 606,-315.5 446,-315.5"/>
<text text-anchor="start" x="454" y="-368.3" font-family="Helvetica,sans-Serif" font-size="14.00">/home/travis/build</text>
<text text-anchor="start" x="454" y="-353.3" font-family="Helvetica,sans-Serif" font-size="14.00">/konsim83/MPI&#45;MSFEC</text>
<text text-anchor="start" x="454" y="-338.3" font-family="Helvetica,sans-Serif" font-size="14.00">/include/functions/basis</text>
<text text-anchor="middle" x="526" y="-323.3" font-family="Helvetica,sans-Serif" font-size="14.00">_nedelec_curl.h</text>
</a>
</g>
</g>
<!-- Node1&#45;&gt;Node15 -->
<g id="edge14" class="edge"><title>Node1&#45;&gt;Node15</title>
<path fill="none" stroke="midnightblue" d="M472.227,-412.732C480.579,-403.066 489.388,-392.871 497.404,-383.595"/>
<polygon fill="midnightblue" stroke="midnightblue" points="469.54,-410.488 465.65,-420.343 474.837,-415.065 469.54,-410.488"/>
</g>
<!-- Node17 -->
<g id="node17" class="node"><title>Node17</title>
<g id="a_node17"><a xlink:href="basis__raviart__thomas_8h.html" target="_top" xlink:title="/home/travis/build\l/konsim83/MPI&#45;MSFEC\l/include/functions/basis\l_raviart_thomas.h">
<polygon fill="white" stroke="black" points="713,-315.5 713,-383.5 873,-383.5 873,-315.5 713,-315.5"/>
<text text-anchor="start" x="721" y="-368.3" font-family="Helvetica,sans-Serif" font-size="14.00">/home/travis/build</text>
<text text-anchor="start" x="721" y="-353.3" font-family="Helvetica,sans-Serif" font-size="14.00">/konsim83/MPI&#45;MSFEC</text>
<text text-anchor="start" x="721" y="-338.3" font-family="Helvetica,sans-Serif" font-size="14.00">/include/functions/basis</text>
<text text-anchor="middle" x="793" y="-323.3" font-family="Helvetica,sans-Serif" font-size="14.00">_raviart_thomas.h</text>
</a>
</g>
</g>
<!-- Node1&#45;&gt;Node17 -->
<g id="edge17" class="edge"><title>Node1&#45;&gt;Node17</title>
<path fill="none" stroke="midnightblue" d="M527.102,-427.431C584.341,-410.871 657.769,-389.626 712.955,-373.659"/>
<polygon fill="midnightblue" stroke="midnightblue" points="525.97,-424.115 517.337,-430.256 527.916,-430.839 525.97,-424.115"/>
</g>
<!-- Node4 -->
<g id="node4" class="node"><title>Node4</title>
<g id="a_node4"><a xlink:href="basis__nedelec_8inst_8cc.html" target="_top" xlink:title="/home/travis/build\l/konsim83/MPI&#45;MSFEC\l/source/functions/basis\l_nedelec.inst.cc">
<polygon fill="white" stroke="black" points="46,-210.5 46,-278.5 206,-278.5 206,-210.5 46,-210.5"/>
<text text-anchor="start" x="54" y="-263.3" font-family="Helvetica,sans-Serif" font-size="14.00">/home/travis/build</text>
<text text-anchor="start" x="54" y="-248.3" font-family="Helvetica,sans-Serif" font-size="14.00">/konsim83/MPI&#45;MSFEC</text>
<text text-anchor="start" x="54" y="-233.3" font-family="Helvetica,sans-Serif" font-size="14.00">/source/functions/basis</text>
<text text-anchor="middle" x="126" y="-218.3" font-family="Helvetica,sans-Serif" font-size="14.00">_nedelec.inst.cc</text>
</a>
</g>
</g>
<!-- Node3&#45;&gt;Node4 -->
<g id="edge3" class="edge"><title>Node3&#45;&gt;Node4</title>
<path fill="none" stroke="midnightblue" d="M267.757,-311.27C244.662,-300.555 219.639,-288.945 197.136,-278.505"/>
<polygon fill="midnightblue" stroke="midnightblue" points="266.297,-314.451 276.842,-315.485 269.244,-308.101 266.297,-314.451"/>
</g>
<!-- Node5 -->
<g id="node5" class="node"><title>Node5</title>
<g id="a_node5"><a xlink:href="ned__rt__basis_8h.html" target="_top" xlink:title="/home/travis/build\l/konsim83/MPI&#45;MSFEC\l/include/Ned_RT/ned_rt\l_basis.h">
<polygon fill="white" stroke="black" points="402,-210.5 402,-278.5 562,-278.5 562,-210.5 402,-210.5"/>
<text text-anchor="start" x="410" y="-263.3" font-family="Helvetica,sans-Serif" font-size="14.00">/home/travis/build</text>
<text text-anchor="start" x="410" y="-248.3" font-family="Helvetica,sans-Serif" font-size="14.00">/konsim83/MPI&#45;MSFEC</text>
<text text-anchor="start" x="410" y="-233.3" font-family="Helvetica,sans-Serif" font-size="14.00">/include/Ned_RT/ned_rt</text>
<text text-anchor="middle" x="482" y="-218.3" font-family="Helvetica,sans-Serif" font-size="14.00">_basis.h</text>
</a>
</g>
</g>
<!-- Node3&#45;&gt;Node5 -->
<g id="edge4" class="edge"><title>Node3&#45;&gt;Node5</title>
<path fill="none" stroke="midnightblue" d="M399.176,-309.163C412.298,-299.077 426.279,-288.331 438.945,-278.595"/>
<polygon fill="midnightblue" stroke="midnightblue" points="396.931,-306.474 391.136,-315.343 401.197,-312.024 396.931,-306.474"/>
</g>
<!-- Node10 -->
<g id="node10" class="node"><title>Node10</title>
<g id="a_node10"><a xlink:href="q__ned__basis_8h.html" target="_top" xlink:title="/home/travis/build\l/konsim83/MPI&#45;MSFEC\l/include/Q_Ned/q_ned\l_basis.h">
<polygon fill="white" stroke="black" points="224,-210.5 224,-278.5 384,-278.5 384,-210.5 224,-210.5"/>
<text text-anchor="start" x="232" y="-263.3" font-family="Helvetica,sans-Serif" font-size="14.00">/home/travis/build</text>
<text text-anchor="start" x="232" y="-248.3" font-family="Helvetica,sans-Serif" font-size="14.00">/konsim83/MPI&#45;MSFEC</text>
<text text-anchor="start" x="232" y="-233.3" font-family="Helvetica,sans-Serif" font-size="14.00">/include/Q_Ned/q_ned</text>
<text text-anchor="middle" x="304" y="-218.3" font-family="Helvetica,sans-Serif" font-size="14.00">_basis.h</text>
</a>
</g>
</g>
<!-- Node3&#45;&gt;Node10 -->
<g id="edge9" class="edge"><title>Node3&#45;&gt;Node10</title>
<path fill="none" stroke="midnightblue" d="M329.846,-306.004C325.939,-296.858 321.865,-287.32 318.138,-278.595"/>
<polygon fill="midnightblue" stroke="midnightblue" points="326.689,-307.522 333.836,-315.343 333.126,-304.772 326.689,-307.522"/>
</g>
<!-- Node6 -->
<g id="node6" class="node"><title>Node6</title>
<g id="a_node6"><a xlink:href="ned__rt__basis_8cc.html" target="_top" xlink:title="/home/travis/build\l/konsim83/MPI&#45;MSFEC\l/source/Ned_RT/ned_rt\l_basis.cc">
<polygon fill="white" stroke="black" points="402,-105.5 402,-173.5 562,-173.5 562,-105.5 402,-105.5"/>
<text text-anchor="start" x="410" y="-158.3" font-family="Helvetica,sans-Serif" font-size="14.00">/home/travis/build</text>
<text text-anchor="start" x="410" y="-143.3" font-family="Helvetica,sans-Serif" font-size="14.00">/konsim83/MPI&#45;MSFEC</text>
<text text-anchor="start" x="410" y="-128.3" font-family="Helvetica,sans-Serif" font-size="14.00">/source/Ned_RT/ned_rt</text>
<text text-anchor="middle" x="482" y="-113.3" font-family="Helvetica,sans-Serif" font-size="14.00">_basis.cc</text>
</a>
</g>
</g>
<!-- Node5&#45;&gt;Node6 -->
<g id="edge5" class="edge"><title>Node5&#45;&gt;Node6</title>
<path fill="none" stroke="midnightblue" d="M482,-200.136C482,-191.256 482,-182.045 482,-173.595"/>
<polygon fill="midnightblue" stroke="midnightblue" points="478.5,-200.343 482,-210.343 485.5,-200.343 478.5,-200.343"/>
</g>
<!-- Node7 -->
<g id="node7" class="node"><title>Node7</title>
<g id="a_node7"><a xlink:href="ned__rt__global_8h.html" target="_top" xlink:title="/home/travis/build\l/konsim83/MPI&#45;MSFEC\l/include/Ned_RT/ned_rt\l_global.h">
<polygon fill="white" stroke="black" points="580,-105.5 580,-173.5 740,-173.5 740,-105.5 580,-105.5"/>
<text text-anchor="start" x="588" y="-158.3" font-family="Helvetica,sans-Serif" font-size="14.00">/home/travis/build</text>
<text text-anchor="start" x="588" y="-143.3" font-family="Helvetica,sans-Serif" font-size="14.00">/konsim83/MPI&#45;MSFEC</text>
<text text-anchor="start" x="588" y="-128.3" font-family="Helvetica,sans-Serif" font-size="14.00">/include/Ned_RT/ned_rt</text>
<text text-anchor="middle" x="660" y="-113.3" font-family="Helvetica,sans-Serif" font-size="14.00">_global.h</text>
</a>
</g>
</g>
<!-- Node5&#45;&gt;Node7 -->
<g id="edge6" class="edge"><title>Node5&#45;&gt;Node7</title>
<path fill="none" stroke="midnightblue" d="M548.012,-205.302C566.006,-194.89 585.347,-183.698 602.807,-173.595"/>
<polygon fill="midnightblue" stroke="midnightblue" points="546.203,-202.305 539.3,-210.343 549.708,-208.364 546.203,-202.305"/>
</g>
<!-- Node8 -->
<g id="node8" class="node"><title>Node8</title>
<g id="a_node8"><a xlink:href="main__ned__rt_8cxx.html" target="_top" xlink:title="/home/travis/build\l/konsim83/MPI&#45;MSFEC\l/source/main_ned_rt.cxx">
<polygon fill="white" stroke="black" points="540,-8 540,-61 704,-61 704,-8 540,-8"/>
<text text-anchor="start" x="548" y="-45.8" font-family="Helvetica,sans-Serif" font-size="14.00">/home/travis/build</text>
<text text-anchor="start" x="548" y="-30.8" font-family="Helvetica,sans-Serif" font-size="14.00">/konsim83/MPI&#45;MSFEC</text>
<text text-anchor="middle" x="622" y="-15.8" font-family="Helvetica,sans-Serif" font-size="14.00">/source/main_ned_rt.cxx</text>
</a>
</g>
</g>
<!-- Node7&#45;&gt;Node8 -->
<g id="edge7" class="edge"><title>Node7&#45;&gt;Node8</title>
<path fill="none" stroke="midnightblue" d="M644.198,-95.6686C639.86,-83.9109 635.294,-71.5325 631.438,-61.0806"/>
<polygon fill="midnightblue" stroke="midnightblue" points="641.022,-97.1728 647.767,-105.343 647.59,-94.7498 641.022,-97.1728"/>
</g>
<!-- Node9 -->
<g id="node9" class="node"><title>Node9</title>
<g id="a_node9"><a xlink:href="ned__rt__global_8cc.html" target="_top" xlink:title="/home/travis/build\l/konsim83/MPI&#45;MSFEC\l/source/Ned_RT/ned_rt\l_global.cc">
<polygon fill="white" stroke="black" points="722,-0.5 722,-68.5 882,-68.5 882,-0.5 722,-0.5"/>
<text text-anchor="start" x="730" y="-53.3" font-family="Helvetica,sans-Serif" font-size="14.00">/home/travis/build</text>
<text text-anchor="start" x="730" y="-38.3" font-family="Helvetica,sans-Serif" font-size="14.00">/konsim83/MPI&#45;MSFEC</text>
<text text-anchor="start" x="730" y="-23.3" font-family="Helvetica,sans-Serif" font-size="14.00">/source/Ned_RT/ned_rt</text>
<text text-anchor="middle" x="802" y="-8.3" font-family="Helvetica,sans-Serif" font-size="14.00">_global.cc</text>
</a>
</g>
</g>
<!-- Node7&#45;&gt;Node9 -->
<g id="edge8" class="edge"><title>Node7&#45;&gt;Node9</title>
<path fill="none" stroke="midnightblue" d="M713.838,-99.4486C727.857,-89.2799 742.825,-78.4225 756.374,-68.5947"/>
<polygon fill="midnightblue" stroke="midnightblue" points="711.751,-96.6384 705.711,-105.343 715.861,-102.305 711.751,-96.6384"/>
</g>
<!-- Node11 -->
<g id="node11" class="node"><title>Node11</title>
<g id="a_node11"><a xlink:href="q__ned__basis_8cc.html" target="_top" xlink:title="/home/travis/build\l/konsim83/MPI&#45;MSFEC\l/source/Q_Ned/q_ned_basis.cc">
<polygon fill="white" stroke="black" points="0,-113 0,-166 206,-166 206,-113 0,-113"/>
<text text-anchor="start" x="8" y="-150.8" font-family="Helvetica,sans-Serif" font-size="14.00">/home/travis/build</text>
<text text-anchor="start" x="8" y="-135.8" font-family="Helvetica,sans-Serif" font-size="14.00">/konsim83/MPI&#45;MSFEC</text>
<text text-anchor="middle" x="103" y="-120.8" font-family="Helvetica,sans-Serif" font-size="14.00">/source/Q_Ned/q_ned_basis.cc</text>
</a>
</g>
</g>
<!-- Node10&#45;&gt;Node11 -->
<g id="edge10" class="edge"><title>Node10&#45;&gt;Node11</title>
<path fill="none" stroke="midnightblue" d="M230.576,-205.875C204.804,-192.668 176.464,-178.146 153.055,-166.15"/>
<polygon fill="midnightblue" stroke="midnightblue" points="229.077,-209.039 239.573,-210.485 232.27,-202.81 229.077,-209.039"/>
</g>
<!-- Node12 -->
<g id="node12" class="node"><title>Node12</title>
<g id="a_node12"><a xlink:href="q__ned__global_8h.html" target="_top" xlink:title="/home/travis/build\l/konsim83/MPI&#45;MSFEC\l/include/Q_Ned/q_ned\l_global.h">
<polygon fill="white" stroke="black" points="224,-105.5 224,-173.5 384,-173.5 384,-105.5 224,-105.5"/>
<text text-anchor="start" x="232" y="-158.3" font-family="Helvetica,sans-Serif" font-size="14.00">/home/travis/build</text>
<text text-anchor="start" x="232" y="-143.3" font-family="Helvetica,sans-Serif" font-size="14.00">/konsim83/MPI&#45;MSFEC</text>
<text text-anchor="start" x="232" y="-128.3" font-family="Helvetica,sans-Serif" font-size="14.00">/include/Q_Ned/q_ned</text>
<text text-anchor="middle" x="304" y="-113.3" font-family="Helvetica,sans-Serif" font-size="14.00">_global.h</text>
</a>
</g>
</g>
<!-- Node10&#45;&gt;Node12 -->
<g id="edge11" class="edge"><title>Node10&#45;&gt;Node12</title>
<path fill="none" stroke="midnightblue" d="M304,-200.136C304,-191.256 304,-182.045 304,-173.595"/>
<polygon fill="midnightblue" stroke="midnightblue" points="300.5,-200.343 304,-210.343 307.5,-200.343 300.5,-200.343"/>
</g>
<!-- Node13 -->
<g id="node13" class="node"><title>Node13</title>
<g id="a_node13"><a xlink:href="main__q__ned_8cxx.html" target="_top" xlink:title="/home/travis/build\l/konsim83/MPI&#45;MSFEC\l/source/main_q_ned.cxx">
<polygon fill="white" stroke="black" points="92,-8 92,-61 256,-61 256,-8 92,-8"/>
<text text-anchor="start" x="100" y="-45.8" font-family="Helvetica,sans-Serif" font-size="14.00">/home/travis/build</text>
<text text-anchor="start" x="100" y="-30.8" font-family="Helvetica,sans-Serif" font-size="14.00">/konsim83/MPI&#45;MSFEC</text>
<text text-anchor="middle" x="174" y="-15.8" font-family="Helvetica,sans-Serif" font-size="14.00">/source/main_q_ned.cxx</text>
</a>
</g>
</g>
<!-- Node12&#45;&gt;Node13 -->
<g id="edge12" class="edge"><title>Node12&#45;&gt;Node13</title>
<path fill="none" stroke="midnightblue" d="M253.926,-98.8262C237.933,-86.1546 220.665,-72.4731 206.286,-61.0806"/>
<polygon fill="midnightblue" stroke="midnightblue" points="252.14,-101.876 262.152,-105.343 256.487,-96.3897 252.14,-101.876"/>
</g>
<!-- Node14 -->
<g id="node14" class="node"><title>Node14</title>
<g id="a_node14"><a xlink:href="q__ned__global_8cc.html" target="_top" xlink:title="/home/travis/build\l/konsim83/MPI&#45;MSFEC\l/source/Q_Ned/q_ned_global.cc">
<polygon fill="white" stroke="black" points="274,-8 274,-61 484,-61 484,-8 274,-8"/>
<text text-anchor="start" x="282" y="-45.8" font-family="Helvetica,sans-Serif" font-size="14.00">/home/travis/build</text>
<text text-anchor="start" x="282" y="-30.8" font-family="Helvetica,sans-Serif" font-size="14.00">/konsim83/MPI&#45;MSFEC</text>
<text text-anchor="middle" x="379" y="-15.8" font-family="Helvetica,sans-Serif" font-size="14.00">/source/Q_Ned/q_ned_global.cc</text>
</a>
</g>
</g>
<!-- Node12&#45;&gt;Node14 -->
<g id="edge13" class="edge"><title>Node12&#45;&gt;Node14</title>
<path fill="none" stroke="midnightblue" d="M334.163,-97.0764C343.026,-84.9042 352.458,-71.9505 360.373,-61.0806"/>
<polygon fill="midnightblue" stroke="midnightblue" points="331.2,-95.199 328.143,-105.343 336.859,-99.3195 331.2,-95.199"/>
</g>
<!-- Node15&#45;&gt;Node5 -->
<g id="edge16" class="edge"><title>Node15&#45;&gt;Node5</title>
<path fill="none" stroke="midnightblue" d="M507.846,-306.004C503.939,-296.858 499.865,-287.32 496.138,-278.595"/>
<polygon fill="midnightblue" stroke="midnightblue" points="504.689,-307.522 511.836,-315.343 511.126,-304.772 504.689,-307.522"/>
</g>
<!-- Node16 -->
<g id="node16" class="node"><title>Node16</title>
<g id="a_node16"><a xlink:href="basis__nedelec__curl_8inst_8cc.html" target="_top" xlink:title="/home/travis/build\l/konsim83/MPI&#45;MSFEC\l/source/functions/basis\l_nedelec_curl.inst.cc">
<polygon fill="white" stroke="black" points="580,-210.5 580,-278.5 740,-278.5 740,-210.5 580,-210.5"/>
<text text-anchor="start" x="588" y="-263.3" font-family="Helvetica,sans-Serif" font-size="14.00">/home/travis/build</text>
<text text-anchor="start" x="588" y="-248.3" font-family="Helvetica,sans-Serif" font-size="14.00">/konsim83/MPI&#45;MSFEC</text>
<text text-anchor="start" x="588" y="-233.3" font-family="Helvetica,sans-Serif" font-size="14.00">/source/functions/basis</text>
<text text-anchor="middle" x="660" y="-218.3" font-family="Helvetica,sans-Serif" font-size="14.00">_nedelec_curl.inst.cc</text>
</a>
</g>
</g>
<!-- Node15&#45;&gt;Node16 -->
<g id="edge15" class="edge"><title>Node15&#45;&gt;Node16</title>
<path fill="none" stroke="midnightblue" d="M577.176,-309.163C590.298,-299.077 604.279,-288.331 616.945,-278.595"/>
<polygon fill="midnightblue" stroke="midnightblue" points="574.931,-306.474 569.136,-315.343 579.197,-312.024 574.931,-306.474"/>
</g>
<!-- Node17&#45;&gt;Node5 -->
<g id="edge19" class="edge"><title>Node17&#45;&gt;Node5</title>
<path fill="none" stroke="midnightblue" d="M703.158,-321.639C662.611,-309.192 614.216,-293.885 571,-279 568.19,-278.032 565.336,-277.035 562.456,-276.017"/>
<polygon fill="midnightblue" stroke="midnightblue" points="702.166,-324.996 712.752,-324.576 704.215,-318.302 702.166,-324.996"/>
</g>
<!-- Node18 -->
<g id="node18" class="node"><title>Node18</title>
<g id="a_node18"><a xlink:href="basis__raviart__thomas_8inst_8cc.html" target="_top" xlink:title="/home/travis/build\l/konsim83/MPI&#45;MSFEC\l/source/functions/basis\l_raviart_thomas.inst.cc">
<polygon fill="white" stroke="black" points="758,-210.5 758,-278.5 918,-278.5 918,-210.5 758,-210.5"/>
<text text-anchor="start" x="766" y="-263.3" font-family="Helvetica,sans-Serif" font-size="14.00">/home/travis/build</text>
<text text-anchor="start" x="766" y="-248.3" font-family="Helvetica,sans-Serif" font-size="14.00">/konsim83/MPI&#45;MSFEC</text>
<text text-anchor="start" x="766" y="-233.3" font-family="Helvetica,sans-Serif" font-size="14.00">/source/functions/basis</text>
<text text-anchor="middle" x="838" y="-218.3" font-family="Helvetica,sans-Serif" font-size="14.00">_raviart_thomas.inst.cc</text>
</a>
</g>
</g>
<!-- Node17&#45;&gt;Node18 -->
<g id="edge18" class="edge"><title>Node17&#45;&gt;Node18</title>
<path fill="none" stroke="midnightblue" d="M811.566,-306.004C815.562,-296.858 819.729,-287.32 823.541,-278.595"/>
<polygon fill="midnightblue" stroke="midnightblue" points="808.282,-304.778 807.486,-315.343 814.697,-307.581 808.282,-304.778"/>
</g>
<!-- Node19 -->
<g id="node19" class="node"><title>Node19</title>
<g id="a_node19"><a xlink:href="rt__dq__basis_8h.html" target="_top" xlink:title="/home/travis/build\l/konsim83/MPI&#45;MSFEC\l/include/RT_DQ/rt_dq\l_basis.h">
<polygon fill="white" stroke="black" points="936,-210.5 936,-278.5 1096,-278.5 1096,-210.5 936,-210.5"/>
<text text-anchor="start" x="944" y="-263.3" font-family="Helvetica,sans-Serif" font-size="14.00">/home/travis/build</text>
<text text-anchor="start" x="944" y="-248.3" font-family="Helvetica,sans-Serif" font-size="14.00">/konsim83/MPI&#45;MSFEC</text>
<text text-anchor="start" x="944" y="-233.3" font-family="Helvetica,sans-Serif" font-size="14.00">/include/RT_DQ/rt_dq</text>
<text text-anchor="middle" x="1016" y="-218.3" font-family="Helvetica,sans-Serif" font-size="14.00">_basis.h</text>
</a>
</g>
</g>
<!-- Node17&#45;&gt;Node19 -->
<g id="edge20" class="edge"><title>Node17&#45;&gt;Node19</title>
<path fill="none" stroke="midnightblue" d="M873.604,-311.27C896.803,-300.555 921.939,-288.945 944.543,-278.505"/>
<polygon fill="midnightblue" stroke="midnightblue" points="872.09,-308.114 864.479,-315.485 875.025,-314.469 872.09,-308.114"/>
</g>
<!-- Node20 -->
<g id="node20" class="node"><title>Node20</title>
<g id="a_node20"><a xlink:href="rt__dq__basis_8cc.html" target="_top" xlink:title="/home/travis/build\l/konsim83/MPI&#45;MSFEC\l/source/RT_DQ/rt_dq_basis.cc">
<polygon fill="white" stroke="black" points="763,-113 763,-166 965,-166 965,-113 763,-113"/>
<text text-anchor="start" x="771" y="-150.8" font-family="Helvetica,sans-Serif" font-size="14.00">/home/travis/build</text>
<text text-anchor="start" x="771" y="-135.8" font-family="Helvetica,sans-Serif" font-size="14.00">/konsim83/MPI&#45;MSFEC</text>
<text text-anchor="middle" x="864" y="-120.8" font-family="Helvetica,sans-Serif" font-size="14.00">/source/RT_DQ/rt_dq_basis.cc</text>
</a>
</g>
</g>
<!-- Node19&#45;&gt;Node20 -->
<g id="edge21" class="edge"><title>Node19&#45;&gt;Node20</title>
<path fill="none" stroke="midnightblue" d="M958.737,-204.697C939.68,-191.783 918.948,-177.734 901.75,-166.081"/>
<polygon fill="midnightblue" stroke="midnightblue" points="956.828,-207.631 967.07,-210.343 960.755,-201.836 956.828,-207.631"/>
</g>
<!-- Node21 -->
<g id="node21" class="node"><title>Node21</title>
<g id="a_node21"><a xlink:href="rt__dq__global_8h.html" target="_top" xlink:title="/home/travis/build\l/konsim83/MPI&#45;MSFEC\l/include/RT_DQ/rt_dq\l_global.h">
<polygon fill="white" stroke="black" points="983,-105.5 983,-173.5 1143,-173.5 1143,-105.5 983,-105.5"/>
<text text-anchor="start" x="991" y="-158.3" font-family="Helvetica,sans-Serif" font-size="14.00">/home/travis/build</text>
<text text-anchor="start" x="991" y="-143.3" font-family="Helvetica,sans-Serif" font-size="14.00">/konsim83/MPI&#45;MSFEC</text>
<text text-anchor="start" x="991" y="-128.3" font-family="Helvetica,sans-Serif" font-size="14.00">/include/RT_DQ/rt_dq</text>
<text text-anchor="middle" x="1063" y="-113.3" font-family="Helvetica,sans-Serif" font-size="14.00">_global.h</text>
</a>
</g>
</g>
<!-- Node19&#45;&gt;Node21 -->
<g id="edge22" class="edge"><title>Node19&#45;&gt;Node21</title>
<path fill="none" stroke="midnightblue" d="M1035.39,-201.004C1039.56,-191.858 1043.92,-182.32 1047.9,-173.595"/>
<polygon fill="midnightblue" stroke="midnightblue" points="1032.1,-199.793 1031.13,-210.343 1038.47,-202.699 1032.1,-199.793"/>
</g>
<!-- Node22 -->
<g id="node22" class="node"><title>Node22</title>
<g id="a_node22"><a xlink:href="main__rt__dq_8cxx.html" target="_top" xlink:title="/home/travis/build\l/konsim83/MPI&#45;MSFEC\l/source/main_rt_dq.cxx">
<polygon fill="white" stroke="black" points="941,-8 941,-61 1101,-61 1101,-8 941,-8"/>
<text text-anchor="start" x="949" y="-45.8" font-family="Helvetica,sans-Serif" font-size="14.00">/home/travis/build</text>
<text text-anchor="start" x="949" y="-30.8" font-family="Helvetica,sans-Serif" font-size="14.00">/konsim83/MPI&#45;MSFEC</text>
<text text-anchor="middle" x="1021" y="-15.8" font-family="Helvetica,sans-Serif" font-size="14.00">/source/main_rt_dq.cxx</text>
</a>
</g>
</g>
<!-- Node21&#45;&gt;Node22 -->
<g id="edge23" class="edge"><title>Node21&#45;&gt;Node22</title>
<path fill="none" stroke="midnightblue" d="M1045.68,-96.0211C1040.84,-84.1586 1035.74,-71.637 1031.43,-61.0806"/>
<polygon fill="midnightblue" stroke="midnightblue" points="1042.46,-97.405 1049.48,-105.343 1048.94,-94.7619 1042.46,-97.405"/>
</g>
<!-- Node23 -->
<g id="node23" class="node"><title>Node23</title>
<g id="a_node23"><a xlink:href="rt__dq__global_8cc.html" target="_top" xlink:title="/home/travis/build\l/konsim83/MPI&#45;MSFEC\l/source/RT_DQ/rt_dq_global.cc">
<polygon fill="white" stroke="black" points="1119,-8 1119,-61 1325,-61 1325,-8 1119,-8"/>
<text text-anchor="start" x="1127" y="-45.8" font-family="Helvetica,sans-Serif" font-size="14.00">/home/travis/build</text>
<text text-anchor="start" x="1127" y="-30.8" font-family="Helvetica,sans-Serif" font-size="14.00">/konsim83/MPI&#45;MSFEC</text>
<text text-anchor="middle" x="1222" y="-15.8" font-family="Helvetica,sans-Serif" font-size="14.00">/source/RT_DQ/rt_dq_global.cc</text>
</a>
</g>
</g>
<!-- Node21&#45;&gt;Node23 -->
<g id="edge24" class="edge"><title>Node21&#45;&gt;Node23</title>
<path fill="none" stroke="midnightblue" d="M1122.63,-99.8702C1142.64,-86.9094 1164.44,-72.7867 1182.51,-61.0806"/>
<polygon fill="midnightblue" stroke="midnightblue" points="1120.67,-96.9687 1114.18,-105.343 1124.48,-102.844 1120.67,-96.9687"/>
</g>
</g>
</svg>
