<?xml version="1.0" encoding="UTF-8" standalone="no"?>
<!DOCTYPE svg PUBLIC "-//W3C//DTD SVG 1.1//EN"
 "http://www.w3.org/Graphics/SVG/1.1/DTD/svg11.dtd">
<!-- Generated by graphviz version 2.38.0 (20140413.2041)
 -->
<!-- Title: /home/travis/build/konsim83/MPI&#45;MSFEC/source/my_other_tools.cc Pages: 1 -->
<svg width="242pt" height="182pt"
 viewBox="0.00 0.00 242.00 182.00" xmlns="http://www.w3.org/2000/svg" xmlns:xlink="http://www.w3.org/1999/xlink">
<g id="graph0" class="graph" transform="scale(1 1) rotate(0) translate(4 178)">
<title>/home/travis/build/konsim83/MPI&#45;MSFEC/source/my_other_tools.cc</title>
<polygon fill="white" stroke="none" points="-4,4 -4,-178 238,-178 238,4 -4,4"/>
<!-- Node1 -->
<g id="node1" class="node"><title>Node1</title>
<polygon fill="#bfbfbf" stroke="black" points="41.5,-120.5 41.5,-173.5 216.5,-173.5 216.5,-120.5 41.5,-120.5"/>
<text text-anchor="start" x="49.5" y="-158.3" font-family="Helvetica,sans-Serif" font-size="14.00">/home/travis/build</text>
<text text-anchor="start" x="49.5" y="-143.3" font-family="Helvetica,sans-Serif" font-size="14.00">/konsim83/MPI&#45;MSFEC</text>
<text text-anchor="middle" x="129" y="-128.3" font-family="Helvetica,sans-Serif" font-size="14.00">/source/my_other_tools.cc</text>
</g>
<!-- Node2 -->
<g id="node2" class="node"><title>Node2</title>
<g id="a_node2"><a xlink:href="my__other__tools_8h.html" target="_top" xlink:title="my_other_tools.h">
<polygon fill="white" stroke="black" points="68.5,-60.5 68.5,-83.5 189.5,-83.5 189.5,-60.5 68.5,-60.5"/>
<text text-anchor="middle" x="129" y="-68.3" font-family="Helvetica,sans-Serif" font-size="14.00">my_other_tools.h</text>
</a>
</g>
</g>
<!-- Node1&#45;&gt;Node2 -->
<g id="edge1" class="edge"><title>Node1&#45;&gt;Node2</title>
<path fill="none" stroke="midnightblue" d="M129,-120.468C129,-111.762 129,-102.138 129,-93.8444"/>
<polygon fill="midnightblue" stroke="midnightblue" points="132.5,-93.5709 129,-83.5709 125.5,-93.571 132.5,-93.5709"/>
</g>
<!-- Node3 -->
<g id="node3" class="node"><title>Node3</title>
<polygon fill="white" stroke="#bfbfbf" points="0,-0.5 0,-23.5 74,-23.5 74,-0.5 0,-0.5"/>
<text text-anchor="middle" x="37" y="-8.3" font-family="Helvetica,sans-Serif" font-size="14.00">sys/stat.h</text>
</g>
<!-- Node2&#45;&gt;Node3 -->
<g id="edge2" class="edge"><title>Node2&#45;&gt;Node3</title>
<path fill="none" stroke="midnightblue" d="M112.126,-60.3619C98.2494,-51.6138 78.366,-39.0786 62.5403,-29.1015"/>
<polygon fill="midnightblue" stroke="midnightblue" points="64.0931,-25.943 53.7672,-23.5707 60.3599,-31.8645 64.0931,-25.943"/>
</g>
<!-- Node4 -->
<g id="node4" class="node"><title>Node4</title>
<polygon fill="white" stroke="#bfbfbf" points="92,-0.5 92,-23.5 166,-23.5 166,-0.5 92,-0.5"/>
<text text-anchor="middle" x="129" y="-8.3" font-family="Helvetica,sans-Serif" font-size="14.00">stdexcept</text>
</g>
<!-- Node2&#45;&gt;Node4 -->
<g id="edge3" class="edge"><title>Node2&#45;&gt;Node4</title>
<path fill="none" stroke="midnightblue" d="M129,-60.3619C129,-52.9219 129,-42.7427 129,-33.7276"/>
<polygon fill="midnightblue" stroke="midnightblue" points="132.5,-33.5706 129,-23.5707 125.5,-33.5707 132.5,-33.5706"/>
</g>
<!-- Node5 -->
<g id="node5" class="node"><title>Node5</title>
<polygon fill="white" stroke="#bfbfbf" points="184,-0.5 184,-23.5 234,-23.5 234,-0.5 184,-0.5"/>
<text text-anchor="middle" x="209" y="-8.3" font-family="Helvetica,sans-Serif" font-size="14.00">string</text>
</g>
<!-- Node2&#45;&gt;Node5 -->
<g id="edge4" class="edge"><title>Node2&#45;&gt;Node5</title>
<path fill="none" stroke="midnightblue" d="M143.673,-60.3619C155.514,-51.7773 172.385,-39.5459 186.016,-29.6636"/>
<polygon fill="midnightblue" stroke="midnightblue" points="188.378,-32.274 194.42,-23.5707 184.269,-26.6067 188.378,-32.274"/>
</g>
</g>
</svg>
