<?xml version="1.0" encoding="UTF-8" standalone="no"?>
<!DOCTYPE svg PUBLIC "-//W3C//DTD SVG 1.1//EN"
 "http://www.w3.org/Graphics/SVG/1.1/DTD/svg11.dtd">
<!-- Generated by graphviz version 2.38.0 (20140413.2041)
 -->
<!-- Title: /home/travis/build/konsim83/MPI&#45;MSFEC/include/vector_tools/my_vector_tools.h Pages: 1 -->
<svg width="2422pt" height="392pt"
 viewBox="0.00 0.00 2422.00 392.00" xmlns="http://www.w3.org/2000/svg" xmlns:xlink="http://www.w3.org/1999/xlink">
<g id="graph0" class="graph" transform="scale(1 1) rotate(0) translate(4 388)">
<title>/home/travis/build/konsim83/MPI&#45;MSFEC/include/vector_tools/my_vector_tools.h</title>
<polygon fill="white" stroke="none" points="-4,4 -4,-388 2418,-388 2418,4 -4,4"/>
<!-- Node1 -->
<g id="node1" class="node"><title>Node1</title>
<polygon fill="#bfbfbf" stroke="black" points="1187,-315.5 1187,-383.5 1347,-383.5 1347,-315.5 1187,-315.5"/>
<text text-anchor="start" x="1195" y="-368.3" font-family="Helvetica,sans-Serif" font-size="14.00">/home/travis/build</text>
<text text-anchor="start" x="1195" y="-353.3" font-family="Helvetica,sans-Serif" font-size="14.00">/konsim83/MPI&#45;MSFEC</text>
<text text-anchor="start" x="1195" y="-338.3" font-family="Helvetica,sans-Serif" font-size="14.00">/include/vector_tools</text>
<text text-anchor="middle" x="1267" y="-323.3" font-family="Helvetica,sans-Serif" font-size="14.00">/my_vector_tools.h</text>
</g>
<!-- Node2 -->
<g id="node2" class="node"><title>Node2</title>
<g id="a_node2"><a xlink:href="ned__rt__basis_8h.html" target="_top" xlink:title="/home/travis/build\l/konsim83/MPI&#45;MSFEC\l/include/Ned_RT/ned_rt\l_basis.h">
<polygon fill="white" stroke="black" points="170,-210.5 170,-278.5 330,-278.5 330,-210.5 170,-210.5"/>
<text text-anchor="start" x="178" y="-263.3" font-family="Helvetica,sans-Serif" font-size="14.00">/home/travis/build</text>
<text text-anchor="start" x="178" y="-248.3" font-family="Helvetica,sans-Serif" font-size="14.00">/konsim83/MPI&#45;MSFEC</text>
<text text-anchor="start" x="178" y="-233.3" font-family="Helvetica,sans-Serif" font-size="14.00">/include/Ned_RT/ned_rt</text>
<text text-anchor="middle" x="250" y="-218.3" font-family="Helvetica,sans-Serif" font-size="14.00">_basis.h</text>
</a>
</g>
</g>
<!-- Node1&#45;&gt;Node2 -->
<g id="edge1" class="edge"><title>Node1&#45;&gt;Node2</title>
<path fill="none" stroke="midnightblue" d="M1176.46,-344.762C976.238,-335.995 501.225,-312.306 344,-279 339.424,-278.031 334.767,-276.893 330.098,-275.634"/>
<polygon fill="midnightblue" stroke="midnightblue" points="1176.51,-348.267 1186.65,-345.205 1176.81,-341.274 1176.51,-348.267"/>
</g>
<!-- Node4 -->
<g id="node4" class="node"><title>Node4</title>
<g id="a_node4"><a xlink:href="ned__rt__global_8h.html" target="_top" xlink:title="/home/travis/build\l/konsim83/MPI&#45;MSFEC\l/include/Ned_RT/ned_rt\l_global.h">
<polygon fill="white" stroke="black" points="178,-105.5 178,-173.5 338,-173.5 338,-105.5 178,-105.5"/>
<text text-anchor="start" x="186" y="-158.3" font-family="Helvetica,sans-Serif" font-size="14.00">/home/travis/build</text>
<text text-anchor="start" x="186" y="-143.3" font-family="Helvetica,sans-Serif" font-size="14.00">/konsim83/MPI&#45;MSFEC</text>
<text text-anchor="start" x="186" y="-128.3" font-family="Helvetica,sans-Serif" font-size="14.00">/include/Ned_RT/ned_rt</text>
<text text-anchor="middle" x="258" y="-113.3" font-family="Helvetica,sans-Serif" font-size="14.00">_global.h</text>
</a>
</g>
</g>
<!-- Node1&#45;&gt;Node4 -->
<g id="edge6" class="edge"><title>Node1&#45;&gt;Node4</title>
<path fill="none" stroke="midnightblue" d="M1176.62,-346.271C963.627,-340.336 443.082,-321.605 377,-279 347.576,-260.029 361.083,-237.167 339,-210 328.364,-196.916 315.055,-184.351 302.317,-173.591"/>
<polygon fill="midnightblue" stroke="midnightblue" points="1176.74,-349.775 1186.84,-346.552 1176.94,-342.778 1176.74,-349.775"/>
</g>
<!-- Node7 -->
<g id="node7" class="node"><title>Node7</title>
<g id="a_node7"><a xlink:href="ned__rt__ref_8h.html" target="_top" xlink:title="/home/travis/build\l/konsim83/MPI&#45;MSFEC\l/include/Ned_RT/ned_rt_ref.h">
<polygon fill="white" stroke="black" points="386,-218 386,-271 580,-271 580,-218 386,-218"/>
<text text-anchor="start" x="394" y="-255.8" font-family="Helvetica,sans-Serif" font-size="14.00">/home/travis/build</text>
<text text-anchor="start" x="394" y="-240.8" font-family="Helvetica,sans-Serif" font-size="14.00">/konsim83/MPI&#45;MSFEC</text>
<text text-anchor="middle" x="483" y="-225.8" font-family="Helvetica,sans-Serif" font-size="14.00">/include/Ned_RT/ned_rt_ref.h</text>
</a>
</g>
</g>
<!-- Node1&#45;&gt;Node7 -->
<g id="edge7" class="edge"><title>Node1&#45;&gt;Node7</title>
<path fill="none" stroke="midnightblue" d="M1176.77,-336.646C1028.17,-317.123 733.172,-278.367 580.152,-258.264"/>
<polygon fill="midnightblue" stroke="midnightblue" points="1176.41,-340.129 1186.78,-337.961 1177.32,-333.188 1176.41,-340.129"/>
</g>
<!-- Node9 -->
<g id="node9" class="node"><title>Node9</title>
<g id="a_node9"><a xlink:href="q__basis_8h.html" target="_top" xlink:title="/home/travis/build\l/konsim83/MPI&#45;MSFEC\l/include/Q/q_basis.h">
<polygon fill="white" stroke="black" points="750,-218 750,-271 910,-271 910,-218 750,-218"/>
<text text-anchor="start" x="758" y="-255.8" font-family="Helvetica,sans-Serif" font-size="14.00">/home/travis/build</text>
<text text-anchor="start" x="758" y="-240.8" font-family="Helvetica,sans-Serif" font-size="14.00">/konsim83/MPI&#45;MSFEC</text>
<text text-anchor="middle" x="830" y="-225.8" font-family="Helvetica,sans-Serif" font-size="14.00">/include/Q/q_basis.h</text>
</a>
</g>
</g>
<!-- Node1&#45;&gt;Node9 -->
<g id="edge10" class="edge"><title>Node1&#45;&gt;Node9</title>
<path fill="none" stroke="midnightblue" d="M1176.71,-329.189C1114.75,-315.711 1030.73,-296.982 957,-279 941.825,-275.299 925.678,-271.18 910.166,-267.132"/>
<polygon fill="midnightblue" stroke="midnightblue" points="1176.33,-332.689 1186.84,-331.391 1177.81,-325.848 1176.33,-332.689"/>
</g>
<!-- Node14 -->
<g id="node14" class="node"><title>Node14</title>
<g id="a_node14"><a xlink:href="q__ref_8h.html" target="_top" xlink:title="/home/travis/build\l/konsim83/MPI&#45;MSFEC\l/include/Q/q_ref.h">
<polygon fill="white" stroke="black" points="966,-218 966,-271 1126,-271 1126,-218 966,-218"/>
<text text-anchor="start" x="974" y="-255.8" font-family="Helvetica,sans-Serif" font-size="14.00">/home/travis/build</text>
<text text-anchor="start" x="974" y="-240.8" font-family="Helvetica,sans-Serif" font-size="14.00">/konsim83/MPI&#45;MSFEC</text>
<text text-anchor="middle" x="1046" y="-225.8" font-family="Helvetica,sans-Serif" font-size="14.00">/include/Q/q_ref.h</text>
</a>
</g>
</g>
<!-- Node1&#45;&gt;Node14 -->
<g id="edge15" class="edge"><title>Node1&#45;&gt;Node14</title>
<path fill="none" stroke="midnightblue" d="M1187.01,-311.221C1158.48,-297.922 1127,-283.251 1101.04,-271.15"/>
<polygon fill="midnightblue" stroke="midnightblue" points="1185.62,-314.433 1196.16,-315.485 1188.58,-308.088 1185.62,-314.433"/>
</g>
<!-- Node16 -->
<g id="node16" class="node"><title>Node16</title>
<g id="a_node16"><a xlink:href="q__ned__basis_8h.html" target="_top" xlink:title="/home/travis/build\l/konsim83/MPI&#45;MSFEC\l/include/Q_Ned/q_ned\l_basis.h">
<polygon fill="white" stroke="black" points="1187,-210.5 1187,-278.5 1347,-278.5 1347,-210.5 1187,-210.5"/>
<text text-anchor="start" x="1195" y="-263.3" font-family="Helvetica,sans-Serif" font-size="14.00">/home/travis/build</text>
<text text-anchor="start" x="1195" y="-248.3" font-family="Helvetica,sans-Serif" font-size="14.00">/konsim83/MPI&#45;MSFEC</text>
<text text-anchor="start" x="1195" y="-233.3" font-family="Helvetica,sans-Serif" font-size="14.00">/include/Q_Ned/q_ned</text>
<text text-anchor="middle" x="1267" y="-218.3" font-family="Helvetica,sans-Serif" font-size="14.00">_basis.h</text>
</a>
</g>
</g>
<!-- Node1&#45;&gt;Node16 -->
<g id="edge18" class="edge"><title>Node1&#45;&gt;Node16</title>
<path fill="none" stroke="midnightblue" d="M1267,-305.136C1267,-296.256 1267,-287.045 1267,-278.595"/>
<polygon fill="midnightblue" stroke="midnightblue" points="1263.5,-305.343 1267,-315.343 1270.5,-305.343 1263.5,-305.343"/>
</g>
<!-- Node18 -->
<g id="node18" class="node"><title>Node18</title>
<g id="a_node18"><a xlink:href="q__ned__global_8h.html" target="_top" xlink:title="/home/travis/build\l/konsim83/MPI&#45;MSFEC\l/include/Q_Ned/q_ned\l_global.h">
<polygon fill="white" stroke="black" points="1368,-105.5 1368,-173.5 1528,-173.5 1528,-105.5 1368,-105.5"/>
<text text-anchor="start" x="1376" y="-158.3" font-family="Helvetica,sans-Serif" font-size="14.00">/home/travis/build</text>
<text text-anchor="start" x="1376" y="-143.3" font-family="Helvetica,sans-Serif" font-size="14.00">/konsim83/MPI&#45;MSFEC</text>
<text text-anchor="start" x="1376" y="-128.3" font-family="Helvetica,sans-Serif" font-size="14.00">/include/Q_Ned/q_ned</text>
<text text-anchor="middle" x="1448" y="-113.3" font-family="Helvetica,sans-Serif" font-size="14.00">_global.h</text>
</a>
</g>
</g>
<!-- Node1&#45;&gt;Node18 -->
<g id="edge23" class="edge"><title>Node1&#45;&gt;Node18</title>
<path fill="none" stroke="midnightblue" d="M1323.07,-309.18C1334.57,-299.924 1346.15,-289.635 1356,-279 1386.11,-246.49 1413.19,-203.172 1430.04,-173.695"/>
<polygon fill="midnightblue" stroke="midnightblue" points="1320.84,-306.479 1315.15,-315.414 1325.17,-311.98 1320.84,-306.479"/>
</g>
<!-- Node21 -->
<g id="node21" class="node"><title>Node21</title>
<g id="a_node21"><a xlink:href="q__ned__ref_8h.html" target="_top" xlink:title="/home/travis/build\l/konsim83/MPI&#45;MSFEC\l/include/Q_Ned/q_ned_ref.h">
<polygon fill="white" stroke="black" points="1463,-218 1463,-271 1649,-271 1649,-218 1463,-218"/>
<text text-anchor="start" x="1471" y="-255.8" font-family="Helvetica,sans-Serif" font-size="14.00">/home/travis/build</text>
<text text-anchor="start" x="1471" y="-240.8" font-family="Helvetica,sans-Serif" font-size="14.00">/konsim83/MPI&#45;MSFEC</text>
<text text-anchor="middle" x="1556" y="-225.8" font-family="Helvetica,sans-Serif" font-size="14.00">/include/Q_Ned/q_ned_ref.h</text>
</a>
</g>
</g>
<!-- Node1&#45;&gt;Node21 -->
<g id="edge24" class="edge"><title>Node1&#45;&gt;Node21</title>
<path fill="none" stroke="midnightblue" d="M1356.57,-316.578C1397.58,-301.963 1445.52,-284.876 1484.12,-271.119"/>
<polygon fill="midnightblue" stroke="midnightblue" points="1355.36,-313.291 1347.12,-319.946 1357.71,-319.885 1355.36,-313.291"/>
</g>
<!-- Node23 -->
<g id="node23" class="node"><title>Node23</title>
<g id="a_node23"><a xlink:href="rt__dq__basis_8h.html" target="_top" xlink:title="/home/travis/build\l/konsim83/MPI&#45;MSFEC\l/include/RT_DQ/rt_dq\l_basis.h">
<polygon fill="white" stroke="black" points="1813,-210.5 1813,-278.5 1973,-278.5 1973,-210.5 1813,-210.5"/>
<text text-anchor="start" x="1821" y="-263.3" font-family="Helvetica,sans-Serif" font-size="14.00">/home/travis/build</text>
<text text-anchor="start" x="1821" y="-248.3" font-family="Helvetica,sans-Serif" font-size="14.00">/konsim83/MPI&#45;MSFEC</text>
<text text-anchor="start" x="1821" y="-233.3" font-family="Helvetica,sans-Serif" font-size="14.00">/include/RT_DQ/rt_dq</text>
<text text-anchor="middle" x="1893" y="-218.3" font-family="Helvetica,sans-Serif" font-size="14.00">_basis.h</text>
</a>
</g>
</g>
<!-- Node1&#45;&gt;Node23 -->
<g id="edge27" class="edge"><title>Node1&#45;&gt;Node23</title>
<path fill="none" stroke="midnightblue" d="M1357.32,-333.639C1479.56,-313.525 1695.8,-277.947 1812.66,-258.719"/>
<polygon fill="midnightblue" stroke="midnightblue" points="1356.54,-330.221 1347.24,-335.298 1357.67,-337.128 1356.54,-330.221"/>
</g>
<!-- Node25 -->
<g id="node25" class="node"><title>Node25</title>
<g id="a_node25"><a xlink:href="rt__dq__global_8h.html" target="_top" xlink:title="/home/travis/build\l/konsim83/MPI&#45;MSFEC\l/include/RT_DQ/rt_dq\l_global.h">
<polygon fill="white" stroke="black" points="2012,-105.5 2012,-173.5 2172,-173.5 2172,-105.5 2012,-105.5"/>
<text text-anchor="start" x="2020" y="-158.3" font-family="Helvetica,sans-Serif" font-size="14.00">/home/travis/build</text>
<text text-anchor="start" x="2020" y="-143.3" font-family="Helvetica,sans-Serif" font-size="14.00">/konsim83/MPI&#45;MSFEC</text>
<text text-anchor="start" x="2020" y="-128.3" font-family="Helvetica,sans-Serif" font-size="14.00">/include/RT_DQ/rt_dq</text>
<text text-anchor="middle" x="2092" y="-113.3" font-family="Helvetica,sans-Serif" font-size="14.00">_global.h</text>
</a>
</g>
</g>
<!-- Node1&#45;&gt;Node25 -->
<g id="edge32" class="edge"><title>Node1&#45;&gt;Node25</title>
<path fill="none" stroke="midnightblue" d="M1357.2,-348.386C1524.72,-346.776 1876.45,-336.421 1982,-279 2025.43,-255.375 2057.74,-206.686 2075.74,-173.803"/>
<polygon fill="midnightblue" stroke="midnightblue" points="1357.13,-344.887 1347.16,-348.474 1357.19,-351.886 1357.13,-344.887"/>
</g>
<!-- Node28 -->
<g id="node28" class="node"><title>Node28</title>
<g id="a_node28"><a xlink:href="rt__dq__ref_8h.html" target="_top" xlink:title="/home/travis/build\l/konsim83/MPI&#45;MSFEC\l/include/RT_DQ/rt_dq_ref.h">
<polygon fill="white" stroke="black" points="2109,-218 2109,-271 2291,-271 2291,-218 2109,-218"/>
<text text-anchor="start" x="2117" y="-255.8" font-family="Helvetica,sans-Serif" font-size="14.00">/home/travis/build</text>
<text text-anchor="start" x="2117" y="-240.8" font-family="Helvetica,sans-Serif" font-size="14.00">/konsim83/MPI&#45;MSFEC</text>
<text text-anchor="middle" x="2200" y="-225.8" font-family="Helvetica,sans-Serif" font-size="14.00">/include/RT_DQ/rt_dq_ref.h</text>
</a>
</g>
</g>
<!-- Node1&#45;&gt;Node28 -->
<g id="edge33" class="edge"><title>Node1&#45;&gt;Node28</title>
<path fill="none" stroke="midnightblue" d="M1357.46,-344.617C1504.5,-337.389 1804.16,-318.84 2055,-279 2072.48,-276.224 2090.99,-272.535 2108.72,-268.62"/>
<polygon fill="midnightblue" stroke="midnightblue" points="1356.96,-341.137 1347.14,-345.118 1357.3,-348.129 1356.96,-341.137"/>
</g>
<!-- Node3 -->
<g id="node3" class="node"><title>Node3</title>
<g id="a_node3"><a xlink:href="ned__rt__basis_8cc.html" target="_top" xlink:title="/home/travis/build\l/konsim83/MPI&#45;MSFEC\l/source/Ned_RT/ned_rt\l_basis.cc">
<polygon fill="white" stroke="black" points="0,-105.5 0,-173.5 160,-173.5 160,-105.5 0,-105.5"/>
<text text-anchor="start" x="8" y="-158.3" font-family="Helvetica,sans-Serif" font-size="14.00">/home/travis/build</text>
<text text-anchor="start" x="8" y="-143.3" font-family="Helvetica,sans-Serif" font-size="14.00">/konsim83/MPI&#45;MSFEC</text>
<text text-anchor="start" x="8" y="-128.3" font-family="Helvetica,sans-Serif" font-size="14.00">/source/Ned_RT/ned_rt</text>
<text text-anchor="middle" x="80" y="-113.3" font-family="Helvetica,sans-Serif" font-size="14.00">_basis.cc</text>
</a>
</g>
</g>
<!-- Node2&#45;&gt;Node3 -->
<g id="edge2" class="edge"><title>Node2&#45;&gt;Node3</title>
<path fill="none" stroke="midnightblue" d="M186.486,-205.018C169.434,-194.686 151.146,-183.606 134.622,-173.595"/>
<polygon fill="midnightblue" stroke="midnightblue" points="184.909,-208.155 195.275,-210.343 188.536,-202.168 184.909,-208.155"/>
</g>
<!-- Node2&#45;&gt;Node4 -->
<g id="edge3" class="edge"><title>Node2&#45;&gt;Node4</title>
<path fill="none" stroke="midnightblue" d="M253.368,-200.136C254.058,-191.256 254.773,-182.045 255.43,-173.595"/>
<polygon fill="midnightblue" stroke="midnightblue" points="249.86,-200.102 252.575,-210.343 256.839,-200.644 249.86,-200.102"/>
</g>
<!-- Node5 -->
<g id="node5" class="node"><title>Node5</title>
<g id="a_node5"><a xlink:href="main__ned__rt_8cxx.html" target="_top" xlink:title="/home/travis/build\l/konsim83/MPI&#45;MSFEC\l/source/main_ned_rt.cxx">
<polygon fill="white" stroke="black" points="284,-8 284,-61 448,-61 448,-8 284,-8"/>
<text text-anchor="start" x="292" y="-45.8" font-family="Helvetica,sans-Serif" font-size="14.00">/home/travis/build</text>
<text text-anchor="start" x="292" y="-30.8" font-family="Helvetica,sans-Serif" font-size="14.00">/konsim83/MPI&#45;MSFEC</text>
<text text-anchor="middle" x="366" y="-15.8" font-family="Helvetica,sans-Serif" font-size="14.00">/source/main_ned_rt.cxx</text>
</a>
</g>
</g>
<!-- Node4&#45;&gt;Node5 -->
<g id="edge4" class="edge"><title>Node4&#45;&gt;Node5</title>
<path fill="none" stroke="midnightblue" d="M300.332,-98.1277C313.412,-85.6533 327.451,-72.2641 339.178,-61.0806"/>
<polygon fill="midnightblue" stroke="midnightblue" points="297.587,-95.9088 292.766,-105.343 302.419,-100.974 297.587,-95.9088"/>
</g>
<!-- Node6 -->
<g id="node6" class="node"><title>Node6</title>
<g id="a_node6"><a xlink:href="ned__rt__global_8cc.html" target="_top" xlink:title="/home/travis/build\l/konsim83/MPI&#45;MSFEC\l/source/Ned_RT/ned_rt\l_global.cc">
<polygon fill="white" stroke="black" points="106,-0.5 106,-68.5 266,-68.5 266,-0.5 106,-0.5"/>
<text text-anchor="start" x="114" y="-53.3" font-family="Helvetica,sans-Serif" font-size="14.00">/home/travis/build</text>
<text text-anchor="start" x="114" y="-38.3" font-family="Helvetica,sans-Serif" font-size="14.00">/konsim83/MPI&#45;MSFEC</text>
<text text-anchor="start" x="114" y="-23.3" font-family="Helvetica,sans-Serif" font-size="14.00">/source/Ned_RT/ned_rt</text>
<text text-anchor="middle" x="186" y="-8.3" font-family="Helvetica,sans-Serif" font-size="14.00">_global.cc</text>
</a>
</g>
</g>
<!-- Node4&#45;&gt;Node6 -->
<g id="edge5" class="edge"><title>Node4&#45;&gt;Node6</title>
<path fill="none" stroke="midnightblue" d="M228.899,-96.8691C222.322,-87.4607 215.426,-77.5958 209.134,-68.5947"/>
<polygon fill="midnightblue" stroke="midnightblue" points="226.224,-99.1524 234.822,-105.343 231.962,-95.1419 226.224,-99.1524"/>
</g>
<!-- Node7&#45;&gt;Node5 -->
<g id="edge8" class="edge"><title>Node7&#45;&gt;Node5</title>
<path fill="none" stroke="midnightblue" d="M422.465,-212.135C408.036,-201.869 394.177,-189.132 385,-174 363.92,-139.239 362.291,-90.6739 363.684,-61.2496"/>
<polygon fill="midnightblue" stroke="midnightblue" points="420.749,-215.199 430.996,-217.893 424.666,-209.397 420.749,-215.199"/>
</g>
<!-- Node8 -->
<g id="node8" class="node"><title>Node8</title>
<g id="a_node8"><a xlink:href="ned__rt__ref_8cc.html" target="_top" xlink:title="/home/travis/build\l/konsim83/MPI&#45;MSFEC\l/source/Ned_RT/ned_rt\l_ref.cc">
<polygon fill="white" stroke="black" points="394,-105.5 394,-173.5 554,-173.5 554,-105.5 394,-105.5"/>
<text text-anchor="start" x="402" y="-158.3" font-family="Helvetica,sans-Serif" font-size="14.00">/home/travis/build</text>
<text text-anchor="start" x="402" y="-143.3" font-family="Helvetica,sans-Serif" font-size="14.00">/konsim83/MPI&#45;MSFEC</text>
<text text-anchor="start" x="402" y="-128.3" font-family="Helvetica,sans-Serif" font-size="14.00">/source/Ned_RT/ned_rt</text>
<text text-anchor="middle" x="474" y="-113.3" font-family="Helvetica,sans-Serif" font-size="14.00">_ref.cc</text>
</a>
</g>
</g>
<!-- Node7&#45;&gt;Node8 -->
<g id="edge9" class="edge"><title>Node7&#45;&gt;Node8</title>
<path fill="none" stroke="midnightblue" d="M479.863,-207.604C478.9,-196.582 477.845,-184.506 476.899,-173.675"/>
<polygon fill="midnightblue" stroke="midnightblue" points="476.395,-208.117 480.752,-217.774 483.368,-207.508 476.395,-208.117"/>
</g>
<!-- Node10 -->
<g id="node10" class="node"><title>Node10</title>
<g id="a_node10"><a xlink:href="q__basis_8cc.html" target="_top" xlink:title="/home/travis/build\l/konsim83/MPI&#45;MSFEC\l/source/Q/q_basis.cc">
<polygon fill="white" stroke="black" points="572,-113 572,-166 732,-166 732,-113 572,-113"/>
<text text-anchor="start" x="580" y="-150.8" font-family="Helvetica,sans-Serif" font-size="14.00">/home/travis/build</text>
<text text-anchor="start" x="580" y="-135.8" font-family="Helvetica,sans-Serif" font-size="14.00">/konsim83/MPI&#45;MSFEC</text>
<text text-anchor="middle" x="652" y="-120.8" font-family="Helvetica,sans-Serif" font-size="14.00">/source/Q/q_basis.cc</text>
</a>
</g>
</g>
<!-- Node9&#45;&gt;Node10 -->
<g id="edge11" class="edge"><title>Node9&#45;&gt;Node10</title>
<path fill="none" stroke="midnightblue" d="M776.675,-212.643C750.995,-197.784 720.566,-180.176 696.199,-166.076"/>
<polygon fill="midnightblue" stroke="midnightblue" points="775.134,-215.795 785.542,-217.774 778.64,-209.737 775.134,-215.795"/>
</g>
<!-- Node11 -->
<g id="node11" class="node"><title>Node11</title>
<g id="a_node11"><a xlink:href="q__global_8h.html" target="_top" xlink:title="/home/travis/build\l/konsim83/MPI&#45;MSFEC\l/include/Q/q_global.h">
<polygon fill="white" stroke="black" points="750,-113 750,-166 910,-166 910,-113 750,-113"/>
<text text-anchor="start" x="758" y="-150.8" font-family="Helvetica,sans-Serif" font-size="14.00">/home/travis/build</text>
<text text-anchor="start" x="758" y="-135.8" font-family="Helvetica,sans-Serif" font-size="14.00">/konsim83/MPI&#45;MSFEC</text>
<text text-anchor="middle" x="830" y="-120.8" font-family="Helvetica,sans-Serif" font-size="14.00">/include/Q/q_global.h</text>
</a>
</g>
</g>
<!-- Node9&#45;&gt;Node11 -->
<g id="edge12" class="edge"><title>Node9&#45;&gt;Node11</title>
<path fill="none" stroke="midnightblue" d="M830,-207.726C830,-194.075 830,-178.794 830,-166.255"/>
<polygon fill="midnightblue" stroke="midnightblue" points="826.5,-207.774 830,-217.774 833.5,-207.774 826.5,-207.774"/>
</g>
<!-- Node12 -->
<g id="node12" class="node"><title>Node12</title>
<g id="a_node12"><a xlink:href="main__q_8cxx.html" target="_top" xlink:title="/home/travis/build\l/konsim83/MPI&#45;MSFEC\l/source/main_q.cxx">
<polygon fill="white" stroke="black" points="858,-8 858,-61 1018,-61 1018,-8 858,-8"/>
<text text-anchor="start" x="866" y="-45.8" font-family="Helvetica,sans-Serif" font-size="14.00">/home/travis/build</text>
<text text-anchor="start" x="866" y="-30.8" font-family="Helvetica,sans-Serif" font-size="14.00">/konsim83/MPI&#45;MSFEC</text>
<text text-anchor="middle" x="938" y="-15.8" font-family="Helvetica,sans-Serif" font-size="14.00">/source/main_q.cxx</text>
</a>
</g>
</g>
<!-- Node11&#45;&gt;Node12 -->
<g id="edge13" class="edge"><title>Node11&#45;&gt;Node12</title>
<path fill="none" stroke="midnightblue" d="M864.589,-105.512C879.611,-91.1856 896.945,-74.6547 910.995,-61.2546"/>
<polygon fill="midnightblue" stroke="midnightblue" points="861.795,-103.34 856.974,-112.774 866.627,-108.406 861.795,-103.34"/>
</g>
<!-- Node13 -->
<g id="node13" class="node"><title>Node13</title>
<g id="a_node13"><a xlink:href="q__global_8cc.html" target="_top" xlink:title="/home/travis/build\l/konsim83/MPI&#45;MSFEC\l/source/Q/q_global.cc">
<polygon fill="white" stroke="black" points="680,-8 680,-61 840,-61 840,-8 680,-8"/>
<text text-anchor="start" x="688" y="-45.8" font-family="Helvetica,sans-Serif" font-size="14.00">/home/travis/build</text>
<text text-anchor="start" x="688" y="-30.8" font-family="Helvetica,sans-Serif" font-size="14.00">/konsim83/MPI&#45;MSFEC</text>
<text text-anchor="middle" x="760" y="-15.8" font-family="Helvetica,sans-Serif" font-size="14.00">/source/Q/q_global.cc</text>
</a>
</g>
</g>
<!-- Node11&#45;&gt;Node13 -->
<g id="edge14" class="edge"><title>Node11&#45;&gt;Node13</title>
<path fill="none" stroke="midnightblue" d="M806.774,-104.324C797.228,-90.278 786.359,-74.2859 777.503,-61.2546"/>
<polygon fill="midnightblue" stroke="midnightblue" points="804.001,-106.471 812.517,-112.774 809.79,-102.536 804.001,-106.471"/>
</g>
<!-- Node14&#45;&gt;Node12 -->
<g id="edge16" class="edge"><title>Node14&#45;&gt;Node12</title>
<path fill="none" stroke="midnightblue" d="M991.564,-211.639C978.248,-201.289 965.42,-188.635 957,-174 936.727,-138.763 934.849,-90.3442 935.974,-61.0786"/>
<polygon fill="midnightblue" stroke="midnightblue" points="989.761,-214.657 999.884,-217.782 993.919,-209.026 989.761,-214.657"/>
</g>
<!-- Node15 -->
<g id="node15" class="node"><title>Node15</title>
<g id="a_node15"><a xlink:href="q__ref_8cc.html" target="_top" xlink:title="/home/travis/build\l/konsim83/MPI&#45;MSFEC\l/source/Q/q_ref.cc">
<polygon fill="white" stroke="black" points="966,-113 966,-166 1126,-166 1126,-113 966,-113"/>
<text text-anchor="start" x="974" y="-150.8" font-family="Helvetica,sans-Serif" font-size="14.00">/home/travis/build</text>
<text text-anchor="start" x="974" y="-135.8" font-family="Helvetica,sans-Serif" font-size="14.00">/konsim83/MPI&#45;MSFEC</text>
<text text-anchor="middle" x="1046" y="-120.8" font-family="Helvetica,sans-Serif" font-size="14.00">/source/Q/q_ref.cc</text>
</a>
</g>
</g>
<!-- Node14&#45;&gt;Node15 -->
<g id="edge17" class="edge"><title>Node14&#45;&gt;Node15</title>
<path fill="none" stroke="midnightblue" d="M1046,-207.726C1046,-194.075 1046,-178.794 1046,-166.255"/>
<polygon fill="midnightblue" stroke="midnightblue" points="1042.5,-207.774 1046,-217.774 1049.5,-207.774 1042.5,-207.774"/>
</g>
<!-- Node17 -->
<g id="node17" class="node"><title>Node17</title>
<g id="a_node17"><a xlink:href="q__ned__basis_8cc.html" target="_top" xlink:title="/home/travis/build\l/konsim83/MPI&#45;MSFEC\l/source/Q_Ned/q_ned_basis.cc">
<polygon fill="white" stroke="black" points="1144,-113 1144,-166 1350,-166 1350,-113 1144,-113"/>
<text text-anchor="start" x="1152" y="-150.8" font-family="Helvetica,sans-Serif" font-size="14.00">/home/travis/build</text>
<text text-anchor="start" x="1152" y="-135.8" font-family="Helvetica,sans-Serif" font-size="14.00">/konsim83/MPI&#45;MSFEC</text>
<text text-anchor="middle" x="1247" y="-120.8" font-family="Helvetica,sans-Serif" font-size="14.00">/source/Q_Ned/q_ned_basis.cc</text>
</a>
</g>
</g>
<!-- Node16&#45;&gt;Node17 -->
<g id="edge19" class="edge"><title>Node16&#45;&gt;Node17</title>
<path fill="none" stroke="midnightblue" d="M1258.61,-200.316C1256.35,-188.663 1253.98,-176.428 1251.97,-166.081"/>
<polygon fill="midnightblue" stroke="midnightblue" points="1255.22,-201.194 1260.56,-210.343 1262.09,-199.859 1255.22,-201.194"/>
</g>
<!-- Node16&#45;&gt;Node18 -->
<g id="edge20" class="edge"><title>Node16&#45;&gt;Node18</title>
<path fill="none" stroke="midnightblue" d="M1334.12,-205.302C1352.42,-194.89 1372.09,-183.698 1389.84,-173.595"/>
<polygon fill="midnightblue" stroke="midnightblue" points="1332.23,-202.355 1325.27,-210.343 1335.69,-208.439 1332.23,-202.355"/>
</g>
<!-- Node19 -->
<g id="node19" class="node"><title>Node19</title>
<g id="a_node19"><a xlink:href="main__q__ned_8cxx.html" target="_top" xlink:title="/home/travis/build\l/konsim83/MPI&#45;MSFEC\l/source/main_q_ned.cxx">
<polygon fill="white" stroke="black" points="1474,-8 1474,-61 1638,-61 1638,-8 1474,-8"/>
<text text-anchor="start" x="1482" y="-45.8" font-family="Helvetica,sans-Serif" font-size="14.00">/home/travis/build</text>
<text text-anchor="start" x="1482" y="-30.8" font-family="Helvetica,sans-Serif" font-size="14.00">/konsim83/MPI&#45;MSFEC</text>
<text text-anchor="middle" x="1556" y="-15.8" font-family="Helvetica,sans-Serif" font-size="14.00">/source/main_q_ned.cxx</text>
</a>
</g>
</g>
<!-- Node18&#45;&gt;Node19 -->
<g id="edge21" class="edge"><title>Node18&#45;&gt;Node19</title>
<path fill="none" stroke="midnightblue" d="M1490.33,-98.1277C1503.41,-85.6533 1517.45,-72.2641 1529.18,-61.0806"/>
<polygon fill="midnightblue" stroke="midnightblue" points="1487.59,-95.9088 1482.77,-105.343 1492.42,-100.974 1487.59,-95.9088"/>
</g>
<!-- Node20 -->
<g id="node20" class="node"><title>Node20</title>
<g id="a_node20"><a xlink:href="q__ned__global_8cc.html" target="_top" xlink:title="/home/travis/build\l/konsim83/MPI&#45;MSFEC\l/source/Q_Ned/q_ned_global.cc">
<polygon fill="white" stroke="black" points="1246,-8 1246,-61 1456,-61 1456,-8 1246,-8"/>
<text text-anchor="start" x="1254" y="-45.8" font-family="Helvetica,sans-Serif" font-size="14.00">/home/travis/build</text>
<text text-anchor="start" x="1254" y="-30.8" font-family="Helvetica,sans-Serif" font-size="14.00">/konsim83/MPI&#45;MSFEC</text>
<text text-anchor="middle" x="1351" y="-15.8" font-family="Helvetica,sans-Serif" font-size="14.00">/source/Q_Ned/q_ned_global.cc</text>
</a>
</g>
</g>
<!-- Node18&#45;&gt;Node20 -->
<g id="edge22" class="edge"><title>Node18&#45;&gt;Node20</title>
<path fill="none" stroke="midnightblue" d="M1409.65,-97.7777C1398,-85.4032 1385.52,-72.1596 1375.09,-61.0806"/>
<polygon fill="midnightblue" stroke="midnightblue" points="1407.37,-100.463 1416.77,-105.343 1412.47,-95.6637 1407.37,-100.463"/>
</g>
<!-- Node21&#45;&gt;Node19 -->
<g id="edge25" class="edge"><title>Node21&#45;&gt;Node19</title>
<path fill="none" stroke="midnightblue" d="M1556,-207.733C1556,-166.008 1556,-98.0554 1556,-61.2135"/>
<polygon fill="midnightblue" stroke="midnightblue" points="1552.5,-207.995 1556,-217.995 1559.5,-207.995 1552.5,-207.995"/>
</g>
<!-- Node22 -->
<g id="node22" class="node"><title>Node22</title>
<g id="a_node22"><a xlink:href="q__ned__ref_8cc.html" target="_top" xlink:title="/home/travis/build\l/konsim83/MPI&#45;MSFEC\l/source/Q_Ned/q_ned_ref.cc">
<polygon fill="white" stroke="black" points="1584,-113 1584,-166 1774,-166 1774,-113 1584,-113"/>
<text text-anchor="start" x="1592" y="-150.8" font-family="Helvetica,sans-Serif" font-size="14.00">/home/travis/build</text>
<text text-anchor="start" x="1592" y="-135.8" font-family="Helvetica,sans-Serif" font-size="14.00">/konsim83/MPI&#45;MSFEC</text>
<text text-anchor="middle" x="1679" y="-120.8" font-family="Helvetica,sans-Serif" font-size="14.00">/source/Q_Ned/q_ned_ref.cc</text>
</a>
</g>
</g>
<!-- Node21&#45;&gt;Node22 -->
<g id="edge26" class="edge"><title>Node21&#45;&gt;Node22</title>
<path fill="none" stroke="midnightblue" d="M1594.45,-211.298C1611.78,-196.793 1631.95,-179.901 1648.24,-166.255"/>
<polygon fill="midnightblue" stroke="midnightblue" points="1592.14,-208.671 1586.72,-217.774 1596.63,-214.038 1592.14,-208.671"/>
</g>
<!-- Node24 -->
<g id="node24" class="node"><title>Node24</title>
<g id="a_node24"><a xlink:href="rt__dq__basis_8cc.html" target="_top" xlink:title="/home/travis/build\l/konsim83/MPI&#45;MSFEC\l/source/RT_DQ/rt_dq_basis.cc">
<polygon fill="white" stroke="black" points="1792,-113 1792,-166 1994,-166 1994,-113 1792,-113"/>
<text text-anchor="start" x="1800" y="-150.8" font-family="Helvetica,sans-Serif" font-size="14.00">/home/travis/build</text>
<text text-anchor="start" x="1800" y="-135.8" font-family="Helvetica,sans-Serif" font-size="14.00">/konsim83/MPI&#45;MSFEC</text>
<text text-anchor="middle" x="1893" y="-120.8" font-family="Helvetica,sans-Serif" font-size="14.00">/source/RT_DQ/rt_dq_basis.cc</text>
</a>
</g>
</g>
<!-- Node23&#45;&gt;Node24 -->
<g id="edge28" class="edge"><title>Node23&#45;&gt;Node24</title>
<path fill="none" stroke="midnightblue" d="M1893,-200.316C1893,-188.663 1893,-176.428 1893,-166.081"/>
<polygon fill="midnightblue" stroke="midnightblue" points="1889.5,-200.343 1893,-210.343 1896.5,-200.343 1889.5,-200.343"/>
</g>
<!-- Node23&#45;&gt;Node25 -->
<g id="edge29" class="edge"><title>Node23&#45;&gt;Node25</title>
<path fill="none" stroke="midnightblue" d="M1965.75,-205.843C1986.23,-195.247 2008.33,-183.806 2028.23,-173.505"/>
<polygon fill="midnightblue" stroke="midnightblue" points="1964.06,-202.78 1956.79,-210.485 1967.28,-208.997 1964.06,-202.78"/>
</g>
<!-- Node26 -->
<g id="node26" class="node"><title>Node26</title>
<g id="a_node26"><a xlink:href="main__rt__dq_8cxx.html" target="_top" xlink:title="/home/travis/build\l/konsim83/MPI&#45;MSFEC\l/source/main_rt_dq.cxx">
<polygon fill="white" stroke="black" points="2120,-8 2120,-61 2280,-61 2280,-8 2120,-8"/>
<text text-anchor="start" x="2128" y="-45.8" font-family="Helvetica,sans-Serif" font-size="14.00">/home/travis/build</text>
<text text-anchor="start" x="2128" y="-30.8" font-family="Helvetica,sans-Serif" font-size="14.00">/konsim83/MPI&#45;MSFEC</text>
<text text-anchor="middle" x="2200" y="-15.8" font-family="Helvetica,sans-Serif" font-size="14.00">/source/main_rt_dq.cxx</text>
</a>
</g>
</g>
<!-- Node25&#45;&gt;Node26 -->
<g id="edge30" class="edge"><title>Node25&#45;&gt;Node26</title>
<path fill="none" stroke="midnightblue" d="M2134.33,-98.1277C2147.41,-85.6533 2161.45,-72.2641 2173.18,-61.0806"/>
<polygon fill="midnightblue" stroke="midnightblue" points="2131.59,-95.9088 2126.77,-105.343 2136.42,-100.974 2131.59,-95.9088"/>
</g>
<!-- Node27 -->
<g id="node27" class="node"><title>Node27</title>
<g id="a_node27"><a xlink:href="rt__dq__global_8cc.html" target="_top" xlink:title="/home/travis/build\l/konsim83/MPI&#45;MSFEC\l/source/RT_DQ/rt_dq_global.cc">
<polygon fill="white" stroke="black" points="1896,-8 1896,-61 2102,-61 2102,-8 1896,-8"/>
<text text-anchor="start" x="1904" y="-45.8" font-family="Helvetica,sans-Serif" font-size="14.00">/home/travis/build</text>
<text text-anchor="start" x="1904" y="-30.8" font-family="Helvetica,sans-Serif" font-size="14.00">/konsim83/MPI&#45;MSFEC</text>
<text text-anchor="middle" x="1999" y="-15.8" font-family="Helvetica,sans-Serif" font-size="14.00">/source/RT_DQ/rt_dq_global.cc</text>
</a>
</g>
</g>
<!-- Node25&#45;&gt;Node27 -->
<g id="edge31" class="edge"><title>Node25&#45;&gt;Node27</title>
<path fill="none" stroke="midnightblue" d="M2055.23,-97.7777C2044.06,-85.4032 2032.1,-72.1596 2022.1,-61.0806"/>
<polygon fill="midnightblue" stroke="midnightblue" points="2052.76,-100.267 2062.06,-105.343 2057.96,-95.5754 2052.76,-100.267"/>
</g>
<!-- Node28&#45;&gt;Node26 -->
<g id="edge34" class="edge"><title>Node28&#45;&gt;Node26</title>
<path fill="none" stroke="midnightblue" d="M2200,-207.733C2200,-166.008 2200,-98.0554 2200,-61.2135"/>
<polygon fill="midnightblue" stroke="midnightblue" points="2196.5,-207.995 2200,-217.995 2203.5,-207.995 2196.5,-207.995"/>
</g>
<!-- Node29 -->
<g id="node29" class="node"><title>Node29</title>
<g id="a_node29"><a xlink:href="rt__dq__ref_8cc.html" target="_top" xlink:title="/home/travis/build\l/konsim83/MPI&#45;MSFEC\l/source/RT_DQ/rt_dq_ref.cc">
<polygon fill="white" stroke="black" points="2228,-113 2228,-166 2414,-166 2414,-113 2228,-113"/>
<text text-anchor="start" x="2236" y="-150.8" font-family="Helvetica,sans-Serif" font-size="14.00">/home/travis/build</text>
<text text-anchor="start" x="2236" y="-135.8" font-family="Helvetica,sans-Serif" font-size="14.00">/konsim83/MPI&#45;MSFEC</text>
<text text-anchor="middle" x="2321" y="-120.8" font-family="Helvetica,sans-Serif" font-size="14.00">/source/RT_DQ/rt_dq_ref.cc</text>
</a>
</g>
</g>
<!-- Node28&#45;&gt;Node29 -->
<g id="edge35" class="edge"><title>Node28&#45;&gt;Node29</title>
<path fill="none" stroke="midnightblue" d="M2238.29,-210.906C2255.23,-196.489 2274.86,-179.778 2290.74,-166.255"/>
<polygon fill="midnightblue" stroke="midnightblue" points="2235.57,-208.627 2230.22,-217.774 2240.1,-213.958 2235.57,-208.627"/>
</g>
</g>
</svg>
