<?xml version="1.0" encoding="UTF-8" standalone="no"?>
<!DOCTYPE svg PUBLIC "-//W3C//DTD SVG 1.1//EN"
 "http://www.w3.org/Graphics/SVG/1.1/DTD/svg11.dtd">
<!-- Generated by graphviz version 2.38.0 (20140413.2041)
 -->
<!-- Title: /home/travis/build/konsim83/MPI&#45;MSFEC/source/vector_tools/my_vector_tools.inst.cc Pages: 1 -->
<svg width="169pt" height="152pt"
 viewBox="0.00 0.00 169.00 152.00" xmlns="http://www.w3.org/2000/svg" xmlns:xlink="http://www.w3.org/1999/xlink">
<g id="graph0" class="graph" transform="scale(1 1) rotate(0) translate(4 148)">
<title>/home/travis/build/konsim83/MPI&#45;MSFEC/source/vector_tools/my_vector_tools.inst.cc</title>
<polygon fill="white" stroke="none" points="-4,4 -4,-148 165,-148 165,4 -4,4"/>
<!-- Node1 -->
<g id="node1" class="node"><title>Node1</title>
<polygon fill="#bfbfbf" stroke="black" points="0,-75.5 0,-143.5 161,-143.5 161,-75.5 0,-75.5"/>
<text text-anchor="start" x="8" y="-128.3" font-family="Helvetica,sans-Serif" font-size="14.00">/home/travis/build</text>
<text text-anchor="start" x="8" y="-113.3" font-family="Helvetica,sans-Serif" font-size="14.00">/konsim83/MPI&#45;MSFEC</text>
<text text-anchor="start" x="8" y="-98.3" font-family="Helvetica,sans-Serif" font-size="14.00">/source/vector_tools</text>
<text text-anchor="middle" x="80.5" y="-83.3" font-family="Helvetica,sans-Serif" font-size="14.00">/my_vector_tools.inst.cc</text>
</g>
<!-- Node2 -->
<g id="node2" class="node"><title>Node2</title>
<g id="a_node2"><a xlink:href="my__vector__tools_8tpp.html" target="_top" xlink:title="vector_tools/my_vector\l_tools.tpp">
<polygon fill="white" stroke="black" points="2.5,-0.5 2.5,-38.5 158.5,-38.5 158.5,-0.5 2.5,-0.5"/>
<text text-anchor="start" x="10.5" y="-23.3" font-family="Helvetica,sans-Serif" font-size="14.00">vector_tools/my_vector</text>
<text text-anchor="middle" x="80.5" y="-8.3" font-family="Helvetica,sans-Serif" font-size="14.00">_tools.tpp</text>
</a>
</g>
</g>
<!-- Node1&#45;&gt;Node2 -->
<g id="edge1" class="edge"><title>Node1&#45;&gt;Node2</title>
<path fill="none" stroke="midnightblue" d="M80.5,-75.4817C80.5,-66.703 80.5,-57.3014 80.5,-48.7997"/>
<polygon fill="midnightblue" stroke="midnightblue" points="84.0001,-48.6269 80.5,-38.627 77.0001,-48.627 84.0001,-48.6269"/>
</g>
</g>
</svg>
