<?xml version="1.0" encoding="UTF-8" standalone="no"?>
<!DOCTYPE svg PUBLIC "-//W3C//DTD SVG 1.1//EN"
 "http://www.w3.org/Graphics/SVG/1.1/DTD/svg11.dtd">
<!-- Generated by graphviz version 2.38.0 (20140413.2041)
 -->
<!-- Title: /home/travis/build/konsim83/MPI&#45;MSFEC/source/functions/my_mapping_q1.inst.cc Pages: 1 -->
<svg width="1195pt" height="227pt"
 viewBox="0.00 0.00 1195.00 227.00" xmlns="http://www.w3.org/2000/svg" xmlns:xlink="http://www.w3.org/1999/xlink">
<g id="graph0" class="graph" transform="scale(1 1) rotate(0) translate(4 223)">
<title>/home/travis/build/konsim83/MPI&#45;MSFEC/source/functions/my_mapping_q1.inst.cc</title>
<polygon fill="white" stroke="none" points="-4,4 -4,-223 1191,-223 1191,4 -4,4"/>
<!-- Node1 -->
<g id="node1" class="node"><title>Node1</title>
<polygon fill="#bfbfbf" stroke="black" points="639.5,-150.5 639.5,-218.5 799.5,-218.5 799.5,-150.5 639.5,-150.5"/>
<text text-anchor="start" x="647.5" y="-203.3" font-family="Helvetica,sans-Serif" font-size="14.00">/home/travis/build</text>
<text text-anchor="start" x="647.5" y="-188.3" font-family="Helvetica,sans-Serif" font-size="14.00">/konsim83/MPI&#45;MSFEC</text>
<text text-anchor="start" x="647.5" y="-173.3" font-family="Helvetica,sans-Serif" font-size="14.00">/source/functions/my</text>
<text text-anchor="middle" x="719.5" y="-158.3" font-family="Helvetica,sans-Serif" font-size="14.00">_mapping_q1.inst.cc</text>
</g>
<!-- Node2 -->
<g id="node2" class="node"><title>Node2</title>
<g id="a_node2"><a xlink:href="my__mapping__q1_8h.html" target="_top" xlink:title="functions/my_mapping_q1.h">
<polygon fill="white" stroke="black" points="532,-83 532,-106 719,-106 719,-83 532,-83"/>
<text text-anchor="middle" x="625.5" y="-90.8" font-family="Helvetica,sans-Serif" font-size="14.00">functions/my_mapping_q1.h</text>
</a>
</g>
</g>
<!-- Node1&#45;&gt;Node2 -->
<g id="edge1" class="edge"><title>Node1&#45;&gt;Node2</title>
<path fill="none" stroke="midnightblue" d="M684.23,-150.482C670.816,-137.923 656.039,-124.09 644.664,-113.441"/>
<polygon fill="midnightblue" stroke="midnightblue" points="646.742,-110.592 637.05,-106.313 641.958,-115.702 646.742,-110.592"/>
</g>
<!-- Node11 -->
<g id="node11" class="node"><title>Node11</title>
<g id="a_node11"><a xlink:href="my__mapping__q1_8tpp.html" target="_top" xlink:title="functions/my_mapping\l_q1.tpp">
<polygon fill="white" stroke="black" points="737,-75.5 737,-113.5 890,-113.5 890,-75.5 737,-75.5"/>
<text text-anchor="start" x="745" y="-98.3" font-family="Helvetica,sans-Serif" font-size="14.00">functions/my_mapping</text>
<text text-anchor="middle" x="813.5" y="-83.3" font-family="Helvetica,sans-Serif" font-size="14.00">_q1.tpp</text>
</a>
</g>
</g>
<!-- Node1&#45;&gt;Node11 -->
<g id="edge10" class="edge"><title>Node1&#45;&gt;Node11</title>
<path fill="none" stroke="midnightblue" d="M754.77,-150.482C765.293,-140.63 776.654,-129.994 786.555,-120.726"/>
<polygon fill="midnightblue" stroke="midnightblue" points="789.229,-123.016 794.137,-113.627 784.445,-117.906 789.229,-123.016"/>
</g>
<!-- Node3 -->
<g id="node3" class="node"><title>Node3</title>
<polygon fill="white" stroke="#bfbfbf" points="0,-0.5 0,-38.5 147,-38.5 147,-0.5 0,-0.5"/>
<text text-anchor="start" x="8" y="-23.3" font-family="Helvetica,sans-Serif" font-size="14.00">deal.II/base/geometry</text>
<text text-anchor="middle" x="73.5" y="-8.3" font-family="Helvetica,sans-Serif" font-size="14.00">_info.h</text>
</g>
<!-- Node2&#45;&gt;Node3 -->
<g id="edge2" class="edge"><title>Node2&#45;&gt;Node3</title>
<path fill="none" stroke="midnightblue" d="M531.895,-85.6046C439.063,-77.0986 292.63,-61.8643 157.32,-39.2261"/>
<polygon fill="midnightblue" stroke="midnightblue" points="157.627,-35.7284 147.184,-37.5126 156.46,-42.6305 157.627,-35.7284"/>
</g>
<!-- Node4 -->
<g id="node4" class="node"><title>Node4</title>
<polygon fill="white" stroke="#bfbfbf" points="165,-8 165,-31 296,-31 296,-8 165,-8"/>
<text text-anchor="middle" x="230.5" y="-15.8" font-family="Helvetica,sans-Serif" font-size="14.00">deal.II/base/point.h</text>
</g>
<!-- Node2&#45;&gt;Node4 -->
<g id="edge3" class="edge"><title>Node2&#45;&gt;Node4</title>
<path fill="none" stroke="midnightblue" d="M554.125,-82.9908C488.878,-73.003 389.839,-56.8842 304.5,-39 296.576,-37.3393 288.215,-35.4166 280.079,-33.4518"/>
<polygon fill="midnightblue" stroke="midnightblue" points="280.858,-30.039 270.311,-31.049 279.186,-36.8364 280.858,-30.039"/>
</g>
<!-- Node5 -->
<g id="node5" class="node"><title>Node5</title>
<polygon fill="white" stroke="#bfbfbf" points="314,-8 314,-31 427,-31 427,-8 314,-8"/>
<text text-anchor="middle" x="370.5" y="-15.8" font-family="Helvetica,sans-Serif" font-size="14.00">deal.II/grid/tria.h</text>
</g>
<!-- Node2&#45;&gt;Node5 -->
<g id="edge4" class="edge"><title>Node2&#45;&gt;Node5</title>
<path fill="none" stroke="midnightblue" d="M588.693,-82.9631C543.402,-69.9974 466.454,-47.9693 417.087,-33.8366"/>
<polygon fill="midnightblue" stroke="midnightblue" points="417.873,-30.4211 407.296,-31.0337 415.946,-37.1508 417.873,-30.4211"/>
</g>
<!-- Node6 -->
<g id="node6" class="node"><title>Node6</title>
<polygon fill="white" stroke="#bfbfbf" points="445,-8 445,-31 620,-31 620,-8 445,-8"/>
<text text-anchor="middle" x="532.5" y="-15.8" font-family="Helvetica,sans-Serif" font-size="14.00">deal.II/grid/tria_accessor.h</text>
</g>
<!-- Node2&#45;&gt;Node6 -->
<g id="edge5" class="edge"><title>Node2&#45;&gt;Node6</title>
<path fill="none" stroke="midnightblue" d="M611.778,-82.7286C596.58,-70.7995 571.879,-51.4103 554.085,-37.443"/>
<polygon fill="midnightblue" stroke="midnightblue" points="556.004,-34.4996 545.976,-31.0783 551.681,-40.0059 556.004,-34.4996"/>
</g>
<!-- Node7 -->
<g id="node7" class="node"><title>Node7</title>
<polygon fill="white" stroke="#bfbfbf" points="638,-8 638,-31 801,-31 801,-8 638,-8"/>
<text text-anchor="middle" x="719.5" y="-15.8" font-family="Helvetica,sans-Serif" font-size="14.00">deal.II/grid/tria_iterator.h</text>
</g>
<!-- Node2&#45;&gt;Node7 -->
<g id="edge6" class="edge"><title>Node2&#45;&gt;Node7</title>
<path fill="none" stroke="midnightblue" d="M639.37,-82.7286C654.731,-70.7995 679.698,-51.4103 697.683,-37.443"/>
<polygon fill="midnightblue" stroke="midnightblue" points="700.127,-39.9762 705.879,-31.0783 695.834,-34.4476 700.127,-39.9762"/>
</g>
<!-- Node8 -->
<g id="node8" class="node"><title>Node8</title>
<polygon fill="white" stroke="#bfbfbf" points="819.5,-8 819.5,-31 971.5,-31 971.5,-8 819.5,-8"/>
<text text-anchor="middle" x="895.5" y="-15.8" font-family="Helvetica,sans-Serif" font-size="14.00">deal.II/lac/full_matrix.h</text>
</g>
<!-- Node2&#45;&gt;Node8 -->
<g id="edge7" class="edge"><title>Node2&#45;&gt;Node8</title>
<path fill="none" stroke="midnightblue" d="M664.472,-82.9631C712.628,-69.9433 794.582,-47.7852 846.826,-33.66"/>
<polygon fill="midnightblue" stroke="midnightblue" points="847.8,-37.0224 856.54,-31.0337 845.973,-30.265 847.8,-37.0224"/>
</g>
<!-- Node9 -->
<g id="node9" class="node"><title>Node9</title>
<polygon fill="white" stroke="#bfbfbf" points="989.5,-8 989.5,-31 1115.5,-31 1115.5,-8 989.5,-8"/>
<text text-anchor="middle" x="1052.5" y="-15.8" font-family="Helvetica,sans-Serif" font-size="14.00">deal.II/lac/vector.h</text>
</g>
<!-- Node2&#45;&gt;Node9 -->
<g id="edge8" class="edge"><title>Node2&#45;&gt;Node9</title>
<path fill="none" stroke="midnightblue" d="M682.105,-82.9571C697.164,-80.2551 713.433,-77.4285 728.5,-75 840.195,-56.9968 869.545,-61.1109 980.5,-39 988.419,-37.422 996.767,-35.5104 1004.86,-33.5225"/>
<polygon fill="midnightblue" stroke="midnightblue" points="1005.72,-36.9149 1014.56,-31.0771 1004.01,-30.1271 1005.72,-36.9149"/>
</g>
<!-- Node10 -->
<g id="node10" class="node"><title>Node10</title>
<polygon fill="white" stroke="#bfbfbf" points="1134,-8 1134,-31 1187,-31 1187,-8 1134,-8"/>
<text text-anchor="middle" x="1160.5" y="-15.8" font-family="Helvetica,sans-Serif" font-size="14.00">vector</text>
</g>
<!-- Node2&#45;&gt;Node10 -->
<g id="edge9" class="edge"><title>Node2&#45;&gt;Node10</title>
<path fill="none" stroke="midnightblue" d="M679.085,-82.9632C694.95,-80.0909 712.386,-77.1754 728.5,-75 903.637,-51.3566 954.788,-88.2939 1124.5,-39 1127.67,-38.0788 1130.89,-36.8723 1134.04,-35.5162"/>
<polygon fill="midnightblue" stroke="midnightblue" points="1135.63,-38.6329 1143.12,-31.1355 1132.59,-32.3283 1135.63,-38.6329"/>
</g>
</g>
</svg>
