<?xml version="1.0" encoding="UTF-8" standalone="no"?>
<!DOCTYPE svg PUBLIC "-//W3C//DTD SVG 1.1//EN"
 "http://www.w3.org/Graphics/SVG/1.1/DTD/svg11.dtd">
<!-- Generated by graphviz version 2.38.0 (20140413.2041)
 -->
<!-- Title: /home/travis/build/konsim83/MPI&#45;MSFEC/include/vector_tools/my_vector_tools.tpp Pages: 1 -->
<svg width="169pt" height="182pt"
 viewBox="0.00 0.00 169.00 182.00" xmlns="http://www.w3.org/2000/svg" xmlns:xlink="http://www.w3.org/1999/xlink">
<g id="graph0" class="graph" transform="scale(1 1) rotate(0) translate(4 178)">
<title>/home/travis/build/konsim83/MPI&#45;MSFEC/include/vector_tools/my_vector_tools.tpp</title>
<polygon fill="white" stroke="none" points="-4,4 -4,-178 165,-178 165,4 -4,4"/>
<!-- Node1 -->
<g id="node1" class="node"><title>Node1</title>
<polygon fill="#bfbfbf" stroke="black" points="0.5,-105.5 0.5,-173.5 160.5,-173.5 160.5,-105.5 0.5,-105.5"/>
<text text-anchor="start" x="8.5" y="-158.3" font-family="Helvetica,sans-Serif" font-size="14.00">/home/travis/build</text>
<text text-anchor="start" x="8.5" y="-143.3" font-family="Helvetica,sans-Serif" font-size="14.00">/konsim83/MPI&#45;MSFEC</text>
<text text-anchor="start" x="8.5" y="-128.3" font-family="Helvetica,sans-Serif" font-size="14.00">/include/vector_tools</text>
<text text-anchor="middle" x="80.5" y="-113.3" font-family="Helvetica,sans-Serif" font-size="14.00">/my_vector_tools.tpp</text>
</g>
<!-- Node2 -->
<g id="node2" class="node"><title>Node2</title>
<g id="a_node2"><a xlink:href="my__vector__tools_8inst_8cc.html" target="_top" xlink:title="/home/travis/build\l/konsim83/MPI&#45;MSFEC\l/source/vector_tools\l/my_vector_tools.inst.cc">
<polygon fill="white" stroke="black" points="0,-0.5 0,-68.5 161,-68.5 161,-0.5 0,-0.5"/>
<text text-anchor="start" x="8" y="-53.3" font-family="Helvetica,sans-Serif" font-size="14.00">/home/travis/build</text>
<text text-anchor="start" x="8" y="-38.3" font-family="Helvetica,sans-Serif" font-size="14.00">/konsim83/MPI&#45;MSFEC</text>
<text text-anchor="start" x="8" y="-23.3" font-family="Helvetica,sans-Serif" font-size="14.00">/source/vector_tools</text>
<text text-anchor="middle" x="80.5" y="-8.3" font-family="Helvetica,sans-Serif" font-size="14.00">/my_vector_tools.inst.cc</text>
</a>
</g>
</g>
<!-- Node1&#45;&gt;Node2 -->
<g id="edge1" class="edge"><title>Node1&#45;&gt;Node2</title>
<path fill="none" stroke="midnightblue" d="M80.5,-95.1362C80.5,-86.256 80.5,-77.0447 80.5,-68.5947"/>
<polygon fill="midnightblue" stroke="midnightblue" points="77.0001,-95.3432 80.5,-105.343 84.0001,-95.3432 77.0001,-95.3432"/>
</g>
</g>
</svg>
