<?xml version="1.0" encoding="UTF-8" standalone="no"?>
<!DOCTYPE svg PUBLIC "-//W3C//DTD SVG 1.1//EN"
 "http://www.w3.org/Graphics/SVG/1.1/DTD/svg11.dtd">
<!-- Generated by graphviz version 2.38.0 (20140413.2041)
 -->
<!-- Title: /home/travis/build/konsim83/MPI&#45;MSFEC/include/my_other_tools.h Pages: 1 -->
<svg width="2438pt" height="377pt"
 viewBox="0.00 0.00 2437.50 377.00" xmlns="http://www.w3.org/2000/svg" xmlns:xlink="http://www.w3.org/1999/xlink">
<g id="graph0" class="graph" transform="scale(1 1) rotate(0) translate(4 373)">
<title>/home/travis/build/konsim83/MPI&#45;MSFEC/include/my_other_tools.h</title>
<polygon fill="white" stroke="none" points="-4,4 -4,-373 2433.5,-373 2433.5,4 -4,4"/>
<!-- Node1 -->
<g id="node1" class="node"><title>Node1</title>
<polygon fill="#bfbfbf" stroke="black" points="976,-315.5 976,-368.5 1147,-368.5 1147,-315.5 976,-315.5"/>
<text text-anchor="start" x="984" y="-353.3" font-family="Helvetica,sans-Serif" font-size="14.00">/home/travis/build</text>
<text text-anchor="start" x="984" y="-338.3" font-family="Helvetica,sans-Serif" font-size="14.00">/konsim83/MPI&#45;MSFEC</text>
<text text-anchor="middle" x="1061.5" y="-323.3" font-family="Helvetica,sans-Serif" font-size="14.00">/include/my_other_tools.h</text>
</g>
<!-- Node2 -->
<g id="node2" class="node"><title>Node2</title>
<g id="a_node2"><a xlink:href="my__other__tools_8cc.html" target="_top" xlink:title="/home/travis/build\l/konsim83/MPI&#45;MSFEC\l/source/my_other_tools.cc">
<polygon fill="white" stroke="black" points="0,-218 0,-271 175,-271 175,-218 0,-218"/>
<text text-anchor="start" x="8" y="-255.8" font-family="Helvetica,sans-Serif" font-size="14.00">/home/travis/build</text>
<text text-anchor="start" x="8" y="-240.8" font-family="Helvetica,sans-Serif" font-size="14.00">/konsim83/MPI&#45;MSFEC</text>
<text text-anchor="middle" x="87.5" y="-225.8" font-family="Helvetica,sans-Serif" font-size="14.00">/source/my_other_tools.cc</text>
</a>
</g>
</g>
<!-- Node1&#45;&gt;Node2 -->
<g id="edge1" class="edge"><title>Node1&#45;&gt;Node2</title>
<path fill="none" stroke="midnightblue" d="M965.527,-337.387C769.985,-329.507 331.51,-309.039 184.5,-279 174.55,-276.967 164.222,-274.178 154.178,-271.072"/>
<polygon fill="midnightblue" stroke="midnightblue" points="965.655,-340.895 975.787,-337.798 965.935,-333.901 965.655,-340.895"/>
</g>
<!-- Node3 -->
<g id="node3" class="node"><title>Node3</title>
<g id="a_node3"><a xlink:href="ned__rt__basis_8h.html" target="_top" xlink:title="/home/travis/build\l/konsim83/MPI&#45;MSFEC\l/include/Ned_RT/ned_rt\l_basis.h">
<polygon fill="white" stroke="black" points="193.5,-210.5 193.5,-278.5 353.5,-278.5 353.5,-210.5 193.5,-210.5"/>
<text text-anchor="start" x="201.5" y="-263.3" font-family="Helvetica,sans-Serif" font-size="14.00">/home/travis/build</text>
<text text-anchor="start" x="201.5" y="-248.3" font-family="Helvetica,sans-Serif" font-size="14.00">/konsim83/MPI&#45;MSFEC</text>
<text text-anchor="start" x="201.5" y="-233.3" font-family="Helvetica,sans-Serif" font-size="14.00">/include/Ned_RT/ned_rt</text>
<text text-anchor="middle" x="273.5" y="-218.3" font-family="Helvetica,sans-Serif" font-size="14.00">_basis.h</text>
</a>
</g>
</g>
<!-- Node1&#45;&gt;Node3 -->
<g id="edge2" class="edge"><title>Node1&#45;&gt;Node3</title>
<path fill="none" stroke="midnightblue" d="M965.474,-340.063C830.462,-337.026 577.527,-325.024 367.5,-279 362.931,-277.999 358.28,-276.836 353.615,-275.557"/>
<polygon fill="midnightblue" stroke="midnightblue" points="965.711,-343.569 975.783,-340.283 965.86,-336.571 965.711,-343.569"/>
</g>
<!-- Node5 -->
<g id="node5" class="node"><title>Node5</title>
<g id="a_node5"><a xlink:href="ned__rt__global_8h.html" target="_top" xlink:title="/home/travis/build\l/konsim83/MPI&#45;MSFEC\l/include/Ned_RT/ned_rt\l_global.h">
<polygon fill="white" stroke="black" points="193.5,-105.5 193.5,-173.5 353.5,-173.5 353.5,-105.5 193.5,-105.5"/>
<text text-anchor="start" x="201.5" y="-158.3" font-family="Helvetica,sans-Serif" font-size="14.00">/home/travis/build</text>
<text text-anchor="start" x="201.5" y="-143.3" font-family="Helvetica,sans-Serif" font-size="14.00">/konsim83/MPI&#45;MSFEC</text>
<text text-anchor="start" x="201.5" y="-128.3" font-family="Helvetica,sans-Serif" font-size="14.00">/include/Ned_RT/ned_rt</text>
<text text-anchor="middle" x="273.5" y="-113.3" font-family="Helvetica,sans-Serif" font-size="14.00">_global.h</text>
</a>
</g>
</g>
<!-- Node1&#45;&gt;Node5 -->
<g id="edge7" class="edge"><title>Node1&#45;&gt;Node5</title>
<path fill="none" stroke="midnightblue" d="M965.709,-336.946C793.844,-328.955 446.657,-309.271 400.5,-279 371.225,-259.8 385.204,-236.65 362.5,-210 351.185,-196.718 336.981,-184.271 323.263,-173.684"/>
<polygon fill="midnightblue" stroke="midnightblue" points="965.617,-340.446 975.768,-337.41 965.939,-333.453 965.617,-340.446"/>
</g>
<!-- Node8 -->
<g id="node8" class="node"><title>Node8</title>
<g id="a_node8"><a xlink:href="ned__rt__ref_8h.html" target="_top" xlink:title="/home/travis/build\l/konsim83/MPI&#45;MSFEC\l/include/Ned_RT/ned_rt_ref.h">
<polygon fill="white" stroke="black" points="409.5,-218 409.5,-271 603.5,-271 603.5,-218 409.5,-218"/>
<text text-anchor="start" x="417.5" y="-255.8" font-family="Helvetica,sans-Serif" font-size="14.00">/home/travis/build</text>
<text text-anchor="start" x="417.5" y="-240.8" font-family="Helvetica,sans-Serif" font-size="14.00">/konsim83/MPI&#45;MSFEC</text>
<text text-anchor="middle" x="506.5" y="-225.8" font-family="Helvetica,sans-Serif" font-size="14.00">/include/Ned_RT/ned_rt_ref.h</text>
</a>
</g>
</g>
<!-- Node1&#45;&gt;Node8 -->
<g id="edge8" class="edge"><title>Node1&#45;&gt;Node8</title>
<path fill="none" stroke="midnightblue" d="M966.081,-324.581C864.843,-307.161 705.724,-279.781 603.783,-262.24"/>
<polygon fill="midnightblue" stroke="midnightblue" points="965.549,-328.041 975.998,-326.287 966.736,-321.142 965.549,-328.041"/>
</g>
<!-- Node10 -->
<g id="node10" class="node"><title>Node10</title>
<g id="a_node10"><a xlink:href="q__basis_8h.html" target="_top" xlink:title="/home/travis/build\l/konsim83/MPI&#45;MSFEC\l/include/Q/q_basis.h">
<polygon fill="white" stroke="black" points="765.5,-218 765.5,-271 925.5,-271 925.5,-218 765.5,-218"/>
<text text-anchor="start" x="773.5" y="-255.8" font-family="Helvetica,sans-Serif" font-size="14.00">/home/travis/build</text>
<text text-anchor="start" x="773.5" y="-240.8" font-family="Helvetica,sans-Serif" font-size="14.00">/konsim83/MPI&#45;MSFEC</text>
<text text-anchor="middle" x="845.5" y="-225.8" font-family="Helvetica,sans-Serif" font-size="14.00">/include/Q/q_basis.h</text>
</a>
</g>
</g>
<!-- Node1&#45;&gt;Node10 -->
<g id="edge11" class="edge"><title>Node1&#45;&gt;Node10</title>
<path fill="none" stroke="midnightblue" d="M994.347,-311.31C965.257,-298.448 931.53,-283.537 903.544,-271.163"/>
<polygon fill="midnightblue" stroke="midnightblue" points="993.055,-314.565 1003.62,-315.408 995.885,-308.163 993.055,-314.565"/>
</g>
<!-- Node12 -->
<g id="node12" class="node"><title>Node12</title>
<g id="a_node12"><a xlink:href="q__global_8h.html" target="_top" xlink:title="/home/travis/build\l/konsim83/MPI&#45;MSFEC\l/include/Q/q_global.h">
<polygon fill="white" stroke="black" points="765.5,-113 765.5,-166 925.5,-166 925.5,-113 765.5,-113"/>
<text text-anchor="start" x="773.5" y="-150.8" font-family="Helvetica,sans-Serif" font-size="14.00">/home/travis/build</text>
<text text-anchor="start" x="773.5" y="-135.8" font-family="Helvetica,sans-Serif" font-size="14.00">/konsim83/MPI&#45;MSFEC</text>
<text text-anchor="middle" x="845.5" y="-120.8" font-family="Helvetica,sans-Serif" font-size="14.00">/include/Q/q_global.h</text>
</a>
</g>
</g>
<!-- Node1&#45;&gt;Node12 -->
<g id="edge16" class="edge"><title>Node1&#45;&gt;Node12</title>
<path fill="none" stroke="midnightblue" d="M1007.64,-309.401C995.186,-300.563 982.634,-290.258 972.5,-279 949.078,-252.979 957.204,-236.65 934.5,-210 920.388,-193.435 901.782,-178.169 885.231,-166.189"/>
<polygon fill="midnightblue" stroke="midnightblue" points="1005.98,-312.511 1016.21,-315.28 1009.94,-306.738 1005.98,-312.511"/>
</g>
<!-- Node15 -->
<g id="node15" class="node"><title>Node15</title>
<g id="a_node15"><a xlink:href="q__ref_8h.html" target="_top" xlink:title="/home/travis/build\l/konsim83/MPI&#45;MSFEC\l/include/Q/q_ref.h">
<polygon fill="white" stroke="black" points="981.5,-218 981.5,-271 1141.5,-271 1141.5,-218 981.5,-218"/>
<text text-anchor="start" x="989.5" y="-255.8" font-family="Helvetica,sans-Serif" font-size="14.00">/home/travis/build</text>
<text text-anchor="start" x="989.5" y="-240.8" font-family="Helvetica,sans-Serif" font-size="14.00">/konsim83/MPI&#45;MSFEC</text>
<text text-anchor="middle" x="1061.5" y="-225.8" font-family="Helvetica,sans-Serif" font-size="14.00">/include/Q/q_ref.h</text>
</a>
</g>
</g>
<!-- Node1&#45;&gt;Node15 -->
<g id="edge17" class="edge"><title>Node1&#45;&gt;Node15</title>
<path fill="none" stroke="midnightblue" d="M1061.5,-305.338C1061.5,-293.988 1061.5,-281.662 1061.5,-271.163"/>
<polygon fill="midnightblue" stroke="midnightblue" points="1058,-305.408 1061.5,-315.408 1065,-305.408 1058,-305.408"/>
</g>
<!-- Node17 -->
<g id="node17" class="node"><title>Node17</title>
<g id="a_node17"><a xlink:href="q__ned__basis_8h.html" target="_top" xlink:title="/home/travis/build\l/konsim83/MPI&#45;MSFEC\l/include/Q_Ned/q_ned\l_basis.h">
<polygon fill="white" stroke="black" points="1182.5,-210.5 1182.5,-278.5 1342.5,-278.5 1342.5,-210.5 1182.5,-210.5"/>
<text text-anchor="start" x="1190.5" y="-263.3" font-family="Helvetica,sans-Serif" font-size="14.00">/home/travis/build</text>
<text text-anchor="start" x="1190.5" y="-248.3" font-family="Helvetica,sans-Serif" font-size="14.00">/konsim83/MPI&#45;MSFEC</text>
<text text-anchor="start" x="1190.5" y="-233.3" font-family="Helvetica,sans-Serif" font-size="14.00">/include/Q_Ned/q_ned</text>
<text text-anchor="middle" x="1262.5" y="-218.3" font-family="Helvetica,sans-Serif" font-size="14.00">_basis.h</text>
</a>
</g>
</g>
<!-- Node1&#45;&gt;Node17 -->
<g id="edge20" class="edge"><title>Node1&#45;&gt;Node17</title>
<path fill="none" stroke="midnightblue" d="M1124.5,-311.067C1146.24,-300.737 1170.72,-289.109 1192.95,-278.544"/>
<polygon fill="midnightblue" stroke="midnightblue" points="1122.89,-307.955 1115.36,-315.408 1125.9,-314.278 1122.89,-307.955"/>
</g>
<!-- Node19 -->
<g id="node19" class="node"><title>Node19</title>
<g id="a_node19"><a xlink:href="q__ned__global_8h.html" target="_top" xlink:title="/home/travis/build\l/konsim83/MPI&#45;MSFEC\l/include/Q_Ned/q_ned\l_global.h">
<polygon fill="white" stroke="black" points="1383.5,-105.5 1383.5,-173.5 1543.5,-173.5 1543.5,-105.5 1383.5,-105.5"/>
<text text-anchor="start" x="1391.5" y="-158.3" font-family="Helvetica,sans-Serif" font-size="14.00">/home/travis/build</text>
<text text-anchor="start" x="1391.5" y="-143.3" font-family="Helvetica,sans-Serif" font-size="14.00">/konsim83/MPI&#45;MSFEC</text>
<text text-anchor="start" x="1391.5" y="-128.3" font-family="Helvetica,sans-Serif" font-size="14.00">/include/Q_Ned/q_ned</text>
<text text-anchor="middle" x="1463.5" y="-113.3" font-family="Helvetica,sans-Serif" font-size="14.00">_global.h</text>
</a>
</g>
</g>
<!-- Node1&#45;&gt;Node19 -->
<g id="edge25" class="edge"><title>Node1&#45;&gt;Node19</title>
<path fill="none" stroke="midnightblue" d="M1157.21,-336.673C1216.82,-330.234 1293.02,-314.91 1351.5,-279 1393.53,-253.19 1426.66,-205.778 1445.67,-173.701"/>
<polygon fill="midnightblue" stroke="midnightblue" points="1156.63,-333.214 1147.04,-337.704 1157.34,-340.178 1156.63,-333.214"/>
</g>
<!-- Node22 -->
<g id="node22" class="node"><title>Node22</title>
<g id="a_node22"><a xlink:href="q__ned__ref_8h.html" target="_top" xlink:title="/home/travis/build\l/konsim83/MPI&#45;MSFEC\l/include/Q_Ned/q_ned_ref.h">
<polygon fill="white" stroke="black" points="1478.5,-218 1478.5,-271 1664.5,-271 1664.5,-218 1478.5,-218"/>
<text text-anchor="start" x="1486.5" y="-255.8" font-family="Helvetica,sans-Serif" font-size="14.00">/home/travis/build</text>
<text text-anchor="start" x="1486.5" y="-240.8" font-family="Helvetica,sans-Serif" font-size="14.00">/konsim83/MPI&#45;MSFEC</text>
<text text-anchor="middle" x="1571.5" y="-225.8" font-family="Helvetica,sans-Serif" font-size="14.00">/include/Q_Ned/q_ned_ref.h</text>
</a>
</g>
</g>
<!-- Node1&#45;&gt;Node22 -->
<g id="edge26" class="edge"><title>Node1&#45;&gt;Node22</title>
<path fill="none" stroke="midnightblue" d="M1157.33,-326.104C1230.67,-314.349 1334.22,-296.982 1424.5,-279 1441.96,-275.523 1460.51,-271.529 1478.35,-267.539"/>
<polygon fill="midnightblue" stroke="midnightblue" points="1156.51,-322.691 1147.19,-327.725 1157.62,-329.603 1156.51,-322.691"/>
</g>
<!-- Node24 -->
<g id="node24" class="node"><title>Node24</title>
<g id="a_node24"><a xlink:href="rt__dq__basis_8h.html" target="_top" xlink:title="/home/travis/build\l/konsim83/MPI&#45;MSFEC\l/include/RT_DQ/rt_dq\l_basis.h">
<polygon fill="white" stroke="black" points="1828.5,-210.5 1828.5,-278.5 1988.5,-278.5 1988.5,-210.5 1828.5,-210.5"/>
<text text-anchor="start" x="1836.5" y="-263.3" font-family="Helvetica,sans-Serif" font-size="14.00">/home/travis/build</text>
<text text-anchor="start" x="1836.5" y="-248.3" font-family="Helvetica,sans-Serif" font-size="14.00">/konsim83/MPI&#45;MSFEC</text>
<text text-anchor="start" x="1836.5" y="-233.3" font-family="Helvetica,sans-Serif" font-size="14.00">/include/RT_DQ/rt_dq</text>
<text text-anchor="middle" x="1908.5" y="-218.3" font-family="Helvetica,sans-Serif" font-size="14.00">_basis.h</text>
</a>
</g>
</g>
<!-- Node1&#45;&gt;Node24 -->
<g id="edge29" class="edge"><title>Node1&#45;&gt;Node24</title>
<path fill="none" stroke="midnightblue" d="M1157.32,-332.507C1277.91,-321.54 1491.31,-301.206 1673.5,-279 1725.15,-272.705 1783.01,-264.472 1828.39,-257.743"/>
<polygon fill="midnightblue" stroke="midnightblue" points="1156.66,-329.053 1147.02,-333.442 1157.29,-336.024 1156.66,-329.053"/>
</g>
<!-- Node26 -->
<g id="node26" class="node"><title>Node26</title>
<g id="a_node26"><a xlink:href="rt__dq__global_8h.html" target="_top" xlink:title="/home/travis/build\l/konsim83/MPI&#45;MSFEC\l/include/RT_DQ/rt_dq\l_global.h">
<polygon fill="white" stroke="black" points="2027.5,-105.5 2027.5,-173.5 2187.5,-173.5 2187.5,-105.5 2027.5,-105.5"/>
<text text-anchor="start" x="2035.5" y="-158.3" font-family="Helvetica,sans-Serif" font-size="14.00">/home/travis/build</text>
<text text-anchor="start" x="2035.5" y="-143.3" font-family="Helvetica,sans-Serif" font-size="14.00">/konsim83/MPI&#45;MSFEC</text>
<text text-anchor="start" x="2035.5" y="-128.3" font-family="Helvetica,sans-Serif" font-size="14.00">/include/RT_DQ/rt_dq</text>
<text text-anchor="middle" x="2107.5" y="-113.3" font-family="Helvetica,sans-Serif" font-size="14.00">_global.h</text>
</a>
</g>
</g>
<!-- Node1&#45;&gt;Node26 -->
<g id="edge34" class="edge"><title>Node1&#45;&gt;Node26</title>
<path fill="none" stroke="midnightblue" d="M1157.44,-339.025C1381.25,-333.796 1924.48,-317.284 1997.5,-279 2041.42,-255.974 2073.7,-206.88 2091.55,-173.772"/>
<polygon fill="midnightblue" stroke="midnightblue" points="1157.27,-335.528 1147.35,-339.258 1157.43,-342.526 1157.27,-335.528"/>
</g>
<!-- Node29 -->
<g id="node29" class="node"><title>Node29</title>
<g id="a_node29"><a xlink:href="rt__dq__ref_8h.html" target="_top" xlink:title="/home/travis/build\l/konsim83/MPI&#45;MSFEC\l/include/RT_DQ/rt_dq_ref.h">
<polygon fill="white" stroke="black" points="2124.5,-218 2124.5,-271 2306.5,-271 2306.5,-218 2124.5,-218"/>
<text text-anchor="start" x="2132.5" y="-255.8" font-family="Helvetica,sans-Serif" font-size="14.00">/home/travis/build</text>
<text text-anchor="start" x="2132.5" y="-240.8" font-family="Helvetica,sans-Serif" font-size="14.00">/konsim83/MPI&#45;MSFEC</text>
<text text-anchor="middle" x="2215.5" y="-225.8" font-family="Helvetica,sans-Serif" font-size="14.00">/include/RT_DQ/rt_dq_ref.h</text>
</a>
</g>
</g>
<!-- Node1&#45;&gt;Node29 -->
<g id="edge35" class="edge"><title>Node1&#45;&gt;Node29</title>
<path fill="none" stroke="midnightblue" d="M1157.26,-340.384C1337.13,-338.063 1737.42,-327.37 2070.5,-279 2088.01,-276.457 2106.54,-272.876 2124.28,-268.995"/>
<polygon fill="midnightblue" stroke="midnightblue" points="1156.99,-336.887 1147.03,-340.51 1157.08,-343.887 1156.99,-336.887"/>
</g>
<!-- Node4 -->
<g id="node4" class="node"><title>Node4</title>
<g id="a_node4"><a xlink:href="ned__rt__basis_8cc.html" target="_top" xlink:title="/home/travis/build\l/konsim83/MPI&#45;MSFEC\l/source/Ned_RT/ned_rt\l_basis.cc">
<polygon fill="white" stroke="black" points="15.5,-105.5 15.5,-173.5 175.5,-173.5 175.5,-105.5 15.5,-105.5"/>
<text text-anchor="start" x="23.5" y="-158.3" font-family="Helvetica,sans-Serif" font-size="14.00">/home/travis/build</text>
<text text-anchor="start" x="23.5" y="-143.3" font-family="Helvetica,sans-Serif" font-size="14.00">/konsim83/MPI&#45;MSFEC</text>
<text text-anchor="start" x="23.5" y="-128.3" font-family="Helvetica,sans-Serif" font-size="14.00">/source/Ned_RT/ned_rt</text>
<text text-anchor="middle" x="95.5" y="-113.3" font-family="Helvetica,sans-Serif" font-size="14.00">_basis.cc</text>
</a>
</g>
</g>
<!-- Node3&#45;&gt;Node4 -->
<g id="edge3" class="edge"><title>Node3&#45;&gt;Node4</title>
<path fill="none" stroke="midnightblue" d="M207.488,-205.302C189.494,-194.89 170.153,-183.698 152.693,-173.595"/>
<polygon fill="midnightblue" stroke="midnightblue" points="205.792,-208.364 216.2,-210.343 209.297,-202.305 205.792,-208.364"/>
</g>
<!-- Node3&#45;&gt;Node5 -->
<g id="edge4" class="edge"><title>Node3&#45;&gt;Node5</title>
<path fill="none" stroke="midnightblue" d="M273.5,-200.136C273.5,-191.256 273.5,-182.045 273.5,-173.595"/>
<polygon fill="midnightblue" stroke="midnightblue" points="270,-200.343 273.5,-210.343 277,-200.343 270,-200.343"/>
</g>
<!-- Node6 -->
<g id="node6" class="node"><title>Node6</title>
<g id="a_node6"><a xlink:href="main__ned__rt_8cxx.html" target="_top" xlink:title="/home/travis/build\l/konsim83/MPI&#45;MSFEC\l/source/main_ned_rt.cxx">
<polygon fill="white" stroke="black" points="299.5,-8 299.5,-61 463.5,-61 463.5,-8 299.5,-8"/>
<text text-anchor="start" x="307.5" y="-45.8" font-family="Helvetica,sans-Serif" font-size="14.00">/home/travis/build</text>
<text text-anchor="start" x="307.5" y="-30.8" font-family="Helvetica,sans-Serif" font-size="14.00">/konsim83/MPI&#45;MSFEC</text>
<text text-anchor="middle" x="381.5" y="-15.8" font-family="Helvetica,sans-Serif" font-size="14.00">/source/main_ned_rt.cxx</text>
</a>
</g>
</g>
<!-- Node5&#45;&gt;Node6 -->
<g id="edge5" class="edge"><title>Node5&#45;&gt;Node6</title>
<path fill="none" stroke="midnightblue" d="M315.832,-98.1277C328.912,-85.6533 342.951,-72.2641 354.678,-61.0806"/>
<polygon fill="midnightblue" stroke="midnightblue" points="313.087,-95.9088 308.266,-105.343 317.919,-100.974 313.087,-95.9088"/>
</g>
<!-- Node7 -->
<g id="node7" class="node"><title>Node7</title>
<g id="a_node7"><a xlink:href="ned__rt__global_8cc.html" target="_top" xlink:title="/home/travis/build\l/konsim83/MPI&#45;MSFEC\l/source/Ned_RT/ned_rt\l_global.cc">
<polygon fill="white" stroke="black" points="121.5,-0.5 121.5,-68.5 281.5,-68.5 281.5,-0.5 121.5,-0.5"/>
<text text-anchor="start" x="129.5" y="-53.3" font-family="Helvetica,sans-Serif" font-size="14.00">/home/travis/build</text>
<text text-anchor="start" x="129.5" y="-38.3" font-family="Helvetica,sans-Serif" font-size="14.00">/konsim83/MPI&#45;MSFEC</text>
<text text-anchor="start" x="129.5" y="-23.3" font-family="Helvetica,sans-Serif" font-size="14.00">/source/Ned_RT/ned_rt</text>
<text text-anchor="middle" x="201.5" y="-8.3" font-family="Helvetica,sans-Serif" font-size="14.00">_global.cc</text>
</a>
</g>
</g>
<!-- Node5&#45;&gt;Node7 -->
<g id="edge6" class="edge"><title>Node5&#45;&gt;Node7</title>
<path fill="none" stroke="midnightblue" d="M244.399,-96.8691C237.822,-87.4607 230.926,-77.5958 224.634,-68.5947"/>
<polygon fill="midnightblue" stroke="midnightblue" points="241.724,-99.1524 250.322,-105.343 247.462,-95.1419 241.724,-99.1524"/>
</g>
<!-- Node8&#45;&gt;Node6 -->
<g id="edge9" class="edge"><title>Node8&#45;&gt;Node6</title>
<path fill="none" stroke="midnightblue" d="M440.359,-212.531C425.013,-202.339 410.317,-189.541 400.5,-174 378.724,-139.528 377.347,-90.6532 378.972,-61.1255"/>
<polygon fill="midnightblue" stroke="midnightblue" points="438.598,-215.557 448.924,-217.925 442.328,-209.634 438.598,-215.557"/>
</g>
<!-- Node9 -->
<g id="node9" class="node"><title>Node9</title>
<g id="a_node9"><a xlink:href="ned__rt__ref_8cc.html" target="_top" xlink:title="/home/travis/build\l/konsim83/MPI&#45;MSFEC\l/source/Ned_RT/ned_rt\l_ref.cc">
<polygon fill="white" stroke="black" points="409.5,-105.5 409.5,-173.5 569.5,-173.5 569.5,-105.5 409.5,-105.5"/>
<text text-anchor="start" x="417.5" y="-158.3" font-family="Helvetica,sans-Serif" font-size="14.00">/home/travis/build</text>
<text text-anchor="start" x="417.5" y="-143.3" font-family="Helvetica,sans-Serif" font-size="14.00">/konsim83/MPI&#45;MSFEC</text>
<text text-anchor="start" x="417.5" y="-128.3" font-family="Helvetica,sans-Serif" font-size="14.00">/source/Ned_RT/ned_rt</text>
<text text-anchor="middle" x="489.5" y="-113.3" font-family="Helvetica,sans-Serif" font-size="14.00">_ref.cc</text>
</a>
</g>
</g>
<!-- Node8&#45;&gt;Node9 -->
<g id="edge10" class="edge"><title>Node8&#45;&gt;Node9</title>
<path fill="none" stroke="midnightblue" d="M500.575,-207.604C498.756,-196.582 496.763,-184.506 494.975,-173.675"/>
<polygon fill="midnightblue" stroke="midnightblue" points="497.172,-208.478 502.254,-217.774 504.079,-207.338 497.172,-208.478"/>
</g>
<!-- Node11 -->
<g id="node11" class="node"><title>Node11</title>
<g id="a_node11"><a xlink:href="q__basis_8cc.html" target="_top" xlink:title="/home/travis/build\l/konsim83/MPI&#45;MSFEC\l/source/Q/q_basis.cc">
<polygon fill="white" stroke="black" points="587.5,-113 587.5,-166 747.5,-166 747.5,-113 587.5,-113"/>
<text text-anchor="start" x="595.5" y="-150.8" font-family="Helvetica,sans-Serif" font-size="14.00">/home/travis/build</text>
<text text-anchor="start" x="595.5" y="-135.8" font-family="Helvetica,sans-Serif" font-size="14.00">/konsim83/MPI&#45;MSFEC</text>
<text text-anchor="middle" x="667.5" y="-120.8" font-family="Helvetica,sans-Serif" font-size="14.00">/source/Q/q_basis.cc</text>
</a>
</g>
</g>
<!-- Node10&#45;&gt;Node11 -->
<g id="edge12" class="edge"><title>Node10&#45;&gt;Node11</title>
<path fill="none" stroke="midnightblue" d="M792.175,-212.643C766.495,-197.784 736.066,-180.176 711.699,-166.076"/>
<polygon fill="midnightblue" stroke="midnightblue" points="790.634,-215.795 801.042,-217.774 794.14,-209.737 790.634,-215.795"/>
</g>
<!-- Node10&#45;&gt;Node12 -->
<g id="edge13" class="edge"><title>Node10&#45;&gt;Node12</title>
<path fill="none" stroke="midnightblue" d="M845.5,-207.726C845.5,-194.075 845.5,-178.794 845.5,-166.255"/>
<polygon fill="midnightblue" stroke="midnightblue" points="842,-207.774 845.5,-217.774 849,-207.774 842,-207.774"/>
</g>
<!-- Node13 -->
<g id="node13" class="node"><title>Node13</title>
<g id="a_node13"><a xlink:href="main__q_8cxx.html" target="_top" xlink:title="/home/travis/build\l/konsim83/MPI&#45;MSFEC\l/source/main_q.cxx">
<polygon fill="white" stroke="black" points="873.5,-8 873.5,-61 1033.5,-61 1033.5,-8 873.5,-8"/>
<text text-anchor="start" x="881.5" y="-45.8" font-family="Helvetica,sans-Serif" font-size="14.00">/home/travis/build</text>
<text text-anchor="start" x="881.5" y="-30.8" font-family="Helvetica,sans-Serif" font-size="14.00">/konsim83/MPI&#45;MSFEC</text>
<text text-anchor="middle" x="953.5" y="-15.8" font-family="Helvetica,sans-Serif" font-size="14.00">/source/main_q.cxx</text>
</a>
</g>
</g>
<!-- Node12&#45;&gt;Node13 -->
<g id="edge14" class="edge"><title>Node12&#45;&gt;Node13</title>
<path fill="none" stroke="midnightblue" d="M880.089,-105.512C895.111,-91.1856 912.445,-74.6547 926.495,-61.2546"/>
<polygon fill="midnightblue" stroke="midnightblue" points="877.295,-103.34 872.474,-112.774 882.127,-108.406 877.295,-103.34"/>
</g>
<!-- Node14 -->
<g id="node14" class="node"><title>Node14</title>
<g id="a_node14"><a xlink:href="q__global_8cc.html" target="_top" xlink:title="/home/travis/build\l/konsim83/MPI&#45;MSFEC\l/source/Q/q_global.cc">
<polygon fill="white" stroke="black" points="695.5,-8 695.5,-61 855.5,-61 855.5,-8 695.5,-8"/>
<text text-anchor="start" x="703.5" y="-45.8" font-family="Helvetica,sans-Serif" font-size="14.00">/home/travis/build</text>
<text text-anchor="start" x="703.5" y="-30.8" font-family="Helvetica,sans-Serif" font-size="14.00">/konsim83/MPI&#45;MSFEC</text>
<text text-anchor="middle" x="775.5" y="-15.8" font-family="Helvetica,sans-Serif" font-size="14.00">/source/Q/q_global.cc</text>
</a>
</g>
</g>
<!-- Node12&#45;&gt;Node14 -->
<g id="edge15" class="edge"><title>Node12&#45;&gt;Node14</title>
<path fill="none" stroke="midnightblue" d="M822.274,-104.324C812.728,-90.278 801.859,-74.2859 793.003,-61.2546"/>
<polygon fill="midnightblue" stroke="midnightblue" points="819.501,-106.471 828.017,-112.774 825.29,-102.536 819.501,-106.471"/>
</g>
<!-- Node15&#45;&gt;Node13 -->
<g id="edge18" class="edge"><title>Node15&#45;&gt;Node13</title>
<path fill="none" stroke="midnightblue" d="M1007.06,-211.639C993.748,-201.289 980.92,-188.635 972.5,-174 952.227,-138.763 950.349,-90.3442 951.474,-61.0786"/>
<polygon fill="midnightblue" stroke="midnightblue" points="1005.26,-214.657 1015.38,-217.782 1009.42,-209.026 1005.26,-214.657"/>
</g>
<!-- Node16 -->
<g id="node16" class="node"><title>Node16</title>
<g id="a_node16"><a xlink:href="q__ref_8cc.html" target="_top" xlink:title="/home/travis/build\l/konsim83/MPI&#45;MSFEC\l/source/Q/q_ref.cc">
<polygon fill="white" stroke="black" points="981.5,-113 981.5,-166 1141.5,-166 1141.5,-113 981.5,-113"/>
<text text-anchor="start" x="989.5" y="-150.8" font-family="Helvetica,sans-Serif" font-size="14.00">/home/travis/build</text>
<text text-anchor="start" x="989.5" y="-135.8" font-family="Helvetica,sans-Serif" font-size="14.00">/konsim83/MPI&#45;MSFEC</text>
<text text-anchor="middle" x="1061.5" y="-120.8" font-family="Helvetica,sans-Serif" font-size="14.00">/source/Q/q_ref.cc</text>
</a>
</g>
</g>
<!-- Node15&#45;&gt;Node16 -->
<g id="edge19" class="edge"><title>Node15&#45;&gt;Node16</title>
<path fill="none" stroke="midnightblue" d="M1061.5,-207.726C1061.5,-194.075 1061.5,-178.794 1061.5,-166.255"/>
<polygon fill="midnightblue" stroke="midnightblue" points="1058,-207.774 1061.5,-217.774 1065,-207.774 1058,-207.774"/>
</g>
<!-- Node18 -->
<g id="node18" class="node"><title>Node18</title>
<g id="a_node18"><a xlink:href="q__ned__basis_8cc.html" target="_top" xlink:title="/home/travis/build\l/konsim83/MPI&#45;MSFEC\l/source/Q_Ned/q_ned_basis.cc">
<polygon fill="white" stroke="black" points="1159.5,-113 1159.5,-166 1365.5,-166 1365.5,-113 1159.5,-113"/>
<text text-anchor="start" x="1167.5" y="-150.8" font-family="Helvetica,sans-Serif" font-size="14.00">/home/travis/build</text>
<text text-anchor="start" x="1167.5" y="-135.8" font-family="Helvetica,sans-Serif" font-size="14.00">/konsim83/MPI&#45;MSFEC</text>
<text text-anchor="middle" x="1262.5" y="-120.8" font-family="Helvetica,sans-Serif" font-size="14.00">/source/Q_Ned/q_ned_basis.cc</text>
</a>
</g>
</g>
<!-- Node17&#45;&gt;Node18 -->
<g id="edge21" class="edge"><title>Node17&#45;&gt;Node18</title>
<path fill="none" stroke="midnightblue" d="M1262.5,-200.316C1262.5,-188.663 1262.5,-176.428 1262.5,-166.081"/>
<polygon fill="midnightblue" stroke="midnightblue" points="1259,-200.343 1262.5,-210.343 1266,-200.343 1259,-200.343"/>
</g>
<!-- Node17&#45;&gt;Node19 -->
<g id="edge22" class="edge"><title>Node17&#45;&gt;Node19</title>
<path fill="none" stroke="midnightblue" d="M1335.99,-205.843C1356.66,-195.247 1378.99,-183.806 1399.09,-173.505"/>
<polygon fill="midnightblue" stroke="midnightblue" points="1334.23,-202.81 1326.93,-210.485 1337.42,-209.039 1334.23,-202.81"/>
</g>
<!-- Node20 -->
<g id="node20" class="node"><title>Node20</title>
<g id="a_node20"><a xlink:href="main__q__ned_8cxx.html" target="_top" xlink:title="/home/travis/build\l/konsim83/MPI&#45;MSFEC\l/source/main_q_ned.cxx">
<polygon fill="white" stroke="black" points="1489.5,-8 1489.5,-61 1653.5,-61 1653.5,-8 1489.5,-8"/>
<text text-anchor="start" x="1497.5" y="-45.8" font-family="Helvetica,sans-Serif" font-size="14.00">/home/travis/build</text>
<text text-anchor="start" x="1497.5" y="-30.8" font-family="Helvetica,sans-Serif" font-size="14.00">/konsim83/MPI&#45;MSFEC</text>
<text text-anchor="middle" x="1571.5" y="-15.8" font-family="Helvetica,sans-Serif" font-size="14.00">/source/main_q_ned.cxx</text>
</a>
</g>
</g>
<!-- Node19&#45;&gt;Node20 -->
<g id="edge23" class="edge"><title>Node19&#45;&gt;Node20</title>
<path fill="none" stroke="midnightblue" d="M1505.83,-98.1277C1518.91,-85.6533 1532.95,-72.2641 1544.68,-61.0806"/>
<polygon fill="midnightblue" stroke="midnightblue" points="1503.09,-95.9088 1498.27,-105.343 1507.92,-100.974 1503.09,-95.9088"/>
</g>
<!-- Node21 -->
<g id="node21" class="node"><title>Node21</title>
<g id="a_node21"><a xlink:href="q__ned__global_8cc.html" target="_top" xlink:title="/home/travis/build\l/konsim83/MPI&#45;MSFEC\l/source/Q_Ned/q_ned_global.cc">
<polygon fill="white" stroke="black" points="1261.5,-8 1261.5,-61 1471.5,-61 1471.5,-8 1261.5,-8"/>
<text text-anchor="start" x="1269.5" y="-45.8" font-family="Helvetica,sans-Serif" font-size="14.00">/home/travis/build</text>
<text text-anchor="start" x="1269.5" y="-30.8" font-family="Helvetica,sans-Serif" font-size="14.00">/konsim83/MPI&#45;MSFEC</text>
<text text-anchor="middle" x="1366.5" y="-15.8" font-family="Helvetica,sans-Serif" font-size="14.00">/source/Q_Ned/q_ned_global.cc</text>
</a>
</g>
</g>
<!-- Node19&#45;&gt;Node21 -->
<g id="edge24" class="edge"><title>Node19&#45;&gt;Node21</title>
<path fill="none" stroke="midnightblue" d="M1425.15,-97.7777C1413.5,-85.4032 1401.02,-72.1596 1390.59,-61.0806"/>
<polygon fill="midnightblue" stroke="midnightblue" points="1422.87,-100.463 1432.27,-105.343 1427.97,-95.6637 1422.87,-100.463"/>
</g>
<!-- Node22&#45;&gt;Node20 -->
<g id="edge27" class="edge"><title>Node22&#45;&gt;Node20</title>
<path fill="none" stroke="midnightblue" d="M1571.5,-207.733C1571.5,-166.008 1571.5,-98.0554 1571.5,-61.2135"/>
<polygon fill="midnightblue" stroke="midnightblue" points="1568,-207.995 1571.5,-217.995 1575,-207.995 1568,-207.995"/>
</g>
<!-- Node23 -->
<g id="node23" class="node"><title>Node23</title>
<g id="a_node23"><a xlink:href="q__ned__ref_8cc.html" target="_top" xlink:title="/home/travis/build\l/konsim83/MPI&#45;MSFEC\l/source/Q_Ned/q_ned_ref.cc">
<polygon fill="white" stroke="black" points="1599.5,-113 1599.5,-166 1789.5,-166 1789.5,-113 1599.5,-113"/>
<text text-anchor="start" x="1607.5" y="-150.8" font-family="Helvetica,sans-Serif" font-size="14.00">/home/travis/build</text>
<text text-anchor="start" x="1607.5" y="-135.8" font-family="Helvetica,sans-Serif" font-size="14.00">/konsim83/MPI&#45;MSFEC</text>
<text text-anchor="middle" x="1694.5" y="-120.8" font-family="Helvetica,sans-Serif" font-size="14.00">/source/Q_Ned/q_ned_ref.cc</text>
</a>
</g>
</g>
<!-- Node22&#45;&gt;Node23 -->
<g id="edge28" class="edge"><title>Node22&#45;&gt;Node23</title>
<path fill="none" stroke="midnightblue" d="M1609.95,-211.298C1627.28,-196.793 1647.45,-179.901 1663.74,-166.255"/>
<polygon fill="midnightblue" stroke="midnightblue" points="1607.64,-208.671 1602.22,-217.774 1612.13,-214.038 1607.64,-208.671"/>
</g>
<!-- Node25 -->
<g id="node25" class="node"><title>Node25</title>
<g id="a_node25"><a xlink:href="rt__dq__basis_8cc.html" target="_top" xlink:title="/home/travis/build\l/konsim83/MPI&#45;MSFEC\l/source/RT_DQ/rt_dq_basis.cc">
<polygon fill="white" stroke="black" points="1807.5,-113 1807.5,-166 2009.5,-166 2009.5,-113 1807.5,-113"/>
<text text-anchor="start" x="1815.5" y="-150.8" font-family="Helvetica,sans-Serif" font-size="14.00">/home/travis/build</text>
<text text-anchor="start" x="1815.5" y="-135.8" font-family="Helvetica,sans-Serif" font-size="14.00">/konsim83/MPI&#45;MSFEC</text>
<text text-anchor="middle" x="1908.5" y="-120.8" font-family="Helvetica,sans-Serif" font-size="14.00">/source/RT_DQ/rt_dq_basis.cc</text>
</a>
</g>
</g>
<!-- Node24&#45;&gt;Node25 -->
<g id="edge30" class="edge"><title>Node24&#45;&gt;Node25</title>
<path fill="none" stroke="midnightblue" d="M1908.5,-200.316C1908.5,-188.663 1908.5,-176.428 1908.5,-166.081"/>
<polygon fill="midnightblue" stroke="midnightblue" points="1905,-200.343 1908.5,-210.343 1912,-200.343 1905,-200.343"/>
</g>
<!-- Node24&#45;&gt;Node26 -->
<g id="edge31" class="edge"><title>Node24&#45;&gt;Node26</title>
<path fill="none" stroke="midnightblue" d="M1981.25,-205.843C2001.73,-195.247 2023.83,-183.806 2043.73,-173.505"/>
<polygon fill="midnightblue" stroke="midnightblue" points="1979.56,-202.78 1972.29,-210.485 1982.78,-208.997 1979.56,-202.78"/>
</g>
<!-- Node27 -->
<g id="node27" class="node"><title>Node27</title>
<g id="a_node27"><a xlink:href="main__rt__dq_8cxx.html" target="_top" xlink:title="/home/travis/build\l/konsim83/MPI&#45;MSFEC\l/source/main_rt_dq.cxx">
<polygon fill="white" stroke="black" points="2135.5,-8 2135.5,-61 2295.5,-61 2295.5,-8 2135.5,-8"/>
<text text-anchor="start" x="2143.5" y="-45.8" font-family="Helvetica,sans-Serif" font-size="14.00">/home/travis/build</text>
<text text-anchor="start" x="2143.5" y="-30.8" font-family="Helvetica,sans-Serif" font-size="14.00">/konsim83/MPI&#45;MSFEC</text>
<text text-anchor="middle" x="2215.5" y="-15.8" font-family="Helvetica,sans-Serif" font-size="14.00">/source/main_rt_dq.cxx</text>
</a>
</g>
</g>
<!-- Node26&#45;&gt;Node27 -->
<g id="edge32" class="edge"><title>Node26&#45;&gt;Node27</title>
<path fill="none" stroke="midnightblue" d="M2149.83,-98.1277C2162.91,-85.6533 2176.95,-72.2641 2188.68,-61.0806"/>
<polygon fill="midnightblue" stroke="midnightblue" points="2147.09,-95.9088 2142.27,-105.343 2151.92,-100.974 2147.09,-95.9088"/>
</g>
<!-- Node28 -->
<g id="node28" class="node"><title>Node28</title>
<g id="a_node28"><a xlink:href="rt__dq__global_8cc.html" target="_top" xlink:title="/home/travis/build\l/konsim83/MPI&#45;MSFEC\l/source/RT_DQ/rt_dq_global.cc">
<polygon fill="white" stroke="black" points="1911.5,-8 1911.5,-61 2117.5,-61 2117.5,-8 1911.5,-8"/>
<text text-anchor="start" x="1919.5" y="-45.8" font-family="Helvetica,sans-Serif" font-size="14.00">/home/travis/build</text>
<text text-anchor="start" x="1919.5" y="-30.8" font-family="Helvetica,sans-Serif" font-size="14.00">/konsim83/MPI&#45;MSFEC</text>
<text text-anchor="middle" x="2014.5" y="-15.8" font-family="Helvetica,sans-Serif" font-size="14.00">/source/RT_DQ/rt_dq_global.cc</text>
</a>
</g>
</g>
<!-- Node26&#45;&gt;Node28 -->
<g id="edge33" class="edge"><title>Node26&#45;&gt;Node28</title>
<path fill="none" stroke="midnightblue" d="M2070.73,-97.7777C2059.56,-85.4032 2047.6,-72.1596 2037.6,-61.0806"/>
<polygon fill="midnightblue" stroke="midnightblue" points="2068.26,-100.267 2077.56,-105.343 2073.46,-95.5754 2068.26,-100.267"/>
</g>
<!-- Node29&#45;&gt;Node27 -->
<g id="edge36" class="edge"><title>Node29&#45;&gt;Node27</title>
<path fill="none" stroke="midnightblue" d="M2215.5,-207.733C2215.5,-166.008 2215.5,-98.0554 2215.5,-61.2135"/>
<polygon fill="midnightblue" stroke="midnightblue" points="2212,-207.995 2215.5,-217.995 2219,-207.995 2212,-207.995"/>
</g>
<!-- Node30 -->
<g id="node30" class="node"><title>Node30</title>
<g id="a_node30"><a xlink:href="rt__dq__ref_8cc.html" target="_top" xlink:title="/home/travis/build\l/konsim83/MPI&#45;MSFEC\l/source/RT_DQ/rt_dq_ref.cc">
<polygon fill="white" stroke="black" points="2243.5,-113 2243.5,-166 2429.5,-166 2429.5,-113 2243.5,-113"/>
<text text-anchor="start" x="2251.5" y="-150.8" font-family="Helvetica,sans-Serif" font-size="14.00">/home/travis/build</text>
<text text-anchor="start" x="2251.5" y="-135.8" font-family="Helvetica,sans-Serif" font-size="14.00">/konsim83/MPI&#45;MSFEC</text>
<text text-anchor="middle" x="2336.5" y="-120.8" font-family="Helvetica,sans-Serif" font-size="14.00">/source/RT_DQ/rt_dq_ref.cc</text>
</a>
</g>
</g>
<!-- Node29&#45;&gt;Node30 -->
<g id="edge37" class="edge"><title>Node29&#45;&gt;Node30</title>
<path fill="none" stroke="midnightblue" d="M2253.79,-210.906C2270.73,-196.489 2290.36,-179.778 2306.24,-166.255"/>
<polygon fill="midnightblue" stroke="midnightblue" points="2251.07,-208.627 2245.72,-217.774 2255.6,-213.958 2251.07,-208.627"/>
</g>
</g>
</svg>
