<?xml version="1.0" encoding="UTF-8" standalone="no"?>
<!DOCTYPE svg PUBLIC "-//W3C//DTD SVG 1.1//EN"
 "http://www.w3.org/Graphics/SVG/1.1/DTD/svg11.dtd">
<!-- Generated by graphviz version 2.38.0 (20140413.2041)
 -->
<!-- Title: /home/travis/build/konsim83/MPI&#45;MSFEC/include/Ned_RT/ned_rt_ref.h Pages: 1 -->
<svg width="350pt" height="167pt"
 viewBox="0.00 0.00 350.00 167.00" xmlns="http://www.w3.org/2000/svg" xmlns:xlink="http://www.w3.org/1999/xlink">
<g id="graph0" class="graph" transform="scale(1 1) rotate(0) translate(4 163)">
<title>/home/travis/build/konsim83/MPI&#45;MSFEC/include/Ned_RT/ned_rt_ref.h</title>
<polygon fill="white" stroke="none" points="-4,4 -4,-163 346,-163 346,4 -4,4"/>
<!-- Node1 -->
<g id="node1" class="node"><title>Node1</title>
<polygon fill="#bfbfbf" stroke="black" points="75,-105.5 75,-158.5 269,-158.5 269,-105.5 75,-105.5"/>
<text text-anchor="start" x="83" y="-143.3" font-family="Helvetica,sans-Serif" font-size="14.00">/home/travis/build</text>
<text text-anchor="start" x="83" y="-128.3" font-family="Helvetica,sans-Serif" font-size="14.00">/konsim83/MPI&#45;MSFEC</text>
<text text-anchor="middle" x="172" y="-113.3" font-family="Helvetica,sans-Serif" font-size="14.00">/include/Ned_RT/ned_rt_ref.h</text>
</g>
<!-- Node2 -->
<g id="node2" class="node"><title>Node2</title>
<g id="a_node2"><a xlink:href="main__ned__rt_8cxx.html" target="_top" xlink:title="/home/travis/build\l/konsim83/MPI&#45;MSFEC\l/source/main_ned_rt.cxx">
<polygon fill="white" stroke="black" points="0,-8 0,-61 164,-61 164,-8 0,-8"/>
<text text-anchor="start" x="8" y="-45.8" font-family="Helvetica,sans-Serif" font-size="14.00">/home/travis/build</text>
<text text-anchor="start" x="8" y="-30.8" font-family="Helvetica,sans-Serif" font-size="14.00">/konsim83/MPI&#45;MSFEC</text>
<text text-anchor="middle" x="82" y="-15.8" font-family="Helvetica,sans-Serif" font-size="14.00">/source/main_ned_rt.cxx</text>
</a>
</g>
</g>
<!-- Node1&#45;&gt;Node2 -->
<g id="edge1" class="edge"><title>Node1&#45;&gt;Node2</title>
<path fill="none" stroke="midnightblue" d="M140.992,-98.0971C129.603,-86.0124 116.887,-72.5188 106.185,-61.1629"/>
<polygon fill="midnightblue" stroke="midnightblue" points="138.476,-100.531 147.882,-105.408 143.57,-95.7298 138.476,-100.531"/>
</g>
<!-- Node3 -->
<g id="node3" class="node"><title>Node3</title>
<g id="a_node3"><a xlink:href="ned__rt__ref_8cc.html" target="_top" xlink:title="/home/travis/build\l/konsim83/MPI&#45;MSFEC\l/source/Ned_RT/ned_rt\l_ref.cc">
<polygon fill="white" stroke="black" points="182,-0.5 182,-68.5 342,-68.5 342,-0.5 182,-0.5"/>
<text text-anchor="start" x="190" y="-53.3" font-family="Helvetica,sans-Serif" font-size="14.00">/home/travis/build</text>
<text text-anchor="start" x="190" y="-38.3" font-family="Helvetica,sans-Serif" font-size="14.00">/konsim83/MPI&#45;MSFEC</text>
<text text-anchor="start" x="190" y="-23.3" font-family="Helvetica,sans-Serif" font-size="14.00">/source/Ned_RT/ned_rt</text>
<text text-anchor="middle" x="262" y="-8.3" font-family="Helvetica,sans-Serif" font-size="14.00">_ref.cc</text>
</a>
</g>
</g>
<!-- Node1&#45;&gt;Node3 -->
<g id="edge2" class="edge"><title>Node1&#45;&gt;Node3</title>
<path fill="none" stroke="midnightblue" d="M203.076,-98.0254C212.006,-88.5493 221.748,-78.212 230.692,-68.7211"/>
<polygon fill="midnightblue" stroke="midnightblue" points="200.43,-95.7298 196.118,-105.408 205.524,-100.531 200.43,-95.7298"/>
</g>
</g>
</svg>
