<?xml version="1.0" encoding="UTF-8" standalone="no"?>
<!DOCTYPE svg PUBLIC "-//W3C//DTD SVG 1.1//EN"
 "http://www.w3.org/Graphics/SVG/1.1/DTD/svg11.dtd">
<!-- Generated by graphviz version 2.38.0 (20140413.2041)
 -->
<!-- Title: /home/travis/build/konsim83/MPI&#45;MSFEC/source/Ned_RT/ned_rt_global.cc Pages: 1 -->
<svg width="5723pt" height="287pt"
 viewBox="0.00 0.00 5723.00 287.00" xmlns="http://www.w3.org/2000/svg" xmlns:xlink="http://www.w3.org/1999/xlink">
<g id="graph0" class="graph" transform="scale(1 1) rotate(0) translate(4 283)">
<title>/home/travis/build/konsim83/MPI&#45;MSFEC/source/Ned_RT/ned_rt_global.cc</title>
<polygon fill="white" stroke="none" points="-4,4 -4,-283 5719,-283 5719,4 -4,4"/>
<!-- Node1 -->
<g id="node1" class="node"><title>Node1</title>
<polygon fill="#bfbfbf" stroke="black" points="2929.5,-210.5 2929.5,-278.5 3089.5,-278.5 3089.5,-210.5 2929.5,-210.5"/>
<text text-anchor="start" x="2937.5" y="-263.3" font-family="Helvetica,sans-Serif" font-size="14.00">/home/travis/build</text>
<text text-anchor="start" x="2937.5" y="-248.3" font-family="Helvetica,sans-Serif" font-size="14.00">/konsim83/MPI&#45;MSFEC</text>
<text text-anchor="start" x="2937.5" y="-233.3" font-family="Helvetica,sans-Serif" font-size="14.00">/source/Ned_RT/ned_rt</text>
<text text-anchor="middle" x="3009.5" y="-218.3" font-family="Helvetica,sans-Serif" font-size="14.00">_global.cc</text>
</g>
<!-- Node2 -->
<g id="node2" class="node"><title>Node2</title>
<g id="a_node2"><a xlink:href="ned__rt__global_8h.html" target="_top" xlink:title="Ned_RT/ned_rt_global.h">
<polygon fill="white" stroke="red" points="2927.5,-150.5 2927.5,-173.5 3091.5,-173.5 3091.5,-150.5 2927.5,-150.5"/>
<text text-anchor="middle" x="3009.5" y="-158.3" font-family="Helvetica,sans-Serif" font-size="14.00">Ned_RT/ned_rt_global.h</text>
</a>
</g>
</g>
<!-- Node1&#45;&gt;Node2 -->
<g id="edge1" class="edge"><title>Node1&#45;&gt;Node2</title>
<path fill="none" stroke="midnightblue" d="M3009.5,-210.293C3009.5,-201.241 3009.5,-191.699 3009.5,-183.575"/>
<polygon fill="midnightblue" stroke="midnightblue" points="3013,-183.555 3009.5,-173.555 3006,-183.555 3013,-183.555"/>
</g>
<!-- Node3 -->
<g id="node3" class="node"><title>Node3</title>
<polygon fill="white" stroke="#bfbfbf" points="0,-0.5 0,-38.5 155,-38.5 155,-0.5 0,-0.5"/>
<text text-anchor="start" x="8" y="-23.3" font-family="Helvetica,sans-Serif" font-size="14.00">deal.II/base/conditional</text>
<text text-anchor="middle" x="77.5" y="-8.3" font-family="Helvetica,sans-Serif" font-size="14.00">_ostream.h</text>
</g>
<!-- Node2&#45;&gt;Node3 -->
<g id="edge2" class="edge"><title>Node2&#45;&gt;Node3</title>
<path fill="none" stroke="midnightblue" d="M2927.41,-160.767C2513.26,-159.425 663.108,-151.369 409.5,-114 311.594,-99.5737 201.734,-64.8066 136.157,-41.9739"/>
<polygon fill="midnightblue" stroke="midnightblue" points="137.011,-38.5642 126.416,-38.5562 134.693,-45.1695 137.011,-38.5642"/>
</g>
<!-- Node4 -->
<g id="node4" class="node"><title>Node4</title>
<polygon fill="white" stroke="#bfbfbf" points="3322,-83 3322,-106 3471,-106 3471,-83 3322,-83"/>
<text text-anchor="middle" x="3396.5" y="-90.8" font-family="Helvetica,sans-Serif" font-size="14.00">deal.II/base/function.h</text>
</g>
<!-- Node2&#45;&gt;Node4 -->
<g id="edge3" class="edge"><title>Node2&#45;&gt;Node4</title>
<path fill="none" stroke="midnightblue" d="M3083.4,-150.461C3144.03,-141.557 3232.01,-128.043 3308.5,-114 3318.29,-112.203 3328.66,-110.154 3338.72,-108.089"/>
<polygon fill="midnightblue" stroke="midnightblue" points="3339.55,-111.49 3348.63,-106.028 3338.13,-104.636 3339.55,-111.49"/>
</g>
<!-- Node5 -->
<g id="node5" class="node"><title>Node5</title>
<polygon fill="white" stroke="#bfbfbf" points="3489.5,-75.5 3489.5,-113.5 3611.5,-113.5 3611.5,-75.5 3489.5,-75.5"/>
<text text-anchor="start" x="3497.5" y="-98.3" font-family="Helvetica,sans-Serif" font-size="14.00">deal.II/base/index</text>
<text text-anchor="middle" x="3550.5" y="-83.3" font-family="Helvetica,sans-Serif" font-size="14.00">_set.h</text>
</g>
<!-- Node2&#45;&gt;Node5 -->
<g id="edge4" class="edge"><title>Node2&#45;&gt;Node5</title>
<path fill="none" stroke="midnightblue" d="M3091.73,-156.764C3183.95,-151.118 3338.02,-139.008 3479.03,-114.115"/>
<polygon fill="midnightblue" stroke="midnightblue" points="3479.94,-117.509 3489.16,-112.3 3478.7,-110.618 3479.94,-117.509"/>
</g>
<!-- Node6 -->
<g id="node6" class="node"><title>Node6</title>
<polygon fill="white" stroke="#bfbfbf" points="173,-8 173,-31 334,-31 334,-8 173,-8"/>
<text text-anchor="middle" x="253.5" y="-15.8" font-family="Helvetica,sans-Serif" font-size="14.00">deal.II/base/logstream.h</text>
</g>
<!-- Node2&#45;&gt;Node6 -->
<g id="edge5" class="edge"><title>Node2&#45;&gt;Node6</title>
<path fill="none" stroke="midnightblue" d="M2927.31,-160.716C2528.88,-159.162 808.039,-150.384 571.5,-114 466.925,-97.9146 348.53,-56.7043 290.109,-34.7567"/>
<polygon fill="midnightblue" stroke="midnightblue" points="291.178,-31.4189 280.587,-31.1496 288.698,-37.965 291.178,-31.4189"/>
</g>
<!-- Node7 -->
<g id="node7" class="node"><title>Node7</title>
<polygon fill="white" stroke="#bfbfbf" points="352.5,-8 352.5,-31 476.5,-31 476.5,-8 352.5,-8"/>
<text text-anchor="middle" x="414.5" y="-15.8" font-family="Helvetica,sans-Serif" font-size="14.00">deal.II/base/mpi.h</text>
</g>
<!-- Node2&#45;&gt;Node7 -->
<g id="edge6" class="edge"><title>Node2&#45;&gt;Node7</title>
<path fill="none" stroke="midnightblue" d="M2927.44,-160.59C2545.75,-158.512 953.281,-147.865 733.5,-114 628.627,-97.8406 509.846,-56.6626 451.232,-34.7391"/>
<polygon fill="midnightblue" stroke="midnightblue" points="452.269,-31.3898 441.677,-31.136 449.799,-37.9395 452.269,-31.3898"/>
</g>
<!-- Node8 -->
<g id="node8" class="node"><title>Node8</title>
<polygon fill="white" stroke="#bfbfbf" points="3629.5,-75.5 3629.5,-113.5 3781.5,-113.5 3781.5,-75.5 3629.5,-75.5"/>
<text text-anchor="start" x="3637.5" y="-98.3" font-family="Helvetica,sans-Serif" font-size="14.00">deal.II/base/parameter</text>
<text text-anchor="middle" x="3705.5" y="-83.3" font-family="Helvetica,sans-Serif" font-size="14.00">_handler.h</text>
</g>
<!-- Node2&#45;&gt;Node8 -->
<g id="edge7" class="edge"><title>Node2&#45;&gt;Node8</title>
<path fill="none" stroke="midnightblue" d="M3091.93,-158.258C3207.67,-153.607 3425.01,-141.949 3619.04,-114.106"/>
<polygon fill="midnightblue" stroke="midnightblue" points="3619.74,-117.541 3629.14,-112.639 3618.74,-110.613 3619.74,-117.541"/>
</g>
<!-- Node9 -->
<g id="node9" class="node"><title>Node9</title>
<polygon fill="white" stroke="#bfbfbf" points="495,-8 495,-31 638,-31 638,-8 495,-8"/>
<text text-anchor="middle" x="566.5" y="-15.8" font-family="Helvetica,sans-Serif" font-size="14.00">deal.II/base/utilities.h</text>
</g>
<!-- Node2&#45;&gt;Node9 -->
<g id="edge8" class="edge"><title>Node2&#45;&gt;Node9</title>
<path fill="none" stroke="midnightblue" d="M2927.41,-160.359C2563.94,-157.359 1108.63,-143.589 906.5,-114 794.667,-97.629 667.302,-56.2411 604.973,-34.4345"/>
<polygon fill="midnightblue" stroke="midnightblue" points="606.135,-31.1331 595.541,-31.1096 603.808,-37.735 606.135,-31.1331"/>
</g>
<!-- Node10 -->
<g id="node10" class="node"><title>Node10</title>
<polygon fill="white" stroke="#bfbfbf" points="3800,-75.5 3800,-113.5 3911,-113.5 3911,-75.5 3800,-75.5"/>
<text text-anchor="start" x="3808" y="-98.3" font-family="Helvetica,sans-Serif" font-size="14.00">deal.II/lac/affine</text>
<text text-anchor="middle" x="3855.5" y="-83.3" font-family="Helvetica,sans-Serif" font-size="14.00">_constraints.h</text>
</g>
<!-- Node2&#45;&gt;Node10 -->
<g id="edge9" class="edge"><title>Node2&#45;&gt;Node10</title>
<path fill="none" stroke="midnightblue" d="M3091.68,-161.888C3232.94,-162.136 3530.74,-157.064 3789.69,-113.91"/>
<polygon fill="midnightblue" stroke="midnightblue" points="3790.38,-117.342 3799.66,-112.226 3789.21,-110.44 3790.38,-117.342"/>
</g>
<!-- Node11 -->
<g id="node11" class="node"><title>Node11</title>
<polygon fill="white" stroke="#bfbfbf" points="656.5,-0.5 656.5,-38.5 814.5,-38.5 814.5,-0.5 656.5,-0.5"/>
<text text-anchor="start" x="664.5" y="-23.3" font-family="Helvetica,sans-Serif" font-size="14.00">deal.II/lac/block_sparse</text>
<text text-anchor="middle" x="735.5" y="-8.3" font-family="Helvetica,sans-Serif" font-size="14.00">_matrix.h</text>
</g>
<!-- Node2&#45;&gt;Node11 -->
<g id="edge10" class="edge"><title>Node2&#45;&gt;Node11</title>
<path fill="none" stroke="midnightblue" d="M2927.45,-160.154C2583.42,-156.45 1266.52,-140.645 1082.5,-114 980.389,-99.2151 865.405,-64.5164 796.787,-41.8005"/>
<polygon fill="midnightblue" stroke="midnightblue" points="797.601,-38.3822 787.007,-38.5397 795.387,-45.0229 797.601,-38.3822"/>
</g>
<!-- Node12 -->
<g id="node12" class="node"><title>Node12</title>
<polygon fill="white" stroke="#bfbfbf" points="833,-8 833,-31 998,-31 998,-8 833,-8"/>
<text text-anchor="middle" x="915.5" y="-15.8" font-family="Helvetica,sans-Serif" font-size="14.00">deal.II/lac/block_vector.h</text>
</g>
<!-- Node2&#45;&gt;Node12 -->
<g id="edge11" class="edge"><title>Node2&#45;&gt;Node12</title>
<path fill="none" stroke="midnightblue" d="M2927.26,-161.426C2626.13,-162.577 1584.12,-162.852 1255.5,-114 1143.93,-97.4148 1016.85,-56.2723 954.368,-34.5109"/>
<polygon fill="midnightblue" stroke="midnightblue" points="955.142,-31.0735 944.547,-31.0643 952.824,-37.6785 955.142,-31.0735"/>
</g>
<!-- Node13 -->
<g id="node13" class="node"><title>Node13</title>
<polygon fill="white" stroke="#bfbfbf" points="3929,-75.5 3929,-113.5 4060,-113.5 4060,-75.5 3929,-75.5"/>
<text text-anchor="start" x="3937" y="-98.3" font-family="Helvetica,sans-Serif" font-size="14.00">deal.II/lac/dynamic</text>
<text text-anchor="middle" x="3994.5" y="-83.3" font-family="Helvetica,sans-Serif" font-size="14.00">_sparsity_pattern.h</text>
</g>
<!-- Node2&#45;&gt;Node13 -->
<g id="edge12" class="edge"><title>Node2&#45;&gt;Node13</title>
<path fill="none" stroke="midnightblue" d="M3091.81,-158.793C3281.02,-153.397 3743.47,-138.278 3918.74,-114.066"/>
<polygon fill="midnightblue" stroke="midnightblue" points="3919.47,-117.498 3928.87,-112.608 3918.47,-110.569 3919.47,-117.498"/>
</g>
<!-- Node14 -->
<g id="node14" class="node"><title>Node14</title>
<polygon fill="white" stroke="#bfbfbf" points="1016.5,-8 1016.5,-31 1168.5,-31 1168.5,-8 1016.5,-8"/>
<text text-anchor="middle" x="1092.5" y="-15.8" font-family="Helvetica,sans-Serif" font-size="14.00">deal.II/lac/full_matrix.h</text>
</g>
<!-- Node2&#45;&gt;Node14 -->
<g id="edge13" class="edge"><title>Node2&#45;&gt;Node14</title>
<path fill="none" stroke="midnightblue" d="M2927.47,-161.225C2645.56,-161.583 1717.72,-159.21 1423.5,-114 1314.76,-97.2909 1191.09,-56.2029 1130.31,-34.4817"/>
<polygon fill="midnightblue" stroke="midnightblue" points="1131.35,-31.1366 1120.75,-31.0417 1128.98,-37.7227 1131.35,-31.1366"/>
</g>
<!-- Node15 -->
<g id="node15" class="node"><title>Node15</title>
<polygon fill="white" stroke="#bfbfbf" points="4078.5,-75.5 4078.5,-113.5 4200.5,-113.5 4200.5,-75.5 4078.5,-75.5"/>
<text text-anchor="start" x="4086.5" y="-98.3" font-family="Helvetica,sans-Serif" font-size="14.00">deal.II/lac/generic</text>
<text text-anchor="middle" x="4139.5" y="-83.3" font-family="Helvetica,sans-Serif" font-size="14.00">_linear_algebra.h</text>
</g>
<!-- Node2&#45;&gt;Node15 -->
<g id="edge14" class="edge"><title>Node2&#45;&gt;Node15</title>
<path fill="none" stroke="midnightblue" d="M3091.59,-159.631C3302.82,-155.752 3862.37,-143.122 4068.08,-113.985"/>
<polygon fill="midnightblue" stroke="midnightblue" points="4068.81,-117.416 4078.2,-112.496 4067.79,-110.491 4068.81,-117.416"/>
</g>
<!-- Node16 -->
<g id="node16" class="node"><title>Node16</title>
<polygon fill="white" stroke="#bfbfbf" points="4219,-83 4219,-106 4422,-106 4422,-83 4219,-83"/>
<text text-anchor="middle" x="4320.5" y="-90.8" font-family="Helvetica,sans-Serif" font-size="14.00">deal.II/lac/petsc_precondition.h</text>
</g>
<!-- Node2&#45;&gt;Node16 -->
<g id="edge15" class="edge"><title>Node2&#45;&gt;Node16</title>
<path fill="none" stroke="midnightblue" d="M3091.59,-161.341C3286.23,-161.375 3790.8,-156.919 4209.5,-114 4224.5,-112.462 4240.55,-110.17 4255.64,-107.718"/>
<polygon fill="midnightblue" stroke="midnightblue" points="4256.63,-111.101 4265.92,-106.002 4255.48,-104.197 4256.63,-111.101"/>
</g>
<!-- Node17 -->
<g id="node17" class="node"><title>Node17</title>
<polygon fill="white" stroke="#bfbfbf" points="4440,-83 4440,-106 4605,-106 4605,-83 4440,-83"/>
<text text-anchor="middle" x="4522.5" y="-90.8" font-family="Helvetica,sans-Serif" font-size="14.00">deal.II/lac/petsc_solver.h</text>
</g>
<!-- Node2&#45;&gt;Node17 -->
<g id="edge16" class="edge"><title>Node2&#45;&gt;Node17</title>
<path fill="none" stroke="midnightblue" d="M3091.95,-160.09C3354.55,-156.907 4169.46,-144.747 4431.5,-114 4443.51,-112.591 4456.29,-110.42 4468.36,-108.054"/>
<polygon fill="midnightblue" stroke="midnightblue" points="4469.2,-111.455 4478.31,-106.033 4467.81,-104.595 4469.2,-111.455"/>
</g>
<!-- Node18 -->
<g id="node18" class="node"><title>Node18</title>
<polygon fill="white" stroke="#bfbfbf" points="1187,-8 1187,-31 1334,-31 1334,-8 1187,-8"/>
<text text-anchor="middle" x="1260.5" y="-15.8" font-family="Helvetica,sans-Serif" font-size="14.00">deal.II/lac/solver_cg.h</text>
</g>
<!-- Node2&#45;&gt;Node18 -->
<g id="edge17" class="edge"><title>Node2&#45;&gt;Node18</title>
<path fill="none" stroke="midnightblue" d="M2927.23,-160.874C2665.23,-160.065 1852.31,-154.286 1592.5,-114 1483.48,-97.0946 1359.42,-56.0928 1298.43,-34.4355"/>
<polygon fill="midnightblue" stroke="midnightblue" points="1299.44,-31.0795 1288.85,-31.0058 1297.08,-37.6703 1299.44,-31.0795"/>
</g>
<!-- Node19 -->
<g id="node19" class="node"><title>Node19</title>
<polygon fill="white" stroke="#bfbfbf" points="4623.5,-75.5 4623.5,-113.5 4737.5,-113.5 4737.5,-75.5 4623.5,-75.5"/>
<text text-anchor="start" x="4631.5" y="-98.3" font-family="Helvetica,sans-Serif" font-size="14.00">deal.II/lac/solver</text>
<text text-anchor="middle" x="4680.5" y="-83.3" font-family="Helvetica,sans-Serif" font-size="14.00">_gmres.h</text>
</g>
<!-- Node2&#45;&gt;Node19 -->
<g id="edge18" class="edge"><title>Node2&#45;&gt;Node19</title>
<path fill="none" stroke="midnightblue" d="M3091.53,-161.237C3372.56,-161.642 4296.22,-159.498 4613.33,-113.911"/>
<polygon fill="midnightblue" stroke="midnightblue" points="4614.07,-117.34 4623.45,-112.41 4613.04,-110.415 4614.07,-117.34"/>
</g>
<!-- Node20 -->
<g id="node20" class="node"><title>Node20</title>
<polygon fill="white" stroke="#bfbfbf" points="4755.5,-75.5 4755.5,-113.5 4869.5,-113.5 4869.5,-75.5 4755.5,-75.5"/>
<text text-anchor="start" x="4763.5" y="-98.3" font-family="Helvetica,sans-Serif" font-size="14.00">deal.II/lac/solver</text>
<text text-anchor="middle" x="4812.5" y="-83.3" font-family="Helvetica,sans-Serif" font-size="14.00">_minres.h</text>
</g>
<!-- Node2&#45;&gt;Node20 -->
<g id="edge19" class="edge"><title>Node2&#45;&gt;Node20</title>
<path fill="none" stroke="midnightblue" d="M3091.72,-161.454C3388.05,-162.675 4401.41,-163.17 4745.47,-113.891"/>
<polygon fill="midnightblue" stroke="midnightblue" points="4746.07,-117.34 4755.45,-112.418 4745.05,-110.415 4746.07,-117.34"/>
</g>
<!-- Node21 -->
<g id="node21" class="node"><title>Node21</title>
<polygon fill="white" stroke="#bfbfbf" points="4887.5,-83 4887.5,-106 5013.5,-106 5013.5,-83 4887.5,-83"/>
<text text-anchor="middle" x="4950.5" y="-90.8" font-family="Helvetica,sans-Serif" font-size="14.00">deal.II/lac/vector.h</text>
</g>
<!-- Node2&#45;&gt;Node21 -->
<g id="edge20" class="edge"><title>Node2&#45;&gt;Node21</title>
<path fill="none" stroke="midnightblue" d="M3091.67,-161.404C3405.13,-162.56 4525.87,-163.09 4878.5,-114 4887.51,-112.746 4897.01,-110.78 4906.06,-108.59"/>
<polygon fill="midnightblue" stroke="midnightblue" points="4907.2,-111.91 4916.03,-106.047 4905.47,-105.128 4907.2,-111.91"/>
</g>
<!-- Node22 -->
<g id="node22" class="node"><title>Node22</title>
<polygon fill="white" stroke="#bfbfbf" points="5032,-75.5 5032,-113.5 5157,-113.5 5157,-75.5 5032,-75.5"/>
<text text-anchor="start" x="5040" y="-98.3" font-family="Helvetica,sans-Serif" font-size="14.00">deal.II/lac/sparsity</text>
<text text-anchor="middle" x="5094.5" y="-83.3" font-family="Helvetica,sans-Serif" font-size="14.00">_tools.h</text>
</g>
<!-- Node2&#45;&gt;Node22 -->
<g id="edge21" class="edge"><title>Node2&#45;&gt;Node22</title>
<path fill="none" stroke="midnightblue" d="M3091.6,-160.189C3439.9,-156.602 4787.78,-141.175 5021.84,-113.769"/>
<polygon fill="midnightblue" stroke="midnightblue" points="5022.36,-117.232 5031.84,-112.497 5021.48,-110.288 5022.36,-117.232"/>
</g>
<!-- Node23 -->
<g id="node23" class="node"><title>Node23</title>
<polygon fill="white" stroke="#bfbfbf" points="1352.5,-8 1352.5,-31 1484.5,-31 1484.5,-8 1352.5,-8"/>
<text text-anchor="middle" x="1418.5" y="-15.8" font-family="Helvetica,sans-Serif" font-size="14.00">deal.II/base/timer.h</text>
</g>
<!-- Node2&#45;&gt;Node23 -->
<g id="edge22" class="edge"><title>Node2&#45;&gt;Node23</title>
<path fill="none" stroke="midnightblue" d="M2927.3,-160.246C2688.12,-157.679 1995.39,-147.479 1771.5,-114 1656.04,-96.7341 1524.03,-55.9278 1459.03,-34.3816"/>
<polygon fill="midnightblue" stroke="midnightblue" points="1459.78,-30.9419 1449.18,-31.0955 1457.56,-37.5817 1459.78,-30.9419"/>
</g>
<!-- Node24 -->
<g id="node24" class="node"><title>Node24</title>
<polygon fill="white" stroke="#bfbfbf" points="5175,-75.5 5175,-113.5 5294,-113.5 5294,-75.5 5175,-75.5"/>
<text text-anchor="start" x="5183" y="-98.3" font-family="Helvetica,sans-Serif" font-size="14.00">deal.II/distributed</text>
<text text-anchor="middle" x="5234.5" y="-83.3" font-family="Helvetica,sans-Serif" font-size="14.00">/tria.h</text>
</g>
<!-- Node2&#45;&gt;Node24 -->
<g id="edge23" class="edge"><title>Node2&#45;&gt;Node24</title>
<path fill="none" stroke="midnightblue" d="M3091.52,-160.396C3455.42,-157.558 4916.53,-144.444 5165.02,-113.904"/>
<polygon fill="midnightblue" stroke="midnightblue" points="5165.52,-117.368 5174.97,-112.577 5164.59,-110.43 5165.52,-117.368"/>
</g>
<!-- Node25 -->
<g id="node25" class="node"><title>Node25</title>
<polygon fill="white" stroke="#bfbfbf" points="1502.5,-8 1502.5,-31 1680.5,-31 1680.5,-8 1502.5,-8"/>
<text text-anchor="middle" x="1591.5" y="-15.8" font-family="Helvetica,sans-Serif" font-size="14.00">deal.II/dofs/dof_accessor.h</text>
</g>
<!-- Node2&#45;&gt;Node25 -->
<g id="edge24" class="edge"><title>Node2&#45;&gt;Node25</title>
<path fill="none" stroke="midnightblue" d="M2927.19,-159.519C2713.24,-155.317 2143.27,-141.786 1956.5,-114 1837.11,-96.2377 1700.19,-55.5024 1633.05,-34.1411"/>
<polygon fill="midnightblue" stroke="midnightblue" points="1633.86,-30.7267 1623.27,-31.0103 1631.73,-37.3933 1633.86,-30.7267"/>
</g>
<!-- Node26 -->
<g id="node26" class="node"><title>Node26</title>
<polygon fill="white" stroke="#bfbfbf" points="1698,-8 1698,-31 1867,-31 1867,-8 1698,-8"/>
<text text-anchor="middle" x="1782.5" y="-15.8" font-family="Helvetica,sans-Serif" font-size="14.00">deal.II/dofs/dof_handler.h</text>
</g>
<!-- Node2&#45;&gt;Node26 -->
<g id="edge25" class="edge"><title>Node2&#45;&gt;Node26</title>
<path fill="none" stroke="midnightblue" d="M2927.4,-158.737C2740.24,-153.229 2286.54,-137.806 2135.5,-114 2020.47,-95.8706 1888.79,-55.6249 1823.56,-34.3312"/>
<polygon fill="midnightblue" stroke="midnightblue" points="1824.27,-30.8797 1813.68,-31.0827 1822.09,-37.5298 1824.27,-30.8797"/>
</g>
<!-- Node27 -->
<g id="node27" class="node"><title>Node27</title>
<polygon fill="white" stroke="#bfbfbf" points="1885.5,-8 1885.5,-31 2085.5,-31 2085.5,-8 1885.5,-8"/>
<text text-anchor="middle" x="1985.5" y="-15.8" font-family="Helvetica,sans-Serif" font-size="14.00">deal.II/dofs/dof_renumbering.h</text>
</g>
<!-- Node2&#45;&gt;Node27 -->
<g id="edge26" class="edge"><title>Node2&#45;&gt;Node27</title>
<path fill="none" stroke="midnightblue" d="M2927.45,-161.758C2793.3,-161.631 2519.13,-155.648 2291.5,-114 2191.76,-95.751 2078.67,-55.988 2021.99,-34.6705"/>
<polygon fill="midnightblue" stroke="midnightblue" points="2023,-31.3089 2012.4,-31.0388 2020.52,-37.8548 2023,-31.3089"/>
</g>
<!-- Node28 -->
<g id="node28" class="node"><title>Node28</title>
<polygon fill="white" stroke="#bfbfbf" points="2103.5,-8 2103.5,-31 2255.5,-31 2255.5,-8 2103.5,-8"/>
<text text-anchor="middle" x="2179.5" y="-15.8" font-family="Helvetica,sans-Serif" font-size="14.00">deal.II/dofs/dof_tools.h</text>
</g>
<!-- Node2&#45;&gt;Node28 -->
<g id="edge27" class="edge"><title>Node2&#45;&gt;Node28</title>
<path fill="none" stroke="midnightblue" d="M2927.47,-157.64C2787.22,-151.38 2507.24,-136.495 2411.5,-114 2335.45,-96.1317 2251.72,-57.2052 2208.66,-35.6396"/>
<polygon fill="midnightblue" stroke="midnightblue" points="2210.11,-32.4516 2199.61,-31.0612 2206.95,-38.698 2210.11,-32.4516"/>
</g>
<!-- Node29 -->
<g id="node29" class="node"><title>Node29</title>
<polygon fill="white" stroke="#bfbfbf" points="2274,-8 2274,-31 2403,-31 2403,-8 2274,-8"/>
<text text-anchor="middle" x="2338.5" y="-15.8" font-family="Helvetica,sans-Serif" font-size="14.00">deal.II/fe/fe_bdm.h</text>
</g>
<!-- Node2&#45;&gt;Node29 -->
<g id="edge28" class="edge"><title>Node2&#45;&gt;Node29</title>
<path fill="none" stroke="midnightblue" d="M2927.4,-157.87C2803.36,-152.399 2574.41,-139.204 2496.5,-114 2443.46,-96.8417 2389.14,-59.4837 2360.05,-37.5374"/>
<polygon fill="midnightblue" stroke="midnightblue" points="2361.93,-34.5666 2351.86,-31.2607 2357.67,-40.1222 2361.93,-34.5666"/>
</g>
<!-- Node30 -->
<g id="node30" class="node"><title>Node30</title>
<polygon fill="white" stroke="#bfbfbf" points="2421,-8 2421,-31 2546,-31 2546,-8 2421,-8"/>
<text text-anchor="middle" x="2483.5" y="-15.8" font-family="Helvetica,sans-Serif" font-size="14.00">deal.II/fe/fe_dgp.h</text>
</g>
<!-- Node2&#45;&gt;Node30 -->
<g id="edge29" class="edge"><title>Node2&#45;&gt;Node30</title>
<path fill="none" stroke="midnightblue" d="M2927.41,-157.34C2798.62,-150.952 2560.4,-136.285 2528.5,-114 2504.12,-96.9654 2492.47,-63.012 2487.27,-41.0487"/>
<polygon fill="midnightblue" stroke="midnightblue" points="2490.65,-40.1394 2485.16,-31.0828 2483.81,-41.5913 2490.65,-40.1394"/>
</g>
<!-- Node31 -->
<g id="node31" class="node"><title>Node31</title>
<polygon fill="white" stroke="#bfbfbf" points="2564,-8 2564,-31 2689,-31 2689,-8 2564,-8"/>
<text text-anchor="middle" x="2626.5" y="-15.8" font-family="Helvetica,sans-Serif" font-size="14.00">deal.II/fe/fe_dgq.h</text>
</g>
<!-- Node2&#45;&gt;Node31 -->
<g id="edge30" class="edge"><title>Node2&#45;&gt;Node31</title>
<path fill="none" stroke="midnightblue" d="M2929.28,-150.487C2886.02,-143.242 2832.27,-131.663 2786.5,-114 2734.54,-93.9508 2679.7,-58.2681 2649.63,-37.2591"/>
<polygon fill="midnightblue" stroke="midnightblue" points="2651.3,-34.1592 2641.12,-31.2436 2647.26,-39.8748 2651.3,-34.1592"/>
</g>
<!-- Node32 -->
<g id="node32" class="node"><title>Node32</title>
<polygon fill="white" stroke="#bfbfbf" points="2707,-8 2707,-31 2856,-31 2856,-8 2707,-8"/>
<text text-anchor="middle" x="2781.5" y="-15.8" font-family="Helvetica,sans-Serif" font-size="14.00">deal.II/fe/fe_nedelec.h</text>
</g>
<!-- Node2&#45;&gt;Node32 -->
<g id="edge31" class="edge"><title>Node2&#45;&gt;Node32</title>
<path fill="none" stroke="midnightblue" d="M2933.57,-150.475C2886.32,-142.502 2831.26,-130.16 2813.5,-114 2792.86,-95.2207 2785.53,-62.5615 2782.93,-41.24"/>
<polygon fill="midnightblue" stroke="midnightblue" points="2786.41,-40.8699 2781.95,-31.2573 2779.44,-41.5501 2786.41,-40.8699"/>
</g>
<!-- Node33 -->
<g id="node33" class="node"><title>Node33</title>
<polygon fill="white" stroke="#bfbfbf" points="2874.5,-0.5 2874.5,-38.5 3002.5,-38.5 3002.5,-0.5 2874.5,-0.5"/>
<text text-anchor="start" x="2882.5" y="-23.3" font-family="Helvetica,sans-Serif" font-size="14.00">deal.II/fe/fe_raviart</text>
<text text-anchor="middle" x="2938.5" y="-8.3" font-family="Helvetica,sans-Serif" font-size="14.00">_thomas.h</text>
</g>
<!-- Node2&#45;&gt;Node33 -->
<g id="edge32" class="edge"><title>Node2&#45;&gt;Node33</title>
<path fill="none" stroke="midnightblue" d="M2929.28,-150.495C2885.59,-142.949 2837.77,-131.069 2824.5,-114 2813.86,-100.317 2815.26,-89.6634 2824.5,-75 2833.99,-59.9521 2848.9,-48.969 2864.85,-40.9855"/>
<polygon fill="midnightblue" stroke="midnightblue" points="2866.71,-43.9835 2874.33,-36.6235 2863.78,-37.6245 2866.71,-43.9835"/>
</g>
<!-- Node34 -->
<g id="node34" class="node"><title>Node34</title>
<polygon fill="white" stroke="#bfbfbf" points="3020.5,-8 3020.5,-31 3166.5,-31 3166.5,-8 3020.5,-8"/>
<text text-anchor="middle" x="3093.5" y="-15.8" font-family="Helvetica,sans-Serif" font-size="14.00">deal.II/fe/fe_system.h</text>
</g>
<!-- Node2&#45;&gt;Node34 -->
<g id="edge33" class="edge"><title>Node2&#45;&gt;Node34</title>
<path fill="none" stroke="midnightblue" d="M2927.17,-153.319C2902.39,-146.699 2877.75,-134.882 2862.5,-114 2852.28,-100.001 2851.74,-88.5911 2862.5,-75 2863.89,-73.2497 2969.32,-48.8797 3037.25,-33.3265"/>
<polygon fill="midnightblue" stroke="midnightblue" points="3038.43,-36.6473 3047.39,-31.0052 3036.87,-29.8236 3038.43,-36.6473"/>
</g>
<!-- Node35 -->
<g id="node35" class="node"><title>Node35</title>
<polygon fill="white" stroke="#bfbfbf" points="5312,-83 5312,-106 5445,-106 5445,-83 5312,-83"/>
<text text-anchor="middle" x="5378.5" y="-90.8" font-family="Helvetica,sans-Serif" font-size="14.00">deal.II/grid/cell_id.h</text>
</g>
<!-- Node2&#45;&gt;Node35 -->
<g id="edge34" class="edge"><title>Node2&#45;&gt;Node35</title>
<path fill="none" stroke="midnightblue" d="M3091.54,-160.396C3474.96,-157.427 5081.17,-143.33 5303.5,-114 5313.07,-112.737 5323.19,-110.722 5332.79,-108.477"/>
<polygon fill="midnightblue" stroke="midnightblue" points="5333.69,-111.86 5342.57,-106.076 5332.02,-105.062 5333.69,-111.86"/>
</g>
<!-- Node36 -->
<g id="node36" class="node"><title>Node36</title>
<polygon fill="white" stroke="#bfbfbf" points="3184.5,-8 3184.5,-31 3366.5,-31 3366.5,-8 3184.5,-8"/>
<text text-anchor="middle" x="3275.5" y="-15.8" font-family="Helvetica,sans-Serif" font-size="14.00">deal.II/grid/grid_generator.h</text>
</g>
<!-- Node2&#45;&gt;Node36 -->
<g id="edge35" class="edge"><title>Node2&#45;&gt;Node36</title>
<path fill="none" stroke="midnightblue" d="M2954.02,-150.491C2933.65,-143.655 2912.62,-132.422 2900.5,-114 2890.97,-99.5189 2889.07,-88.0277 2900.5,-75 2941.15,-28.6771 3114.62,-48.6092 3175.5,-39 3187.22,-37.1505 3199.67,-34.9975 3211.67,-32.8278"/>
<polygon fill="midnightblue" stroke="midnightblue" points="3212.41,-36.2508 3221.62,-31.0075 3211.15,-29.3652 3212.41,-36.2508"/>
</g>
<!-- Node37 -->
<g id="node37" class="node"><title>Node37</title>
<polygon fill="white" stroke="#bfbfbf" points="3385,-8 3385,-31 3560,-31 3560,-8 3385,-8"/>
<text text-anchor="middle" x="3472.5" y="-15.8" font-family="Helvetica,sans-Serif" font-size="14.00">deal.II/grid/tria_accessor.h</text>
</g>
<!-- Node2&#45;&gt;Node37 -->
<g id="edge36" class="edge"><title>Node2&#45;&gt;Node37</title>
<path fill="none" stroke="midnightblue" d="M2981.44,-150.353C2965.76,-142.784 2947.6,-130.929 2938.5,-114 2930.3,-98.731 2926.76,-87.7497 2938.5,-75 2971.51,-39.1634 3327.23,-45.573 3375.5,-39 3387.58,-37.3556 3400.43,-35.1978 3412.69,-32.9386"/>
<polygon fill="midnightblue" stroke="midnightblue" points="3413.64,-36.3202 3422.82,-31.0259 3412.35,-29.4416 3413.64,-36.3202"/>
</g>
<!-- Node38 -->
<g id="node38" class="node"><title>Node38</title>
<polygon fill="white" stroke="#bfbfbf" points="3578,-8 3578,-31 3741,-31 3741,-8 3578,-8"/>
<text text-anchor="middle" x="3659.5" y="-15.8" font-family="Helvetica,sans-Serif" font-size="14.00">deal.II/grid/tria_iterator.h</text>
</g>
<!-- Node2&#45;&gt;Node38 -->
<g id="edge37" class="edge"><title>Node2&#45;&gt;Node38</title>
<path fill="none" stroke="midnightblue" d="M2999.13,-150.371C2983.06,-132.628 2956,-96.7774 2976.5,-75 3021.74,-26.9303 3504.06,-47.6673 3569.5,-39 3580.87,-37.4934 3592.96,-35.373 3604.46,-33.1025"/>
<polygon fill="midnightblue" stroke="midnightblue" points="3605.29,-36.5064 3614.39,-31.0803 3603.89,-29.6474 3605.29,-36.5064"/>
</g>
<!-- Node39 -->
<g id="node39" class="node"><title>Node39</title>
<polygon fill="white" stroke="#bfbfbf" points="3759,-8 3759,-31 3922,-31 3922,-8 3759,-8"/>
<text text-anchor="middle" x="3840.5" y="-15.8" font-family="Helvetica,sans-Serif" font-size="14.00">deal.II/lac/precondition.h</text>
</g>
<!-- Node2&#45;&gt;Node39 -->
<g id="edge38" class="edge"><title>Node2&#45;&gt;Node39</title>
<path fill="none" stroke="midnightblue" d="M3006.22,-150.5C3001.26,-132.289 2994.42,-94.8952 3014.5,-75 3072.66,-17.3722 3669.27,-49.273 3750.5,-39 3762.01,-37.5449 3774.24,-35.4241 3785.85,-33.1332"/>
<polygon fill="midnightblue" stroke="midnightblue" points="3786.77,-36.5184 3795.86,-31.0886 3785.37,-29.6599 3786.77,-36.5184"/>
</g>
<!-- Node40 -->
<g id="node40" class="node"><title>Node40</title>
<polygon fill="white" stroke="#bfbfbf" points="5463,-75.5 5463,-113.5 5580,-113.5 5580,-75.5 5463,-75.5"/>
<text text-anchor="start" x="5471" y="-98.3" font-family="Helvetica,sans-Serif" font-size="14.00">deal.II/lac/trilinos</text>
<text text-anchor="middle" x="5521.5" y="-83.3" font-family="Helvetica,sans-Serif" font-size="14.00">_precondition.h</text>
</g>
<!-- Node2&#45;&gt;Node40 -->
<g id="edge39" class="edge"><title>Node2&#45;&gt;Node40</title>
<path fill="none" stroke="midnightblue" d="M3091.59,-160.641C3485.41,-158.756 5173.3,-148.784 5452.77,-113.943"/>
<polygon fill="midnightblue" stroke="midnightblue" points="5453.41,-117.39 5462.85,-112.587 5452.47,-110.452 5453.41,-117.39"/>
</g>
<!-- Node41 -->
<g id="node41" class="node"><title>Node41</title>
<polygon fill="white" stroke="#bfbfbf" points="5598,-75.5 5598,-113.5 5715,-113.5 5715,-75.5 5598,-75.5"/>
<text text-anchor="start" x="5606" y="-98.3" font-family="Helvetica,sans-Serif" font-size="14.00">deal.II/lac/trilinos</text>
<text text-anchor="middle" x="5656.5" y="-83.3" font-family="Helvetica,sans-Serif" font-size="14.00">_solver.h</text>
</g>
<!-- Node2&#45;&gt;Node41 -->
<g id="edge40" class="edge"><title>Node2&#45;&gt;Node41</title>
<path fill="none" stroke="midnightblue" d="M3091.64,-160.73C3498.88,-159.228 5293.33,-150.649 5587.63,-113.963"/>
<polygon fill="midnightblue" stroke="midnightblue" points="5588.41,-117.391 5597.85,-112.59 5587.47,-110.453 5588.41,-117.391"/>
</g>
<!-- Node42 -->
<g id="node42" class="node"><title>Node42</title>
<polygon fill="white" stroke="#bfbfbf" points="3940,-0.5 3940,-38.5 4083,-38.5 4083,-0.5 3940,-0.5"/>
<text text-anchor="start" x="3948" y="-23.3" font-family="Helvetica,sans-Serif" font-size="14.00">deal.II/numerics/data</text>
<text text-anchor="middle" x="4011.5" y="-8.3" font-family="Helvetica,sans-Serif" font-size="14.00">_out.h</text>
</g>
<!-- Node2&#45;&gt;Node42 -->
<g id="edge41" class="edge"><title>Node2&#45;&gt;Node42</title>
<path fill="none" stroke="midnightblue" d="M3011.29,-150.233C3015.08,-131.253 3025.87,-92.223 3052.5,-75 3132.26,-23.4229 3795.47,-50.4274 3929.33,-38.8884"/>
<polygon fill="midnightblue" stroke="midnightblue" points="3930.09,-42.3271 3939.66,-37.7783 3929.34,-35.3672 3930.09,-42.3271"/>
</g>
<!-- Node43 -->
<g id="node43" class="node"><title>Node43</title>
<polygon fill="white" stroke="#bfbfbf" points="4101.5,-0.5 4101.5,-38.5 4255.5,-38.5 4255.5,-0.5 4101.5,-0.5"/>
<text text-anchor="start" x="4109.5" y="-23.3" font-family="Helvetica,sans-Serif" font-size="14.00">deal.II/numerics/matrix</text>
<text text-anchor="middle" x="4178.5" y="-8.3" font-family="Helvetica,sans-Serif" font-size="14.00">_tools.h</text>
</g>
<!-- Node2&#45;&gt;Node43 -->
<g id="edge42" class="edge"><title>Node2&#45;&gt;Node43</title>
<path fill="none" stroke="midnightblue" d="M3019.41,-150.265C3040.52,-127.436 3088.18,-76.0533 3090.5,-75 3189.39,-30.1702 3942.28,-51.6059 4090.89,-38.8553"/>
<polygon fill="midnightblue" stroke="midnightblue" points="4091.67,-42.2941 4101.25,-37.7874 4090.95,-35.331 4091.67,-42.2941"/>
</g>
<!-- Node44 -->
<g id="node44" class="node"><title>Node44</title>
<polygon fill="white" stroke="#bfbfbf" points="4274,-0.5 4274,-38.5 4427,-38.5 4427,-0.5 4274,-0.5"/>
<text text-anchor="start" x="4282" y="-23.3" font-family="Helvetica,sans-Serif" font-size="14.00">deal.II/numerics/vector</text>
<text text-anchor="middle" x="4350.5" y="-8.3" font-family="Helvetica,sans-Serif" font-size="14.00">_tools.h</text>
</g>
<!-- Node2&#45;&gt;Node44 -->
<g id="edge43" class="edge"><title>Node2&#45;&gt;Node44</title>
<path fill="none" stroke="midnightblue" d="M3029.18,-150.435C3045.17,-141.517 3068.02,-127.995 3086.5,-114 3106.81,-98.6204 3104.94,-84.6853 3128.5,-75 3242.68,-28.0628 4099.39,-53.1506 4263.52,-38.7868"/>
<polygon fill="midnightblue" stroke="midnightblue" points="4264.14,-42.2423 4273.72,-37.7329 4263.42,-35.2793 4264.14,-42.2423"/>
</g>
<!-- Node45 -->
<g id="node45" class="node"><title>Node45</title>
<polygon fill="white" stroke="#bfbfbf" points="4445.5,-8 4445.5,-31 4499.5,-31 4499.5,-8 4445.5,-8"/>
<text text-anchor="middle" x="4472.5" y="-15.8" font-family="Helvetica,sans-Serif" font-size="14.00">cmath</text>
</g>
<!-- Node2&#45;&gt;Node45 -->
<g id="edge44" class="edge"><title>Node2&#45;&gt;Node45</title>
<path fill="none" stroke="midnightblue" d="M3042.2,-150.388C3065.28,-142.17 3096.42,-129.574 3121.5,-114 3143.98,-100.038 3141.84,-84.6004 3166.5,-75 3298.05,-23.7917 4299.77,-74.133 4436.5,-39 4439.77,-38.1606 4443.07,-36.9855 4446.29,-35.6302"/>
<polygon fill="midnightblue" stroke="midnightblue" points="4448.05,-38.6675 4455.55,-31.179 4445.02,-32.3592 4448.05,-38.6675"/>
</g>
<!-- Node46 -->
<g id="node46" class="node"><title>Node46</title>
<polygon fill="white" stroke="#bfbfbf" points="4518,-8 4518,-31 4587,-31 4587,-8 4518,-8"/>
<text text-anchor="middle" x="4552.5" y="-15.8" font-family="Helvetica,sans-Serif" font-size="14.00">iostream</text>
</g>
<!-- Node2&#45;&gt;Node46 -->
<g id="edge45" class="edge"><title>Node2&#45;&gt;Node46</title>
<path fill="none" stroke="midnightblue" d="M3059.82,-150.435C3089.69,-142.895 3127.63,-131.041 3158.5,-114 3181.97,-101.047 3179.47,-84.5778 3204.5,-75 3339.87,-23.2061 4366.83,-69.6129 4508.5,-39 4513,-38.0287 4517.61,-36.609 4522.08,-34.981"/>
<polygon fill="midnightblue" stroke="midnightblue" points="4523.56,-38.157 4531.53,-31.1775 4520.95,-31.6628 4523.56,-38.157"/>
</g>
<!-- Node47 -->
<g id="node47" class="node"><title>Node47</title>
<polygon fill="white" stroke="#bfbfbf" points="4605.5,-8 4605.5,-31 4649.5,-31 4649.5,-8 4605.5,-8"/>
<text text-anchor="middle" x="4627.5" y="-15.8" font-family="Helvetica,sans-Serif" font-size="14.00">map</text>
</g>
<!-- Node2&#45;&gt;Node47 -->
<g id="edge46" class="edge"><title>Node2&#45;&gt;Node47</title>
<path fill="none" stroke="midnightblue" d="M3081.93,-150.45C3117.49,-143.371 3160.16,-131.953 3195.5,-114 3219.7,-101.705 3217.09,-84.5522 3242.5,-75 3383.37,-22.0383 4451.96,-80.9253 4596.5,-39 4599.12,-38.2405 4601.74,-37.205 4604.29,-36.0091"/>
<polygon fill="midnightblue" stroke="midnightblue" points="4606,-39.0646 4613.08,-31.1823 4602.63,-32.9293 4606,-39.0646"/>
</g>
<!-- Node48 -->
<g id="node48" class="node"><title>Node48</title>
<polygon fill="white" stroke="#bfbfbf" points="4668,-8 4668,-31 4735,-31 4735,-8 4668,-8"/>
<text text-anchor="middle" x="4701.5" y="-15.8" font-family="Helvetica,sans-Serif" font-size="14.00">memory</text>
</g>
<!-- Node2&#45;&gt;Node48 -->
<g id="edge47" class="edge"><title>Node2&#45;&gt;Node48</title>
<path fill="none" stroke="midnightblue" d="M3091.62,-153.445C3135.4,-147.069 3189.22,-135.377 3233.5,-114 3257.94,-102.2 3255.09,-84.5463 3280.5,-75 3423.88,-21.1333 4508.9,-71.8575 4658.5,-39 4662.79,-38.0585 4667.18,-36.6911 4671.44,-35.1193"/>
<polygon fill="midnightblue" stroke="midnightblue" points="4673.11,-38.2169 4681.04,-31.1851 4670.46,-31.74 4673.11,-38.2169"/>
</g>
<!-- Node49 -->
<g id="node49" class="node"><title>Node49</title>
<polygon fill="white" stroke="#bfbfbf" points="4753,-8 4753,-31 4806,-31 4806,-8 4753,-8"/>
<text text-anchor="middle" x="4779.5" y="-15.8" font-family="Helvetica,sans-Serif" font-size="14.00">vector</text>
</g>
<!-- Node2&#45;&gt;Node49 -->
<g id="edge48" class="edge"><title>Node2&#45;&gt;Node49</title>
<path fill="none" stroke="midnightblue" d="M3091.76,-158.15C3145.36,-153.493 3215.47,-141.964 3271.5,-114 3294.29,-102.624 3289.91,-84.6084 3313.5,-75 3460.8,-15.0071 4590.62,-79.227 4744.5,-39 4747.69,-38.1656 4750.92,-36.9937 4754.05,-35.6402"/>
<polygon fill="midnightblue" stroke="midnightblue" points="4755.64,-38.759 4763.05,-31.1909 4752.54,-32.4834 4755.64,-38.759"/>
</g>
<!-- Node50 -->
<g id="node50" class="node"><title>Node50</title>
<g id="a_node50"><a xlink:href="ned__rt__basis_8h.html" target="_top" xlink:title="Ned_RT/ned_rt_basis.h">
<polygon fill="white" stroke="red" points="2538,-83 2538,-106 2697,-106 2697,-83 2538,-83"/>
<text text-anchor="middle" x="2617.5" y="-90.8" font-family="Helvetica,sans-Serif" font-size="14.00">Ned_RT/ned_rt_basis.h</text>
</a>
</g>
</g>
<!-- Node2&#45;&gt;Node50 -->
<g id="edge49" class="edge"><title>Node2&#45;&gt;Node50</title>
<path fill="none" stroke="midnightblue" d="M2937.17,-150.467C2876.52,-141.436 2787.71,-127.743 2710.5,-114 2700.18,-112.164 2689.25,-110.097 2678.64,-108.027"/>
<polygon fill="midnightblue" stroke="midnightblue" points="2679.08,-104.548 2668.6,-106.05 2677.73,-111.416 2679.08,-104.548"/>
</g>
<!-- Node50&#45;&gt;Node3 -->
<g id="edge50" class="edge"><title>Node50&#45;&gt;Node3</title>
<path fill="none" stroke="midnightblue" d="M2537.99,-93.7619C2173.57,-94.6535 659.996,-94.9198 165.275,-39.0674"/>
<polygon fill="midnightblue" stroke="midnightblue" points="165.54,-35.5748 155.205,-37.9061 164.738,-42.5288 165.54,-35.5748"/>
</g>
<!-- Node50&#45;&gt;Node6 -->
<g id="edge51" class="edge"><title>Node50&#45;&gt;Node6</title>
<path fill="none" stroke="midnightblue" d="M2537.76,-93.501C2187.31,-93.2115 781.852,-88.8997 343.5,-39 331.489,-37.6328 318.703,-35.4538 306.652,-33.0636"/>
<polygon fill="midnightblue" stroke="midnightblue" points="307.237,-29.6107 296.736,-31.0193 305.824,-36.4665 307.237,-29.6107"/>
</g>
<!-- Node50&#45;&gt;Node7 -->
<g id="edge52" class="edge"><title>Node50&#45;&gt;Node7</title>
<path fill="none" stroke="midnightblue" d="M2537.92,-93.9043C2201.3,-95.2388 893.142,-96.5398 485.5,-39 476.611,-37.7453 467.235,-35.7793 458.314,-33.5888"/>
<polygon fill="midnightblue" stroke="midnightblue" points="459.044,-30.1623 448.486,-31.0461 457.29,-36.9392 459.044,-30.1623"/>
</g>
<!-- Node50&#45;&gt;Node9 -->
<g id="edge54" class="edge"><title>Node50&#45;&gt;Node9</title>
<path fill="none" stroke="midnightblue" d="M2537.86,-93.3881C2217.53,-92.6145 1022.46,-86.5352 647.5,-39 636.981,-37.6665 625.824,-35.5734 615.264,-33.267"/>
<polygon fill="midnightblue" stroke="midnightblue" points="615.889,-29.8199 605.361,-31.0082 614.333,-36.6446 615.889,-29.8199"/>
</g>
<!-- Node50&#45;&gt;Node11 -->
<g id="edge68" class="edge"><title>Node50&#45;&gt;Node11</title>
<path fill="none" stroke="midnightblue" d="M2537.91,-92.9538C2239.04,-90.6147 1182.96,-79.6819 824.682,-38.9874"/>
<polygon fill="midnightblue" stroke="midnightblue" points="824.883,-35.4871 814.545,-37.8056 824.072,-42.4401 824.883,-35.4871"/>
</g>
<!-- Node50&#45;&gt;Node12 -->
<g id="edge69" class="edge"><title>Node50&#45;&gt;Node12</title>
<path fill="none" stroke="midnightblue" d="M2537.77,-92.539C2256.15,-88.8731 1308.9,-74.1629 1007.5,-39 995.363,-37.5841 982.442,-35.4099 970.236,-33.0434"/>
<polygon fill="midnightblue" stroke="midnightblue" points="970.679,-29.5625 960.186,-31.0226 969.3,-36.4251 970.679,-29.5625"/>
</g>
<!-- Node50&#45;&gt;Node14 -->
<g id="edge70" class="edge"><title>Node50&#45;&gt;Node14</title>
<path fill="none" stroke="midnightblue" d="M2537.69,-92.3346C2275.74,-88.2183 1443.84,-72.7561 1177.5,-39 1166.49,-37.6043 1154.79,-35.4851 1143.71,-33.1728"/>
<polygon fill="midnightblue" stroke="midnightblue" points="1144.26,-29.711 1133.75,-31.0102 1142.78,-36.5518 1144.26,-29.711"/>
</g>
<!-- Node50&#45;&gt;Node18 -->
<g id="edge72" class="edge"><title>Node50&#45;&gt;Node18</title>
<path fill="none" stroke="midnightblue" d="M2537.72,-91.9318C2296.32,-86.8947 1576.02,-69.6422 1343.5,-39 1332.96,-37.6113 1321.79,-35.5407 1311.17,-33.2814"/>
<polygon fill="midnightblue" stroke="midnightblue" points="1311.71,-29.8177 1301.19,-31.0736 1310.2,-36.6522 1311.71,-29.8177"/>
</g>
<!-- Node50&#45;&gt;Node23 -->
<g id="edge53" class="edge"><title>Node50&#45;&gt;Node23</title>
<path fill="none" stroke="midnightblue" d="M2537.78,-91.6396C2316.1,-86.1468 1695.39,-68.511 1493.5,-39 1484.24,-37.6467 1474.46,-35.6571 1465.13,-33.4785"/>
<polygon fill="midnightblue" stroke="midnightblue" points="1465.77,-30.0319 1455.22,-31.0614 1464.11,-36.8324 1465.77,-30.0319"/>
</g>
<!-- Node50&#45;&gt;Node25 -->
<g id="edge55" class="edge"><title>Node50&#45;&gt;Node25</title>
<path fill="none" stroke="midnightblue" d="M2537.96,-92.3096C2377,-89.1355 2001.35,-77.843 1688.5,-39 1676.02,-37.4499 1662.72,-35.2683 1650.1,-32.9447"/>
<polygon fill="midnightblue" stroke="midnightblue" points="1650.63,-29.4831 1640.15,-31.0601 1649.33,-36.3607 1650.63,-29.4831"/>
</g>
<!-- Node50&#45;&gt;Node26 -->
<g id="edge56" class="edge"><title>Node50&#45;&gt;Node26</title>
<path fill="none" stroke="midnightblue" d="M2537.94,-90.8053C2401.9,-85.4929 2116.04,-71.2602 1876.5,-39 1864.65,-37.4044 1852.05,-35.2465 1840.05,-32.9677"/>
<polygon fill="midnightblue" stroke="midnightblue" points="1840.62,-29.5139 1830.13,-31.0349 1839.28,-36.3844 1840.62,-29.5139"/>
</g>
<!-- Node50&#45;&gt;Node27 -->
<g id="edge57" class="edge"><title>Node50&#45;&gt;Node27</title>
<path fill="none" stroke="midnightblue" d="M2537.56,-86.7795C2434.81,-77.7715 2250.97,-60.4091 2094.5,-39 2081.24,-37.1858 2067.12,-34.9874 2053.59,-32.7487"/>
<polygon fill="midnightblue" stroke="midnightblue" points="2053.82,-29.2389 2043.38,-31.0346 2052.66,-36.1422 2053.82,-29.2389"/>
</g>
<!-- Node50&#45;&gt;Node28 -->
<g id="edge58" class="edge"><title>Node50&#45;&gt;Node28</title>
<path fill="none" stroke="midnightblue" d="M2540.49,-82.9937C2468.83,-72.889 2359.15,-56.5899 2264.5,-39 2255.13,-37.2592 2245.22,-35.2529 2235.6,-33.2177"/>
<polygon fill="midnightblue" stroke="midnightblue" points="2236.23,-29.7728 2225.72,-31.0963 2234.76,-36.617 2236.23,-29.7728"/>
</g>
<!-- Node50&#45;&gt;Node29 -->
<g id="edge59" class="edge"><title>Node50&#45;&gt;Node29</title>
<path fill="none" stroke="midnightblue" d="M2577.23,-82.9631C2527.36,-69.9162 2442.43,-47.693 2388.46,-33.572"/>
<polygon fill="midnightblue" stroke="midnightblue" points="2389.32,-30.179 2378.76,-31.0337 2387.55,-36.951 2389.32,-30.179"/>
</g>
<!-- Node50&#45;&gt;Node30 -->
<g id="edge60" class="edge"><title>Node50&#45;&gt;Node30</title>
<path fill="none" stroke="midnightblue" d="M2598.02,-82.8852C2575.39,-70.5587 2537.87,-50.1173 2511.97,-36.0112"/>
<polygon fill="midnightblue" stroke="midnightblue" points="2513.46,-32.8381 2503.01,-31.1276 2510.12,-38.9851 2513.46,-32.8381"/>
</g>
<!-- Node50&#45;&gt;Node31 -->
<g id="edge61" class="edge"><title>Node50&#45;&gt;Node31</title>
<path fill="none" stroke="midnightblue" d="M2618.83,-82.7286C2620.16,-71.9459 2622.24,-55.0681 2623.9,-41.6087"/>
<polygon fill="midnightblue" stroke="midnightblue" points="2627.42,-41.6687 2625.17,-31.3156 2620.47,-40.8122 2627.42,-41.6687"/>
</g>
<!-- Node50&#45;&gt;Node32 -->
<g id="edge62" class="edge"><title>Node50&#45;&gt;Node32</title>
<path fill="none" stroke="midnightblue" d="M2641.35,-82.8852C2669.61,-70.3066 2716.85,-49.2778 2748.58,-35.1538"/>
<polygon fill="midnightblue" stroke="midnightblue" points="2750.18,-38.2734 2757.89,-31.0092 2747.33,-31.8783 2750.18,-38.2734"/>
</g>
<!-- Node50&#45;&gt;Node33 -->
<g id="edge63" class="edge"><title>Node50&#45;&gt;Node33</title>
<path fill="none" stroke="midnightblue" d="M2667.27,-82.9441C2717.22,-72.2497 2796.32,-55.0412 2864.5,-39 2864.6,-38.9763 2864.7,-38.9526 2864.8,-38.9288"/>
<polygon fill="midnightblue" stroke="midnightblue" points="2865.44,-42.3761 2874.35,-36.6531 2863.81,-35.5669 2865.44,-42.3761"/>
</g>
<!-- Node50&#45;&gt;Node34 -->
<g id="edge64" class="edge"><title>Node50&#45;&gt;Node34</title>
<path fill="none" stroke="midnightblue" d="M2697.05,-84.4966C2776.85,-74.9955 2903.13,-58.6832 3011.5,-39 3020.67,-37.3337 3030.38,-35.3468 3039.77,-33.3032"/>
<polygon fill="midnightblue" stroke="midnightblue" points="3040.8,-36.6595 3049.81,-31.0758 3039.29,-29.8258 3040.8,-36.6595"/>
</g>
<!-- Node50&#45;&gt;Node36 -->
<g id="edge65" class="edge"><title>Node50&#45;&gt;Node36</title>
<path fill="none" stroke="midnightblue" d="M2697.22,-87.8704C2805.74,-79.7161 3005.87,-62.9302 3175.5,-39 3187.78,-37.268 3200.84,-35.0941 3213.34,-32.851"/>
<polygon fill="midnightblue" stroke="midnightblue" points="3214.01,-36.2867 3223.22,-31.0445 3212.75,-29.401 3214.01,-36.2867"/>
</g>
<!-- Node50&#45;&gt;Node37 -->
<g id="edge66" class="edge"><title>Node50&#45;&gt;Node37</title>
<path fill="none" stroke="midnightblue" d="M2697.31,-88.2919C2878.36,-76.401 3309.64,-47.6183 3375.5,-39 3387.84,-37.3852 3400.98,-35.1986 3413.48,-32.8944"/>
<polygon fill="midnightblue" stroke="midnightblue" points="3414.16,-36.3278 3423.33,-31.0298 3412.86,-29.4498 3414.16,-36.3278"/>
</g>
<!-- Node50&#45;&gt;Node38 -->
<g id="edge67" class="edge"><title>Node50&#45;&gt;Node38</title>
<path fill="none" stroke="midnightblue" d="M2697.31,-88.8876C2762.26,-85.1371 2856.3,-79.7136 2938.5,-75 3218.94,-58.9189 3290.96,-75.3756 3569.5,-39 3581,-37.4982 3593.23,-35.3573 3604.84,-33.0614"/>
<polygon fill="midnightblue" stroke="midnightblue" points="3605.76,-36.4465 3614.85,-31.0161 3604.36,-29.5881 3605.76,-36.4465"/>
</g>
<!-- Node50&#45;&gt;Node39 -->
<g id="edge71" class="edge"><title>Node50&#45;&gt;Node39</title>
<path fill="none" stroke="midnightblue" d="M2697.34,-89.2708C2770.09,-85.4447 2880.51,-79.7058 2976.5,-75 3320.46,-58.1386 3408.8,-81.7995 3750.5,-39 3762.13,-37.5433 3774.5,-35.3988 3786.22,-33.0813"/>
<polygon fill="midnightblue" stroke="midnightblue" points="3787.23,-36.4476 3796.33,-31.0131 3785.83,-29.5898 3787.23,-36.4476"/>
</g>
<!-- Node50&#45;&gt;Node42 -->
<g id="edge73" class="edge"><title>Node50&#45;&gt;Node42</title>
<path fill="none" stroke="midnightblue" d="M2697.33,-89.6077C2777.5,-85.7399 2904.55,-79.72 3014.5,-75 3418.61,-57.6521 3525.48,-92.5979 3929.45,-39.1451"/>
<polygon fill="midnightblue" stroke="midnightblue" points="3930.21,-42.5752 3939.66,-37.7842 3929.28,-35.6366 3930.21,-42.5752"/>
</g>
<!-- Node50&#45;&gt;Node43 -->
<g id="edge74" class="edge"><title>Node50&#45;&gt;Node43</title>
<path fill="none" stroke="midnightblue" d="M2697.27,-89.9184C2784.5,-86.0456 2928.44,-79.7853 3052.5,-75 3511.27,-57.3046 3631.75,-95.2926 4091.03,-39.0525"/>
<polygon fill="midnightblue" stroke="midnightblue" points="4091.76,-42.4897 4101.26,-37.7922 4090.9,-35.5423 4091.76,-42.4897"/>
</g>
<!-- Node50&#45;&gt;Node44 -->
<g id="edge75" class="edge"><title>Node50&#45;&gt;Node44</title>
<path fill="none" stroke="midnightblue" d="M2697.42,-90.1685C2791.46,-86.296 2952.31,-79.821 3090.5,-75 3608.89,-56.9145 3744.59,-101.578 4263.73,-38.9502"/>
<polygon fill="midnightblue" stroke="midnightblue" points="4264.22,-42.4164 4273.72,-37.7368 4263.37,-35.4675 4264.22,-42.4164"/>
</g>
<!-- Node50&#45;&gt;Node45 -->
<g id="edge76" class="edge"><title>Node50&#45;&gt;Node45</title>
<path fill="none" stroke="midnightblue" d="M2697.15,-90.4023C2797.67,-86.5423 2975.89,-79.8626 3128.5,-75 3273.81,-70.3699 4295.67,-75.1255 4436.5,-39 4439.77,-38.1619 4443.07,-36.9877 4446.29,-35.6329"/>
<polygon fill="midnightblue" stroke="midnightblue" points="4448.05,-38.6703 4455.55,-31.1822 4445.02,-32.3618 4448.05,-38.6703"/>
</g>
<!-- Node50&#45;&gt;Node46 -->
<g id="edge77" class="edge"><title>Node50&#45;&gt;Node46</title>
<path fill="none" stroke="midnightblue" d="M2697.05,-90.6481C2803.83,-86.8589 2999.45,-80.0553 3166.5,-75 3315.6,-70.4881 4362.69,-70.4474 4508.5,-39 4513,-38.0304 4517.61,-36.6117 4522.08,-34.9842"/>
<polygon fill="midnightblue" stroke="midnightblue" points="4523.56,-38.1603 4531.53,-31.1811 4520.95,-31.666 4523.56,-38.1603"/>
</g>
<!-- Node50&#45;&gt;Node47 -->
<g id="edge78" class="edge"><title>Node50&#45;&gt;Node47</title>
<path fill="none" stroke="midnightblue" d="M2697.25,-90.8437C2810.16,-87.1155 3023.09,-80.2046 3204.5,-75 3359.15,-70.5631 4447.89,-82.0472 4596.5,-39 4599.12,-38.2415 4601.74,-37.2065 4604.29,-36.0111"/>
<polygon fill="midnightblue" stroke="midnightblue" points="4606,-39.0667 4613.08,-31.1847 4602.63,-32.9313 4606,-39.0667"/>
</g>
<!-- Node50&#45;&gt;Node48 -->
<g id="edge79" class="edge"><title>Node50&#45;&gt;Node48</title>
<path fill="none" stroke="midnightblue" d="M2697.41,-91.0279C2816.26,-87.3755 3046.63,-80.3886 3242.5,-75 3399.82,-70.6717 4504.77,-72.7092 4658.5,-39 4662.79,-38.0601 4667.18,-36.6935 4671.44,-35.1221"/>
<polygon fill="midnightblue" stroke="midnightblue" points="4673.11,-38.2197 4681.04,-31.1883 4670.46,-31.7428 4673.11,-38.2197"/>
</g>
<!-- Node50&#45;&gt;Node49 -->
<g id="edge80" class="edge"><title>Node50&#45;&gt;Node49</title>
<path fill="none" stroke="midnightblue" d="M2697.1,-91.1937C2821.57,-87.6067 3069.85,-80.5289 3280.5,-75 3443.16,-70.7307 4587.06,-80.1095 4744.5,-39 4747.69,-38.1665 4750.92,-36.9952 4754.05,-35.642"/>
<polygon fill="midnightblue" stroke="midnightblue" points="4755.64,-38.7608 4763.06,-31.193 4752.54,-32.4852 4755.64,-38.7608"/>
</g>
</g>
</svg>
