<?xml version="1.0" encoding="UTF-8" standalone="no"?>
<!DOCTYPE svg PUBLIC "-//W3C//DTD SVG 1.1//EN"
 "http://www.w3.org/Graphics/SVG/1.1/DTD/svg11.dtd">
<!-- Generated by graphviz version 2.38.0 (20140413.2041)
 -->
<!-- Title: /home/travis/build/konsim83/MPI&#45;MSFEC/include/Ned_RT/ned_rt_parameters.h Pages: 1 -->
<svg width="678pt" height="392pt"
 viewBox="0.00 0.00 678.00 392.00" xmlns="http://www.w3.org/2000/svg" xmlns:xlink="http://www.w3.org/1999/xlink">
<g id="graph0" class="graph" transform="scale(1 1) rotate(0) translate(4 388)">
<title>/home/travis/build/konsim83/MPI&#45;MSFEC/include/Ned_RT/ned_rt_parameters.h</title>
<polygon fill="white" stroke="none" points="-4,4 -4,-388 674,-388 674,4 -4,4"/>
<!-- Node1 -->
<g id="node1" class="node"><title>Node1</title>
<polygon fill="#bfbfbf" stroke="black" points="232,-315.5 232,-383.5 392,-383.5 392,-315.5 232,-315.5"/>
<text text-anchor="start" x="240" y="-368.3" font-family="Helvetica,sans-Serif" font-size="14.00">/home/travis/build</text>
<text text-anchor="start" x="240" y="-353.3" font-family="Helvetica,sans-Serif" font-size="14.00">/konsim83/MPI&#45;MSFEC</text>
<text text-anchor="start" x="240" y="-338.3" font-family="Helvetica,sans-Serif" font-size="14.00">/include/Ned_RT/ned_rt</text>
<text text-anchor="middle" x="312" y="-323.3" font-family="Helvetica,sans-Serif" font-size="14.00">_parameters.h</text>
</g>
<!-- Node2 -->
<g id="node2" class="node"><title>Node2</title>
<g id="a_node2"><a xlink:href="ned__rt__parameters_8cc.html" target="_top" xlink:title="/home/travis/build\l/konsim83/MPI&#45;MSFEC\l/source/Ned_RT/ned_rt\l_parameters.cc">
<polygon fill="white" stroke="black" points="0,-210.5 0,-278.5 160,-278.5 160,-210.5 0,-210.5"/>
<text text-anchor="start" x="8" y="-263.3" font-family="Helvetica,sans-Serif" font-size="14.00">/home/travis/build</text>
<text text-anchor="start" x="8" y="-248.3" font-family="Helvetica,sans-Serif" font-size="14.00">/konsim83/MPI&#45;MSFEC</text>
<text text-anchor="start" x="8" y="-233.3" font-family="Helvetica,sans-Serif" font-size="14.00">/source/Ned_RT/ned_rt</text>
<text text-anchor="middle" x="80" y="-218.3" font-family="Helvetica,sans-Serif" font-size="14.00">_parameters.cc</text>
</a>
</g>
</g>
<!-- Node1&#45;&gt;Node2 -->
<g id="edge1" class="edge"><title>Node1&#45;&gt;Node2</title>
<path fill="none" stroke="midnightblue" d="M228.463,-311.412C204.239,-300.658 177.961,-288.991 154.34,-278.505"/>
<polygon fill="midnightblue" stroke="midnightblue" points="227.076,-314.626 237.636,-315.485 229.917,-308.228 227.076,-314.626"/>
</g>
<!-- Node3 -->
<g id="node3" class="node"><title>Node3</title>
<g id="a_node3"><a xlink:href="ned__rt__basis_8h.html" target="_top" xlink:title="/home/travis/build\l/konsim83/MPI&#45;MSFEC\l/include/Ned_RT/ned_rt\l_basis.h">
<polygon fill="white" stroke="black" points="178,-210.5 178,-278.5 338,-278.5 338,-210.5 178,-210.5"/>
<text text-anchor="start" x="186" y="-263.3" font-family="Helvetica,sans-Serif" font-size="14.00">/home/travis/build</text>
<text text-anchor="start" x="186" y="-248.3" font-family="Helvetica,sans-Serif" font-size="14.00">/konsim83/MPI&#45;MSFEC</text>
<text text-anchor="start" x="186" y="-233.3" font-family="Helvetica,sans-Serif" font-size="14.00">/include/Ned_RT/ned_rt</text>
<text text-anchor="middle" x="258" y="-218.3" font-family="Helvetica,sans-Serif" font-size="14.00">_basis.h</text>
</a>
</g>
</g>
<!-- Node1&#45;&gt;Node3 -->
<g id="edge2" class="edge"><title>Node1&#45;&gt;Node3</title>
<path fill="none" stroke="midnightblue" d="M289.872,-306.293C285.031,-297.058 279.973,-287.412 275.351,-278.595"/>
<polygon fill="midnightblue" stroke="midnightblue" points="286.874,-308.112 294.617,-315.343 293.073,-304.861 286.874,-308.112"/>
</g>
<!-- Node5 -->
<g id="node5" class="node"><title>Node5</title>
<g id="a_node5"><a xlink:href="ned__rt__global_8h.html" target="_top" xlink:title="/home/travis/build\l/konsim83/MPI&#45;MSFEC\l/include/Ned_RT/ned_rt\l_global.h">
<polygon fill="white" stroke="black" points="286,-105.5 286,-173.5 446,-173.5 446,-105.5 286,-105.5"/>
<text text-anchor="start" x="294" y="-158.3" font-family="Helvetica,sans-Serif" font-size="14.00">/home/travis/build</text>
<text text-anchor="start" x="294" y="-143.3" font-family="Helvetica,sans-Serif" font-size="14.00">/konsim83/MPI&#45;MSFEC</text>
<text text-anchor="start" x="294" y="-128.3" font-family="Helvetica,sans-Serif" font-size="14.00">/include/Ned_RT/ned_rt</text>
<text text-anchor="middle" x="366" y="-113.3" font-family="Helvetica,sans-Serif" font-size="14.00">_global.h</text>
</a>
</g>
</g>
<!-- Node1&#45;&gt;Node5 -->
<g id="edge7" class="edge"><title>Node1&#45;&gt;Node5</title>
<path fill="none" stroke="midnightblue" d="M336.176,-305.961C340.329,-297.256 344.202,-288 347,-279 357.88,-244.004 362.536,-202.106 364.524,-173.624"/>
<polygon fill="midnightblue" stroke="midnightblue" points="332.924,-304.64 331.597,-315.151 339.189,-307.762 332.924,-304.64"/>
</g>
<!-- Node8 -->
<g id="node8" class="node"><title>Node8</title>
<g id="a_node8"><a xlink:href="ned__rt__ref_8h.html" target="_top" xlink:title="/home/travis/build\l/konsim83/MPI&#45;MSFEC\l/include/Ned_RT/ned_rt_ref.h">
<polygon fill="white" stroke="black" points="394,-218 394,-271 588,-271 588,-218 394,-218"/>
<text text-anchor="start" x="402" y="-255.8" font-family="Helvetica,sans-Serif" font-size="14.00">/home/travis/build</text>
<text text-anchor="start" x="402" y="-240.8" font-family="Helvetica,sans-Serif" font-size="14.00">/konsim83/MPI&#45;MSFEC</text>
<text text-anchor="middle" x="491" y="-225.8" font-family="Helvetica,sans-Serif" font-size="14.00">/include/Ned_RT/ned_rt_ref.h</text>
</a>
</g>
</g>
<!-- Node1&#45;&gt;Node8 -->
<g id="edge8" class="edge"><title>Node1&#45;&gt;Node8</title>
<path fill="none" stroke="midnightblue" d="M378.531,-310.217C401.219,-297.162 426.019,-282.891 446.544,-271.081"/>
<polygon fill="midnightblue" stroke="midnightblue" points="376.544,-307.322 369.622,-315.343 380.035,-313.389 376.544,-307.322"/>
</g>
<!-- Node4 -->
<g id="node4" class="node"><title>Node4</title>
<g id="a_node4"><a xlink:href="ned__rt__basis_8cc.html" target="_top" xlink:title="/home/travis/build\l/konsim83/MPI&#45;MSFEC\l/source/Ned_RT/ned_rt\l_basis.cc">
<polygon fill="white" stroke="black" points="108,-105.5 108,-173.5 268,-173.5 268,-105.5 108,-105.5"/>
<text text-anchor="start" x="116" y="-158.3" font-family="Helvetica,sans-Serif" font-size="14.00">/home/travis/build</text>
<text text-anchor="start" x="116" y="-143.3" font-family="Helvetica,sans-Serif" font-size="14.00">/konsim83/MPI&#45;MSFEC</text>
<text text-anchor="start" x="116" y="-128.3" font-family="Helvetica,sans-Serif" font-size="14.00">/source/Ned_RT/ned_rt</text>
<text text-anchor="middle" x="188" y="-113.3" font-family="Helvetica,sans-Serif" font-size="14.00">_basis.cc</text>
</a>
</g>
</g>
<!-- Node3&#45;&gt;Node4 -->
<g id="edge3" class="edge"><title>Node3&#45;&gt;Node4</title>
<path fill="none" stroke="midnightblue" d="M229.707,-201.869C223.313,-192.461 216.609,-182.596 210.492,-173.595"/>
<polygon fill="midnightblue" stroke="midnightblue" points="226.951,-204.04 235.466,-210.343 232.74,-200.105 226.951,-204.04"/>
</g>
<!-- Node3&#45;&gt;Node5 -->
<g id="edge4" class="edge"><title>Node3&#45;&gt;Node5</title>
<path fill="none" stroke="midnightblue" d="M300.146,-203.305C310.459,-193.47 321.379,-183.055 331.299,-173.595"/>
<polygon fill="midnightblue" stroke="midnightblue" points="297.587,-200.909 292.766,-210.343 302.419,-205.974 297.587,-200.909"/>
</g>
<!-- Node6 -->
<g id="node6" class="node"><title>Node6</title>
<g id="a_node6"><a xlink:href="main__ned__rt_8cxx.html" target="_top" xlink:title="/home/travis/build\l/konsim83/MPI&#45;MSFEC\l/source/main_ned_rt.cxx">
<polygon fill="white" stroke="black" points="400,-8 400,-61 564,-61 564,-8 400,-8"/>
<text text-anchor="start" x="408" y="-45.8" font-family="Helvetica,sans-Serif" font-size="14.00">/home/travis/build</text>
<text text-anchor="start" x="408" y="-30.8" font-family="Helvetica,sans-Serif" font-size="14.00">/konsim83/MPI&#45;MSFEC</text>
<text text-anchor="middle" x="482" y="-15.8" font-family="Helvetica,sans-Serif" font-size="14.00">/source/main_ned_rt.cxx</text>
</a>
</g>
</g>
<!-- Node5&#45;&gt;Node6 -->
<g id="edge5" class="edge"><title>Node5&#45;&gt;Node6</title>
<path fill="none" stroke="midnightblue" d="M411.074,-98.4772C425.235,-85.9037 440.478,-72.3686 453.191,-61.0806"/>
<polygon fill="midnightblue" stroke="midnightblue" points="408.495,-96.0863 403.342,-105.343 413.143,-101.321 408.495,-96.0863"/>
</g>
<!-- Node7 -->
<g id="node7" class="node"><title>Node7</title>
<g id="a_node7"><a xlink:href="ned__rt__global_8cc.html" target="_top" xlink:title="/home/travis/build\l/konsim83/MPI&#45;MSFEC\l/source/Ned_RT/ned_rt\l_global.cc">
<polygon fill="white" stroke="black" points="222,-0.5 222,-68.5 382,-68.5 382,-0.5 222,-0.5"/>
<text text-anchor="start" x="230" y="-53.3" font-family="Helvetica,sans-Serif" font-size="14.00">/home/travis/build</text>
<text text-anchor="start" x="230" y="-38.3" font-family="Helvetica,sans-Serif" font-size="14.00">/konsim83/MPI&#45;MSFEC</text>
<text text-anchor="start" x="230" y="-23.3" font-family="Helvetica,sans-Serif" font-size="14.00">/source/Ned_RT/ned_rt</text>
<text text-anchor="middle" x="302" y="-8.3" font-family="Helvetica,sans-Serif" font-size="14.00">_global.cc</text>
</a>
</g>
</g>
<!-- Node5&#45;&gt;Node7 -->
<g id="edge6" class="edge"><title>Node5&#45;&gt;Node7</title>
<path fill="none" stroke="midnightblue" d="M339.953,-96.5809C334.161,-87.2595 328.1,-77.504 322.564,-68.5947"/>
<polygon fill="midnightblue" stroke="midnightblue" points="337.147,-98.6965 345.398,-105.343 343.093,-95.0021 337.147,-98.6965"/>
</g>
<!-- Node8&#45;&gt;Node6 -->
<g id="edge9" class="edge"><title>Node8&#45;&gt;Node6</title>
<path fill="none" stroke="midnightblue" d="M489.464,-207.998C487.659,-166.297 484.71,-98.1336 483.113,-61.2135"/>
<polygon fill="midnightblue" stroke="midnightblue" points="485.967,-208.156 489.896,-217.995 492.961,-207.853 485.967,-208.156"/>
</g>
<!-- Node9 -->
<g id="node9" class="node"><title>Node9</title>
<g id="a_node9"><a xlink:href="ned__rt__ref_8cc.html" target="_top" xlink:title="/home/travis/build\l/konsim83/MPI&#45;MSFEC\l/source/Ned_RT/ned_rt\l_ref.cc">
<polygon fill="white" stroke="black" points="510,-105.5 510,-173.5 670,-173.5 670,-105.5 510,-105.5"/>
<text text-anchor="start" x="518" y="-158.3" font-family="Helvetica,sans-Serif" font-size="14.00">/home/travis/build</text>
<text text-anchor="start" x="518" y="-143.3" font-family="Helvetica,sans-Serif" font-size="14.00">/konsim83/MPI&#45;MSFEC</text>
<text text-anchor="start" x="518" y="-128.3" font-family="Helvetica,sans-Serif" font-size="14.00">/source/Ned_RT/ned_rt</text>
<text text-anchor="middle" x="590" y="-113.3" font-family="Helvetica,sans-Serif" font-size="14.00">_ref.cc</text>
</a>
</g>
</g>
<!-- Node8&#45;&gt;Node9 -->
<g id="edge10" class="edge"><title>Node8&#45;&gt;Node9</title>
<path fill="none" stroke="midnightblue" d="M522.902,-210.309C534.173,-198.582 546.844,-185.4 558.114,-173.675"/>
<polygon fill="midnightblue" stroke="midnightblue" points="520.133,-208.139 515.727,-217.774 525.18,-212.99 520.133,-208.139"/>
</g>
</g>
</svg>
