<?xml version="1.0" encoding="UTF-8" standalone="no"?>
<!DOCTYPE svg PUBLIC "-//W3C//DTD SVG 1.1//EN"
 "http://www.w3.org/Graphics/SVG/1.1/DTD/svg11.dtd">
<!-- Generated by graphviz version 2.38.0 (20140413.2041)
 -->
<!-- Title: /home/travis/build/konsim83/MPI&#45;MSFEC/include/Ned_RT/ned_rt_basis.h Pages: 1 -->
<svg width="436pt" height="287pt"
 viewBox="0.00 0.00 436.00 287.00" xmlns="http://www.w3.org/2000/svg" xmlns:xlink="http://www.w3.org/1999/xlink">
<g id="graph0" class="graph" transform="scale(1 1) rotate(0) translate(4 283)">
<title>/home/travis/build/konsim83/MPI&#45;MSFEC/include/Ned_RT/ned_rt_basis.h</title>
<polygon fill="white" stroke="none" points="-4,4 -4,-283 432,-283 432,4 -4,4"/>
<!-- Node1 -->
<g id="node1" class="node"><title>Node1</title>
<polygon fill="#bfbfbf" stroke="black" points="89,-210.5 89,-278.5 249,-278.5 249,-210.5 89,-210.5"/>
<text text-anchor="start" x="97" y="-263.3" font-family="Helvetica,sans-Serif" font-size="14.00">/home/travis/build</text>
<text text-anchor="start" x="97" y="-248.3" font-family="Helvetica,sans-Serif" font-size="14.00">/konsim83/MPI&#45;MSFEC</text>
<text text-anchor="start" x="97" y="-233.3" font-family="Helvetica,sans-Serif" font-size="14.00">/include/Ned_RT/ned_rt</text>
<text text-anchor="middle" x="169" y="-218.3" font-family="Helvetica,sans-Serif" font-size="14.00">_basis.h</text>
</g>
<!-- Node2 -->
<g id="node2" class="node"><title>Node2</title>
<g id="a_node2"><a xlink:href="ned__rt__basis_8cc.html" target="_top" xlink:title="/home/travis/build\l/konsim83/MPI&#45;MSFEC\l/source/Ned_RT/ned_rt\l_basis.cc">
<polygon fill="white" stroke="black" points="0,-105.5 0,-173.5 160,-173.5 160,-105.5 0,-105.5"/>
<text text-anchor="start" x="8" y="-158.3" font-family="Helvetica,sans-Serif" font-size="14.00">/home/travis/build</text>
<text text-anchor="start" x="8" y="-143.3" font-family="Helvetica,sans-Serif" font-size="14.00">/konsim83/MPI&#45;MSFEC</text>
<text text-anchor="start" x="8" y="-128.3" font-family="Helvetica,sans-Serif" font-size="14.00">/source/Ned_RT/ned_rt</text>
<text text-anchor="middle" x="80" y="-113.3" font-family="Helvetica,sans-Serif" font-size="14.00">_basis.cc</text>
</a>
</g>
</g>
<!-- Node1&#45;&gt;Node2 -->
<g id="edge1" class="edge"><title>Node1&#45;&gt;Node2</title>
<path fill="none" stroke="midnightblue" d="M133.773,-202.732C125.421,-193.066 116.612,-182.871 108.596,-173.595"/>
<polygon fill="midnightblue" stroke="midnightblue" points="131.163,-205.065 140.35,-210.343 136.46,-200.488 131.163,-205.065"/>
</g>
<!-- Node3 -->
<g id="node3" class="node"><title>Node3</title>
<g id="a_node3"><a xlink:href="ned__rt__global_8h.html" target="_top" xlink:title="/home/travis/build\l/konsim83/MPI&#45;MSFEC\l/include/Ned_RT/ned_rt\l_global.h">
<polygon fill="white" stroke="black" points="178,-105.5 178,-173.5 338,-173.5 338,-105.5 178,-105.5"/>
<text text-anchor="start" x="186" y="-158.3" font-family="Helvetica,sans-Serif" font-size="14.00">/home/travis/build</text>
<text text-anchor="start" x="186" y="-143.3" font-family="Helvetica,sans-Serif" font-size="14.00">/konsim83/MPI&#45;MSFEC</text>
<text text-anchor="start" x="186" y="-128.3" font-family="Helvetica,sans-Serif" font-size="14.00">/include/Ned_RT/ned_rt</text>
<text text-anchor="middle" x="258" y="-113.3" font-family="Helvetica,sans-Serif" font-size="14.00">_global.h</text>
</a>
</g>
</g>
<!-- Node1&#45;&gt;Node3 -->
<g id="edge2" class="edge"><title>Node1&#45;&gt;Node3</title>
<path fill="none" stroke="midnightblue" d="M204.227,-202.732C212.579,-193.066 221.388,-182.871 229.404,-173.595"/>
<polygon fill="midnightblue" stroke="midnightblue" points="201.54,-200.488 197.65,-210.343 206.837,-205.065 201.54,-200.488"/>
</g>
<!-- Node4 -->
<g id="node4" class="node"><title>Node4</title>
<g id="a_node4"><a xlink:href="main__ned__rt_8cxx.html" target="_top" xlink:title="/home/travis/build\l/konsim83/MPI&#45;MSFEC\l/source/main_ned_rt.cxx">
<polygon fill="white" stroke="black" points="86,-8 86,-61 250,-61 250,-8 86,-8"/>
<text text-anchor="start" x="94" y="-45.8" font-family="Helvetica,sans-Serif" font-size="14.00">/home/travis/build</text>
<text text-anchor="start" x="94" y="-30.8" font-family="Helvetica,sans-Serif" font-size="14.00">/konsim83/MPI&#45;MSFEC</text>
<text text-anchor="middle" x="168" y="-15.8" font-family="Helvetica,sans-Serif" font-size="14.00">/source/main_ned_rt.cxx</text>
</a>
</g>
</g>
<!-- Node3&#45;&gt;Node4 -->
<g id="edge3" class="edge"><title>Node3&#45;&gt;Node4</title>
<path fill="none" stroke="midnightblue" d="M222.417,-97.7777C211.605,-85.4032 200.033,-72.1596 190.352,-61.0806"/>
<polygon fill="midnightblue" stroke="midnightblue" points="219.813,-100.116 229.028,-105.343 225.084,-95.5099 219.813,-100.116"/>
</g>
<!-- Node5 -->
<g id="node5" class="node"><title>Node5</title>
<g id="a_node5"><a xlink:href="ned__rt__global_8cc.html" target="_top" xlink:title="/home/travis/build\l/konsim83/MPI&#45;MSFEC\l/source/Ned_RT/ned_rt\l_global.cc">
<polygon fill="white" stroke="black" points="268,-0.5 268,-68.5 428,-68.5 428,-0.5 268,-0.5"/>
<text text-anchor="start" x="276" y="-53.3" font-family="Helvetica,sans-Serif" font-size="14.00">/home/travis/build</text>
<text text-anchor="start" x="276" y="-38.3" font-family="Helvetica,sans-Serif" font-size="14.00">/konsim83/MPI&#45;MSFEC</text>
<text text-anchor="start" x="276" y="-23.3" font-family="Helvetica,sans-Serif" font-size="14.00">/source/Ned_RT/ned_rt</text>
<text text-anchor="middle" x="348" y="-8.3" font-family="Helvetica,sans-Serif" font-size="14.00">_global.cc</text>
</a>
</g>
</g>
<!-- Node3&#45;&gt;Node5 -->
<g id="edge4" class="edge"><title>Node3&#45;&gt;Node5</title>
<path fill="none" stroke="midnightblue" d="M293.623,-97.7318C302.069,-88.0655 310.976,-77.8714 319.082,-68.5947"/>
<polygon fill="midnightblue" stroke="midnightblue" points="290.916,-95.5099 286.972,-105.343 296.187,-100.116 290.916,-95.5099"/>
</g>
</g>
</svg>
