<?xml version="1.0" encoding="UTF-8" standalone="no"?>
<!DOCTYPE svg PUBLIC "-//W3C//DTD SVG 1.1//EN"
 "http://www.w3.org/Graphics/SVG/1.1/DTD/svg11.dtd">
<!-- Generated by graphviz version 2.38.0 (20140413.2041)
 -->
<!-- Title: /home/travis/build/konsim83/MPI&#45;MSFEC/include/Ned_RT/ned_rt_parameters.h Pages: 1 -->
<svg width="551pt" height="152pt"
 viewBox="0.00 0.00 550.50 152.00" xmlns="http://www.w3.org/2000/svg" xmlns:xlink="http://www.w3.org/1999/xlink">
<g id="graph0" class="graph" transform="scale(1 1) rotate(0) translate(4 148)">
<title>/home/travis/build/konsim83/MPI&#45;MSFEC/include/Ned_RT/ned_rt_parameters.h</title>
<polygon fill="white" stroke="none" points="-4,4 -4,-148 546.5,-148 546.5,4 -4,4"/>
<!-- Node1 -->
<g id="node1" class="node"><title>Node1</title>
<polygon fill="#bfbfbf" stroke="black" points="273,-75.5 273,-143.5 433,-143.5 433,-75.5 273,-75.5"/>
<text text-anchor="start" x="281" y="-128.3" font-family="Helvetica,sans-Serif" font-size="14.00">/home/travis/build</text>
<text text-anchor="start" x="281" y="-113.3" font-family="Helvetica,sans-Serif" font-size="14.00">/konsim83/MPI&#45;MSFEC</text>
<text text-anchor="start" x="281" y="-98.3" font-family="Helvetica,sans-Serif" font-size="14.00">/include/Ned_RT/ned_rt</text>
<text text-anchor="middle" x="353" y="-83.3" font-family="Helvetica,sans-Serif" font-size="14.00">_parameters.h</text>
</g>
<!-- Node2 -->
<g id="node2" class="node"><title>Node2</title>
<polygon fill="white" stroke="#bfbfbf" points="0,-0.5 0,-38.5 152,-38.5 152,-0.5 0,-0.5"/>
<text text-anchor="start" x="8" y="-23.3" font-family="Helvetica,sans-Serif" font-size="14.00">deal.II/base/parameter</text>
<text text-anchor="middle" x="76" y="-8.3" font-family="Helvetica,sans-Serif" font-size="14.00">_handler.h</text>
</g>
<!-- Node1&#45;&gt;Node2 -->
<g id="edge1" class="edge"><title>Node1&#45;&gt;Node2</title>
<path fill="none" stroke="midnightblue" d="M272.88,-83.0468C231.636,-69.944 181.938,-54.1554 142.793,-41.7194"/>
<polygon fill="midnightblue" stroke="midnightblue" points="143.67,-38.3257 133.08,-38.6336 141.551,-44.9972 143.67,-38.3257"/>
</g>
<!-- Node3 -->
<g id="node3" class="node"><title>Node3</title>
<polygon fill="white" stroke="#bfbfbf" points="170.5,-8 170.5,-31 303.5,-31 303.5,-8 170.5,-8"/>
<text text-anchor="middle" x="237" y="-15.8" font-family="Helvetica,sans-Serif" font-size="14.00">deal.II/grid/cell_id.h</text>
</g>
<!-- Node1&#45;&gt;Node3 -->
<g id="edge2" class="edge"><title>Node1&#45;&gt;Node3</title>
<path fill="none" stroke="midnightblue" d="M309.476,-75.4817C292.333,-62.4768 273.388,-48.1046 259.168,-37.3168"/>
<polygon fill="midnightblue" stroke="midnightblue" points="261.065,-34.3628 250.982,-31.1073 256.834,-39.9397 261.065,-34.3628"/>
</g>
<!-- Node4 -->
<g id="node4" class="node"><title>Node4</title>
<polygon fill="white" stroke="#bfbfbf" points="322,-8 322,-31 384,-31 384,-8 322,-8"/>
<text text-anchor="middle" x="353" y="-15.8" font-family="Helvetica,sans-Serif" font-size="14.00">fstream</text>
</g>
<!-- Node1&#45;&gt;Node4 -->
<g id="edge3" class="edge"><title>Node1&#45;&gt;Node4</title>
<path fill="none" stroke="midnightblue" d="M353,-75.4817C353,-64.1426 353,-51.764 353,-41.6283"/>
<polygon fill="midnightblue" stroke="midnightblue" points="356.5,-41.3125 353,-31.3126 349.5,-41.3126 356.5,-41.3125"/>
</g>
<!-- Node5 -->
<g id="node5" class="node"><title>Node5</title>
<polygon fill="white" stroke="#bfbfbf" points="402.5,-8 402.5,-31 471.5,-31 471.5,-8 402.5,-8"/>
<text text-anchor="middle" x="437" y="-15.8" font-family="Helvetica,sans-Serif" font-size="14.00">iostream</text>
</g>
<!-- Node1&#45;&gt;Node5 -->
<g id="edge4" class="edge"><title>Node1&#45;&gt;Node5</title>
<path fill="none" stroke="midnightblue" d="M384.517,-75.4817C396.389,-63.0453 409.453,-49.3584 419.578,-38.7516"/>
<polygon fill="midnightblue" stroke="midnightblue" points="422.306,-40.9628 426.679,-31.3126 417.242,-36.1295 422.306,-40.9628"/>
</g>
<!-- Node6 -->
<g id="node6" class="node"><title>Node6</title>
<polygon fill="white" stroke="#bfbfbf" points="489.5,-8 489.5,-31 542.5,-31 542.5,-8 489.5,-8"/>
<text text-anchor="middle" x="516" y="-15.8" font-family="Helvetica,sans-Serif" font-size="14.00">vector</text>
</g>
<!-- Node1&#45;&gt;Node6 -->
<g id="edge5" class="edge"><title>Node1&#45;&gt;Node6</title>
<path fill="none" stroke="midnightblue" d="M414.159,-75.4817C439.27,-61.9247 467.134,-46.8818 487.359,-35.9626"/>
<polygon fill="midnightblue" stroke="midnightblue" points="489.216,-38.9379 496.352,-31.1073 485.89,-32.7782 489.216,-38.9379"/>
</g>
</g>
</svg>
