<?xml version="1.0" encoding="UTF-8" standalone="no"?>
<!DOCTYPE svg PUBLIC "-//W3C//DTD SVG 1.1//EN"
 "http://www.w3.org/Graphics/SVG/1.1/DTD/svg11.dtd">
<!-- Generated by graphviz version 2.38.0 (20140413.2041)
 -->
<!-- Title: /home/travis/build/konsim83/MPI&#45;MSFEC/source/Ned_RT/ned_rt_ref.cc Pages: 1 -->
<svg width="7383pt" height="212pt"
 viewBox="0.00 0.00 7383.00 212.00" xmlns="http://www.w3.org/2000/svg" xmlns:xlink="http://www.w3.org/1999/xlink">
<g id="graph0" class="graph" transform="scale(1 1) rotate(0) translate(4 208)">
<title>/home/travis/build/konsim83/MPI&#45;MSFEC/source/Ned_RT/ned_rt_ref.cc</title>
<polygon fill="white" stroke="none" points="-4,4 -4,-208 7379,-208 7379,4 -4,4"/>
<!-- Node1 -->
<g id="node1" class="node"><title>Node1</title>
<polygon fill="#bfbfbf" stroke="black" points="3744.5,-135.5 3744.5,-203.5 3904.5,-203.5 3904.5,-135.5 3744.5,-135.5"/>
<text text-anchor="start" x="3752.5" y="-188.3" font-family="Helvetica,sans-Serif" font-size="14.00">/home/travis/build</text>
<text text-anchor="start" x="3752.5" y="-173.3" font-family="Helvetica,sans-Serif" font-size="14.00">/konsim83/MPI&#45;MSFEC</text>
<text text-anchor="start" x="3752.5" y="-158.3" font-family="Helvetica,sans-Serif" font-size="14.00">/source/Ned_RT/ned_rt</text>
<text text-anchor="middle" x="3824.5" y="-143.3" font-family="Helvetica,sans-Serif" font-size="14.00">_ref.cc</text>
</g>
<!-- Node2 -->
<g id="node2" class="node"><title>Node2</title>
<g id="a_node2"><a xlink:href="ned__rt__ref_8h.html" target="_top" xlink:title="Ned_RT/ned_rt_ref.h">
<polygon fill="white" stroke="red" points="3753,-75.5 3753,-98.5 3896,-98.5 3896,-75.5 3753,-75.5"/>
<text text-anchor="middle" x="3824.5" y="-83.3" font-family="Helvetica,sans-Serif" font-size="14.00">Ned_RT/ned_rt_ref.h</text>
</a>
</g>
</g>
<!-- Node1&#45;&gt;Node2 -->
<g id="edge1" class="edge"><title>Node1&#45;&gt;Node2</title>
<path fill="none" stroke="midnightblue" d="M3824.5,-135.293C3824.5,-126.241 3824.5,-116.699 3824.5,-108.575"/>
<polygon fill="midnightblue" stroke="midnightblue" points="3828,-108.555 3824.5,-98.555 3821,-108.555 3828,-108.555"/>
</g>
<!-- Node3 -->
<g id="node3" class="node"><title>Node3</title>
<polygon fill="white" stroke="#bfbfbf" points="0,-0.5 0,-38.5 155,-38.5 155,-0.5 0,-0.5"/>
<text text-anchor="start" x="8" y="-23.3" font-family="Helvetica,sans-Serif" font-size="14.00">deal.II/base/conditional</text>
<text text-anchor="middle" x="77.5" y="-8.3" font-family="Helvetica,sans-Serif" font-size="14.00">_ostream.h</text>
</g>
<!-- Node2&#45;&gt;Node3 -->
<g id="edge2" class="edge"><title>Node2&#45;&gt;Node3</title>
<path fill="none" stroke="midnightblue" d="M3752.79,-85.9384C3276.69,-85.4167 578.787,-80.676 165.378,-39.0244"/>
<polygon fill="midnightblue" stroke="midnightblue" points="165.516,-35.5194 155.201,-37.9392 164.774,-42.4799 165.516,-35.5194"/>
</g>
<!-- Node4 -->
<g id="node4" class="node"><title>Node4</title>
<polygon fill="white" stroke="#bfbfbf" points="173,-8 173,-31 322,-31 322,-8 173,-8"/>
<text text-anchor="middle" x="247.5" y="-15.8" font-family="Helvetica,sans-Serif" font-size="14.00">deal.II/base/function.h</text>
</g>
<!-- Node2&#45;&gt;Node4 -->
<g id="edge3" class="edge"><title>Node2&#45;&gt;Node4</title>
<path fill="none" stroke="midnightblue" d="M3752.73,-85.9115C3285.31,-85.2193 682.247,-79.5559 331.5,-39 320.37,-37.7131 308.548,-35.5913 297.397,-33.2346"/>
<polygon fill="midnightblue" stroke="midnightblue" points="297.902,-29.762 287.383,-31.0215 296.392,-36.5971 297.902,-29.762"/>
</g>
<!-- Node5 -->
<g id="node5" class="node"><title>Node5</title>
<polygon fill="white" stroke="#bfbfbf" points="340.5,-0.5 340.5,-38.5 462.5,-38.5 462.5,-0.5 340.5,-0.5"/>
<text text-anchor="start" x="348.5" y="-23.3" font-family="Helvetica,sans-Serif" font-size="14.00">deal.II/base/index</text>
<text text-anchor="middle" x="401.5" y="-8.3" font-family="Helvetica,sans-Serif" font-size="14.00">_set.h</text>
</g>
<!-- Node2&#45;&gt;Node5 -->
<g id="edge4" class="edge"><title>Node2&#45;&gt;Node5</title>
<path fill="none" stroke="midnightblue" d="M3752.66,-86.0463C3300.27,-86.1996 852.592,-84.9443 472.907,-38.9084"/>
<polygon fill="midnightblue" stroke="midnightblue" points="473.154,-35.4113 462.788,-37.6033 472.258,-42.3538 473.154,-35.4113"/>
</g>
<!-- Node6 -->
<g id="node6" class="node"><title>Node6</title>
<polygon fill="white" stroke="#bfbfbf" points="481,-8 481,-31 642,-31 642,-8 481,-8"/>
<text text-anchor="middle" x="561.5" y="-15.8" font-family="Helvetica,sans-Serif" font-size="14.00">deal.II/base/logstream.h</text>
</g>
<!-- Node2&#45;&gt;Node6 -->
<g id="edge5" class="edge"><title>Node2&#45;&gt;Node6</title>
<path fill="none" stroke="midnightblue" d="M3752.66,-85.7461C3310.69,-84.0765 968.722,-73.6415 651.5,-39 639.359,-37.6742 626.43,-35.4867 614.271,-33.0715"/>
<polygon fill="midnightblue" stroke="midnightblue" points="614.774,-29.6015 604.272,-31.0031 613.355,-36.4563 614.774,-29.6015"/>
</g>
<!-- Node7 -->
<g id="node7" class="node"><title>Node7</title>
<polygon fill="white" stroke="#bfbfbf" points="660.5,-8 660.5,-31 784.5,-31 784.5,-8 660.5,-8"/>
<text text-anchor="middle" x="722.5" y="-15.8" font-family="Helvetica,sans-Serif" font-size="14.00">deal.II/base/mpi.h</text>
</g>
<!-- Node2&#45;&gt;Node7 -->
<g id="edge6" class="edge"><title>Node2&#45;&gt;Node7</title>
<path fill="none" stroke="midnightblue" d="M3752.74,-85.9159C3322.64,-85.2754 1094.82,-79.988 793.5,-39 784.513,-37.7775 775.033,-35.8039 766.029,-33.5915"/>
<polygon fill="midnightblue" stroke="midnightblue" points="766.675,-30.1435 756.117,-31.0196 764.917,-36.9191 766.675,-30.1435"/>
</g>
<!-- Node8 -->
<g id="node8" class="node"><title>Node8</title>
<polygon fill="white" stroke="#bfbfbf" points="802.5,-0.5 802.5,-38.5 954.5,-38.5 954.5,-0.5 802.5,-0.5"/>
<text text-anchor="start" x="810.5" y="-23.3" font-family="Helvetica,sans-Serif" font-size="14.00">deal.II/base/parameter</text>
<text text-anchor="middle" x="878.5" y="-8.3" font-family="Helvetica,sans-Serif" font-size="14.00">_handler.h</text>
</g>
<!-- Node2&#45;&gt;Node8 -->
<g id="edge7" class="edge"><title>Node2&#45;&gt;Node8</title>
<path fill="none" stroke="midnightblue" d="M3752.78,-85.6715C3341.77,-83.6766 1292.41,-72.1845 964.892,-38.9505"/>
<polygon fill="midnightblue" stroke="midnightblue" points="965.155,-35.4586 954.836,-37.8601 964.4,-42.4178 965.155,-35.4586"/>
</g>
<!-- Node9 -->
<g id="node9" class="node"><title>Node9</title>
<polygon fill="white" stroke="#bfbfbf" points="973,-8 973,-31 1116,-31 1116,-8 973,-8"/>
<text text-anchor="middle" x="1044.5" y="-15.8" font-family="Helvetica,sans-Serif" font-size="14.00">deal.II/base/utilities.h</text>
</g>
<!-- Node2&#45;&gt;Node9 -->
<g id="edge8" class="edge"><title>Node2&#45;&gt;Node9</title>
<path fill="none" stroke="midnightblue" d="M3752.93,-85.6519C3351.85,-83.5814 1391.62,-71.8411 1124.5,-39 1114.1,-37.7213 1103.08,-35.6516 1092.64,-33.3506"/>
<polygon fill="midnightblue" stroke="midnightblue" points="1093.4,-29.932 1082.86,-31.0919 1091.82,-36.7525 1093.4,-29.932"/>
</g>
<!-- Node10 -->
<g id="node10" class="node"><title>Node10</title>
<polygon fill="white" stroke="#bfbfbf" points="1134,-0.5 1134,-38.5 1245,-38.5 1245,-0.5 1134,-0.5"/>
<text text-anchor="start" x="1142" y="-23.3" font-family="Helvetica,sans-Serif" font-size="14.00">deal.II/lac/affine</text>
<text text-anchor="middle" x="1189.5" y="-8.3" font-family="Helvetica,sans-Serif" font-size="14.00">_constraints.h</text>
</g>
<!-- Node2&#45;&gt;Node10 -->
<g id="edge9" class="edge"><title>Node2&#45;&gt;Node10</title>
<path fill="none" stroke="midnightblue" d="M3752.85,-85.8141C3367.83,-84.6665 1551.26,-77.3239 1255.42,-38.9584"/>
<polygon fill="midnightblue" stroke="midnightblue" points="1255.54,-35.4415 1245.16,-37.5218 1254.57,-42.374 1255.54,-35.4415"/>
</g>
<!-- Node11 -->
<g id="node11" class="node"><title>Node11</title>
<polygon fill="white" stroke="#bfbfbf" points="1262.5,-0.5 1262.5,-38.5 1420.5,-38.5 1420.5,-0.5 1262.5,-0.5"/>
<text text-anchor="start" x="1270.5" y="-23.3" font-family="Helvetica,sans-Serif" font-size="14.00">deal.II/lac/block_sparse</text>
<text text-anchor="middle" x="1341.5" y="-8.3" font-family="Helvetica,sans-Serif" font-size="14.00">_matrix.h</text>
</g>
<!-- Node2&#45;&gt;Node11 -->
<g id="edge10" class="edge"><title>Node2&#45;&gt;Node11</title>
<path fill="none" stroke="midnightblue" d="M3752.96,-85.3964C3384.56,-82.1819 1708.29,-66.2326 1430.55,-38.906"/>
<polygon fill="midnightblue" stroke="midnightblue" points="1430.85,-35.4182 1420.54,-37.8463 1430.12,-42.3793 1430.85,-35.4182"/>
</g>
<!-- Node12 -->
<g id="node12" class="node"><title>Node12</title>
<polygon fill="white" stroke="#bfbfbf" points="1439,-8 1439,-31 1604,-31 1604,-8 1439,-8"/>
<text text-anchor="middle" x="1521.5" y="-15.8" font-family="Helvetica,sans-Serif" font-size="14.00">deal.II/lac/block_vector.h</text>
</g>
<!-- Node2&#45;&gt;Node12 -->
<g id="edge11" class="edge"><title>Node2&#45;&gt;Node12</title>
<path fill="none" stroke="midnightblue" d="M3752.84,-86.2056C3422.16,-86.8892 2041.5,-86.7735 1612.5,-39 1600.36,-37.6478 1587.43,-35.4751 1575.25,-33.0861"/>
<polygon fill="midnightblue" stroke="midnightblue" points="1575.72,-29.6102 1565.22,-31.0417 1574.32,-36.4691 1575.72,-29.6102"/>
</g>
<!-- Node13 -->
<g id="node13" class="node"><title>Node13</title>
<polygon fill="white" stroke="#bfbfbf" points="1622,-0.5 1622,-38.5 1753,-38.5 1753,-0.5 1622,-0.5"/>
<text text-anchor="start" x="1630" y="-23.3" font-family="Helvetica,sans-Serif" font-size="14.00">deal.II/lac/dynamic</text>
<text text-anchor="middle" x="1687.5" y="-8.3" font-family="Helvetica,sans-Serif" font-size="14.00">_sparsity_pattern.h</text>
</g>
<!-- Node2&#45;&gt;Node13 -->
<g id="edge12" class="edge"><title>Node2&#45;&gt;Node13</title>
<path fill="none" stroke="midnightblue" d="M3752.76,-85.2974C3416.71,-81.8825 2004.93,-66.1182 1763.19,-38.7938"/>
<polygon fill="midnightblue" stroke="midnightblue" points="1763.55,-35.3111 1753.19,-37.5675 1762.69,-42.259 1763.55,-35.3111"/>
</g>
<!-- Node14 -->
<g id="node14" class="node"><title>Node14</title>
<polygon fill="white" stroke="#bfbfbf" points="1771.5,-8 1771.5,-31 1923.5,-31 1923.5,-8 1771.5,-8"/>
<text text-anchor="middle" x="1847.5" y="-15.8" font-family="Helvetica,sans-Serif" font-size="14.00">deal.II/lac/full_matrix.h</text>
</g>
<!-- Node2&#45;&gt;Node14 -->
<g id="edge13" class="edge"><title>Node2&#45;&gt;Node14</title>
<path fill="none" stroke="midnightblue" d="M3752.91,-86.0355C3452.8,-85.9046 2294.82,-82.53 1932.5,-39 1921.36,-37.6621 1909.54,-35.5435 1898.35,-33.2098"/>
<polygon fill="midnightblue" stroke="midnightblue" points="1898.82,-29.7295 1888.31,-31.0224 1897.33,-36.5694 1898.82,-29.7295"/>
</g>
<!-- Node15 -->
<g id="node15" class="node"><title>Node15</title>
<polygon fill="white" stroke="#bfbfbf" points="1941.5,-0.5 1941.5,-38.5 2063.5,-38.5 2063.5,-0.5 1941.5,-0.5"/>
<text text-anchor="start" x="1949.5" y="-23.3" font-family="Helvetica,sans-Serif" font-size="14.00">deal.II/lac/generic</text>
<text text-anchor="middle" x="2002.5" y="-8.3" font-family="Helvetica,sans-Serif" font-size="14.00">_linear_algebra.h</text>
</g>
<!-- Node2&#45;&gt;Node15 -->
<g id="edge14" class="edge"><title>Node2&#45;&gt;Node15</title>
<path fill="none" stroke="midnightblue" d="M3752.9,-86.2869C3469.51,-87.0842 2425.09,-86.7358 2073.73,-38.9491"/>
<polygon fill="midnightblue" stroke="midnightblue" points="2074.18,-35.4779 2063.79,-37.5578 2073.21,-42.4104 2074.18,-35.4779"/>
</g>
<!-- Node16 -->
<g id="node16" class="node"><title>Node16</title>
<polygon fill="white" stroke="#bfbfbf" points="2082,-8 2082,-31 2285,-31 2285,-8 2082,-8"/>
<text text-anchor="middle" x="2183.5" y="-15.8" font-family="Helvetica,sans-Serif" font-size="14.00">deal.II/lac/petsc_precondition.h</text>
</g>
<!-- Node2&#45;&gt;Node16 -->
<g id="edge15" class="edge"><title>Node2&#45;&gt;Node16</title>
<path fill="none" stroke="midnightblue" d="M3752.83,-85.0939C3490.39,-81.5742 2582.11,-67.5661 2293.5,-39 2278.47,-37.5122 2262.38,-35.2136 2247.29,-32.7364"/>
<polygon fill="midnightblue" stroke="midnightblue" points="2247.46,-29.216 2237.02,-31.0006 2246.29,-36.1182 2247.46,-29.216"/>
</g>
<!-- Node17 -->
<g id="node17" class="node"><title>Node17</title>
<polygon fill="white" stroke="#bfbfbf" points="2303,-8 2303,-31 2468,-31 2468,-8 2303,-8"/>
<text text-anchor="middle" x="2385.5" y="-15.8" font-family="Helvetica,sans-Serif" font-size="14.00">deal.II/lac/petsc_solver.h</text>
</g>
<!-- Node2&#45;&gt;Node17 -->
<g id="edge16" class="edge"><title>Node2&#45;&gt;Node17</title>
<path fill="none" stroke="midnightblue" d="M3752.77,-85.0681C3511.01,-81.6808 2727.07,-68.6313 2476.5,-39 2464.49,-37.58 2451.71,-35.4042 2439.64,-33.0373"/>
<polygon fill="midnightblue" stroke="midnightblue" points="2440.19,-29.5787 2429.7,-31.0165 2438.8,-36.4384 2440.19,-29.5787"/>
</g>
<!-- Node18 -->
<g id="node18" class="node"><title>Node18</title>
<polygon fill="white" stroke="#bfbfbf" points="2486,-8 2486,-31 2633,-31 2633,-8 2486,-8"/>
<text text-anchor="middle" x="2559.5" y="-15.8" font-family="Helvetica,sans-Serif" font-size="14.00">deal.II/lac/solver_cg.h</text>
</g>
<!-- Node2&#45;&gt;Node18 -->
<g id="edge17" class="edge"><title>Node2&#45;&gt;Node18</title>
<path fill="none" stroke="midnightblue" d="M3752.85,-84.8382C3531.26,-80.9788 2859.01,-67.2006 2642.5,-39 2631.85,-37.6128 2620.55,-35.5199 2609.83,-33.2346"/>
<polygon fill="midnightblue" stroke="midnightblue" points="2610.29,-29.7517 2599.77,-31.0013 2608.77,-36.5853 2610.29,-29.7517"/>
</g>
<!-- Node19 -->
<g id="node19" class="node"><title>Node19</title>
<polygon fill="white" stroke="#bfbfbf" points="2651.5,-0.5 2651.5,-38.5 2765.5,-38.5 2765.5,-0.5 2651.5,-0.5"/>
<text text-anchor="start" x="2659.5" y="-23.3" font-family="Helvetica,sans-Serif" font-size="14.00">deal.II/lac/solver</text>
<text text-anchor="middle" x="2708.5" y="-8.3" font-family="Helvetica,sans-Serif" font-size="14.00">_gmres.h</text>
</g>
<!-- Node2&#45;&gt;Node19 -->
<g id="edge18" class="edge"><title>Node2&#45;&gt;Node19</title>
<path fill="none" stroke="midnightblue" d="M3752.94,-84.9253C3551.74,-81.5717 2982.88,-69.7224 2775.74,-38.9302"/>
<polygon fill="midnightblue" stroke="midnightblue" points="2775.98,-35.4257 2765.56,-37.3545 2774.91,-42.3433 2775.98,-35.4257"/>
</g>
<!-- Node20 -->
<g id="node20" class="node"><title>Node20</title>
<polygon fill="white" stroke="#bfbfbf" points="2783.5,-0.5 2783.5,-38.5 2897.5,-38.5 2897.5,-0.5 2783.5,-0.5"/>
<text text-anchor="start" x="2791.5" y="-23.3" font-family="Helvetica,sans-Serif" font-size="14.00">deal.II/lac/solver</text>
<text text-anchor="middle" x="2840.5" y="-8.3" font-family="Helvetica,sans-Serif" font-size="14.00">_minres.h</text>
</g>
<!-- Node2&#45;&gt;Node20 -->
<g id="edge19" class="edge"><title>Node2&#45;&gt;Node20</title>
<path fill="none" stroke="midnightblue" d="M3752.71,-84.3846C3569.65,-79.9419 3087.83,-66.1357 2907.71,-38.931"/>
<polygon fill="midnightblue" stroke="midnightblue" points="2907.99,-35.4318 2897.56,-37.3315 2906.9,-42.3464 2907.99,-35.4318"/>
</g>
<!-- Node21 -->
<g id="node21" class="node"><title>Node21</title>
<polygon fill="white" stroke="#bfbfbf" points="2915.5,-8 2915.5,-31 3041.5,-31 3041.5,-8 2915.5,-8"/>
<text text-anchor="middle" x="2978.5" y="-15.8" font-family="Helvetica,sans-Serif" font-size="14.00">deal.II/lac/vector.h</text>
</g>
<!-- Node2&#45;&gt;Node21 -->
<g id="edge20" class="edge"><title>Node2&#45;&gt;Node21</title>
<path fill="none" stroke="midnightblue" d="M3752.78,-86.196C3615.55,-85.5676 3306.66,-79.3091 3050.5,-39 3041.79,-37.6299 3032.61,-35.6741 3023.82,-33.5426"/>
<polygon fill="midnightblue" stroke="midnightblue" points="3024.66,-30.1462 3014.11,-31.0834 3022.94,-36.9318 3024.66,-30.1462"/>
</g>
<!-- Node22 -->
<g id="node22" class="node"><title>Node22</title>
<polygon fill="white" stroke="#bfbfbf" points="3060,-0.5 3060,-38.5 3185,-38.5 3185,-0.5 3060,-0.5"/>
<text text-anchor="start" x="3068" y="-23.3" font-family="Helvetica,sans-Serif" font-size="14.00">deal.II/lac/sparsity</text>
<text text-anchor="middle" x="3122.5" y="-8.3" font-family="Helvetica,sans-Serif" font-size="14.00">_tools.h</text>
</g>
<!-- Node2&#45;&gt;Node22 -->
<g id="edge21" class="edge"><title>Node2&#45;&gt;Node22</title>
<path fill="none" stroke="midnightblue" d="M3752.68,-84.7692C3637.11,-81.8816 3402.7,-72.285 3195.35,-38.9608"/>
<polygon fill="midnightblue" stroke="midnightblue" points="3195.62,-35.4584 3185.19,-37.3043 3194.5,-42.3672 3195.62,-35.4584"/>
</g>
<!-- Node23 -->
<g id="node23" class="node"><title>Node23</title>
<polygon fill="white" stroke="#bfbfbf" points="3203.5,-8 3203.5,-31 3335.5,-31 3335.5,-8 3203.5,-8"/>
<text text-anchor="middle" x="3269.5" y="-15.8" font-family="Helvetica,sans-Serif" font-size="14.00">deal.II/base/timer.h</text>
</g>
<!-- Node2&#45;&gt;Node23 -->
<g id="edge22" class="edge"><title>Node2&#45;&gt;Node23</title>
<path fill="none" stroke="midnightblue" d="M3752.91,-82.2218C3658.73,-76.5148 3488.31,-63.6442 3344.5,-39 3335.76,-37.5023 3326.53,-35.5442 3317.65,-33.4634"/>
<polygon fill="midnightblue" stroke="midnightblue" points="3318.36,-30.0337 3307.82,-31.08 3316.71,-36.8368 3318.36,-30.0337"/>
</g>
<!-- Node24 -->
<g id="node24" class="node"><title>Node24</title>
<polygon fill="white" stroke="#bfbfbf" points="3354,-0.5 3354,-38.5 3485,-38.5 3485,-0.5 3354,-0.5"/>
<text text-anchor="start" x="3362" y="-23.3" font-family="Helvetica,sans-Serif" font-size="14.00">deal.II/distributed</text>
<text text-anchor="middle" x="3419.5" y="-8.3" font-family="Helvetica,sans-Serif" font-size="14.00">/solution_transfer.h</text>
</g>
<!-- Node2&#45;&gt;Node24 -->
<g id="edge23" class="edge"><title>Node2&#45;&gt;Node24</title>
<path fill="none" stroke="midnightblue" d="M3752.79,-77.9999C3687.81,-70.2522 3589.24,-57.2661 3495.16,-39.232"/>
<polygon fill="midnightblue" stroke="midnightblue" points="3495.67,-35.7665 3485.19,-37.2984 3494.34,-42.6384 3495.67,-35.7665"/>
</g>
<!-- Node25 -->
<g id="node25" class="node"><title>Node25</title>
<polygon fill="white" stroke="#bfbfbf" points="3503,-0.5 3503,-38.5 3622,-38.5 3622,-0.5 3503,-0.5"/>
<text text-anchor="start" x="3511" y="-23.3" font-family="Helvetica,sans-Serif" font-size="14.00">deal.II/distributed</text>
<text text-anchor="middle" x="3562.5" y="-8.3" font-family="Helvetica,sans-Serif" font-size="14.00">/tria.h</text>
</g>
<!-- Node2&#45;&gt;Node25 -->
<g id="edge24" class="edge"><title>Node2&#45;&gt;Node25</title>
<path fill="none" stroke="midnightblue" d="M3779.97,-75.4633C3742.94,-66.6342 3688.63,-53.5213 3632.14,-39.137"/>
<polygon fill="midnightblue" stroke="midnightblue" points="3632.87,-35.7118 3622.32,-36.6284 3631.14,-42.4941 3632.87,-35.7118"/>
</g>
<!-- Node26 -->
<g id="node26" class="node"><title>Node26</title>
<polygon fill="white" stroke="#bfbfbf" points="3640.5,-8 3640.5,-31 3818.5,-31 3818.5,-8 3640.5,-8"/>
<text text-anchor="middle" x="3729.5" y="-15.8" font-family="Helvetica,sans-Serif" font-size="14.00">deal.II/dofs/dof_accessor.h</text>
</g>
<!-- Node2&#45;&gt;Node26 -->
<g id="edge25" class="edge"><title>Node2&#45;&gt;Node26</title>
<path fill="none" stroke="midnightblue" d="M3809.24,-75.4763C3794.23,-65.1292 3771.09,-49.1777 3753.6,-37.1171"/>
<polygon fill="midnightblue" stroke="midnightblue" points="3755.26,-34.0101 3745.04,-31.2152 3751.29,-39.773 3755.26,-34.0101"/>
</g>
<!-- Node27 -->
<g id="node27" class="node"><title>Node27</title>
<polygon fill="white" stroke="#bfbfbf" points="3836,-8 3836,-31 4005,-31 4005,-8 3836,-8"/>
<text text-anchor="middle" x="3920.5" y="-15.8" font-family="Helvetica,sans-Serif" font-size="14.00">deal.II/dofs/dof_handler.h</text>
</g>
<!-- Node2&#45;&gt;Node27 -->
<g id="edge26" class="edge"><title>Node2&#45;&gt;Node27</title>
<path fill="none" stroke="midnightblue" d="M3839.92,-75.4763C3855.09,-65.1292 3878.47,-49.1777 3896.15,-37.1171"/>
<polygon fill="midnightblue" stroke="midnightblue" points="3898.51,-39.7424 3904.8,-31.2152 3894.56,-33.9601 3898.51,-39.7424"/>
</g>
<!-- Node28 -->
<g id="node28" class="node"><title>Node28</title>
<polygon fill="white" stroke="#bfbfbf" points="4023.5,-8 4023.5,-31 4223.5,-31 4223.5,-8 4023.5,-8"/>
<text text-anchor="middle" x="4123.5" y="-15.8" font-family="Helvetica,sans-Serif" font-size="14.00">deal.II/dofs/dof_renumbering.h</text>
</g>
<!-- Node2&#45;&gt;Node28 -->
<g id="edge27" class="edge"><title>Node2&#45;&gt;Node28</title>
<path fill="none" stroke="midnightblue" d="M3872.54,-75.4763C3925.02,-63.9797 4009.08,-45.5643 4065.28,-33.2546"/>
<polygon fill="midnightblue" stroke="midnightblue" points="4066.06,-36.6651 4075.08,-31.1062 4064.57,-29.8272 4066.06,-36.6651"/>
</g>
<!-- Node29 -->
<g id="node29" class="node"><title>Node29</title>
<polygon fill="white" stroke="#bfbfbf" points="4241.5,-8 4241.5,-31 4393.5,-31 4393.5,-8 4241.5,-8"/>
<text text-anchor="middle" x="4317.5" y="-15.8" font-family="Helvetica,sans-Serif" font-size="14.00">deal.II/dofs/dof_tools.h</text>
</g>
<!-- Node2&#45;&gt;Node29 -->
<g id="edge28" class="edge"><title>Node2&#45;&gt;Node29</title>
<path fill="none" stroke="midnightblue" d="M3896.29,-79.9114C3978.02,-72.4747 4115.39,-58.4408 4232.5,-39 4242.44,-37.3492 4252.98,-35.3015 4263.13,-33.1761"/>
<polygon fill="midnightblue" stroke="midnightblue" points="4264.06,-36.5555 4273.11,-31.0367 4262.59,-29.7111 4264.06,-36.5555"/>
</g>
<!-- Node30 -->
<g id="node30" class="node"><title>Node30</title>
<polygon fill="white" stroke="#bfbfbf" points="4412,-8 4412,-31 4541,-31 4541,-8 4412,-8"/>
<text text-anchor="middle" x="4476.5" y="-15.8" font-family="Helvetica,sans-Serif" font-size="14.00">deal.II/fe/fe_bdm.h</text>
</g>
<!-- Node2&#45;&gt;Node30 -->
<g id="edge29" class="edge"><title>Node2&#45;&gt;Node30</title>
<path fill="none" stroke="midnightblue" d="M3896.14,-83.9452C4005.83,-79.952 4221.7,-68.7456 4402.5,-39 4411.33,-37.5474 4420.65,-35.5728 4429.6,-33.4529"/>
<polygon fill="midnightblue" stroke="midnightblue" points="4430.61,-36.8078 4439.48,-31.0178 4428.94,-30.0109 4430.61,-36.8078"/>
</g>
<!-- Node31 -->
<g id="node31" class="node"><title>Node31</title>
<polygon fill="white" stroke="#bfbfbf" points="4559,-8 4559,-31 4684,-31 4684,-8 4559,-8"/>
<text text-anchor="middle" x="4621.5" y="-15.8" font-family="Helvetica,sans-Serif" font-size="14.00">deal.II/fe/fe_dgp.h</text>
</g>
<!-- Node2&#45;&gt;Node31 -->
<g id="edge30" class="edge"><title>Node2&#45;&gt;Node31</title>
<path fill="none" stroke="midnightblue" d="M3896.11,-85.8619C4026.92,-84.6145 4312.95,-77.2797 4550.5,-39 4559,-37.6308 4567.95,-35.6958 4576.54,-33.5889"/>
<polygon fill="midnightblue" stroke="midnightblue" points="4577.57,-36.9363 4586.39,-31.0604 4575.83,-30.156 4577.57,-36.9363"/>
</g>
<!-- Node32 -->
<g id="node32" class="node"><title>Node32</title>
<polygon fill="white" stroke="#bfbfbf" points="4702,-8 4702,-31 4827,-31 4827,-8 4702,-8"/>
<text text-anchor="middle" x="4764.5" y="-15.8" font-family="Helvetica,sans-Serif" font-size="14.00">deal.II/fe/fe_dgq.h</text>
</g>
<!-- Node2&#45;&gt;Node32 -->
<g id="edge31" class="edge"><title>Node2&#45;&gt;Node32</title>
<path fill="none" stroke="midnightblue" d="M3896.01,-83.984C4075.28,-78.632 4540.48,-62.8262 4693.5,-39 4702.09,-37.6619 4711.15,-35.7214 4719.82,-33.5952"/>
<polygon fill="midnightblue" stroke="midnightblue" points="4720.95,-36.919 4729.76,-31.0388 4719.21,-30.1395 4720.95,-36.919"/>
</g>
<!-- Node33 -->
<g id="node33" class="node"><title>Node33</title>
<polygon fill="white" stroke="#bfbfbf" points="4845,-8 4845,-31 4994,-31 4994,-8 4845,-8"/>
<text text-anchor="middle" x="4919.5" y="-15.8" font-family="Helvetica,sans-Serif" font-size="14.00">deal.II/fe/fe_nedelec.h</text>
</g>
<!-- Node2&#45;&gt;Node33 -->
<g id="edge32" class="edge"><title>Node2&#45;&gt;Node33</title>
<path fill="none" stroke="midnightblue" d="M3896.24,-84.282C4095.76,-79.2474 4654.43,-63.3328 4836.5,-39 4847.03,-37.5921 4858.21,-35.513 4868.83,-33.2515"/>
<polygon fill="midnightblue" stroke="midnightblue" points="4869.79,-36.6224 4878.8,-31.0434 4868.28,-29.7879 4869.79,-36.6224"/>
</g>
<!-- Node34 -->
<g id="node34" class="node"><title>Node34</title>
<polygon fill="white" stroke="#bfbfbf" points="5012.5,-0.5 5012.5,-38.5 5140.5,-38.5 5140.5,-0.5 5012.5,-0.5"/>
<text text-anchor="start" x="5020.5" y="-23.3" font-family="Helvetica,sans-Serif" font-size="14.00">deal.II/fe/fe_raviart</text>
<text text-anchor="middle" x="5076.5" y="-8.3" font-family="Helvetica,sans-Serif" font-size="14.00">_thomas.h</text>
</g>
<!-- Node2&#45;&gt;Node34 -->
<g id="edge33" class="edge"><title>Node2&#45;&gt;Node34</title>
<path fill="none" stroke="midnightblue" d="M3896.01,-85.1014C4113.9,-82.0596 4768.42,-70.5994 5002.02,-39.0015"/>
<polygon fill="midnightblue" stroke="midnightblue" points="5002.74,-42.4348 5012.16,-37.5788 5001.77,-35.5027 5002.74,-42.4348"/>
</g>
<!-- Node35 -->
<g id="node35" class="node"><title>Node35</title>
<polygon fill="white" stroke="#bfbfbf" points="5158.5,-8 5158.5,-31 5304.5,-31 5304.5,-8 5158.5,-8"/>
<text text-anchor="middle" x="5231.5" y="-15.8" font-family="Helvetica,sans-Serif" font-size="14.00">deal.II/fe/fe_system.h</text>
</g>
<!-- Node2&#45;&gt;Node35 -->
<g id="edge34" class="edge"><title>Node2&#45;&gt;Node35</title>
<path fill="none" stroke="midnightblue" d="M3896.27,-85.2179C4135.43,-82.3349 4903.96,-70.7706 5149.5,-39 5160.03,-37.6376 5171.2,-35.5555 5181.79,-33.2728"/>
<polygon fill="midnightblue" stroke="midnightblue" points="5182.74,-36.6467 5191.73,-31.0397 5181.2,-29.817 5182.74,-36.6467"/>
</g>
<!-- Node36 -->
<g id="node36" class="node"><title>Node36</title>
<polygon fill="white" stroke="#bfbfbf" points="5323,-8 5323,-31 5456,-31 5456,-8 5323,-8"/>
<text text-anchor="middle" x="5389.5" y="-15.8" font-family="Helvetica,sans-Serif" font-size="14.00">deal.II/grid/cell_id.h</text>
</g>
<!-- Node2&#45;&gt;Node36 -->
<g id="edge35" class="edge"><title>Node2&#45;&gt;Node36</title>
<path fill="none" stroke="midnightblue" d="M3896.05,-85.7048C4153.85,-84.335 5034.64,-76.9237 5313.5,-39 5323.09,-37.6962 5333.23,-35.6851 5342.86,-33.4614"/>
<polygon fill="midnightblue" stroke="midnightblue" points="5343.79,-36.8392 5352.68,-31.0878 5342.14,-30.0351 5343.79,-36.8392"/>
</g>
<!-- Node37 -->
<g id="node37" class="node"><title>Node37</title>
<polygon fill="white" stroke="#bfbfbf" points="5474.5,-8 5474.5,-31 5656.5,-31 5656.5,-8 5474.5,-8"/>
<text text-anchor="middle" x="5565.5" y="-15.8" font-family="Helvetica,sans-Serif" font-size="14.00">deal.II/grid/grid_generator.h</text>
</g>
<!-- Node2&#45;&gt;Node37 -->
<g id="edge36" class="edge"><title>Node2&#45;&gt;Node37</title>
<path fill="none" stroke="midnightblue" d="M3896.1,-85.4203C4170.38,-82.971 5154.45,-72.0272 5465.5,-39 5479,-37.5665 5493.41,-35.3249 5506.97,-32.8901"/>
<polygon fill="midnightblue" stroke="midnightblue" points="5507.95,-36.2679 5517.15,-31.0006 5506.68,-29.3856 5507.95,-36.2679"/>
</g>
<!-- Node38 -->
<g id="node38" class="node"><title>Node38</title>
<polygon fill="white" stroke="#bfbfbf" points="5675,-8 5675,-31 5850,-31 5850,-8 5675,-8"/>
<text text-anchor="middle" x="5762.5" y="-15.8" font-family="Helvetica,sans-Serif" font-size="14.00">deal.II/grid/tria_accessor.h</text>
</g>
<!-- Node2&#45;&gt;Node38 -->
<g id="edge37" class="edge"><title>Node2&#45;&gt;Node38</title>
<path fill="none" stroke="midnightblue" d="M3896.11,-85.7318C4191.11,-84.3858 5313.23,-76.8339 5665.5,-39 5678.54,-37.5995 5692.45,-35.384 5705.54,-32.9656"/>
<polygon fill="midnightblue" stroke="midnightblue" points="5706.2,-36.4027 5715.37,-31.0869 5704.89,-29.5272 5706.2,-36.4027"/>
</g>
<!-- Node39 -->
<g id="node39" class="node"><title>Node39</title>
<polygon fill="white" stroke="#bfbfbf" points="5868,-8 5868,-31 6031,-31 6031,-8 5868,-8"/>
<text text-anchor="middle" x="5949.5" y="-15.8" font-family="Helvetica,sans-Serif" font-size="14.00">deal.II/grid/tria_iterator.h</text>
</g>
<!-- Node2&#45;&gt;Node39 -->
<g id="edge38" class="edge"><title>Node2&#45;&gt;Node39</title>
<path fill="none" stroke="midnightblue" d="M3896.12,-86.0713C4210.17,-86.1188 5467.32,-83.4711 5859.5,-39 5871.51,-37.638 5884.3,-35.4612 5896.35,-33.0714"/>
<polygon fill="midnightblue" stroke="midnightblue" points="5897.18,-36.4742 5906.26,-31.0271 5895.76,-29.6184 5897.18,-36.4742"/>
</g>
<!-- Node40 -->
<g id="node40" class="node"><title>Node40</title>
<polygon fill="white" stroke="#bfbfbf" points="6049,-8 6049,-31 6212,-31 6212,-8 6049,-8"/>
<text text-anchor="middle" x="6130.5" y="-15.8" font-family="Helvetica,sans-Serif" font-size="14.00">deal.II/lac/precondition.h</text>
</g>
<!-- Node2&#45;&gt;Node40 -->
<g id="edge39" class="edge"><title>Node2&#45;&gt;Node40</title>
<path fill="none" stroke="midnightblue" d="M3896.01,-86.2292C4226.81,-87.0218 5610.66,-87.3309 6040.5,-39 6052.51,-37.6493 6065.3,-35.4772 6077.35,-33.0882"/>
<polygon fill="midnightblue" stroke="midnightblue" points="6078.18,-36.4911 6087.27,-31.0439 6076.77,-29.6353 6078.18,-36.4911"/>
</g>
<!-- Node41 -->
<g id="node41" class="node"><title>Node41</title>
<polygon fill="white" stroke="#bfbfbf" points="6230,-0.5 6230,-38.5 6347,-38.5 6347,-0.5 6230,-0.5"/>
<text text-anchor="start" x="6238" y="-23.3" font-family="Helvetica,sans-Serif" font-size="14.00">deal.II/lac/trilinos</text>
<text text-anchor="middle" x="6288.5" y="-8.3" font-family="Helvetica,sans-Serif" font-size="14.00">_precondition.h</text>
</g>
<!-- Node2&#45;&gt;Node41 -->
<g id="edge40" class="edge"><title>Node2&#45;&gt;Node41</title>
<path fill="none" stroke="midnightblue" d="M3896.13,-85.6608C4265.01,-83.773 5943.41,-73.4229 6219.89,-38.9282"/>
<polygon fill="midnightblue" stroke="midnightblue" points="6220.41,-42.3897 6229.85,-37.5856 6219.47,-35.4524 6220.41,-42.3897"/>
</g>
<!-- Node42 -->
<g id="node42" class="node"><title>Node42</title>
<polygon fill="white" stroke="#bfbfbf" points="6365,-0.5 6365,-38.5 6482,-38.5 6482,-0.5 6365,-0.5"/>
<text text-anchor="start" x="6373" y="-23.3" font-family="Helvetica,sans-Serif" font-size="14.00">deal.II/lac/trilinos</text>
<text text-anchor="middle" x="6423.5" y="-8.3" font-family="Helvetica,sans-Serif" font-size="14.00">_solver.h</text>
</g>
<!-- Node2&#45;&gt;Node42 -->
<g id="edge41" class="edge"><title>Node2&#45;&gt;Node42</title>
<path fill="none" stroke="midnightblue" d="M3896,-85.7421C4277.17,-84.2258 6063.31,-75.2986 6354.74,-38.9494"/>
<polygon fill="midnightblue" stroke="midnightblue" points="6355.41,-42.3909 6364.85,-37.5892 6354.47,-35.4533 6355.41,-42.3909"/>
</g>
<!-- Node43 -->
<g id="node43" class="node"><title>Node43</title>
<polygon fill="white" stroke="#bfbfbf" points="6500,-0.5 6500,-38.5 6643,-38.5 6643,-0.5 6500,-0.5"/>
<text text-anchor="start" x="6508" y="-23.3" font-family="Helvetica,sans-Serif" font-size="14.00">deal.II/numerics/data</text>
<text text-anchor="middle" x="6571.5" y="-8.3" font-family="Helvetica,sans-Serif" font-size="14.00">_out.h</text>
</g>
<!-- Node2&#45;&gt;Node43 -->
<g id="edge42" class="edge"><title>Node2&#45;&gt;Node43</title>
<path fill="none" stroke="midnightblue" d="M3896.17,-85.6348C4289.86,-83.5101 6182.76,-71.7226 6489.43,-39.0306"/>
<polygon fill="midnightblue" stroke="midnightblue" points="6490.13,-42.4737 6499.67,-37.8589 6489.34,-35.5191 6490.13,-42.4737"/>
</g>
<!-- Node44 -->
<g id="node44" class="node"><title>Node44</title>
<polygon fill="white" stroke="#bfbfbf" points="6661.5,-0.5 6661.5,-38.5 6815.5,-38.5 6815.5,-0.5 6661.5,-0.5"/>
<text text-anchor="start" x="6669.5" y="-23.3" font-family="Helvetica,sans-Serif" font-size="14.00">deal.II/numerics/matrix</text>
<text text-anchor="middle" x="6738.5" y="-8.3" font-family="Helvetica,sans-Serif" font-size="14.00">_tools.h</text>
</g>
<!-- Node2&#45;&gt;Node44 -->
<g id="edge43" class="edge"><title>Node2&#45;&gt;Node44</title>
<path fill="none" stroke="midnightblue" d="M3896.06,-85.6472C4303.68,-83.5271 6325.55,-71.4984 6650.84,-38.975"/>
<polygon fill="midnightblue" stroke="midnightblue" points="6651.69,-42.4038 6661.26,-37.8588 6650.95,-35.4436 6651.69,-42.4038"/>
</g>
<!-- Node45 -->
<g id="node45" class="node"><title>Node45</title>
<polygon fill="white" stroke="#bfbfbf" points="6834,-0.5 6834,-38.5 6987,-38.5 6987,-0.5 6834,-0.5"/>
<text text-anchor="start" x="6842" y="-23.3" font-family="Helvetica,sans-Serif" font-size="14.00">deal.II/numerics/vector</text>
<text text-anchor="middle" x="6910.5" y="-8.3" font-family="Helvetica,sans-Serif" font-size="14.00">_tools.h</text>
</g>
<!-- Node2&#45;&gt;Node45 -->
<g id="edge44" class="edge"><title>Node2&#45;&gt;Node45</title>
<path fill="none" stroke="midnightblue" d="M3896.19,-85.72C4319.07,-83.9572 6480.65,-73.3725 6823.66,-38.8747"/>
<polygon fill="midnightblue" stroke="midnightblue" points="6824.16,-42.3411 6833.73,-37.7948 6823.41,-35.381 6824.16,-42.3411"/>
</g>
<!-- Node46 -->
<g id="node46" class="node"><title>Node46</title>
<polygon fill="white" stroke="#bfbfbf" points="7005.5,-8 7005.5,-31 7059.5,-31 7059.5,-8 7005.5,-8"/>
<text text-anchor="middle" x="7032.5" y="-15.8" font-family="Helvetica,sans-Serif" font-size="14.00">cmath</text>
</g>
<!-- Node2&#45;&gt;Node46 -->
<g id="edge45" class="edge"><title>Node2&#45;&gt;Node46</title>
<path fill="none" stroke="midnightblue" d="M3896.22,-85.8643C4352.96,-84.8843 6841.25,-77.7761 6996.5,-39 6999.94,-38.1396 7003.43,-36.898 7006.81,-35.4593"/>
<polygon fill="midnightblue" stroke="midnightblue" points="7008.46,-38.5519 7015.92,-31.0355 7005.4,-32.2549 7008.46,-38.5519"/>
</g>
<!-- Node47 -->
<g id="node47" class="node"><title>Node47</title>
<polygon fill="white" stroke="#bfbfbf" points="7077.5,-8 7077.5,-31 7139.5,-31 7139.5,-8 7077.5,-8"/>
<text text-anchor="middle" x="7108.5" y="-15.8" font-family="Helvetica,sans-Serif" font-size="14.00">fstream</text>
</g>
<!-- Node2&#45;&gt;Node47 -->
<g id="edge46" class="edge"><title>Node2&#45;&gt;Node47</title>
<path fill="none" stroke="midnightblue" d="M3896.33,-85.8064C4359.33,-84.4531 6908.76,-75.3663 7068.5,-39 7072.5,-38.0898 7076.58,-36.7498 7080.52,-35.2"/>
<polygon fill="midnightblue" stroke="midnightblue" points="7082.22,-38.279 7089.95,-31.0404 7079.39,-31.8745 7082.22,-38.279"/>
</g>
<!-- Node48 -->
<g id="node48" class="node"><title>Node48</title>
<polygon fill="white" stroke="#bfbfbf" points="7158,-8 7158,-31 7227,-31 7227,-8 7158,-8"/>
<text text-anchor="middle" x="7192.5" y="-15.8" font-family="Helvetica,sans-Serif" font-size="14.00">iostream</text>
</g>
<!-- Node2&#45;&gt;Node48 -->
<g id="edge47" class="edge"><title>Node2&#45;&gt;Node48</title>
<path fill="none" stroke="midnightblue" d="M3896.19,-85.7629C4365.39,-84.1145 6983.96,-73.3952 7148.5,-39 7153.1,-38.0393 7157.81,-36.5977 7162.37,-34.9352"/>
<polygon fill="midnightblue" stroke="midnightblue" points="7164.03,-38.0382 7171.99,-31.0435 7161.41,-31.5491 7164.03,-38.0382"/>
</g>
<!-- Node49 -->
<g id="node49" class="node"><title>Node49</title>
<polygon fill="white" stroke="#bfbfbf" points="7245.5,-8 7245.5,-31 7289.5,-31 7289.5,-8 7245.5,-8"/>
<text text-anchor="middle" x="7267.5" y="-15.8" font-family="Helvetica,sans-Serif" font-size="14.00">map</text>
</g>
<!-- Node2&#45;&gt;Node49 -->
<g id="edge48" class="edge"><title>Node2&#45;&gt;Node49</title>
<path fill="none" stroke="midnightblue" d="M3896.23,-86.067C4373,-86.381 7070.26,-86.0671 7236.5,-39 7239.18,-38.2418 7241.86,-37.19 7244.46,-35.9693"/>
<polygon fill="midnightblue" stroke="midnightblue" points="7246.34,-38.9293 7253.4,-31.0303 7242.96,-32.8019 7246.34,-38.9293"/>
</g>
<!-- Node50 -->
<g id="node50" class="node"><title>Node50</title>
<polygon fill="white" stroke="#bfbfbf" points="7308,-8 7308,-31 7375,-31 7375,-8 7308,-8"/>
<text text-anchor="middle" x="7341.5" y="-15.8" font-family="Helvetica,sans-Serif" font-size="14.00">memory</text>
</g>
<!-- Node2&#45;&gt;Node50 -->
<g id="edge49" class="edge"><title>Node2&#45;&gt;Node50</title>
<path fill="none" stroke="midnightblue" d="M3896.3,-85.8248C4378.06,-84.5498 7126.31,-75.6848 7298.5,-39 7303,-38.0406 7307.62,-36.5997 7312.08,-34.9374"/>
<polygon fill="midnightblue" stroke="midnightblue" points="7313.58,-38.1039 7321.48,-31.0459 7310.9,-31.6359 7313.58,-38.1039"/>
</g>
</g>
</svg>
