<?xml version="1.0" encoding="UTF-8" standalone="no"?>
<!DOCTYPE svg PUBLIC "-//W3C//DTD SVG 1.1//EN"
 "http://www.w3.org/Graphics/SVG/1.1/DTD/svg11.dtd">
<!-- Generated by graphviz version 2.38.0 (20140413.2041)
 -->
<!-- Title: /home/travis/build/konsim83/MPI&#45;MSFEC/source/Ned_RT/ned_rt_parameters.cc Pages: 1 -->
<svg width="551pt" height="212pt"
 viewBox="0.00 0.00 550.50 212.00" xmlns="http://www.w3.org/2000/svg" xmlns:xlink="http://www.w3.org/1999/xlink">
<g id="graph0" class="graph" transform="scale(1 1) rotate(0) translate(4 208)">
<title>/home/travis/build/konsim83/MPI&#45;MSFEC/source/Ned_RT/ned_rt_parameters.cc</title>
<polygon fill="white" stroke="none" points="-4,4 -4,-208 546.5,-208 546.5,4 -4,4"/>
<!-- Node1 -->
<g id="node1" class="node"><title>Node1</title>
<polygon fill="#bfbfbf" stroke="black" points="273,-135.5 273,-203.5 433,-203.5 433,-135.5 273,-135.5"/>
<text text-anchor="start" x="281" y="-188.3" font-family="Helvetica,sans-Serif" font-size="14.00">/home/travis/build</text>
<text text-anchor="start" x="281" y="-173.3" font-family="Helvetica,sans-Serif" font-size="14.00">/konsim83/MPI&#45;MSFEC</text>
<text text-anchor="start" x="281" y="-158.3" font-family="Helvetica,sans-Serif" font-size="14.00">/source/Ned_RT/ned_rt</text>
<text text-anchor="middle" x="353" y="-143.3" font-family="Helvetica,sans-Serif" font-size="14.00">_parameters.cc</text>
</g>
<!-- Node2 -->
<g id="node2" class="node"><title>Node2</title>
<g id="a_node2"><a xlink:href="ned__rt__parameters_8h.html" target="_top" xlink:title="Ned_RT/ned_rt_parameters.h">
<polygon fill="white" stroke="black" points="254.5,-75.5 254.5,-98.5 451.5,-98.5 451.5,-75.5 254.5,-75.5"/>
<text text-anchor="middle" x="353" y="-83.3" font-family="Helvetica,sans-Serif" font-size="14.00">Ned_RT/ned_rt_parameters.h</text>
</a>
</g>
</g>
<!-- Node1&#45;&gt;Node2 -->
<g id="edge1" class="edge"><title>Node1&#45;&gt;Node2</title>
<path fill="none" stroke="midnightblue" d="M353,-135.293C353,-126.241 353,-116.699 353,-108.575"/>
<polygon fill="midnightblue" stroke="midnightblue" points="356.5,-108.555 353,-98.555 349.5,-108.555 356.5,-108.555"/>
</g>
<!-- Node3 -->
<g id="node3" class="node"><title>Node3</title>
<polygon fill="white" stroke="#bfbfbf" points="0,-0.5 0,-38.5 152,-38.5 152,-0.5 0,-0.5"/>
<text text-anchor="start" x="8" y="-23.3" font-family="Helvetica,sans-Serif" font-size="14.00">deal.II/base/parameter</text>
<text text-anchor="middle" x="76" y="-8.3" font-family="Helvetica,sans-Serif" font-size="14.00">_handler.h</text>
</g>
<!-- Node2&#45;&gt;Node3 -->
<g id="edge2" class="edge"><title>Node2&#45;&gt;Node3</title>
<path fill="none" stroke="midnightblue" d="M308.495,-75.4763C269.078,-66.1556 210.428,-52.2872 161.898,-40.8117"/>
<polygon fill="midnightblue" stroke="midnightblue" points="162.559,-37.3715 152.022,-38.4763 160.948,-44.1836 162.559,-37.3715"/>
</g>
<!-- Node4 -->
<g id="node4" class="node"><title>Node4</title>
<polygon fill="white" stroke="#bfbfbf" points="170.5,-8 170.5,-31 303.5,-31 303.5,-8 170.5,-8"/>
<text text-anchor="middle" x="237" y="-15.8" font-family="Helvetica,sans-Serif" font-size="14.00">deal.II/grid/cell_id.h</text>
</g>
<!-- Node2&#45;&gt;Node4 -->
<g id="edge3" class="edge"><title>Node2&#45;&gt;Node4</title>
<path fill="none" stroke="midnightblue" d="M334.363,-75.4763C315.618,-64.8919 286.487,-48.4431 264.97,-36.2935"/>
<polygon fill="midnightblue" stroke="midnightblue" points="266.405,-33.0844 255.977,-31.2152 262.963,-39.1798 266.405,-33.0844"/>
</g>
<!-- Node5 -->
<g id="node5" class="node"><title>Node5</title>
<polygon fill="white" stroke="#bfbfbf" points="322,-8 322,-31 384,-31 384,-8 322,-8"/>
<text text-anchor="middle" x="353" y="-15.8" font-family="Helvetica,sans-Serif" font-size="14.00">fstream</text>
</g>
<!-- Node2&#45;&gt;Node5 -->
<g id="edge4" class="edge"><title>Node2&#45;&gt;Node5</title>
<path fill="none" stroke="midnightblue" d="M353,-75.4763C353,-66.2683 353,-52.6221 353,-41.2293"/>
<polygon fill="midnightblue" stroke="midnightblue" points="356.5,-41.2152 353,-31.2152 349.5,-41.2152 356.5,-41.2152"/>
</g>
<!-- Node6 -->
<g id="node6" class="node"><title>Node6</title>
<polygon fill="white" stroke="#bfbfbf" points="402.5,-8 402.5,-31 471.5,-31 471.5,-8 402.5,-8"/>
<text text-anchor="middle" x="437" y="-15.8" font-family="Helvetica,sans-Serif" font-size="14.00">iostream</text>
</g>
<!-- Node2&#45;&gt;Node6 -->
<g id="edge5" class="edge"><title>Node2&#45;&gt;Node6</title>
<path fill="none" stroke="midnightblue" d="M366.496,-75.4763C379.644,-65.2242 399.848,-49.47 415.263,-37.4501"/>
<polygon fill="midnightblue" stroke="midnightblue" points="417.525,-40.1245 423.258,-31.2152 413.22,-34.6043 417.525,-40.1245"/>
</g>
<!-- Node7 -->
<g id="node7" class="node"><title>Node7</title>
<polygon fill="white" stroke="#bfbfbf" points="489.5,-8 489.5,-31 542.5,-31 542.5,-8 489.5,-8"/>
<text text-anchor="middle" x="516" y="-15.8" font-family="Helvetica,sans-Serif" font-size="14.00">vector</text>
</g>
<!-- Node2&#45;&gt;Node7 -->
<g id="edge6" class="edge"><title>Node2&#45;&gt;Node7</title>
<path fill="none" stroke="midnightblue" d="M385.3,-75.4854C411.47,-66.6467 449.104,-53.2085 481,-39 483.307,-37.9722 485.673,-36.8583 488.034,-35.7041"/>
<polygon fill="midnightblue" stroke="midnightblue" points="489.652,-38.8078 496.974,-31.1502 486.475,-32.5704 489.652,-38.8078"/>
</g>
</g>
</svg>
