<?xml version="1.0" encoding="UTF-8" standalone="no"?>
<!DOCTYPE svg PUBLIC "-//W3C//DTD SVG 1.1//EN"
 "http://www.w3.org/Graphics/SVG/1.1/DTD/svg11.dtd">
<!-- Generated by graphviz version 2.38.0 (20140413.2041)
 -->
<!-- Title: /home/travis/build/konsim83/MPI&#45;MSFEC/include/linear_algebra/preconditioner.h Pages: 1 -->
<svg width="1571pt" height="227pt"
 viewBox="0.00 0.00 1570.50 227.00" xmlns="http://www.w3.org/2000/svg" xmlns:xlink="http://www.w3.org/1999/xlink">
<g id="graph0" class="graph" transform="scale(1 1) rotate(0) translate(4 223)">
<title>/home/travis/build/konsim83/MPI&#45;MSFEC/include/linear_algebra/preconditioner.h</title>
<polygon fill="white" stroke="none" points="-4,4 -4,-223 1566.5,-223 1566.5,4 -4,4"/>
<!-- Node1 -->
<g id="node1" class="node"><title>Node1</title>
<polygon fill="#bfbfbf" stroke="black" points="936,-150.5 936,-218.5 1096,-218.5 1096,-150.5 936,-150.5"/>
<text text-anchor="start" x="944" y="-203.3" font-family="Helvetica,sans-Serif" font-size="14.00">/home/travis/build</text>
<text text-anchor="start" x="944" y="-188.3" font-family="Helvetica,sans-Serif" font-size="14.00">/konsim83/MPI&#45;MSFEC</text>
<text text-anchor="start" x="944" y="-173.3" font-family="Helvetica,sans-Serif" font-size="14.00">/include/linear_algebra</text>
<text text-anchor="middle" x="1016" y="-158.3" font-family="Helvetica,sans-Serif" font-size="14.00">/preconditioner.h</text>
</g>
<!-- Node2 -->
<g id="node2" class="node"><title>Node2</title>
<g id="a_node2"><a xlink:href="config_8h.html" target="_top" xlink:title="config.h">
<polygon fill="white" stroke="black" points="369,-83 369,-106 433,-106 433,-83 369,-83"/>
<text text-anchor="middle" x="401" y="-90.8" font-family="Helvetica,sans-Serif" font-size="14.00">config.h</text>
</a>
</g>
</g>
<!-- Node1&#45;&gt;Node2 -->
<g id="edge1" class="edge"><title>Node1&#45;&gt;Node2</title>
<path fill="none" stroke="midnightblue" d="M935.794,-181.18C823.664,-176.277 614.529,-161.067 443,-114 439.134,-112.939 435.166,-111.581 431.284,-110.083"/>
<polygon fill="midnightblue" stroke="midnightblue" points="432.498,-106.797 421.922,-106.161 429.794,-113.253 432.498,-106.797"/>
</g>
<!-- Node10 -->
<g id="node10" class="node"><title>Node10</title>
<polygon fill="white" stroke="#bfbfbf" points="451.5,-83 451.5,-106 654.5,-106 654.5,-83 451.5,-83"/>
<text text-anchor="middle" x="553" y="-90.8" font-family="Helvetica,sans-Serif" font-size="14.00">deal.II/lac/petsc_precondition.h</text>
</g>
<!-- Node1&#45;&gt;Node10 -->
<g id="edge9" class="edge"><title>Node1&#45;&gt;Node10</title>
<path fill="none" stroke="midnightblue" d="M935.88,-168.272C845.971,-151.183 701.814,-123.784 618.408,-107.932"/>
<polygon fill="midnightblue" stroke="midnightblue" points="619.023,-104.486 608.545,-106.057 617.716,-111.363 619.023,-104.486"/>
</g>
<!-- Node11 -->
<g id="node11" class="node"><title>Node11</title>
<polygon fill="white" stroke="#bfbfbf" points="672.5,-83 672.5,-106 837.5,-106 837.5,-83 672.5,-83"/>
<text text-anchor="middle" x="755" y="-90.8" font-family="Helvetica,sans-Serif" font-size="14.00">deal.II/lac/petsc_solver.h</text>
</g>
<!-- Node1&#45;&gt;Node11 -->
<g id="edge10" class="edge"><title>Node1&#45;&gt;Node11</title>
<path fill="none" stroke="midnightblue" d="M935.918,-156.499C889.561,-140.869 833.175,-121.858 795.803,-109.257"/>
<polygon fill="midnightblue" stroke="midnightblue" points="796.855,-105.918 786.26,-106.04 794.618,-112.551 796.855,-105.918"/>
</g>
<!-- Node12 -->
<g id="node12" class="node"><title>Node12</title>
<polygon fill="white" stroke="#bfbfbf" points="855.5,-83 855.5,-106 1018.5,-106 1018.5,-83 855.5,-83"/>
<text text-anchor="middle" x="937" y="-90.8" font-family="Helvetica,sans-Serif" font-size="14.00">deal.II/lac/precondition.h</text>
</g>
<!-- Node1&#45;&gt;Node12 -->
<g id="edge11" class="edge"><title>Node1&#45;&gt;Node12</title>
<path fill="none" stroke="midnightblue" d="M986.359,-150.482C975.304,-138.167 963.148,-124.627 953.666,-114.064"/>
<polygon fill="midnightblue" stroke="midnightblue" points="955.992,-111.416 946.707,-106.313 950.783,-116.092 955.992,-111.416"/>
</g>
<!-- Node13 -->
<g id="node13" class="node"><title>Node13</title>
<polygon fill="white" stroke="#bfbfbf" points="1036.5,-75.5 1036.5,-113.5 1155.5,-113.5 1155.5,-75.5 1036.5,-75.5"/>
<text text-anchor="start" x="1044.5" y="-98.3" font-family="Helvetica,sans-Serif" font-size="14.00">deal.II/lac/sparse</text>
<text text-anchor="middle" x="1096" y="-83.3" font-family="Helvetica,sans-Serif" font-size="14.00">_direct.h</text>
</g>
<!-- Node1&#45;&gt;Node13 -->
<g id="edge12" class="edge"><title>Node1&#45;&gt;Node13</title>
<path fill="none" stroke="midnightblue" d="M1046.02,-150.482C1054.8,-140.825 1064.26,-130.415 1072.57,-121.278"/>
<polygon fill="midnightblue" stroke="midnightblue" points="1075.38,-123.381 1079.52,-113.627 1070.2,-118.672 1075.38,-123.381"/>
</g>
<!-- Node14 -->
<g id="node14" class="node"><title>Node14</title>
<polygon fill="white" stroke="#bfbfbf" points="1173.5,-75.5 1173.5,-113.5 1292.5,-113.5 1292.5,-75.5 1173.5,-75.5"/>
<text text-anchor="start" x="1181.5" y="-98.3" font-family="Helvetica,sans-Serif" font-size="14.00">deal.II/lac/sparse</text>
<text text-anchor="middle" x="1233" y="-83.3" font-family="Helvetica,sans-Serif" font-size="14.00">_ilu.h</text>
</g>
<!-- Node1&#45;&gt;Node14 -->
<g id="edge13" class="edge"><title>Node1&#45;&gt;Node14</title>
<path fill="none" stroke="midnightblue" d="M1096.19,-150.982C1123.81,-139.781 1154.06,-127.513 1179.08,-117.367"/>
<polygon fill="midnightblue" stroke="midnightblue" points="1180.44,-120.591 1188.39,-113.589 1177.81,-114.104 1180.44,-120.591"/>
</g>
<!-- Node15 -->
<g id="node15" class="node"><title>Node15</title>
<polygon fill="white" stroke="#bfbfbf" points="1310.5,-75.5 1310.5,-113.5 1427.5,-113.5 1427.5,-75.5 1310.5,-75.5"/>
<text text-anchor="start" x="1318.5" y="-98.3" font-family="Helvetica,sans-Serif" font-size="14.00">deal.II/lac/trilinos</text>
<text text-anchor="middle" x="1369" y="-83.3" font-family="Helvetica,sans-Serif" font-size="14.00">_precondition.h</text>
</g>
<!-- Node1&#45;&gt;Node15 -->
<g id="edge14" class="edge"><title>Node1&#45;&gt;Node15</title>
<path fill="none" stroke="midnightblue" d="M1096.3,-164.69C1151.25,-151.655 1226,-133.6 1300.21,-114.434"/>
<polygon fill="midnightblue" stroke="midnightblue" points="1301.4,-117.742 1310.2,-111.846 1299.64,-110.966 1301.4,-117.742"/>
</g>
<!-- Node16 -->
<g id="node16" class="node"><title>Node16</title>
<polygon fill="white" stroke="#bfbfbf" points="1445.5,-75.5 1445.5,-113.5 1562.5,-113.5 1562.5,-75.5 1445.5,-75.5"/>
<text text-anchor="start" x="1453.5" y="-98.3" font-family="Helvetica,sans-Serif" font-size="14.00">deal.II/lac/trilinos</text>
<text text-anchor="middle" x="1504" y="-83.3" font-family="Helvetica,sans-Serif" font-size="14.00">_solver.h</text>
</g>
<!-- Node1&#45;&gt;Node16 -->
<g id="edge15" class="edge"><title>Node1&#45;&gt;Node16</title>
<path fill="none" stroke="midnightblue" d="M1096.01,-172.863C1178.82,-161.272 1312,-141.004 1435.27,-114.282"/>
<polygon fill="midnightblue" stroke="midnightblue" points="1436.24,-117.653 1445.26,-112.097 1434.74,-110.814 1436.24,-117.653"/>
</g>
<!-- Node3 -->
<g id="node3" class="node"><title>Node3</title>
<polygon fill="white" stroke="#bfbfbf" points="0,-8 0,-31 124,-31 124,-8 0,-8"/>
<text text-anchor="middle" x="62" y="-15.8" font-family="Helvetica,sans-Serif" font-size="14.00">deal.II/base/mpi.h</text>
</g>
<!-- Node2&#45;&gt;Node3 -->
<g id="edge2" class="edge"><title>Node2&#45;&gt;Node3</title>
<path fill="none" stroke="midnightblue" d="M368.7,-87.5185C318.222,-78.0386 217.645,-58.619 133,-39 125.834,-37.339 118.288,-35.486 110.898,-33.612"/>
<polygon fill="midnightblue" stroke="midnightblue" points="111.524,-30.1594 100.968,-31.0598 109.782,-36.939 111.524,-30.1594"/>
</g>
<!-- Node4 -->
<g id="node4" class="node"><title>Node4</title>
<polygon fill="white" stroke="#bfbfbf" points="142,-0.5 142,-38.5 264,-38.5 264,-0.5 142,-0.5"/>
<text text-anchor="start" x="150" y="-23.3" font-family="Helvetica,sans-Serif" font-size="14.00">deal.II/lac/generic</text>
<text text-anchor="middle" x="203" y="-8.3" font-family="Helvetica,sans-Serif" font-size="14.00">_linear_algebra.h</text>
</g>
<!-- Node2&#45;&gt;Node4 -->
<g id="edge3" class="edge"><title>Node2&#45;&gt;Node4</title>
<path fill="none" stroke="midnightblue" d="M372.209,-82.8852C343.361,-72.2493 298.127,-55.5719 261.683,-42.1356"/>
<polygon fill="midnightblue" stroke="midnightblue" points="262.735,-38.7932 252.142,-38.6178 260.313,-45.3611 262.735,-38.7932"/>
</g>
<!-- Node5 -->
<g id="node5" class="node"><title>Node5</title>
<polygon fill="white" stroke="#bfbfbf" points="282.5,-8 282.5,-31 355.5,-31 355.5,-8 282.5,-8"/>
<text text-anchor="middle" x="319" y="-15.8" font-family="Helvetica,sans-Serif" font-size="14.00">algorithm</text>
</g>
<!-- Node2&#45;&gt;Node5 -->
<g id="edge4" class="edge"><title>Node2&#45;&gt;Node5</title>
<path fill="none" stroke="midnightblue" d="M388.901,-82.7286C375.623,-70.9079 354.116,-51.7622 338.461,-37.8252"/>
<polygon fill="midnightblue" stroke="midnightblue" points="340.679,-35.1134 330.882,-31.0783 336.024,-40.3418 340.679,-35.1134"/>
</g>
<!-- Node6 -->
<g id="node6" class="node"><title>Node6</title>
<polygon fill="white" stroke="#bfbfbf" points="374,-8 374,-31 428,-31 428,-8 374,-8"/>
<text text-anchor="middle" x="401" y="-15.8" font-family="Helvetica,sans-Serif" font-size="14.00">cmath</text>
</g>
<!-- Node2&#45;&gt;Node6 -->
<g id="edge5" class="edge"><title>Node2&#45;&gt;Node6</title>
<path fill="none" stroke="midnightblue" d="M401,-82.7286C401,-71.9459 401,-55.0681 401,-41.6087"/>
<polygon fill="midnightblue" stroke="midnightblue" points="404.5,-41.3156 401,-31.3156 397.5,-41.3156 404.5,-41.3156"/>
</g>
<!-- Node7 -->
<g id="node7" class="node"><title>Node7</title>
<polygon fill="white" stroke="#bfbfbf" points="446.5,-8 446.5,-31 511.5,-31 511.5,-8 446.5,-8"/>
<text text-anchor="middle" x="479" y="-15.8" font-family="Helvetica,sans-Serif" font-size="14.00">iomanip</text>
</g>
<!-- Node2&#45;&gt;Node7 -->
<g id="edge6" class="edge"><title>Node2&#45;&gt;Node7</title>
<path fill="none" stroke="midnightblue" d="M412.509,-82.7286C425.024,-71.0164 445.222,-52.1129 460.077,-38.2101"/>
<polygon fill="midnightblue" stroke="midnightblue" points="462.788,-40.4669 467.697,-31.0783 458.004,-35.356 462.788,-40.4669"/>
</g>
<!-- Node8 -->
<g id="node8" class="node"><title>Node8</title>
<polygon fill="white" stroke="#bfbfbf" points="530,-8 530,-31 578,-31 578,-8 530,-8"/>
<text text-anchor="middle" x="554" y="-15.8" font-family="Helvetica,sans-Serif" font-size="14.00">limits</text>
</g>
<!-- Node2&#45;&gt;Node8 -->
<g id="edge7" class="edge"><title>Node2&#45;&gt;Node8</title>
<path fill="none" stroke="midnightblue" d="M424.838,-82.9611C454.467,-69.8116 503.291,-47.9653 521,-39 522.802,-38.0878 524.647,-37.1278 526.499,-36.1447"/>
<polygon fill="midnightblue" stroke="midnightblue" points="528.548,-39.014 535.648,-31.1503 525.194,-32.8698 528.548,-39.014"/>
</g>
<!-- Node9 -->
<g id="node9" class="node"><title>Node9</title>
<polygon fill="white" stroke="#bfbfbf" points="596.5,-8 596.5,-31 675.5,-31 675.5,-8 596.5,-8"/>
<text text-anchor="middle" x="636" y="-15.8" font-family="Helvetica,sans-Serif" font-size="14.00">type_traits</text>
</g>
<!-- Node2&#45;&gt;Node9 -->
<g id="edge8" class="edge"><title>Node2&#45;&gt;Node9</title>
<path fill="none" stroke="midnightblue" d="M422.953,-82.9902C429.331,-80.1676 436.367,-77.2717 443,-75 505.411,-53.6266 524.035,-58.6839 587,-39 591.315,-37.651 595.802,-36.1283 600.232,-34.5501"/>
<polygon fill="midnightblue" stroke="midnightblue" points="601.57,-37.7874 609.748,-31.0525 599.155,-31.2171 601.57,-37.7874"/>
</g>
</g>
</svg>
