<?xml version="1.0" encoding="UTF-8" standalone="no"?>
<!DOCTYPE svg PUBLIC "-//W3C//DTD SVG 1.1//EN"
 "http://www.w3.org/Graphics/SVG/1.1/DTD/svg11.dtd">
<!-- Generated by graphviz version 2.38.0 (20140413.2041)
 -->
<!-- Title: /home/travis/build/konsim83/MPI&#45;MSFEC/include/Q/q_basis.h Pages: 1 -->
<svg width="435pt" height="242pt"
 viewBox="0.00 0.00 435.00 242.00" xmlns="http://www.w3.org/2000/svg" xmlns:xlink="http://www.w3.org/1999/xlink">
<g id="graph0" class="graph" transform="scale(1 1) rotate(0) translate(4 238)">
<title>/home/travis/build/konsim83/MPI&#45;MSFEC/include/Q/q_basis.h</title>
<polygon fill="white" stroke="none" points="-4,4 -4,-238 431,-238 431,4 -4,4"/>
<!-- Node1 -->
<g id="node1" class="node"><title>Node1</title>
<polygon fill="#bfbfbf" stroke="black" points="89,-180.5 89,-233.5 249,-233.5 249,-180.5 89,-180.5"/>
<text text-anchor="start" x="97" y="-218.3" font-family="Helvetica,sans-Serif" font-size="14.00">/home/travis/build</text>
<text text-anchor="start" x="97" y="-203.3" font-family="Helvetica,sans-Serif" font-size="14.00">/konsim83/MPI&#45;MSFEC</text>
<text text-anchor="middle" x="169" y="-188.3" font-family="Helvetica,sans-Serif" font-size="14.00">/include/Q/q_basis.h</text>
</g>
<!-- Node2 -->
<g id="node2" class="node"><title>Node2</title>
<g id="a_node2"><a xlink:href="q__basis_8cc.html" target="_top" xlink:title="/home/travis/build\l/konsim83/MPI&#45;MSFEC\l/source/Q/q_basis.cc">
<polygon fill="white" stroke="black" points="0,-90.5 0,-143.5 160,-143.5 160,-90.5 0,-90.5"/>
<text text-anchor="start" x="8" y="-128.3" font-family="Helvetica,sans-Serif" font-size="14.00">/home/travis/build</text>
<text text-anchor="start" x="8" y="-113.3" font-family="Helvetica,sans-Serif" font-size="14.00">/konsim83/MPI&#45;MSFEC</text>
<text text-anchor="middle" x="80" y="-98.3" font-family="Helvetica,sans-Serif" font-size="14.00">/source/Q/q_basis.cc</text>
</a>
</g>
</g>
<!-- Node1&#45;&gt;Node2 -->
<g id="edge1" class="edge"><title>Node1&#45;&gt;Node2</title>
<path fill="none" stroke="midnightblue" d="M135.503,-172.879C125.753,-163.239 115.251,-152.855 106.034,-143.742"/>
<polygon fill="midnightblue" stroke="midnightblue" points="133.207,-175.531 142.778,-180.073 138.128,-170.553 133.207,-175.531"/>
</g>
<!-- Node3 -->
<g id="node3" class="node"><title>Node3</title>
<g id="a_node3"><a xlink:href="q__global_8h.html" target="_top" xlink:title="/home/travis/build\l/konsim83/MPI&#45;MSFEC\l/include/Q/q_global.h">
<polygon fill="white" stroke="black" points="178,-90.5 178,-143.5 338,-143.5 338,-90.5 178,-90.5"/>
<text text-anchor="start" x="186" y="-128.3" font-family="Helvetica,sans-Serif" font-size="14.00">/home/travis/build</text>
<text text-anchor="start" x="186" y="-113.3" font-family="Helvetica,sans-Serif" font-size="14.00">/konsim83/MPI&#45;MSFEC</text>
<text text-anchor="middle" x="258" y="-98.3" font-family="Helvetica,sans-Serif" font-size="14.00">/include/Q/q_global.h</text>
</a>
</g>
</g>
<!-- Node1&#45;&gt;Node3 -->
<g id="edge2" class="edge"><title>Node1&#45;&gt;Node3</title>
<path fill="none" stroke="midnightblue" d="M202.497,-172.879C212.247,-163.239 222.749,-152.855 231.966,-143.742"/>
<polygon fill="midnightblue" stroke="midnightblue" points="199.872,-170.553 195.222,-180.073 204.793,-175.531 199.872,-170.553"/>
</g>
<!-- Node4 -->
<g id="node4" class="node"><title>Node4</title>
<g id="a_node4"><a xlink:href="main__q_8cxx.html" target="_top" xlink:title="/home/travis/build\l/konsim83/MPI&#45;MSFEC\l/source/main_q.cxx">
<polygon fill="white" stroke="black" points="89,-0.5 89,-53.5 249,-53.5 249,-0.5 89,-0.5"/>
<text text-anchor="start" x="97" y="-38.3" font-family="Helvetica,sans-Serif" font-size="14.00">/home/travis/build</text>
<text text-anchor="start" x="97" y="-23.3" font-family="Helvetica,sans-Serif" font-size="14.00">/konsim83/MPI&#45;MSFEC</text>
<text text-anchor="middle" x="169" y="-8.3" font-family="Helvetica,sans-Serif" font-size="14.00">/source/main_q.cxx</text>
</a>
</g>
</g>
<!-- Node3&#45;&gt;Node4 -->
<g id="edge3" class="edge"><title>Node3&#45;&gt;Node4</title>
<path fill="none" stroke="midnightblue" d="M224.503,-82.8793C214.753,-73.2389 204.251,-62.8551 195.034,-53.7416"/>
<polygon fill="midnightblue" stroke="midnightblue" points="222.207,-85.5309 231.778,-90.0731 227.128,-80.5532 222.207,-85.5309"/>
</g>
<!-- Node5 -->
<g id="node5" class="node"><title>Node5</title>
<g id="a_node5"><a xlink:href="q__global_8cc.html" target="_top" xlink:title="/home/travis/build\l/konsim83/MPI&#45;MSFEC\l/source/Q/q_global.cc">
<polygon fill="white" stroke="black" points="267,-0.5 267,-53.5 427,-53.5 427,-0.5 267,-0.5"/>
<text text-anchor="start" x="275" y="-38.3" font-family="Helvetica,sans-Serif" font-size="14.00">/home/travis/build</text>
<text text-anchor="start" x="275" y="-23.3" font-family="Helvetica,sans-Serif" font-size="14.00">/konsim83/MPI&#45;MSFEC</text>
<text text-anchor="middle" x="347" y="-8.3" font-family="Helvetica,sans-Serif" font-size="14.00">/source/Q/q_global.cc</text>
</a>
</g>
</g>
<!-- Node3&#45;&gt;Node5 -->
<g id="edge4" class="edge"><title>Node3&#45;&gt;Node5</title>
<path fill="none" stroke="midnightblue" d="M291.497,-82.8793C301.247,-73.2389 311.749,-62.8551 320.966,-53.7416"/>
<polygon fill="midnightblue" stroke="midnightblue" points="288.872,-80.5532 284.222,-90.0731 293.793,-85.5309 288.872,-80.5532"/>
</g>
</g>
</svg>
