<?xml version="1.0" encoding="UTF-8" standalone="no"?>
<!DOCTYPE svg PUBLIC "-//W3C//DTD SVG 1.1//EN"
 "http://www.w3.org/Graphics/SVG/1.1/DTD/svg11.dtd">
<!-- Generated by graphviz version 2.38.0 (20140413.2041)
 -->
<!-- Title: /home/travis/build/konsim83/MPI&#45;MSFEC/source/Q/q_basis.cc Pages: 1 -->
<svg width="5240pt" height="422pt"
 viewBox="0.00 0.00 5240.19 422.00" xmlns="http://www.w3.org/2000/svg" xmlns:xlink="http://www.w3.org/1999/xlink">
<g id="graph0" class="graph" transform="scale(1 1) rotate(0) translate(4 418)">
<title>/home/travis/build/konsim83/MPI&#45;MSFEC/source/Q/q_basis.cc</title>
<polygon fill="white" stroke="none" points="-4,4 -4,-418 5236.19,-418 5236.19,4 -4,4"/>
<!-- Node1 -->
<g id="node1" class="node"><title>Node1</title>
<polygon fill="#bfbfbf" stroke="black" points="2946.13,-360.5 2946.13,-413.5 3106.13,-413.5 3106.13,-360.5 2946.13,-360.5"/>
<text text-anchor="start" x="2954.13" y="-398.3" font-family="Helvetica,sans-Serif" font-size="14.00">/home/travis/build</text>
<text text-anchor="start" x="2954.13" y="-383.3" font-family="Helvetica,sans-Serif" font-size="14.00">/konsim83/MPI&#45;MSFEC</text>
<text text-anchor="middle" x="3026.13" y="-368.3" font-family="Helvetica,sans-Serif" font-size="14.00">/source/Q/q_basis.cc</text>
</g>
<!-- Node2 -->
<g id="node2" class="node"><title>Node2</title>
<g id="a_node2"><a xlink:href="q__basis_8h.html" target="_top" xlink:title="Q/q_basis.h">
<polygon fill="white" stroke="black" points="2981.63,-300.5 2981.63,-323.5 3070.63,-323.5 3070.63,-300.5 2981.63,-300.5"/>
<text text-anchor="middle" x="3026.13" y="-308.3" font-family="Helvetica,sans-Serif" font-size="14.00">Q/q_basis.h</text>
</a>
</g>
</g>
<!-- Node1&#45;&gt;Node2 -->
<g id="edge1" class="edge"><title>Node1&#45;&gt;Node2</title>
<path fill="none" stroke="midnightblue" d="M3026.13,-360.468C3026.13,-351.762 3026.13,-342.138 3026.13,-333.844"/>
<polygon fill="midnightblue" stroke="midnightblue" points="3029.63,-333.571 3026.13,-323.571 3022.63,-333.571 3029.63,-333.571"/>
</g>
<!-- Node3 -->
<g id="node3" class="node"><title>Node3</title>
<polygon fill="white" stroke="#bfbfbf" points="2555.63,-158 2555.63,-181 2716.63,-181 2716.63,-158 2555.63,-158"/>
<text text-anchor="middle" x="2636.13" y="-165.8" font-family="Helvetica,sans-Serif" font-size="14.00">deal.II/base/logstream.h</text>
</g>
<!-- Node2&#45;&gt;Node3 -->
<g id="edge2" class="edge"><title>Node2&#45;&gt;Node3</title>
<path fill="none" stroke="midnightblue" d="M2993.77,-300.483C2965.32,-291.155 2922.86,-277.029 2886.13,-264 2809.93,-236.969 2721.47,-203.351 2672.85,-184.682"/>
<polygon fill="midnightblue" stroke="midnightblue" points="2673.98,-181.366 2663.39,-181.043 2671.47,-187.899 2673.98,-181.366"/>
</g>
<!-- Node4 -->
<g id="node4" class="node"><title>Node4</title>
<polygon fill="white" stroke="#bfbfbf" points="370.127,-83 370.127,-106 494.127,-106 494.127,-83 370.127,-83"/>
<text text-anchor="middle" x="432.127" y="-90.8" font-family="Helvetica,sans-Serif" font-size="14.00">deal.II/base/mpi.h</text>
</g>
<!-- Node2&#45;&gt;Node4 -->
<g id="edge3" class="edge"><title>Node2&#45;&gt;Node4</title>
<path fill="none" stroke="midnightblue" d="M2981.62,-310.982C2644.55,-310.749 505.409,-307.556 456.127,-264 414.191,-226.937 421.172,-152.479 427.641,-116.25"/>
<polygon fill="midnightblue" stroke="midnightblue" points="431.099,-116.803 429.578,-106.318 424.229,-115.463 431.099,-116.803"/>
</g>
<!-- Node5 -->
<g id="node5" class="node"><title>Node5</title>
<polygon fill="white" stroke="#bfbfbf" points="3039.63,-150.5 3039.63,-188.5 3194.63,-188.5 3194.63,-150.5 3039.63,-150.5"/>
<text text-anchor="start" x="3047.63" y="-173.3" font-family="Helvetica,sans-Serif" font-size="14.00">deal.II/base/quadrature</text>
<text text-anchor="middle" x="3117.13" y="-158.3" font-family="Helvetica,sans-Serif" font-size="14.00">_lib.h</text>
</g>
<!-- Node2&#45;&gt;Node5 -->
<g id="edge4" class="edge"><title>Node2&#45;&gt;Node5</title>
<path fill="none" stroke="midnightblue" d="M3034.2,-300.343C3041.25,-290.926 3051.65,-276.747 3060.13,-264 3074.78,-241.961 3090.36,-216.241 3101.51,-197.361"/>
<polygon fill="midnightblue" stroke="midnightblue" points="3104.56,-199.083 3106.61,-188.688 3098.53,-195.534 3104.56,-199.083"/>
</g>
<!-- Node6 -->
<g id="node6" class="node"><title>Node6</title>
<polygon fill="white" stroke="#bfbfbf" points="3213.13,-158 3213.13,-181 3391.13,-181 3391.13,-158 3213.13,-158"/>
<text text-anchor="middle" x="3302.13" y="-165.8" font-family="Helvetica,sans-Serif" font-size="14.00">deal.II/dofs/dof_accessor.h</text>
</g>
<!-- Node2&#45;&gt;Node6 -->
<g id="edge5" class="edge"><title>Node2&#45;&gt;Node6</title>
<path fill="none" stroke="midnightblue" d="M3039.91,-300.313C3068.02,-278.562 3130.26,-230.716 3141.13,-225 3175.56,-206.885 3217.24,-192.972 3249.56,-183.739"/>
<polygon fill="midnightblue" stroke="midnightblue" points="3250.58,-187.087 3259.27,-181.024 3248.7,-180.345 3250.58,-187.087"/>
</g>
<!-- Node7 -->
<g id="node7" class="node"><title>Node7</title>
<polygon fill="white" stroke="#bfbfbf" points="3408.63,-158 3408.63,-181 3577.63,-181 3577.63,-158 3408.63,-158"/>
<text text-anchor="middle" x="3493.13" y="-165.8" font-family="Helvetica,sans-Serif" font-size="14.00">deal.II/dofs/dof_handler.h</text>
</g>
<!-- Node2&#45;&gt;Node7 -->
<g id="edge6" class="edge"><title>Node2&#45;&gt;Node7</title>
<path fill="none" stroke="midnightblue" d="M3053.68,-300.491C3074.95,-291.897 3104.76,-278.782 3129.13,-264 3153.22,-249.383 3153.3,-236.284 3179.13,-225 3270.32,-185.154 3302.2,-206.711 3400.13,-189 3410.32,-187.157 3421.11,-185.103 3431.6,-183.053"/>
<polygon fill="midnightblue" stroke="midnightblue" points="3432.4,-186.463 3441.54,-181.095 3431.05,-179.595 3432.4,-186.463"/>
</g>
<!-- Node8 -->
<g id="node8" class="node"><title>Node8</title>
<polygon fill="white" stroke="#bfbfbf" points="3596.13,-158 3596.13,-181 3748.13,-181 3748.13,-158 3596.13,-158"/>
<text text-anchor="middle" x="3672.13" y="-165.8" font-family="Helvetica,sans-Serif" font-size="14.00">deal.II/dofs/dof_tools.h</text>
</g>
<!-- Node2&#45;&gt;Node8 -->
<g id="edge7" class="edge"><title>Node2&#45;&gt;Node8</title>
<path fill="none" stroke="midnightblue" d="M3070.64,-300.606C3099.49,-292.84 3137.29,-280.682 3168.13,-264 3192.61,-250.755 3191.33,-235.447 3217.13,-225 3369.86,-163.154 3423.31,-214.369 3586.13,-189 3596.42,-187.396 3607.33,-185.334 3617.8,-183.171"/>
<polygon fill="midnightblue" stroke="midnightblue" points="3618.62,-186.577 3627.67,-181.079 3617.16,-179.729 3618.62,-186.577"/>
</g>
<!-- Node9 -->
<g id="node9" class="node"><title>Node9</title>
<polygon fill="white" stroke="#bfbfbf" points="3601.13,-233 3601.13,-256 3711.13,-256 3711.13,-233 3601.13,-233"/>
<text text-anchor="middle" x="3656.13" y="-240.8" font-family="Helvetica,sans-Serif" font-size="14.00">deal.II/fe/fe_q.h</text>
</g>
<!-- Node2&#45;&gt;Node9 -->
<g id="edge8" class="edge"><title>Node2&#45;&gt;Node9</title>
<path fill="none" stroke="midnightblue" d="M3070.83,-309.957C3166.32,-307.14 3396.97,-297.184 3587.13,-264 3595.21,-262.59 3603.71,-260.675 3611.89,-258.609"/>
<polygon fill="midnightblue" stroke="midnightblue" points="3612.87,-261.97 3621.65,-256.038 3611.09,-255.201 3612.87,-261.97"/>
</g>
<!-- Node10 -->
<g id="node10" class="node"><title>Node10</title>
<polygon fill="white" stroke="#bfbfbf" points="3766.63,-158 3766.63,-181 3907.63,-181 3907.63,-158 3766.63,-158"/>
<text text-anchor="middle" x="3837.13" y="-165.8" font-family="Helvetica,sans-Serif" font-size="14.00">deal.II/fe/fe_values.h</text>
</g>
<!-- Node2&#45;&gt;Node10 -->
<g id="edge9" class="edge"><title>Node2&#45;&gt;Node10</title>
<path fill="none" stroke="midnightblue" d="M3070.79,-304.867C3108.63,-298.417 3163.52,-286.049 3207.13,-264 3231.66,-251.596 3229.57,-235.118 3255.13,-225 3359.12,-183.832 3646.53,-205.65 3757.13,-189 3766.96,-187.52 3777.37,-185.473 3787.32,-183.278"/>
<polygon fill="midnightblue" stroke="midnightblue" points="3788.11,-186.689 3797.07,-181.049 3786.55,-179.865 3788.11,-186.689"/>
</g>
<!-- Node11 -->
<g id="node11" class="node"><title>Node11</title>
<polygon fill="white" stroke="#bfbfbf" points="3926.13,-158 3926.13,-181 4108.13,-181 4108.13,-158 3926.13,-158"/>
<text text-anchor="middle" x="4017.13" y="-165.8" font-family="Helvetica,sans-Serif" font-size="14.00">deal.II/grid/grid_generator.h</text>
</g>
<!-- Node2&#45;&gt;Node11 -->
<g id="edge10" class="edge"><title>Node2&#45;&gt;Node11</title>
<path fill="none" stroke="midnightblue" d="M3070.89,-307.564C3116.6,-302.669 3188.67,-291.055 3245.13,-264 3269.92,-252.122 3267.5,-234.939 3293.13,-225 3422.63,-174.776 3779.23,-205.666 3917.13,-189 3930.19,-187.422 3944.12,-185.195 3957.3,-182.831"/>
<polygon fill="midnightblue" stroke="midnightblue" points="3958.01,-186.259 3967.21,-181.005 3956.74,-179.375 3958.01,-186.259"/>
</g>
<!-- Node12 -->
<g id="node12" class="node"><title>Node12</title>
<polygon fill="white" stroke="#bfbfbf" points="1802.63,-158 1802.63,-181 1915.63,-181 1915.63,-158 1802.63,-158"/>
<text text-anchor="middle" x="1859.13" y="-165.8" font-family="Helvetica,sans-Serif" font-size="14.00">deal.II/grid/tria.h</text>
</g>
<!-- Node2&#45;&gt;Node12 -->
<g id="edge11" class="edge"><title>Node2&#45;&gt;Node12</title>
<path fill="none" stroke="midnightblue" d="M2981.58,-311.291C2788,-312.261 2025.39,-312.922 1931.13,-264 1900.53,-248.122 1879.06,-212.734 1867.93,-190.335"/>
<polygon fill="midnightblue" stroke="midnightblue" points="1870.98,-188.617 1863.54,-181.074 1864.66,-191.611 1870.98,-188.617"/>
</g>
<!-- Node13 -->
<g id="node13" class="node"><title>Node13</title>
<polygon fill="white" stroke="#bfbfbf" points="1972.63,-158 1972.63,-181 2147.63,-181 2147.63,-158 1972.63,-158"/>
<text text-anchor="middle" x="2060.13" y="-165.8" font-family="Helvetica,sans-Serif" font-size="14.00">deal.II/grid/tria_accessor.h</text>
</g>
<!-- Node2&#45;&gt;Node13 -->
<g id="edge12" class="edge"><title>Node2&#45;&gt;Node13</title>
<path fill="none" stroke="midnightblue" d="M2981.28,-311.632C2872.05,-312.364 2583.94,-309.429 2349.13,-264 2254.81,-245.753 2148.39,-206.132 2094.85,-184.794"/>
<polygon fill="midnightblue" stroke="midnightblue" points="2096.06,-181.511 2085.48,-181.032 2093.45,-188.007 2096.06,-181.511"/>
</g>
<!-- Node14 -->
<g id="node14" class="node"><title>Node14</title>
<polygon fill="white" stroke="#bfbfbf" points="2165.63,-158 2165.63,-181 2328.63,-181 2328.63,-158 2165.63,-158"/>
<text text-anchor="middle" x="2247.13" y="-165.8" font-family="Helvetica,sans-Serif" font-size="14.00">deal.II/grid/tria_iterator.h</text>
</g>
<!-- Node2&#45;&gt;Node14 -->
<g id="edge13" class="edge"><title>Node2&#45;&gt;Node14</title>
<path fill="none" stroke="midnightblue" d="M2981.48,-309.195C2865.82,-304.218 2558.69,-288.984 2460.13,-264 2390,-246.225 2313.72,-207.543 2274.23,-185.917"/>
<polygon fill="midnightblue" stroke="midnightblue" points="2275.91,-182.846 2265.47,-181.065 2272.52,-188.97 2275.91,-182.846"/>
</g>
<!-- Node15 -->
<g id="node15" class="node"><title>Node15</title>
<polygon fill="white" stroke="#bfbfbf" points="4126.63,-150.5 4126.63,-188.5 4237.63,-188.5 4237.63,-150.5 4126.63,-150.5"/>
<text text-anchor="start" x="4134.63" y="-173.3" font-family="Helvetica,sans-Serif" font-size="14.00">deal.II/lac/affine</text>
<text text-anchor="middle" x="4182.13" y="-158.3" font-family="Helvetica,sans-Serif" font-size="14.00">_constraints.h</text>
</g>
<!-- Node2&#45;&gt;Node15 -->
<g id="edge14" class="edge"><title>Node2&#45;&gt;Node15</title>
<path fill="none" stroke="midnightblue" d="M3070.87,-309.515C3123.8,-306.278 3213.5,-296.067 3283.13,-264 3308.09,-252.501 3305.44,-234.787 3331.13,-225 3491.57,-163.869 3928.39,-215.194 4116.18,-188.814"/>
<polygon fill="midnightblue" stroke="midnightblue" points="4116.93,-192.241 4126.29,-187.278 4115.88,-185.32 4116.93,-192.241"/>
</g>
<!-- Node16 -->
<g id="node16" class="node"><title>Node16</title>
<polygon fill="white" stroke="#bfbfbf" points="4255.63,-150.5 4255.63,-188.5 4386.63,-188.5 4386.63,-150.5 4255.63,-150.5"/>
<text text-anchor="start" x="4263.63" y="-173.3" font-family="Helvetica,sans-Serif" font-size="14.00">deal.II/lac/dynamic</text>
<text text-anchor="middle" x="4321.13" y="-158.3" font-family="Helvetica,sans-Serif" font-size="14.00">_sparsity_pattern.h</text>
</g>
<!-- Node2&#45;&gt;Node16 -->
<g id="edge15" class="edge"><title>Node2&#45;&gt;Node16</title>
<path fill="none" stroke="midnightblue" d="M3070.64,-310.994C3130.22,-309.437 3238.03,-301.126 3321.13,-264 3346.22,-252.788 3343.42,-234.725 3369.13,-225 3548.83,-157.022 4037.75,-214.896 4245.52,-188.987"/>
<polygon fill="midnightblue" stroke="midnightblue" points="4246.05,-192.446 4255.5,-187.645 4245.12,-185.509 4246.05,-192.446"/>
</g>
<!-- Node17 -->
<g id="node17" class="node"><title>Node17</title>
<polygon fill="white" stroke="#bfbfbf" points="2347.13,-158 2347.13,-181 2499.13,-181 2499.13,-158 2347.13,-158"/>
<text text-anchor="middle" x="2423.13" y="-165.8" font-family="Helvetica,sans-Serif" font-size="14.00">deal.II/lac/full_matrix.h</text>
</g>
<!-- Node2&#45;&gt;Node17 -->
<g id="edge16" class="edge"><title>Node2&#45;&gt;Node17</title>
<path fill="none" stroke="midnightblue" d="M2981.4,-310.86C2872.29,-309.896 2595.35,-303.508 2513.13,-264 2478.83,-247.521 2450.62,-212.096 2435.39,-189.892"/>
<polygon fill="midnightblue" stroke="midnightblue" points="2438.12,-187.678 2429.68,-181.279 2432.29,-191.547 2438.12,-187.678"/>
</g>
<!-- Node18 -->
<g id="node18" class="node"><title>Node18</title>
<polygon fill="white" stroke="#bfbfbf" points="4404.63,-158 4404.63,-181 4567.63,-181 4567.63,-158 4404.63,-158"/>
<text text-anchor="middle" x="4486.13" y="-165.8" font-family="Helvetica,sans-Serif" font-size="14.00">deal.II/lac/precondition.h</text>
</g>
<!-- Node2&#45;&gt;Node18 -->
<g id="edge17" class="edge"><title>Node2&#45;&gt;Node18</title>
<path fill="none" stroke="midnightblue" d="M3070.67,-307.685C3149.06,-301.363 3308.22,-286.203 3359.13,-264 3384.32,-253.011 3381.4,-234.666 3407.13,-225 3510.07,-186.33 4286.95,-202.116 4396.13,-189 4408.01,-187.573 4420.65,-185.394 4432.59,-183.027"/>
<polygon fill="midnightblue" stroke="midnightblue" points="4433.33,-186.448 4442.42,-181.006 4431.92,-179.591 4433.33,-186.448"/>
</g>
<!-- Node19 -->
<g id="node19" class="node"><title>Node19</title>
<polygon fill="white" stroke="#bfbfbf" points="4585.63,-158 4585.63,-181 4732.63,-181 4732.63,-158 4585.63,-158"/>
<text text-anchor="middle" x="4659.13" y="-165.8" font-family="Helvetica,sans-Serif" font-size="14.00">deal.II/lac/solver_cg.h</text>
</g>
<!-- Node2&#45;&gt;Node19 -->
<g id="edge18" class="edge"><title>Node2&#45;&gt;Node19</title>
<path fill="none" stroke="midnightblue" d="M3070.68,-308.423C3156.02,-302.987 3339.22,-288.766 3397.13,-264 3422.4,-253.191 3419.37,-234.607 3445.13,-225 3563.03,-181.016 4452.3,-204.919 4577.13,-189 4587.66,-187.657 4598.83,-185.583 4609.42,-183.302"/>
<polygon fill="midnightblue" stroke="midnightblue" points="4610.37,-186.676 4619.36,-181.07 4608.83,-179.847 4610.37,-186.676"/>
</g>
<!-- Node20 -->
<g id="node20" class="node"><title>Node20</title>
<polygon fill="white" stroke="#bfbfbf" points="3729.63,-225.5 3729.63,-263.5 3848.63,-263.5 3848.63,-225.5 3729.63,-225.5"/>
<text text-anchor="start" x="3737.63" y="-248.3" font-family="Helvetica,sans-Serif" font-size="14.00">deal.II/lac/sparse</text>
<text text-anchor="middle" x="3789.13" y="-233.3" font-family="Helvetica,sans-Serif" font-size="14.00">_direct.h</text>
</g>
<!-- Node2&#45;&gt;Node20 -->
<g id="edge19" class="edge"><title>Node2&#45;&gt;Node20</title>
<path fill="none" stroke="midnightblue" d="M3070.72,-310.97C3179.97,-310.258 3469.64,-304.517 3719.45,-263.909"/>
<polygon fill="midnightblue" stroke="midnightblue" points="3720.15,-267.342 3729.44,-262.263 3719.01,-260.435 3720.15,-267.342"/>
</g>
<!-- Node21 -->
<g id="node21" class="node"><title>Node21</title>
<polygon fill="white" stroke="#bfbfbf" points="4750.63,-150.5 4750.63,-188.5 4869.63,-188.5 4869.63,-150.5 4750.63,-150.5"/>
<text text-anchor="start" x="4758.63" y="-173.3" font-family="Helvetica,sans-Serif" font-size="14.00">deal.II/lac/sparse</text>
<text text-anchor="middle" x="4810.13" y="-158.3" font-family="Helvetica,sans-Serif" font-size="14.00">_matrix.h</text>
</g>
<!-- Node2&#45;&gt;Node21 -->
<g id="edge20" class="edge"><title>Node2&#45;&gt;Node21</title>
<path fill="none" stroke="midnightblue" d="M3070.95,-309.013C3163.02,-304.42 3370.24,-291.31 3435.13,-264 3460.46,-253.337 3457.36,-234.566 3483.13,-225 3611.63,-177.296 4563.47,-208.185 4740.51,-188.836"/>
<polygon fill="midnightblue" stroke="midnightblue" points="4741.11,-192.287 4750.59,-187.554 4740.23,-185.343 4741.11,-192.287"/>
</g>
<!-- Node22 -->
<g id="node22" class="node"><title>Node22</title>
<polygon fill="white" stroke="#bfbfbf" points="2464.13,-83 2464.13,-106 2590.13,-106 2590.13,-83 2464.13,-83"/>
<text text-anchor="middle" x="2527.13" y="-90.8" font-family="Helvetica,sans-Serif" font-size="14.00">deal.II/lac/vector.h</text>
</g>
<!-- Node2&#45;&gt;Node22 -->
<g id="edge21" class="edge"><title>Node2&#45;&gt;Node22</title>
<path fill="none" stroke="midnightblue" d="M2981.6,-305.986C2874.03,-292.928 2604.54,-254.278 2546.13,-189 2528.34,-169.119 2525.41,-137.247 2525.69,-116.34"/>
<polygon fill="midnightblue" stroke="midnightblue" points="2529.19,-116.391 2526.08,-106.263 2522.19,-116.119 2529.19,-116.391"/>
</g>
<!-- Node23 -->
<g id="node23" class="node"><title>Node23</title>
<polygon fill="white" stroke="#bfbfbf" points="3866.63,-225.5 3866.63,-263.5 4009.63,-263.5 4009.63,-225.5 3866.63,-225.5"/>
<text text-anchor="start" x="3874.63" y="-248.3" font-family="Helvetica,sans-Serif" font-size="14.00">deal.II/numerics/data</text>
<text text-anchor="middle" x="3938.13" y="-233.3" font-family="Helvetica,sans-Serif" font-size="14.00">_out.h</text>
</g>
<!-- Node2&#45;&gt;Node23 -->
<g id="edge22" class="edge"><title>Node2&#45;&gt;Node23</title>
<path fill="none" stroke="midnightblue" d="M3071.04,-311.15C3194.88,-310.993 3551.73,-306.69 3855.93,-264.188"/>
<polygon fill="midnightblue" stroke="midnightblue" points="3856.87,-267.591 3866.28,-262.725 3855.89,-260.66 3856.87,-267.591"/>
</g>
<!-- Node24 -->
<g id="node24" class="node"><title>Node24</title>
<polygon fill="white" stroke="#bfbfbf" points="4888.13,-150.5 4888.13,-188.5 5042.13,-188.5 5042.13,-150.5 4888.13,-150.5"/>
<text text-anchor="start" x="4896.13" y="-173.3" font-family="Helvetica,sans-Serif" font-size="14.00">deal.II/numerics/matrix</text>
<text text-anchor="middle" x="4965.13" y="-158.3" font-family="Helvetica,sans-Serif" font-size="14.00">_tools.h</text>
</g>
<!-- Node2&#45;&gt;Node24 -->
<g id="edge23" class="edge"><title>Node2&#45;&gt;Node24</title>
<path fill="none" stroke="midnightblue" d="M3070.96,-309.518C3169.35,-305.748 3401.15,-293.885 3473.13,-264 3498.51,-253.46 3495.35,-234.539 3521.13,-225 3659.99,-173.615 4688.97,-205.673 4877.85,-188.858"/>
<polygon fill="midnightblue" stroke="midnightblue" points="4878.3,-192.33 4887.89,-187.822 4877.58,-185.367 4878.3,-192.33"/>
</g>
<!-- Node25 -->
<g id="node25" class="node"><title>Node25</title>
<polygon fill="white" stroke="#bfbfbf" points="5060.63,-150.5 5060.63,-188.5 5213.63,-188.5 5213.63,-150.5 5060.63,-150.5"/>
<text text-anchor="start" x="5068.63" y="-173.3" font-family="Helvetica,sans-Serif" font-size="14.00">deal.II/numerics/vector</text>
<text text-anchor="middle" x="5137.13" y="-158.3" font-family="Helvetica,sans-Serif" font-size="14.00">_tools.h</text>
</g>
<!-- Node2&#45;&gt;Node25 -->
<g id="edge24" class="edge"><title>Node2&#45;&gt;Node25</title>
<path fill="none" stroke="midnightblue" d="M3070.82,-309.95C3175.18,-306.975 3431.99,-296.482 3511.13,-264 3536.56,-253.563 3533.34,-234.508 3559.13,-225 3711.98,-168.646 4845.57,-207.116 5050.27,-188.801"/>
<polygon fill="midnightblue" stroke="midnightblue" points="5050.76,-192.268 5060.35,-187.762 5050.05,-185.305 5050.76,-192.268"/>
</g>
<!-- Node26 -->
<g id="node26" class="node"><title>Node26</title>
<polygon fill="white" stroke="#bfbfbf" points="691.127,-8 691.127,-31 745.127,-31 745.127,-8 691.127,-8"/>
<text text-anchor="middle" x="718.127" y="-15.8" font-family="Helvetica,sans-Serif" font-size="14.00">cmath</text>
</g>
<!-- Node2&#45;&gt;Node26 -->
<g id="edge25" class="edge"><title>Node2&#45;&gt;Node26</title>
<path fill="none" stroke="midnightblue" d="M2981.43,-310.806C2683.07,-309.418 985.072,-299.972 758.127,-264 644.395,-245.973 578.763,-281.462 510.127,-189 488.831,-160.311 533.126,-77.8754 536.127,-75 575.563,-37.2149 640.128,-25.5086 680.814,-21.9529"/>
<polygon fill="midnightblue" stroke="midnightblue" points="681.155,-25.4373 690.864,-21.1978 680.63,-18.457 681.155,-25.4373"/>
</g>
<!-- Node27 -->
<g id="node27" class="node"><title>Node27</title>
<polygon fill="white" stroke="#bfbfbf" points="1723.13,-8 1723.13,-31 1785.13,-31 1785.13,-8 1723.13,-8"/>
<text text-anchor="middle" x="1754.13" y="-15.8" font-family="Helvetica,sans-Serif" font-size="14.00">fstream</text>
</g>
<!-- Node2&#45;&gt;Node27 -->
<g id="edge26" class="edge"><title>Node2&#45;&gt;Node27</title>
<path fill="none" stroke="midnightblue" d="M3070.74,-310.603C3181.04,-309.05 3463.75,-301.425 3549.13,-264 3572.76,-253.641 3568.16,-234.555 3592.13,-225 3676.32,-191.436 5159.75,-253.791 5223.13,-189 5235.25,-176.609 5235.15,-162.483 5223.13,-150 5098.11,-20.2255 2178.14,-19.9061 1795.38,-20.4232"/>
<polygon fill="midnightblue" stroke="midnightblue" points="1795.3,-16.9232 1785.3,-20.4379 1795.31,-23.9232 1795.3,-16.9232"/>
</g>
<!-- Node28 -->
<g id="node28" class="node"><title>Node28</title>
<polygon fill="white" stroke="#bfbfbf" points="1638.63,-158 1638.63,-181 1707.63,-181 1707.63,-158 1638.63,-158"/>
<text text-anchor="middle" x="1673.13" y="-165.8" font-family="Helvetica,sans-Serif" font-size="14.00">iostream</text>
</g>
<!-- Node2&#45;&gt;Node28 -->
<g id="edge27" class="edge"><title>Node2&#45;&gt;Node28</title>
<path fill="none" stroke="midnightblue" d="M2981.56,-311.324C2798,-312.325 2100.14,-312.777 1886.13,-264 1815.53,-247.909 1739.33,-208.49 1700.01,-186.315"/>
<polygon fill="midnightblue" stroke="midnightblue" points="1701.26,-182.995 1690.84,-181.074 1697.79,-189.073 1701.26,-182.995"/>
</g>
<!-- Node29 -->
<g id="node29" class="node"><title>Node29</title>
<polygon fill="white" stroke="#bfbfbf" points="4027.63,-233 4027.63,-256 4094.63,-256 4094.63,-233 4027.63,-233"/>
<text text-anchor="middle" x="4061.13" y="-240.8" font-family="Helvetica,sans-Serif" font-size="14.00">memory</text>
</g>
<!-- Node2&#45;&gt;Node29 -->
<g id="edge28" class="edge"><title>Node2&#45;&gt;Node29</title>
<path fill="none" stroke="midnightblue" d="M3070.83,-311.051C3239.25,-310.908 3835.17,-307.287 4019.13,-264 4023.32,-263.015 4027.61,-261.622 4031.77,-260.037"/>
<polygon fill="midnightblue" stroke="midnightblue" points="4033.28,-263.198 4041.14,-256.093 4030.57,-256.745 4033.28,-263.198"/>
</g>
<!-- Node30 -->
<g id="node30" class="node"><title>Node30</title>
<g id="a_node30"><a xlink:href="q__parameters_8h.html" target="_top" xlink:title="Q/q_parameters.h">
<polygon fill="white" stroke="black" points="1529.63,-233 1529.63,-256 1656.63,-256 1656.63,-233 1529.63,-233"/>
<text text-anchor="middle" x="1593.13" y="-240.8" font-family="Helvetica,sans-Serif" font-size="14.00">Q/q_parameters.h</text>
</a>
</g>
</g>
<!-- Node2&#45;&gt;Node30 -->
<g id="edge29" class="edge"><title>Node2&#45;&gt;Node30</title>
<path fill="none" stroke="midnightblue" d="M2981.32,-310.568C2777.47,-308.431 1936.26,-297.697 1675.13,-264 1664.6,-262.641 1653.43,-260.561 1642.84,-258.278"/>
<polygon fill="midnightblue" stroke="midnightblue" points="1643.42,-254.822 1632.9,-256.045 1641.89,-261.652 1643.42,-254.822"/>
</g>
<!-- Node34 -->
<g id="node34" class="node"><title>Node34</title>
<g id="a_node34"><a xlink:href="q__post__processor_8h.html" target="_top" xlink:title="Q/q_post_processor.h">
<polygon fill="white" stroke="black" points="254.127,-233 254.127,-256 404.127,-256 404.127,-233 254.127,-233"/>
<text text-anchor="middle" x="329.127" y="-240.8" font-family="Helvetica,sans-Serif" font-size="14.00">Q/q_post_processor.h</text>
</a>
</g>
</g>
<!-- Node2&#45;&gt;Node34 -->
<g id="edge35" class="edge"><title>Node2&#45;&gt;Node34</title>
<path fill="none" stroke="midnightblue" d="M2981.44,-310.699C2658.13,-308.453 682.455,-293.591 418.127,-264 406.242,-262.669 393.594,-260.506 381.677,-258.118"/>
<polygon fill="midnightblue" stroke="midnightblue" points="382.375,-254.689 371.871,-256.074 380.946,-261.541 382.375,-254.689"/>
</g>
<!-- Node36 -->
<g id="node36" class="node"><title>Node36</title>
<g id="a_node36"><a xlink:href="eqn__coeff__A_8h.html" target="_top" xlink:title="equation_data/eqn_coeff_A.h">
<polygon fill="white" stroke="red" points="822.627,-83 822.627,-106 1015.63,-106 1015.63,-83 822.627,-83"/>
<text text-anchor="middle" x="919.127" y="-90.8" font-family="Helvetica,sans-Serif" font-size="14.00">equation_data/eqn_coeff_A.h</text>
</a>
</g>
</g>
<!-- Node2&#45;&gt;Node36 -->
<g id="edge56" class="edge"><title>Node2&#45;&gt;Node36</title>
<path fill="none" stroke="midnightblue" d="M2981.26,-310.581C2687.77,-307.762 1052.48,-290.87 1009.13,-264 960.46,-233.839 976.267,-200.415 949.127,-150 942.92,-138.469 935.863,-125.635 930.153,-115.319"/>
<polygon fill="midnightblue" stroke="midnightblue" points="933.075,-113.372 925.164,-106.325 926.954,-116.767 933.075,-113.372"/>
</g>
<!-- Node37 -->
<g id="node37" class="node"><title>Node37</title>
<g id="a_node37"><a xlink:href="config_8h.html" target="_top" xlink:title="config.h">
<polygon fill="white" stroke="black" points="102.127,-158 102.127,-181 166.127,-181 166.127,-158 102.127,-158"/>
<text text-anchor="middle" x="134.127" y="-165.8" font-family="Helvetica,sans-Serif" font-size="14.00">config.h</text>
</a>
</g>
</g>
<!-- Node2&#45;&gt;Node37 -->
<g id="edge51" class="edge"><title>Node2&#45;&gt;Node37</title>
<path fill="none" stroke="midnightblue" d="M2981.41,-311.097C2634.18,-311.747 378.664,-314.03 245.127,-264 204.538,-248.793 168.377,-211.805 149.021,-189.174"/>
<polygon fill="midnightblue" stroke="midnightblue" points="151.538,-186.726 142.451,-181.279 146.157,-191.204 151.538,-186.726"/>
</g>
<!-- Node43 -->
<g id="node43" class="node"><title>Node43</title>
<g id="a_node43"><a xlink:href="eqn__boundary__vals_8h.html" target="_top" xlink:title="equation_data/eqn_boundary\l_vals.h">
<polygon fill="white" stroke="red" points="748.127,-150.5 748.127,-188.5 940.127,-188.5 940.127,-150.5 748.127,-150.5"/>
<text text-anchor="start" x="756.127" y="-173.3" font-family="Helvetica,sans-Serif" font-size="14.00">equation_data/eqn_boundary</text>
<text text-anchor="middle" x="844.127" y="-158.3" font-family="Helvetica,sans-Serif" font-size="14.00">_vals.h</text>
</a>
</g>
</g>
<!-- Node2&#45;&gt;Node43 -->
<g id="edge52" class="edge"><title>Node2&#45;&gt;Node43</title>
<path fill="none" stroke="midnightblue" d="M2981.33,-310.833C2688.14,-309.631 1052.07,-301.268 954.127,-264 917.875,-250.206 885.255,-218.922 865.124,-196.334"/>
<polygon fill="midnightblue" stroke="midnightblue" points="867.737,-194.005 858.538,-188.75 862.452,-198.595 867.737,-194.005"/>
</g>
<!-- Node45 -->
<g id="node45" class="node"><title>Node45</title>
<g id="a_node45"><a xlink:href="eqn__coeff__R_8h.html" target="_top" xlink:title="equation_data/eqn_coeff_R.h">
<polygon fill="white" stroke="red" points="536.127,-158 536.127,-181 730.127,-181 730.127,-158 536.127,-158"/>
<text text-anchor="middle" x="633.127" y="-165.8" font-family="Helvetica,sans-Serif" font-size="14.00">equation_data/eqn_coeff_R.h</text>
</a>
</g>
</g>
<!-- Node2&#45;&gt;Node45 -->
<g id="edge57" class="edge"><title>Node2&#45;&gt;Node45</title>
<path fill="none" stroke="midnightblue" d="M2981.28,-310.887C2692.74,-310.046 1103.07,-303.629 891.127,-264 805.912,-248.066 711.489,-207.545 664,-185.439"/>
<polygon fill="midnightblue" stroke="midnightblue" points="665.411,-182.235 654.872,-181.147 662.432,-188.57 665.411,-182.235"/>
</g>
<!-- Node46 -->
<g id="node46" class="node"><title>Node46</title>
<g id="a_node46"><a xlink:href="eqn__exact__solution__lin_8h.html" target="_top" xlink:title="equation_data/eqn_exact\l_solution_lin.h">
<polygon fill="white" stroke="red" points="1186.13,-150.5 1186.13,-188.5 1354.13,-188.5 1354.13,-150.5 1186.13,-150.5"/>
<text text-anchor="start" x="1194.13" y="-173.3" font-family="Helvetica,sans-Serif" font-size="14.00">equation_data/eqn_exact</text>
<text text-anchor="middle" x="1270.13" y="-158.3" font-family="Helvetica,sans-Serif" font-size="14.00">_solution_lin.h</text>
</a>
</g>
</g>
<!-- Node2&#45;&gt;Node46 -->
<g id="edge61" class="edge"><title>Node2&#45;&gt;Node46</title>
<path fill="none" stroke="midnightblue" d="M2981.27,-310.471C2746.71,-307.586 1666.42,-292.825 1520.13,-264 1446.02,-249.398 1364.94,-215.487 1315.8,-192.774"/>
<polygon fill="midnightblue" stroke="midnightblue" points="1317.25,-189.588 1306.71,-188.53 1314.29,-195.931 1317.25,-189.588"/>
</g>
<!-- Node47 -->
<g id="node47" class="node"><title>Node47</title>
<g id="a_node47"><a xlink:href="eqn__rhs_8h.html" target="_top" xlink:title="equation_data/eqn_rhs.h">
<polygon fill="white" stroke="red" points="1018.13,-233 1018.13,-256 1184.13,-256 1184.13,-233 1018.13,-233"/>
<text text-anchor="middle" x="1101.13" y="-240.8" font-family="Helvetica,sans-Serif" font-size="14.00">equation_data/eqn_rhs.h</text>
</a>
</g>
</g>
<!-- Node2&#45;&gt;Node47 -->
<g id="edge69" class="edge"><title>Node2&#45;&gt;Node47</title>
<path fill="none" stroke="midnightblue" d="M2981.45,-310.43C2788.23,-307.819 2005.35,-295.735 1363.13,-264 1307.1,-261.231 1244.41,-256.851 1194.41,-253.048"/>
<polygon fill="midnightblue" stroke="midnightblue" points="1194.5,-249.545 1184.26,-252.271 1193.96,-256.524 1194.5,-249.545"/>
</g>
<!-- Node48 -->
<g id="node48" class="node"><title>Node48</title>
<g id="a_node48"><a xlink:href="basis__q1_8h.html" target="_top" xlink:title="functions/basis_q1.h">
<polygon fill="white" stroke="black" points="1940.13,-233 1940.13,-256 2080.13,-256 2080.13,-233 1940.13,-233"/>
<text text-anchor="middle" x="2010.13" y="-240.8" font-family="Helvetica,sans-Serif" font-size="14.00">functions/basis_q1.h</text>
</a>
</g>
</g>
<!-- Node2&#45;&gt;Node48 -->
<g id="edge77" class="edge"><title>Node2&#45;&gt;Node48</title>
<path fill="none" stroke="midnightblue" d="M2981.37,-311.29C2846.8,-311.616 2434.31,-308.623 2096.13,-264 2085.23,-262.562 2073.66,-260.471 2062.66,-258.207"/>
<polygon fill="midnightblue" stroke="midnightblue" points="2063.27,-254.757 2052.76,-256.093 2061.81,-261.603 2063.27,-254.757"/>
</g>
<!-- Node49 -->
<g id="node49" class="node"><title>Node49</title>
<g id="a_node49"><a xlink:href="my__other__tools_8h.html" target="_top" xlink:title="my_other_tools.h">
<polygon fill="white" stroke="red" points="4112.63,-233 4112.63,-256 4233.63,-256 4233.63,-233 4112.63,-233"/>
<text text-anchor="middle" x="4173.13" y="-240.8" font-family="Helvetica,sans-Serif" font-size="14.00">my_other_tools.h</text>
</a>
</g>
</g>
<!-- Node2&#45;&gt;Node49 -->
<g id="edge85" class="edge"><title>Node2&#45;&gt;Node49</title>
<path fill="none" stroke="midnightblue" d="M3070.79,-310.352C3247.76,-307.585 3900,-295.428 4104.13,-264 4112.59,-262.698 4121.5,-260.754 4130,-258.608"/>
<polygon fill="midnightblue" stroke="midnightblue" points="4130.98,-261.97 4139.75,-256.023 4129.19,-255.203 4130.98,-261.97"/>
</g>
<!-- Node50 -->
<g id="node50" class="node"><title>Node50</title>
<g id="a_node50"><a xlink:href="my__vector__tools_8h.html" target="_top" xlink:title="vector_tools/my_vector\l_tools.h">
<polygon fill="white" stroke="red" points="2895.13,-225.5 2895.13,-263.5 3051.13,-263.5 3051.13,-225.5 2895.13,-225.5"/>
<text text-anchor="start" x="2903.13" y="-248.3" font-family="Helvetica,sans-Serif" font-size="14.00">vector_tools/my_vector</text>
<text text-anchor="middle" x="2973.13" y="-233.3" font-family="Helvetica,sans-Serif" font-size="14.00">_tools.h</text>
</a>
</g>
</g>
<!-- Node2&#45;&gt;Node50 -->
<g id="edge86" class="edge"><title>Node2&#45;&gt;Node50</title>
<path fill="none" stroke="midnightblue" d="M3017.61,-300.476C3011.29,-292.658 3002.37,-281.639 2994.18,-271.518"/>
<polygon fill="midnightblue" stroke="midnightblue" points="2996.84,-269.243 2987.83,-263.671 2991.4,-273.646 2996.84,-269.243"/>
</g>
<!-- Node30&#45;&gt;Node27 -->
<g id="edge32" class="edge"><title>Node30&#45;&gt;Node27</title>
<path fill="none" stroke="midnightblue" d="M1594.31,-232.964C1597.01,-213.826 1605.34,-173.195 1629.13,-150 1663.25,-116.729 1698,-149.197 1730.13,-114 1748.32,-94.0649 1753.12,-62.2064 1754.18,-41.3172"/>
<polygon fill="midnightblue" stroke="midnightblue" points="1757.68,-41.3383 1754.44,-31.2501 1750.68,-41.1551 1757.68,-41.3383"/>
</g>
<!-- Node30&#45;&gt;Node28 -->
<g id="edge33" class="edge"><title>Node30&#45;&gt;Node28</title>
<path fill="none" stroke="midnightblue" d="M1604.93,-232.729C1617.89,-220.908 1638.87,-201.762 1654.14,-187.825"/>
<polygon fill="midnightblue" stroke="midnightblue" points="1656.51,-190.404 1661.53,-181.078 1651.79,-185.233 1656.51,-190.404"/>
</g>
<!-- Node31 -->
<g id="node31" class="node"><title>Node31</title>
<polygon fill="white" stroke="#bfbfbf" points="1279.13,-0.5 1279.13,-38.5 1431.13,-38.5 1431.13,-0.5 1279.13,-0.5"/>
<text text-anchor="start" x="1287.13" y="-23.3" font-family="Helvetica,sans-Serif" font-size="14.00">deal.II/base/parameter</text>
<text text-anchor="middle" x="1355.13" y="-8.3" font-family="Helvetica,sans-Serif" font-size="14.00">_handler.h</text>
</g>
<!-- Node30&#45;&gt;Node31 -->
<g id="edge30" class="edge"><title>Node30&#45;&gt;Node31</title>
<path fill="none" stroke="midnightblue" d="M1594.47,-232.72C1597.51,-203.198 1601.64,-120.231 1559.13,-75 1542.6,-57.413 1489.1,-43.4991 1441.04,-34.1327"/>
<polygon fill="midnightblue" stroke="midnightblue" points="1441.67,-30.6909 1431.19,-32.2619 1440.36,-37.5677 1441.67,-30.6909"/>
</g>
<!-- Node32 -->
<g id="node32" class="node"><title>Node32</title>
<polygon fill="white" stroke="#bfbfbf" points="1410.63,-158 1410.63,-181 1543.63,-181 1543.63,-158 1410.63,-158"/>
<text text-anchor="middle" x="1477.13" y="-165.8" font-family="Helvetica,sans-Serif" font-size="14.00">deal.II/grid/cell_id.h</text>
</g>
<!-- Node30&#45;&gt;Node32 -->
<g id="edge31" class="edge"><title>Node30&#45;&gt;Node32</title>
<path fill="none" stroke="midnightblue" d="M1576.01,-232.729C1556.62,-220.528 1524.84,-200.525 1502.55,-186.499"/>
<polygon fill="midnightblue" stroke="midnightblue" points="1504.26,-183.442 1493.94,-181.078 1500.54,-189.367 1504.26,-183.442"/>
</g>
<!-- Node33 -->
<g id="node33" class="node"><title>Node33</title>
<polygon fill="white" stroke="#bfbfbf" points="954.627,-8 954.627,-31 1007.63,-31 1007.63,-8 954.627,-8"/>
<text text-anchor="middle" x="981.127" y="-15.8" font-family="Helvetica,sans-Serif" font-size="14.00">vector</text>
</g>
<!-- Node30&#45;&gt;Node33 -->
<g id="edge34" class="edge"><title>Node30&#45;&gt;Node33</title>
<path fill="none" stroke="midnightblue" d="M1529.19,-233.78C1479.6,-224.78 1416.74,-209.665 1401.13,-189 1339.24,-107.101 1498.92,-143.843 1521.13,-114 1531.47,-100.094 1532.75,-87.8572 1521.13,-75 1504.18,-56.2576 1136.43,-30.6557 1017.72,-22.8521"/>
<polygon fill="midnightblue" stroke="midnightblue" points="1017.88,-19.3549 1007.67,-22.1949 1017.42,-26.34 1017.88,-19.3549"/>
</g>
<!-- Node34&#45;&gt;Node33 -->
<g id="edge42" class="edge"><title>Node34&#45;&gt;Node33</title>
<path fill="none" stroke="midnightblue" d="M330.413,-232.745C334.755,-197.289 349.259,-85.7373 361.127,-75 363.858,-72.5297 811.921,-34.7133 944.552,-23.5684"/>
<polygon fill="midnightblue" stroke="midnightblue" points="944.946,-27.0477 954.618,-22.7229 944.36,-20.0723 944.946,-27.0477"/>
</g>
<!-- Node35 -->
<g id="node35" class="node"><title>Node35</title>
<polygon fill="white" stroke="#bfbfbf" points="184.627,-150.5 184.627,-188.5 327.627,-188.5 327.627,-150.5 184.627,-150.5"/>
<text text-anchor="start" x="192.627" y="-173.3" font-family="Helvetica,sans-Serif" font-size="14.00">deal.II/numerics/data</text>
<text text-anchor="middle" x="256.127" y="-158.3" font-family="Helvetica,sans-Serif" font-size="14.00">_postprocessor.h</text>
</g>
<!-- Node34&#45;&gt;Node35 -->
<g id="edge36" class="edge"><title>Node34&#45;&gt;Node35</title>
<path fill="none" stroke="midnightblue" d="M318.356,-232.729C308.675,-223.048 294.081,-208.454 281.459,-195.832"/>
<polygon fill="midnightblue" stroke="midnightblue" points="283.853,-193.276 274.307,-188.68 278.903,-198.226 283.853,-193.276"/>
</g>
<!-- Node34&#45;&gt;Node36 -->
<g id="edge37" class="edge"><title>Node34&#45;&gt;Node36</title>
<path fill="none" stroke="midnightblue" d="M346.686,-232.954C380.38,-213.237 456.997,-170.902 527.127,-150 621.216,-121.957 732.396,-108.24 812.276,-101.593"/>
<polygon fill="midnightblue" stroke="midnightblue" points="812.664,-105.073 822.349,-100.779 812.1,-98.096 812.664,-105.073"/>
</g>
<!-- Node34&#45;&gt;Node37 -->
<g id="edge43" class="edge"><title>Node34&#45;&gt;Node37</title>
<path fill="none" stroke="midnightblue" d="M296.982,-232.999C265.624,-222.55 216.708,-205.704 175.127,-189 172.084,-187.777 168.935,-186.458 165.798,-185.106"/>
<polygon fill="midnightblue" stroke="midnightblue" points="167.1,-181.855 156.538,-181.02 164.274,-188.259 167.1,-181.855"/>
</g>
<!-- Node36&#45;&gt;Node26 -->
<g id="edge39" class="edge"><title>Node36&#45;&gt;Node26</title>
<path fill="none" stroke="midnightblue" d="M889.9,-82.8852C854.218,-69.9261 793.841,-47.998 755,-33.8916"/>
<polygon fill="midnightblue" stroke="midnightblue" points="755.73,-30.4333 745.136,-30.3093 753.341,-37.0128 755.73,-30.4333"/>
</g>
<!-- Node36&#45;&gt;Node27 -->
<g id="edge40" class="edge"><title>Node36&#45;&gt;Node27</title>
<path fill="none" stroke="midnightblue" d="M1015.68,-83.6749C1044.74,-80.7909 1076.73,-77.6906 1106.13,-75 1335.24,-54.0332 1610.22,-31.9114 1712.85,-23.7599"/>
<polygon fill="midnightblue" stroke="midnightblue" points="1713.4,-27.2276 1723.09,-22.9476 1712.84,-20.2495 1713.4,-27.2276"/>
</g>
<!-- Node36&#45;&gt;Node31 -->
<g id="edge38" class="edge"><title>Node36&#45;&gt;Node31</title>
<path fill="none" stroke="midnightblue" d="M982.06,-82.9631C1057.52,-70.3285 1184.38,-49.0883 1268.92,-34.9344"/>
<polygon fill="midnightblue" stroke="midnightblue" points="1269.72,-38.3478 1279.01,-33.2445 1268.57,-31.4439 1269.72,-38.3478"/>
</g>
<!-- Node36&#45;&gt;Node33 -->
<g id="edge41" class="edge"><title>Node36&#45;&gt;Node33</title>
<path fill="none" stroke="midnightblue" d="M928.276,-82.7286C937.983,-71.2989 953.507,-53.0209 965.224,-39.225"/>
<polygon fill="midnightblue" stroke="midnightblue" points="968.136,-41.2033 971.941,-31.3156 962.8,-36.6719 968.136,-41.2033"/>
</g>
<!-- Node37&#45;&gt;Node4 -->
<g id="edge44" class="edge"><title>Node37&#45;&gt;Node4</title>
<path fill="none" stroke="midnightblue" d="M155.486,-157.818C161.711,-154.993 168.596,-152.138 175.127,-150 209.843,-138.633 301.733,-120.154 365.656,-107.913"/>
<polygon fill="midnightblue" stroke="midnightblue" points="366.496,-111.316 375.663,-106.004 365.184,-104.44 366.496,-111.316"/>
</g>
<!-- Node37&#45;&gt;Node26 -->
<g id="edge47" class="edge"><title>Node37&#45;&gt;Node26</title>
<path fill="none" stroke="midnightblue" d="M101.961,-164.491C71.9542,-158.856 28.8044,-145.472 8.1272,-114 -1.39041,-99.5135 -3.65096,-87.7169 8.1272,-75 54.1292,-25.3315 541.212,-20.7592 680.886,-20.4741"/>
<polygon fill="midnightblue" stroke="midnightblue" points="681.086,-23.974 691.081,-20.4599 681.076,-16.974 681.086,-23.974"/>
</g>
<!-- Node38 -->
<g id="node38" class="node"><title>Node38</title>
<polygon fill="white" stroke="#bfbfbf" points="192.127,-75.5 192.127,-113.5 314.127,-113.5 314.127,-75.5 192.127,-75.5"/>
<text text-anchor="start" x="200.127" y="-98.3" font-family="Helvetica,sans-Serif" font-size="14.00">deal.II/lac/generic</text>
<text text-anchor="middle" x="253.127" y="-83.3" font-family="Helvetica,sans-Serif" font-size="14.00">_linear_algebra.h</text>
</g>
<!-- Node37&#45;&gt;Node38 -->
<g id="edge45" class="edge"><title>Node37&#45;&gt;Node38</title>
<path fill="none" stroke="midnightblue" d="M151.431,-157.885C167.974,-147.737 193.484,-132.088 214.815,-119.002"/>
<polygon fill="midnightblue" stroke="midnightblue" points="216.666,-121.973 223.36,-113.761 213.006,-116.006 216.666,-121.973"/>
</g>
<!-- Node39 -->
<g id="node39" class="node"><title>Node39</title>
<polygon fill="white" stroke="#bfbfbf" points="17.6272,-83 17.6272,-106 90.6272,-106 90.6272,-83 17.6272,-83"/>
<text text-anchor="middle" x="54.1272" y="-90.8" font-family="Helvetica,sans-Serif" font-size="14.00">algorithm</text>
</g>
<!-- Node37&#45;&gt;Node39 -->
<g id="edge46" class="edge"><title>Node37&#45;&gt;Node39</title>
<path fill="none" stroke="midnightblue" d="M122.323,-157.729C109.369,-145.908 88.3871,-126.762 73.1137,-112.825"/>
<polygon fill="midnightblue" stroke="midnightblue" points="75.4659,-110.233 65.7198,-106.078 70.7475,-115.404 75.4659,-110.233"/>
</g>
<!-- Node40 -->
<g id="node40" class="node"><title>Node40</title>
<polygon fill="white" stroke="#bfbfbf" points="108.627,-83 108.627,-106 173.627,-106 173.627,-83 108.627,-83"/>
<text text-anchor="middle" x="141.127" y="-90.8" font-family="Helvetica,sans-Serif" font-size="14.00">iomanip</text>
</g>
<!-- Node37&#45;&gt;Node40 -->
<g id="edge48" class="edge"><title>Node37&#45;&gt;Node40</title>
<path fill="none" stroke="midnightblue" d="M135.16,-157.729C136.194,-146.946 137.812,-130.068 139.103,-116.609"/>
<polygon fill="midnightblue" stroke="midnightblue" points="142.619,-116.604 140.09,-106.316 135.651,-115.936 142.619,-116.604"/>
</g>
<!-- Node41 -->
<g id="node41" class="node"><title>Node41</title>
<polygon fill="white" stroke="#bfbfbf" points="1314.13,-83 1314.13,-106 1362.13,-106 1362.13,-83 1314.13,-83"/>
<text text-anchor="middle" x="1338.13" y="-90.8" font-family="Helvetica,sans-Serif" font-size="14.00">limits</text>
</g>
<!-- Node37&#45;&gt;Node41 -->
<g id="edge49" class="edge"><title>Node37&#45;&gt;Node41</title>
<path fill="none" stroke="midnightblue" d="M153.596,-157.838C160.233,-154.718 167.824,-151.693 175.127,-150 419.872,-93.2475 1063.08,-181.352 1305.13,-114 1307.97,-113.208 1310.84,-112.122 1313.63,-110.871"/>
<polygon fill="midnightblue" stroke="midnightblue" points="1315.43,-113.882 1322.69,-106.166 1312.2,-107.671 1315.43,-113.882"/>
</g>
<!-- Node42 -->
<g id="node42" class="node"><title>Node42</title>
<polygon fill="white" stroke="#bfbfbf" points="1380.63,-83 1380.63,-106 1459.63,-106 1459.63,-83 1380.63,-83"/>
<text text-anchor="middle" x="1420.13" y="-90.8" font-family="Helvetica,sans-Serif" font-size="14.00">type_traits</text>
</g>
<!-- Node37&#45;&gt;Node42 -->
<g id="edge50" class="edge"><title>Node37&#45;&gt;Node42</title>
<path fill="none" stroke="midnightblue" d="M153.595,-157.831C160.231,-154.71 167.823,-151.687 175.127,-150 434.205,-90.1635 1110.3,-165.665 1371.13,-114 1376.35,-112.966 1381.74,-111.439 1386.95,-109.698"/>
<polygon fill="midnightblue" stroke="midnightblue" points="1388.47,-112.87 1396.67,-106.159 1386.07,-106.293 1388.47,-112.87"/>
</g>
<!-- Node43&#45;&gt;Node26 -->
<g id="edge54" class="edge"><title>Node43&#45;&gt;Node26</title>
<path fill="none" stroke="midnightblue" d="M819.589,-150.285C807.029,-140.323 791.94,-127.321 780.127,-114 759.36,-90.5813 740.234,-59.7195 728.872,-39.9878"/>
<polygon fill="midnightblue" stroke="midnightblue" points="731.915,-38.2579 723.945,-31.2768 725.822,-41.7041 731.915,-38.2579"/>
</g>
<!-- Node43&#45;&gt;Node33 -->
<g id="edge55" class="edge"><title>Node43&#45;&gt;Node33</title>
<path fill="none" stroke="midnightblue" d="M829.138,-150.471C814.425,-130.46 796.435,-97.963 813.127,-75 843,-33.9036 904.582,-23.1745 944.311,-20.719"/>
<polygon fill="midnightblue" stroke="midnightblue" points="944.576,-24.2105 954.4,-20.2431 944.247,-17.2182 944.576,-24.2105"/>
</g>
<!-- Node44 -->
<g id="node44" class="node"><title>Node44</title>
<polygon fill="white" stroke="#bfbfbf" points="1147.63,-83 1147.63,-106 1296.63,-106 1296.63,-83 1147.63,-83"/>
<text text-anchor="middle" x="1222.13" y="-90.8" font-family="Helvetica,sans-Serif" font-size="14.00">deal.II/base/function.h</text>
</g>
<!-- Node43&#45;&gt;Node44 -->
<g id="edge53" class="edge"><title>Node43&#45;&gt;Node44</title>
<path fill="none" stroke="midnightblue" d="M937.565,-150.455C1005.97,-137.244 1097.05,-119.656 1157.53,-107.974"/>
<polygon fill="midnightblue" stroke="midnightblue" points="1158.56,-111.341 1167.71,-106.008 1157.23,-104.468 1158.56,-111.341"/>
</g>
<!-- Node45&#45;&gt;Node26 -->
<g id="edge59" class="edge"><title>Node45&#45;&gt;Node26</title>
<path fill="none" stroke="midnightblue" d="M639.24,-157.856C653.453,-133.109 688.889,-71.4092 707.036,-39.8125"/>
<polygon fill="midnightblue" stroke="midnightblue" points="710.124,-41.4621 712.07,-31.0474 704.054,-37.9758 710.124,-41.4621"/>
</g>
<!-- Node45&#45;&gt;Node33 -->
<g id="edge60" class="edge"><title>Node45&#45;&gt;Node33</title>
<path fill="none" stroke="midnightblue" d="M649.916,-157.733C679.775,-138.939 744.491,-99.7898 803.127,-75 850.744,-54.869 908.352,-38.6169 944.873,-29.2562"/>
<polygon fill="midnightblue" stroke="midnightblue" points="945.752,-32.6444 954.589,-26.8012 944.037,-25.8576 945.752,-32.6444"/>
</g>
<!-- Node45&#45;&gt;Node44 -->
<g id="edge58" class="edge"><title>Node45&#45;&gt;Node44</title>
<path fill="none" stroke="midnightblue" d="M689.688,-157.977C705.644,-155.186 723.04,-152.309 739.127,-150 878.292,-130.023 1040.89,-112.965 1137.48,-103.488"/>
<polygon fill="midnightblue" stroke="midnightblue" points="1137.87,-106.967 1147.48,-102.511 1137.19,-99.9998 1137.87,-106.967"/>
</g>
<!-- Node46&#45;&gt;Node22 -->
<g id="edge64" class="edge"><title>Node46&#45;&gt;Node22</title>
<path fill="none" stroke="midnightblue" d="M1354.2,-155.461C1369.78,-153.378 1385.92,-151.439 1401.13,-150 1797.25,-112.523 2274.36,-100.199 2453.99,-96.7132"/>
<polygon fill="midnightblue" stroke="midnightblue" points="2454.18,-100.21 2464.11,-96.52 2454.05,-93.2115 2454.18,-100.21"/>
</g>
<!-- Node46&#45;&gt;Node26 -->
<g id="edge66" class="edge"><title>Node46&#45;&gt;Node26</title>
<path fill="none" stroke="midnightblue" d="M1353.63,-150.48C1404.34,-138.693 1460.71,-123.731 1468.13,-114 1478.63,-100.213 1479.96,-87.6704 1468.13,-75 1428.38,-32.4213 1003.21,-43.3658 945.127,-39 878.327,-33.9791 800.524,-27.5014 755.538,-23.6941"/>
<polygon fill="midnightblue" stroke="midnightblue" points="755.633,-20.1897 745.373,-22.832 755.042,-27.1647 755.633,-20.1897"/>
</g>
<!-- Node46&#45;&gt;Node27 -->
<g id="edge67" class="edge"><title>Node46&#45;&gt;Node27</title>
<path fill="none" stroke="midnightblue" d="M1354.46,-155.098C1425.72,-143.313 1521.95,-126.186 1559.13,-114 1621.84,-93.4424 1690.38,-57.0295 1727.17,-36.23"/>
<polygon fill="midnightblue" stroke="midnightblue" points="1729.29,-39.0472 1736.24,-31.0505 1725.82,-32.9677 1729.29,-39.0472"/>
</g>
<!-- Node46&#45;&gt;Node31 -->
<g id="edge63" class="edge"><title>Node46&#45;&gt;Node31</title>
<path fill="none" stroke="midnightblue" d="M1354.34,-156.923C1429.07,-145.788 1528.22,-128.549 1540.13,-114 1574.36,-72.1645 1504.72,-47.2326 1441.33,-33.7712"/>
<polygon fill="midnightblue" stroke="midnightblue" points="1441.72,-30.2794 1431.22,-31.7084 1440.32,-37.138 1441.72,-30.2794"/>
</g>
<!-- Node46&#45;&gt;Node33 -->
<g id="edge68" class="edge"><title>Node46&#45;&gt;Node33</title>
<path fill="none" stroke="midnightblue" d="M1354.36,-151.266C1418.75,-137.688 1497.32,-120.07 1502.13,-114 1512.89,-100.414 1513.73,-87.8783 1502.13,-75 1485.88,-56.9602 1134.09,-31.0862 1017.96,-23.0072"/>
<polygon fill="midnightblue" stroke="midnightblue" points="1018.01,-19.5022 1007.79,-22.3033 1017.52,-26.4855 1018.01,-19.5022"/>
</g>
<!-- Node46&#45;&gt;Node36 -->
<g id="edge65" class="edge"><title>Node46&#45;&gt;Node36</title>
<path fill="none" stroke="midnightblue" d="M1186.05,-151.015C1122.44,-137.784 1036.59,-119.929 979.62,-108.081"/>
<polygon fill="midnightblue" stroke="midnightblue" points="980.185,-104.624 969.682,-106.014 978.76,-111.477 980.185,-104.624"/>
</g>
<!-- Node46&#45;&gt;Node44 -->
<g id="edge62" class="edge"><title>Node46&#45;&gt;Node44</title>
<path fill="none" stroke="midnightblue" d="M1258.26,-150.455C1251.15,-139.636 1242.1,-125.881 1234.84,-114.839"/>
<polygon fill="midnightblue" stroke="midnightblue" points="1237.66,-112.758 1229.25,-106.325 1231.81,-116.604 1237.66,-112.758"/>
</g>
<!-- Node47&#45;&gt;Node26 -->
<g id="edge72" class="edge"><title>Node47&#45;&gt;Node26</title>
<path fill="none" stroke="midnightblue" d="M1018.09,-241.665C866.966,-237.462 559.499,-224.591 527.127,-189 469.015,-125.109 610.753,-60.6275 681.219,-33.6464"/>
<polygon fill="midnightblue" stroke="midnightblue" points="682.535,-36.8908 690.661,-30.0921 680.069,-30.3396 682.535,-36.8908"/>
</g>
<!-- Node47&#45;&gt;Node27 -->
<g id="edge73" class="edge"><title>Node47&#45;&gt;Node27</title>
<path fill="none" stroke="midnightblue" d="M1101.88,-232.618C1104.47,-198.726 1114.18,-96.0671 1138.13,-75 1159.74,-55.9925 1577.38,-30.5871 1712.41,-22.8396"/>
<polygon fill="midnightblue" stroke="midnightblue" points="1712.96,-26.314 1722.74,-22.2495 1712.56,-19.3254 1712.96,-26.314"/>
</g>
<!-- Node47&#45;&gt;Node31 -->
<g id="edge71" class="edge"><title>Node47&#45;&gt;Node31</title>
<path fill="none" stroke="midnightblue" d="M1097.49,-232.891C1088.25,-203.806 1067.26,-121.852 1106.13,-75 1126.84,-50.0253 1205.54,-35.7793 1268.99,-28.1659"/>
<polygon fill="midnightblue" stroke="midnightblue" points="1269.5,-31.6302 1279.03,-27.0003 1268.69,-24.6769 1269.5,-31.6302"/>
</g>
<!-- Node47&#45;&gt;Node33 -->
<g id="edge74" class="edge"><title>Node47&#45;&gt;Node33</title>
<path fill="none" stroke="midnightblue" d="M1093.98,-232.958C1086.87,-222.204 1075.93,-204.886 1068.13,-189 1044.19,-140.249 1051.03,-122.18 1024.13,-75 1016.76,-62.076 1006.5,-48.9443 997.849,-38.81"/>
<polygon fill="midnightblue" stroke="midnightblue" points="1000.29,-36.2813 991.061,-31.0725 995.025,-40.8979 1000.29,-36.2813"/>
</g>
<!-- Node47&#45;&gt;Node36 -->
<g id="edge75" class="edge"><title>Node47&#45;&gt;Node36</title>
<path fill="none" stroke="midnightblue" d="M1086.84,-232.83C1072.39,-221.976 1049.5,-204.582 1030.13,-189 997.745,-162.955 961.015,-131.661 938.981,-112.691"/>
<polygon fill="midnightblue" stroke="midnightblue" points="941.153,-109.943 931.295,-106.061 936.581,-115.243 941.153,-109.943"/>
</g>
<!-- Node47&#45;&gt;Node44 -->
<g id="edge70" class="edge"><title>Node47&#45;&gt;Node44</title>
<path fill="none" stroke="midnightblue" d="M1109.76,-232.821C1123.83,-215.434 1152.6,-179.936 1177.13,-150 1186.94,-138.017 1198.02,-124.598 1206.73,-114.074"/>
<polygon fill="midnightblue" stroke="midnightblue" points="1209.46,-116.272 1213.14,-106.337 1204.06,-111.807 1209.46,-116.272"/>
</g>
<!-- Node47&#45;&gt;Node46 -->
<g id="edge76" class="edge"><title>Node47&#45;&gt;Node46</title>
<path fill="none" stroke="midnightblue" d="M1125.7,-232.885C1150.01,-222.385 1187.95,-205.997 1218.84,-192.652"/>
<polygon fill="midnightblue" stroke="midnightblue" points="1220.39,-195.796 1228.18,-188.618 1217.62,-189.37 1220.39,-195.796"/>
</g>
<!-- Node48&#45;&gt;Node12 -->
<g id="edge79" class="edge"><title>Node48&#45;&gt;Node12</title>
<path fill="none" stroke="midnightblue" d="M1988.17,-232.885C1962.45,-220.451 1919.65,-199.758 1890.45,-185.641"/>
<polygon fill="midnightblue" stroke="midnightblue" points="1891.64,-182.329 1881.11,-181.128 1888.59,-188.631 1891.64,-182.329"/>
</g>
<!-- Node48&#45;&gt;Node13 -->
<g id="edge80" class="edge"><title>Node48&#45;&gt;Node13</title>
<path fill="none" stroke="midnightblue" d="M2017.5,-232.729C2025.26,-221.407 2037.62,-203.365 2047.03,-189.617"/>
<polygon fill="midnightblue" stroke="midnightblue" points="2049.96,-191.544 2052.72,-181.316 2044.18,-187.588 2049.96,-191.544"/>
</g>
<!-- Node48&#45;&gt;Node14 -->
<g id="edge81" class="edge"><title>Node48&#45;&gt;Node14</title>
<path fill="none" stroke="midnightblue" d="M2044.34,-232.963C2086.25,-220.052 2157.35,-198.153 2203.25,-184.014"/>
<polygon fill="midnightblue" stroke="midnightblue" points="2204.4,-187.322 2212.93,-181.034 2202.34,-180.633 2204.4,-187.322"/>
</g>
<!-- Node48&#45;&gt;Node17 -->
<g id="edge82" class="edge"><title>Node48&#45;&gt;Node17</title>
<path fill="none" stroke="midnightblue" d="M2078.88,-232.999C2145.16,-222.648 2248.23,-205.961 2337.13,-189 2346.48,-187.216 2356.38,-185.203 2366,-183.18"/>
<polygon fill="midnightblue" stroke="midnightblue" points="2366.84,-186.579 2375.89,-181.076 2365.38,-179.732 2366.84,-186.579"/>
</g>
<!-- Node48&#45;&gt;Node26 -->
<g id="edge83" class="edge"><title>Node48&#45;&gt;Node26</title>
<path fill="none" stroke="midnightblue" d="M1939.82,-235.184C1895.62,-227.755 1838.55,-214.008 1793.13,-189 1771.1,-176.871 1773.98,-162.455 1752.13,-150 1645.79,-89.3814 1607.74,-95.837 1487.13,-75 1249.23,-33.9028 1185.89,-56.8056 945.127,-39 878.321,-34.0594 800.52,-27.5557 755.536,-23.7216"/>
<polygon fill="midnightblue" stroke="midnightblue" points="755.633,-20.2173 745.372,-22.8532 755.037,-27.1919 755.633,-20.2173"/>
</g>
<!-- Node48&#45;&gt;Node27 -->
<g id="edge84" class="edge"><title>Node48&#45;&gt;Node27</title>
<path fill="none" stroke="midnightblue" d="M2001.4,-232.839C1986.45,-214.866 1954.61,-177.781 1924.13,-150 1875.29,-105.493 1812.13,-60.24 1778.21,-36.817"/>
<polygon fill="midnightblue" stroke="midnightblue" points="1780.08,-33.8505 1769.85,-31.0767 1776.11,-39.6217 1780.08,-33.8505"/>
</g>
<!-- Node48&#45;&gt;Node44 -->
<g id="edge78" class="edge"><title>Node48&#45;&gt;Node44</title>
<path fill="none" stroke="midnightblue" d="M1940.1,-237.832C1888.13,-231.4 1816.76,-217.765 1760.13,-189 1736.83,-177.167 1740.13,-160.328 1716.13,-150 1547.69,-77.5315 1486.34,-142.007 1305.13,-114 1295.17,-112.461 1284.62,-110.428 1274.51,-108.273"/>
<polygon fill="midnightblue" stroke="midnightblue" points="1275.09,-104.818 1264.57,-106.092 1273.59,-111.655 1275.09,-104.818"/>
</g>
<!-- Node50&#45;&gt;Node3 -->
<g id="edge88" class="edge"><title>Node50&#45;&gt;Node3</title>
<path fill="none" stroke="midnightblue" d="M2894.97,-226.569C2833.83,-213.325 2750.16,-195.202 2694.7,-183.187"/>
<polygon fill="midnightblue" stroke="midnightblue" points="2695.19,-179.714 2684.68,-181.017 2693.71,-186.555 2695.19,-179.714"/>
</g>
<!-- Node50&#45;&gt;Node4 -->
<g id="edge89" class="edge"><title>Node50&#45;&gt;Node4</title>
<path fill="none" stroke="midnightblue" d="M2894.93,-228.676C2843.62,-217.991 2781.94,-203.038 2759.13,-189 2739.54,-176.95 2745.97,-159.718 2725.13,-150 2628.84,-105.103 919.308,-117.577 813.127,-114 705.445,-110.373 580.749,-103.884 504.156,-99.6357"/>
<polygon fill="midnightblue" stroke="midnightblue" points="504.316,-96.1392 494.137,-99.0775 503.926,-103.128 504.316,-96.1392"/>
</g>
<!-- Node50&#45;&gt;Node5 -->
<g id="edge90" class="edge"><title>Node50&#45;&gt;Node5</title>
<path fill="none" stroke="midnightblue" d="M3008.72,-225.455C3027.93,-215.716 3051.84,-203.597 3072.31,-193.221"/>
<polygon fill="midnightblue" stroke="midnightblue" points="3074.11,-196.234 3081.44,-188.59 3070.94,-189.99 3074.11,-196.234"/>
</g>
<!-- Node50&#45;&gt;Node6 -->
<g id="edge91" class="edge"><title>Node50&#45;&gt;Node6</title>
<path fill="none" stroke="midnightblue" d="M3051.51,-226.107C3110.79,-212.954 3190.85,-195.191 3244.37,-183.315"/>
<polygon fill="midnightblue" stroke="midnightblue" points="3245.37,-186.678 3254.38,-181.095 3243.86,-179.844 3245.37,-186.678"/>
</g>
<!-- Node50&#45;&gt;Node7 -->
<g id="edge92" class="edge"><title>Node50&#45;&gt;Node7</title>
<path fill="none" stroke="midnightblue" d="M3051.28,-235.173C3137.08,-225.648 3278.79,-208.787 3400.13,-189 3410.95,-187.235 3422.44,-185.136 3433.51,-182.997"/>
<polygon fill="midnightblue" stroke="midnightblue" points="3434.39,-186.39 3443.53,-181.029 3433.04,-179.521 3434.39,-186.39"/>
</g>
<!-- Node50&#45;&gt;Node8 -->
<g id="edge93" class="edge"><title>Node50&#45;&gt;Node8</title>
<path fill="none" stroke="midnightblue" d="M3051.38,-236.447C3089.86,-232.986 3136.92,-228.762 3179.13,-225 3360.01,-208.879 3406.57,-216.147 3586.13,-189 3596.54,-187.426 3607.58,-185.357 3618.16,-183.175"/>
<polygon fill="midnightblue" stroke="midnightblue" points="3619.07,-186.56 3628.13,-181.06 3617.62,-179.712 3619.07,-186.56"/>
</g>
<!-- Node50&#45;&gt;Node10 -->
<g id="edge94" class="edge"><title>Node50&#45;&gt;Node10</title>
<path fill="none" stroke="midnightblue" d="M3051.13,-237.404C3099.02,-233.706 3161.62,-228.955 3217.13,-225 3457.05,-207.907 3519.19,-224.21 3757.13,-189 3766.96,-187.544 3777.38,-185.509 3787.33,-183.317"/>
<polygon fill="midnightblue" stroke="midnightblue" points="3788.11,-186.728 3797.08,-181.089 3786.55,-179.904 3788.11,-186.728"/>
</g>
<!-- Node50&#45;&gt;Node11 -->
<g id="edge95" class="edge"><title>Node50&#45;&gt;Node11</title>
<path fill="none" stroke="midnightblue" d="M3051.22,-238.142C3107.82,-234.316 3186.19,-229.135 3255.13,-225 3549.26,-207.355 3624.54,-223.873 3917.13,-189 3930.19,-187.443 3944.12,-185.225 3957.3,-182.863"/>
<polygon fill="midnightblue" stroke="midnightblue" points="3958.02,-186.291 3967.22,-181.038 3956.75,-179.407 3958.02,-186.291"/>
</g>
<!-- Node50&#45;&gt;Node12 -->
<g id="edge96" class="edge"><title>Node50&#45;&gt;Node12</title>
<path fill="none" stroke="midnightblue" d="M2894.92,-242.528C2724.87,-239.704 2308.96,-228.939 1963.13,-189 1949.42,-187.417 1934.79,-185.167 1920.96,-182.778"/>
<polygon fill="midnightblue" stroke="midnightblue" points="1921.51,-179.321 1911.05,-181.021 1920.29,-186.214 1921.51,-179.321"/>
</g>
<!-- Node50&#45;&gt;Node13 -->
<g id="edge97" class="edge"><title>Node50&#45;&gt;Node13</title>
<path fill="none" stroke="midnightblue" d="M2895.09,-241.507C2749.35,-237.074 2426.11,-223.883 2156.13,-189 2144.03,-187.437 2131.16,-185.293 2118.9,-183.018"/>
<polygon fill="midnightblue" stroke="midnightblue" points="2119.25,-179.523 2108.78,-181.086 2117.94,-186.399 2119.25,-179.523"/>
</g>
<!-- Node50&#45;&gt;Node14 -->
<g id="edge98" class="edge"><title>Node50&#45;&gt;Node14</title>
<path fill="none" stroke="midnightblue" d="M2895.08,-239.697C2774.96,-233.191 2537.72,-217.757 2338.13,-189 2326.9,-187.382 2314.96,-185.255 2303.56,-183.022"/>
<polygon fill="midnightblue" stroke="midnightblue" points="2304.2,-179.581 2293.71,-181.042 2302.82,-186.444 2304.2,-179.581"/>
</g>
<!-- Node50&#45;&gt;Node15 -->
<g id="edge99" class="edge"><title>Node50&#45;&gt;Node15</title>
<path fill="none" stroke="midnightblue" d="M3051.36,-238.669C3116.14,-234.743 3210.6,-229.188 3293.13,-225 3655.92,-206.589 3753.51,-246.834 4116.31,-188.895"/>
<polygon fill="midnightblue" stroke="midnightblue" points="4116.98,-192.332 4126.29,-187.286 4115.87,-185.421 4116.98,-192.332"/>
</g>
<!-- Node50&#45;&gt;Node16 -->
<g id="edge100" class="edge"><title>Node50&#45;&gt;Node16</title>
<path fill="none" stroke="midnightblue" d="M3051.33,-239.18C3123.85,-235.241 3234.76,-229.383 3331.13,-225 3734.75,-206.64 3842.03,-246.049 4245.31,-189.101"/>
<polygon fill="midnightblue" stroke="midnightblue" points="4246.09,-192.525 4255.5,-187.651 4245.11,-185.595 4246.09,-192.525"/>
</g>
<!-- Node50&#45;&gt;Node17 -->
<g id="edge101" class="edge"><title>Node50&#45;&gt;Node17</title>
<path fill="none" stroke="midnightblue" d="M2894.75,-234.029C2809.05,-223.549 2667.71,-205.9 2546.13,-189 2531.7,-186.995 2516.34,-184.763 2501.54,-182.562"/>
<polygon fill="midnightblue" stroke="midnightblue" points="2501.81,-179.063 2491.4,-181.046 2500.77,-185.986 2501.81,-179.063"/>
</g>
<!-- Node50&#45;&gt;Node18 -->
<g id="edge102" class="edge"><title>Node50&#45;&gt;Node18</title>
<path fill="none" stroke="midnightblue" d="M3051.26,-239.581C3131.12,-235.639 3258.76,-229.512 3369.13,-225 3825.47,-206.343 3942.63,-243.17 4396.13,-189 4408.01,-187.581 4420.65,-185.406 4432.59,-183.039"/>
<polygon fill="midnightblue" stroke="midnightblue" points="4433.33,-186.46 4442.42,-181.018 4431.92,-179.603 4433.33,-186.46"/>
</g>
<!-- Node50&#45;&gt;Node19 -->
<g id="edge103" class="edge"><title>Node50&#45;&gt;Node19</title>
<path fill="none" stroke="midnightblue" d="M3051.52,-239.879C3138.43,-235.93 3282.78,-229.563 3407.13,-225 3927.02,-205.922 4061.03,-254.547 4577.13,-189 4587.66,-187.662 4598.83,-185.591 4609.42,-183.311"/>
<polygon fill="midnightblue" stroke="midnightblue" points="4610.37,-186.685 4619.36,-181.078 4608.84,-179.855 4610.37,-186.685"/>
</g>
<!-- Node50&#45;&gt;Node21 -->
<g id="edge104" class="edge"><title>Node50&#45;&gt;Node21</title>
<path fill="none" stroke="midnightblue" d="M3051.21,-240.166C3144.8,-236.233 3306.41,-229.644 3445.13,-225 3730.06,-215.462 4440.69,-230.792 4740.54,-189.003"/>
<polygon fill="midnightblue" stroke="midnightblue" points="4741.19,-192.445 4750.59,-187.557 4740.2,-185.516 4741.19,-192.445"/>
</g>
<!-- Node50&#45;&gt;Node22 -->
<g id="edge105" class="edge"><title>Node50&#45;&gt;Node22</title>
<path fill="none" stroke="midnightblue" d="M2956.23,-225.333C2933.06,-200.857 2892.14,-159.278 2873.13,-150 2826.34,-127.167 2687.36,-110.497 2600.44,-101.96"/>
<polygon fill="midnightblue" stroke="midnightblue" points="2600.66,-98.4653 2590.37,-100.985 2599.99,-105.433 2600.66,-98.4653"/>
</g>
<!-- Node50&#45;&gt;Node24 -->
<g id="edge106" class="edge"><title>Node50&#45;&gt;Node24</title>
<path fill="none" stroke="midnightblue" d="M3051.32,-240.409C3151.39,-236.512 3330.14,-229.747 3483.13,-225 3789.97,-215.479 4554.34,-225.569 4877.52,-189.032"/>
<polygon fill="midnightblue" stroke="midnightblue" points="4878.36,-192.457 4887.89,-187.825 4877.55,-185.504 4878.36,-192.457"/>
</g>
<!-- Node50&#45;&gt;Node25 -->
<g id="edge107" class="edge"><title>Node50&#45;&gt;Node25</title>
<path fill="none" stroke="midnightblue" d="M3051.16,-240.615C3157.44,-236.742 3353.66,-229.797 3521.13,-225 3857.84,-215.355 4697.2,-228.68 5050.31,-188.926"/>
<polygon fill="midnightblue" stroke="midnightblue" points="5050.82,-192.389 5060.35,-187.764 5050.02,-185.436 5050.82,-192.389"/>
</g>
<!-- Node50&#45;&gt;Node26 -->
<g id="edge108" class="edge"><title>Node50&#45;&gt;Node26</title>
<path fill="none" stroke="midnightblue" d="M2966.02,-225.361C2956.69,-203.987 2938.26,-168.984 2911.13,-150 2794.28,-68.2308 2740.56,-93.3233 2599.13,-75 2234.53,-27.7656 1312.28,-57.9399 945.127,-39 878.228,-35.5489 800.457,-28.5633 755.503,-24.2328"/>
<polygon fill="midnightblue" stroke="midnightblue" points="755.639,-20.7295 745.347,-23.2457 754.962,-27.6967 755.639,-20.7295"/>
</g>
<!-- Node50&#45;&gt;Node27 -->
<g id="edge109" class="edge"><title>Node50&#45;&gt;Node27</title>
<path fill="none" stroke="midnightblue" d="M2982.37,-225.346C2998.45,-190.919 3026.29,-115.935 2987.13,-75 2945.04,-31.0116 2005.67,-22.172 1795.56,-20.7428"/>
<polygon fill="midnightblue" stroke="midnightblue" points="1795.3,-17.241 1785.27,-20.6748 1795.25,-24.2409 1795.3,-17.241"/>
</g>
<!-- Node50&#45;&gt;Node28 -->
<g id="edge110" class="edge"><title>Node50&#45;&gt;Node28</title>
<path fill="none" stroke="midnightblue" d="M2894.91,-242.771C2705.41,-240.378 2206.87,-230.328 1793.13,-189 1768.03,-186.493 1740.17,-182.287 1717.62,-178.518"/>
<polygon fill="midnightblue" stroke="midnightblue" points="1718.11,-175.051 1707.66,-176.825 1716.93,-181.952 1718.11,-175.051"/>
</g>
<!-- Node50&#45;&gt;Node33 -->
<g id="edge113" class="edge"><title>Node50&#45;&gt;Node33</title>
<path fill="none" stroke="midnightblue" d="M2977.13,-225.329C2983.69,-190.187 2992.02,-113.03 2949.13,-75 2914.22,-44.0519 1316.73,-40.9905 1270.13,-39 1179.48,-35.1285 1073.01,-27.5216 1018.08,-23.37"/>
<polygon fill="midnightblue" stroke="midnightblue" points="1018.04,-19.8567 1007.8,-22.5878 1017.51,-26.8365 1018.04,-19.8567"/>
</g>
<!-- Node50&#45;&gt;Node41 -->
<g id="edge111" class="edge"><title>Node50&#45;&gt;Node41</title>
<path fill="none" stroke="midnightblue" d="M2911.65,-225.494C2886.73,-216.635 2858.39,-204.486 2835.13,-189 2814.98,-175.591 2819.3,-159.687 2797.13,-150 2651.88,-86.5591 1523.96,-155.984 1371.13,-114 1368.28,-113.217 1365.41,-112.138 1362.62,-110.89"/>
<polygon fill="midnightblue" stroke="midnightblue" points="1364.05,-107.69 1353.56,-106.189 1360.82,-113.903 1364.05,-107.69"/>
</g>
<!-- Node50&#45;&gt;Node42 -->
<g id="edge112" class="edge"><title>Node50&#45;&gt;Node42</title>
<path fill="none" stroke="midnightblue" d="M2933.49,-225.351C2914.42,-215.776 2891.72,-203.095 2873.13,-189 2853.84,-174.379 2857.24,-159.834 2835.13,-150 2771.56,-121.732 1713.87,-100.84 1470,-96.3844"/>
<polygon fill="midnightblue" stroke="midnightblue" points="1469.74,-92.8791 1459.67,-96.1967 1469.61,-99.8779 1469.74,-92.8791"/>
</g>
<!-- Node50&#45;&gt;Node44 -->
<g id="edge87" class="edge"><title>Node50&#45;&gt;Node44</title>
<path fill="none" stroke="midnightblue" d="M2895.09,-228.235C2863.18,-219.787 2826.86,-207.204 2797.13,-189 2776.49,-176.364 2781.31,-159.681 2759.13,-150 2611.02,-85.3502 1465.53,-133.672 1305.13,-114 1294.24,-112.665 1282.69,-110.548 1271.77,-108.215"/>
<polygon fill="midnightblue" stroke="midnightblue" points="1272.48,-104.787 1261.96,-106.027 1270.96,-111.619 1272.48,-104.787"/>
</g>
<!-- Node50&#45;&gt;Node46 -->
<g id="edge114" class="edge"><title>Node50&#45;&gt;Node46</title>
<path fill="none" stroke="midnightblue" d="M2894.87,-241.883C2619.51,-236.022 1696.12,-214.87 1401.13,-189 1389.24,-187.958 1376.78,-186.576 1364.48,-185.037"/>
<polygon fill="midnightblue" stroke="midnightblue" points="1364.55,-181.518 1354.19,-183.71 1363.66,-188.46 1364.55,-181.518"/>
</g>
</g>
</svg>
