<?xml version="1.0" encoding="UTF-8" standalone="no"?>
<!DOCTYPE svg PUBLIC "-//W3C//DTD SVG 1.1//EN"
 "http://www.w3.org/Graphics/SVG/1.1/DTD/svg11.dtd">
<!-- Generated by graphviz version 2.38.0 (20140413.2041)
 -->
<!-- Title: /home/travis/build/konsim83/MPI&#45;MSFEC/include/Q_Ned/q_ned_parameters.h Pages: 1 -->
<svg width="791pt" height="377pt"
 viewBox="0.00 0.00 790.50 377.00" xmlns="http://www.w3.org/2000/svg" xmlns:xlink="http://www.w3.org/1999/xlink">
<g id="graph0" class="graph" transform="scale(1 1) rotate(0) translate(4 373)">
<title>/home/travis/build/konsim83/MPI&#45;MSFEC/include/Q_Ned/q_ned_parameters.h</title>
<polygon fill="white" stroke="none" points="-4,4 -4,-373 786.5,-373 786.5,4 -4,4"/>
<!-- Node1 -->
<g id="node1" class="node"><title>Node1</title>
<polygon fill="#bfbfbf" stroke="black" points="315.5,-300.5 315.5,-368.5 475.5,-368.5 475.5,-300.5 315.5,-300.5"/>
<text text-anchor="start" x="323.5" y="-353.3" font-family="Helvetica,sans-Serif" font-size="14.00">/home/travis/build</text>
<text text-anchor="start" x="323.5" y="-338.3" font-family="Helvetica,sans-Serif" font-size="14.00">/konsim83/MPI&#45;MSFEC</text>
<text text-anchor="start" x="323.5" y="-323.3" font-family="Helvetica,sans-Serif" font-size="14.00">/include/Q_Ned/q_ned</text>
<text text-anchor="middle" x="395.5" y="-308.3" font-family="Helvetica,sans-Serif" font-size="14.00">_parameters.h</text>
</g>
<!-- Node2 -->
<g id="node2" class="node"><title>Node2</title>
<g id="a_node2"><a xlink:href="q__ned__parameters_8cc.html" target="_top" xlink:title="/home/travis/build\l/konsim83/MPI&#45;MSFEC\l/source/Q_Ned/q_ned_parameters.cc">
<polygon fill="white" stroke="black" points="0,-203 0,-256 243,-256 243,-203 0,-203"/>
<text text-anchor="start" x="8" y="-240.8" font-family="Helvetica,sans-Serif" font-size="14.00">/home/travis/build</text>
<text text-anchor="start" x="8" y="-225.8" font-family="Helvetica,sans-Serif" font-size="14.00">/konsim83/MPI&#45;MSFEC</text>
<text text-anchor="middle" x="121.5" y="-210.8" font-family="Helvetica,sans-Serif" font-size="14.00">/source/Q_Ned/q_ned_parameters.cc</text>
</a>
</g>
</g>
<!-- Node1&#45;&gt;Node2 -->
<g id="edge1" class="edge"><title>Node1&#45;&gt;Node2</title>
<path fill="none" stroke="midnightblue" d="M305.644,-299.722C267.789,-285.492 224.465,-269.206 189.353,-256.007"/>
<polygon fill="midnightblue" stroke="midnightblue" points="304.55,-303.05 315.142,-303.293 307.013,-296.498 304.55,-303.05"/>
</g>
<!-- Node3 -->
<g id="node3" class="node"><title>Node3</title>
<g id="a_node3"><a xlink:href="q__ned__basis_8h.html" target="_top" xlink:title="/home/travis/build\l/konsim83/MPI&#45;MSFEC\l/include/Q_Ned/q_ned\l_basis.h">
<polygon fill="white" stroke="black" points="261.5,-195.5 261.5,-263.5 421.5,-263.5 421.5,-195.5 261.5,-195.5"/>
<text text-anchor="start" x="269.5" y="-248.3" font-family="Helvetica,sans-Serif" font-size="14.00">/home/travis/build</text>
<text text-anchor="start" x="269.5" y="-233.3" font-family="Helvetica,sans-Serif" font-size="14.00">/konsim83/MPI&#45;MSFEC</text>
<text text-anchor="start" x="269.5" y="-218.3" font-family="Helvetica,sans-Serif" font-size="14.00">/include/Q_Ned/q_ned</text>
<text text-anchor="middle" x="341.5" y="-203.3" font-family="Helvetica,sans-Serif" font-size="14.00">_basis.h</text>
</a>
</g>
</g>
<!-- Node1&#45;&gt;Node3 -->
<g id="edge2" class="edge"><title>Node1&#45;&gt;Node3</title>
<path fill="none" stroke="midnightblue" d="M373.372,-291.293C368.531,-282.058 363.473,-272.412 358.851,-263.595"/>
<polygon fill="midnightblue" stroke="midnightblue" points="370.374,-293.112 378.117,-300.343 376.573,-289.861 370.374,-293.112"/>
</g>
<!-- Node5 -->
<g id="node5" class="node"><title>Node5</title>
<g id="a_node5"><a xlink:href="q__ned__global_8h.html" target="_top" xlink:title="/home/travis/build\l/konsim83/MPI&#45;MSFEC\l/include/Q_Ned/q_ned\l_global.h">
<polygon fill="white" stroke="black" points="369.5,-90.5 369.5,-158.5 529.5,-158.5 529.5,-90.5 369.5,-90.5"/>
<text text-anchor="start" x="377.5" y="-143.3" font-family="Helvetica,sans-Serif" font-size="14.00">/home/travis/build</text>
<text text-anchor="start" x="377.5" y="-128.3" font-family="Helvetica,sans-Serif" font-size="14.00">/konsim83/MPI&#45;MSFEC</text>
<text text-anchor="start" x="377.5" y="-113.3" font-family="Helvetica,sans-Serif" font-size="14.00">/include/Q_Ned/q_ned</text>
<text text-anchor="middle" x="449.5" y="-98.3" font-family="Helvetica,sans-Serif" font-size="14.00">_global.h</text>
</a>
</g>
</g>
<!-- Node1&#45;&gt;Node5 -->
<g id="edge7" class="edge"><title>Node1&#45;&gt;Node5</title>
<path fill="none" stroke="midnightblue" d="M419.676,-290.961C423.829,-282.256 427.702,-273 430.5,-264 441.38,-229.004 446.036,-187.106 448.024,-158.624"/>
<polygon fill="midnightblue" stroke="midnightblue" points="416.424,-289.64 415.097,-300.151 422.689,-292.762 416.424,-289.64"/>
</g>
<!-- Node8 -->
<g id="node8" class="node"><title>Node8</title>
<g id="a_node8"><a xlink:href="q__ned__ref_8h.html" target="_top" xlink:title="/home/travis/build\l/konsim83/MPI&#45;MSFEC\l/include/Q_Ned/q_ned_ref.h">
<polygon fill="white" stroke="black" points="477.5,-203 477.5,-256 663.5,-256 663.5,-203 477.5,-203"/>
<text text-anchor="start" x="485.5" y="-240.8" font-family="Helvetica,sans-Serif" font-size="14.00">/home/travis/build</text>
<text text-anchor="start" x="485.5" y="-225.8" font-family="Helvetica,sans-Serif" font-size="14.00">/konsim83/MPI&#45;MSFEC</text>
<text text-anchor="middle" x="570.5" y="-210.8" font-family="Helvetica,sans-Serif" font-size="14.00">/include/Q_Ned/q_ned_ref.h</text>
</a>
</g>
</g>
<!-- Node1&#45;&gt;Node8 -->
<g id="edge8" class="edge"><title>Node1&#45;&gt;Node8</title>
<path fill="none" stroke="midnightblue" d="M460.544,-295.217C482.725,-282.162 506.971,-267.891 527.038,-256.081"/>
<polygon fill="midnightblue" stroke="midnightblue" points="458.677,-292.254 451.834,-300.343 462.228,-298.287 458.677,-292.254"/>
</g>
<!-- Node4 -->
<g id="node4" class="node"><title>Node4</title>
<g id="a_node4"><a xlink:href="q__ned__basis_8cc.html" target="_top" xlink:title="/home/travis/build\l/konsim83/MPI&#45;MSFEC\l/source/Q_Ned/q_ned_basis.cc">
<polygon fill="white" stroke="black" points="145.5,-98 145.5,-151 351.5,-151 351.5,-98 145.5,-98"/>
<text text-anchor="start" x="153.5" y="-135.8" font-family="Helvetica,sans-Serif" font-size="14.00">/home/travis/build</text>
<text text-anchor="start" x="153.5" y="-120.8" font-family="Helvetica,sans-Serif" font-size="14.00">/konsim83/MPI&#45;MSFEC</text>
<text text-anchor="middle" x="248.5" y="-105.8" font-family="Helvetica,sans-Serif" font-size="14.00">/source/Q_Ned/q_ned_basis.cc</text>
</a>
</g>
</g>
<!-- Node3&#45;&gt;Node4 -->
<g id="edge3" class="edge"><title>Node3&#45;&gt;Node4</title>
<path fill="none" stroke="midnightblue" d="M304.731,-187.778C293.558,-175.403 281.6,-162.16 271.597,-151.081"/>
<polygon fill="midnightblue" stroke="midnightblue" points="302.263,-190.267 311.562,-195.343 307.458,-185.575 302.263,-190.267"/>
</g>
<!-- Node3&#45;&gt;Node5 -->
<g id="edge4" class="edge"><title>Node3&#45;&gt;Node5</title>
<path fill="none" stroke="midnightblue" d="M383.646,-188.305C393.959,-178.47 404.879,-168.055 414.799,-158.595"/>
<polygon fill="midnightblue" stroke="midnightblue" points="381.087,-185.909 376.266,-195.343 385.919,-190.974 381.087,-185.909"/>
</g>
<!-- Node6 -->
<g id="node6" class="node"><title>Node6</title>
<g id="a_node6"><a xlink:href="main__q__ned_8cxx.html" target="_top" xlink:title="/home/travis/build\l/konsim83/MPI&#45;MSFEC\l/source/main_q_ned.cxx">
<polygon fill="white" stroke="black" points="482.5,-0.5 482.5,-53.5 646.5,-53.5 646.5,-0.5 482.5,-0.5"/>
<text text-anchor="start" x="490.5" y="-38.3" font-family="Helvetica,sans-Serif" font-size="14.00">/home/travis/build</text>
<text text-anchor="start" x="490.5" y="-23.3" font-family="Helvetica,sans-Serif" font-size="14.00">/konsim83/MPI&#45;MSFEC</text>
<text text-anchor="middle" x="564.5" y="-8.3" font-family="Helvetica,sans-Serif" font-size="14.00">/source/main_q_ned.cxx</text>
</a>
</g>
</g>
<!-- Node5&#45;&gt;Node6 -->
<g id="edge5" class="edge"><title>Node5&#45;&gt;Node6</title>
<path fill="none" stroke="midnightblue" d="M497.368,-83.7485C509.666,-73.5363 522.568,-62.8215 533.739,-53.5452"/>
<polygon fill="midnightblue" stroke="midnightblue" points="494.856,-81.2854 489.399,-90.3668 499.328,-86.6707 494.856,-81.2854"/>
</g>
<!-- Node7 -->
<g id="node7" class="node"><title>Node7</title>
<g id="a_node7"><a xlink:href="q__ned__global_8cc.html" target="_top" xlink:title="/home/travis/build\l/konsim83/MPI&#45;MSFEC\l/source/Q_Ned/q_ned_global.cc">
<polygon fill="white" stroke="black" points="254.5,-0.5 254.5,-53.5 464.5,-53.5 464.5,-0.5 254.5,-0.5"/>
<text text-anchor="start" x="262.5" y="-38.3" font-family="Helvetica,sans-Serif" font-size="14.00">/home/travis/build</text>
<text text-anchor="start" x="262.5" y="-23.3" font-family="Helvetica,sans-Serif" font-size="14.00">/konsim83/MPI&#45;MSFEC</text>
<text text-anchor="middle" x="359.5" y="-8.3" font-family="Helvetica,sans-Serif" font-size="14.00">/source/Q_Ned/q_ned_global.cc</text>
</a>
</g>
</g>
<!-- Node5&#45;&gt;Node7 -->
<g id="edge6" class="edge"><title>Node5&#45;&gt;Node7</title>
<path fill="none" stroke="midnightblue" d="M411.212,-82.872C401.838,-72.9252 392.066,-62.5565 383.574,-53.5452"/>
<polygon fill="midnightblue" stroke="midnightblue" points="408.869,-85.4897 418.275,-90.3668 413.964,-80.6888 408.869,-85.4897"/>
</g>
<!-- Node8&#45;&gt;Node6 -->
<g id="edge9" class="edge"><title>Node8&#45;&gt;Node6</title>
<path fill="none" stroke="midnightblue" d="M569.425,-192.584C568.229,-152.604 566.325,-88.99 565.269,-53.7024"/>
<polygon fill="midnightblue" stroke="midnightblue" points="565.93,-192.808 569.728,-202.699 572.927,-192.598 565.93,-192.808"/>
</g>
<!-- Node9 -->
<g id="node9" class="node"><title>Node9</title>
<g id="a_node9"><a xlink:href="q__ned__ref_8cc.html" target="_top" xlink:title="/home/travis/build\l/konsim83/MPI&#45;MSFEC\l/source/Q_Ned/q_ned_ref.cc">
<polygon fill="white" stroke="black" points="592.5,-98 592.5,-151 782.5,-151 782.5,-98 592.5,-98"/>
<text text-anchor="start" x="600.5" y="-135.8" font-family="Helvetica,sans-Serif" font-size="14.00">/home/travis/build</text>
<text text-anchor="start" x="600.5" y="-120.8" font-family="Helvetica,sans-Serif" font-size="14.00">/konsim83/MPI&#45;MSFEC</text>
<text text-anchor="middle" x="687.5" y="-105.8" font-family="Helvetica,sans-Serif" font-size="14.00">/source/Q_Ned/q_ned_ref.cc</text>
</a>
</g>
</g>
<!-- Node8&#45;&gt;Node9 -->
<g id="edge10" class="edge"><title>Node8&#45;&gt;Node9</title>
<path fill="none" stroke="midnightblue" d="M607.525,-195.906C623.901,-181.489 642.884,-164.778 658.245,-151.255"/>
<polygon fill="midnightblue" stroke="midnightblue" points="604.915,-193.54 599.722,-202.774 609.541,-198.794 604.915,-193.54"/>
</g>
</g>
</svg>
