<?xml version="1.0" encoding="UTF-8" standalone="no"?>
<!DOCTYPE svg PUBLIC "-//W3C//DTD SVG 1.1//EN"
 "http://www.w3.org/Graphics/SVG/1.1/DTD/svg11.dtd">
<!-- Generated by graphviz version 2.38.0 (20140413.2041)
 -->
<!-- Title: /home/travis/build/konsim83/MPI&#45;MSFEC/source/Q_Ned/q_ned_global.cc Pages: 1 -->
<svg width="7353pt" height="197pt"
 viewBox="0.00 0.00 7353.00 197.00" xmlns="http://www.w3.org/2000/svg" xmlns:xlink="http://www.w3.org/1999/xlink">
<g id="graph0" class="graph" transform="scale(1 1) rotate(0) translate(4 193)">
<title>/home/travis/build/konsim83/MPI&#45;MSFEC/source/Q_Ned/q_ned_global.cc</title>
<polygon fill="white" stroke="none" points="-4,4 -4,-193 7349,-193 7349,4 -4,4"/>
<!-- Node1 -->
<g id="node1" class="node"><title>Node1</title>
<polygon fill="#bfbfbf" stroke="black" points="3767.5,-135.5 3767.5,-188.5 3977.5,-188.5 3977.5,-135.5 3767.5,-135.5"/>
<text text-anchor="start" x="3775.5" y="-173.3" font-family="Helvetica,sans-Serif" font-size="14.00">/home/travis/build</text>
<text text-anchor="start" x="3775.5" y="-158.3" font-family="Helvetica,sans-Serif" font-size="14.00">/konsim83/MPI&#45;MSFEC</text>
<text text-anchor="middle" x="3872.5" y="-143.3" font-family="Helvetica,sans-Serif" font-size="14.00">/source/Q_Ned/q_ned_global.cc</text>
</g>
<!-- Node2 -->
<g id="node2" class="node"><title>Node2</title>
<g id="a_node2"><a xlink:href="q__ned__global_8h.html" target="_top" xlink:title="Q_Ned/q_ned_global.h">
<polygon fill="white" stroke="red" points="3794.5,-75.5 3794.5,-98.5 3950.5,-98.5 3950.5,-75.5 3794.5,-75.5"/>
<text text-anchor="middle" x="3872.5" y="-83.3" font-family="Helvetica,sans-Serif" font-size="14.00">Q_Ned/q_ned_global.h</text>
</a>
</g>
</g>
<!-- Node1&#45;&gt;Node2 -->
<g id="edge1" class="edge"><title>Node1&#45;&gt;Node2</title>
<path fill="none" stroke="midnightblue" d="M3872.5,-135.468C3872.5,-126.762 3872.5,-117.138 3872.5,-108.844"/>
<polygon fill="midnightblue" stroke="midnightblue" points="3876,-108.571 3872.5,-98.5709 3869,-108.571 3876,-108.571"/>
</g>
<!-- Node3 -->
<g id="node3" class="node"><title>Node3</title>
<polygon fill="white" stroke="#bfbfbf" points="0,-0.5 0,-38.5 155,-38.5 155,-0.5 0,-0.5"/>
<text text-anchor="start" x="8" y="-23.3" font-family="Helvetica,sans-Serif" font-size="14.00">deal.II/base/conditional</text>
<text text-anchor="middle" x="77.5" y="-8.3" font-family="Helvetica,sans-Serif" font-size="14.00">_ostream.h</text>
</g>
<!-- Node2&#45;&gt;Node3 -->
<g id="edge2" class="edge"><title>Node2&#45;&gt;Node3</title>
<path fill="none" stroke="midnightblue" d="M3794.28,-85.9452C3296.74,-85.4733 581.169,-81.0251 165.161,-39.003"/>
<polygon fill="midnightblue" stroke="midnightblue" points="165.516,-35.521 155.201,-37.9398 164.773,-42.4815 165.516,-35.521"/>
</g>
<!-- Node4 -->
<g id="node4" class="node"><title>Node4</title>
<polygon fill="white" stroke="#bfbfbf" points="173,-8 173,-31 322,-31 322,-8 173,-8"/>
<text text-anchor="middle" x="247.5" y="-15.8" font-family="Helvetica,sans-Serif" font-size="14.00">deal.II/base/function.h</text>
</g>
<!-- Node2&#45;&gt;Node4 -->
<g id="edge3" class="edge"><title>Node2&#45;&gt;Node4</title>
<path fill="none" stroke="midnightblue" d="M3794.31,-85.9173C3306.1,-85.2743 685.734,-79.9264 331.5,-39 320.37,-37.7141 308.548,-35.5927 297.396,-33.2362"/>
<polygon fill="midnightblue" stroke="midnightblue" points="297.902,-29.7635 287.382,-31.023 296.391,-36.5986 297.902,-29.7635"/>
</g>
<!-- Node5 -->
<g id="node5" class="node"><title>Node5</title>
<polygon fill="white" stroke="#bfbfbf" points="340.5,-0.5 340.5,-38.5 462.5,-38.5 462.5,-0.5 340.5,-0.5"/>
<text text-anchor="start" x="348.5" y="-23.3" font-family="Helvetica,sans-Serif" font-size="14.00">deal.II/base/index</text>
<text text-anchor="middle" x="401.5" y="-8.3" font-family="Helvetica,sans-Serif" font-size="14.00">_set.h</text>
</g>
<!-- Node2&#45;&gt;Node5 -->
<g id="edge4" class="edge"><title>Node2&#45;&gt;Node5</title>
<path fill="none" stroke="midnightblue" d="M3794.32,-86.0651C3321.79,-86.3075 855.23,-85.3859 472.726,-38.887"/>
<polygon fill="midnightblue" stroke="midnightblue" points="473.154,-35.4133 462.788,-37.604 472.258,-42.3557 473.154,-35.4133"/>
</g>
<!-- Node6 -->
<g id="node6" class="node"><title>Node6</title>
<polygon fill="white" stroke="#bfbfbf" points="481,-8 481,-31 642,-31 642,-8 481,-8"/>
<text text-anchor="middle" x="561.5" y="-15.8" font-family="Helvetica,sans-Serif" font-size="14.00">deal.II/base/logstream.h</text>
</g>
<!-- Node2&#45;&gt;Node6 -->
<g id="edge5" class="edge"><title>Node2&#45;&gt;Node6</title>
<path fill="none" stroke="midnightblue" d="M3794.41,-85.741C3332.99,-84.0931 972.308,-73.9972 651.5,-39 639.359,-37.6755 626.43,-35.4886 614.271,-33.0735"/>
<polygon fill="midnightblue" stroke="midnightblue" points="614.773,-29.6034 604.272,-31.0051 613.355,-36.4583 614.773,-29.6034"/>
</g>
<!-- Node7 -->
<g id="node7" class="node"><title>Node7</title>
<polygon fill="white" stroke="#bfbfbf" points="660.5,-8 660.5,-31 784.5,-31 784.5,-8 660.5,-8"/>
<text text-anchor="middle" x="722.5" y="-15.8" font-family="Helvetica,sans-Serif" font-size="14.00">deal.II/base/mpi.h</text>
</g>
<!-- Node2&#45;&gt;Node7 -->
<g id="edge6" class="edge"><title>Node2&#45;&gt;Node7</title>
<path fill="none" stroke="midnightblue" d="M3794.2,-85.9265C3344.37,-85.3548 1098.35,-80.4312 793.5,-39 784.513,-37.7786 775.032,-35.8054 766.028,-33.5932"/>
<polygon fill="midnightblue" stroke="midnightblue" points="766.675,-30.1452 756.117,-31.0213 764.917,-36.9208 766.675,-30.1452"/>
</g>
<!-- Node8 -->
<g id="node8" class="node"><title>Node8</title>
<polygon fill="white" stroke="#bfbfbf" points="802.5,-0.5 802.5,-38.5 954.5,-38.5 954.5,-0.5 802.5,-0.5"/>
<text text-anchor="start" x="810.5" y="-23.3" font-family="Helvetica,sans-Serif" font-size="14.00">deal.II/base/parameter</text>
<text text-anchor="middle" x="878.5" y="-8.3" font-family="Helvetica,sans-Serif" font-size="14.00">_handler.h</text>
</g>
<!-- Node2&#45;&gt;Node8 -->
<g id="edge7" class="edge"><title>Node2&#45;&gt;Node8</title>
<path fill="none" stroke="midnightblue" d="M3794.34,-85.6629C3364.54,-83.6867 1296.41,-72.5538 965.013,-38.9633"/>
<polygon fill="midnightblue" stroke="midnightblue" points="965.155,-35.4583 954.836,-37.8611 964.401,-42.4176 965.155,-35.4583"/>
</g>
<!-- Node9 -->
<g id="node9" class="node"><title>Node9</title>
<polygon fill="white" stroke="#bfbfbf" points="973,-8 973,-31 1116,-31 1116,-8 973,-8"/>
<text text-anchor="middle" x="1044.5" y="-15.8" font-family="Helvetica,sans-Serif" font-size="14.00">deal.II/base/utilities.h</text>
</g>
<!-- Node2&#45;&gt;Node9 -->
<g id="edge8" class="edge"><title>Node2&#45;&gt;Node9</title>
<path fill="none" stroke="midnightblue" d="M3794.24,-85.6428C3374.11,-83.5942 1395.19,-72.238 1124.5,-39 1114.1,-37.7229 1103.08,-35.6539 1092.64,-33.3531"/>
<polygon fill="midnightblue" stroke="midnightblue" points="1093.4,-29.9344 1082.86,-31.0944 1091.82,-36.7549 1093.4,-29.9344"/>
</g>
<!-- Node10 -->
<g id="node10" class="node"><title>Node10</title>
<polygon fill="white" stroke="#bfbfbf" points="1134,-0.5 1134,-38.5 1245,-38.5 1245,-0.5 1134,-0.5"/>
<text text-anchor="start" x="1142" y="-23.3" font-family="Helvetica,sans-Serif" font-size="14.00">deal.II/lac/affine</text>
<text text-anchor="middle" x="1189.5" y="-8.3" font-family="Helvetica,sans-Serif" font-size="14.00">_constraints.h</text>
</g>
<!-- Node2&#45;&gt;Node10 -->
<g id="edge9" class="edge"><title>Node2&#45;&gt;Node10</title>
<path fill="none" stroke="midnightblue" d="M3794.22,-85.8225C3390.75,-84.7449 1553.52,-77.8061 1255.12,-38.9197"/>
<polygon fill="midnightblue" stroke="midnightblue" points="1255.54,-35.4456 1245.16,-37.5229 1254.57,-42.3778 1255.54,-35.4456"/>
</g>
<!-- Node11 -->
<g id="node11" class="node"><title>Node11</title>
<polygon fill="white" stroke="#bfbfbf" points="1262.5,-0.5 1262.5,-38.5 1420.5,-38.5 1420.5,-0.5 1262.5,-0.5"/>
<text text-anchor="start" x="1270.5" y="-23.3" font-family="Helvetica,sans-Serif" font-size="14.00">deal.II/lac/block_sparse</text>
<text text-anchor="middle" x="1341.5" y="-8.3" font-family="Helvetica,sans-Serif" font-size="14.00">_matrix.h</text>
</g>
<!-- Node2&#45;&gt;Node11 -->
<g id="edge10" class="edge"><title>Node2&#45;&gt;Node11</title>
<path fill="none" stroke="midnightblue" d="M3794.44,-85.3717C3408.56,-82.1496 1712.47,-66.5937 1430.7,-38.9212"/>
<polygon fill="midnightblue" stroke="midnightblue" points="1430.85,-35.4177 1420.54,-37.8477 1430.12,-42.379 1430.85,-35.4177"/>
</g>
<!-- Node12 -->
<g id="node12" class="node"><title>Node12</title>
<polygon fill="white" stroke="#bfbfbf" points="1439,-8 1439,-31 1604,-31 1604,-8 1439,-8"/>
<text text-anchor="middle" x="1521.5" y="-15.8" font-family="Helvetica,sans-Serif" font-size="14.00">deal.II/lac/block_vector.h</text>
</g>
<!-- Node2&#45;&gt;Node12 -->
<g id="edge11" class="edge"><title>Node2&#45;&gt;Node12</title>
<path fill="none" stroke="midnightblue" d="M3794.42,-86.2598C3448.11,-87.1225 2048.74,-87.4806 1612.5,-39 1600.36,-37.6506 1587.43,-35.4789 1575.25,-33.0901"/>
<polygon fill="midnightblue" stroke="midnightblue" points="1575.72,-29.6143 1565.22,-31.0457 1574.32,-36.4732 1575.72,-29.6143"/>
</g>
<!-- Node13 -->
<g id="node13" class="node"><title>Node13</title>
<polygon fill="white" stroke="#bfbfbf" points="1622,-0.5 1622,-38.5 1753,-38.5 1753,-0.5 1622,-0.5"/>
<text text-anchor="start" x="1630" y="-23.3" font-family="Helvetica,sans-Serif" font-size="14.00">deal.II/lac/dynamic</text>
<text text-anchor="middle" x="1687.5" y="-8.3" font-family="Helvetica,sans-Serif" font-size="14.00">_sparsity_pattern.h</text>
</g>
<!-- Node2&#45;&gt;Node13 -->
<g id="edge12" class="edge"><title>Node2&#45;&gt;Node13</title>
<path fill="none" stroke="midnightblue" d="M3794.38,-85.276C3442.23,-81.877 2009.31,-66.5514 1763.37,-38.8147"/>
<polygon fill="midnightblue" stroke="midnightblue" points="1763.54,-35.3103 1753.19,-37.5695 1762.69,-42.2585 1763.54,-35.3103"/>
</g>
<!-- Node14 -->
<g id="node14" class="node"><title>Node14</title>
<polygon fill="white" stroke="#bfbfbf" points="1771.5,-8 1771.5,-31 1923.5,-31 1923.5,-8 1771.5,-8"/>
<text text-anchor="middle" x="1847.5" y="-15.8" font-family="Helvetica,sans-Serif" font-size="14.00">deal.II/lac/full_matrix.h</text>
</g>
<!-- Node2&#45;&gt;Node14 -->
<g id="edge13" class="edge"><title>Node2&#45;&gt;Node14</title>
<path fill="none" stroke="midnightblue" d="M3794.36,-86.0885C3479.37,-86.1386 2302.13,-83.2941 1932.5,-39 1921.36,-37.6655 1909.54,-35.5484 1898.35,-33.215"/>
<polygon fill="midnightblue" stroke="midnightblue" points="1898.82,-29.7347 1888.3,-31.0275 1897.33,-36.5745 1898.82,-29.7347"/>
</g>
<!-- Node15 -->
<g id="node15" class="node"><title>Node15</title>
<polygon fill="white" stroke="#bfbfbf" points="1941.5,-0.5 1941.5,-38.5 2063.5,-38.5 2063.5,-0.5 1941.5,-0.5"/>
<text text-anchor="start" x="1949.5" y="-23.3" font-family="Helvetica,sans-Serif" font-size="14.00">deal.II/lac/generic</text>
<text text-anchor="middle" x="2002.5" y="-8.3" font-family="Helvetica,sans-Serif" font-size="14.00">_linear_algebra.h</text>
</g>
<!-- Node2&#45;&gt;Node15 -->
<g id="edge14" class="edge"><title>Node2&#45;&gt;Node15</title>
<path fill="none" stroke="midnightblue" d="M3794.39,-86.3705C3496.75,-87.4119 2432.84,-87.6597 2073.95,-38.9778"/>
<polygon fill="midnightblue" stroke="midnightblue" points="2074.18,-35.4767 2063.79,-37.5603 2073.21,-42.4095 2074.18,-35.4767"/>
</g>
<!-- Node16 -->
<g id="node16" class="node"><title>Node16</title>
<polygon fill="white" stroke="#bfbfbf" points="2082,-8 2082,-31 2285,-31 2285,-8 2082,-8"/>
<text text-anchor="middle" x="2183.5" y="-15.8" font-family="Helvetica,sans-Serif" font-size="14.00">deal.II/lac/petsc_precondition.h</text>
</g>
<!-- Node2&#45;&gt;Node16 -->
<g id="edge15" class="edge"><title>Node2&#45;&gt;Node16</title>
<path fill="none" stroke="midnightblue" d="M3794.34,-85.091C3518.27,-81.6585 2589.63,-68.1709 2293.5,-39 2278.47,-37.5192 2262.38,-35.2234 2247.28,-32.7466"/>
<polygon fill="midnightblue" stroke="midnightblue" points="2247.46,-29.2262 2237.01,-31.0107 2246.29,-36.1283 2247.46,-29.2262"/>
</g>
<!-- Node17 -->
<g id="node17" class="node"><title>Node17</title>
<polygon fill="white" stroke="#bfbfbf" points="2303,-8 2303,-31 2468,-31 2468,-8 2303,-8"/>
<text text-anchor="middle" x="2385.5" y="-15.8" font-family="Helvetica,sans-Serif" font-size="14.00">deal.II/lac/petsc_solver.h</text>
</g>
<!-- Node2&#45;&gt;Node17 -->
<g id="edge16" class="edge"><title>Node2&#45;&gt;Node17</title>
<path fill="none" stroke="midnightblue" d="M3794.25,-85.0851C3539.38,-81.8347 2734.65,-69.3704 2476.5,-39 2464.49,-37.5872 2451.71,-35.4144 2439.64,-33.0481"/>
<polygon fill="midnightblue" stroke="midnightblue" points="2440.19,-29.5894 2429.69,-31.0273 2438.8,-36.4492 2440.19,-29.5894"/>
</g>
<!-- Node18 -->
<g id="node18" class="node"><title>Node18</title>
<polygon fill="white" stroke="#bfbfbf" points="2486,-8 2486,-31 2633,-31 2633,-8 2486,-8"/>
<text text-anchor="middle" x="2559.5" y="-15.8" font-family="Helvetica,sans-Serif" font-size="14.00">deal.II/lac/solver_cg.h</text>
</g>
<!-- Node2&#45;&gt;Node18 -->
<g id="edge17" class="edge"><title>Node2&#45;&gt;Node18</title>
<path fill="none" stroke="midnightblue" d="M3794.24,-84.8634C3559.96,-81.1676 2866.61,-68.0152 2642.5,-39 2631.85,-37.621 2620.55,-35.5317 2609.83,-33.2473"/>
<polygon fill="midnightblue" stroke="midnightblue" points="2610.29,-29.7643 2599.77,-31.014 2608.77,-36.598 2610.29,-29.7643"/>
</g>
<!-- Node19 -->
<g id="node19" class="node"><title>Node19</title>
<polygon fill="white" stroke="#bfbfbf" points="2651.5,-0.5 2651.5,-38.5 2765.5,-38.5 2765.5,-0.5 2651.5,-0.5"/>
<text text-anchor="start" x="2659.5" y="-23.3" font-family="Helvetica,sans-Serif" font-size="14.00">deal.II/lac/solver</text>
<text text-anchor="middle" x="2708.5" y="-8.3" font-family="Helvetica,sans-Serif" font-size="14.00">_gmres.h</text>
</g>
<!-- Node2&#45;&gt;Node19 -->
<g id="edge18" class="edge"><title>Node2&#45;&gt;Node19</title>
<path fill="none" stroke="midnightblue" d="M3794.19,-84.9907C3580.58,-81.8704 2990.01,-70.6979 2775.49,-38.8917"/>
<polygon fill="midnightblue" stroke="midnightblue" points="2775.97,-35.4258 2765.56,-37.3615 2774.91,-42.3441 2775.97,-35.4258"/>
</g>
<!-- Node20 -->
<g id="node20" class="node"><title>Node20</title>
<polygon fill="white" stroke="#bfbfbf" points="2783.5,-0.5 2783.5,-38.5 2897.5,-38.5 2897.5,-0.5 2783.5,-0.5"/>
<text text-anchor="start" x="2791.5" y="-23.3" font-family="Helvetica,sans-Serif" font-size="14.00">deal.II/lac/solver</text>
<text text-anchor="middle" x="2840.5" y="-8.3" font-family="Helvetica,sans-Serif" font-size="14.00">_minres.h</text>
</g>
<!-- Node2&#45;&gt;Node20 -->
<g id="edge19" class="edge"><title>Node2&#45;&gt;Node20</title>
<path fill="none" stroke="midnightblue" d="M3794.44,-84.4625C3599.74,-80.2713 3095.46,-67.1349 2907.61,-38.9137"/>
<polygon fill="midnightblue" stroke="midnightblue" points="2907.98,-35.4302 2897.56,-37.3406 2906.9,-42.3459 2907.98,-35.4302"/>
</g>
<!-- Node21 -->
<g id="node21" class="node"><title>Node21</title>
<polygon fill="white" stroke="#bfbfbf" points="2915.5,-8 2915.5,-31 3041.5,-31 3041.5,-8 2915.5,-8"/>
<text text-anchor="middle" x="2978.5" y="-15.8" font-family="Helvetica,sans-Serif" font-size="14.00">deal.II/lac/vector.h</text>
</g>
<!-- Node2&#45;&gt;Node21 -->
<g id="edge20" class="edge"><title>Node2&#45;&gt;Node21</title>
<path fill="none" stroke="midnightblue" d="M3794.34,-86.5652C3647.62,-86.5145 3321.33,-81.1271 3050.5,-39 3041.7,-37.6308 3032.41,-35.6551 3023.53,-33.4994"/>
<polygon fill="midnightblue" stroke="midnightblue" points="3024.29,-30.0811 3013.74,-31.0119 3022.57,-36.8657 3024.29,-30.0811"/>
</g>
<!-- Node22 -->
<g id="node22" class="node"><title>Node22</title>
<polygon fill="white" stroke="#bfbfbf" points="3060,-0.5 3060,-38.5 3185,-38.5 3185,-0.5 3060,-0.5"/>
<text text-anchor="start" x="3068" y="-23.3" font-family="Helvetica,sans-Serif" font-size="14.00">deal.II/lac/sparsity</text>
<text text-anchor="middle" x="3122.5" y="-8.3" font-family="Helvetica,sans-Serif" font-size="14.00">_tools.h</text>
</g>
<!-- Node2&#45;&gt;Node22 -->
<g id="edge21" class="edge"><title>Node2&#45;&gt;Node22</title>
<path fill="none" stroke="midnightblue" d="M3794.44,-85.1977C3669.61,-82.8996 3417.36,-74.0932 3195.08,-38.9108"/>
<polygon fill="midnightblue" stroke="midnightblue" points="3195.61,-35.4519 3185.19,-37.3241 3194.51,-42.3636 3195.61,-35.4519"/>
</g>
<!-- Node23 -->
<g id="node23" class="node"><title>Node23</title>
<polygon fill="white" stroke="#bfbfbf" points="3203.5,-8 3203.5,-31 3335.5,-31 3335.5,-8 3203.5,-8"/>
<text text-anchor="middle" x="3269.5" y="-15.8" font-family="Helvetica,sans-Serif" font-size="14.00">deal.II/base/timer.h</text>
</g>
<!-- Node2&#45;&gt;Node23 -->
<g id="edge22" class="edge"><title>Node2&#45;&gt;Node23</title>
<path fill="none" stroke="midnightblue" d="M3794.19,-82.7775C3690.68,-77.6641 3502.9,-65.4265 3344.5,-39 3335.66,-37.5248 3326.32,-35.5587 3317.35,-33.4586"/>
<polygon fill="midnightblue" stroke="midnightblue" points="3317.96,-30.0064 3307.42,-31.0497 3316.31,-36.809 3317.96,-30.0064"/>
</g>
<!-- Node24 -->
<g id="node24" class="node"><title>Node24</title>
<polygon fill="white" stroke="#bfbfbf" points="3354,-0.5 3354,-38.5 3473,-38.5 3473,-0.5 3354,-0.5"/>
<text text-anchor="start" x="3362" y="-23.3" font-family="Helvetica,sans-Serif" font-size="14.00">deal.II/distributed</text>
<text text-anchor="middle" x="3413.5" y="-8.3" font-family="Helvetica,sans-Serif" font-size="14.00">/tria.h</text>
</g>
<!-- Node2&#45;&gt;Node24 -->
<g id="edge23" class="edge"><title>Node2&#45;&gt;Node24</title>
<path fill="none" stroke="midnightblue" d="M3794.3,-79.8655C3717.43,-73.0886 3596.71,-60.4506 3483.13,-38.9687"/>
<polygon fill="midnightblue" stroke="midnightblue" points="3483.7,-35.5141 3473.22,-37.0678 3482.38,-42.3888 3483.7,-35.5141"/>
</g>
<!-- Node25 -->
<g id="node25" class="node"><title>Node25</title>
<polygon fill="white" stroke="#bfbfbf" points="3491.5,-8 3491.5,-31 3669.5,-31 3669.5,-8 3491.5,-8"/>
<text text-anchor="middle" x="3580.5" y="-15.8" font-family="Helvetica,sans-Serif" font-size="14.00">deal.II/dofs/dof_accessor.h</text>
</g>
<!-- Node2&#45;&gt;Node25 -->
<g id="edge24" class="edge"><title>Node2&#45;&gt;Node25</title>
<path fill="none" stroke="midnightblue" d="M3825.59,-75.4763C3774.44,-64.0035 3692.58,-45.6405 3637.7,-33.3311"/>
<polygon fill="midnightblue" stroke="midnightblue" points="3638.31,-29.8799 3627.78,-31.1062 3636.77,-36.7102 3638.31,-29.8799"/>
</g>
<!-- Node26 -->
<g id="node26" class="node"><title>Node26</title>
<polygon fill="white" stroke="#bfbfbf" points="3687,-8 3687,-31 3856,-31 3856,-8 3687,-8"/>
<text text-anchor="middle" x="3771.5" y="-15.8" font-family="Helvetica,sans-Serif" font-size="14.00">deal.II/dofs/dof_handler.h</text>
</g>
<!-- Node2&#45;&gt;Node26 -->
<g id="edge25" class="edge"><title>Node2&#45;&gt;Node26</title>
<path fill="none" stroke="midnightblue" d="M3856.27,-75.4763C3840.17,-65.0343 3815.27,-48.8846 3796.61,-36.7862"/>
<polygon fill="midnightblue" stroke="midnightblue" points="3798.32,-33.7198 3788.02,-31.2152 3794.51,-39.5929 3798.32,-33.7198"/>
</g>
<!-- Node27 -->
<g id="node27" class="node"><title>Node27</title>
<polygon fill="white" stroke="#bfbfbf" points="3874.5,-8 3874.5,-31 4074.5,-31 4074.5,-8 3874.5,-8"/>
<text text-anchor="middle" x="3974.5" y="-15.8" font-family="Helvetica,sans-Serif" font-size="14.00">deal.II/dofs/dof_renumbering.h</text>
</g>
<!-- Node2&#45;&gt;Node27 -->
<g id="edge26" class="edge"><title>Node2&#45;&gt;Node27</title>
<path fill="none" stroke="midnightblue" d="M3888.89,-75.4763C3905.22,-64.9868 3930.53,-48.7376 3949.39,-36.6215"/>
<polygon fill="midnightblue" stroke="midnightblue" points="3951.29,-39.5637 3957.81,-31.2152 3947.51,-33.6736 3951.29,-39.5637"/>
</g>
<!-- Node28 -->
<g id="node28" class="node"><title>Node28</title>
<polygon fill="white" stroke="#bfbfbf" points="4092.5,-8 4092.5,-31 4244.5,-31 4244.5,-8 4092.5,-8"/>
<text text-anchor="middle" x="4168.5" y="-15.8" font-family="Helvetica,sans-Serif" font-size="14.00">deal.II/dofs/dof_tools.h</text>
</g>
<!-- Node2&#45;&gt;Node28 -->
<g id="edge27" class="edge"><title>Node2&#45;&gt;Node28</title>
<path fill="none" stroke="midnightblue" d="M3920.06,-75.4763C3971.9,-64.0035 4054.89,-45.6405 4110.51,-33.3311"/>
<polygon fill="midnightblue" stroke="midnightblue" points="4111.56,-36.6842 4120.57,-31.1062 4110.05,-29.8495 4111.56,-36.6842"/>
</g>
<!-- Node29 -->
<g id="node29" class="node"><title>Node29</title>
<polygon fill="white" stroke="#bfbfbf" points="4263,-8 4263,-31 4392,-31 4392,-8 4263,-8"/>
<text text-anchor="middle" x="4327.5" y="-15.8" font-family="Helvetica,sans-Serif" font-size="14.00">deal.II/fe/fe_bdm.h</text>
</g>
<!-- Node2&#45;&gt;Node29 -->
<g id="edge28" class="edge"><title>Node2&#45;&gt;Node29</title>
<path fill="none" stroke="midnightblue" d="M3950.64,-79.1797C4027.96,-71.77 4149.48,-58.3433 4253.5,-39 4261.83,-37.4513 4270.62,-35.5214 4279.11,-33.4976"/>
<polygon fill="midnightblue" stroke="midnightblue" points="4280.03,-36.8767 4288.91,-31.0958 4278.36,-30.078 4280.03,-36.8767"/>
</g>
<!-- Node30 -->
<g id="node30" class="node"><title>Node30</title>
<polygon fill="white" stroke="#bfbfbf" points="4410,-8 4410,-31 4535,-31 4535,-8 4410,-8"/>
<text text-anchor="middle" x="4472.5" y="-15.8" font-family="Helvetica,sans-Serif" font-size="14.00">deal.II/fe/fe_dgp.h</text>
</g>
<!-- Node2&#45;&gt;Node30 -->
<g id="edge29" class="edge"><title>Node2&#45;&gt;Node30</title>
<path fill="none" stroke="midnightblue" d="M3950.56,-83.1238C4054.23,-78.3805 4242.75,-66.5378 4401.5,-39 4409.71,-37.5761 4418.36,-35.6721 4426.69,-33.6264"/>
<polygon fill="midnightblue" stroke="midnightblue" points="4427.81,-36.951 4436.63,-31.0835 4426.08,-30.169 4427.81,-36.951"/>
</g>
<!-- Node31 -->
<g id="node31" class="node"><title>Node31</title>
<polygon fill="white" stroke="#bfbfbf" points="4553,-8 4553,-31 4678,-31 4678,-8 4553,-8"/>
<text text-anchor="middle" x="4615.5" y="-15.8" font-family="Helvetica,sans-Serif" font-size="14.00">deal.II/fe/fe_dgq.h</text>
</g>
<!-- Node2&#45;&gt;Node31 -->
<g id="edge30" class="edge"><title>Node2&#45;&gt;Node31</title>
<path fill="none" stroke="midnightblue" d="M3950.65,-85.2116C4076.51,-82.8961 4331.56,-73.8799 4544.5,-39 4552.99,-37.6088 4561.95,-35.6634 4570.53,-33.5532"/>
<polygon fill="midnightblue" stroke="midnightblue" points="4571.57,-36.9004 4580.38,-31.0236 4569.83,-30.1203 4571.57,-36.9004"/>
</g>
<!-- Node32 -->
<g id="node32" class="node"><title>Node32</title>
<polygon fill="white" stroke="#bfbfbf" points="4696,-8 4696,-31 4845,-31 4845,-8 4696,-8"/>
<text text-anchor="middle" x="4770.5" y="-15.8" font-family="Helvetica,sans-Serif" font-size="14.00">deal.II/fe/fe_nedelec.h</text>
</g>
<!-- Node2&#45;&gt;Node32 -->
<g id="edge31" class="edge"><title>Node2&#45;&gt;Node32</title>
<path fill="none" stroke="midnightblue" d="M3950.73,-85.6833C4096.41,-84.1653 4418.86,-76.4338 4687.5,-39 4697.92,-37.5486 4708.96,-35.4725 4719.48,-33.2317"/>
<polygon fill="midnightblue" stroke="midnightblue" points="4720.36,-36.6227 4729.37,-31.0479 4718.85,-29.7874 4720.36,-36.6227"/>
</g>
<!-- Node33 -->
<g id="node33" class="node"><title>Node33</title>
<polygon fill="white" stroke="#bfbfbf" points="4863.5,-8 4863.5,-31 4973.5,-31 4973.5,-8 4863.5,-8"/>
<text text-anchor="middle" x="4918.5" y="-15.8" font-family="Helvetica,sans-Serif" font-size="14.00">deal.II/fe/fe_q.h</text>
</g>
<!-- Node2&#45;&gt;Node33 -->
<g id="edge32" class="edge"><title>Node2&#45;&gt;Node33</title>
<path fill="none" stroke="midnightblue" d="M3950.77,-84.6113C4151.53,-80.671 4681.18,-67.7905 4854.5,-39 4862.12,-37.7349 4870.11,-35.8718 4877.77,-33.8085"/>
<polygon fill="midnightblue" stroke="midnightblue" points="4878.93,-37.1187 4887.59,-31.0143 4877.01,-30.3862 4878.93,-37.1187"/>
</g>
<!-- Node34 -->
<g id="node34" class="node"><title>Node34</title>
<polygon fill="white" stroke="#bfbfbf" points="4991.5,-0.5 4991.5,-38.5 5119.5,-38.5 5119.5,-0.5 4991.5,-0.5"/>
<text text-anchor="start" x="4999.5" y="-23.3" font-family="Helvetica,sans-Serif" font-size="14.00">deal.II/fe/fe_raviart</text>
<text text-anchor="middle" x="5055.5" y="-8.3" font-family="Helvetica,sans-Serif" font-size="14.00">_thomas.h</text>
</g>
<!-- Node2&#45;&gt;Node34 -->
<g id="edge33" class="edge"><title>Node2&#45;&gt;Node34</title>
<path fill="none" stroke="midnightblue" d="M3950.84,-84.7793C4166.02,-81.0977 4763.98,-68.5752 4981.11,-38.9917"/>
<polygon fill="midnightblue" stroke="midnightblue" points="4981.75,-42.4365 4991.16,-37.57 4980.77,-35.5055 4981.75,-42.4365"/>
</g>
<!-- Node35 -->
<g id="node35" class="node"><title>Node35</title>
<polygon fill="white" stroke="#bfbfbf" points="5137.5,-8 5137.5,-31 5283.5,-31 5283.5,-8 5137.5,-8"/>
<text text-anchor="middle" x="5210.5" y="-15.8" font-family="Helvetica,sans-Serif" font-size="14.00">deal.II/fe/fe_system.h</text>
</g>
<!-- Node2&#45;&gt;Node35 -->
<g id="edge34" class="edge"><title>Node2&#45;&gt;Node35</title>
<path fill="none" stroke="midnightblue" d="M3950.73,-84.9622C4188.3,-81.5117 4899.14,-68.9039 5128.5,-39 5139.03,-37.6274 5150.19,-35.5408 5160.79,-33.2571"/>
<polygon fill="midnightblue" stroke="midnightblue" points="5161.74,-36.631 5170.73,-31.0238 5160.2,-29.8012 5161.74,-36.631"/>
</g>
<!-- Node36 -->
<g id="node36" class="node"><title>Node36</title>
<polygon fill="white" stroke="#bfbfbf" points="5302,-8 5302,-31 5435,-31 5435,-8 5302,-8"/>
<text text-anchor="middle" x="5368.5" y="-15.8" font-family="Helvetica,sans-Serif" font-size="14.00">deal.II/grid/cell_id.h</text>
</g>
<!-- Node2&#45;&gt;Node36 -->
<g id="edge35" class="edge"><title>Node2&#45;&gt;Node36</title>
<path fill="none" stroke="midnightblue" d="M3950.78,-85.528C4208.68,-83.6404 5030.09,-74.8913 5292.5,-39 5302.09,-37.6888 5312.22,-35.6745 5321.86,-33.4499"/>
<polygon fill="midnightblue" stroke="midnightblue" points="5322.79,-36.8277 5331.68,-31.0762 5321.14,-30.0237 5322.79,-36.8277"/>
</g>
<!-- Node37 -->
<g id="node37" class="node"><title>Node37</title>
<polygon fill="white" stroke="#bfbfbf" points="5453.5,-8 5453.5,-31 5635.5,-31 5635.5,-8 5453.5,-8"/>
<text text-anchor="middle" x="5544.5" y="-15.8" font-family="Helvetica,sans-Serif" font-size="14.00">deal.II/grid/grid_generator.h</text>
</g>
<!-- Node2&#45;&gt;Node37 -->
<g id="edge36" class="edge"><title>Node2&#45;&gt;Node37</title>
<path fill="none" stroke="midnightblue" d="M3950.8,-85.2457C4226.3,-82.3436 5150.1,-70.4462 5444.5,-39 5457.93,-37.5655 5472.26,-35.3363 5485.76,-32.9155"/>
<polygon fill="midnightblue" stroke="midnightblue" points="5486.7,-36.3017 5495.89,-31.0369 5485.42,-29.419 5486.7,-36.3017"/>
</g>
<!-- Node38 -->
<g id="node38" class="node"><title>Node38</title>
<polygon fill="white" stroke="#bfbfbf" points="5654,-8 5654,-31 5829,-31 5829,-8 5654,-8"/>
<text text-anchor="middle" x="5741.5" y="-15.8" font-family="Helvetica,sans-Serif" font-size="14.00">deal.II/grid/tria_accessor.h</text>
</g>
<!-- Node2&#45;&gt;Node38 -->
<g id="edge37" class="edge"><title>Node2&#45;&gt;Node38</title>
<path fill="none" stroke="midnightblue" d="M3950.58,-85.6115C4247.83,-83.8708 5308.98,-75.2035 5644.5,-39 5657.54,-37.593 5671.45,-35.3749 5684.54,-32.9561"/>
<polygon fill="midnightblue" stroke="midnightblue" points="5685.2,-36.3932 5694.37,-31.0774 5683.89,-29.5177 5685.2,-36.3932"/>
</g>
<!-- Node39 -->
<g id="node39" class="node"><title>Node39</title>
<polygon fill="white" stroke="#bfbfbf" points="5847,-8 5847,-31 6010,-31 6010,-8 5847,-8"/>
<text text-anchor="middle" x="5928.5" y="-15.8" font-family="Helvetica,sans-Serif" font-size="14.00">deal.II/grid/tria_iterator.h</text>
</g>
<!-- Node2&#45;&gt;Node39 -->
<g id="edge38" class="edge"><title>Node2&#45;&gt;Node39</title>
<path fill="none" stroke="midnightblue" d="M3950.6,-85.9978C4268.13,-85.7006 5463.23,-81.7074 5838.5,-39 5850.51,-37.6331 5863.3,-35.4544 5875.35,-33.0642"/>
<polygon fill="midnightblue" stroke="midnightblue" points="5876.18,-36.467 5885.26,-31.0199 5874.76,-29.6112 5876.18,-36.467"/>
</g>
<!-- Node40 -->
<g id="node40" class="node"><title>Node40</title>
<polygon fill="white" stroke="#bfbfbf" points="6028,-8 6028,-31 6191,-31 6191,-8 6028,-8"/>
<text text-anchor="middle" x="6109.5" y="-15.8" font-family="Helvetica,sans-Serif" font-size="14.00">deal.II/lac/precondition.h</text>
</g>
<!-- Node2&#45;&gt;Node40 -->
<g id="edge39" class="edge"><title>Node2&#45;&gt;Node40</title>
<path fill="none" stroke="midnightblue" d="M3950.58,-86.1822C4286.07,-86.6734 5606.76,-85.5507 6019.5,-39 6031.51,-37.6452 6044.3,-35.4714 6056.35,-33.0822"/>
<polygon fill="midnightblue" stroke="midnightblue" points="6057.18,-36.485 6066.27,-31.0378 6055.77,-29.6292 6057.18,-36.485"/>
</g>
<!-- Node41 -->
<g id="node41" class="node"><title>Node41</title>
<polygon fill="white" stroke="#bfbfbf" points="6209,-0.5 6209,-38.5 6326,-38.5 6326,-0.5 6209,-0.5"/>
<text text-anchor="start" x="6217" y="-23.3" font-family="Helvetica,sans-Serif" font-size="14.00">deal.II/lac/trilinos</text>
<text text-anchor="middle" x="6267.5" y="-8.3" font-family="Helvetica,sans-Serif" font-size="14.00">_precondition.h</text>
</g>
<!-- Node2&#45;&gt;Node41 -->
<g id="edge40" class="edge"><title>Node2&#45;&gt;Node41</title>
<path fill="none" stroke="midnightblue" d="M3950.66,-85.5782C4325.45,-83.4019 5931.18,-72.2822 6198.85,-38.9322"/>
<polygon fill="midnightblue" stroke="midnightblue" points="6199.41,-42.3881 6208.85,-37.5836 6198.47,-35.4508 6199.41,-42.3881"/>
</g>
<!-- Node42 -->
<g id="node42" class="node"><title>Node42</title>
<polygon fill="white" stroke="#bfbfbf" points="6344,-0.5 6344,-38.5 6461,-38.5 6461,-0.5 6344,-0.5"/>
<text text-anchor="start" x="6352" y="-23.3" font-family="Helvetica,sans-Serif" font-size="14.00">deal.II/lac/trilinos</text>
<text text-anchor="middle" x="6402.5" y="-8.3" font-family="Helvetica,sans-Serif" font-size="14.00">_solver.h</text>
</g>
<!-- Node2&#45;&gt;Node42 -->
<g id="edge41" class="edge"><title>Node2&#45;&gt;Node42</title>
<path fill="none" stroke="midnightblue" d="M3950.59,-85.6719C4338.55,-83.8874 6050.99,-74.1493 6333.66,-38.9576"/>
<polygon fill="midnightblue" stroke="midnightblue" points="6334.41,-42.389 6343.85,-37.5874 6333.47,-35.4514 6334.41,-42.389"/>
</g>
<!-- Node43 -->
<g id="node43" class="node"><title>Node43</title>
<polygon fill="white" stroke="#bfbfbf" points="6479,-0.5 6479,-38.5 6622,-38.5 6622,-0.5 6479,-0.5"/>
<text text-anchor="start" x="6487" y="-23.3" font-family="Helvetica,sans-Serif" font-size="14.00">deal.II/numerics/data</text>
<text text-anchor="middle" x="6550.5" y="-8.3" font-family="Helvetica,sans-Serif" font-size="14.00">_out.h</text>
</g>
<!-- Node2&#45;&gt;Node43 -->
<g id="edge42" class="edge"><title>Node2&#45;&gt;Node43</title>
<path fill="none" stroke="midnightblue" d="M3950.78,-85.5595C4352.01,-83.1724 6170.35,-70.7471 6468.32,-39.0415"/>
<polygon fill="midnightblue" stroke="midnightblue" points="6469.13,-42.472 6478.67,-37.8572 6468.34,-35.5174 6469.13,-42.472"/>
</g>
<!-- Node44 -->
<g id="node44" class="node"><title>Node44</title>
<polygon fill="white" stroke="#bfbfbf" points="6640.5,-0.5 6640.5,-38.5 6794.5,-38.5 6794.5,-0.5 6640.5,-0.5"/>
<text text-anchor="start" x="6648.5" y="-23.3" font-family="Helvetica,sans-Serif" font-size="14.00">deal.II/numerics/matrix</text>
<text text-anchor="middle" x="6717.5" y="-8.3" font-family="Helvetica,sans-Serif" font-size="14.00">_tools.h</text>
</g>
<!-- Node2&#45;&gt;Node44 -->
<g id="edge43" class="edge"><title>Node2&#45;&gt;Node44</title>
<path fill="none" stroke="midnightblue" d="M3950.72,-85.5774C4367.02,-83.2078 6314.96,-70.5695 6630.16,-38.9423"/>
<polygon fill="midnightblue" stroke="midnightblue" points="6630.69,-42.4051 6640.26,-37.8573 6629.95,-35.4451 6630.69,-42.4051"/>
</g>
<!-- Node45 -->
<g id="node45" class="node"><title>Node45</title>
<polygon fill="white" stroke="#bfbfbf" points="6813,-0.5 6813,-38.5 6966,-38.5 6966,-0.5 6813,-0.5"/>
<text text-anchor="start" x="6821" y="-23.3" font-family="Helvetica,sans-Serif" font-size="14.00">deal.II/numerics/vector</text>
<text text-anchor="middle" x="6889.5" y="-8.3" font-family="Helvetica,sans-Serif" font-size="14.00">_tools.h</text>
</g>
<!-- Node2&#45;&gt;Node45 -->
<g id="edge44" class="edge"><title>Node2&#45;&gt;Node45</title>
<path fill="none" stroke="midnightblue" d="M3950.54,-85.6624C4382,-83.6752 6467.83,-72.4575 6802.45,-38.8946"/>
<polygon fill="midnightblue" stroke="midnightblue" points="6803.16,-42.339 6812.73,-37.7934 6802.41,-35.3789 6803.16,-42.339"/>
</g>
<!-- Node46 -->
<g id="node46" class="node"><title>Node46</title>
<polygon fill="white" stroke="#bfbfbf" points="6984.5,-8 6984.5,-31 7038.5,-31 7038.5,-8 6984.5,-8"/>
<text text-anchor="middle" x="7011.5" y="-15.8" font-family="Helvetica,sans-Serif" font-size="14.00">cmath</text>
</g>
<!-- Node2&#45;&gt;Node46 -->
<g id="edge45" class="edge"><title>Node2&#45;&gt;Node46</title>
<path fill="none" stroke="midnightblue" d="M3950.8,-85.8231C4418.18,-84.6406 6824.53,-76.7333 6975.5,-39 6978.94,-38.139 6982.43,-36.8971 6985.81,-35.4582"/>
<polygon fill="midnightblue" stroke="midnightblue" points="6987.46,-38.5507 6994.92,-31.0342 6984.4,-32.2538 6987.46,-38.5507"/>
</g>
<!-- Node47 -->
<g id="node47" class="node"><title>Node47</title>
<polygon fill="white" stroke="#bfbfbf" points="7057,-8 7057,-31 7126,-31 7126,-8 7057,-8"/>
<text text-anchor="middle" x="7091.5" y="-15.8" font-family="Helvetica,sans-Serif" font-size="14.00">iostream</text>
</g>
<!-- Node2&#45;&gt;Node47 -->
<g id="edge46" class="edge"><title>Node2&#45;&gt;Node47</title>
<path fill="none" stroke="midnightblue" d="M3950.65,-85.6861C4423.92,-83.6793 6891.45,-71.6764 7047.5,-39 7052.1,-38.0378 7056.81,-36.5954 7061.37,-34.9324"/>
<polygon fill="midnightblue" stroke="midnightblue" points="7063.03,-38.0354 7070.99,-31.0405 7060.41,-31.5463 7063.03,-38.0354"/>
</g>
<!-- Node48 -->
<g id="node48" class="node"><title>Node48</title>
<polygon fill="white" stroke="#bfbfbf" points="7144.5,-8 7144.5,-31 7188.5,-31 7188.5,-8 7144.5,-8"/>
<text text-anchor="middle" x="7166.5" y="-15.8" font-family="Helvetica,sans-Serif" font-size="14.00">map</text>
</g>
<!-- Node2&#45;&gt;Node48 -->
<g id="edge47" class="edge"><title>Node2&#45;&gt;Node48</title>
<path fill="none" stroke="midnightblue" d="M3950.54,-86.0196C4431.49,-85.9974 6977.6,-83.7603 7135.5,-39 7138.18,-38.241 7140.86,-37.1886 7143.46,-35.9675"/>
<polygon fill="midnightblue" stroke="midnightblue" points="7145.34,-38.9274 7152.4,-31.0282 7141.96,-32.8002 7145.34,-38.9274"/>
</g>
<!-- Node49 -->
<g id="node49" class="node"><title>Node49</title>
<polygon fill="white" stroke="#bfbfbf" points="7207,-8 7207,-31 7274,-31 7274,-8 7207,-8"/>
<text text-anchor="middle" x="7240.5" y="-15.8" font-family="Helvetica,sans-Serif" font-size="14.00">memory</text>
</g>
<!-- Node2&#45;&gt;Node49 -->
<g id="edge48" class="edge"><title>Node2&#45;&gt;Node49</title>
<path fill="none" stroke="midnightblue" d="M3950.77,-85.7581C4437.41,-84.1455 7033.81,-73.9263 7197.5,-39 7202,-38.0392 7206.62,-36.5976 7211.08,-34.935"/>
<polygon fill="midnightblue" stroke="midnightblue" points="7212.58,-38.1014 7220.48,-31.0432 7209.9,-31.6334 7212.58,-38.1014"/>
</g>
<!-- Node50 -->
<g id="node50" class="node"><title>Node50</title>
<polygon fill="white" stroke="#bfbfbf" points="7292,-8 7292,-31 7345,-31 7345,-8 7292,-8"/>
<text text-anchor="middle" x="7318.5" y="-15.8" font-family="Helvetica,sans-Serif" font-size="14.00">vector</text>
</g>
<!-- Node2&#45;&gt;Node50 -->
<g id="edge49" class="edge"><title>Node2&#45;&gt;Node50</title>
<path fill="none" stroke="midnightblue" d="M3950.83,-85.9599C4445.13,-85.5769 7116.91,-81.5393 7283.5,-39 7286.76,-38.1668 7290.06,-36.9747 7293.26,-35.5918"/>
<polygon fill="midnightblue" stroke="midnightblue" points="7295.02,-38.6232 7302.42,-31.038 7291.91,-32.3548 7295.02,-38.6232"/>
</g>
</g>
</svg>
