<?xml version="1.0" encoding="UTF-8" standalone="no"?>
<!DOCTYPE svg PUBLIC "-//W3C//DTD SVG 1.1//EN"
 "http://www.w3.org/Graphics/SVG/1.1/DTD/svg11.dtd">
<!-- Generated by graphviz version 2.38.0 (20140413.2041)
 -->
<!-- Title: /home/travis/build/konsim83/MPI&#45;MSFEC/include/Q_Ned/q_ned_post_processor.h Pages: 1 -->
<svg width="728pt" height="377pt"
 viewBox="0.00 0.00 728.00 377.00" xmlns="http://www.w3.org/2000/svg" xmlns:xlink="http://www.w3.org/1999/xlink">
<g id="graph0" class="graph" transform="scale(1 1) rotate(0) translate(4 373)">
<title>/home/travis/build/konsim83/MPI&#45;MSFEC/include/Q_Ned/q_ned_post_processor.h</title>
<polygon fill="white" stroke="none" points="-4,4 -4,-373 724,-373 724,4 -4,4"/>
<!-- Node1 -->
<g id="node1" class="node"><title>Node1</title>
<polygon fill="#bfbfbf" stroke="black" points="254,-300.5 254,-368.5 414,-368.5 414,-300.5 254,-300.5"/>
<text text-anchor="start" x="262" y="-353.3" font-family="Helvetica,sans-Serif" font-size="14.00">/home/travis/build</text>
<text text-anchor="start" x="262" y="-338.3" font-family="Helvetica,sans-Serif" font-size="14.00">/konsim83/MPI&#45;MSFEC</text>
<text text-anchor="start" x="262" y="-323.3" font-family="Helvetica,sans-Serif" font-size="14.00">/include/Q_Ned/q_ned</text>
<text text-anchor="middle" x="334" y="-308.3" font-family="Helvetica,sans-Serif" font-size="14.00">_post_processor.h</text>
</g>
<!-- Node2 -->
<g id="node2" class="node"><title>Node2</title>
<g id="a_node2"><a xlink:href="q__ned__post__processor_8cc.html" target="_top" xlink:title="/home/travis/build\l/konsim83/MPI&#45;MSFEC\l/source/Q_Ned/q_ned_post\l_processor.cc">
<polygon fill="white" stroke="black" points="0,-195.5 0,-263.5 182,-263.5 182,-195.5 0,-195.5"/>
<text text-anchor="start" x="8" y="-248.3" font-family="Helvetica,sans-Serif" font-size="14.00">/home/travis/build</text>
<text text-anchor="start" x="8" y="-233.3" font-family="Helvetica,sans-Serif" font-size="14.00">/konsim83/MPI&#45;MSFEC</text>
<text text-anchor="start" x="8" y="-218.3" font-family="Helvetica,sans-Serif" font-size="14.00">/source/Q_Ned/q_ned_post</text>
<text text-anchor="middle" x="91" y="-203.3" font-family="Helvetica,sans-Serif" font-size="14.00">_processor.cc</text>
</a>
</g>
</g>
<!-- Node1&#45;&gt;Node2 -->
<g id="edge1" class="edge"><title>Node1&#45;&gt;Node2</title>
<path fill="none" stroke="midnightblue" d="M246.837,-296.554C221.372,-285.761 193.715,-274.037 168.865,-263.505"/>
<polygon fill="midnightblue" stroke="midnightblue" points="245.538,-299.805 256.111,-300.485 248.269,-293.36 245.538,-299.805"/>
</g>
<!-- Node3 -->
<g id="node3" class="node"><title>Node3</title>
<g id="a_node3"><a xlink:href="q__ned__basis_8h.html" target="_top" xlink:title="/home/travis/build\l/konsim83/MPI&#45;MSFEC\l/include/Q_Ned/q_ned\l_basis.h">
<polygon fill="white" stroke="black" points="200,-195.5 200,-263.5 360,-263.5 360,-195.5 200,-195.5"/>
<text text-anchor="start" x="208" y="-248.3" font-family="Helvetica,sans-Serif" font-size="14.00">/home/travis/build</text>
<text text-anchor="start" x="208" y="-233.3" font-family="Helvetica,sans-Serif" font-size="14.00">/konsim83/MPI&#45;MSFEC</text>
<text text-anchor="start" x="208" y="-218.3" font-family="Helvetica,sans-Serif" font-size="14.00">/include/Q_Ned/q_ned</text>
<text text-anchor="middle" x="280" y="-203.3" font-family="Helvetica,sans-Serif" font-size="14.00">_basis.h</text>
</a>
</g>
</g>
<!-- Node1&#45;&gt;Node3 -->
<g id="edge2" class="edge"><title>Node1&#45;&gt;Node3</title>
<path fill="none" stroke="midnightblue" d="M311.872,-291.293C307.031,-282.058 301.973,-272.412 297.351,-263.595"/>
<polygon fill="midnightblue" stroke="midnightblue" points="308.874,-293.112 316.617,-300.343 315.073,-289.861 308.874,-293.112"/>
</g>
<!-- Node5 -->
<g id="node5" class="node"><title>Node5</title>
<g id="a_node5"><a xlink:href="q__ned__global_8h.html" target="_top" xlink:title="/home/travis/build\l/konsim83/MPI&#45;MSFEC\l/include/Q_Ned/q_ned\l_global.h">
<polygon fill="white" stroke="black" points="308,-90.5 308,-158.5 468,-158.5 468,-90.5 308,-90.5"/>
<text text-anchor="start" x="316" y="-143.3" font-family="Helvetica,sans-Serif" font-size="14.00">/home/travis/build</text>
<text text-anchor="start" x="316" y="-128.3" font-family="Helvetica,sans-Serif" font-size="14.00">/konsim83/MPI&#45;MSFEC</text>
<text text-anchor="start" x="316" y="-113.3" font-family="Helvetica,sans-Serif" font-size="14.00">/include/Q_Ned/q_ned</text>
<text text-anchor="middle" x="388" y="-98.3" font-family="Helvetica,sans-Serif" font-size="14.00">_global.h</text>
</a>
</g>
</g>
<!-- Node1&#45;&gt;Node5 -->
<g id="edge7" class="edge"><title>Node1&#45;&gt;Node5</title>
<path fill="none" stroke="midnightblue" d="M358.176,-290.961C362.329,-282.256 366.202,-273 369,-264 379.88,-229.004 384.536,-187.106 386.524,-158.624"/>
<polygon fill="midnightblue" stroke="midnightblue" points="354.924,-289.64 353.597,-300.151 361.189,-292.762 354.924,-289.64"/>
</g>
<!-- Node8 -->
<g id="node8" class="node"><title>Node8</title>
<g id="a_node8"><a xlink:href="q__ned__ref_8h.html" target="_top" xlink:title="/home/travis/build\l/konsim83/MPI&#45;MSFEC\l/include/Q_Ned/q_ned_ref.h">
<polygon fill="white" stroke="black" points="416,-203 416,-256 602,-256 602,-203 416,-203"/>
<text text-anchor="start" x="424" y="-240.8" font-family="Helvetica,sans-Serif" font-size="14.00">/home/travis/build</text>
<text text-anchor="start" x="424" y="-225.8" font-family="Helvetica,sans-Serif" font-size="14.00">/konsim83/MPI&#45;MSFEC</text>
<text text-anchor="middle" x="509" y="-210.8" font-family="Helvetica,sans-Serif" font-size="14.00">/include/Q_Ned/q_ned_ref.h</text>
</a>
</g>
</g>
<!-- Node1&#45;&gt;Node8 -->
<g id="edge8" class="edge"><title>Node1&#45;&gt;Node8</title>
<path fill="none" stroke="midnightblue" d="M399.044,-295.217C421.225,-282.162 445.471,-267.891 465.538,-256.081"/>
<polygon fill="midnightblue" stroke="midnightblue" points="397.177,-292.254 390.334,-300.343 400.728,-298.287 397.177,-292.254"/>
</g>
<!-- Node4 -->
<g id="node4" class="node"><title>Node4</title>
<g id="a_node4"><a xlink:href="q__ned__basis_8cc.html" target="_top" xlink:title="/home/travis/build\l/konsim83/MPI&#45;MSFEC\l/source/Q_Ned/q_ned_basis.cc">
<polygon fill="white" stroke="black" points="84,-98 84,-151 290,-151 290,-98 84,-98"/>
<text text-anchor="start" x="92" y="-135.8" font-family="Helvetica,sans-Serif" font-size="14.00">/home/travis/build</text>
<text text-anchor="start" x="92" y="-120.8" font-family="Helvetica,sans-Serif" font-size="14.00">/konsim83/MPI&#45;MSFEC</text>
<text text-anchor="middle" x="187" y="-105.8" font-family="Helvetica,sans-Serif" font-size="14.00">/source/Q_Ned/q_ned_basis.cc</text>
</a>
</g>
</g>
<!-- Node3&#45;&gt;Node4 -->
<g id="edge3" class="edge"><title>Node3&#45;&gt;Node4</title>
<path fill="none" stroke="midnightblue" d="M243.231,-187.778C232.058,-175.403 220.1,-162.16 210.097,-151.081"/>
<polygon fill="midnightblue" stroke="midnightblue" points="240.763,-190.267 250.062,-195.343 245.958,-185.575 240.763,-190.267"/>
</g>
<!-- Node3&#45;&gt;Node5 -->
<g id="edge4" class="edge"><title>Node3&#45;&gt;Node5</title>
<path fill="none" stroke="midnightblue" d="M322.146,-188.305C332.459,-178.47 343.379,-168.055 353.299,-158.595"/>
<polygon fill="midnightblue" stroke="midnightblue" points="319.587,-185.909 314.766,-195.343 324.419,-190.974 319.587,-185.909"/>
</g>
<!-- Node6 -->
<g id="node6" class="node"><title>Node6</title>
<g id="a_node6"><a xlink:href="main__q__ned_8cxx.html" target="_top" xlink:title="/home/travis/build\l/konsim83/MPI&#45;MSFEC\l/source/main_q_ned.cxx">
<polygon fill="white" stroke="black" points="420,-0.5 420,-53.5 584,-53.5 584,-0.5 420,-0.5"/>
<text text-anchor="start" x="428" y="-38.3" font-family="Helvetica,sans-Serif" font-size="14.00">/home/travis/build</text>
<text text-anchor="start" x="428" y="-23.3" font-family="Helvetica,sans-Serif" font-size="14.00">/konsim83/MPI&#45;MSFEC</text>
<text text-anchor="middle" x="502" y="-8.3" font-family="Helvetica,sans-Serif" font-size="14.00">/source/main_q_ned.cxx</text>
</a>
</g>
</g>
<!-- Node5&#45;&gt;Node6 -->
<g id="edge5" class="edge"><title>Node5&#45;&gt;Node6</title>
<path fill="none" stroke="midnightblue" d="M435.452,-83.7485C447.643,-73.5363 460.433,-62.8215 471.506,-53.5452"/>
<polygon fill="midnightblue" stroke="midnightblue" points="432.97,-81.2621 427.552,-90.3668 437.465,-86.628 432.97,-81.2621"/>
</g>
<!-- Node7 -->
<g id="node7" class="node"><title>Node7</title>
<g id="a_node7"><a xlink:href="q__ned__global_8cc.html" target="_top" xlink:title="/home/travis/build\l/konsim83/MPI&#45;MSFEC\l/source/Q_Ned/q_ned_global.cc">
<polygon fill="white" stroke="black" points="192,-0.5 192,-53.5 402,-53.5 402,-0.5 192,-0.5"/>
<text text-anchor="start" x="200" y="-38.3" font-family="Helvetica,sans-Serif" font-size="14.00">/home/travis/build</text>
<text text-anchor="start" x="200" y="-23.3" font-family="Helvetica,sans-Serif" font-size="14.00">/konsim83/MPI&#45;MSFEC</text>
<text text-anchor="middle" x="297" y="-8.3" font-family="Helvetica,sans-Serif" font-size="14.00">/source/Q_Ned/q_ned_global.cc</text>
</a>
</g>
</g>
<!-- Node5&#45;&gt;Node7 -->
<g id="edge6" class="edge"><title>Node5&#45;&gt;Node7</title>
<path fill="none" stroke="midnightblue" d="M349.286,-82.872C339.808,-72.9252 329.928,-62.5565 321.341,-53.5452"/>
<polygon fill="midnightblue" stroke="midnightblue" points="346.996,-85.5416 356.428,-90.3668 352.063,-80.7127 346.996,-85.5416"/>
</g>
<!-- Node8&#45;&gt;Node6 -->
<g id="edge9" class="edge"><title>Node8&#45;&gt;Node6</title>
<path fill="none" stroke="midnightblue" d="M507.746,-192.584C506.35,-152.604 504.129,-88.99 502.897,-53.7024"/>
<polygon fill="midnightblue" stroke="midnightblue" points="504.252,-192.827 508.099,-202.699 511.248,-192.583 504.252,-192.827"/>
</g>
<!-- Node9 -->
<g id="node9" class="node"><title>Node9</title>
<g id="a_node9"><a xlink:href="q__ned__ref_8cc.html" target="_top" xlink:title="/home/travis/build\l/konsim83/MPI&#45;MSFEC\l/source/Q_Ned/q_ned_ref.cc">
<polygon fill="white" stroke="black" points="530,-98 530,-151 720,-151 720,-98 530,-98"/>
<text text-anchor="start" x="538" y="-135.8" font-family="Helvetica,sans-Serif" font-size="14.00">/home/travis/build</text>
<text text-anchor="start" x="538" y="-120.8" font-family="Helvetica,sans-Serif" font-size="14.00">/konsim83/MPI&#45;MSFEC</text>
<text text-anchor="middle" x="625" y="-105.8" font-family="Helvetica,sans-Serif" font-size="14.00">/source/Q_Ned/q_ned_ref.cc</text>
</a>
</g>
</g>
<!-- Node8&#45;&gt;Node9 -->
<g id="edge10" class="edge"><title>Node8&#45;&gt;Node9</title>
<path fill="none" stroke="midnightblue" d="M545.708,-195.906C561.944,-181.489 580.765,-164.778 595.995,-151.255"/>
<polygon fill="midnightblue" stroke="midnightblue" points="543.126,-193.518 537.972,-202.774 547.774,-198.752 543.126,-193.518"/>
</g>
</g>
</svg>
