<?xml version="1.0" encoding="UTF-8" standalone="no"?>
<!DOCTYPE svg PUBLIC "-//W3C//DTD SVG 1.1//EN"
 "http://www.w3.org/Graphics/SVG/1.1/DTD/svg11.dtd">
<!-- Generated by graphviz version 2.38.0 (20140413.2041)
 -->
<!-- Title: /home/travis/build/konsim83/MPI&#45;MSFEC/source/Q_Ned/q_ned_ref.cc Pages: 1 -->
<svg width="7426pt" height="197pt"
 viewBox="0.00 0.00 7425.50 197.00" xmlns="http://www.w3.org/2000/svg" xmlns:xlink="http://www.w3.org/1999/xlink">
<g id="graph0" class="graph" transform="scale(1 1) rotate(0) translate(4 193)">
<title>/home/travis/build/konsim83/MPI&#45;MSFEC/source/Q_Ned/q_ned_ref.cc</title>
<polygon fill="white" stroke="none" points="-4,4 -4,-193 7421.5,-193 7421.5,4 -4,4"/>
<!-- Node1 -->
<g id="node1" class="node"><title>Node1</title>
<polygon fill="#bfbfbf" stroke="black" points="3729.5,-135.5 3729.5,-188.5 3919.5,-188.5 3919.5,-135.5 3729.5,-135.5"/>
<text text-anchor="start" x="3737.5" y="-173.3" font-family="Helvetica,sans-Serif" font-size="14.00">/home/travis/build</text>
<text text-anchor="start" x="3737.5" y="-158.3" font-family="Helvetica,sans-Serif" font-size="14.00">/konsim83/MPI&#45;MSFEC</text>
<text text-anchor="middle" x="3824.5" y="-143.3" font-family="Helvetica,sans-Serif" font-size="14.00">/source/Q_Ned/q_ned_ref.cc</text>
</g>
<!-- Node2 -->
<g id="node2" class="node"><title>Node2</title>
<g id="a_node2"><a xlink:href="q__ned__ref_8h.html" target="_top" xlink:title="Q_Ned/q_ned_ref.h">
<polygon fill="white" stroke="red" points="3756.5,-75.5 3756.5,-98.5 3892.5,-98.5 3892.5,-75.5 3756.5,-75.5"/>
<text text-anchor="middle" x="3824.5" y="-83.3" font-family="Helvetica,sans-Serif" font-size="14.00">Q_Ned/q_ned_ref.h</text>
</a>
</g>
</g>
<!-- Node1&#45;&gt;Node2 -->
<g id="edge1" class="edge"><title>Node1&#45;&gt;Node2</title>
<path fill="none" stroke="midnightblue" d="M3824.5,-135.468C3824.5,-126.762 3824.5,-117.138 3824.5,-108.844"/>
<polygon fill="midnightblue" stroke="midnightblue" points="3828,-108.571 3824.5,-98.5709 3821,-108.571 3828,-108.571"/>
</g>
<!-- Node3 -->
<g id="node3" class="node"><title>Node3</title>
<polygon fill="white" stroke="#bfbfbf" points="0,-0.5 0,-38.5 155,-38.5 155,-0.5 0,-0.5"/>
<text text-anchor="start" x="8" y="-23.3" font-family="Helvetica,sans-Serif" font-size="14.00">deal.II/base/conditional</text>
<text text-anchor="middle" x="77.5" y="-8.3" font-family="Helvetica,sans-Serif" font-size="14.00">_ostream.h</text>
</g>
<!-- Node2&#45;&gt;Node3 -->
<g id="edge2" class="edge"><title>Node2&#45;&gt;Node3</title>
<path fill="none" stroke="midnightblue" d="M3756.22,-85.9421C3289.83,-85.4395 579.884,-80.7749 165.404,-39.027"/>
<polygon fill="midnightblue" stroke="midnightblue" points="165.516,-35.5192 155.201,-37.9392 164.774,-42.4797 165.516,-35.5192"/>
</g>
<!-- Node4 -->
<g id="node4" class="node"><title>Node4</title>
<polygon fill="white" stroke="#bfbfbf" points="173,-8 173,-31 322,-31 322,-8 173,-8"/>
<text text-anchor="middle" x="247.5" y="-15.8" font-family="Helvetica,sans-Serif" font-size="14.00">deal.II/base/function.h</text>
</g>
<!-- Node2&#45;&gt;Node4 -->
<g id="edge3" class="edge"><title>Node2&#45;&gt;Node4</title>
<path fill="none" stroke="midnightblue" d="M3756.45,-85.917C3299.3,-85.2495 683.189,-79.6648 331.5,-39 320.37,-37.7131 308.548,-35.5913 297.397,-33.2346"/>
<polygon fill="midnightblue" stroke="midnightblue" points="297.902,-29.762 287.383,-31.0215 296.392,-36.5971 297.902,-29.762"/>
</g>
<!-- Node5 -->
<g id="node5" class="node"><title>Node5</title>
<polygon fill="white" stroke="#bfbfbf" points="340.5,-0.5 340.5,-38.5 462.5,-38.5 462.5,-0.5 340.5,-0.5"/>
<text text-anchor="start" x="348.5" y="-23.3" font-family="Helvetica,sans-Serif" font-size="14.00">deal.II/base/index</text>
<text text-anchor="middle" x="401.5" y="-8.3" font-family="Helvetica,sans-Serif" font-size="14.00">_set.h</text>
</g>
<!-- Node2&#45;&gt;Node5 -->
<g id="edge4" class="edge"><title>Node2&#45;&gt;Node5</title>
<path fill="none" stroke="midnightblue" d="M3756.3,-86.045C3313.59,-86.2061 853.723,-85.0656 472.935,-38.9118"/>
<polygon fill="midnightblue" stroke="midnightblue" points="473.154,-35.411 462.788,-37.6033 472.258,-42.3536 473.154,-35.411"/>
</g>
<!-- Node6 -->
<g id="node6" class="node"><title>Node6</title>
<polygon fill="white" stroke="#bfbfbf" points="481,-8 481,-31 642,-31 642,-8 481,-8"/>
<text text-anchor="middle" x="561.5" y="-15.8" font-family="Helvetica,sans-Serif" font-size="14.00">deal.II/base/logstream.h</text>
</g>
<!-- Node2&#45;&gt;Node6 -->
<g id="edge5" class="edge"><title>Node2&#45;&gt;Node6</title>
<path fill="none" stroke="midnightblue" d="M3756.2,-85.7594C3323.34,-84.1326 969.578,-73.7349 651.5,-39 639.359,-37.6742 626.43,-35.4867 614.271,-33.0715"/>
<polygon fill="midnightblue" stroke="midnightblue" points="614.774,-29.6015 604.272,-31.0031 613.355,-36.4563 614.774,-29.6015"/>
</g>
<!-- Node7 -->
<g id="node7" class="node"><title>Node7</title>
<polygon fill="white" stroke="#bfbfbf" points="660.5,-8 660.5,-31 784.5,-31 784.5,-8 660.5,-8"/>
<text text-anchor="middle" x="722.5" y="-15.8" font-family="Helvetica,sans-Serif" font-size="14.00">deal.II/base/mpi.h</text>
</g>
<!-- Node2&#45;&gt;Node7 -->
<g id="edge6" class="edge"><title>Node2&#45;&gt;Node7</title>
<path fill="none" stroke="midnightblue" d="M3756.19,-85.921C3334.7,-85.3037 1095.63,-80.0988 793.5,-39 784.513,-37.7775 775.033,-35.8039 766.029,-33.5915"/>
<polygon fill="midnightblue" stroke="midnightblue" points="766.675,-30.1435 756.117,-31.0196 764.917,-36.9191 766.675,-30.1435"/>
</g>
<!-- Node8 -->
<g id="node8" class="node"><title>Node8</title>
<polygon fill="white" stroke="#bfbfbf" points="802.5,-0.5 802.5,-38.5 954.5,-38.5 954.5,-0.5 802.5,-0.5"/>
<text text-anchor="start" x="810.5" y="-23.3" font-family="Helvetica,sans-Serif" font-size="14.00">deal.II/base/parameter</text>
<text text-anchor="middle" x="878.5" y="-8.3" font-family="Helvetica,sans-Serif" font-size="14.00">_handler.h</text>
</g>
<!-- Node2&#45;&gt;Node8 -->
<g id="edge7" class="edge"><title>Node2&#45;&gt;Node8</title>
<path fill="none" stroke="midnightblue" d="M3756.46,-85.6893C3354.16,-83.7458 1293.5,-72.2822 964.923,-38.9536"/>
<polygon fill="midnightblue" stroke="midnightblue" points="965.155,-35.4583 954.836,-37.8601 964.4,-42.4176 965.155,-35.4583"/>
</g>
<!-- Node9 -->
<g id="node9" class="node"><title>Node9</title>
<polygon fill="white" stroke="#bfbfbf" points="973,-8 973,-31 1116,-31 1116,-8 973,-8"/>
<text text-anchor="middle" x="1044.5" y="-15.8" font-family="Helvetica,sans-Serif" font-size="14.00">deal.II/base/utilities.h</text>
</g>
<!-- Node2&#45;&gt;Node9 -->
<g id="edge8" class="edge"><title>Node2&#45;&gt;Node9</title>
<path fill="none" stroke="midnightblue" d="M3756.49,-85.6703C3363.61,-83.6515 1392.42,-71.9394 1124.5,-39 1114.1,-37.7213 1103.08,-35.6516 1092.64,-33.3506"/>
<polygon fill="midnightblue" stroke="midnightblue" points="1093.4,-29.932 1082.86,-31.0919 1091.82,-36.7525 1093.4,-29.932"/>
</g>
<!-- Node10 -->
<g id="node10" class="node"><title>Node10</title>
<polygon fill="white" stroke="#bfbfbf" points="1134,-0.5 1134,-38.5 1245,-38.5 1245,-0.5 1134,-0.5"/>
<text text-anchor="start" x="1142" y="-23.3" font-family="Helvetica,sans-Serif" font-size="14.00">deal.II/lac/affine</text>
<text text-anchor="middle" x="1189.5" y="-8.3" font-family="Helvetica,sans-Serif" font-size="14.00">_constraints.h</text>
</g>
<!-- Node2&#45;&gt;Node10 -->
<g id="edge9" class="edge"><title>Node2&#45;&gt;Node10</title>
<path fill="none" stroke="midnightblue" d="M3756.32,-85.8244C3378.9,-84.7109 1552.27,-77.4368 1255.45,-38.9625"/>
<polygon fill="midnightblue" stroke="midnightblue" points="1255.54,-35.4412 1245.16,-37.5218 1254.57,-42.3736 1255.54,-35.4412"/>
</g>
<!-- Node11 -->
<g id="node11" class="node"><title>Node11</title>
<polygon fill="white" stroke="#bfbfbf" points="1262.5,-0.5 1262.5,-38.5 1420.5,-38.5 1420.5,-0.5 1262.5,-0.5"/>
<text text-anchor="start" x="1270.5" y="-23.3" font-family="Helvetica,sans-Serif" font-size="14.00">deal.II/lac/block_sparse</text>
<text text-anchor="middle" x="1341.5" y="-8.3" font-family="Helvetica,sans-Serif" font-size="14.00">_matrix.h</text>
</g>
<!-- Node2&#45;&gt;Node11 -->
<g id="edge10" class="edge"><title>Node2&#45;&gt;Node11</title>
<path fill="none" stroke="midnightblue" d="M3756.3,-85.4255C3394.83,-82.2794 1709.24,-66.314 1430.59,-38.9091"/>
<polygon fill="midnightblue" stroke="midnightblue" points="1430.85,-35.4179 1420.54,-37.8463 1430.12,-42.3791 1430.85,-35.4179"/>
</g>
<!-- Node12 -->
<g id="node12" class="node"><title>Node12</title>
<polygon fill="white" stroke="#bfbfbf" points="1439,-8 1439,-31 1604,-31 1604,-8 1439,-8"/>
<text text-anchor="middle" x="1521.5" y="-15.8" font-family="Helvetica,sans-Serif" font-size="14.00">deal.II/lac/block_vector.h</text>
</g>
<!-- Node2&#45;&gt;Node12 -->
<g id="edge11" class="edge"><title>Node2&#45;&gt;Node12</title>
<path fill="none" stroke="midnightblue" d="M3756.39,-86.1981C3432.15,-86.8894 2043.05,-86.9462 1612.5,-39 1600.36,-37.6478 1587.43,-35.4751 1575.25,-33.0861"/>
<polygon fill="midnightblue" stroke="midnightblue" points="1575.72,-29.6102 1565.22,-31.0417 1574.32,-36.4691 1575.72,-29.6102"/>
</g>
<!-- Node13 -->
<g id="node13" class="node"><title>Node13</title>
<polygon fill="white" stroke="#bfbfbf" points="1622,-0.5 1622,-38.5 1753,-38.5 1753,-0.5 1622,-0.5"/>
<text text-anchor="start" x="1630" y="-23.3" font-family="Helvetica,sans-Serif" font-size="14.00">deal.II/lac/dynamic</text>
<text text-anchor="middle" x="1687.5" y="-8.3" font-family="Helvetica,sans-Serif" font-size="14.00">_sparsity_pattern.h</text>
</g>
<!-- Node2&#45;&gt;Node13 -->
<g id="edge12" class="edge"><title>Node2&#45;&gt;Node13</title>
<path fill="none" stroke="midnightblue" d="M3756.4,-85.3343C3427.07,-81.9978 2005.93,-66.2148 1763.23,-38.798"/>
<polygon fill="midnightblue" stroke="midnightblue" points="1763.55,-35.3107 1753.19,-37.5675 1762.69,-42.2586 1763.55,-35.3107"/>
</g>
<!-- Node14 -->
<g id="node14" class="node"><title>Node14</title>
<polygon fill="white" stroke="#bfbfbf" points="1771.5,-8 1771.5,-31 1923.5,-31 1923.5,-8 1771.5,-8"/>
<text text-anchor="middle" x="1847.5" y="-15.8" font-family="Helvetica,sans-Serif" font-size="14.00">deal.II/lac/full_matrix.h</text>
</g>
<!-- Node2&#45;&gt;Node14 -->
<g id="edge13" class="edge"><title>Node2&#45;&gt;Node14</title>
<path fill="none" stroke="midnightblue" d="M3756.42,-86.0369C3461.94,-85.9306 2296.24,-82.7015 1932.5,-39 1921.36,-37.6621 1909.54,-35.5435 1898.35,-33.2098"/>
<polygon fill="midnightblue" stroke="midnightblue" points="1898.82,-29.7295 1888.31,-31.0224 1897.33,-36.5694 1898.82,-29.7295"/>
</g>
<!-- Node15 -->
<g id="node15" class="node"><title>Node15</title>
<polygon fill="white" stroke="#bfbfbf" points="1941.5,-0.5 1941.5,-38.5 2063.5,-38.5 2063.5,-0.5 1941.5,-0.5"/>
<text text-anchor="start" x="1949.5" y="-23.3" font-family="Helvetica,sans-Serif" font-size="14.00">deal.II/lac/generic</text>
<text text-anchor="middle" x="2002.5" y="-8.3" font-family="Helvetica,sans-Serif" font-size="14.00">_linear_algebra.h</text>
</g>
<!-- Node2&#45;&gt;Node15 -->
<g id="edge14" class="edge"><title>Node2&#45;&gt;Node15</title>
<path fill="none" stroke="midnightblue" d="M3756.27,-86.2772C3477.89,-87.0862 2426.54,-86.9215 2073.77,-38.9544"/>
<polygon fill="midnightblue" stroke="midnightblue" points="2074.18,-35.4778 2063.79,-37.5578 2073.21,-42.4102 2074.18,-35.4778"/>
</g>
<!-- Node16 -->
<g id="node16" class="node"><title>Node16</title>
<polygon fill="white" stroke="#bfbfbf" points="2082,-8 2082,-31 2285,-31 2285,-8 2082,-8"/>
<text text-anchor="middle" x="2183.5" y="-15.8" font-family="Helvetica,sans-Serif" font-size="14.00">deal.II/lac/petsc_precondition.h</text>
</g>
<!-- Node2&#45;&gt;Node16 -->
<g id="edge15" class="edge"><title>Node2&#45;&gt;Node16</title>
<path fill="none" stroke="midnightblue" d="M3756.4,-85.1417C3498.73,-81.7024 2583.44,-67.6971 2293.5,-39 2278.47,-37.5122 2262.38,-35.2136 2247.29,-32.7364"/>
<polygon fill="midnightblue" stroke="midnightblue" points="2247.46,-29.216 2237.02,-31.0006 2246.29,-36.1182 2247.46,-29.216"/>
</g>
<!-- Node17 -->
<g id="node17" class="node"><title>Node17</title>
<polygon fill="white" stroke="#bfbfbf" points="2303,-8 2303,-31 2468,-31 2468,-8 2303,-8"/>
<text text-anchor="middle" x="2385.5" y="-15.8" font-family="Helvetica,sans-Serif" font-size="14.00">deal.II/lac/petsc_solver.h</text>
</g>
<!-- Node2&#45;&gt;Node17 -->
<g id="edge16" class="edge"><title>Node2&#45;&gt;Node17</title>
<path fill="none" stroke="midnightblue" d="M3756.11,-85.1146C3518.29,-81.8015 2728.23,-68.7688 2476.5,-39 2464.49,-37.58 2451.71,-35.4042 2439.64,-33.0373"/>
<polygon fill="midnightblue" stroke="midnightblue" points="2440.19,-29.5787 2429.7,-31.0165 2438.8,-36.4384 2440.19,-29.5787"/>
</g>
<!-- Node18 -->
<g id="node18" class="node"><title>Node18</title>
<polygon fill="white" stroke="#bfbfbf" points="2486,-8 2486,-31 2633,-31 2633,-8 2486,-8"/>
<text text-anchor="middle" x="2559.5" y="-15.8" font-family="Helvetica,sans-Serif" font-size="14.00">deal.II/lac/solver_cg.h</text>
</g>
<!-- Node2&#45;&gt;Node18 -->
<g id="edge17" class="edge"><title>Node2&#45;&gt;Node18</title>
<path fill="none" stroke="midnightblue" d="M3756.33,-84.8986C3538.38,-81.1242 2860.15,-67.3499 2642.5,-39 2631.85,-37.6128 2620.55,-35.5199 2609.83,-33.2346"/>
<polygon fill="midnightblue" stroke="midnightblue" points="2610.29,-29.7517 2599.77,-31.0013 2608.77,-36.5853 2610.29,-29.7517"/>
</g>
<!-- Node19 -->
<g id="node19" class="node"><title>Node19</title>
<polygon fill="white" stroke="#bfbfbf" points="2651.5,-0.5 2651.5,-38.5 2765.5,-38.5 2765.5,-0.5 2651.5,-0.5"/>
<text text-anchor="start" x="2659.5" y="-23.3" font-family="Helvetica,sans-Serif" font-size="14.00">deal.II/lac/solver</text>
<text text-anchor="middle" x="2708.5" y="-8.3" font-family="Helvetica,sans-Serif" font-size="14.00">_gmres.h</text>
</g>
<!-- Node2&#45;&gt;Node19 -->
<g id="edge18" class="edge"><title>Node2&#45;&gt;Node19</title>
<path fill="none" stroke="midnightblue" d="M3756.19,-84.9794C3557.88,-81.699 2983.5,-69.8721 2775.48,-38.8921"/>
<polygon fill="midnightblue" stroke="midnightblue" points="2775.98,-35.4272 2765.56,-37.3545 2774.91,-42.3447 2775.98,-35.4272"/>
</g>
<!-- Node20 -->
<g id="node20" class="node"><title>Node20</title>
<polygon fill="white" stroke="#bfbfbf" points="2783.5,-0.5 2783.5,-38.5 2897.5,-38.5 2897.5,-0.5 2783.5,-0.5"/>
<text text-anchor="start" x="2791.5" y="-23.3" font-family="Helvetica,sans-Serif" font-size="14.00">deal.II/lac/solver</text>
<text text-anchor="middle" x="2840.5" y="-8.3" font-family="Helvetica,sans-Serif" font-size="14.00">_minres.h</text>
</g>
<!-- Node2&#45;&gt;Node20 -->
<g id="edge19" class="edge"><title>Node2&#45;&gt;Node20</title>
<path fill="none" stroke="midnightblue" d="M3756.4,-84.4738C3576.14,-80.1273 3088.63,-66.2995 2907.5,-38.9001"/>
<polygon fill="midnightblue" stroke="midnightblue" points="2907.99,-35.433 2897.56,-37.3315 2906.9,-42.3475 2907.99,-35.433"/>
</g>
<!-- Node21 -->
<g id="node21" class="node"><title>Node21</title>
<polygon fill="white" stroke="#bfbfbf" points="2915.5,-8 2915.5,-31 3041.5,-31 3041.5,-8 2915.5,-8"/>
<text text-anchor="middle" x="2978.5" y="-15.8" font-family="Helvetica,sans-Serif" font-size="14.00">deal.II/lac/vector.h</text>
</g>
<!-- Node2&#45;&gt;Node21 -->
<g id="edge20" class="edge"><title>Node2&#45;&gt;Node21</title>
<path fill="none" stroke="midnightblue" d="M3756.48,-86.2117C3621.16,-85.6785 3308.99,-79.6753 3050.5,-39 3041.79,-37.6299 3032.61,-35.6741 3023.82,-33.5426"/>
<polygon fill="midnightblue" stroke="midnightblue" points="3024.66,-30.1462 3014.11,-31.0834 3022.94,-36.9318 3024.66,-30.1462"/>
</g>
<!-- Node22 -->
<g id="node22" class="node"><title>Node22</title>
<polygon fill="white" stroke="#bfbfbf" points="3060,-0.5 3060,-38.5 3185,-38.5 3185,-0.5 3060,-0.5"/>
<text text-anchor="start" x="3068" y="-23.3" font-family="Helvetica,sans-Serif" font-size="14.00">deal.II/lac/sparsity</text>
<text text-anchor="middle" x="3122.5" y="-8.3" font-family="Helvetica,sans-Serif" font-size="14.00">_tools.h</text>
</g>
<!-- Node2&#45;&gt;Node22 -->
<g id="edge21" class="edge"><title>Node2&#45;&gt;Node22</title>
<path fill="none" stroke="midnightblue" d="M3756.44,-84.8618C3642.22,-82.0886 3404.72,-72.6268 3195.15,-38.9275"/>
<polygon fill="midnightblue" stroke="midnightblue" points="3195.62,-35.4587 3185.19,-37.3043 3194.5,-42.3676 3195.62,-35.4587"/>
</g>
<!-- Node23 -->
<g id="node23" class="node"><title>Node23</title>
<polygon fill="white" stroke="#bfbfbf" points="3203.5,-8 3203.5,-31 3335.5,-31 3335.5,-8 3203.5,-8"/>
<text text-anchor="middle" x="3269.5" y="-15.8" font-family="Helvetica,sans-Serif" font-size="14.00">deal.II/base/timer.h</text>
</g>
<!-- Node2&#45;&gt;Node23 -->
<g id="edge22" class="edge"><title>Node2&#45;&gt;Node23</title>
<path fill="none" stroke="midnightblue" d="M3756.12,-82.4155C3662.65,-76.8087 3489.96,-63.9271 3344.5,-39 3335.76,-37.5023 3326.53,-35.5442 3317.65,-33.4634"/>
<polygon fill="midnightblue" stroke="midnightblue" points="3318.36,-30.0337 3307.82,-31.08 3316.71,-36.8368 3318.36,-30.0337"/>
</g>
<!-- Node24 -->
<g id="node24" class="node"><title>Node24</title>
<polygon fill="white" stroke="#bfbfbf" points="3354,-0.5 3354,-38.5 3485,-38.5 3485,-0.5 3354,-0.5"/>
<text text-anchor="start" x="3362" y="-23.3" font-family="Helvetica,sans-Serif" font-size="14.00">deal.II/distributed</text>
<text text-anchor="middle" x="3419.5" y="-8.3" font-family="Helvetica,sans-Serif" font-size="14.00">/solution_transfer.h</text>
</g>
<!-- Node2&#45;&gt;Node24 -->
<g id="edge23" class="edge"><title>Node2&#45;&gt;Node24</title>
<path fill="none" stroke="midnightblue" d="M3756.32,-78.4196C3691.39,-70.7228 3590.74,-57.5573 3495.03,-39.2074"/>
<polygon fill="midnightblue" stroke="midnightblue" points="3495.67,-35.7666 3485.19,-37.2984 3494.34,-42.6385 3495.67,-35.7666"/>
</g>
<!-- Node25 -->
<g id="node25" class="node"><title>Node25</title>
<polygon fill="white" stroke="#bfbfbf" points="3503,-0.5 3503,-38.5 3622,-38.5 3622,-0.5 3503,-0.5"/>
<text text-anchor="start" x="3511" y="-23.3" font-family="Helvetica,sans-Serif" font-size="14.00">deal.II/distributed</text>
<text text-anchor="middle" x="3562.5" y="-8.3" font-family="Helvetica,sans-Serif" font-size="14.00">/tria.h</text>
</g>
<!-- Node2&#45;&gt;Node25 -->
<g id="edge24" class="edge"><title>Node2&#45;&gt;Node25</title>
<path fill="none" stroke="midnightblue" d="M3779.97,-75.4633C3742.94,-66.6342 3688.63,-53.5213 3632.14,-39.137"/>
<polygon fill="midnightblue" stroke="midnightblue" points="3632.87,-35.7118 3622.32,-36.6284 3631.14,-42.4941 3632.87,-35.7118"/>
</g>
<!-- Node26 -->
<g id="node26" class="node"><title>Node26</title>
<polygon fill="white" stroke="#bfbfbf" points="3640.5,-8 3640.5,-31 3818.5,-31 3818.5,-8 3640.5,-8"/>
<text text-anchor="middle" x="3729.5" y="-15.8" font-family="Helvetica,sans-Serif" font-size="14.00">deal.II/dofs/dof_accessor.h</text>
</g>
<!-- Node2&#45;&gt;Node26 -->
<g id="edge25" class="edge"><title>Node2&#45;&gt;Node26</title>
<path fill="none" stroke="midnightblue" d="M3809.24,-75.4763C3794.23,-65.1292 3771.09,-49.1777 3753.6,-37.1171"/>
<polygon fill="midnightblue" stroke="midnightblue" points="3755.26,-34.0101 3745.04,-31.2152 3751.29,-39.773 3755.26,-34.0101"/>
</g>
<!-- Node27 -->
<g id="node27" class="node"><title>Node27</title>
<polygon fill="white" stroke="#bfbfbf" points="3836,-8 3836,-31 4005,-31 4005,-8 3836,-8"/>
<text text-anchor="middle" x="3920.5" y="-15.8" font-family="Helvetica,sans-Serif" font-size="14.00">deal.II/dofs/dof_handler.h</text>
</g>
<!-- Node2&#45;&gt;Node27 -->
<g id="edge26" class="edge"><title>Node2&#45;&gt;Node27</title>
<path fill="none" stroke="midnightblue" d="M3839.92,-75.4763C3855.09,-65.1292 3878.47,-49.1777 3896.15,-37.1171"/>
<polygon fill="midnightblue" stroke="midnightblue" points="3898.51,-39.7424 3904.8,-31.2152 3894.56,-33.9601 3898.51,-39.7424"/>
</g>
<!-- Node28 -->
<g id="node28" class="node"><title>Node28</title>
<polygon fill="white" stroke="#bfbfbf" points="4023.5,-8 4023.5,-31 4223.5,-31 4223.5,-8 4023.5,-8"/>
<text text-anchor="middle" x="4123.5" y="-15.8" font-family="Helvetica,sans-Serif" font-size="14.00">deal.II/dofs/dof_renumbering.h</text>
</g>
<!-- Node2&#45;&gt;Node28 -->
<g id="edge27" class="edge"><title>Node2&#45;&gt;Node28</title>
<path fill="none" stroke="midnightblue" d="M3872.54,-75.4763C3925.02,-63.9797 4009.08,-45.5643 4065.28,-33.2546"/>
<polygon fill="midnightblue" stroke="midnightblue" points="4066.06,-36.6651 4075.08,-31.1062 4064.57,-29.8272 4066.06,-36.6651"/>
</g>
<!-- Node29 -->
<g id="node29" class="node"><title>Node29</title>
<polygon fill="white" stroke="#bfbfbf" points="4241.5,-8 4241.5,-31 4393.5,-31 4393.5,-8 4241.5,-8"/>
<text text-anchor="middle" x="4317.5" y="-15.8" font-family="Helvetica,sans-Serif" font-size="14.00">deal.II/dofs/dof_tools.h</text>
</g>
<!-- Node2&#45;&gt;Node29 -->
<g id="edge28" class="edge"><title>Node2&#45;&gt;Node29</title>
<path fill="none" stroke="midnightblue" d="M3892.65,-80.2419C3973.89,-72.895 4113.63,-58.7327 4232.5,-39 4242.44,-37.3492 4252.98,-35.3015 4263.13,-33.1761"/>
<polygon fill="midnightblue" stroke="midnightblue" points="4264.06,-36.5555 4273.11,-31.0367 4262.59,-29.7111 4264.06,-36.5555"/>
</g>
<!-- Node30 -->
<g id="node30" class="node"><title>Node30</title>
<polygon fill="white" stroke="#bfbfbf" points="4412,-8 4412,-31 4541,-31 4541,-8 4412,-8"/>
<text text-anchor="middle" x="4476.5" y="-15.8" font-family="Helvetica,sans-Serif" font-size="14.00">deal.II/fe/fe_bdm.h</text>
</g>
<!-- Node2&#45;&gt;Node30 -->
<g id="edge29" class="edge"><title>Node2&#45;&gt;Node30</title>
<path fill="none" stroke="midnightblue" d="M3892.57,-84.0743C4001.08,-80.196 4219.71,-69.0725 4402.5,-39 4411.33,-37.5474 4420.65,-35.5728 4429.6,-33.4529"/>
<polygon fill="midnightblue" stroke="midnightblue" points="4430.61,-36.8078 4439.48,-31.0178 4428.94,-30.0109 4430.61,-36.8078"/>
</g>
<!-- Node31 -->
<g id="node31" class="node"><title>Node31</title>
<polygon fill="white" stroke="#bfbfbf" points="4559,-8 4559,-31 4684,-31 4684,-8 4559,-8"/>
<text text-anchor="middle" x="4621.5" y="-15.8" font-family="Helvetica,sans-Serif" font-size="14.00">deal.II/fe/fe_dgp.h</text>
</g>
<!-- Node2&#45;&gt;Node31 -->
<g id="edge30" class="edge"><title>Node2&#45;&gt;Node31</title>
<path fill="none" stroke="midnightblue" d="M3892.54,-85.8947C4021.66,-84.7466 4310.77,-77.6313 4550.5,-39 4559,-37.6308 4567.95,-35.6958 4576.54,-33.5889"/>
<polygon fill="midnightblue" stroke="midnightblue" points="4577.57,-36.9363 4586.39,-31.0604 4575.83,-30.156 4577.57,-36.9363"/>
</g>
<!-- Node32 -->
<g id="node32" class="node"><title>Node32</title>
<polygon fill="white" stroke="#bfbfbf" points="4702,-8 4702,-31 4827,-31 4827,-8 4702,-8"/>
<text text-anchor="middle" x="4764.5" y="-15.8" font-family="Helvetica,sans-Serif" font-size="14.00">deal.II/fe/fe_dgq.h</text>
</g>
<!-- Node2&#45;&gt;Node32 -->
<g id="edge31" class="edge"><title>Node2&#45;&gt;Node32</title>
<path fill="none" stroke="midnightblue" d="M3892.76,-84.0808C4069.6,-78.8245 4539.54,-62.9715 4693.5,-39 4702.09,-37.6619 4711.15,-35.7214 4719.82,-33.5952"/>
<polygon fill="midnightblue" stroke="midnightblue" points="4720.95,-36.919 4729.76,-31.0388 4719.21,-30.1395 4720.95,-36.919"/>
</g>
<!-- Node33 -->
<g id="node33" class="node"><title>Node33</title>
<polygon fill="white" stroke="#bfbfbf" points="4845,-8 4845,-31 4994,-31 4994,-8 4845,-8"/>
<text text-anchor="middle" x="4919.5" y="-15.8" font-family="Helvetica,sans-Serif" font-size="14.00">deal.II/fe/fe_nedelec.h</text>
</g>
<!-- Node2&#45;&gt;Node33 -->
<g id="edge32" class="edge"><title>Node2&#45;&gt;Node33</title>
<path fill="none" stroke="midnightblue" d="M3892.7,-84.3713C4089.06,-79.4376 4653.34,-63.4784 4836.5,-39 4847.03,-37.5921 4858.21,-35.513 4868.83,-33.2515"/>
<polygon fill="midnightblue" stroke="midnightblue" points="4869.79,-36.6224 4878.8,-31.0434 4868.28,-29.7879 4869.79,-36.6224"/>
</g>
<!-- Node34 -->
<g id="node34" class="node"><title>Node34</title>
<polygon fill="white" stroke="#bfbfbf" points="5012.5,-8 5012.5,-31 5122.5,-31 5122.5,-8 5012.5,-8"/>
<text text-anchor="middle" x="5067.5" y="-15.8" font-family="Helvetica,sans-Serif" font-size="14.00">deal.II/fe/fe_q.h</text>
</g>
<!-- Node2&#45;&gt;Node34 -->
<g id="edge33" class="edge"><title>Node2&#45;&gt;Node34</title>
<path fill="none" stroke="midnightblue" d="M3892.58,-85.4431C4110.21,-83.3237 4787.38,-74.0136 5003.5,-39 5011.12,-37.7653 5019.12,-35.9167 5026.78,-33.8584"/>
<polygon fill="midnightblue" stroke="midnightblue" points="5027.93,-37.1687 5036.59,-31.0655 5026.02,-30.436 5027.93,-37.1687"/>
</g>
<!-- Node35 -->
<g id="node35" class="node"><title>Node35</title>
<polygon fill="white" stroke="#bfbfbf" points="5140.5,-0.5 5140.5,-38.5 5268.5,-38.5 5268.5,-0.5 5140.5,-0.5"/>
<text text-anchor="start" x="5148.5" y="-23.3" font-family="Helvetica,sans-Serif" font-size="14.00">deal.II/fe/fe_raviart</text>
<text text-anchor="middle" x="5204.5" y="-8.3" font-family="Helvetica,sans-Serif" font-size="14.00">_thomas.h</text>
</g>
<!-- Node2&#45;&gt;Node35 -->
<g id="edge34" class="edge"><title>Node2&#45;&gt;Node35</title>
<path fill="none" stroke="midnightblue" d="M3892.88,-85.4556C4122.98,-83.3279 4868.87,-73.9536 5129.96,-39.0071"/>
<polygon fill="midnightblue" stroke="midnightblue" points="5130.74,-42.4329 5140.16,-37.5928 5129.78,-35.4992 5130.74,-42.4329"/>
</g>
<!-- Node36 -->
<g id="node36" class="node"><title>Node36</title>
<polygon fill="white" stroke="#bfbfbf" points="5286.5,-8 5286.5,-31 5432.5,-31 5432.5,-8 5286.5,-8"/>
<text text-anchor="middle" x="5359.5" y="-15.8" font-family="Helvetica,sans-Serif" font-size="14.00">deal.II/fe/fe_system.h</text>
</g>
<!-- Node2&#45;&gt;Node36 -->
<g id="edge35" class="edge"><title>Node2&#45;&gt;Node36</title>
<path fill="none" stroke="midnightblue" d="M3892.57,-85.5096C4141.84,-83.4472 5004.46,-73.8958 5277.5,-39 5288.03,-37.654 5299.2,-35.579 5309.79,-33.2981"/>
<polygon fill="midnightblue" stroke="midnightblue" points="5310.74,-36.672 5319.73,-31.0651 5309.21,-29.8422 5310.74,-36.672"/>
</g>
<!-- Node37 -->
<g id="node37" class="node"><title>Node37</title>
<polygon fill="white" stroke="#bfbfbf" points="5451,-8 5451,-31 5584,-31 5584,-8 5451,-8"/>
<text text-anchor="middle" x="5517.5" y="-15.8" font-family="Helvetica,sans-Serif" font-size="14.00">deal.II/grid/cell_id.h</text>
</g>
<!-- Node2&#45;&gt;Node37 -->
<g id="edge36" class="edge"><title>Node2&#45;&gt;Node37</title>
<path fill="none" stroke="midnightblue" d="M3892.82,-85.9212C4160.09,-85.3174 5135.16,-80.2714 5441.5,-39 5451.19,-37.6947 5461.44,-35.6605 5471.17,-33.4105"/>
<polygon fill="midnightblue" stroke="midnightblue" points="5472.18,-36.7669 5481.07,-31.0093 5470.53,-29.964 5472.18,-36.7669"/>
</g>
<!-- Node38 -->
<g id="node38" class="node"><title>Node38</title>
<polygon fill="white" stroke="#bfbfbf" points="5602.5,-8 5602.5,-31 5784.5,-31 5784.5,-8 5602.5,-8"/>
<text text-anchor="middle" x="5693.5" y="-15.8" font-family="Helvetica,sans-Serif" font-size="14.00">deal.II/grid/grid_generator.h</text>
</g>
<!-- Node2&#45;&gt;Node38 -->
<g id="edge37" class="edge"><title>Node2&#45;&gt;Node38</title>
<path fill="none" stroke="midnightblue" d="M3892.83,-85.6138C4175.53,-83.795 5254.73,-74.6156 5593.5,-39 5607,-37.5805 5621.42,-35.3445 5634.98,-32.9106"/>
<polygon fill="midnightblue" stroke="midnightblue" points="5635.96,-36.2885 5645.15,-31.0211 5634.68,-29.4062 5635.96,-36.2885"/>
</g>
<!-- Node39 -->
<g id="node39" class="node"><title>Node39</title>
<polygon fill="white" stroke="#bfbfbf" points="5803,-8 5803,-31 5978,-31 5978,-8 5803,-8"/>
<text text-anchor="middle" x="5890.5" y="-15.8" font-family="Helvetica,sans-Serif" font-size="14.00">deal.II/grid/tria_accessor.h</text>
</g>
<!-- Node2&#45;&gt;Node39 -->
<g id="edge38" class="edge"><title>Node2&#45;&gt;Node39</title>
<path fill="none" stroke="midnightblue" d="M3892.51,-85.8795C4194.19,-85.114 5413.22,-79.5239 5793.5,-39 5806.68,-37.5958 5820.74,-35.353 5833.95,-32.906"/>
<polygon fill="midnightblue" stroke="midnightblue" points="5834.7,-36.3265 5843.86,-31.0054 5833.38,-29.4518 5834.7,-36.3265"/>
</g>
<!-- Node40 -->
<g id="node40" class="node"><title>Node40</title>
<polygon fill="white" stroke="#bfbfbf" points="5996,-8 5996,-31 6159,-31 6159,-8 5996,-8"/>
<text text-anchor="middle" x="6077.5" y="-15.8" font-family="Helvetica,sans-Serif" font-size="14.00">deal.II/grid/tria_iterator.h</text>
</g>
<!-- Node2&#45;&gt;Node40 -->
<g id="edge39" class="edge"><title>Node2&#45;&gt;Node40</title>
<path fill="none" stroke="midnightblue" d="M3892.7,-86.1797C4212.68,-86.7684 5567.25,-86.3634 5987.5,-39 5999.51,-37.6462 6012.3,-35.4728 6024.35,-33.0836"/>
<polygon fill="midnightblue" stroke="midnightblue" points="6025.18,-36.4864 6034.27,-31.0392 6023.77,-29.6306 6025.18,-36.4864"/>
</g>
<!-- Node41 -->
<g id="node41" class="node"><title>Node41</title>
<polygon fill="white" stroke="#bfbfbf" points="6177,-8 6177,-31 6340,-31 6340,-8 6177,-8"/>
<text text-anchor="middle" x="6258.5" y="-15.8" font-family="Helvetica,sans-Serif" font-size="14.00">deal.II/lac/precondition.h</text>
</g>
<!-- Node2&#45;&gt;Node41 -->
<g id="edge40" class="edge"><title>Node2&#45;&gt;Node41</title>
<path fill="none" stroke="midnightblue" d="M3892.73,-86.3138C4228.83,-87.6027 5710.53,-90.2258 6168.5,-39 6180.51,-37.6563 6193.3,-35.4869 6205.35,-33.0986"/>
<polygon fill="midnightblue" stroke="midnightblue" points="6206.18,-36.5014 6215.27,-31.0542 6204.77,-29.6456 6206.18,-36.5014"/>
</g>
<!-- Node42 -->
<g id="node42" class="node"><title>Node42</title>
<polygon fill="white" stroke="#bfbfbf" points="6358,-0.5 6358,-38.5 6475,-38.5 6475,-0.5 6358,-0.5"/>
<text text-anchor="start" x="6366" y="-23.3" font-family="Helvetica,sans-Serif" font-size="14.00">deal.II/lac/trilinos</text>
<text text-anchor="middle" x="6416.5" y="-8.3" font-family="Helvetica,sans-Serif" font-size="14.00">_precondition.h</text>
</g>
<!-- Node2&#45;&gt;Node42 -->
<g id="edge41" class="edge"><title>Node2&#45;&gt;Node42</title>
<path fill="none" stroke="midnightblue" d="M3892.68,-85.7514C4266.04,-84.2558 6056.22,-75.3042 6347.74,-38.9494"/>
<polygon fill="midnightblue" stroke="midnightblue" points="6348.41,-42.3907 6357.85,-37.589 6347.47,-35.4532 6348.41,-42.3907"/>
</g>
<!-- Node43 -->
<g id="node43" class="node"><title>Node43</title>
<polygon fill="white" stroke="#bfbfbf" points="6493,-0.5 6493,-38.5 6610,-38.5 6610,-0.5 6493,-0.5"/>
<text text-anchor="start" x="6501" y="-23.3" font-family="Helvetica,sans-Serif" font-size="14.00">deal.II/lac/trilinos</text>
<text text-anchor="middle" x="6551.5" y="-8.3" font-family="Helvetica,sans-Serif" font-size="14.00">_solver.h</text>
</g>
<!-- Node2&#45;&gt;Node43 -->
<g id="edge42" class="edge"><title>Node2&#45;&gt;Node43</title>
<path fill="none" stroke="midnightblue" d="M3892.79,-85.8206C4278.36,-84.6724 6176.36,-77.1787 6482.63,-38.9646"/>
<polygon fill="midnightblue" stroke="midnightblue" points="6483.41,-42.3922 6492.85,-37.5922 6482.47,-35.4545 6483.41,-42.3922"/>
</g>
<!-- Node44 -->
<g id="node44" class="node"><title>Node44</title>
<polygon fill="white" stroke="#bfbfbf" points="6628,-0.5 6628,-38.5 6771,-38.5 6771,-0.5 6628,-0.5"/>
<text text-anchor="start" x="6636" y="-23.3" font-family="Helvetica,sans-Serif" font-size="14.00">deal.II/numerics/data</text>
<text text-anchor="middle" x="6699.5" y="-8.3" font-family="Helvetica,sans-Serif" font-size="14.00">_out.h</text>
</g>
<!-- Node2&#45;&gt;Node44 -->
<g id="edge43" class="edge"><title>Node2&#45;&gt;Node44</title>
<path fill="none" stroke="midnightblue" d="M3892.6,-85.7131C4289.34,-83.9289 6295.83,-73.3227 6617.37,-39.039"/>
<polygon fill="midnightblue" stroke="midnightblue" points="6618.13,-42.4748 6627.67,-37.8616 6617.34,-35.5201 6618.13,-42.4748"/>
</g>
<!-- Node45 -->
<g id="node45" class="node"><title>Node45</title>
<polygon fill="white" stroke="#bfbfbf" points="6789.5,-0.5 6789.5,-38.5 6943.5,-38.5 6943.5,-0.5 6789.5,-0.5"/>
<text text-anchor="start" x="6797.5" y="-23.3" font-family="Helvetica,sans-Serif" font-size="14.00">deal.II/numerics/matrix</text>
<text text-anchor="middle" x="6866.5" y="-8.3" font-family="Helvetica,sans-Serif" font-size="14.00">_tools.h</text>
</g>
<!-- Node2&#45;&gt;Node45 -->
<g id="edge44" class="edge"><title>Node2&#45;&gt;Node45</title>
<path fill="none" stroke="midnightblue" d="M3892.77,-85.7171C4303.55,-83.9092 6439.93,-72.9824 6779.08,-38.9524"/>
<polygon fill="midnightblue" stroke="midnightblue" points="6779.69,-42.4069 6789.26,-37.8615 6778.95,-35.4467 6779.69,-42.4069"/>
</g>
<!-- Node46 -->
<g id="node46" class="node"><title>Node46</title>
<polygon fill="white" stroke="#bfbfbf" points="6962,-0.5 6962,-38.5 7115,-38.5 7115,-0.5 6962,-0.5"/>
<text text-anchor="start" x="6970" y="-23.3" font-family="Helvetica,sans-Serif" font-size="14.00">deal.II/numerics/vector</text>
<text text-anchor="middle" x="7038.5" y="-8.3" font-family="Helvetica,sans-Serif" font-size="14.00">_tools.h</text>
</g>
<!-- Node2&#45;&gt;Node46 -->
<g id="edge45" class="edge"><title>Node2&#45;&gt;Node46</title>
<path fill="none" stroke="midnightblue" d="M3892.53,-85.7821C4316.9,-84.3174 6594.17,-74.8786 6951.72,-38.8704"/>
<polygon fill="midnightblue" stroke="midnightblue" points="6952.16,-42.3429 6961.73,-37.7973 6951.41,-35.3827 6952.16,-42.3429"/>
</g>
<!-- Node47 -->
<g id="node47" class="node"><title>Node47</title>
<polygon fill="white" stroke="#bfbfbf" points="7133.5,-8 7133.5,-31 7187.5,-31 7187.5,-8 7133.5,-8"/>
<text text-anchor="middle" x="7160.5" y="-15.8" font-family="Helvetica,sans-Serif" font-size="14.00">cmath</text>
</g>
<!-- Node2&#45;&gt;Node47 -->
<g id="edge46" class="edge"><title>Node2&#45;&gt;Node47</title>
<path fill="none" stroke="midnightblue" d="M3892.73,-85.9127C4350.56,-85.2167 6962.24,-79.4783 7124.5,-39 7127.95,-38.1406 7131.43,-36.8996 7134.81,-35.4612"/>
<polygon fill="midnightblue" stroke="midnightblue" points="7136.46,-38.5539 7143.92,-31.0377 7133.4,-32.2568 7136.46,-38.5539"/>
</g>
<!-- Node48 -->
<g id="node48" class="node"><title>Node48</title>
<polygon fill="white" stroke="#bfbfbf" points="7205.5,-8 7205.5,-31 7267.5,-31 7267.5,-8 7205.5,-8"/>
<text text-anchor="middle" x="7236.5" y="-15.8" font-family="Helvetica,sans-Serif" font-size="14.00">fstream</text>
</g>
<!-- Node2&#45;&gt;Node48 -->
<g id="edge47" class="edge"><title>Node2&#45;&gt;Node48</title>
<path fill="none" stroke="midnightblue" d="M3892.71,-85.8561C4356.18,-84.778 7029.69,-76.9277 7196.5,-39 7200.5,-38.0909 7204.58,-36.7516 7208.52,-35.2021"/>
<polygon fill="midnightblue" stroke="midnightblue" points="7210.22,-38.2811 7217.95,-31.0426 7207.39,-31.8765 7210.22,-38.2811"/>
</g>
<!-- Node49 -->
<g id="node49" class="node"><title>Node49</title>
<polygon fill="white" stroke="#bfbfbf" points="7286,-8 7286,-31 7355,-31 7355,-8 7286,-8"/>
<text text-anchor="middle" x="7320.5" y="-15.8" font-family="Helvetica,sans-Serif" font-size="14.00">iostream</text>
</g>
<!-- Node2&#45;&gt;Node49 -->
<g id="edge48" class="edge"><title>Node2&#45;&gt;Node49</title>
<path fill="none" stroke="midnightblue" d="M3892.8,-85.8121C4362.82,-84.4269 7104.89,-74.8278 7276.5,-39 7281.1,-38.0405 7285.81,-36.5996 7290.37,-34.9374"/>
<polygon fill="midnightblue" stroke="midnightblue" points="7292.03,-38.0405 7299.99,-31.0459 7289.41,-31.5513 7292.03,-38.0405"/>
</g>
<!-- Node50 -->
<g id="node50" class="node"><title>Node50</title>
<polygon fill="white" stroke="#bfbfbf" points="7373.5,-8 7373.5,-31 7417.5,-31 7417.5,-8 7373.5,-8"/>
<text text-anchor="middle" x="7395.5" y="-15.8" font-family="Helvetica,sans-Serif" font-size="14.00">map</text>
</g>
<!-- Node2&#45;&gt;Node50 -->
<g id="edge49" class="edge"><title>Node2&#45;&gt;Node50</title>
<path fill="none" stroke="midnightblue" d="M3892.68,-86.1002C4369.54,-86.676 7191.28,-87.9987 7364.5,-39 7367.18,-38.2425 7369.86,-37.1911 7372.46,-35.9706"/>
<polygon fill="midnightblue" stroke="midnightblue" points="7374.34,-38.9307 7381.4,-31.032 7370.96,-32.8033 7374.34,-38.9307"/>
</g>
</g>
</svg>
