<?xml version="1.0" encoding="UTF-8" standalone="no"?>
<!DOCTYPE svg PUBLIC "-//W3C//DTD SVG 1.1//EN"
 "http://www.w3.org/Graphics/SVG/1.1/DTD/svg11.dtd">
<!-- Generated by graphviz version 2.38.0 (20140413.2041)
 -->
<!-- Title: /home/travis/build/konsim83/MPI&#45;MSFEC/include/Q_Ned/q_ned_post_processor.h Pages: 1 -->
<svg width="1869pt" height="227pt"
 viewBox="0.00 0.00 1868.50 227.00" xmlns="http://www.w3.org/2000/svg" xmlns:xlink="http://www.w3.org/1999/xlink">
<g id="graph0" class="graph" transform="scale(1 1) rotate(0) translate(4 223)">
<title>/home/travis/build/konsim83/MPI&#45;MSFEC/include/Q_Ned/q_ned_post_processor.h</title>
<polygon fill="white" stroke="none" points="-4,4 -4,-223 1864.5,-223 1864.5,4 -4,4"/>
<!-- Node1 -->
<g id="node1" class="node"><title>Node1</title>
<polygon fill="#bfbfbf" stroke="black" points="939,-150.5 939,-218.5 1099,-218.5 1099,-150.5 939,-150.5"/>
<text text-anchor="start" x="947" y="-203.3" font-family="Helvetica,sans-Serif" font-size="14.00">/home/travis/build</text>
<text text-anchor="start" x="947" y="-188.3" font-family="Helvetica,sans-Serif" font-size="14.00">/konsim83/MPI&#45;MSFEC</text>
<text text-anchor="start" x="947" y="-173.3" font-family="Helvetica,sans-Serif" font-size="14.00">/include/Q_Ned/q_ned</text>
<text text-anchor="middle" x="1019" y="-158.3" font-family="Helvetica,sans-Serif" font-size="14.00">_post_processor.h</text>
</g>
<!-- Node2 -->
<g id="node2" class="node"><title>Node2</title>
<polygon fill="white" stroke="#bfbfbf" points="287.5,-75.5 287.5,-113.5 430.5,-113.5 430.5,-75.5 287.5,-75.5"/>
<text text-anchor="start" x="295.5" y="-98.3" font-family="Helvetica,sans-Serif" font-size="14.00">deal.II/numerics/data</text>
<text text-anchor="middle" x="359" y="-83.3" font-family="Helvetica,sans-Serif" font-size="14.00">_postprocessor.h</text>
</g>
<!-- Node1&#45;&gt;Node2 -->
<g id="edge1" class="edge"><title>Node1&#45;&gt;Node2</title>
<path fill="none" stroke="midnightblue" d="M938.531,-176.536C828.372,-166.401 624.344,-145.488 441.007,-114.081"/>
<polygon fill="midnightblue" stroke="midnightblue" points="441.359,-110.59 430.91,-112.336 440.168,-117.487 441.359,-110.59"/>
</g>
<!-- Node3 -->
<g id="node3" class="node"><title>Node3</title>
<g id="a_node3"><a xlink:href="eqn__coeff__A_8h.html" target="_top" xlink:title="equation_data/eqn_coeff_A.h">
<polygon fill="white" stroke="black" points="922.5,-83 922.5,-106 1115.5,-106 1115.5,-83 922.5,-83"/>
<text text-anchor="middle" x="1019" y="-90.8" font-family="Helvetica,sans-Serif" font-size="14.00">equation_data/eqn_coeff_A.h</text>
</a>
</g>
</g>
<!-- Node1&#45;&gt;Node3 -->
<g id="edge2" class="edge"><title>Node1&#45;&gt;Node3</title>
<path fill="none" stroke="midnightblue" d="M1019,-150.482C1019,-139.143 1019,-126.764 1019,-116.628"/>
<polygon fill="midnightblue" stroke="midnightblue" points="1022.5,-116.313 1019,-106.313 1015.5,-116.313 1022.5,-116.313"/>
</g>
<!-- Node11 -->
<g id="node11" class="node"><title>Node11</title>
<polygon fill="white" stroke="#bfbfbf" points="1485.5,-8 1485.5,-31 1538.5,-31 1538.5,-8 1485.5,-8"/>
<text text-anchor="middle" x="1512" y="-15.8" font-family="Helvetica,sans-Serif" font-size="14.00">vector</text>
</g>
<!-- Node1&#45;&gt;Node11 -->
<g id="edge21" class="edge"><title>Node1&#45;&gt;Node11</title>
<path fill="none" stroke="midnightblue" d="M1099.3,-177.855C1174.4,-170.332 1288.42,-153.07 1380,-114 1424.36,-95.0731 1468.61,-59.4574 1492.94,-38.0651"/>
<polygon fill="midnightblue" stroke="midnightblue" points="1495.55,-40.418 1500.67,-31.1422 1490.89,-35.2008 1495.55,-40.418"/>
</g>
<!-- Node12 -->
<g id="node12" class="node"><title>Node12</title>
<g id="a_node12"><a xlink:href="eqn__coeff__B_8h.html" target="_top" xlink:title="equation_data/eqn_coeff_B.h">
<polygon fill="white" stroke="black" points="1178.5,-83 1178.5,-106 1371.5,-106 1371.5,-83 1178.5,-83"/>
<text text-anchor="middle" x="1275" y="-90.8" font-family="Helvetica,sans-Serif" font-size="14.00">equation_data/eqn_coeff_B.h</text>
</a>
</g>
</g>
<!-- Node1&#45;&gt;Node12 -->
<g id="edge11" class="edge"><title>Node1&#45;&gt;Node12</title>
<path fill="none" stroke="midnightblue" d="M1099.3,-155.898C1144.33,-140.417 1198.56,-121.776 1234.75,-109.337"/>
<polygon fill="midnightblue" stroke="midnightblue" points="1236.13,-112.561 1244.45,-106 1233.86,-105.941 1236.13,-112.561"/>
</g>
<!-- Node15 -->
<g id="node15" class="node"><title>Node15</title>
<g id="a_node15"><a xlink:href="config_8h.html" target="_top" xlink:title="config.h">
<polygon fill="white" stroke="black" points="449,-83 449,-106 513,-106 513,-83 449,-83"/>
<text text-anchor="middle" x="481" y="-90.8" font-family="Helvetica,sans-Serif" font-size="14.00">config.h</text>
</a>
</g>
</g>
<!-- Node1&#45;&gt;Node15 -->
<g id="edge22" class="edge"><title>Node1&#45;&gt;Node15</title>
<path fill="none" stroke="midnightblue" d="M938.747,-170.373C822.799,-151.408 612.542,-117.016 523.096,-102.386"/>
<polygon fill="midnightblue" stroke="midnightblue" points="523.487,-98.9032 513.053,-100.743 522.357,-105.811 523.487,-98.9032"/>
</g>
<!-- Node4 -->
<g id="node4" class="node"><title>Node4</title>
<polygon fill="white" stroke="#bfbfbf" points="919.5,-8 919.5,-31 1074.5,-31 1074.5,-8 919.5,-8"/>
<text text-anchor="middle" x="997" y="-15.8" font-family="Helvetica,sans-Serif" font-size="14.00">deal.II/base/numbers.h</text>
</g>
<!-- Node3&#45;&gt;Node4 -->
<g id="edge3" class="edge"><title>Node3&#45;&gt;Node4</title>
<path fill="none" stroke="midnightblue" d="M1015.75,-82.7286C1012.47,-71.8381 1007.32,-54.73 1003.24,-41.2059"/>
<polygon fill="midnightblue" stroke="midnightblue" points="1006.5,-39.8803 1000.26,-31.3156 999.794,-41.9002 1006.5,-39.8803"/>
</g>
<!-- Node5 -->
<g id="node5" class="node"><title>Node5</title>
<polygon fill="white" stroke="#bfbfbf" points="1093,-0.5 1093,-38.5 1245,-38.5 1245,-0.5 1093,-0.5"/>
<text text-anchor="start" x="1101" y="-23.3" font-family="Helvetica,sans-Serif" font-size="14.00">deal.II/base/parameter</text>
<text text-anchor="middle" x="1169" y="-8.3" font-family="Helvetica,sans-Serif" font-size="14.00">_handler.h</text>
</g>
<!-- Node3&#45;&gt;Node5 -->
<g id="edge4" class="edge"><title>Node3&#45;&gt;Node5</title>
<path fill="none" stroke="midnightblue" d="M1040.81,-82.8852C1062.2,-72.4756 1095.48,-56.2789 1122.77,-42.9976"/>
<polygon fill="midnightblue" stroke="midnightblue" points="1124.31,-46.141 1131.77,-38.6178 1121.25,-39.8468 1124.31,-46.141"/>
</g>
<!-- Node6 -->
<g id="node6" class="node"><title>Node6</title>
<polygon fill="white" stroke="#bfbfbf" points="1263.5,-8 1263.5,-31 1394.5,-31 1394.5,-8 1263.5,-8"/>
<text text-anchor="middle" x="1329" y="-15.8" font-family="Helvetica,sans-Serif" font-size="14.00">deal.II/base/point.h</text>
</g>
<!-- Node3&#45;&gt;Node6 -->
<g id="edge5" class="edge"><title>Node3&#45;&gt;Node6</title>
<path fill="none" stroke="midnightblue" d="M1065.42,-82.9361C1112.85,-72.0932 1188.63,-54.6426 1254,-39 1261.35,-37.2423 1269.09,-35.3626 1276.7,-33.4996"/>
<polygon fill="midnightblue" stroke="midnightblue" points="1277.71,-36.8562 1286.58,-31.0719 1276.04,-30.0582 1277.71,-36.8562"/>
</g>
<!-- Node7 -->
<g id="node7" class="node"><title>Node7</title>
<polygon fill="white" stroke="#bfbfbf" points="693,-0.5 693,-38.5 821,-38.5 821,-0.5 693,-0.5"/>
<text text-anchor="start" x="701" y="-23.3" font-family="Helvetica,sans-Serif" font-size="14.00">deal.II/base/tensor</text>
<text text-anchor="middle" x="757" y="-8.3" font-family="Helvetica,sans-Serif" font-size="14.00">_function.h</text>
</g>
<!-- Node3&#45;&gt;Node7 -->
<g id="edge6" class="edge"><title>Node3&#45;&gt;Node7</title>
<path fill="none" stroke="midnightblue" d="M981.183,-82.9631C942.073,-72.066 879.988,-54.7675 831.06,-41.135"/>
<polygon fill="midnightblue" stroke="midnightblue" points="831.719,-37.6855 821.147,-38.373 829.84,-44.4286 831.719,-37.6855"/>
</g>
<!-- Node8 -->
<g id="node8" class="node"><title>Node8</title>
<polygon fill="white" stroke="#bfbfbf" points="621,-8 621,-31 675,-31 675,-8 621,-8"/>
<text text-anchor="middle" x="648" y="-15.8" font-family="Helvetica,sans-Serif" font-size="14.00">cmath</text>
</g>
<!-- Node3&#45;&gt;Node8 -->
<g id="edge7" class="edge"><title>Node3&#45;&gt;Node8</title>
<path fill="none" stroke="midnightblue" d="M922.156,-85.8402C854.207,-78.5244 761.939,-64.6539 684,-39 681.026,-38.021 677.996,-36.8222 675.02,-35.5099"/>
<polygon fill="midnightblue" stroke="midnightblue" points="676.359,-32.2693 665.833,-31.0609 673.308,-38.5695 676.359,-32.2693"/>
</g>
<!-- Node9 -->
<g id="node9" class="node"><title>Node9</title>
<polygon fill="white" stroke="#bfbfbf" points="1412.5,-8 1412.5,-31 1467.5,-31 1467.5,-8 1412.5,-8"/>
<text text-anchor="middle" x="1440" y="-15.8" font-family="Helvetica,sans-Serif" font-size="14.00">cstdlib</text>
</g>
<!-- Node3&#45;&gt;Node9 -->
<g id="edge8" class="edge"><title>Node3&#45;&gt;Node9</title>
<path fill="none" stroke="midnightblue" d="M1103.35,-82.9913C1207.69,-69.7644 1375.04,-47.7208 1403,-39 1406.15,-38.0164 1409.37,-36.789 1412.52,-35.4371"/>
<polygon fill="midnightblue" stroke="midnightblue" points="1414.11,-38.5562 1421.67,-31.1274 1411.13,-32.224 1414.11,-38.5562"/>
</g>
<!-- Node10 -->
<g id="node10" class="node"><title>Node10</title>
<polygon fill="white" stroke="#bfbfbf" points="839,-8 839,-31 901,-31 901,-8 839,-8"/>
<text text-anchor="middle" x="870" y="-15.8" font-family="Helvetica,sans-Serif" font-size="14.00">fstream</text>
</g>
<!-- Node3&#45;&gt;Node10 -->
<g id="edge9" class="edge"><title>Node3&#45;&gt;Node10</title>
<path fill="none" stroke="midnightblue" d="M997.334,-82.8852C971.954,-70.4505 929.719,-49.7581 900.905,-35.6415"/>
<polygon fill="midnightblue" stroke="midnightblue" points="902.212,-32.3843 891.692,-31.1276 899.132,-38.6704 902.212,-32.3843"/>
</g>
<!-- Node3&#45;&gt;Node11 -->
<g id="edge10" class="edge"><title>Node3&#45;&gt;Node11</title>
<path fill="none" stroke="midnightblue" d="M1103.48,-82.9914C1124.85,-80.357 1147.77,-77.5541 1169,-75 1305.4,-58.5919 1344.58,-79.0355 1476,-39 1479.16,-38.0375 1482.37,-36.8049 1485.51,-35.4337"/>
<polygon fill="midnightblue" stroke="midnightblue" points="1487.11,-38.5465 1494.59,-31.0363 1484.06,-32.247 1487.11,-38.5465"/>
</g>
<!-- Node12&#45;&gt;Node4 -->
<g id="edge14" class="edge"><title>Node12&#45;&gt;Node4</title>
<path fill="none" stroke="midnightblue" d="M1234.87,-82.9631C1185.29,-69.9433 1100.91,-47.7852 1047.12,-33.66"/>
<polygon fill="midnightblue" stroke="midnightblue" points="1047.68,-30.1883 1037.11,-31.0337 1045.9,-36.9588 1047.68,-30.1883"/>
</g>
<!-- Node12&#45;&gt;Node5 -->
<g id="edge15" class="edge"><title>Node12&#45;&gt;Node5</title>
<path fill="none" stroke="midnightblue" d="M1259.36,-82.7286C1244.78,-72.6858 1222.52,-57.3558 1203.74,-44.4247"/>
<polygon fill="midnightblue" stroke="midnightblue" points="1205.62,-41.4692 1195.4,-38.6798 1201.65,-47.2343 1205.62,-41.4692"/>
</g>
<!-- Node12&#45;&gt;Node6 -->
<g id="edge16" class="edge"><title>Node12&#45;&gt;Node6</title>
<path fill="none" stroke="midnightblue" d="M1282.97,-82.7286C1291.34,-71.4068 1304.69,-53.3651 1314.86,-39.6166"/>
<polygon fill="midnightblue" stroke="midnightblue" points="1317.87,-41.4366 1321,-31.3156 1312.24,-37.2736 1317.87,-41.4366"/>
</g>
<!-- Node12&#45;&gt;Node8 -->
<g id="edge17" class="edge"><title>Node12&#45;&gt;Node8</title>
<path fill="none" stroke="midnightblue" d="M1193.96,-82.9617C1171.34,-80.1857 1146.73,-77.3211 1124,-75 928.806,-55.0657 872.667,-92.8777 684,-39 680.824,-38.0931 677.601,-36.8956 674.455,-35.5449"/>
<polygon fill="midnightblue" stroke="midnightblue" points="675.901,-32.3565 665.373,-31.1699 672.863,-38.6629 675.901,-32.3565"/>
</g>
<!-- Node12&#45;&gt;Node9 -->
<g id="edge18" class="edge"><title>Node12&#45;&gt;Node9</title>
<path fill="none" stroke="midnightblue" d="M1301.19,-82.8975C1327.21,-72.2373 1368.14,-55.1168 1403,-39 1405.34,-37.9187 1407.75,-36.7772 1410.16,-35.6135"/>
<polygon fill="midnightblue" stroke="midnightblue" points="1411.93,-38.645 1419.36,-31.0963 1408.85,-32.3613 1411.93,-38.645"/>
</g>
<!-- Node12&#45;&gt;Node10 -->
<g id="edge19" class="edge"><title>Node12&#45;&gt;Node10</title>
<path fill="none" stroke="midnightblue" d="M1196.57,-82.9974C1097.56,-69.5522 936.855,-47.0346 910,-39 906.417,-37.9281 902.745,-36.5912 899.147,-35.1295"/>
<polygon fill="midnightblue" stroke="midnightblue" points="900.475,-31.89 889.912,-31.0653 897.655,-38.297 900.475,-31.89"/>
</g>
<!-- Node12&#45;&gt;Node11 -->
<g id="edge20" class="edge"><title>Node12&#45;&gt;Node11</title>
<path fill="none" stroke="midnightblue" d="M1325.5,-82.9095C1366.72,-73.5312 1426.11,-58.3372 1476,-39 1478.7,-37.9525 1481.47,-36.7623 1484.21,-35.5025"/>
<polygon fill="midnightblue" stroke="midnightblue" points="1485.84,-38.5986 1493.29,-31.0577 1482.77,-32.3117 1485.84,-38.5986"/>
</g>
<!-- Node13 -->
<g id="node13" class="node"><title>Node13</title>
<polygon fill="white" stroke="#bfbfbf" points="1556.5,-8 1556.5,-31 1705.5,-31 1705.5,-8 1556.5,-8"/>
<text text-anchor="middle" x="1631" y="-15.8" font-family="Helvetica,sans-Serif" font-size="14.00">deal.II/base/function.h</text>
</g>
<!-- Node12&#45;&gt;Node13 -->
<g id="edge12" class="edge"><title>Node12&#45;&gt;Node13</title>
<path fill="none" stroke="midnightblue" d="M1329.46,-82.9983C1384.61,-72.2756 1472.34,-54.9821 1548,-39 1556.61,-37.1821 1565.7,-35.2084 1574.59,-33.2498"/>
<polygon fill="midnightblue" stroke="midnightblue" points="1575.5,-36.6336 1584.51,-31.0541 1573.99,-29.7992 1575.5,-36.6336"/>
</g>
<!-- Node14 -->
<g id="node14" class="node"><title>Node14</title>
<polygon fill="white" stroke="#bfbfbf" points="1723.5,-0.5 1723.5,-38.5 1860.5,-38.5 1860.5,-0.5 1723.5,-0.5"/>
<text text-anchor="start" x="1731.5" y="-23.3" font-family="Helvetica,sans-Serif" font-size="14.00">deal.II/base/function</text>
<text text-anchor="middle" x="1792" y="-8.3" font-family="Helvetica,sans-Serif" font-size="14.00">_parser.h</text>
</g>
<!-- Node12&#45;&gt;Node14 -->
<g id="edge13" class="edge"><title>Node12&#45;&gt;Node14</title>
<path fill="none" stroke="midnightblue" d="M1371.61,-84.6917C1458.71,-76.023 1590.44,-61.1145 1713.28,-39.2212"/>
<polygon fill="midnightblue" stroke="midnightblue" points="1714.01,-42.6448 1723.23,-37.4272 1712.77,-35.7556 1714.01,-42.6448"/>
</g>
<!-- Node15&#45;&gt;Node8 -->
<g id="edge26" class="edge"><title>Node15&#45;&gt;Node8</title>
<path fill="none" stroke="midnightblue" d="M507.617,-82.9471C534.052,-72.3246 575.636,-55.232 611,-39 613.342,-37.9252 615.754,-36.7884 618.17,-35.6279"/>
<polygon fill="midnightblue" stroke="midnightblue" points="619.935,-38.6607 627.374,-31.1169 616.855,-32.375 619.935,-38.6607"/>
</g>
<!-- Node16 -->
<g id="node16" class="node"><title>Node16</title>
<polygon fill="white" stroke="#bfbfbf" points="0,-8 0,-31 124,-31 124,-8 0,-8"/>
<text text-anchor="middle" x="62" y="-15.8" font-family="Helvetica,sans-Serif" font-size="14.00">deal.II/base/mpi.h</text>
</g>
<!-- Node15&#45;&gt;Node16 -->
<g id="edge23" class="edge"><title>Node15&#45;&gt;Node16</title>
<path fill="none" stroke="midnightblue" d="M460.082,-82.8231C453.486,-79.8582 446.072,-76.927 439,-75 306.878,-39.0016 267.576,-64.3241 133,-39 124.99,-37.4928 116.549,-35.5833 108.393,-33.5667"/>
<polygon fill="midnightblue" stroke="midnightblue" points="109.188,-30.1576 98.6325,-31.0738 107.455,-36.9398 109.188,-30.1576"/>
</g>
<!-- Node17 -->
<g id="node17" class="node"><title>Node17</title>
<polygon fill="white" stroke="#bfbfbf" points="142,-0.5 142,-38.5 264,-38.5 264,-0.5 142,-0.5"/>
<text text-anchor="start" x="150" y="-23.3" font-family="Helvetica,sans-Serif" font-size="14.00">deal.II/lac/generic</text>
<text text-anchor="middle" x="203" y="-8.3" font-family="Helvetica,sans-Serif" font-size="14.00">_linear_algebra.h</text>
</g>
<!-- Node15&#45;&gt;Node17 -->
<g id="edge24" class="edge"><title>Node15&#45;&gt;Node17</title>
<path fill="none" stroke="midnightblue" d="M459.092,-82.8552C452.715,-80.0305 445.668,-77.1672 439,-75 370.149,-52.6232 348.193,-56.288 273.874,-39.1251"/>
<polygon fill="midnightblue" stroke="midnightblue" points="274.579,-35.6955 264.043,-36.805 272.971,-42.5084 274.579,-35.6955"/>
</g>
<!-- Node18 -->
<g id="node18" class="node"><title>Node18</title>
<polygon fill="white" stroke="#bfbfbf" points="282.5,-8 282.5,-31 355.5,-31 355.5,-8 282.5,-8"/>
<text text-anchor="middle" x="319" y="-15.8" font-family="Helvetica,sans-Serif" font-size="14.00">algorithm</text>
</g>
<!-- Node15&#45;&gt;Node18 -->
<g id="edge25" class="edge"><title>Node15&#45;&gt;Node18</title>
<path fill="none" stroke="midnightblue" d="M457.444,-82.8852C429.53,-70.3066 382.863,-49.2778 351.519,-35.1538"/>
<polygon fill="midnightblue" stroke="midnightblue" points="352.877,-31.9266 342.322,-31.0092 350.001,-38.3086 352.877,-31.9266"/>
</g>
<!-- Node19 -->
<g id="node19" class="node"><title>Node19</title>
<polygon fill="white" stroke="#bfbfbf" points="373.5,-8 373.5,-31 438.5,-31 438.5,-8 373.5,-8"/>
<text text-anchor="middle" x="406" y="-15.8" font-family="Helvetica,sans-Serif" font-size="14.00">iomanip</text>
</g>
<!-- Node15&#45;&gt;Node19 -->
<g id="edge27" class="edge"><title>Node15&#45;&gt;Node19</title>
<path fill="none" stroke="midnightblue" d="M469.933,-82.7286C457.969,-71.0833 438.701,-52.3287 424.441,-38.4489"/>
<polygon fill="midnightblue" stroke="midnightblue" points="426.719,-35.7824 417.112,-31.3156 421.837,-40.7986 426.719,-35.7824"/>
</g>
<!-- Node20 -->
<g id="node20" class="node"><title>Node20</title>
<polygon fill="white" stroke="#bfbfbf" points="457,-8 457,-31 505,-31 505,-8 457,-8"/>
<text text-anchor="middle" x="481" y="-15.8" font-family="Helvetica,sans-Serif" font-size="14.00">limits</text>
</g>
<!-- Node15&#45;&gt;Node20 -->
<g id="edge28" class="edge"><title>Node15&#45;&gt;Node20</title>
<path fill="none" stroke="midnightblue" d="M481,-82.7286C481,-71.9459 481,-55.0681 481,-41.6087"/>
<polygon fill="midnightblue" stroke="midnightblue" points="484.5,-41.3156 481,-31.3156 477.5,-41.3156 484.5,-41.3156"/>
</g>
<!-- Node21 -->
<g id="node21" class="node"><title>Node21</title>
<polygon fill="white" stroke="#bfbfbf" points="523.5,-8 523.5,-31 602.5,-31 602.5,-8 523.5,-8"/>
<text text-anchor="middle" x="563" y="-15.8" font-family="Helvetica,sans-Serif" font-size="14.00">type_traits</text>
</g>
<!-- Node15&#45;&gt;Node21 -->
<g id="edge29" class="edge"><title>Node15&#45;&gt;Node21</title>
<path fill="none" stroke="midnightblue" d="M493.099,-82.7286C506.377,-70.9079 527.884,-51.7622 543.539,-37.8252"/>
<polygon fill="midnightblue" stroke="midnightblue" points="545.976,-40.3418 551.118,-31.0783 541.321,-35.1134 545.976,-40.3418"/>
</g>
</g>
</svg>
