<?xml version="1.0" encoding="UTF-8" standalone="no"?>
<!DOCTYPE svg PUBLIC "-//W3C//DTD SVG 1.1//EN"
 "http://www.w3.org/Graphics/SVG/1.1/DTD/svg11.dtd">
<!-- Generated by graphviz version 2.38.0 (20140413.2041)
 -->
<!-- Title: /home/travis/build/konsim83/MPI&#45;MSFEC/include/Q_Ned/q_ned_ref.h Pages: 1 -->
<svg width="380pt" height="152pt"
 viewBox="0.00 0.00 380.00 152.00" xmlns="http://www.w3.org/2000/svg" xmlns:xlink="http://www.w3.org/1999/xlink">
<g id="graph0" class="graph" transform="scale(1 1) rotate(0) translate(4 148)">
<title>/home/travis/build/konsim83/MPI&#45;MSFEC/include/Q_Ned/q_ned_ref.h</title>
<polygon fill="white" stroke="none" points="-4,4 -4,-148 376,-148 376,4 -4,4"/>
<!-- Node1 -->
<g id="node1" class="node"><title>Node1</title>
<polygon fill="#bfbfbf" stroke="black" points="86,-90.5 86,-143.5 272,-143.5 272,-90.5 86,-90.5"/>
<text text-anchor="start" x="94" y="-128.3" font-family="Helvetica,sans-Serif" font-size="14.00">/home/travis/build</text>
<text text-anchor="start" x="94" y="-113.3" font-family="Helvetica,sans-Serif" font-size="14.00">/konsim83/MPI&#45;MSFEC</text>
<text text-anchor="middle" x="179" y="-98.3" font-family="Helvetica,sans-Serif" font-size="14.00">/include/Q_Ned/q_ned_ref.h</text>
</g>
<!-- Node2 -->
<g id="node2" class="node"><title>Node2</title>
<g id="a_node2"><a xlink:href="main__q__ned_8cxx.html" target="_top" xlink:title="/home/travis/build\l/konsim83/MPI&#45;MSFEC\l/source/main_q_ned.cxx">
<polygon fill="white" stroke="black" points="0,-0.5 0,-53.5 164,-53.5 164,-0.5 0,-0.5"/>
<text text-anchor="start" x="8" y="-38.3" font-family="Helvetica,sans-Serif" font-size="14.00">/home/travis/build</text>
<text text-anchor="start" x="8" y="-23.3" font-family="Helvetica,sans-Serif" font-size="14.00">/konsim83/MPI&#45;MSFEC</text>
<text text-anchor="middle" x="82" y="-8.3" font-family="Helvetica,sans-Serif" font-size="14.00">/source/main_q_ned.cxx</text>
</a>
</g>
</g>
<!-- Node1&#45;&gt;Node2 -->
<g id="edge1" class="edge"><title>Node1&#45;&gt;Node2</title>
<path fill="none" stroke="midnightblue" d="M142.987,-83.3284C132.155,-73.5015 120.432,-62.8657 110.185,-53.5696"/>
<polygon fill="midnightblue" stroke="midnightblue" points="140.925,-86.1833 150.683,-90.3102 145.628,-80.9988 140.925,-86.1833"/>
</g>
<!-- Node3 -->
<g id="node3" class="node"><title>Node3</title>
<g id="a_node3"><a xlink:href="q__ned__ref_8cc.html" target="_top" xlink:title="/home/travis/build\l/konsim83/MPI&#45;MSFEC\l/source/Q_Ned/q_ned_ref.cc">
<polygon fill="white" stroke="black" points="182,-0.5 182,-53.5 372,-53.5 372,-0.5 182,-0.5"/>
<text text-anchor="start" x="190" y="-38.3" font-family="Helvetica,sans-Serif" font-size="14.00">/home/travis/build</text>
<text text-anchor="start" x="190" y="-23.3" font-family="Helvetica,sans-Serif" font-size="14.00">/konsim83/MPI&#45;MSFEC</text>
<text text-anchor="middle" x="277" y="-8.3" font-family="Helvetica,sans-Serif" font-size="14.00">/source/Q_Ned/q_ned_ref.cc</text>
</a>
</g>
</g>
<!-- Node1&#45;&gt;Node3 -->
<g id="edge2" class="edge"><title>Node1&#45;&gt;Node3</title>
<path fill="none" stroke="midnightblue" d="M215.066,-83.6144C226.098,-73.7082 238.072,-62.956 248.525,-53.5696"/>
<polygon fill="midnightblue" stroke="midnightblue" points="212.711,-81.0247 207.609,-90.3102 217.388,-86.2331 212.711,-81.0247"/>
</g>
</g>
</svg>
