<?xml version="1.0" encoding="UTF-8" standalone="no"?>
<!DOCTYPE svg PUBLIC "-//W3C//DTD SVG 1.1//EN"
 "http://www.w3.org/Graphics/SVG/1.1/DTD/svg11.dtd">
<!-- Generated by graphviz version 2.38.0 (20140413.2041)
 -->
<!-- Title: /home/travis/build/konsim83/MPI&#45;MSFEC/include/Q/q_parameters.h Pages: 1 -->
<svg width="551pt" height="137pt"
 viewBox="0.00 0.00 550.50 137.00" xmlns="http://www.w3.org/2000/svg" xmlns:xlink="http://www.w3.org/1999/xlink">
<g id="graph0" class="graph" transform="scale(1 1) rotate(0) translate(4 133)">
<title>/home/travis/build/konsim83/MPI&#45;MSFEC/include/Q/q_parameters.h</title>
<polygon fill="white" stroke="none" points="-4,4 -4,-133 546.5,-133 546.5,4 -4,4"/>
<!-- Node1 -->
<g id="node1" class="node"><title>Node1</title>
<polygon fill="#bfbfbf" stroke="black" points="264.5,-75.5 264.5,-128.5 441.5,-128.5 441.5,-75.5 264.5,-75.5"/>
<text text-anchor="start" x="272.5" y="-113.3" font-family="Helvetica,sans-Serif" font-size="14.00">/home/travis/build</text>
<text text-anchor="start" x="272.5" y="-98.3" font-family="Helvetica,sans-Serif" font-size="14.00">/konsim83/MPI&#45;MSFEC</text>
<text text-anchor="middle" x="353" y="-83.3" font-family="Helvetica,sans-Serif" font-size="14.00">/include/Q/q_parameters.h</text>
</g>
<!-- Node2 -->
<g id="node2" class="node"><title>Node2</title>
<polygon fill="white" stroke="#bfbfbf" points="0,-0.5 0,-38.5 152,-38.5 152,-0.5 0,-0.5"/>
<text text-anchor="start" x="8" y="-23.3" font-family="Helvetica,sans-Serif" font-size="14.00">deal.II/base/parameter</text>
<text text-anchor="middle" x="76" y="-8.3" font-family="Helvetica,sans-Serif" font-size="14.00">_handler.h</text>
</g>
<!-- Node1&#45;&gt;Node2 -->
<g id="edge1" class="edge"><title>Node1&#45;&gt;Node2</title>
<path fill="none" stroke="midnightblue" d="M264.975,-75.4187C227.326,-64.4774 183.913,-51.8609 148.198,-41.4816"/>
<polygon fill="midnightblue" stroke="midnightblue" points="148.919,-38.0465 138.34,-38.6167 146.965,-44.7684 148.919,-38.0465"/>
</g>
<!-- Node3 -->
<g id="node3" class="node"><title>Node3</title>
<polygon fill="white" stroke="#bfbfbf" points="170.5,-8 170.5,-31 303.5,-31 303.5,-8 170.5,-8"/>
<text text-anchor="middle" x="237" y="-15.8" font-family="Helvetica,sans-Serif" font-size="14.00">deal.II/grid/cell_id.h</text>
</g>
<!-- Node1&#45;&gt;Node3 -->
<g id="edge2" class="edge"><title>Node1&#45;&gt;Node3</title>
<path fill="none" stroke="midnightblue" d="M315.978,-75.308C297.74,-62.6514 276.304,-47.7753 260.369,-36.7174"/>
<polygon fill="midnightblue" stroke="midnightblue" points="262.349,-33.8311 252.138,-31.0052 258.358,-39.582 262.349,-33.8311"/>
</g>
<!-- Node4 -->
<g id="node4" class="node"><title>Node4</title>
<polygon fill="white" stroke="#bfbfbf" points="322,-8 322,-31 384,-31 384,-8 322,-8"/>
<text text-anchor="middle" x="353" y="-15.8" font-family="Helvetica,sans-Serif" font-size="14.00">fstream</text>
</g>
<!-- Node1&#45;&gt;Node4 -->
<g id="edge3" class="edge"><title>Node1&#45;&gt;Node4</title>
<path fill="none" stroke="midnightblue" d="M353,-75.0862C353,-64.15 353,-51.5896 353,-41.2765"/>
<polygon fill="midnightblue" stroke="midnightblue" points="356.5,-41.1508 353,-31.1508 349.5,-41.1509 356.5,-41.1508"/>
</g>
<!-- Node5 -->
<g id="node5" class="node"><title>Node5</title>
<polygon fill="white" stroke="#bfbfbf" points="402.5,-8 402.5,-31 471.5,-31 471.5,-8 402.5,-8"/>
<text text-anchor="middle" x="437" y="-15.8" font-family="Helvetica,sans-Serif" font-size="14.00">iostream</text>
</g>
<!-- Node1&#45;&gt;Node5 -->
<g id="edge4" class="edge"><title>Node1&#45;&gt;Node5</title>
<path fill="none" stroke="midnightblue" d="M380.041,-75.0862C392.545,-63.1029 407.084,-49.1696 418.343,-38.3794"/>
<polygon fill="midnightblue" stroke="midnightblue" points="421.088,-40.5969 425.886,-31.1508 416.245,-35.5429 421.088,-40.5969"/>
</g>
<!-- Node6 -->
<g id="node6" class="node"><title>Node6</title>
<polygon fill="white" stroke="#bfbfbf" points="489.5,-8 489.5,-31 542.5,-31 542.5,-8 489.5,-8"/>
<text text-anchor="middle" x="516" y="-15.8" font-family="Helvetica,sans-Serif" font-size="14.00">vector</text>
</g>
<!-- Node1&#45;&gt;Node6 -->
<g id="edge5" class="edge"><title>Node1&#45;&gt;Node6</title>
<path fill="none" stroke="midnightblue" d="M406.766,-75.4751C429.727,-64.4407 456.768,-51.2683 481,-39 482.993,-37.9911 485.044,-36.9401 487.106,-35.8741"/>
<polygon fill="midnightblue" stroke="midnightblue" points="488.832,-38.9213 496.074,-31.1876 485.59,-32.7174 488.832,-38.9213"/>
</g>
</g>
</svg>
