<?xml version="1.0" encoding="UTF-8" standalone="no"?>
<!DOCTYPE svg PUBLIC "-//W3C//DTD SVG 1.1//EN"
 "http://www.w3.org/Graphics/SVG/1.1/DTD/svg11.dtd">
<!-- Generated by graphviz version 2.38.0 (20140413.2041)
 -->
<!-- Title: /home/travis/build/konsim83/MPI&#45;MSFEC/include/Q/q_post_processor.h Pages: 1 -->
<svg width="714pt" height="332pt"
 viewBox="0.00 0.00 714.00 332.00" xmlns="http://www.w3.org/2000/svg" xmlns:xlink="http://www.w3.org/1999/xlink">
<g id="graph0" class="graph" transform="scale(1 1) rotate(0) translate(4 328)">
<title>/home/travis/build/konsim83/MPI&#45;MSFEC/include/Q/q_post_processor.h</title>
<polygon fill="white" stroke="none" points="-4,4 -4,-328 710,-328 710,4 -4,4"/>
<!-- Node1 -->
<g id="node1" class="node"><title>Node1</title>
<polygon fill="#bfbfbf" stroke="black" points="256,-270.5 256,-323.5 456,-323.5 456,-270.5 256,-270.5"/>
<text text-anchor="start" x="264" y="-308.3" font-family="Helvetica,sans-Serif" font-size="14.00">/home/travis/build</text>
<text text-anchor="start" x="264" y="-293.3" font-family="Helvetica,sans-Serif" font-size="14.00">/konsim83/MPI&#45;MSFEC</text>
<text text-anchor="middle" x="356" y="-278.3" font-family="Helvetica,sans-Serif" font-size="14.00">/include/Q/q_post_processor.h</text>
</g>
<!-- Node2 -->
<g id="node2" class="node"><title>Node2</title>
<g id="a_node2"><a xlink:href="q__post__processor_8cc.html" target="_top" xlink:title="/home/travis/build\l/konsim83/MPI&#45;MSFEC\l/source/Q/q_post_processor.cc">
<polygon fill="white" stroke="black" points="0,-180.5 0,-233.5 204,-233.5 204,-180.5 0,-180.5"/>
<text text-anchor="start" x="8" y="-218.3" font-family="Helvetica,sans-Serif" font-size="14.00">/home/travis/build</text>
<text text-anchor="start" x="8" y="-203.3" font-family="Helvetica,sans-Serif" font-size="14.00">/konsim83/MPI&#45;MSFEC</text>
<text text-anchor="middle" x="102" y="-188.3" font-family="Helvetica,sans-Serif" font-size="14.00">/source/Q/q_post_processor.cc</text>
</a>
</g>
</g>
<!-- Node1&#45;&gt;Node2 -->
<g id="edge1" class="edge"><title>Node1&#45;&gt;Node2</title>
<path fill="none" stroke="midnightblue" d="M272.651,-267.123C241.463,-256.318 206.277,-244.128 175.993,-233.635"/>
<polygon fill="midnightblue" stroke="midnightblue" points="271.597,-270.462 282.191,-270.429 273.888,-263.848 271.597,-270.462"/>
</g>
<!-- Node3 -->
<g id="node3" class="node"><title>Node3</title>
<g id="a_node3"><a xlink:href="q__basis_8h.html" target="_top" xlink:title="/home/travis/build\l/konsim83/MPI&#45;MSFEC\l/include/Q/q_basis.h">
<polygon fill="white" stroke="black" points="222,-180.5 222,-233.5 382,-233.5 382,-180.5 222,-180.5"/>
<text text-anchor="start" x="230" y="-218.3" font-family="Helvetica,sans-Serif" font-size="14.00">/home/travis/build</text>
<text text-anchor="start" x="230" y="-203.3" font-family="Helvetica,sans-Serif" font-size="14.00">/konsim83/MPI&#45;MSFEC</text>
<text text-anchor="middle" x="302" y="-188.3" font-family="Helvetica,sans-Serif" font-size="14.00">/include/Q/q_basis.h</text>
</a>
</g>
</g>
<!-- Node1&#45;&gt;Node3 -->
<g id="edge2" class="edge"><title>Node1&#45;&gt;Node3</title>
<path fill="none" stroke="midnightblue" d="M334.803,-261.456C329.137,-252.224 323.114,-242.408 317.796,-233.742"/>
<polygon fill="midnightblue" stroke="midnightblue" points="331.877,-263.38 340.09,-270.073 337.843,-259.719 331.877,-263.38"/>
</g>
<!-- Node5 -->
<g id="node5" class="node"><title>Node5</title>
<g id="a_node5"><a xlink:href="q__global_8h.html" target="_top" xlink:title="/home/travis/build\l/konsim83/MPI&#45;MSFEC\l/include/Q/q_global.h">
<polygon fill="white" stroke="black" points="330,-90.5 330,-143.5 490,-143.5 490,-90.5 330,-90.5"/>
<text text-anchor="start" x="338" y="-128.3" font-family="Helvetica,sans-Serif" font-size="14.00">/home/travis/build</text>
<text text-anchor="start" x="338" y="-113.3" font-family="Helvetica,sans-Serif" font-size="14.00">/konsim83/MPI&#45;MSFEC</text>
<text text-anchor="middle" x="410" y="-98.3" font-family="Helvetica,sans-Serif" font-size="14.00">/include/Q/q_global.h</text>
</a>
</g>
</g>
<!-- Node1&#45;&gt;Node5 -->
<g id="edge7" class="edge"><title>Node1&#45;&gt;Node5</title>
<path fill="none" stroke="midnightblue" d="M378.203,-261.659C383.053,-252.919 387.713,-243.347 391,-234 401.561,-203.967 406.306,-167.462 408.402,-143.524"/>
<polygon fill="midnightblue" stroke="midnightblue" points="375.111,-260.013 373.128,-270.421 381.168,-263.521 375.111,-260.013"/>
</g>
<!-- Node8 -->
<g id="node8" class="node"><title>Node8</title>
<g id="a_node8"><a xlink:href="q__ref_8h.html" target="_top" xlink:title="/home/travis/build\l/konsim83/MPI&#45;MSFEC\l/include/Q/q_ref.h">
<polygon fill="white" stroke="black" points="438,-180.5 438,-233.5 598,-233.5 598,-180.5 438,-180.5"/>
<text text-anchor="start" x="446" y="-218.3" font-family="Helvetica,sans-Serif" font-size="14.00">/home/travis/build</text>
<text text-anchor="start" x="446" y="-203.3" font-family="Helvetica,sans-Serif" font-size="14.00">/konsim83/MPI&#45;MSFEC</text>
<text text-anchor="middle" x="518" y="-188.3" font-family="Helvetica,sans-Serif" font-size="14.00">/include/Q/q_ref.h</text>
</a>
</g>
</g>
<!-- Node1&#45;&gt;Node8 -->
<g id="edge8" class="edge"><title>Node1&#45;&gt;Node8</title>
<path fill="none" stroke="midnightblue" d="M412.219,-265.461C431.371,-255.058 452.569,-243.543 470.929,-233.57"/>
<polygon fill="midnightblue" stroke="midnightblue" points="410.409,-262.461 403.293,-270.31 413.751,-268.612 410.409,-262.461"/>
</g>
<!-- Node4 -->
<g id="node4" class="node"><title>Node4</title>
<g id="a_node4"><a xlink:href="q__basis_8cc.html" target="_top" xlink:title="/home/travis/build\l/konsim83/MPI&#45;MSFEC\l/source/Q/q_basis.cc">
<polygon fill="white" stroke="black" points="152,-90.5 152,-143.5 312,-143.5 312,-90.5 152,-90.5"/>
<text text-anchor="start" x="160" y="-128.3" font-family="Helvetica,sans-Serif" font-size="14.00">/home/travis/build</text>
<text text-anchor="start" x="160" y="-113.3" font-family="Helvetica,sans-Serif" font-size="14.00">/konsim83/MPI&#45;MSFEC</text>
<text text-anchor="middle" x="232" y="-98.3" font-family="Helvetica,sans-Serif" font-size="14.00">/source/Q/q_basis.cc</text>
</a>
</g>
</g>
<!-- Node3&#45;&gt;Node4 -->
<g id="edge3" class="edge"><title>Node3&#45;&gt;Node4</title>
<path fill="none" stroke="midnightblue" d="M274.976,-172.027C267.5,-162.629 259.512,-152.587 252.476,-143.742"/>
<polygon fill="midnightblue" stroke="midnightblue" points="272.412,-174.426 281.376,-180.073 277.89,-170.068 272.412,-174.426"/>
</g>
<!-- Node3&#45;&gt;Node5 -->
<g id="edge4" class="edge"><title>Node3&#45;&gt;Node5</title>
<path fill="none" stroke="midnightblue" d="M341.396,-173.9C353.65,-163.915 366.989,-153.046 378.619,-143.57"/>
<polygon fill="midnightblue" stroke="midnightblue" points="339.07,-171.28 333.528,-180.31 343.492,-176.707 339.07,-171.28"/>
</g>
<!-- Node6 -->
<g id="node6" class="node"><title>Node6</title>
<g id="a_node6"><a xlink:href="main__q_8cxx.html" target="_top" xlink:title="/home/travis/build\l/konsim83/MPI&#45;MSFEC\l/source/main_q.cxx">
<polygon fill="white" stroke="black" points="438,-0.5 438,-53.5 598,-53.5 598,-0.5 438,-0.5"/>
<text text-anchor="start" x="446" y="-38.3" font-family="Helvetica,sans-Serif" font-size="14.00">/home/travis/build</text>
<text text-anchor="start" x="446" y="-23.3" font-family="Helvetica,sans-Serif" font-size="14.00">/konsim83/MPI&#45;MSFEC</text>
<text text-anchor="middle" x="518" y="-8.3" font-family="Helvetica,sans-Serif" font-size="14.00">/source/main_q.cxx</text>
</a>
</g>
</g>
<!-- Node5&#45;&gt;Node6 -->
<g id="edge5" class="edge"><title>Node5&#45;&gt;Node6</title>
<path fill="none" stroke="midnightblue" d="M449.396,-83.8999C461.65,-73.9151 474.989,-63.0462 486.619,-53.5696"/>
<polygon fill="midnightblue" stroke="midnightblue" points="447.07,-81.2801 441.528,-90.3102 451.492,-86.7068 447.07,-81.2801"/>
</g>
<!-- Node7 -->
<g id="node7" class="node"><title>Node7</title>
<g id="a_node7"><a xlink:href="q__global_8cc.html" target="_top" xlink:title="/home/travis/build\l/konsim83/MPI&#45;MSFEC\l/source/Q/q_global.cc">
<polygon fill="white" stroke="black" points="260,-0.5 260,-53.5 420,-53.5 420,-0.5 260,-0.5"/>
<text text-anchor="start" x="268" y="-38.3" font-family="Helvetica,sans-Serif" font-size="14.00">/home/travis/build</text>
<text text-anchor="start" x="268" y="-23.3" font-family="Helvetica,sans-Serif" font-size="14.00">/konsim83/MPI&#45;MSFEC</text>
<text text-anchor="middle" x="340" y="-8.3" font-family="Helvetica,sans-Serif" font-size="14.00">/source/Q/q_global.cc</text>
</a>
</g>
</g>
<!-- Node5&#45;&gt;Node7 -->
<g id="edge6" class="edge"><title>Node5&#45;&gt;Node7</title>
<path fill="none" stroke="midnightblue" d="M382.976,-82.0268C375.5,-72.6292 367.512,-62.587 360.476,-53.7416"/>
<polygon fill="midnightblue" stroke="midnightblue" points="380.412,-84.4259 389.376,-90.0731 385.89,-80.0682 380.412,-84.4259"/>
</g>
<!-- Node8&#45;&gt;Node6 -->
<g id="edge9" class="edge"><title>Node8&#45;&gt;Node6</title>
<path fill="none" stroke="midnightblue" d="M518,-170.379C518,-135.887 518,-84.4323 518,-53.7446"/>
<polygon fill="midnightblue" stroke="midnightblue" points="514.5,-170.497 518,-180.497 521.5,-170.497 514.5,-170.497"/>
</g>
<!-- Node9 -->
<g id="node9" class="node"><title>Node9</title>
<g id="a_node9"><a xlink:href="q__ref_8cc.html" target="_top" xlink:title="/home/travis/build\l/konsim83/MPI&#45;MSFEC\l/source/Q/q_ref.cc">
<polygon fill="white" stroke="black" points="546,-90.5 546,-143.5 706,-143.5 706,-90.5 546,-90.5"/>
<text text-anchor="start" x="554" y="-128.3" font-family="Helvetica,sans-Serif" font-size="14.00">/home/travis/build</text>
<text text-anchor="start" x="554" y="-113.3" font-family="Helvetica,sans-Serif" font-size="14.00">/konsim83/MPI&#45;MSFEC</text>
<text text-anchor="middle" x="626" y="-98.3" font-family="Helvetica,sans-Serif" font-size="14.00">/source/Q/q_ref.cc</text>
</a>
</g>
</g>
<!-- Node8&#45;&gt;Node9 -->
<g id="edge10" class="edge"><title>Node8&#45;&gt;Node9</title>
<path fill="none" stroke="midnightblue" d="M557.396,-173.9C569.65,-163.915 582.989,-153.046 594.619,-143.57"/>
<polygon fill="midnightblue" stroke="midnightblue" points="555.07,-171.28 549.528,-180.31 559.492,-176.707 555.07,-171.28"/>
</g>
</g>
</svg>
