<?xml version="1.0" encoding="UTF-8" standalone="no"?>
<!DOCTYPE svg PUBLIC "-//W3C//DTD SVG 1.1//EN"
 "http://www.w3.org/Graphics/SVG/1.1/DTD/svg11.dtd">
<!-- Generated by graphviz version 2.38.0 (20140413.2041)
 -->
<!-- Title: /home/travis/build/konsim83/MPI&#45;MSFEC/include/Q/q_parameters.h Pages: 1 -->
<svg width="692pt" height="332pt"
 viewBox="0.00 0.00 691.50 332.00" xmlns="http://www.w3.org/2000/svg" xmlns:xlink="http://www.w3.org/1999/xlink">
<g id="graph0" class="graph" transform="scale(1 1) rotate(0) translate(4 328)">
<title>/home/travis/build/konsim83/MPI&#45;MSFEC/include/Q/q_parameters.h</title>
<polygon fill="white" stroke="none" points="-4,4 -4,-328 687.5,-328 687.5,4 -4,4"/>
<!-- Node1 -->
<g id="node1" class="node"><title>Node1</title>
<polygon fill="#bfbfbf" stroke="black" points="245,-270.5 245,-323.5 422,-323.5 422,-270.5 245,-270.5"/>
<text text-anchor="start" x="253" y="-308.3" font-family="Helvetica,sans-Serif" font-size="14.00">/home/travis/build</text>
<text text-anchor="start" x="253" y="-293.3" font-family="Helvetica,sans-Serif" font-size="14.00">/konsim83/MPI&#45;MSFEC</text>
<text text-anchor="middle" x="333.5" y="-278.3" font-family="Helvetica,sans-Serif" font-size="14.00">/include/Q/q_parameters.h</text>
</g>
<!-- Node2 -->
<g id="node2" class="node"><title>Node2</title>
<g id="a_node2"><a xlink:href="q__parameters_8cc.html" target="_top" xlink:title="/home/travis/build\l/konsim83/MPI&#45;MSFEC\l/source/Q/q_parameters.cc">
<polygon fill="white" stroke="black" points="0,-180.5 0,-233.5 181,-233.5 181,-180.5 0,-180.5"/>
<text text-anchor="start" x="8" y="-218.3" font-family="Helvetica,sans-Serif" font-size="14.00">/home/travis/build</text>
<text text-anchor="start" x="8" y="-203.3" font-family="Helvetica,sans-Serif" font-size="14.00">/konsim83/MPI&#45;MSFEC</text>
<text text-anchor="middle" x="90.5" y="-188.3" font-family="Helvetica,sans-Serif" font-size="14.00">/source/Q/q_parameters.cc</text>
</a>
</g>
</g>
<!-- Node1&#45;&gt;Node2 -->
<g id="edge1" class="edge"><title>Node1&#45;&gt;Node2</title>
<path fill="none" stroke="midnightblue" d="M253.374,-266.983C223.634,-256.213 190.137,-244.082 161.288,-233.635"/>
<polygon fill="midnightblue" stroke="midnightblue" points="252.294,-270.314 262.888,-270.429 254.677,-263.733 252.294,-270.314"/>
</g>
<!-- Node3 -->
<g id="node3" class="node"><title>Node3</title>
<g id="a_node3"><a xlink:href="q__basis_8h.html" target="_top" xlink:title="/home/travis/build\l/konsim83/MPI&#45;MSFEC\l/include/Q/q_basis.h">
<polygon fill="white" stroke="black" points="199.5,-180.5 199.5,-233.5 359.5,-233.5 359.5,-180.5 199.5,-180.5"/>
<text text-anchor="start" x="207.5" y="-218.3" font-family="Helvetica,sans-Serif" font-size="14.00">/home/travis/build</text>
<text text-anchor="start" x="207.5" y="-203.3" font-family="Helvetica,sans-Serif" font-size="14.00">/konsim83/MPI&#45;MSFEC</text>
<text text-anchor="middle" x="279.5" y="-188.3" font-family="Helvetica,sans-Serif" font-size="14.00">/include/Q/q_basis.h</text>
</a>
</g>
</g>
<!-- Node1&#45;&gt;Node3 -->
<g id="edge2" class="edge"><title>Node1&#45;&gt;Node3</title>
<path fill="none" stroke="midnightblue" d="M312.303,-261.456C306.637,-252.224 300.614,-242.408 295.296,-233.742"/>
<polygon fill="midnightblue" stroke="midnightblue" points="309.377,-263.38 317.59,-270.073 315.343,-259.719 309.377,-263.38"/>
</g>
<!-- Node5 -->
<g id="node5" class="node"><title>Node5</title>
<g id="a_node5"><a xlink:href="q__global_8h.html" target="_top" xlink:title="/home/travis/build\l/konsim83/MPI&#45;MSFEC\l/include/Q/q_global.h">
<polygon fill="white" stroke="black" points="307.5,-90.5 307.5,-143.5 467.5,-143.5 467.5,-90.5 307.5,-90.5"/>
<text text-anchor="start" x="315.5" y="-128.3" font-family="Helvetica,sans-Serif" font-size="14.00">/home/travis/build</text>
<text text-anchor="start" x="315.5" y="-113.3" font-family="Helvetica,sans-Serif" font-size="14.00">/konsim83/MPI&#45;MSFEC</text>
<text text-anchor="middle" x="387.5" y="-98.3" font-family="Helvetica,sans-Serif" font-size="14.00">/include/Q/q_global.h</text>
</a>
</g>
</g>
<!-- Node1&#45;&gt;Node5 -->
<g id="edge7" class="edge"><title>Node1&#45;&gt;Node5</title>
<path fill="none" stroke="midnightblue" d="M355.703,-261.659C360.553,-252.919 365.213,-243.347 368.5,-234 379.061,-203.967 383.806,-167.462 385.902,-143.524"/>
<polygon fill="midnightblue" stroke="midnightblue" points="352.611,-260.013 350.628,-270.421 358.668,-263.521 352.611,-260.013"/>
</g>
<!-- Node8 -->
<g id="node8" class="node"><title>Node8</title>
<g id="a_node8"><a xlink:href="q__ref_8h.html" target="_top" xlink:title="/home/travis/build\l/konsim83/MPI&#45;MSFEC\l/include/Q/q_ref.h">
<polygon fill="white" stroke="black" points="415.5,-180.5 415.5,-233.5 575.5,-233.5 575.5,-180.5 415.5,-180.5"/>
<text text-anchor="start" x="423.5" y="-218.3" font-family="Helvetica,sans-Serif" font-size="14.00">/home/travis/build</text>
<text text-anchor="start" x="423.5" y="-203.3" font-family="Helvetica,sans-Serif" font-size="14.00">/konsim83/MPI&#45;MSFEC</text>
<text text-anchor="middle" x="495.5" y="-188.3" font-family="Helvetica,sans-Serif" font-size="14.00">/include/Q/q_ref.h</text>
</a>
</g>
</g>
<!-- Node1&#45;&gt;Node8 -->
<g id="edge8" class="edge"><title>Node1&#45;&gt;Node8</title>
<path fill="none" stroke="midnightblue" d="M389.719,-265.461C408.871,-255.058 430.069,-243.543 448.429,-233.57"/>
<polygon fill="midnightblue" stroke="midnightblue" points="387.909,-262.461 380.793,-270.31 391.251,-268.612 387.909,-262.461"/>
</g>
<!-- Node4 -->
<g id="node4" class="node"><title>Node4</title>
<g id="a_node4"><a xlink:href="q__basis_8cc.html" target="_top" xlink:title="/home/travis/build\l/konsim83/MPI&#45;MSFEC\l/source/Q/q_basis.cc">
<polygon fill="white" stroke="black" points="129.5,-90.5 129.5,-143.5 289.5,-143.5 289.5,-90.5 129.5,-90.5"/>
<text text-anchor="start" x="137.5" y="-128.3" font-family="Helvetica,sans-Serif" font-size="14.00">/home/travis/build</text>
<text text-anchor="start" x="137.5" y="-113.3" font-family="Helvetica,sans-Serif" font-size="14.00">/konsim83/MPI&#45;MSFEC</text>
<text text-anchor="middle" x="209.5" y="-98.3" font-family="Helvetica,sans-Serif" font-size="14.00">/source/Q/q_basis.cc</text>
</a>
</g>
</g>
<!-- Node3&#45;&gt;Node4 -->
<g id="edge3" class="edge"><title>Node3&#45;&gt;Node4</title>
<path fill="none" stroke="midnightblue" d="M252.476,-172.027C245,-162.629 237.012,-152.587 229.976,-143.742"/>
<polygon fill="midnightblue" stroke="midnightblue" points="249.912,-174.426 258.876,-180.073 255.39,-170.068 249.912,-174.426"/>
</g>
<!-- Node3&#45;&gt;Node5 -->
<g id="edge4" class="edge"><title>Node3&#45;&gt;Node5</title>
<path fill="none" stroke="midnightblue" d="M318.896,-173.9C331.15,-163.915 344.489,-153.046 356.119,-143.57"/>
<polygon fill="midnightblue" stroke="midnightblue" points="316.57,-171.28 311.028,-180.31 320.992,-176.707 316.57,-171.28"/>
</g>
<!-- Node6 -->
<g id="node6" class="node"><title>Node6</title>
<g id="a_node6"><a xlink:href="main__q_8cxx.html" target="_top" xlink:title="/home/travis/build\l/konsim83/MPI&#45;MSFEC\l/source/main_q.cxx">
<polygon fill="white" stroke="black" points="415.5,-0.5 415.5,-53.5 575.5,-53.5 575.5,-0.5 415.5,-0.5"/>
<text text-anchor="start" x="423.5" y="-38.3" font-family="Helvetica,sans-Serif" font-size="14.00">/home/travis/build</text>
<text text-anchor="start" x="423.5" y="-23.3" font-family="Helvetica,sans-Serif" font-size="14.00">/konsim83/MPI&#45;MSFEC</text>
<text text-anchor="middle" x="495.5" y="-8.3" font-family="Helvetica,sans-Serif" font-size="14.00">/source/main_q.cxx</text>
</a>
</g>
</g>
<!-- Node5&#45;&gt;Node6 -->
<g id="edge5" class="edge"><title>Node5&#45;&gt;Node6</title>
<path fill="none" stroke="midnightblue" d="M426.896,-83.8999C439.15,-73.9151 452.489,-63.0462 464.119,-53.5696"/>
<polygon fill="midnightblue" stroke="midnightblue" points="424.57,-81.2801 419.028,-90.3102 428.992,-86.7068 424.57,-81.2801"/>
</g>
<!-- Node7 -->
<g id="node7" class="node"><title>Node7</title>
<g id="a_node7"><a xlink:href="q__global_8cc.html" target="_top" xlink:title="/home/travis/build\l/konsim83/MPI&#45;MSFEC\l/source/Q/q_global.cc">
<polygon fill="white" stroke="black" points="237.5,-0.5 237.5,-53.5 397.5,-53.5 397.5,-0.5 237.5,-0.5"/>
<text text-anchor="start" x="245.5" y="-38.3" font-family="Helvetica,sans-Serif" font-size="14.00">/home/travis/build</text>
<text text-anchor="start" x="245.5" y="-23.3" font-family="Helvetica,sans-Serif" font-size="14.00">/konsim83/MPI&#45;MSFEC</text>
<text text-anchor="middle" x="317.5" y="-8.3" font-family="Helvetica,sans-Serif" font-size="14.00">/source/Q/q_global.cc</text>
</a>
</g>
</g>
<!-- Node5&#45;&gt;Node7 -->
<g id="edge6" class="edge"><title>Node5&#45;&gt;Node7</title>
<path fill="none" stroke="midnightblue" d="M360.476,-82.0268C353,-72.6292 345.012,-62.587 337.976,-53.7416"/>
<polygon fill="midnightblue" stroke="midnightblue" points="357.912,-84.4259 366.876,-90.0731 363.39,-80.0682 357.912,-84.4259"/>
</g>
<!-- Node8&#45;&gt;Node6 -->
<g id="edge9" class="edge"><title>Node8&#45;&gt;Node6</title>
<path fill="none" stroke="midnightblue" d="M495.5,-170.379C495.5,-135.887 495.5,-84.4323 495.5,-53.7446"/>
<polygon fill="midnightblue" stroke="midnightblue" points="492,-170.497 495.5,-180.497 499,-170.497 492,-170.497"/>
</g>
<!-- Node9 -->
<g id="node9" class="node"><title>Node9</title>
<g id="a_node9"><a xlink:href="q__ref_8cc.html" target="_top" xlink:title="/home/travis/build\l/konsim83/MPI&#45;MSFEC\l/source/Q/q_ref.cc">
<polygon fill="white" stroke="black" points="523.5,-90.5 523.5,-143.5 683.5,-143.5 683.5,-90.5 523.5,-90.5"/>
<text text-anchor="start" x="531.5" y="-128.3" font-family="Helvetica,sans-Serif" font-size="14.00">/home/travis/build</text>
<text text-anchor="start" x="531.5" y="-113.3" font-family="Helvetica,sans-Serif" font-size="14.00">/konsim83/MPI&#45;MSFEC</text>
<text text-anchor="middle" x="603.5" y="-98.3" font-family="Helvetica,sans-Serif" font-size="14.00">/source/Q/q_ref.cc</text>
</a>
</g>
</g>
<!-- Node8&#45;&gt;Node9 -->
<g id="edge10" class="edge"><title>Node8&#45;&gt;Node9</title>
<path fill="none" stroke="midnightblue" d="M534.896,-173.9C547.15,-163.915 560.489,-153.046 572.119,-143.57"/>
<polygon fill="midnightblue" stroke="midnightblue" points="532.57,-171.28 527.028,-180.31 536.992,-176.707 532.57,-171.28"/>
</g>
</g>
</svg>
