<?xml version="1.0" encoding="UTF-8" standalone="no"?>
<!DOCTYPE svg PUBLIC "-//W3C//DTD SVG 1.1//EN"
 "http://www.w3.org/Graphics/SVG/1.1/DTD/svg11.dtd">
<!-- Generated by graphviz version 2.38.0 (20140413.2041)
 -->
<!-- Title: /home/travis/build/konsim83/MPI&#45;MSFEC/include/Q/q_post_processor.h Pages: 1 -->
<svg width="1548pt" height="212pt"
 viewBox="0.00 0.00 1548.00 212.00" xmlns="http://www.w3.org/2000/svg" xmlns:xlink="http://www.w3.org/1999/xlink">
<g id="graph0" class="graph" transform="scale(1 1) rotate(0) translate(4 208)">
<title>/home/travis/build/konsim83/MPI&#45;MSFEC/include/Q/q_post_processor.h</title>
<polygon fill="white" stroke="none" points="-4,4 -4,-208 1544,-208 1544,4 -4,4"/>
<!-- Node1 -->
<g id="node1" class="node"><title>Node1</title>
<polygon fill="#bfbfbf" stroke="black" points="640.5,-150.5 640.5,-203.5 840.5,-203.5 840.5,-150.5 640.5,-150.5"/>
<text text-anchor="start" x="648.5" y="-188.3" font-family="Helvetica,sans-Serif" font-size="14.00">/home/travis/build</text>
<text text-anchor="start" x="648.5" y="-173.3" font-family="Helvetica,sans-Serif" font-size="14.00">/konsim83/MPI&#45;MSFEC</text>
<text text-anchor="middle" x="740.5" y="-158.3" font-family="Helvetica,sans-Serif" font-size="14.00">/include/Q/q_post_processor.h</text>
</g>
<!-- Node2 -->
<g id="node2" class="node"><title>Node2</title>
<polygon fill="white" stroke="#bfbfbf" points="417,-75.5 417,-113.5 560,-113.5 560,-75.5 417,-75.5"/>
<text text-anchor="start" x="425" y="-98.3" font-family="Helvetica,sans-Serif" font-size="14.00">deal.II/numerics/data</text>
<text text-anchor="middle" x="488.5" y="-83.3" font-family="Helvetica,sans-Serif" font-size="14.00">_postprocessor.h</text>
</g>
<!-- Node1&#45;&gt;Node2 -->
<g id="edge1" class="edge"><title>Node1&#45;&gt;Node2</title>
<path fill="none" stroke="midnightblue" d="M660.419,-150.419C626.461,-139.571 587.348,-127.076 555.016,-116.748"/>
<polygon fill="midnightblue" stroke="midnightblue" points="555.804,-113.326 545.213,-113.617 553.674,-119.994 555.804,-113.326"/>
</g>
<!-- Node3 -->
<g id="node3" class="node"><title>Node3</title>
<g id="a_node3"><a xlink:href="eqn__coeff__A_8h.html" target="_top" xlink:title="equation_data/eqn_coeff_A.h">
<polygon fill="white" stroke="black" points="578,-83 578,-106 771,-106 771,-83 578,-83"/>
<text text-anchor="middle" x="674.5" y="-90.8" font-family="Helvetica,sans-Serif" font-size="14.00">equation_data/eqn_coeff_A.h</text>
</a>
</g>
</g>
<!-- Node1&#45;&gt;Node3 -->
<g id="edge2" class="edge"><title>Node1&#45;&gt;Node3</title>
<path fill="none" stroke="midnightblue" d="M719.254,-150.086C709.62,-138.336 698.449,-124.71 689.677,-114.011"/>
<polygon fill="midnightblue" stroke="midnightblue" points="692.279,-111.665 683.232,-106.151 686.866,-116.103 692.279,-111.665"/>
</g>
<!-- Node11 -->
<g id="node11" class="node"><title>Node11</title>
<polygon fill="white" stroke="#bfbfbf" points="794,-8 794,-31 847,-31 847,-8 794,-8"/>
<text text-anchor="middle" x="820.5" y="-15.8" font-family="Helvetica,sans-Serif" font-size="14.00">vector</text>
</g>
<!-- Node1&#45;&gt;Node11 -->
<g id="edge11" class="edge"><title>Node1&#45;&gt;Node11</title>
<path fill="none" stroke="midnightblue" d="M757.889,-150.263C764.975,-139.305 773.009,-126.247 779.5,-114 792.527,-89.4221 804.99,-59.8399 812.685,-40.6257"/>
<polygon fill="midnightblue" stroke="midnightblue" points="816.023,-41.702 816.443,-31.1155 809.513,-39.1296 816.023,-41.702"/>
</g>
<!-- Node12 -->
<g id="node12" class="node"><title>Node12</title>
<g id="a_node12"><a xlink:href="config_8h.html" target="_top" xlink:title="config.h">
<polygon fill="white" stroke="black" points="1166.5,-83 1166.5,-106 1230.5,-106 1230.5,-83 1166.5,-83"/>
<text text-anchor="middle" x="1198.5" y="-90.8" font-family="Helvetica,sans-Serif" font-size="14.00">config.h</text>
</a>
</g>
</g>
<!-- Node1&#45;&gt;Node12 -->
<g id="edge12" class="edge"><title>Node1&#45;&gt;Node12</title>
<path fill="none" stroke="midnightblue" d="M840.727,-158.384C939.34,-141.051 1085.16,-115.422 1156.33,-102.913"/>
<polygon fill="midnightblue" stroke="midnightblue" points="1157.03,-106.343 1166.27,-101.165 1155.82,-99.4488 1157.03,-106.343"/>
</g>
<!-- Node4 -->
<g id="node4" class="node"><title>Node4</title>
<polygon fill="white" stroke="#bfbfbf" points="0,-8 0,-31 155,-31 155,-8 0,-8"/>
<text text-anchor="middle" x="77.5" y="-15.8" font-family="Helvetica,sans-Serif" font-size="14.00">deal.II/base/numbers.h</text>
</g>
<!-- Node3&#45;&gt;Node4 -->
<g id="edge3" class="edge"><title>Node3&#45;&gt;Node4</title>
<path fill="none" stroke="midnightblue" d="M619.345,-82.9705C603.019,-80.0984 585.077,-77.1812 568.5,-75 389.774,-51.4827 342.764,-65.7959 164.5,-39 153.969,-37.4171 142.799,-35.3445 132.098,-33.161"/>
<polygon fill="midnightblue" stroke="midnightblue" points="132.524,-29.6742 122.018,-31.0459 131.086,-36.525 132.524,-29.6742"/>
</g>
<!-- Node5 -->
<g id="node5" class="node"><title>Node5</title>
<polygon fill="white" stroke="#bfbfbf" points="173.5,-0.5 173.5,-38.5 325.5,-38.5 325.5,-0.5 173.5,-0.5"/>
<text text-anchor="start" x="181.5" y="-23.3" font-family="Helvetica,sans-Serif" font-size="14.00">deal.II/base/parameter</text>
<text text-anchor="middle" x="249.5" y="-8.3" font-family="Helvetica,sans-Serif" font-size="14.00">_handler.h</text>
</g>
<!-- Node3&#45;&gt;Node5 -->
<g id="edge4" class="edge"><title>Node3&#45;&gt;Node5</title>
<path fill="none" stroke="midnightblue" d="M615.387,-82.966C600.123,-80.3056 583.708,-77.4967 568.5,-75 467.81,-58.4697 439.645,-58.199 335.857,-39.1986"/>
<polygon fill="midnightblue" stroke="midnightblue" points="336.38,-35.7361 325.911,-37.3633 335.11,-42.6199 336.38,-35.7361"/>
</g>
<!-- Node6 -->
<g id="node6" class="node"><title>Node6</title>
<polygon fill="white" stroke="#bfbfbf" points="344,-8 344,-31 475,-31 475,-8 344,-8"/>
<text text-anchor="middle" x="409.5" y="-15.8" font-family="Helvetica,sans-Serif" font-size="14.00">deal.II/base/point.h</text>
</g>
<!-- Node3&#45;&gt;Node6 -->
<g id="edge5" class="edge"><title>Node3&#45;&gt;Node6</title>
<path fill="none" stroke="midnightblue" d="M636.25,-82.9631C589.084,-69.9703 508.883,-47.8772 457.593,-33.7482"/>
<polygon fill="midnightblue" stroke="midnightblue" points="458.309,-30.3152 447.739,-31.0337 456.45,-37.0638 458.309,-30.3152"/>
</g>
<!-- Node7 -->
<g id="node7" class="node"><title>Node7</title>
<polygon fill="white" stroke="#bfbfbf" points="493.5,-0.5 493.5,-38.5 621.5,-38.5 621.5,-0.5 493.5,-0.5"/>
<text text-anchor="start" x="501.5" y="-23.3" font-family="Helvetica,sans-Serif" font-size="14.00">deal.II/base/tensor</text>
<text text-anchor="middle" x="557.5" y="-8.3" font-family="Helvetica,sans-Serif" font-size="14.00">_function.h</text>
</g>
<!-- Node3&#45;&gt;Node7 -->
<g id="edge6" class="edge"><title>Node3&#45;&gt;Node7</title>
<path fill="none" stroke="midnightblue" d="M657.487,-82.8852C641.294,-72.7818 616.363,-57.2266 595.448,-44.1768"/>
<polygon fill="midnightblue" stroke="midnightblue" points="597.104,-41.0847 586.767,-38.7606 593.398,-47.0235 597.104,-41.0847"/>
</g>
<!-- Node8 -->
<g id="node8" class="node"><title>Node8</title>
<polygon fill="white" stroke="#bfbfbf" points="865.5,-8 865.5,-31 919.5,-31 919.5,-8 865.5,-8"/>
<text text-anchor="middle" x="892.5" y="-15.8" font-family="Helvetica,sans-Serif" font-size="14.00">cmath</text>
</g>
<!-- Node3&#45;&gt;Node8 -->
<g id="edge7" class="edge"><title>Node3&#45;&gt;Node8</title>
<path fill="none" stroke="midnightblue" d="M716.892,-82.9405C754.023,-73.1734 809.14,-57.4124 855.5,-39 858.191,-37.9313 860.952,-36.7405 863.694,-35.4925"/>
<polygon fill="midnightblue" stroke="midnightblue" points="865.308,-38.5998 872.815,-31.1233 862.284,-32.2867 865.308,-38.5998"/>
</g>
<!-- Node9 -->
<g id="node9" class="node"><title>Node9</title>
<polygon fill="white" stroke="#bfbfbf" points="640,-8 640,-31 695,-31 695,-8 640,-8"/>
<text text-anchor="middle" x="667.5" y="-15.8" font-family="Helvetica,sans-Serif" font-size="14.00">cstdlib</text>
</g>
<!-- Node3&#45;&gt;Node9 -->
<g id="edge8" class="edge"><title>Node3&#45;&gt;Node9</title>
<path fill="none" stroke="midnightblue" d="M673.467,-82.7286C672.433,-71.9459 670.815,-55.0681 669.524,-41.6087"/>
<polygon fill="midnightblue" stroke="midnightblue" points="672.976,-40.9358 668.537,-31.3156 666.008,-41.604 672.976,-40.9358"/>
</g>
<!-- Node10 -->
<g id="node10" class="node"><title>Node10</title>
<polygon fill="white" stroke="#bfbfbf" points="713.5,-8 713.5,-31 775.5,-31 775.5,-8 713.5,-8"/>
<text text-anchor="middle" x="744.5" y="-15.8" font-family="Helvetica,sans-Serif" font-size="14.00">fstream</text>
</g>
<!-- Node3&#45;&gt;Node10 -->
<g id="edge9" class="edge"><title>Node3&#45;&gt;Node10</title>
<path fill="none" stroke="midnightblue" d="M684.829,-82.7286C695.892,-71.1911 713.647,-52.6754 726.918,-38.8357"/>
<polygon fill="midnightblue" stroke="midnightblue" points="729.734,-40.9559 734.129,-31.3156 724.681,-36.111 729.734,-40.9559"/>
</g>
<!-- Node3&#45;&gt;Node11 -->
<g id="edge10" class="edge"><title>Node3&#45;&gt;Node11</title>
<path fill="none" stroke="midnightblue" d="M696.046,-82.9412C718.256,-72.0295 753.866,-54.459 784.5,-39 786.539,-37.9711 788.64,-36.9053 790.755,-35.8285"/>
<polygon fill="midnightblue" stroke="midnightblue" points="792.656,-38.7875 799.966,-31.118 789.469,-32.5553 792.656,-38.7875"/>
</g>
<!-- Node12&#45;&gt;Node8 -->
<g id="edge16" class="edge"><title>Node12&#45;&gt;Node8</title>
<path fill="none" stroke="midnightblue" d="M1166.15,-89.8948C1114.69,-83.5174 1011.54,-68.0891 928.5,-39 925.609,-37.9873 922.659,-36.783 919.753,-35.4818"/>
<polygon fill="midnightblue" stroke="midnightblue" points="921.276,-32.3304 910.751,-31.1108 918.218,-38.6273 921.276,-32.3304"/>
</g>
<!-- Node13 -->
<g id="node13" class="node"><title>Node13</title>
<polygon fill="white" stroke="#bfbfbf" points="937.5,-8 937.5,-31 1061.5,-31 1061.5,-8 937.5,-8"/>
<text text-anchor="middle" x="999.5" y="-15.8" font-family="Helvetica,sans-Serif" font-size="14.00">deal.II/base/mpi.h</text>
</g>
<!-- Node12&#45;&gt;Node13 -->
<g id="edge13" class="edge"><title>Node12&#45;&gt;Node13</title>
<path fill="none" stroke="midnightblue" d="M1169.56,-82.8852C1134.83,-70.1439 1076.46,-48.7326 1037.96,-34.6094"/>
<polygon fill="midnightblue" stroke="midnightblue" points="1038.74,-31.1673 1028.15,-31.0092 1036.33,-37.7391 1038.74,-31.1673"/>
</g>
<!-- Node14 -->
<g id="node14" class="node"><title>Node14</title>
<polygon fill="white" stroke="#bfbfbf" points="1079.5,-0.5 1079.5,-38.5 1201.5,-38.5 1201.5,-0.5 1079.5,-0.5"/>
<text text-anchor="start" x="1087.5" y="-23.3" font-family="Helvetica,sans-Serif" font-size="14.00">deal.II/lac/generic</text>
<text text-anchor="middle" x="1140.5" y="-8.3" font-family="Helvetica,sans-Serif" font-size="14.00">_linear_algebra.h</text>
</g>
<!-- Node12&#45;&gt;Node14 -->
<g id="edge14" class="edge"><title>Node12&#45;&gt;Node14</title>
<path fill="none" stroke="midnightblue" d="M1189.94,-82.7286C1182.39,-73.2287 1171.09,-58.9976 1161.19,-46.5414"/>
<polygon fill="midnightblue" stroke="midnightblue" points="1163.91,-44.3321 1154.94,-38.6798 1158.42,-48.6867 1163.91,-44.3321"/>
</g>
<!-- Node15 -->
<g id="node15" class="node"><title>Node15</title>
<polygon fill="white" stroke="#bfbfbf" points="1220,-8 1220,-31 1293,-31 1293,-8 1220,-8"/>
<text text-anchor="middle" x="1256.5" y="-15.8" font-family="Helvetica,sans-Serif" font-size="14.00">algorithm</text>
</g>
<!-- Node12&#45;&gt;Node15 -->
<g id="edge15" class="edge"><title>Node12&#45;&gt;Node15</title>
<path fill="none" stroke="midnightblue" d="M1207.06,-82.7286C1216.14,-71.2989 1230.66,-53.0209 1241.62,-39.225"/>
<polygon fill="midnightblue" stroke="midnightblue" points="1244.43,-41.3225 1247.91,-31.3156 1238.95,-36.9679 1244.43,-41.3225"/>
</g>
<!-- Node16 -->
<g id="node16" class="node"><title>Node16</title>
<polygon fill="white" stroke="#bfbfbf" points="1311,-8 1311,-31 1376,-31 1376,-8 1311,-8"/>
<text text-anchor="middle" x="1343.5" y="-15.8" font-family="Helvetica,sans-Serif" font-size="14.00">iomanip</text>
</g>
<!-- Node12&#45;&gt;Node16 -->
<g id="edge17" class="edge"><title>Node12&#45;&gt;Node16</title>
<path fill="none" stroke="midnightblue" d="M1219.58,-82.8852C1244.28,-70.4505 1285.38,-49.7581 1313.42,-35.6415"/>
<polygon fill="midnightblue" stroke="midnightblue" points="1315.03,-38.7506 1322.39,-31.1276 1311.88,-32.4983 1315.03,-38.7506"/>
</g>
<!-- Node17 -->
<g id="node17" class="node"><title>Node17</title>
<polygon fill="white" stroke="#bfbfbf" points="1394.5,-8 1394.5,-31 1442.5,-31 1442.5,-8 1394.5,-8"/>
<text text-anchor="middle" x="1418.5" y="-15.8" font-family="Helvetica,sans-Serif" font-size="14.00">limits</text>
</g>
<!-- Node12&#45;&gt;Node17 -->
<g id="edge18" class="edge"><title>Node12&#45;&gt;Node17</title>
<path fill="none" stroke="midnightblue" d="M1230.69,-86.478C1268.57,-77.6814 1332.96,-61.0456 1385.5,-39 1387.83,-38.0216 1390.21,-36.9191 1392.56,-35.752"/>
<polygon fill="midnightblue" stroke="midnightblue" points="1394.21,-38.8384 1401.4,-31.0556 1390.93,-32.6567 1394.21,-38.8384"/>
</g>
<!-- Node18 -->
<g id="node18" class="node"><title>Node18</title>
<polygon fill="white" stroke="#bfbfbf" points="1461,-8 1461,-31 1540,-31 1540,-8 1461,-8"/>
<text text-anchor="middle" x="1500.5" y="-15.8" font-family="Helvetica,sans-Serif" font-size="14.00">type_traits</text>
</g>
<!-- Node12&#45;&gt;Node18 -->
<g id="edge19" class="edge"><title>Node12&#45;&gt;Node18</title>
<path fill="none" stroke="midnightblue" d="M1230.84,-88.1271C1279.32,-79.7144 1373.49,-61.9892 1451.5,-39 1455.94,-37.6923 1460.55,-36.1737 1465.08,-34.5797"/>
<polygon fill="midnightblue" stroke="midnightblue" points="1466.62,-37.7453 1474.81,-31.0223 1464.21,-31.1715 1466.62,-37.7453"/>
</g>
</g>
</svg>
