<?xml version="1.0" encoding="UTF-8" standalone="no"?>
<!DOCTYPE svg PUBLIC "-//W3C//DTD SVG 1.1//EN"
 "http://www.w3.org/Graphics/SVG/1.1/DTD/svg11.dtd">
<!-- Generated by graphviz version 2.38.0 (20140413.2041)
 -->
<!-- Title: /home/travis/build/konsim83/MPI&#45;MSFEC/include/RT_DQ/rt_dq_parameters.h Pages: 1 -->
<svg width="782pt" height="377pt"
 viewBox="0.00 0.00 781.50 377.00" xmlns="http://www.w3.org/2000/svg" xmlns:xlink="http://www.w3.org/1999/xlink">
<g id="graph0" class="graph" transform="scale(1 1) rotate(0) translate(4 373)">
<title>/home/travis/build/konsim83/MPI&#45;MSFEC/include/RT_DQ/rt_dq_parameters.h</title>
<polygon fill="white" stroke="none" points="-4,4 -4,-373 777.5,-373 777.5,4 -4,4"/>
<!-- Node1 -->
<g id="node1" class="node"><title>Node1</title>
<polygon fill="#bfbfbf" stroke="black" points="311.5,-300.5 311.5,-368.5 471.5,-368.5 471.5,-300.5 311.5,-300.5"/>
<text text-anchor="start" x="319.5" y="-353.3" font-family="Helvetica,sans-Serif" font-size="14.00">/home/travis/build</text>
<text text-anchor="start" x="319.5" y="-338.3" font-family="Helvetica,sans-Serif" font-size="14.00">/konsim83/MPI&#45;MSFEC</text>
<text text-anchor="start" x="319.5" y="-323.3" font-family="Helvetica,sans-Serif" font-size="14.00">/include/RT_DQ/rt_dq</text>
<text text-anchor="middle" x="391.5" y="-308.3" font-family="Helvetica,sans-Serif" font-size="14.00">_parameters.h</text>
</g>
<!-- Node2 -->
<g id="node2" class="node"><title>Node2</title>
<g id="a_node2"><a xlink:href="rt__dq__parameters_8cc.html" target="_top" xlink:title="/home/travis/build\l/konsim83/MPI&#45;MSFEC\l/source/RT_DQ/rt_dq_parameters.cc">
<polygon fill="white" stroke="black" points="0,-203 0,-256 239,-256 239,-203 0,-203"/>
<text text-anchor="start" x="8" y="-240.8" font-family="Helvetica,sans-Serif" font-size="14.00">/home/travis/build</text>
<text text-anchor="start" x="8" y="-225.8" font-family="Helvetica,sans-Serif" font-size="14.00">/konsim83/MPI&#45;MSFEC</text>
<text text-anchor="middle" x="119.5" y="-210.8" font-family="Helvetica,sans-Serif" font-size="14.00">/source/RT_DQ/rt_dq_parameters.cc</text>
</a>
</g>
</g>
<!-- Node1&#45;&gt;Node2 -->
<g id="edge1" class="edge"><title>Node1&#45;&gt;Node2</title>
<path fill="none" stroke="midnightblue" d="M301.976,-299.599C264.571,-285.435 221.836,-269.252 187.129,-256.11"/>
<polygon fill="midnightblue" stroke="midnightblue" points="300.771,-302.885 311.362,-303.154 303.25,-296.339 300.771,-302.885"/>
</g>
<!-- Node3 -->
<g id="node3" class="node"><title>Node3</title>
<g id="a_node3"><a xlink:href="rt__dq__basis_8h.html" target="_top" xlink:title="/home/travis/build\l/konsim83/MPI&#45;MSFEC\l/include/RT_DQ/rt_dq\l_basis.h">
<polygon fill="white" stroke="black" points="257.5,-195.5 257.5,-263.5 417.5,-263.5 417.5,-195.5 257.5,-195.5"/>
<text text-anchor="start" x="265.5" y="-248.3" font-family="Helvetica,sans-Serif" font-size="14.00">/home/travis/build</text>
<text text-anchor="start" x="265.5" y="-233.3" font-family="Helvetica,sans-Serif" font-size="14.00">/konsim83/MPI&#45;MSFEC</text>
<text text-anchor="start" x="265.5" y="-218.3" font-family="Helvetica,sans-Serif" font-size="14.00">/include/RT_DQ/rt_dq</text>
<text text-anchor="middle" x="337.5" y="-203.3" font-family="Helvetica,sans-Serif" font-size="14.00">_basis.h</text>
</a>
</g>
</g>
<!-- Node1&#45;&gt;Node3 -->
<g id="edge2" class="edge"><title>Node1&#45;&gt;Node3</title>
<path fill="none" stroke="midnightblue" d="M369.372,-291.293C364.531,-282.058 359.473,-272.412 354.851,-263.595"/>
<polygon fill="midnightblue" stroke="midnightblue" points="366.374,-293.112 374.117,-300.343 372.573,-289.861 366.374,-293.112"/>
</g>
<!-- Node5 -->
<g id="node5" class="node"><title>Node5</title>
<g id="a_node5"><a xlink:href="rt__dq__global_8h.html" target="_top" xlink:title="/home/travis/build\l/konsim83/MPI&#45;MSFEC\l/include/RT_DQ/rt_dq\l_global.h">
<polygon fill="white" stroke="black" points="365.5,-90.5 365.5,-158.5 525.5,-158.5 525.5,-90.5 365.5,-90.5"/>
<text text-anchor="start" x="373.5" y="-143.3" font-family="Helvetica,sans-Serif" font-size="14.00">/home/travis/build</text>
<text text-anchor="start" x="373.5" y="-128.3" font-family="Helvetica,sans-Serif" font-size="14.00">/konsim83/MPI&#45;MSFEC</text>
<text text-anchor="start" x="373.5" y="-113.3" font-family="Helvetica,sans-Serif" font-size="14.00">/include/RT_DQ/rt_dq</text>
<text text-anchor="middle" x="445.5" y="-98.3" font-family="Helvetica,sans-Serif" font-size="14.00">_global.h</text>
</a>
</g>
</g>
<!-- Node1&#45;&gt;Node5 -->
<g id="edge7" class="edge"><title>Node1&#45;&gt;Node5</title>
<path fill="none" stroke="midnightblue" d="M415.676,-290.961C419.829,-282.256 423.702,-273 426.5,-264 437.38,-229.004 442.036,-187.106 444.024,-158.624"/>
<polygon fill="midnightblue" stroke="midnightblue" points="412.424,-289.64 411.097,-300.151 418.689,-292.762 412.424,-289.64"/>
</g>
<!-- Node8 -->
<g id="node8" class="node"><title>Node8</title>
<g id="a_node8"><a xlink:href="rt__dq__ref_8h.html" target="_top" xlink:title="/home/travis/build\l/konsim83/MPI&#45;MSFEC\l/include/RT_DQ/rt_dq_ref.h">
<polygon fill="white" stroke="black" points="473.5,-203 473.5,-256 655.5,-256 655.5,-203 473.5,-203"/>
<text text-anchor="start" x="481.5" y="-240.8" font-family="Helvetica,sans-Serif" font-size="14.00">/home/travis/build</text>
<text text-anchor="start" x="481.5" y="-225.8" font-family="Helvetica,sans-Serif" font-size="14.00">/konsim83/MPI&#45;MSFEC</text>
<text text-anchor="middle" x="564.5" y="-210.8" font-family="Helvetica,sans-Serif" font-size="14.00">/include/RT_DQ/rt_dq_ref.h</text>
</a>
</g>
</g>
<!-- Node1&#45;&gt;Node8 -->
<g id="edge8" class="edge"><title>Node1&#45;&gt;Node8</title>
<path fill="none" stroke="midnightblue" d="M455.8,-295.217C477.728,-282.162 501.697,-267.891 521.535,-256.081"/>
<polygon fill="midnightblue" stroke="midnightblue" points="453.992,-292.22 447.191,-300.343 457.573,-298.235 453.992,-292.22"/>
</g>
<!-- Node4 -->
<g id="node4" class="node"><title>Node4</title>
<g id="a_node4"><a xlink:href="rt__dq__basis_8cc.html" target="_top" xlink:title="/home/travis/build\l/konsim83/MPI&#45;MSFEC\l/source/RT_DQ/rt_dq_basis.cc">
<polygon fill="white" stroke="black" points="145.5,-98 145.5,-151 347.5,-151 347.5,-98 145.5,-98"/>
<text text-anchor="start" x="153.5" y="-135.8" font-family="Helvetica,sans-Serif" font-size="14.00">/home/travis/build</text>
<text text-anchor="start" x="153.5" y="-120.8" font-family="Helvetica,sans-Serif" font-size="14.00">/konsim83/MPI&#45;MSFEC</text>
<text text-anchor="middle" x="246.5" y="-105.8" font-family="Helvetica,sans-Serif" font-size="14.00">/source/RT_DQ/rt_dq_basis.cc</text>
</a>
</g>
</g>
<!-- Node3&#45;&gt;Node4 -->
<g id="edge3" class="edge"><title>Node3&#45;&gt;Node4</title>
<path fill="none" stroke="midnightblue" d="M301.522,-187.778C290.589,-175.403 278.889,-162.16 269.1,-151.081"/>
<polygon fill="midnightblue" stroke="midnightblue" points="298.962,-190.166 308.206,-195.343 304.208,-185.532 298.962,-190.166"/>
</g>
<!-- Node3&#45;&gt;Node5 -->
<g id="edge4" class="edge"><title>Node3&#45;&gt;Node5</title>
<path fill="none" stroke="midnightblue" d="M379.646,-188.305C389.959,-178.47 400.879,-168.055 410.799,-158.595"/>
<polygon fill="midnightblue" stroke="midnightblue" points="377.087,-185.909 372.266,-195.343 381.919,-190.974 377.087,-185.909"/>
</g>
<!-- Node6 -->
<g id="node6" class="node"><title>Node6</title>
<g id="a_node6"><a xlink:href="main__rt__dq_8cxx.html" target="_top" xlink:title="/home/travis/build\l/konsim83/MPI&#45;MSFEC\l/source/main_rt_dq.cxx">
<polygon fill="white" stroke="black" points="479.5,-0.5 479.5,-53.5 639.5,-53.5 639.5,-0.5 479.5,-0.5"/>
<text text-anchor="start" x="487.5" y="-38.3" font-family="Helvetica,sans-Serif" font-size="14.00">/home/travis/build</text>
<text text-anchor="start" x="487.5" y="-23.3" font-family="Helvetica,sans-Serif" font-size="14.00">/konsim83/MPI&#45;MSFEC</text>
<text text-anchor="middle" x="559.5" y="-8.3" font-family="Helvetica,sans-Serif" font-size="14.00">/source/main_rt_dq.cxx</text>
</a>
</g>
</g>
<!-- Node5&#45;&gt;Node6 -->
<g id="edge5" class="edge"><title>Node5&#45;&gt;Node6</title>
<path fill="none" stroke="midnightblue" d="M492.952,-83.7485C505.143,-73.5363 517.933,-62.8215 529.006,-53.5452"/>
<polygon fill="midnightblue" stroke="midnightblue" points="490.47,-81.2621 485.052,-90.3668 494.965,-86.628 490.47,-81.2621"/>
</g>
<!-- Node7 -->
<g id="node7" class="node"><title>Node7</title>
<g id="a_node7"><a xlink:href="rt__dq__global_8cc.html" target="_top" xlink:title="/home/travis/build\l/konsim83/MPI&#45;MSFEC\l/source/RT_DQ/rt_dq_global.cc">
<polygon fill="white" stroke="black" points="255.5,-0.5 255.5,-53.5 461.5,-53.5 461.5,-0.5 255.5,-0.5"/>
<text text-anchor="start" x="263.5" y="-38.3" font-family="Helvetica,sans-Serif" font-size="14.00">/home/travis/build</text>
<text text-anchor="start" x="263.5" y="-23.3" font-family="Helvetica,sans-Serif" font-size="14.00">/konsim83/MPI&#45;MSFEC</text>
<text text-anchor="middle" x="358.5" y="-8.3" font-family="Helvetica,sans-Serif" font-size="14.00">/source/RT_DQ/rt_dq_global.cc</text>
</a>
</g>
</g>
<!-- Node5&#45;&gt;Node7 -->
<g id="edge6" class="edge"><title>Node5&#45;&gt;Node7</title>
<path fill="none" stroke="midnightblue" d="M408.488,-82.872C399.427,-72.9252 389.981,-62.5565 381.772,-53.5452"/>
<polygon fill="midnightblue" stroke="midnightblue" points="405.994,-85.3314 415.316,-90.3668 411.169,-80.6173 405.994,-85.3314"/>
</g>
<!-- Node8&#45;&gt;Node6 -->
<g id="edge9" class="edge"><title>Node8&#45;&gt;Node6</title>
<path fill="none" stroke="midnightblue" d="M563.604,-192.584C562.607,-152.604 561.021,-88.99 560.141,-53.7024"/>
<polygon fill="midnightblue" stroke="midnightblue" points="560.108,-192.789 563.857,-202.699 567.106,-192.614 560.108,-192.789"/>
</g>
<!-- Node9 -->
<g id="node9" class="node"><title>Node9</title>
<g id="a_node9"><a xlink:href="rt__dq__ref_8cc.html" target="_top" xlink:title="/home/travis/build\l/konsim83/MPI&#45;MSFEC\l/source/RT_DQ/rt_dq_ref.cc">
<polygon fill="white" stroke="black" points="587.5,-98 587.5,-151 773.5,-151 773.5,-98 587.5,-98"/>
<text text-anchor="start" x="595.5" y="-135.8" font-family="Helvetica,sans-Serif" font-size="14.00">/home/travis/build</text>
<text text-anchor="start" x="595.5" y="-120.8" font-family="Helvetica,sans-Serif" font-size="14.00">/konsim83/MPI&#45;MSFEC</text>
<text text-anchor="middle" x="680.5" y="-105.8" font-family="Helvetica,sans-Serif" font-size="14.00">/source/RT_DQ/rt_dq_ref.cc</text>
</a>
</g>
</g>
<!-- Node8&#45;&gt;Node9 -->
<g id="edge10" class="edge"><title>Node8&#45;&gt;Node9</title>
<path fill="none" stroke="midnightblue" d="M601.208,-195.906C617.444,-181.489 636.265,-164.778 651.495,-151.255"/>
<polygon fill="midnightblue" stroke="midnightblue" points="598.626,-193.518 593.472,-202.774 603.274,-198.752 598.626,-193.518"/>
</g>
</g>
</svg>
