<?xml version="1.0" encoding="UTF-8" standalone="no"?>
<!DOCTYPE svg PUBLIC "-//W3C//DTD SVG 1.1//EN"
 "http://www.w3.org/Graphics/SVG/1.1/DTD/svg11.dtd">
<!-- Generated by graphviz version 2.38.0 (20140413.2041)
 -->
<!-- Title: /home/travis/build/konsim83/MPI&#45;MSFEC/include/RT_DQ/rt_dq_ref.h Pages: 1 -->
<svg width="372pt" height="152pt"
 viewBox="0.00 0.00 372.00 152.00" xmlns="http://www.w3.org/2000/svg" xmlns:xlink="http://www.w3.org/1999/xlink">
<g id="graph0" class="graph" transform="scale(1 1) rotate(0) translate(4 148)">
<title>/home/travis/build/konsim83/MPI&#45;MSFEC/include/RT_DQ/rt_dq_ref.h</title>
<polygon fill="white" stroke="none" points="-4,4 -4,-148 368,-148 368,4 -4,4"/>
<!-- Node1 -->
<g id="node1" class="node"><title>Node1</title>
<polygon fill="#bfbfbf" stroke="black" points="84,-90.5 84,-143.5 266,-143.5 266,-90.5 84,-90.5"/>
<text text-anchor="start" x="92" y="-128.3" font-family="Helvetica,sans-Serif" font-size="14.00">/home/travis/build</text>
<text text-anchor="start" x="92" y="-113.3" font-family="Helvetica,sans-Serif" font-size="14.00">/konsim83/MPI&#45;MSFEC</text>
<text text-anchor="middle" x="175" y="-98.3" font-family="Helvetica,sans-Serif" font-size="14.00">/include/RT_DQ/rt_dq_ref.h</text>
</g>
<!-- Node2 -->
<g id="node2" class="node"><title>Node2</title>
<g id="a_node2"><a xlink:href="main__rt__dq_8cxx.html" target="_top" xlink:title="/home/travis/build\l/konsim83/MPI&#45;MSFEC\l/source/main_rt_dq.cxx">
<polygon fill="white" stroke="black" points="0,-0.5 0,-53.5 160,-53.5 160,-0.5 0,-0.5"/>
<text text-anchor="start" x="8" y="-38.3" font-family="Helvetica,sans-Serif" font-size="14.00">/home/travis/build</text>
<text text-anchor="start" x="8" y="-23.3" font-family="Helvetica,sans-Serif" font-size="14.00">/konsim83/MPI&#45;MSFEC</text>
<text text-anchor="middle" x="80" y="-8.3" font-family="Helvetica,sans-Serif" font-size="14.00">/source/main_rt_dq.cxx</text>
</a>
</g>
</g>
<!-- Node1&#45;&gt;Node2 -->
<g id="edge1" class="edge"><title>Node1&#45;&gt;Node2</title>
<path fill="none" stroke="midnightblue" d="M139.73,-83.3284C129.121,-73.5015 117.639,-62.8657 107.604,-53.5696"/>
<polygon fill="midnightblue" stroke="midnightblue" points="137.552,-86.0822 147.267,-90.3102 142.309,-80.9469 137.552,-86.0822"/>
</g>
<!-- Node3 -->
<g id="node3" class="node"><title>Node3</title>
<g id="a_node3"><a xlink:href="rt__dq__ref_8cc.html" target="_top" xlink:title="/home/travis/build\l/konsim83/MPI&#45;MSFEC\l/source/RT_DQ/rt_dq_ref.cc">
<polygon fill="white" stroke="black" points="178,-0.5 178,-53.5 364,-53.5 364,-0.5 178,-0.5"/>
<text text-anchor="start" x="186" y="-38.3" font-family="Helvetica,sans-Serif" font-size="14.00">/home/travis/build</text>
<text text-anchor="start" x="186" y="-23.3" font-family="Helvetica,sans-Serif" font-size="14.00">/konsim83/MPI&#45;MSFEC</text>
<text text-anchor="middle" x="271" y="-8.3" font-family="Helvetica,sans-Serif" font-size="14.00">/source/RT_DQ/rt_dq_ref.cc</text>
</a>
</g>
</g>
<!-- Node1&#45;&gt;Node3 -->
<g id="edge2" class="edge"><title>Node1&#45;&gt;Node3</title>
<path fill="none" stroke="midnightblue" d="M210.642,-83.3284C221.362,-73.5015 232.965,-62.8657 243.106,-53.5696"/>
<polygon fill="midnightblue" stroke="midnightblue" points="208.032,-80.9729 203.025,-90.3102 212.762,-86.133 208.032,-80.9729"/>
</g>
</g>
</svg>
