<?xml version="1.0" encoding="UTF-8" standalone="no"?>
<!DOCTYPE svg PUBLIC "-//W3C//DTD SVG 1.1//EN"
 "http://www.w3.org/Graphics/SVG/1.1/DTD/svg11.dtd">
<!-- Generated by graphviz version 2.38.0 (20140413.2041)
 -->
<!-- Title: /home/travis/build/konsim83/MPI&#45;MSFEC/include/RT_DQ/rt_dq_basis.h Pages: 1 -->
<svg width="511pt" height="272pt"
 viewBox="0.00 0.00 511.00 272.00" xmlns="http://www.w3.org/2000/svg" xmlns:xlink="http://www.w3.org/1999/xlink">
<g id="graph0" class="graph" transform="scale(1 1) rotate(0) translate(4 268)">
<title>/home/travis/build/konsim83/MPI&#45;MSFEC/include/RT_DQ/rt_dq_basis.h</title>
<polygon fill="white" stroke="none" points="-4,4 -4,-268 507,-268 507,4 -4,4"/>
<!-- Node1 -->
<g id="node1" class="node"><title>Node1</title>
<polygon fill="#bfbfbf" stroke="black" points="120,-195.5 120,-263.5 280,-263.5 280,-195.5 120,-195.5"/>
<text text-anchor="start" x="128" y="-248.3" font-family="Helvetica,sans-Serif" font-size="14.00">/home/travis/build</text>
<text text-anchor="start" x="128" y="-233.3" font-family="Helvetica,sans-Serif" font-size="14.00">/konsim83/MPI&#45;MSFEC</text>
<text text-anchor="start" x="128" y="-218.3" font-family="Helvetica,sans-Serif" font-size="14.00">/include/RT_DQ/rt_dq</text>
<text text-anchor="middle" x="200" y="-203.3" font-family="Helvetica,sans-Serif" font-size="14.00">_basis.h</text>
</g>
<!-- Node2 -->
<g id="node2" class="node"><title>Node2</title>
<g id="a_node2"><a xlink:href="rt__dq__basis_8cc.html" target="_top" xlink:title="/home/travis/build\l/konsim83/MPI&#45;MSFEC\l/source/RT_DQ/rt_dq_basis.cc">
<polygon fill="white" stroke="black" points="0,-98 0,-151 202,-151 202,-98 0,-98"/>
<text text-anchor="start" x="8" y="-135.8" font-family="Helvetica,sans-Serif" font-size="14.00">/home/travis/build</text>
<text text-anchor="start" x="8" y="-120.8" font-family="Helvetica,sans-Serif" font-size="14.00">/konsim83/MPI&#45;MSFEC</text>
<text text-anchor="middle" x="101" y="-105.8" font-family="Helvetica,sans-Serif" font-size="14.00">/source/RT_DQ/rt_dq_basis.cc</text>
</a>
</g>
</g>
<!-- Node1&#45;&gt;Node2 -->
<g id="edge1" class="edge"><title>Node1&#45;&gt;Node2</title>
<path fill="none" stroke="midnightblue" d="M161.196,-188.128C149.206,-175.653 136.336,-162.264 125.587,-151.081"/>
<polygon fill="midnightblue" stroke="midnightblue" points="158.678,-190.559 168.131,-195.343 163.725,-185.708 158.678,-190.559"/>
</g>
<!-- Node3 -->
<g id="node3" class="node"><title>Node3</title>
<g id="a_node3"><a xlink:href="rt__dq__global_8h.html" target="_top" xlink:title="/home/travis/build\l/konsim83/MPI&#45;MSFEC\l/include/RT_DQ/rt_dq\l_global.h">
<polygon fill="white" stroke="black" points="220,-90.5 220,-158.5 380,-158.5 380,-90.5 220,-90.5"/>
<text text-anchor="start" x="228" y="-143.3" font-family="Helvetica,sans-Serif" font-size="14.00">/home/travis/build</text>
<text text-anchor="start" x="228" y="-128.3" font-family="Helvetica,sans-Serif" font-size="14.00">/konsim83/MPI&#45;MSFEC</text>
<text text-anchor="start" x="228" y="-113.3" font-family="Helvetica,sans-Serif" font-size="14.00">/include/RT_DQ/rt_dq</text>
<text text-anchor="middle" x="300" y="-98.3" font-family="Helvetica,sans-Serif" font-size="14.00">_global.h</text>
</a>
</g>
</g>
<!-- Node1&#45;&gt;Node3 -->
<g id="edge2" class="edge"><title>Node1&#45;&gt;Node3</title>
<path fill="none" stroke="midnightblue" d="M239.302,-188.019C248.769,-178.267 258.774,-167.963 267.869,-158.595"/>
<polygon fill="midnightblue" stroke="midnightblue" points="236.646,-185.73 232.191,-195.343 241.668,-190.606 236.646,-185.73"/>
</g>
<!-- Node4 -->
<g id="node4" class="node"><title>Node4</title>
<g id="a_node4"><a xlink:href="main__rt__dq_8cxx.html" target="_top" xlink:title="/home/travis/build\l/konsim83/MPI&#45;MSFEC\l/source/main_rt_dq.cxx">
<polygon fill="white" stroke="black" points="119,-0.5 119,-53.5 279,-53.5 279,-0.5 119,-0.5"/>
<text text-anchor="start" x="127" y="-38.3" font-family="Helvetica,sans-Serif" font-size="14.00">/home/travis/build</text>
<text text-anchor="start" x="127" y="-23.3" font-family="Helvetica,sans-Serif" font-size="14.00">/konsim83/MPI&#45;MSFEC</text>
<text text-anchor="middle" x="199" y="-8.3" font-family="Helvetica,sans-Serif" font-size="14.00">/source/main_rt_dq.cxx</text>
</a>
</g>
</g>
<!-- Node3&#45;&gt;Node4 -->
<g id="edge3" class="edge"><title>Node3&#45;&gt;Node4</title>
<path fill="none" stroke="midnightblue" d="M257.65,-83.4566C246.943,-73.3323 235.734,-62.7332 226.016,-53.5452"/>
<polygon fill="midnightblue" stroke="midnightblue" points="255.288,-86.0394 264.959,-90.3668 260.097,-80.9531 255.288,-86.0394"/>
</g>
<!-- Node5 -->
<g id="node5" class="node"><title>Node5</title>
<g id="a_node5"><a xlink:href="rt__dq__global_8cc.html" target="_top" xlink:title="/home/travis/build\l/konsim83/MPI&#45;MSFEC\l/source/RT_DQ/rt_dq_global.cc">
<polygon fill="white" stroke="black" points="297,-0.5 297,-53.5 503,-53.5 503,-0.5 297,-0.5"/>
<text text-anchor="start" x="305" y="-38.3" font-family="Helvetica,sans-Serif" font-size="14.00">/home/travis/build</text>
<text text-anchor="start" x="305" y="-23.3" font-family="Helvetica,sans-Serif" font-size="14.00">/konsim83/MPI&#45;MSFEC</text>
<text text-anchor="middle" x="400" y="-8.3" font-family="Helvetica,sans-Serif" font-size="14.00">/source/RT_DQ/rt_dq_global.cc</text>
</a>
</g>
</g>
<!-- Node3&#45;&gt;Node5 -->
<g id="edge4" class="edge"><title>Node3&#45;&gt;Node5</title>
<path fill="none" stroke="midnightblue" d="M341.93,-83.4566C352.532,-73.3323 363.63,-62.7332 373.251,-53.5452"/>
<polygon fill="midnightblue" stroke="midnightblue" points="339.509,-80.9291 334.695,-90.3668 344.344,-85.9914 339.509,-80.9291"/>
</g>
</g>
</svg>
