<?xml version="1.0" encoding="UTF-8" standalone="no"?>
<!DOCTYPE svg PUBLIC "-//W3C//DTD SVG 1.1//EN"
 "http://www.w3.org/Graphics/SVG/1.1/DTD/svg11.dtd">
<!-- Generated by graphviz version 2.38.0 (20140413.2041)
 -->
<!-- Title: /home/travis/build/konsim83/MPI&#45;MSFEC/source/RT_DQ/rt_dq_ref.cc Pages: 1 -->
<svg width="7472pt" height="197pt"
 viewBox="0.00 0.00 7472.00 197.00" xmlns="http://www.w3.org/2000/svg" xmlns:xlink="http://www.w3.org/1999/xlink">
<g id="graph0" class="graph" transform="scale(1 1) rotate(0) translate(4 193)">
<title>/home/travis/build/konsim83/MPI&#45;MSFEC/source/RT_DQ/rt_dq_ref.cc</title>
<polygon fill="white" stroke="none" points="-4,4 -4,-193 7468,-193 7468,4 -4,4"/>
<!-- Node1 -->
<g id="node1" class="node"><title>Node1</title>
<polygon fill="#bfbfbf" stroke="black" points="3698.5,-135.5 3698.5,-188.5 3884.5,-188.5 3884.5,-135.5 3698.5,-135.5"/>
<text text-anchor="start" x="3706.5" y="-173.3" font-family="Helvetica,sans-Serif" font-size="14.00">/home/travis/build</text>
<text text-anchor="start" x="3706.5" y="-158.3" font-family="Helvetica,sans-Serif" font-size="14.00">/konsim83/MPI&#45;MSFEC</text>
<text text-anchor="middle" x="3791.5" y="-143.3" font-family="Helvetica,sans-Serif" font-size="14.00">/source/RT_DQ/rt_dq_ref.cc</text>
</g>
<!-- Node2 -->
<g id="node2" class="node"><title>Node2</title>
<g id="a_node2"><a xlink:href="rt__dq__ref_8h.html" target="_top" xlink:title="RT_DQ/rt_dq_ref.h">
<polygon fill="white" stroke="red" points="3725.5,-75.5 3725.5,-98.5 3857.5,-98.5 3857.5,-75.5 3725.5,-75.5"/>
<text text-anchor="middle" x="3791.5" y="-83.3" font-family="Helvetica,sans-Serif" font-size="14.00">RT_DQ/rt_dq_ref.h</text>
</a>
</g>
</g>
<!-- Node1&#45;&gt;Node2 -->
<g id="edge1" class="edge"><title>Node1&#45;&gt;Node2</title>
<path fill="none" stroke="midnightblue" d="M3791.5,-135.468C3791.5,-126.762 3791.5,-117.138 3791.5,-108.844"/>
<polygon fill="midnightblue" stroke="midnightblue" points="3795,-108.571 3791.5,-98.5709 3788,-108.571 3795,-108.571"/>
</g>
<!-- Node3 -->
<g id="node3" class="node"><title>Node3</title>
<polygon fill="white" stroke="#bfbfbf" points="0,-0.5 0,-38.5 155,-38.5 155,-0.5 0,-0.5"/>
<text text-anchor="start" x="8" y="-23.3" font-family="Helvetica,sans-Serif" font-size="14.00">deal.II/base/conditional</text>
<text text-anchor="middle" x="77.5" y="-8.3" font-family="Helvetica,sans-Serif" font-size="14.00">_ostream.h</text>
</g>
<!-- Node2&#45;&gt;Node3 -->
<g id="edge2" class="edge"><title>Node2&#45;&gt;Node3</title>
<path fill="none" stroke="midnightblue" d="M3725.32,-85.936C3267.45,-85.3897 576.613,-80.4691 165.325,-39.0187"/>
<polygon fill="midnightblue" stroke="midnightblue" points="165.516,-35.5194 155.201,-37.9388 164.774,-42.4799 165.516,-35.5194"/>
</g>
<!-- Node4 -->
<g id="node4" class="node"><title>Node4</title>
<polygon fill="white" stroke="#bfbfbf" points="173,-8 173,-31 322,-31 322,-8 173,-8"/>
<text text-anchor="middle" x="247.5" y="-15.8" font-family="Helvetica,sans-Serif" font-size="14.00">deal.II/base/function.h</text>
</g>
<!-- Node2&#45;&gt;Node4 -->
<g id="edge3" class="edge"><title>Node2&#45;&gt;Node4</title>
<path fill="none" stroke="midnightblue" d="M3725.18,-85.9104C3275.42,-85.1953 680.144,-79.3354 331.5,-39 320.37,-37.7123 308.548,-35.5903 297.397,-33.2336"/>
<polygon fill="midnightblue" stroke="midnightblue" points="297.902,-29.761 287.383,-31.0205 296.392,-36.596 297.902,-29.761"/>
</g>
<!-- Node5 -->
<g id="node5" class="node"><title>Node5</title>
<polygon fill="white" stroke="#bfbfbf" points="340.5,-0.5 340.5,-38.5 462.5,-38.5 462.5,-0.5 340.5,-0.5"/>
<text text-anchor="start" x="348.5" y="-23.3" font-family="Helvetica,sans-Serif" font-size="14.00">deal.II/base/index</text>
<text text-anchor="middle" x="401.5" y="-8.3" font-family="Helvetica,sans-Serif" font-size="14.00">_set.h</text>
</g>
<!-- Node2&#45;&gt;Node5 -->
<g id="edge4" class="edge"><title>Node2&#45;&gt;Node5</title>
<path fill="none" stroke="midnightblue" d="M3725.39,-86.0343C3290.9,-86.1327 850.407,-84.6904 472.849,-38.9009"/>
<polygon fill="midnightblue" stroke="midnightblue" points="473.154,-35.4113 462.788,-37.6028 472.258,-42.3538 473.154,-35.4113"/>
</g>
<!-- Node6 -->
<g id="node6" class="node"><title>Node6</title>
<polygon fill="white" stroke="#bfbfbf" points="481,-8 481,-31 642,-31 642,-8 481,-8"/>
<text text-anchor="middle" x="561.5" y="-15.8" font-family="Helvetica,sans-Serif" font-size="14.00">deal.II/base/logstream.h</text>
</g>
<!-- Node2&#45;&gt;Node6 -->
<g id="edge5" class="edge"><title>Node2&#45;&gt;Node6</title>
<path fill="none" stroke="midnightblue" d="M3725.29,-85.7562C3300.57,-84.0933 966.607,-73.4353 651.5,-39 639.359,-37.6732 626.43,-35.4854 614.271,-33.0701"/>
<polygon fill="midnightblue" stroke="midnightblue" points="614.774,-29.6001 604.272,-31.0017 613.356,-36.455 614.774,-29.6001"/>
</g>
<!-- Node7 -->
<g id="node7" class="node"><title>Node7</title>
<polygon fill="white" stroke="#bfbfbf" points="660.5,-8 660.5,-31 784.5,-31 784.5,-8 660.5,-8"/>
<text text-anchor="middle" x="722.5" y="-15.8" font-family="Helvetica,sans-Serif" font-size="14.00">deal.II/base/mpi.h</text>
</g>
<!-- Node2&#45;&gt;Node7 -->
<g id="edge6" class="edge"><title>Node2&#45;&gt;Node7</title>
<path fill="none" stroke="midnightblue" d="M3725.28,-85.9119C3311.82,-85.2357 1092.66,-79.7209 793.5,-39 784.513,-37.7767 775.033,-35.8028 766.029,-33.5903"/>
<polygon fill="midnightblue" stroke="midnightblue" points="766.676,-30.1423 756.117,-31.0184 764.917,-36.9179 766.676,-30.1423"/>
</g>
<!-- Node8 -->
<g id="node8" class="node"><title>Node8</title>
<polygon fill="white" stroke="#bfbfbf" points="802.5,-0.5 802.5,-38.5 954.5,-38.5 954.5,-0.5 802.5,-0.5"/>
<text text-anchor="start" x="810.5" y="-23.3" font-family="Helvetica,sans-Serif" font-size="14.00">deal.II/base/parameter</text>
<text text-anchor="middle" x="878.5" y="-8.3" font-family="Helvetica,sans-Serif" font-size="14.00">_handler.h</text>
</g>
<!-- Node2&#45;&gt;Node8 -->
<g id="edge7" class="edge"><title>Node2&#45;&gt;Node8</title>
<path fill="none" stroke="midnightblue" d="M3725.22,-85.6841C3329.93,-83.6968 1289.99,-71.9607 964.818,-38.9426"/>
<polygon fill="midnightblue" stroke="midnightblue" points="965.155,-35.4587 954.836,-37.8594 964.4,-42.4179 965.155,-35.4587"/>
</g>
<!-- Node9 -->
<g id="node9" class="node"><title>Node9</title>
<polygon fill="white" stroke="#bfbfbf" points="972.5,-0.5 972.5,-38.5 1100.5,-38.5 1100.5,-0.5 972.5,-0.5"/>
<text text-anchor="start" x="980.5" y="-23.3" font-family="Helvetica,sans-Serif" font-size="14.00">deal.II/base/tensor</text>
<text text-anchor="middle" x="1036.5" y="-8.3" font-family="Helvetica,sans-Serif" font-size="14.00">_function.h</text>
</g>
<!-- Node2&#45;&gt;Node9 -->
<g id="edge8" class="edge"><title>Node2&#45;&gt;Node9</title>
<path fill="none" stroke="midnightblue" d="M3725.2,-85.7533C3342.4,-84.2087 1421.34,-74.7837 1111.18,-38.9446"/>
<polygon fill="midnightblue" stroke="midnightblue" points="1111.18,-35.4186 1100.83,-37.6585 1110.32,-42.3652 1111.18,-35.4186"/>
</g>
<!-- Node10 -->
<g id="node10" class="node"><title>Node10</title>
<polygon fill="white" stroke="#bfbfbf" points="1119,-8 1119,-31 1262,-31 1262,-8 1119,-8"/>
<text text-anchor="middle" x="1190.5" y="-15.8" font-family="Helvetica,sans-Serif" font-size="14.00">deal.II/base/utilities.h</text>
</g>
<!-- Node2&#45;&gt;Node10 -->
<g id="edge9" class="edge"><title>Node2&#45;&gt;Node10</title>
<path fill="none" stroke="midnightblue" d="M3725.29,-85.5915C3352.18,-83.1792 1520.03,-69.8354 1270.5,-39 1260.1,-37.7149 1249.08,-35.6425 1238.65,-33.3409"/>
<polygon fill="midnightblue" stroke="midnightblue" points="1239.4,-29.9222 1228.87,-31.0821 1237.82,-36.7427 1239.4,-29.9222"/>
</g>
<!-- Node11 -->
<g id="node11" class="node"><title>Node11</title>
<polygon fill="white" stroke="#bfbfbf" points="1280,-0.5 1280,-38.5 1391,-38.5 1391,-0.5 1280,-0.5"/>
<text text-anchor="start" x="1288" y="-23.3" font-family="Helvetica,sans-Serif" font-size="14.00">deal.II/lac/affine</text>
<text text-anchor="middle" x="1335.5" y="-8.3" font-family="Helvetica,sans-Serif" font-size="14.00">_constraints.h</text>
</g>
<!-- Node2&#45;&gt;Node11 -->
<g id="edge10" class="edge"><title>Node2&#45;&gt;Node11</title>
<path fill="none" stroke="midnightblue" d="M3725.43,-85.7331C3368.67,-84.1557 1678.36,-74.9062 1401.14,-38.9187"/>
<polygon fill="midnightblue" stroke="midnightblue" points="1401.55,-35.4409 1391.16,-37.5171 1400.57,-42.373 1401.55,-35.4409"/>
</g>
<!-- Node12 -->
<g id="node12" class="node"><title>Node12</title>
<polygon fill="white" stroke="#bfbfbf" points="1408.5,-0.5 1408.5,-38.5 1566.5,-38.5 1566.5,-0.5 1408.5,-0.5"/>
<text text-anchor="start" x="1416.5" y="-23.3" font-family="Helvetica,sans-Serif" font-size="14.00">deal.II/lac/block_sparse</text>
<text text-anchor="middle" x="1487.5" y="-8.3" font-family="Helvetica,sans-Serif" font-size="14.00">_matrix.h</text>
</g>
<!-- Node2&#45;&gt;Node12 -->
<g id="edge11" class="edge"><title>Node2&#45;&gt;Node12</title>
<path fill="none" stroke="midnightblue" d="M3725.4,-86.2557C3407.01,-87.2358 2028.7,-88.5473 1576.72,-38.9831"/>
<polygon fill="midnightblue" stroke="midnightblue" points="1576.87,-35.478 1566.54,-37.8403 1576.09,-42.4343 1576.87,-35.478"/>
</g>
<!-- Node13 -->
<g id="node13" class="node"><title>Node13</title>
<polygon fill="white" stroke="#bfbfbf" points="1585,-8 1585,-31 1750,-31 1750,-8 1585,-8"/>
<text text-anchor="middle" x="1667.5" y="-15.8" font-family="Helvetica,sans-Serif" font-size="14.00">deal.II/lac/block_vector.h</text>
</g>
<!-- Node2&#45;&gt;Node13 -->
<g id="edge12" class="edge"><title>Node2&#45;&gt;Node13</title>
<path fill="none" stroke="midnightblue" d="M3725.38,-86.0493C3421,-86.0343 2152.65,-83.2657 1758.5,-39 1746.36,-37.6365 1733.43,-35.4591 1721.25,-33.0692"/>
<polygon fill="midnightblue" stroke="midnightblue" points="1721.72,-29.5934 1711.22,-31.0249 1720.32,-36.4522 1721.72,-29.5934"/>
</g>
<!-- Node14 -->
<g id="node14" class="node"><title>Node14</title>
<polygon fill="white" stroke="#bfbfbf" points="1768,-0.5 1768,-38.5 1899,-38.5 1899,-0.5 1768,-0.5"/>
<text text-anchor="start" x="1776" y="-23.3" font-family="Helvetica,sans-Serif" font-size="14.00">deal.II/lac/dynamic</text>
<text text-anchor="middle" x="1833.5" y="-8.3" font-family="Helvetica,sans-Serif" font-size="14.00">_sparsity_pattern.h</text>
</g>
<!-- Node2&#45;&gt;Node14 -->
<g id="edge13" class="edge"><title>Node2&#45;&gt;Node14</title>
<path fill="none" stroke="midnightblue" d="M3725.19,-86.2714C3436.96,-87.1573 2290.88,-87.5691 1909.17,-38.8665"/>
<polygon fill="midnightblue" stroke="midnightblue" points="1909.57,-35.3887 1899.2,-37.5593 1908.66,-42.3294 1909.57,-35.3887"/>
</g>
<!-- Node15 -->
<g id="node15" class="node"><title>Node15</title>
<polygon fill="white" stroke="#bfbfbf" points="1917.5,-8 1917.5,-31 2069.5,-31 2069.5,-8 1917.5,-8"/>
<text text-anchor="middle" x="1993.5" y="-15.8" font-family="Helvetica,sans-Serif" font-size="14.00">deal.II/lac/full_matrix.h</text>
</g>
<!-- Node2&#45;&gt;Node15 -->
<g id="edge14" class="edge"><title>Node2&#45;&gt;Node15</title>
<path fill="none" stroke="midnightblue" d="M3725.3,-85.837C3451.42,-84.9074 2405.96,-78.7726 2078.5,-39 2067.37,-37.6477 2055.54,-35.523 2044.36,-33.188"/>
<polygon fill="midnightblue" stroke="midnightblue" points="2044.82,-29.7077 2034.31,-31.0005 2043.33,-36.5475 2044.82,-29.7077"/>
</g>
<!-- Node16 -->
<g id="node16" class="node"><title>Node16</title>
<polygon fill="white" stroke="#bfbfbf" points="2087.5,-0.5 2087.5,-38.5 2209.5,-38.5 2209.5,-0.5 2087.5,-0.5"/>
<text text-anchor="start" x="2095.5" y="-23.3" font-family="Helvetica,sans-Serif" font-size="14.00">deal.II/lac/generic</text>
<text text-anchor="middle" x="2148.5" y="-8.3" font-family="Helvetica,sans-Serif" font-size="14.00">_linear_algebra.h</text>
</g>
<!-- Node2&#45;&gt;Node16 -->
<g id="edge15" class="edge"><title>Node2&#45;&gt;Node16</title>
<path fill="none" stroke="midnightblue" d="M3725.46,-86.0345C3468.79,-85.8609 2536.58,-82.2913 2219.89,-38.9722"/>
<polygon fill="midnightblue" stroke="midnightblue" points="2220.19,-35.4791 2209.8,-37.5469 2219.21,-42.4104 2220.19,-35.4791"/>
</g>
<!-- Node17 -->
<g id="node17" class="node"><title>Node17</title>
<polygon fill="white" stroke="#bfbfbf" points="2228,-8 2228,-31 2431,-31 2431,-8 2228,-8"/>
<text text-anchor="middle" x="2329.5" y="-15.8" font-family="Helvetica,sans-Serif" font-size="14.00">deal.II/lac/petsc_precondition.h</text>
</g>
<!-- Node2&#45;&gt;Node17 -->
<g id="edge16" class="edge"><title>Node2&#45;&gt;Node17</title>
<path fill="none" stroke="midnightblue" d="M3725.39,-84.8581C3490.02,-80.6116 2693.33,-64.6437 2439.5,-39 2424.55,-37.4896 2408.56,-35.1952 2393.53,-32.7309"/>
<polygon fill="midnightblue" stroke="midnightblue" points="2393.74,-29.2179 2383.3,-31.0052 2392.58,-36.1203 2393.74,-29.2179"/>
</g>
<!-- Node18 -->
<g id="node18" class="node"><title>Node18</title>
<polygon fill="white" stroke="#bfbfbf" points="2449,-8 2449,-31 2614,-31 2614,-8 2449,-8"/>
<text text-anchor="middle" x="2531.5" y="-15.8" font-family="Helvetica,sans-Serif" font-size="14.00">deal.II/lac/petsc_solver.h</text>
</g>
<!-- Node2&#45;&gt;Node18 -->
<g id="edge17" class="edge"><title>Node2&#45;&gt;Node18</title>
<path fill="none" stroke="midnightblue" d="M3725.23,-84.7348C3510.97,-80.4245 2838.39,-65.1133 2622.5,-39 2610.62,-37.5632 2597.98,-35.4045 2586.02,-33.0633"/>
<polygon fill="midnightblue" stroke="midnightblue" points="2586.66,-29.6219 2576.16,-31.0656 2585.27,-36.4824 2586.66,-29.6219"/>
</g>
<!-- Node19 -->
<g id="node19" class="node"><title>Node19</title>
<polygon fill="white" stroke="#bfbfbf" points="2632,-8 2632,-31 2779,-31 2779,-8 2632,-8"/>
<text text-anchor="middle" x="2705.5" y="-15.8" font-family="Helvetica,sans-Serif" font-size="14.00">deal.II/lac/solver_cg.h</text>
</g>
<!-- Node2&#45;&gt;Node19 -->
<g id="edge18" class="edge"><title>Node2&#45;&gt;Node19</title>
<path fill="none" stroke="midnightblue" d="M3725.29,-84.3893C3531.96,-79.4497 2970.46,-63.3567 2788.5,-39 2777.97,-37.5899 2766.79,-35.5098 2756.17,-33.2481"/>
<polygon fill="midnightblue" stroke="midnightblue" points="2756.72,-29.7845 2746.2,-31.04 2755.21,-36.619 2756.72,-29.7845"/>
</g>
<!-- Node20 -->
<g id="node20" class="node"><title>Node20</title>
<polygon fill="white" stroke="#bfbfbf" points="2797.5,-0.5 2797.5,-38.5 2911.5,-38.5 2911.5,-0.5 2797.5,-0.5"/>
<text text-anchor="start" x="2805.5" y="-23.3" font-family="Helvetica,sans-Serif" font-size="14.00">deal.II/lac/solver</text>
<text text-anchor="middle" x="2854.5" y="-8.3" font-family="Helvetica,sans-Serif" font-size="14.00">_gmres.h</text>
</g>
<!-- Node2&#45;&gt;Node20 -->
<g id="edge19" class="edge"><title>Node2&#45;&gt;Node20</title>
<path fill="none" stroke="midnightblue" d="M3725.3,-84.3078C3553.18,-79.6136 3093.66,-65.1241 2921.51,-38.9026"/>
<polygon fill="midnightblue" stroke="midnightblue" points="2921.99,-35.4357 2911.56,-37.3216 2920.89,-42.3489 2921.99,-35.4357"/>
</g>
<!-- Node21 -->
<g id="node21" class="node"><title>Node21</title>
<polygon fill="white" stroke="#bfbfbf" points="2929.5,-0.5 2929.5,-38.5 3043.5,-38.5 3043.5,-0.5 2929.5,-0.5"/>
<text text-anchor="start" x="2937.5" y="-23.3" font-family="Helvetica,sans-Serif" font-size="14.00">deal.II/lac/solver</text>
<text text-anchor="middle" x="2986.5" y="-8.3" font-family="Helvetica,sans-Serif" font-size="14.00">_minres.h</text>
</g>
<!-- Node2&#45;&gt;Node21 -->
<g id="edge20" class="edge"><title>Node2&#45;&gt;Node21</title>
<path fill="none" stroke="midnightblue" d="M3725.47,-86.4202C3597.32,-86.2342 3306.03,-80.9176 3053.66,-38.9874"/>
<polygon fill="midnightblue" stroke="midnightblue" points="3054.01,-35.497 3043.57,-37.2872 3052.85,-42.3997 3054.01,-35.497"/>
</g>
<!-- Node22 -->
<g id="node22" class="node"><title>Node22</title>
<polygon fill="white" stroke="#bfbfbf" points="3061.5,-8 3061.5,-31 3187.5,-31 3187.5,-8 3061.5,-8"/>
<text text-anchor="middle" x="3124.5" y="-15.8" font-family="Helvetica,sans-Serif" font-size="14.00">deal.II/lac/vector.h</text>
</g>
<!-- Node2&#45;&gt;Node22 -->
<g id="edge21" class="edge"><title>Node2&#45;&gt;Node22</title>
<path fill="none" stroke="midnightblue" d="M3725.46,-84.5008C3615.18,-81.1687 3386.87,-70.7311 3196.5,-39 3187.99,-37.5816 3179.02,-35.6426 3170.4,-33.5516"/>
<polygon fill="midnightblue" stroke="midnightblue" points="3171.05,-30.1063 3160.5,-31.0493 3169.34,-36.8929 3171.05,-30.1063"/>
</g>
<!-- Node23 -->
<g id="node23" class="node"><title>Node23</title>
<polygon fill="white" stroke="#bfbfbf" points="3206,-0.5 3206,-38.5 3331,-38.5 3331,-0.5 3206,-0.5"/>
<text text-anchor="start" x="3214" y="-23.3" font-family="Helvetica,sans-Serif" font-size="14.00">deal.II/lac/sparsity</text>
<text text-anchor="middle" x="3268.5" y="-8.3" font-family="Helvetica,sans-Serif" font-size="14.00">_tools.h</text>
</g>
<!-- Node2&#45;&gt;Node23 -->
<g id="edge22" class="edge"><title>Node2&#45;&gt;Node23</title>
<path fill="none" stroke="midnightblue" d="M3725.34,-82.1744C3639.13,-76.507 3483.6,-63.9547 3341.42,-39.0113"/>
<polygon fill="midnightblue" stroke="midnightblue" points="3341.67,-35.5001 3331.21,-37.1939 3340.44,-42.3919 3341.67,-35.5001"/>
</g>
<!-- Node24 -->
<g id="node24" class="node"><title>Node24</title>
<polygon fill="white" stroke="#bfbfbf" points="3349.5,-8 3349.5,-31 3481.5,-31 3481.5,-8 3349.5,-8"/>
<text text-anchor="middle" x="3415.5" y="-15.8" font-family="Helvetica,sans-Serif" font-size="14.00">deal.II/base/timer.h</text>
</g>
<!-- Node2&#45;&gt;Node24 -->
<g id="edge23" class="edge"><title>Node2&#45;&gt;Node24</title>
<path fill="none" stroke="midnightblue" d="M3725.44,-77.3694C3664.26,-68.9777 3570.87,-55.1557 3490.5,-39 3482.28,-37.3474 3473.6,-35.3983 3465.17,-33.3962"/>
<polygon fill="midnightblue" stroke="midnightblue" points="3465.99,-29.9924 3455.45,-31.0361 3464.34,-36.7951 3465.99,-29.9924"/>
</g>
<!-- Node25 -->
<g id="node25" class="node"><title>Node25</title>
<polygon fill="white" stroke="#bfbfbf" points="3500,-0.5 3500,-38.5 3631,-38.5 3631,-0.5 3500,-0.5"/>
<text text-anchor="start" x="3508" y="-23.3" font-family="Helvetica,sans-Serif" font-size="14.00">deal.II/distributed</text>
<text text-anchor="middle" x="3565.5" y="-8.3" font-family="Helvetica,sans-Serif" font-size="14.00">/solution_transfer.h</text>
</g>
<!-- Node2&#45;&gt;Node25 -->
<g id="edge24" class="edge"><title>Node2&#45;&gt;Node25</title>
<path fill="none" stroke="midnightblue" d="M3755.19,-75.4763C3723.56,-66.3085 3676.74,-52.7409 3637.54,-41.3783"/>
<polygon fill="midnightblue" stroke="midnightblue" points="3638.33,-37.9631 3627.75,-38.541 3636.38,-44.6864 3638.33,-37.9631"/>
</g>
<!-- Node26 -->
<g id="node26" class="node"><title>Node26</title>
<polygon fill="white" stroke="#bfbfbf" points="3649,-0.5 3649,-38.5 3768,-38.5 3768,-0.5 3649,-0.5"/>
<text text-anchor="start" x="3657" y="-23.3" font-family="Helvetica,sans-Serif" font-size="14.00">deal.II/distributed</text>
<text text-anchor="middle" x="3708.5" y="-8.3" font-family="Helvetica,sans-Serif" font-size="14.00">/tria.h</text>
</g>
<!-- Node2&#45;&gt;Node26 -->
<g id="edge25" class="edge"><title>Node2&#45;&gt;Node26</title>
<path fill="none" stroke="midnightblue" d="M3778.16,-75.4763C3767.77,-67.2707 3752.9,-55.5406 3739.57,-45.0214"/>
<polygon fill="midnightblue" stroke="midnightblue" points="3741.54,-42.1181 3731.53,-38.6706 3737.21,-47.6131 3741.54,-42.1181"/>
</g>
<!-- Node27 -->
<g id="node27" class="node"><title>Node27</title>
<polygon fill="white" stroke="#bfbfbf" points="3786.5,-8 3786.5,-31 3964.5,-31 3964.5,-8 3786.5,-8"/>
<text text-anchor="middle" x="3875.5" y="-15.8" font-family="Helvetica,sans-Serif" font-size="14.00">deal.II/dofs/dof_accessor.h</text>
</g>
<!-- Node2&#45;&gt;Node27 -->
<g id="edge26" class="edge"><title>Node2&#45;&gt;Node27</title>
<path fill="none" stroke="midnightblue" d="M3805,-75.4763C3818.14,-65.2242 3838.35,-49.47 3853.76,-37.4501"/>
<polygon fill="midnightblue" stroke="midnightblue" points="3856.02,-40.1245 3861.76,-31.2152 3851.72,-34.6043 3856.02,-40.1245"/>
</g>
<!-- Node28 -->
<g id="node28" class="node"><title>Node28</title>
<polygon fill="white" stroke="#bfbfbf" points="3982,-8 3982,-31 4151,-31 4151,-8 3982,-8"/>
<text text-anchor="middle" x="4066.5" y="-15.8" font-family="Helvetica,sans-Serif" font-size="14.00">deal.II/dofs/dof_handler.h</text>
</g>
<!-- Node2&#45;&gt;Node28 -->
<g id="edge27" class="edge"><title>Node2&#45;&gt;Node28</title>
<path fill="none" stroke="midnightblue" d="M3835.68,-75.4763C3883.65,-64.0511 3960.31,-45.7928 4011.98,-33.4847"/>
<polygon fill="midnightblue" stroke="midnightblue" points="4013.05,-36.828 4021.97,-31.1062 4011.43,-30.0185 4013.05,-36.828"/>
</g>
<!-- Node29 -->
<g id="node29" class="node"><title>Node29</title>
<polygon fill="white" stroke="#bfbfbf" points="4169.5,-8 4169.5,-31 4369.5,-31 4369.5,-8 4169.5,-8"/>
<text text-anchor="middle" x="4269.5" y="-15.8" font-family="Helvetica,sans-Serif" font-size="14.00">deal.II/dofs/dof_renumbering.h</text>
</g>
<!-- Node2&#45;&gt;Node29 -->
<g id="edge28" class="edge"><title>Node2&#45;&gt;Node29</title>
<path fill="none" stroke="midnightblue" d="M3857.6,-78.4171C3931.53,-69.7421 4054.78,-54.6977 4160.5,-39 4173.36,-37.0905 4187.05,-34.8963 4200.22,-32.7018"/>
<polygon fill="midnightblue" stroke="midnightblue" points="4200.89,-36.1382 4210.17,-31.0283 4199.73,-29.2351 4200.89,-36.1382"/>
</g>
<!-- Node30 -->
<g id="node30" class="node"><title>Node30</title>
<polygon fill="white" stroke="#bfbfbf" points="4387.5,-8 4387.5,-31 4539.5,-31 4539.5,-8 4387.5,-8"/>
<text text-anchor="middle" x="4463.5" y="-15.8" font-family="Helvetica,sans-Serif" font-size="14.00">deal.II/dofs/dof_tools.h</text>
</g>
<!-- Node2&#45;&gt;Node30 -->
<g id="edge29" class="edge"><title>Node2&#45;&gt;Node30</title>
<path fill="none" stroke="midnightblue" d="M3857.85,-83.5942C3966.96,-78.9878 4190.9,-66.7969 4378.5,-39 4388.92,-37.4567 4399.96,-35.3819 4410.52,-33.1796"/>
<polygon fill="midnightblue" stroke="midnightblue" points="4411.42,-36.5661 4420.46,-31.0421 4409.95,-29.7225 4411.42,-36.5661"/>
</g>
<!-- Node31 -->
<g id="node31" class="node"><title>Node31</title>
<polygon fill="white" stroke="#bfbfbf" points="4558,-8 4558,-31 4687,-31 4687,-8 4558,-8"/>
<text text-anchor="middle" x="4622.5" y="-15.8" font-family="Helvetica,sans-Serif" font-size="14.00">deal.II/fe/fe_bdm.h</text>
</g>
<!-- Node2&#45;&gt;Node31 -->
<g id="edge30" class="edge"><title>Node2&#45;&gt;Node31</title>
<path fill="none" stroke="midnightblue" d="M3857.75,-85.9454C3989.92,-84.9442 4295.4,-78.1571 4548.5,-39 4557.44,-37.6172 4566.87,-35.6555 4575.91,-33.5222"/>
<polygon fill="midnightblue" stroke="midnightblue" points="4577.01,-36.8544 4585.88,-31.0625 4575.34,-30.0579 4577.01,-36.8544"/>
</g>
<!-- Node32 -->
<g id="node32" class="node"><title>Node32</title>
<polygon fill="white" stroke="#bfbfbf" points="4705,-8 4705,-31 4830,-31 4830,-8 4705,-8"/>
<text text-anchor="middle" x="4767.5" y="-15.8" font-family="Helvetica,sans-Serif" font-size="14.00">deal.II/fe/fe_dgp.h</text>
</g>
<!-- Node2&#45;&gt;Node32 -->
<g id="edge31" class="edge"><title>Node2&#45;&gt;Node32</title>
<path fill="none" stroke="midnightblue" d="M3857.64,-84.3081C4037.82,-79.4209 4534.7,-64.0151 4696.5,-39 4705.1,-37.6711 4714.16,-35.735 4722.82,-33.6101"/>
<polygon fill="midnightblue" stroke="midnightblue" points="4723.95,-36.9339 4732.77,-31.054 4722.21,-30.1544 4723.95,-36.9339"/>
</g>
<!-- Node33 -->
<g id="node33" class="node"><title>Node33</title>
<polygon fill="white" stroke="#bfbfbf" points="4848,-8 4848,-31 4973,-31 4973,-8 4848,-8"/>
<text text-anchor="middle" x="4910.5" y="-15.8" font-family="Helvetica,sans-Serif" font-size="14.00">deal.II/fe/fe_dgq.h</text>
</g>
<!-- Node2&#45;&gt;Node33 -->
<g id="edge32" class="edge"><title>Node2&#45;&gt;Node33</title>
<path fill="none" stroke="midnightblue" d="M3857.52,-84.8531C4056.57,-81.1084 4648.83,-67.7884 4839.5,-39 4848.29,-37.6735 4857.55,-35.6966 4866.39,-33.522"/>
<polygon fill="midnightblue" stroke="midnightblue" points="4867.33,-36.8951 4876.13,-31.007 4865.58,-30.1172 4867.33,-36.8951"/>
</g>
<!-- Node34 -->
<g id="node34" class="node"><title>Node34</title>
<polygon fill="white" stroke="#bfbfbf" points="4991,-8 4991,-31 5140,-31 5140,-8 4991,-8"/>
<text text-anchor="middle" x="5065.5" y="-15.8" font-family="Helvetica,sans-Serif" font-size="14.00">deal.II/fe/fe_nedelec.h</text>
</g>
<!-- Node2&#45;&gt;Node34 -->
<g id="edge33" class="edge"><title>Node2&#45;&gt;Node34</title>
<path fill="none" stroke="midnightblue" d="M3857.52,-84.9588C4074.19,-81.296 4762.29,-67.6493 4982.5,-39 4993.15,-37.6144 5004.45,-35.5222 5015.17,-33.2371"/>
<polygon fill="midnightblue" stroke="midnightblue" points="5016.23,-36.5878 5025.23,-31.0037 5014.71,-29.7541 5016.23,-36.5878"/>
</g>
<!-- Node35 -->
<g id="node35" class="node"><title>Node35</title>
<polygon fill="white" stroke="#bfbfbf" points="5158.5,-0.5 5158.5,-38.5 5286.5,-38.5 5286.5,-0.5 5158.5,-0.5"/>
<text text-anchor="start" x="5166.5" y="-23.3" font-family="Helvetica,sans-Serif" font-size="14.00">deal.II/fe/fe_raviart</text>
<text text-anchor="middle" x="5222.5" y="-8.3" font-family="Helvetica,sans-Serif" font-size="14.00">_thomas.h</text>
</g>
<!-- Node2&#45;&gt;Node35 -->
<g id="edge34" class="edge"><title>Node2&#45;&gt;Node35</title>
<path fill="none" stroke="midnightblue" d="M3857.58,-85.5808C4090.78,-83.8136 4875.39,-75.3523 5147.91,-39.0132"/>
<polygon fill="midnightblue" stroke="midnightblue" points="5148.73,-42.4321 5158.16,-37.5976 5147.78,-35.4979 5148.73,-42.4321"/>
</g>
<!-- Node36 -->
<g id="node36" class="node"><title>Node36</title>
<polygon fill="white" stroke="#bfbfbf" points="5304.5,-8 5304.5,-31 5450.5,-31 5450.5,-8 5304.5,-8"/>
<text text-anchor="middle" x="5377.5" y="-15.8" font-family="Helvetica,sans-Serif" font-size="14.00">deal.II/fe/fe_system.h</text>
</g>
<!-- Node2&#45;&gt;Node36 -->
<g id="edge35" class="edge"><title>Node2&#45;&gt;Node36</title>
<path fill="none" stroke="midnightblue" d="M3857.59,-85.6103C4109.73,-83.8634 5011.25,-75.1706 5295.5,-39 5306.03,-37.6598 5317.2,-35.5873 5327.79,-33.3069"/>
<polygon fill="midnightblue" stroke="midnightblue" points="5328.74,-36.6809 5337.73,-31.074 5327.21,-29.8511 5328.74,-36.6809"/>
</g>
<!-- Node37 -->
<g id="node37" class="node"><title>Node37</title>
<polygon fill="white" stroke="#bfbfbf" points="5469,-8 5469,-31 5602,-31 5602,-8 5469,-8"/>
<text text-anchor="middle" x="5535.5" y="-15.8" font-family="Helvetica,sans-Serif" font-size="14.00">deal.II/grid/cell_id.h</text>
</g>
<!-- Node2&#45;&gt;Node37 -->
<g id="edge36" class="edge"><title>Node2&#45;&gt;Node37</title>
<path fill="none" stroke="midnightblue" d="M3857.8,-85.9946C4127.37,-85.6847 5141.87,-81.6486 5459.5,-39 5469.19,-37.699 5479.44,-35.6667 5489.17,-33.4172"/>
<polygon fill="midnightblue" stroke="midnightblue" points="5490.18,-36.7736 5499.07,-31.016 5488.53,-29.9706 5490.18,-36.7736"/>
</g>
<!-- Node38 -->
<g id="node38" class="node"><title>Node38</title>
<polygon fill="white" stroke="#bfbfbf" points="5620.5,-8 5620.5,-31 5802.5,-31 5802.5,-8 5620.5,-8"/>
<text text-anchor="middle" x="5711.5" y="-15.8" font-family="Helvetica,sans-Serif" font-size="14.00">deal.II/grid/grid_generator.h</text>
</g>
<!-- Node2&#45;&gt;Node38 -->
<g id="edge37" class="edge"><title>Node2&#45;&gt;Node38</title>
<path fill="none" stroke="midnightblue" d="M3857.91,-85.6835C4142.62,-84.1112 5261.38,-75.6766 5611.5,-39 5625,-37.5855 5639.42,-35.3515 5652.98,-32.918"/>
<polygon fill="midnightblue" stroke="midnightblue" points="5653.96,-36.2958 5663.15,-31.0284 5652.68,-29.4135 5653.96,-36.2958"/>
</g>
<!-- Node39 -->
<g id="node39" class="node"><title>Node39</title>
<polygon fill="white" stroke="#bfbfbf" points="5821,-8 5821,-31 5996,-31 5996,-8 5821,-8"/>
<text text-anchor="middle" x="5908.5" y="-15.8" font-family="Helvetica,sans-Serif" font-size="14.00">deal.II/grid/tria_accessor.h</text>
</g>
<!-- Node2&#45;&gt;Node39 -->
<g id="edge38" class="edge"><title>Node2&#45;&gt;Node39</title>
<path fill="none" stroke="midnightblue" d="M3857.69,-85.9306C4160.97,-85.3868 5419.83,-80.6176 5811.5,-39 5824.68,-37.5998 5838.74,-35.3585 5851.95,-32.9118"/>
<polygon fill="midnightblue" stroke="midnightblue" points="5852.7,-36.3323 5861.86,-31.0112 5851.38,-29.4576 5852.7,-36.3323"/>
</g>
<!-- Node40 -->
<g id="node40" class="node"><title>Node40</title>
<polygon fill="white" stroke="#bfbfbf" points="6014,-8 6014,-31 6177,-31 6177,-8 6014,-8"/>
<text text-anchor="middle" x="6095.5" y="-15.8" font-family="Helvetica,sans-Serif" font-size="14.00">deal.II/grid/tria_iterator.h</text>
</g>
<!-- Node2&#45;&gt;Node40 -->
<g id="edge39" class="edge"><title>Node2&#45;&gt;Node40</title>
<path fill="none" stroke="midnightblue" d="M3857.54,-86.2143C4178.05,-87.0076 5573.66,-87.56 6005.5,-39 6017.51,-37.6492 6030.3,-35.477 6042.35,-33.0881"/>
<polygon fill="midnightblue" stroke="midnightblue" points="6043.18,-36.4909 6052.27,-31.0437 6041.77,-29.6351 6043.18,-36.4909"/>
</g>
<!-- Node41 -->
<g id="node41" class="node"><title>Node41</title>
<polygon fill="white" stroke="#bfbfbf" points="6195,-8 6195,-31 6358,-31 6358,-8 6195,-8"/>
<text text-anchor="middle" x="6276.5" y="-15.8" font-family="Helvetica,sans-Serif" font-size="14.00">deal.II/lac/precondition.h</text>
</g>
<!-- Node2&#45;&gt;Node41 -->
<g id="edge40" class="edge"><title>Node2&#45;&gt;Node41</title>
<path fill="none" stroke="midnightblue" d="M3857.61,-85.426C4219.2,-82.1899 5949.81,-65.4228 6186.5,-39 6198.51,-37.6588 6211.3,-35.4906 6223.35,-33.1024"/>
<polygon fill="midnightblue" stroke="midnightblue" points="6224.18,-36.5052 6233.27,-31.0579 6222.77,-29.6494 6224.18,-36.5052"/>
</g>
<!-- Node42 -->
<g id="node42" class="node"><title>Node42</title>
<polygon fill="white" stroke="#bfbfbf" points="6376,-0.5 6376,-38.5 6493,-38.5 6493,-0.5 6376,-0.5"/>
<text text-anchor="start" x="6384" y="-23.3" font-family="Helvetica,sans-Serif" font-size="14.00">deal.II/lac/trilinos</text>
<text text-anchor="middle" x="6434.5" y="-8.3" font-family="Helvetica,sans-Serif" font-size="14.00">_precondition.h</text>
</g>
<!-- Node2&#45;&gt;Node42 -->
<g id="edge41" class="edge"><title>Node2&#45;&gt;Node42</title>
<path fill="none" stroke="midnightblue" d="M3857.63,-85.7859C4230.84,-84.4471 6067.28,-76.0816 6365.51,-38.979"/>
<polygon fill="midnightblue" stroke="midnightblue" points="6366.41,-42.3896 6375.85,-37.5902 6365.47,-35.4518 6366.41,-42.3896"/>
</g>
<!-- Node43 -->
<g id="node43" class="node"><title>Node43</title>
<polygon fill="white" stroke="#bfbfbf" points="6511,-0.5 6511,-38.5 6628,-38.5 6628,-0.5 6511,-0.5"/>
<text text-anchor="start" x="6519" y="-23.3" font-family="Helvetica,sans-Serif" font-size="14.00">deal.II/lac/trilinos</text>
<text text-anchor="middle" x="6569.5" y="-8.3" font-family="Helvetica,sans-Serif" font-size="14.00">_solver.h</text>
</g>
<!-- Node2&#45;&gt;Node43 -->
<g id="edge42" class="edge"><title>Node2&#45;&gt;Node43</title>
<path fill="none" stroke="midnightblue" d="M3857.57,-85.8509C4242.52,-84.8509 6189.31,-77.9568 6500.87,-38.9354"/>
<polygon fill="midnightblue" stroke="midnightblue" points="6501.41,-42.3951 6510.85,-37.5933 6500.47,-35.4576 6501.41,-42.3951"/>
</g>
<!-- Node44 -->
<g id="node44" class="node"><title>Node44</title>
<polygon fill="white" stroke="#bfbfbf" points="6646,-0.5 6646,-38.5 6789,-38.5 6789,-0.5 6646,-0.5"/>
<text text-anchor="start" x="6654" y="-23.3" font-family="Helvetica,sans-Serif" font-size="14.00">deal.II/numerics/data</text>
<text text-anchor="middle" x="6717.5" y="-8.3" font-family="Helvetica,sans-Serif" font-size="14.00">_out.h</text>
</g>
<!-- Node2&#45;&gt;Node44 -->
<g id="edge43" class="edge"><title>Node2&#45;&gt;Node44</title>
<path fill="none" stroke="midnightblue" d="M3857.56,-85.7437C4253.8,-84.0968 6308.95,-73.9744 6635.64,-39.0105"/>
<polygon fill="midnightblue" stroke="midnightblue" points="6636.13,-42.4774 6645.67,-37.8627 6635.34,-35.5228 6636.13,-42.4774"/>
</g>
<!-- Node45 -->
<g id="node45" class="node"><title>Node45</title>
<polygon fill="white" stroke="#bfbfbf" points="6807.5,-0.5 6807.5,-38.5 6961.5,-38.5 6961.5,-0.5 6807.5,-0.5"/>
<text text-anchor="start" x="6815.5" y="-23.3" font-family="Helvetica,sans-Serif" font-size="14.00">deal.II/numerics/matrix</text>
<text text-anchor="middle" x="6884.5" y="-8.3" font-family="Helvetica,sans-Serif" font-size="14.00">_tools.h</text>
</g>
<!-- Node2&#45;&gt;Node45 -->
<g id="edge44" class="edge"><title>Node2&#45;&gt;Node45</title>
<path fill="none" stroke="midnightblue" d="M3857.56,-85.7459C4267.03,-84.0689 6452.09,-73.6017 6797.14,-38.9474"/>
<polygon fill="midnightblue" stroke="midnightblue" points="6797.69,-42.4078 6807.26,-37.8625 6796.95,-35.4476 6797.69,-42.4078"/>
</g>
<!-- Node46 -->
<g id="node46" class="node"><title>Node46</title>
<polygon fill="white" stroke="#bfbfbf" points="6980,-0.5 6980,-38.5 7133,-38.5 7133,-0.5 6980,-0.5"/>
<text text-anchor="start" x="6988" y="-23.3" font-family="Helvetica,sans-Serif" font-size="14.00">deal.II/numerics/vector</text>
<text text-anchor="middle" x="7056.5" y="-8.3" font-family="Helvetica,sans-Serif" font-size="14.00">_tools.h</text>
</g>
<!-- Node2&#45;&gt;Node46 -->
<g id="edge45" class="edge"><title>Node2&#45;&gt;Node46</title>
<path fill="none" stroke="midnightblue" d="M3857.5,-85.8062C4280.58,-84.4615 6605.34,-75.5004 6969.53,-38.8894"/>
<polygon fill="midnightblue" stroke="midnightblue" points="6970.16,-42.3423 6979.73,-37.7982 6969.41,-35.382 6970.16,-42.3423"/>
</g>
<!-- Node47 -->
<g id="node47" class="node"><title>Node47</title>
<polygon fill="white" stroke="#bfbfbf" points="7151,-8 7151,-31 7224,-31 7224,-8 7151,-8"/>
<text text-anchor="middle" x="7187.5" y="-15.8" font-family="Helvetica,sans-Serif" font-size="14.00">algorithm</text>
</g>
<!-- Node2&#45;&gt;Node47 -->
<g id="edge46" class="edge"><title>Node2&#45;&gt;Node47</title>
<path fill="none" stroke="midnightblue" d="M3857.8,-85.775C4314.05,-84.1385 6975.78,-73.1501 7142.5,-39 7147.32,-38.0137 7152.27,-36.52 7157.04,-34.8005"/>
<polygon fill="midnightblue" stroke="midnightblue" points="7158.5,-37.9878 7166.5,-31.0442 7155.92,-31.482 7158.5,-37.9878"/>
</g>
<!-- Node48 -->
<g id="node48" class="node"><title>Node48</title>
<polygon fill="white" stroke="#bfbfbf" points="7242.5,-8 7242.5,-31 7296.5,-31 7296.5,-8 7242.5,-8"/>
<text text-anchor="middle" x="7269.5" y="-15.8" font-family="Helvetica,sans-Serif" font-size="14.00">cmath</text>
</g>
<!-- Node2&#45;&gt;Node48 -->
<g id="edge47" class="edge"><title>Node2&#45;&gt;Node48</title>
<path fill="none" stroke="midnightblue" d="M3857.77,-85.9563C4321.21,-85.5438 7063.65,-81.3167 7233.5,-39 7236.95,-38.1416 7240.43,-36.9012 7243.81,-35.4632"/>
<polygon fill="midnightblue" stroke="midnightblue" points="7245.46,-38.5559 7252.92,-31.0399 7242.4,-32.2588 7245.46,-38.5559"/>
</g>
<!-- Node49 -->
<g id="node49" class="node"><title>Node49</title>
<polygon fill="white" stroke="#bfbfbf" points="7314.5,-8 7314.5,-31 7376.5,-31 7376.5,-8 7314.5,-8"/>
<text text-anchor="middle" x="7345.5" y="-15.8" font-family="Helvetica,sans-Serif" font-size="14.00">fstream</text>
</g>
<!-- Node2&#45;&gt;Node49 -->
<g id="edge48" class="edge"><title>Node2&#45;&gt;Node49</title>
<path fill="none" stroke="midnightblue" d="M3857.63,-85.8998C4326.17,-85.0924 7131.05,-78.6128 7305.5,-39 7309.5,-38.092 7313.58,-36.7533 7317.52,-35.2042"/>
<polygon fill="midnightblue" stroke="midnightblue" points="7319.22,-38.2832 7326.95,-31.045 7316.39,-31.8787 7319.22,-38.2832"/>
</g>
<!-- Node50 -->
<g id="node50" class="node"><title>Node50</title>
<polygon fill="white" stroke="#bfbfbf" points="7395,-8 7395,-31 7464,-31 7464,-8 7395,-8"/>
<text text-anchor="middle" x="7429.5" y="-15.8" font-family="Helvetica,sans-Serif" font-size="14.00">iostream</text>
</g>
<!-- Node2&#45;&gt;Node50 -->
<g id="edge49" class="edge"><title>Node2&#45;&gt;Node50</title>
<path fill="none" stroke="midnightblue" d="M3857.6,-85.8557C4332.11,-84.73 7206.2,-76.3826 7385.5,-39 7390.1,-38.0418 7394.81,-36.6015 7399.37,-34.9396"/>
<polygon fill="midnightblue" stroke="midnightblue" points="7401.03,-38.0428 7408.99,-31.0483 7398.41,-31.5535 7401.03,-38.0428"/>
</g>
</g>
</svg>
