<?xml version="1.0" encoding="UTF-8" standalone="no"?>
<!DOCTYPE svg PUBLIC "-//W3C//DTD SVG 1.1//EN"
 "http://www.w3.org/Graphics/SVG/1.1/DTD/svg11.dtd">
<!-- Generated by graphviz version 2.38.0 (20140413.2041)
 -->
<!-- Title: /home/travis/build/konsim83/MPI&#45;MSFEC/source/RT_DQ/rt_dq_global.cc Pages: 1 -->
<svg width="7305pt" height="197pt"
 viewBox="0.00 0.00 7305.00 197.00" xmlns="http://www.w3.org/2000/svg" xmlns:xlink="http://www.w3.org/1999/xlink">
<g id="graph0" class="graph" transform="scale(1 1) rotate(0) translate(4 193)">
<title>/home/travis/build/konsim83/MPI&#45;MSFEC/source/RT_DQ/rt_dq_global.cc</title>
<polygon fill="white" stroke="none" points="-4,4 -4,-193 7301,-193 7301,4 -4,4"/>
<!-- Node1 -->
<g id="node1" class="node"><title>Node1</title>
<polygon fill="#bfbfbf" stroke="black" points="3769.5,-135.5 3769.5,-188.5 3975.5,-188.5 3975.5,-135.5 3769.5,-135.5"/>
<text text-anchor="start" x="3777.5" y="-173.3" font-family="Helvetica,sans-Serif" font-size="14.00">/home/travis/build</text>
<text text-anchor="start" x="3777.5" y="-158.3" font-family="Helvetica,sans-Serif" font-size="14.00">/konsim83/MPI&#45;MSFEC</text>
<text text-anchor="middle" x="3872.5" y="-143.3" font-family="Helvetica,sans-Serif" font-size="14.00">/source/RT_DQ/rt_dq_global.cc</text>
</g>
<!-- Node2 -->
<g id="node2" class="node"><title>Node2</title>
<g id="a_node2"><a xlink:href="rt__dq__global_8h.html" target="_top" xlink:title="RT_DQ/rt_dq_global.h">
<polygon fill="white" stroke="red" points="3796.5,-75.5 3796.5,-98.5 3948.5,-98.5 3948.5,-75.5 3796.5,-75.5"/>
<text text-anchor="middle" x="3872.5" y="-83.3" font-family="Helvetica,sans-Serif" font-size="14.00">RT_DQ/rt_dq_global.h</text>
</a>
</g>
</g>
<!-- Node1&#45;&gt;Node2 -->
<g id="edge1" class="edge"><title>Node1&#45;&gt;Node2</title>
<path fill="none" stroke="midnightblue" d="M3872.5,-135.468C3872.5,-126.762 3872.5,-117.138 3872.5,-108.844"/>
<polygon fill="midnightblue" stroke="midnightblue" points="3876,-108.571 3872.5,-98.5709 3869,-108.571 3876,-108.571"/>
</g>
<!-- Node3 -->
<g id="node3" class="node"><title>Node3</title>
<polygon fill="white" stroke="#bfbfbf" points="0,-0.5 0,-38.5 155,-38.5 155,-0.5 0,-0.5"/>
<text text-anchor="start" x="8" y="-23.3" font-family="Helvetica,sans-Serif" font-size="14.00">deal.II/base/conditional</text>
<text text-anchor="middle" x="77.5" y="-8.3" font-family="Helvetica,sans-Serif" font-size="14.00">_ostream.h</text>
</g>
<!-- Node2&#45;&gt;Node3 -->
<g id="edge2" class="edge"><title>Node2&#45;&gt;Node3</title>
<path fill="none" stroke="midnightblue" d="M3796.29,-85.9471C3304.11,-85.4853 581.783,-81.0807 165.175,-39.0043"/>
<polygon fill="midnightblue" stroke="midnightblue" points="165.516,-35.5209 155.201,-37.9398 164.773,-42.4814 165.516,-35.5209"/>
</g>
<!-- Node4 -->
<g id="node4" class="node"><title>Node4</title>
<polygon fill="white" stroke="#bfbfbf" points="173,-8 173,-31 322,-31 322,-8 173,-8"/>
<text text-anchor="middle" x="247.5" y="-15.8" font-family="Helvetica,sans-Serif" font-size="14.00">deal.II/base/function.h</text>
</g>
<!-- Node2&#45;&gt;Node4 -->
<g id="edge3" class="edge"><title>Node2&#45;&gt;Node4</title>
<path fill="none" stroke="midnightblue" d="M3796.27,-85.9199C3313.17,-85.2886 686.211,-79.9815 331.5,-39 320.37,-37.7141 308.548,-35.5927 297.396,-33.2362"/>
<polygon fill="midnightblue" stroke="midnightblue" points="297.902,-29.7635 287.382,-31.023 296.391,-36.5986 297.902,-29.7635"/>
</g>
<!-- Node5 -->
<g id="node5" class="node"><title>Node5</title>
<polygon fill="white" stroke="#bfbfbf" points="340.5,-0.5 340.5,-38.5 462.5,-38.5 462.5,-0.5 340.5,-0.5"/>
<text text-anchor="start" x="348.5" y="-23.3" font-family="Helvetica,sans-Serif" font-size="14.00">deal.II/base/index</text>
<text text-anchor="middle" x="401.5" y="-8.3" font-family="Helvetica,sans-Serif" font-size="14.00">_set.h</text>
</g>
<!-- Node2&#45;&gt;Node5 -->
<g id="edge4" class="edge"><title>Node2&#45;&gt;Node5</title>
<path fill="none" stroke="midnightblue" d="M3796.24,-86.0641C3328.52,-86.3099 855.8,-85.4474 472.739,-38.8887"/>
<polygon fill="midnightblue" stroke="midnightblue" points="473.154,-35.4132 462.788,-37.604 472.258,-42.3556 473.154,-35.4132"/>
</g>
<!-- Node6 -->
<g id="node6" class="node"><title>Node6</title>
<polygon fill="white" stroke="#bfbfbf" points="481,-8 481,-31 642,-31 642,-8 481,-8"/>
<text text-anchor="middle" x="561.5" y="-15.8" font-family="Helvetica,sans-Serif" font-size="14.00">deal.II/base/logstream.h</text>
</g>
<!-- Node2&#45;&gt;Node6 -->
<g id="edge5" class="edge"><title>Node2&#45;&gt;Node6</title>
<path fill="none" stroke="midnightblue" d="M3796.27,-85.7476C3339.38,-84.1204 972.742,-74.0446 651.5,-39 639.359,-37.6755 626.43,-35.4886 614.271,-33.0735"/>
<polygon fill="midnightblue" stroke="midnightblue" points="614.773,-29.6034 604.272,-31.0051 613.355,-36.4583 614.773,-29.6034"/>
</g>
<!-- Node7 -->
<g id="node7" class="node"><title>Node7</title>
<polygon fill="white" stroke="#bfbfbf" points="660.5,-8 660.5,-31 784.5,-31 784.5,-8 660.5,-8"/>
<text text-anchor="middle" x="722.5" y="-15.8" font-family="Helvetica,sans-Serif" font-size="14.00">deal.II/base/mpi.h</text>
</g>
<!-- Node2&#45;&gt;Node7 -->
<g id="edge6" class="edge"><title>Node2&#45;&gt;Node7</title>
<path fill="none" stroke="midnightblue" d="M3796.38,-85.9293C3351.69,-85.3708 1098.85,-80.4987 793.5,-39 784.513,-37.7786 775.032,-35.8054 766.028,-33.5932"/>
<polygon fill="midnightblue" stroke="midnightblue" points="766.675,-30.1452 756.117,-31.0213 764.917,-36.9208 766.675,-30.1452"/>
</g>
<!-- Node8 -->
<g id="node8" class="node"><title>Node8</title>
<polygon fill="white" stroke="#bfbfbf" points="802.5,-0.5 802.5,-38.5 954.5,-38.5 954.5,-0.5 802.5,-0.5"/>
<text text-anchor="start" x="810.5" y="-23.3" font-family="Helvetica,sans-Serif" font-size="14.00">deal.II/base/parameter</text>
<text text-anchor="middle" x="878.5" y="-8.3" font-family="Helvetica,sans-Serif" font-size="14.00">_handler.h</text>
</g>
<!-- Node2&#45;&gt;Node8 -->
<g id="edge7" class="edge"><title>Node2&#45;&gt;Node8</title>
<path fill="none" stroke="midnightblue" d="M3796.46,-85.6726C3371.38,-83.7235 1297.02,-72.6079 965.03,-38.9651"/>
<polygon fill="midnightblue" stroke="midnightblue" points="965.155,-35.4582 954.836,-37.8611 964.401,-42.4175 965.155,-35.4582"/>
</g>
<!-- Node9 -->
<g id="node9" class="node"><title>Node9</title>
<polygon fill="white" stroke="#bfbfbf" points="973,-8 973,-31 1116,-31 1116,-8 973,-8"/>
<text text-anchor="middle" x="1044.5" y="-15.8" font-family="Helvetica,sans-Serif" font-size="14.00">deal.II/base/utilities.h</text>
</g>
<!-- Node2&#45;&gt;Node9 -->
<g id="edge8" class="edge"><title>Node2&#45;&gt;Node9</title>
<path fill="none" stroke="midnightblue" d="M3796.29,-85.6528C3380.6,-83.6314 1395.63,-72.2925 1124.5,-39 1114.1,-37.7229 1103.08,-35.6539 1092.64,-33.3531"/>
<polygon fill="midnightblue" stroke="midnightblue" points="1093.4,-29.9344 1082.86,-31.0944 1091.82,-36.7549 1093.4,-29.9344"/>
</g>
<!-- Node10 -->
<g id="node10" class="node"><title>Node10</title>
<polygon fill="white" stroke="#bfbfbf" points="1134,-0.5 1134,-38.5 1245,-38.5 1245,-0.5 1134,-0.5"/>
<text text-anchor="start" x="1142" y="-23.3" font-family="Helvetica,sans-Serif" font-size="14.00">deal.II/lac/affine</text>
<text text-anchor="middle" x="1189.5" y="-8.3" font-family="Helvetica,sans-Serif" font-size="14.00">_constraints.h</text>
</g>
<!-- Node2&#45;&gt;Node10 -->
<g id="edge9" class="edge"><title>Node2&#45;&gt;Node10</title>
<path fill="none" stroke="midnightblue" d="M3796.23,-85.8278C3396.88,-84.7679 1554.07,-77.8688 1255.13,-38.9219"/>
<polygon fill="midnightblue" stroke="midnightblue" points="1255.54,-35.4454 1245.16,-37.5229 1254.57,-42.3776 1255.54,-35.4454"/>
</g>
<!-- Node11 -->
<g id="node11" class="node"><title>Node11</title>
<polygon fill="white" stroke="#bfbfbf" points="1262.5,-0.5 1262.5,-38.5 1420.5,-38.5 1420.5,-0.5 1262.5,-0.5"/>
<text text-anchor="start" x="1270.5" y="-23.3" font-family="Helvetica,sans-Serif" font-size="14.00">deal.II/lac/block_sparse</text>
<text text-anchor="middle" x="1341.5" y="-8.3" font-family="Helvetica,sans-Serif" font-size="14.00">_matrix.h</text>
</g>
<!-- Node2&#45;&gt;Node11 -->
<g id="edge10" class="edge"><title>Node2&#45;&gt;Node11</title>
<path fill="none" stroke="midnightblue" d="M3796.36,-85.3877C3414.25,-82.2018 1713,-66.6388 1430.72,-38.9229"/>
<polygon fill="midnightblue" stroke="midnightblue" points="1430.85,-35.4176 1420.54,-37.8477 1430.12,-42.3788 1430.85,-35.4176"/>
</g>
<!-- Node12 -->
<g id="node12" class="node"><title>Node12</title>
<polygon fill="white" stroke="#bfbfbf" points="1439,-8 1439,-31 1604,-31 1604,-8 1439,-8"/>
<text text-anchor="middle" x="1521.5" y="-15.8" font-family="Helvetica,sans-Serif" font-size="14.00">deal.II/lac/block_vector.h</text>
</g>
<!-- Node2&#45;&gt;Node12 -->
<g id="edge11" class="edge"><title>Node2&#45;&gt;Node12</title>
<path fill="none" stroke="midnightblue" d="M3796.44,-86.2547C3453.59,-87.121 2049.59,-87.5754 1612.5,-39 1600.36,-37.6506 1587.43,-35.4789 1575.25,-33.0901"/>
<polygon fill="midnightblue" stroke="midnightblue" points="1575.72,-29.6143 1565.22,-31.0457 1574.32,-36.4732 1575.72,-29.6143"/>
</g>
<!-- Node13 -->
<g id="node13" class="node"><title>Node13</title>
<polygon fill="white" stroke="#bfbfbf" points="1622,-0.5 1622,-38.5 1753,-38.5 1753,-0.5 1622,-0.5"/>
<text text-anchor="start" x="1630" y="-23.3" font-family="Helvetica,sans-Serif" font-size="14.00">deal.II/lac/dynamic</text>
<text text-anchor="middle" x="1687.5" y="-8.3" font-family="Helvetica,sans-Serif" font-size="14.00">_sparsity_pattern.h</text>
</g>
<!-- Node2&#45;&gt;Node13 -->
<g id="edge12" class="edge"><title>Node2&#45;&gt;Node13</title>
<path fill="none" stroke="midnightblue" d="M3796.46,-85.296C3447.91,-81.9376 2009.87,-66.6044 1763.39,-38.817"/>
<polygon fill="midnightblue" stroke="midnightblue" points="1763.54,-35.3101 1753.19,-37.5695 1762.69,-42.2583 1763.54,-35.3101"/>
</g>
<!-- Node14 -->
<g id="node14" class="node"><title>Node14</title>
<polygon fill="white" stroke="#bfbfbf" points="1771.5,-8 1771.5,-31 1923.5,-31 1923.5,-8 1771.5,-8"/>
<text text-anchor="middle" x="1847.5" y="-15.8" font-family="Helvetica,sans-Serif" font-size="14.00">deal.II/lac/full_matrix.h</text>
</g>
<!-- Node2&#45;&gt;Node14 -->
<g id="edge13" class="edge"><title>Node2&#45;&gt;Node14</title>
<path fill="none" stroke="midnightblue" d="M3796.48,-86.0881C3484.7,-86.1513 2302.97,-83.3944 1932.5,-39 1921.36,-37.6655 1909.54,-35.5484 1898.35,-33.215"/>
<polygon fill="midnightblue" stroke="midnightblue" points="1898.82,-29.7347 1888.3,-31.0275 1897.33,-36.5745 1898.82,-29.7347"/>
</g>
<!-- Node15 -->
<g id="node15" class="node"><title>Node15</title>
<polygon fill="white" stroke="#bfbfbf" points="1941.5,-0.5 1941.5,-38.5 2063.5,-38.5 2063.5,-0.5 1941.5,-0.5"/>
<text text-anchor="start" x="1949.5" y="-23.3" font-family="Helvetica,sans-Serif" font-size="14.00">deal.II/lac/generic</text>
<text text-anchor="middle" x="2002.5" y="-8.3" font-family="Helvetica,sans-Serif" font-size="14.00">_linear_algebra.h</text>
</g>
<!-- Node2&#45;&gt;Node15 -->
<g id="edge14" class="edge"><title>Node2&#45;&gt;Node15</title>
<path fill="none" stroke="midnightblue" d="M3796.43,-86.3633C3501.58,-87.4107 2433.17,-87.7685 2073.7,-38.9449"/>
<polygon fill="midnightblue" stroke="midnightblue" points="2074.18,-35.4777 2063.79,-37.5603 2073.21,-42.4104 2074.18,-35.4777"/>
</g>
<!-- Node16 -->
<g id="node16" class="node"><title>Node16</title>
<polygon fill="white" stroke="#bfbfbf" points="2082,-8 2082,-31 2285,-31 2285,-8 2082,-8"/>
<text text-anchor="middle" x="2183.5" y="-15.8" font-family="Helvetica,sans-Serif" font-size="14.00">deal.II/lac/petsc_precondition.h</text>
</g>
<!-- Node2&#45;&gt;Node16 -->
<g id="edge15" class="edge"><title>Node2&#45;&gt;Node16</title>
<path fill="none" stroke="midnightblue" d="M3796.24,-85.1146C3522.56,-81.7206 2590.31,-68.2381 2293.5,-39 2278.47,-37.5192 2262.38,-35.2234 2247.28,-32.7466"/>
<polygon fill="midnightblue" stroke="midnightblue" points="2247.46,-29.2262 2237.01,-31.0107 2246.29,-36.1283 2247.46,-29.2262"/>
</g>
<!-- Node17 -->
<g id="node17" class="node"><title>Node17</title>
<polygon fill="white" stroke="#bfbfbf" points="2303,-8 2303,-31 2468,-31 2468,-8 2303,-8"/>
<text text-anchor="middle" x="2385.5" y="-15.8" font-family="Helvetica,sans-Serif" font-size="14.00">deal.II/lac/petsc_solver.h</text>
</g>
<!-- Node2&#45;&gt;Node17 -->
<g id="edge16" class="edge"><title>Node2&#45;&gt;Node17</title>
<path fill="none" stroke="midnightblue" d="M3796.47,-85.1133C3544.08,-81.9073 2735.4,-69.459 2476.5,-39 2464.49,-37.5872 2451.71,-35.4144 2439.64,-33.0481"/>
<polygon fill="midnightblue" stroke="midnightblue" points="2440.19,-29.5894 2429.69,-31.0273 2438.8,-36.4492 2440.19,-29.5894"/>
</g>
<!-- Node18 -->
<g id="node18" class="node"><title>Node18</title>
<polygon fill="white" stroke="#bfbfbf" points="2486,-8 2486,-31 2633,-31 2633,-8 2486,-8"/>
<text text-anchor="middle" x="2559.5" y="-15.8" font-family="Helvetica,sans-Serif" font-size="14.00">deal.II/lac/solver_cg.h</text>
</g>
<!-- Node2&#45;&gt;Node18 -->
<g id="edge17" class="edge"><title>Node2&#45;&gt;Node18</title>
<path fill="none" stroke="midnightblue" d="M3796.3,-84.8959C3564.07,-81.2452 2867.28,-68.101 2642.5,-39 2631.85,-37.621 2620.55,-35.5317 2609.83,-33.2473"/>
<polygon fill="midnightblue" stroke="midnightblue" points="2610.29,-29.7643 2599.77,-31.014 2608.77,-36.598 2610.29,-29.7643"/>
</g>
<!-- Node19 -->
<g id="node19" class="node"><title>Node19</title>
<polygon fill="white" stroke="#bfbfbf" points="2651.5,-0.5 2651.5,-38.5 2765.5,-38.5 2765.5,-0.5 2651.5,-0.5"/>
<text text-anchor="start" x="2659.5" y="-23.3" font-family="Helvetica,sans-Serif" font-size="14.00">deal.II/lac/solver</text>
<text text-anchor="middle" x="2708.5" y="-8.3" font-family="Helvetica,sans-Serif" font-size="14.00">_gmres.h</text>
</g>
<!-- Node2&#45;&gt;Node19 -->
<g id="edge18" class="edge"><title>Node2&#45;&gt;Node19</title>
<path fill="none" stroke="midnightblue" d="M3796.13,-85.019C3584.18,-81.9383 2990.69,-70.791 2775.52,-38.8961"/>
<polygon fill="midnightblue" stroke="midnightblue" points="2775.97,-35.4256 2765.56,-37.3615 2774.91,-42.3439 2775.97,-35.4256"/>
</g>
<!-- Node20 -->
<g id="node20" class="node"><title>Node20</title>
<polygon fill="white" stroke="#bfbfbf" points="2783.5,-0.5 2783.5,-38.5 2897.5,-38.5 2897.5,-0.5 2783.5,-0.5"/>
<text text-anchor="start" x="2791.5" y="-23.3" font-family="Helvetica,sans-Serif" font-size="14.00">deal.II/lac/solver</text>
<text text-anchor="middle" x="2840.5" y="-8.3" font-family="Helvetica,sans-Serif" font-size="14.00">_minres.h</text>
</g>
<!-- Node2&#45;&gt;Node20 -->
<g id="edge19" class="edge"><title>Node2&#45;&gt;Node20</title>
<path fill="none" stroke="midnightblue" d="M3796.24,-84.5011C3602.88,-80.3528 3096.07,-67.2189 2907.64,-38.9181"/>
<polygon fill="midnightblue" stroke="midnightblue" points="2907.98,-35.43 2897.56,-37.3406 2906.9,-42.3457 2907.98,-35.43"/>
</g>
<!-- Node21 -->
<g id="node21" class="node"><title>Node21</title>
<polygon fill="white" stroke="#bfbfbf" points="2915.5,-8 2915.5,-31 3041.5,-31 3041.5,-8 2915.5,-8"/>
<text text-anchor="middle" x="2978.5" y="-15.8" font-family="Helvetica,sans-Serif" font-size="14.00">deal.II/lac/vector.h</text>
</g>
<!-- Node2&#45;&gt;Node21 -->
<g id="edge20" class="edge"><title>Node2&#45;&gt;Node21</title>
<path fill="none" stroke="midnightblue" d="M3796.33,-86.5656C3650.6,-86.5629 3322.57,-81.3193 3050.5,-39 3041.7,-37.6308 3032.41,-35.6551 3023.53,-33.4994"/>
<polygon fill="midnightblue" stroke="midnightblue" points="3024.29,-30.0811 3013.74,-31.0119 3022.57,-36.8657 3024.29,-30.0811"/>
</g>
<!-- Node22 -->
<g id="node22" class="node"><title>Node22</title>
<polygon fill="white" stroke="#bfbfbf" points="3060,-0.5 3060,-38.5 3185,-38.5 3185,-0.5 3060,-0.5"/>
<text text-anchor="start" x="3068" y="-23.3" font-family="Helvetica,sans-Serif" font-size="14.00">deal.II/lac/sparsity</text>
<text text-anchor="middle" x="3122.5" y="-8.3" font-family="Helvetica,sans-Serif" font-size="14.00">_tools.h</text>
</g>
<!-- Node2&#45;&gt;Node22 -->
<g id="edge21" class="edge"><title>Node2&#45;&gt;Node22</title>
<path fill="none" stroke="midnightblue" d="M3796.49,-85.2349C3672.39,-82.9958 3418.58,-74.2789 3195.13,-38.9189"/>
<polygon fill="midnightblue" stroke="midnightblue" points="3195.61,-35.4517 3185.19,-37.3241 3194.51,-42.3634 3195.61,-35.4517"/>
</g>
<!-- Node23 -->
<g id="node23" class="node"><title>Node23</title>
<polygon fill="white" stroke="#bfbfbf" points="3203.5,-8 3203.5,-31 3335.5,-31 3335.5,-8 3203.5,-8"/>
<text text-anchor="middle" x="3269.5" y="-15.8" font-family="Helvetica,sans-Serif" font-size="14.00">deal.II/base/timer.h</text>
</g>
<!-- Node2&#45;&gt;Node23 -->
<g id="edge22" class="edge"><title>Node2&#45;&gt;Node23</title>
<path fill="none" stroke="midnightblue" d="M3796.41,-82.8863C3693.38,-77.8387 3504.04,-65.6158 3344.5,-39 3335.66,-37.5248 3326.32,-35.5587 3317.35,-33.4586"/>
<polygon fill="midnightblue" stroke="midnightblue" points="3317.96,-30.0064 3307.42,-31.0497 3316.31,-36.809 3317.96,-30.0064"/>
</g>
<!-- Node24 -->
<g id="node24" class="node"><title>Node24</title>
<polygon fill="white" stroke="#bfbfbf" points="3354,-0.5 3354,-38.5 3473,-38.5 3473,-0.5 3354,-0.5"/>
<text text-anchor="start" x="3362" y="-23.3" font-family="Helvetica,sans-Serif" font-size="14.00">deal.II/distributed</text>
<text text-anchor="middle" x="3413.5" y="-8.3" font-family="Helvetica,sans-Serif" font-size="14.00">/tria.h</text>
</g>
<!-- Node2&#45;&gt;Node24 -->
<g id="edge23" class="edge"><title>Node2&#45;&gt;Node24</title>
<path fill="none" stroke="midnightblue" d="M3796.14,-80.0278C3719.39,-73.2929 3597.61,-60.6148 3483.2,-38.9822"/>
<polygon fill="midnightblue" stroke="midnightblue" points="3483.7,-35.5138 3473.22,-37.0678 3482.38,-42.3885 3483.7,-35.5138"/>
</g>
<!-- Node25 -->
<g id="node25" class="node"><title>Node25</title>
<polygon fill="white" stroke="#bfbfbf" points="3491.5,-8 3491.5,-31 3669.5,-31 3669.5,-8 3491.5,-8"/>
<text text-anchor="middle" x="3580.5" y="-15.8" font-family="Helvetica,sans-Serif" font-size="14.00">deal.II/dofs/dof_accessor.h</text>
</g>
<!-- Node2&#45;&gt;Node25 -->
<g id="edge24" class="edge"><title>Node2&#45;&gt;Node25</title>
<path fill="none" stroke="midnightblue" d="M3825.59,-75.4763C3774.44,-64.0035 3692.58,-45.6405 3637.7,-33.3311"/>
<polygon fill="midnightblue" stroke="midnightblue" points="3638.31,-29.8799 3627.78,-31.1062 3636.77,-36.7102 3638.31,-29.8799"/>
</g>
<!-- Node26 -->
<g id="node26" class="node"><title>Node26</title>
<polygon fill="white" stroke="#bfbfbf" points="3687,-8 3687,-31 3856,-31 3856,-8 3687,-8"/>
<text text-anchor="middle" x="3771.5" y="-15.8" font-family="Helvetica,sans-Serif" font-size="14.00">deal.II/dofs/dof_handler.h</text>
</g>
<!-- Node2&#45;&gt;Node26 -->
<g id="edge25" class="edge"><title>Node2&#45;&gt;Node26</title>
<path fill="none" stroke="midnightblue" d="M3856.27,-75.4763C3840.17,-65.0343 3815.27,-48.8846 3796.61,-36.7862"/>
<polygon fill="midnightblue" stroke="midnightblue" points="3798.32,-33.7198 3788.02,-31.2152 3794.51,-39.5929 3798.32,-33.7198"/>
</g>
<!-- Node27 -->
<g id="node27" class="node"><title>Node27</title>
<polygon fill="white" stroke="#bfbfbf" points="3874.5,-8 3874.5,-31 4074.5,-31 4074.5,-8 3874.5,-8"/>
<text text-anchor="middle" x="3974.5" y="-15.8" font-family="Helvetica,sans-Serif" font-size="14.00">deal.II/dofs/dof_renumbering.h</text>
</g>
<!-- Node2&#45;&gt;Node27 -->
<g id="edge26" class="edge"><title>Node2&#45;&gt;Node27</title>
<path fill="none" stroke="midnightblue" d="M3888.89,-75.4763C3905.22,-64.9868 3930.53,-48.7376 3949.39,-36.6215"/>
<polygon fill="midnightblue" stroke="midnightblue" points="3951.29,-39.5637 3957.81,-31.2152 3947.51,-33.6736 3951.29,-39.5637"/>
</g>
<!-- Node28 -->
<g id="node28" class="node"><title>Node28</title>
<polygon fill="white" stroke="#bfbfbf" points="4092.5,-8 4092.5,-31 4244.5,-31 4244.5,-8 4092.5,-8"/>
<text text-anchor="middle" x="4168.5" y="-15.8" font-family="Helvetica,sans-Serif" font-size="14.00">deal.II/dofs/dof_tools.h</text>
</g>
<!-- Node2&#45;&gt;Node28 -->
<g id="edge27" class="edge"><title>Node2&#45;&gt;Node28</title>
<path fill="none" stroke="midnightblue" d="M3920.06,-75.4763C3971.9,-64.0035 4054.89,-45.6405 4110.51,-33.3311"/>
<polygon fill="midnightblue" stroke="midnightblue" points="4111.56,-36.6842 4120.57,-31.1062 4110.05,-29.8495 4111.56,-36.6842"/>
</g>
<!-- Node29 -->
<g id="node29" class="node"><title>Node29</title>
<polygon fill="white" stroke="#bfbfbf" points="4263,-8 4263,-31 4392,-31 4392,-8 4263,-8"/>
<text text-anchor="middle" x="4327.5" y="-15.8" font-family="Helvetica,sans-Serif" font-size="14.00">deal.II/fe/fe_bdm.h</text>
</g>
<!-- Node2&#45;&gt;Node29 -->
<g id="edge28" class="edge"><title>Node2&#45;&gt;Node29</title>
<path fill="none" stroke="midnightblue" d="M3948.82,-79.3536C4026.04,-71.9811 4148.66,-58.4956 4253.5,-39 4261.83,-37.4513 4270.62,-35.5214 4279.11,-33.4976"/>
<polygon fill="midnightblue" stroke="midnightblue" points="4280.03,-36.8767 4288.91,-31.0958 4278.36,-30.078 4280.03,-36.8767"/>
</g>
<!-- Node30 -->
<g id="node30" class="node"><title>Node30</title>
<polygon fill="white" stroke="#bfbfbf" points="4410,-8 4410,-31 4535,-31 4535,-8 4410,-8"/>
<text text-anchor="middle" x="4472.5" y="-15.8" font-family="Helvetica,sans-Serif" font-size="14.00">deal.II/fe/fe_dgp.h</text>
</g>
<!-- Node2&#45;&gt;Node30 -->
<g id="edge29" class="edge"><title>Node2&#45;&gt;Node30</title>
<path fill="none" stroke="midnightblue" d="M3948.79,-83.2046C4052.07,-78.5155 4241.84,-66.6954 4401.5,-39 4409.71,-37.5761 4418.36,-35.6721 4426.69,-33.6264"/>
<polygon fill="midnightblue" stroke="midnightblue" points="4427.81,-36.951 4436.63,-31.0835 4426.08,-30.169 4427.81,-36.951"/>
</g>
<!-- Node31 -->
<g id="node31" class="node"><title>Node31</title>
<polygon fill="white" stroke="#bfbfbf" points="4553,-8 4553,-31 4678,-31 4678,-8 4553,-8"/>
<text text-anchor="middle" x="4615.5" y="-15.8" font-family="Helvetica,sans-Serif" font-size="14.00">deal.II/fe/fe_dgq.h</text>
</g>
<!-- Node2&#45;&gt;Node31 -->
<g id="edge30" class="edge"><title>Node2&#45;&gt;Node31</title>
<path fill="none" stroke="midnightblue" d="M3948.61,-85.2487C4073.74,-82.9931 4330.41,-74.069 4544.5,-39 4552.99,-37.6088 4561.95,-35.6634 4570.53,-33.5532"/>
<polygon fill="midnightblue" stroke="midnightblue" points="4571.57,-36.9004 4580.38,-31.0236 4569.83,-30.1203 4571.57,-36.9004"/>
</g>
<!-- Node32 -->
<g id="node32" class="node"><title>Node32</title>
<polygon fill="white" stroke="#bfbfbf" points="4696,-8 4696,-31 4845,-31 4845,-8 4696,-8"/>
<text text-anchor="middle" x="4770.5" y="-15.8" font-family="Helvetica,sans-Serif" font-size="14.00">deal.II/fe/fe_nedelec.h</text>
</g>
<!-- Node2&#45;&gt;Node32 -->
<g id="edge31" class="edge"><title>Node2&#45;&gt;Node32</title>
<path fill="none" stroke="midnightblue" d="M3948.74,-85.7038C4093.46,-84.2354 4417.64,-76.605 4687.5,-39 4697.92,-37.5486 4708.96,-35.4725 4719.48,-33.2317"/>
<polygon fill="midnightblue" stroke="midnightblue" points="4720.36,-36.6227 4729.37,-31.0479 4718.85,-29.7874 4720.36,-36.6227"/>
</g>
<!-- Node33 -->
<g id="node33" class="node"><title>Node33</title>
<polygon fill="white" stroke="#bfbfbf" points="4863.5,-0.5 4863.5,-38.5 4991.5,-38.5 4991.5,-0.5 4863.5,-0.5"/>
<text text-anchor="start" x="4871.5" y="-23.3" font-family="Helvetica,sans-Serif" font-size="14.00">deal.II/fe/fe_raviart</text>
<text text-anchor="middle" x="4927.5" y="-8.3" font-family="Helvetica,sans-Serif" font-size="14.00">_thomas.h</text>
</g>
<!-- Node2&#45;&gt;Node33 -->
<g id="edge32" class="edge"><title>Node2&#45;&gt;Node33</title>
<path fill="none" stroke="midnightblue" d="M3948.53,-84.3314C4144,-79.7318 4661.47,-65.5163 4853.18,-38.9863"/>
<polygon fill="midnightblue" stroke="midnightblue" points="4853.76,-42.4397 4863.16,-37.5504 4852.76,-35.5112 4853.76,-42.4397"/>
</g>
<!-- Node34 -->
<g id="node34" class="node"><title>Node34</title>
<polygon fill="white" stroke="#bfbfbf" points="5009.5,-8 5009.5,-31 5155.5,-31 5155.5,-8 5009.5,-8"/>
<text text-anchor="middle" x="5082.5" y="-15.8" font-family="Helvetica,sans-Serif" font-size="14.00">deal.II/fe/fe_system.h</text>
</g>
<!-- Node2&#45;&gt;Node34 -->
<g id="edge33" class="edge"><title>Node2&#45;&gt;Node34</title>
<path fill="none" stroke="midnightblue" d="M3948.52,-84.6196C4167.39,-80.3614 4796.36,-66.0561 5000.5,-39 5010.92,-37.6196 5021.96,-35.5525 5032.45,-33.2941"/>
<polygon fill="midnightblue" stroke="midnightblue" points="5033.31,-36.6882 5042.3,-31.0865 5031.78,-29.8575 5033.31,-36.6882"/>
</g>
<!-- Node35 -->
<g id="node35" class="node"><title>Node35</title>
<polygon fill="white" stroke="#bfbfbf" points="5174,-8 5174,-31 5307,-31 5307,-8 5174,-8"/>
<text text-anchor="middle" x="5240.5" y="-15.8" font-family="Helvetica,sans-Serif" font-size="14.00">deal.II/grid/cell_id.h</text>
</g>
<!-- Node2&#45;&gt;Node35 -->
<g id="edge34" class="edge"><title>Node2&#45;&gt;Node35</title>
<path fill="none" stroke="midnightblue" d="M3948.72,-85.2514C4188.8,-82.5747 4927.44,-71.8199 5164.5,-39 5174.08,-37.6731 5184.22,-35.6518 5193.86,-33.4254"/>
<polygon fill="midnightblue" stroke="midnightblue" points="5194.78,-36.8032 5203.68,-31.0514 5193.14,-29.9991 5194.78,-36.8032"/>
</g>
<!-- Node36 -->
<g id="node36" class="node"><title>Node36</title>
<polygon fill="white" stroke="#bfbfbf" points="5325.5,-8 5325.5,-31 5507.5,-31 5507.5,-8 5325.5,-8"/>
<text text-anchor="middle" x="5416.5" y="-15.8" font-family="Helvetica,sans-Serif" font-size="14.00">deal.II/grid/grid_generator.h</text>
</g>
<!-- Node2&#45;&gt;Node36 -->
<g id="edge35" class="edge"><title>Node2&#45;&gt;Node36</title>
<path fill="none" stroke="midnightblue" d="M3948.86,-85.0314C4207.26,-81.5158 5047.64,-68.0775 5316.5,-39 5329.93,-37.5477 5344.26,-35.3113 5357.76,-32.8892"/>
<polygon fill="midnightblue" stroke="midnightblue" points="5358.69,-36.2755 5367.89,-31.0107 5357.42,-29.3928 5358.69,-36.2755"/>
</g>
<!-- Node37 -->
<g id="node37" class="node"><title>Node37</title>
<polygon fill="white" stroke="#bfbfbf" points="5526,-8 5526,-31 5701,-31 5701,-8 5526,-8"/>
<text text-anchor="middle" x="5613.5" y="-15.8" font-family="Helvetica,sans-Serif" font-size="14.00">deal.II/grid/tria_accessor.h</text>
</g>
<!-- Node2&#45;&gt;Node37 -->
<g id="edge36" class="edge"><title>Node2&#45;&gt;Node37</title>
<path fill="none" stroke="midnightblue" d="M3948.51,-85.4409C4229.13,-83.1253 5206.57,-72.7665 5516.5,-39 5529.54,-37.5796 5543.45,-35.356 5556.54,-32.9362"/>
<polygon fill="midnightblue" stroke="midnightblue" points="5557.2,-36.3733 5566.36,-31.0576 5555.89,-29.4978 5557.2,-36.3733"/>
</g>
<!-- Node38 -->
<g id="node38" class="node"><title>Node38</title>
<polygon fill="white" stroke="#bfbfbf" points="5719,-8 5719,-31 5882,-31 5882,-8 5719,-8"/>
<text text-anchor="middle" x="5800.5" y="-15.8" font-family="Helvetica,sans-Serif" font-size="14.00">deal.II/grid/tria_iterator.h</text>
</g>
<!-- Node2&#45;&gt;Node38 -->
<g id="edge37" class="edge"><title>Node2&#45;&gt;Node38</title>
<path fill="none" stroke="midnightblue" d="M3948.56,-85.8517C4249.95,-84.9857 5360.87,-79.084 5710.5,-39 5722.51,-37.6231 5735.3,-35.4403 5747.35,-33.0493"/>
<polygon fill="midnightblue" stroke="midnightblue" points="5748.17,-36.4522 5757.26,-31.0051 5746.76,-29.5963 5748.17,-36.4522"/>
</g>
<!-- Node39 -->
<g id="node39" class="node"><title>Node39</title>
<polygon fill="white" stroke="#bfbfbf" points="5900,-8 5900,-31 6063,-31 6063,-8 5900,-8"/>
<text text-anchor="middle" x="5981.5" y="-15.8" font-family="Helvetica,sans-Serif" font-size="14.00">deal.II/lac/precondition.h</text>
</g>
<!-- Node2&#45;&gt;Node39 -->
<g id="edge38" class="edge"><title>Node2&#45;&gt;Node39</title>
<path fill="none" stroke="midnightblue" d="M3948.61,-86.0555C4268.38,-86.007 5504.47,-82.9225 5891.5,-39 5903.51,-37.6369 5916.3,-35.4597 5928.35,-33.0698"/>
<polygon fill="midnightblue" stroke="midnightblue" points="5929.18,-36.4726 5938.26,-31.0254 5927.76,-29.6168 5929.18,-36.4726"/>
</g>
<!-- Node40 -->
<g id="node40" class="node"><title>Node40</title>
<polygon fill="white" stroke="#bfbfbf" points="6081,-0.5 6081,-38.5 6198,-38.5 6198,-0.5 6081,-0.5"/>
<text text-anchor="start" x="6089" y="-23.3" font-family="Helvetica,sans-Serif" font-size="14.00">deal.II/lac/trilinos</text>
<text text-anchor="middle" x="6139.5" y="-8.3" font-family="Helvetica,sans-Serif" font-size="14.00">_precondition.h</text>
</g>
<!-- Node2&#45;&gt;Node40 -->
<g id="edge39" class="edge"><title>Node2&#45;&gt;Node40</title>
<path fill="none" stroke="midnightblue" d="M3948.76,-85.4926C4307,-82.96 5815.65,-70.5846 6070.65,-38.9545"/>
<polygon fill="midnightblue" stroke="midnightblue" points="6071.41,-42.3836 6080.85,-37.5796 6070.47,-35.4463 6071.41,-42.3836"/>
</g>
<!-- Node41 -->
<g id="node41" class="node"><title>Node41</title>
<polygon fill="white" stroke="#bfbfbf" points="6216,-0.5 6216,-38.5 6333,-38.5 6333,-0.5 6216,-0.5"/>
<text text-anchor="start" x="6224" y="-23.3" font-family="Helvetica,sans-Serif" font-size="14.00">deal.II/lac/trilinos</text>
<text text-anchor="middle" x="6274.5" y="-8.3" font-family="Helvetica,sans-Serif" font-size="14.00">_solver.h</text>
</g>
<!-- Node2&#45;&gt;Node41 -->
<g id="edge40" class="edge"><title>Node2&#45;&gt;Node41</title>
<path fill="none" stroke="midnightblue" d="M3948.7,-85.5945C4320.49,-83.4664 5936.77,-72.4361 6205.8,-38.9384"/>
<polygon fill="midnightblue" stroke="midnightblue" points="6206.41,-42.3878 6215.85,-37.5838 6205.47,-35.4504 6206.41,-42.3878"/>
</g>
<!-- Node42 -->
<g id="node42" class="node"><title>Node42</title>
<polygon fill="white" stroke="#bfbfbf" points="6351,-0.5 6351,-38.5 6494,-38.5 6494,-0.5 6351,-0.5"/>
<text text-anchor="start" x="6359" y="-23.3" font-family="Helvetica,sans-Serif" font-size="14.00">deal.II/numerics/data</text>
<text text-anchor="middle" x="6422.5" y="-8.3" font-family="Helvetica,sans-Serif" font-size="14.00">_out.h</text>
</g>
<!-- Node2&#45;&gt;Node42 -->
<g id="edge41" class="edge"><title>Node2&#45;&gt;Node42</title>
<path fill="none" stroke="midnightblue" d="M3948.52,-85.4962C4333,-82.8234 6055.88,-69.3118 6340.41,-39.0305"/>
<polygon fill="midnightblue" stroke="midnightblue" points="6341.13,-42.4708 6350.67,-37.854 6340.33,-35.5164 6341.13,-42.4708"/>
</g>
<!-- Node43 -->
<g id="node43" class="node"><title>Node43</title>
<polygon fill="white" stroke="#bfbfbf" points="6512.5,-0.5 6512.5,-38.5 6666.5,-38.5 6666.5,-0.5 6512.5,-0.5"/>
<text text-anchor="start" x="6520.5" y="-23.3" font-family="Helvetica,sans-Serif" font-size="14.00">deal.II/numerics/matrix</text>
<text text-anchor="middle" x="6589.5" y="-8.3" font-family="Helvetica,sans-Serif" font-size="14.00">_tools.h</text>
</g>
<!-- Node2&#45;&gt;Node43 -->
<g id="edge42" class="edge"><title>Node2&#45;&gt;Node43</title>
<path fill="none" stroke="midnightblue" d="M3948.75,-85.5206C4349.02,-82.8873 6200.28,-69.2224 6502.18,-38.9385"/>
<polygon fill="midnightblue" stroke="midnightblue" points="6502.69,-42.4037 6512.26,-37.8542 6501.95,-35.4438 6502.69,-42.4037"/>
</g>
<!-- Node44 -->
<g id="node44" class="node"><title>Node44</title>
<polygon fill="white" stroke="#bfbfbf" points="6685,-0.5 6685,-38.5 6838,-38.5 6838,-0.5 6685,-0.5"/>
<text text-anchor="start" x="6693" y="-23.3" font-family="Helvetica,sans-Serif" font-size="14.00">deal.II/numerics/vector</text>
<text text-anchor="middle" x="6761.5" y="-8.3" font-family="Helvetica,sans-Serif" font-size="14.00">_tools.h</text>
</g>
<!-- Node2&#45;&gt;Node44 -->
<g id="edge43" class="edge"><title>Node2&#45;&gt;Node44</title>
<path fill="none" stroke="midnightblue" d="M3948.84,-85.61C4365.04,-83.3665 6353.02,-71.1008 6674.43,-38.8956"/>
<polygon fill="midnightblue" stroke="midnightblue" points="6675.16,-42.3372 6684.73,-37.7905 6674.41,-35.3772 6675.16,-42.3372"/>
</g>
<!-- Node45 -->
<g id="node45" class="node"><title>Node45</title>
<polygon fill="white" stroke="#bfbfbf" points="6856.5,-8 6856.5,-31 6910.5,-31 6910.5,-8 6856.5,-8"/>
<text text-anchor="middle" x="6883.5" y="-15.8" font-family="Helvetica,sans-Serif" font-size="14.00">cmath</text>
</g>
<!-- Node2&#45;&gt;Node45 -->
<g id="edge44" class="edge"><title>Node2&#45;&gt;Node45</title>
<path fill="none" stroke="midnightblue" d="M3948.66,-85.7766C4399.42,-84.3318 6702.89,-75.1949 6847.5,-39 6850.94,-38.1379 6854.43,-36.8953 6857.81,-35.4561"/>
<polygon fill="midnightblue" stroke="midnightblue" points="6859.46,-38.5485 6866.92,-31.0317 6856.4,-32.2517 6859.46,-38.5485"/>
</g>
<!-- Node46 -->
<g id="node46" class="node"><title>Node46</title>
<polygon fill="white" stroke="#bfbfbf" points="6928.5,-8 6928.5,-31 6990.5,-31 6990.5,-8 6928.5,-8"/>
<text text-anchor="middle" x="6959.5" y="-15.8" font-family="Helvetica,sans-Serif" font-size="14.00">fstream</text>
</g>
<!-- Node2&#45;&gt;Node46 -->
<g id="edge45" class="edge"><title>Node2&#45;&gt;Node46</title>
<path fill="none" stroke="midnightblue" d="M3948.62,-85.7194C4405.63,-83.923 6770.44,-73.0079 6919.5,-39 6923.5,-38.0879 6927.57,-36.7469 6931.52,-35.1965"/>
<polygon fill="midnightblue" stroke="midnightblue" points="6933.22,-38.2753 6940.95,-31.0364 6930.39,-31.871 6933.22,-38.2753"/>
</g>
<!-- Node47 -->
<g id="node47" class="node"><title>Node47</title>
<polygon fill="white" stroke="#bfbfbf" points="7009,-8 7009,-31 7078,-31 7078,-8 7009,-8"/>
<text text-anchor="middle" x="7043.5" y="-15.8" font-family="Helvetica,sans-Serif" font-size="14.00">iostream</text>
</g>
<!-- Node2&#45;&gt;Node47 -->
<g id="edge46" class="edge"><title>Node2&#45;&gt;Node47</title>
<path fill="none" stroke="midnightblue" d="M3948.71,-85.6762C4412.95,-83.601 6845.72,-71.2173 6999.5,-39 7004.1,-38.0373 7008.81,-36.5946 7013.37,-34.9315"/>
<polygon fill="midnightblue" stroke="midnightblue" points="7015.03,-38.0344 7022.99,-31.0394 7012.41,-31.5454 7015.03,-38.0344"/>
</g>
<!-- Node48 -->
<g id="node48" class="node"><title>Node48</title>
<polygon fill="white" stroke="#bfbfbf" points="7096.5,-8 7096.5,-31 7140.5,-31 7140.5,-8 7096.5,-8"/>
<text text-anchor="middle" x="7118.5" y="-15.8" font-family="Helvetica,sans-Serif" font-size="14.00">map</text>
</g>
<!-- Node2&#45;&gt;Node48 -->
<g id="edge47" class="edge"><title>Node2&#45;&gt;Node48</title>
<path fill="none" stroke="midnightblue" d="M3948.63,-86.0025C4420.56,-85.8788 6931.84,-83.1425 7087.5,-39 7090.18,-38.2407 7092.86,-37.1881 7095.46,-35.967"/>
<polygon fill="midnightblue" stroke="midnightblue" points="7097.34,-38.9268 7104.4,-31.0274 7093.96,-32.7996 7097.34,-38.9268"/>
</g>
<!-- Node49 -->
<g id="node49" class="node"><title>Node49</title>
<polygon fill="white" stroke="#bfbfbf" points="7159,-8 7159,-31 7226,-31 7226,-8 7159,-8"/>
<text text-anchor="middle" x="7192.5" y="-15.8" font-family="Helvetica,sans-Serif" font-size="14.00">memory</text>
</g>
<!-- Node2&#45;&gt;Node49 -->
<g id="edge48" class="edge"><title>Node2&#45;&gt;Node49</title>
<path fill="none" stroke="midnightblue" d="M3948.86,-85.7479C4426.5,-84.0653 6988.09,-73.4575 7149.5,-39 7154,-38.0387 7158.62,-36.5968 7163.08,-34.9341"/>
<polygon fill="midnightblue" stroke="midnightblue" points="7164.58,-38.1005 7172.48,-31.0423 7161.9,-31.6326 7164.58,-38.1005"/>
</g>
<!-- Node50 -->
<g id="node50" class="node"><title>Node50</title>
<polygon fill="white" stroke="#bfbfbf" points="7244,-8 7244,-31 7297,-31 7297,-8 7244,-8"/>
<text text-anchor="middle" x="7270.5" y="-15.8" font-family="Helvetica,sans-Serif" font-size="14.00">vector</text>
</g>
<!-- Node2&#45;&gt;Node50 -->
<g id="edge49" class="edge"><title>Node2&#45;&gt;Node50</title>
<path fill="none" stroke="midnightblue" d="M3948.55,-85.946C4432.82,-85.4761 7071.13,-80.9908 7235.5,-39 7238.76,-38.1664 7242.06,-36.9742 7245.26,-35.5911"/>
<polygon fill="midnightblue" stroke="midnightblue" points="7247.02,-38.6225 7254.42,-31.0373 7243.91,-32.3542 7247.02,-38.6225"/>
</g>
</g>
</svg>
