<?xml version="1.0" encoding="UTF-8" standalone="no"?>
<!DOCTYPE svg PUBLIC "-//W3C//DTD SVG 1.1//EN"
 "http://www.w3.org/Graphics/SVG/1.1/DTD/svg11.dtd">
<!-- Generated by graphviz version 2.38.0 (20140413.2041)
 -->
<!-- Title: /home/travis/build/konsim83/MPI&#45;MSFEC/include/RT_DQ/rt_dq_global.h Pages: 1 -->
<svg width="392pt" height="167pt"
 viewBox="0.00 0.00 392.00 167.00" xmlns="http://www.w3.org/2000/svg" xmlns:xlink="http://www.w3.org/1999/xlink">
<g id="graph0" class="graph" transform="scale(1 1) rotate(0) translate(4 163)">
<title>/home/travis/build/konsim83/MPI&#45;MSFEC/include/RT_DQ/rt_dq_global.h</title>
<polygon fill="white" stroke="none" points="-4,4 -4,-163 388,-163 388,4 -4,4"/>
<!-- Node1 -->
<g id="node1" class="node"><title>Node1</title>
<polygon fill="#bfbfbf" stroke="black" points="100,-90.5 100,-158.5 260,-158.5 260,-90.5 100,-90.5"/>
<text text-anchor="start" x="108" y="-143.3" font-family="Helvetica,sans-Serif" font-size="14.00">/home/travis/build</text>
<text text-anchor="start" x="108" y="-128.3" font-family="Helvetica,sans-Serif" font-size="14.00">/konsim83/MPI&#45;MSFEC</text>
<text text-anchor="start" x="108" y="-113.3" font-family="Helvetica,sans-Serif" font-size="14.00">/include/RT_DQ/rt_dq</text>
<text text-anchor="middle" x="180" y="-98.3" font-family="Helvetica,sans-Serif" font-size="14.00">_global.h</text>
</g>
<!-- Node2 -->
<g id="node2" class="node"><title>Node2</title>
<g id="a_node2"><a xlink:href="main__rt__dq_8cxx.html" target="_top" xlink:title="/home/travis/build\l/konsim83/MPI&#45;MSFEC\l/source/main_rt_dq.cxx">
<polygon fill="white" stroke="black" points="0,-0.5 0,-53.5 160,-53.5 160,-0.5 0,-0.5"/>
<text text-anchor="start" x="8" y="-38.3" font-family="Helvetica,sans-Serif" font-size="14.00">/home/travis/build</text>
<text text-anchor="start" x="8" y="-23.3" font-family="Helvetica,sans-Serif" font-size="14.00">/konsim83/MPI&#45;MSFEC</text>
<text text-anchor="middle" x="80" y="-8.3" font-family="Helvetica,sans-Serif" font-size="14.00">/source/main_rt_dq.cxx</text>
</a>
</g>
</g>
<!-- Node1&#45;&gt;Node2 -->
<g id="edge1" class="edge"><title>Node1&#45;&gt;Node2</title>
<path fill="none" stroke="midnightblue" d="M138.07,-83.4566C127.468,-73.3323 116.37,-62.7332 106.749,-53.5452"/>
<polygon fill="midnightblue" stroke="midnightblue" points="135.656,-85.9914 145.305,-90.3668 140.491,-80.9291 135.656,-85.9914"/>
</g>
<!-- Node3 -->
<g id="node3" class="node"><title>Node3</title>
<g id="a_node3"><a xlink:href="rt__dq__global_8cc.html" target="_top" xlink:title="/home/travis/build\l/konsim83/MPI&#45;MSFEC\l/source/RT_DQ/rt_dq_global.cc">
<polygon fill="white" stroke="black" points="178,-0.5 178,-53.5 384,-53.5 384,-0.5 178,-0.5"/>
<text text-anchor="start" x="186" y="-38.3" font-family="Helvetica,sans-Serif" font-size="14.00">/home/travis/build</text>
<text text-anchor="start" x="186" y="-23.3" font-family="Helvetica,sans-Serif" font-size="14.00">/konsim83/MPI&#45;MSFEC</text>
<text text-anchor="middle" x="281" y="-8.3" font-family="Helvetica,sans-Serif" font-size="14.00">/source/RT_DQ/rt_dq_global.cc</text>
</a>
</g>
</g>
<!-- Node1&#45;&gt;Node3 -->
<g id="edge2" class="edge"><title>Node1&#45;&gt;Node3</title>
<path fill="none" stroke="midnightblue" d="M222.35,-83.4566C233.057,-73.3323 244.266,-62.7332 253.984,-53.5452"/>
<polygon fill="midnightblue" stroke="midnightblue" points="219.903,-80.9531 215.041,-90.3668 224.712,-86.0394 219.903,-80.9531"/>
</g>
</g>
</svg>
