<?xml version="1.0" encoding="UTF-8" standalone="no"?>
<!DOCTYPE svg PUBLIC "-//W3C//DTD SVG 1.1//EN"
 "http://www.w3.org/Graphics/SVG/1.1/DTD/svg11.dtd">
<!-- Generated by graphviz version 2.38.0 (20140413.2041)
 -->
<!-- Title: /home/travis/build/konsim83/MPI&#45;MSFEC/include/RT_DQ/rt_dq_post_processor.h Pages: 1 -->
<svg width="722pt" height="377pt"
 viewBox="0.00 0.00 721.50 377.00" xmlns="http://www.w3.org/2000/svg" xmlns:xlink="http://www.w3.org/1999/xlink">
<g id="graph0" class="graph" transform="scale(1 1) rotate(0) translate(4 373)">
<title>/home/travis/build/konsim83/MPI&#45;MSFEC/include/RT_DQ/rt_dq_post_processor.h</title>
<polygon fill="white" stroke="none" points="-4,4 -4,-373 717.5,-373 717.5,4 -4,4"/>
<!-- Node1 -->
<g id="node1" class="node"><title>Node1</title>
<polygon fill="#bfbfbf" stroke="black" points="251.5,-300.5 251.5,-368.5 411.5,-368.5 411.5,-300.5 251.5,-300.5"/>
<text text-anchor="start" x="259.5" y="-353.3" font-family="Helvetica,sans-Serif" font-size="14.00">/home/travis/build</text>
<text text-anchor="start" x="259.5" y="-338.3" font-family="Helvetica,sans-Serif" font-size="14.00">/konsim83/MPI&#45;MSFEC</text>
<text text-anchor="start" x="259.5" y="-323.3" font-family="Helvetica,sans-Serif" font-size="14.00">/include/RT_DQ/rt_dq</text>
<text text-anchor="middle" x="331.5" y="-308.3" font-family="Helvetica,sans-Serif" font-size="14.00">_post_processor.h</text>
</g>
<!-- Node2 -->
<g id="node2" class="node"><title>Node2</title>
<g id="a_node2"><a xlink:href="rt__dq__post__processor_8cc.html" target="_top" xlink:title="/home/travis/build\l/konsim83/MPI&#45;MSFEC\l/source/RT_DQ/rt_dq_post\l_processor.cc">
<polygon fill="white" stroke="black" points="0,-195.5 0,-263.5 179,-263.5 179,-195.5 0,-195.5"/>
<text text-anchor="start" x="8" y="-248.3" font-family="Helvetica,sans-Serif" font-size="14.00">/home/travis/build</text>
<text text-anchor="start" x="8" y="-233.3" font-family="Helvetica,sans-Serif" font-size="14.00">/konsim83/MPI&#45;MSFEC</text>
<text text-anchor="start" x="8" y="-218.3" font-family="Helvetica,sans-Serif" font-size="14.00">/source/RT_DQ/rt_dq_post</text>
<text text-anchor="middle" x="89.5" y="-203.3" font-family="Helvetica,sans-Serif" font-size="14.00">_processor.cc</text>
</a>
</g>
</g>
<!-- Node1&#45;&gt;Node2 -->
<g id="edge1" class="edge"><title>Node1&#45;&gt;Node2</title>
<path fill="none" stroke="midnightblue" d="M244.696,-296.554C219.336,-285.761 191.792,-274.037 167.045,-263.505"/>
<polygon fill="midnightblue" stroke="midnightblue" points="243.359,-299.789 253.931,-300.485 246.101,-293.348 243.359,-299.789"/>
</g>
<!-- Node3 -->
<g id="node3" class="node"><title>Node3</title>
<g id="a_node3"><a xlink:href="rt__dq__basis_8h.html" target="_top" xlink:title="/home/travis/build\l/konsim83/MPI&#45;MSFEC\l/include/RT_DQ/rt_dq\l_basis.h">
<polygon fill="white" stroke="black" points="197.5,-195.5 197.5,-263.5 357.5,-263.5 357.5,-195.5 197.5,-195.5"/>
<text text-anchor="start" x="205.5" y="-248.3" font-family="Helvetica,sans-Serif" font-size="14.00">/home/travis/build</text>
<text text-anchor="start" x="205.5" y="-233.3" font-family="Helvetica,sans-Serif" font-size="14.00">/konsim83/MPI&#45;MSFEC</text>
<text text-anchor="start" x="205.5" y="-218.3" font-family="Helvetica,sans-Serif" font-size="14.00">/include/RT_DQ/rt_dq</text>
<text text-anchor="middle" x="277.5" y="-203.3" font-family="Helvetica,sans-Serif" font-size="14.00">_basis.h</text>
</a>
</g>
</g>
<!-- Node1&#45;&gt;Node3 -->
<g id="edge2" class="edge"><title>Node1&#45;&gt;Node3</title>
<path fill="none" stroke="midnightblue" d="M309.372,-291.293C304.531,-282.058 299.473,-272.412 294.851,-263.595"/>
<polygon fill="midnightblue" stroke="midnightblue" points="306.374,-293.112 314.117,-300.343 312.573,-289.861 306.374,-293.112"/>
</g>
<!-- Node5 -->
<g id="node5" class="node"><title>Node5</title>
<g id="a_node5"><a xlink:href="rt__dq__global_8h.html" target="_top" xlink:title="/home/travis/build\l/konsim83/MPI&#45;MSFEC\l/include/RT_DQ/rt_dq\l_global.h">
<polygon fill="white" stroke="black" points="305.5,-90.5 305.5,-158.5 465.5,-158.5 465.5,-90.5 305.5,-90.5"/>
<text text-anchor="start" x="313.5" y="-143.3" font-family="Helvetica,sans-Serif" font-size="14.00">/home/travis/build</text>
<text text-anchor="start" x="313.5" y="-128.3" font-family="Helvetica,sans-Serif" font-size="14.00">/konsim83/MPI&#45;MSFEC</text>
<text text-anchor="start" x="313.5" y="-113.3" font-family="Helvetica,sans-Serif" font-size="14.00">/include/RT_DQ/rt_dq</text>
<text text-anchor="middle" x="385.5" y="-98.3" font-family="Helvetica,sans-Serif" font-size="14.00">_global.h</text>
</a>
</g>
</g>
<!-- Node1&#45;&gt;Node5 -->
<g id="edge7" class="edge"><title>Node1&#45;&gt;Node5</title>
<path fill="none" stroke="midnightblue" d="M355.676,-290.961C359.829,-282.256 363.702,-273 366.5,-264 377.38,-229.004 382.036,-187.106 384.024,-158.624"/>
<polygon fill="midnightblue" stroke="midnightblue" points="352.424,-289.64 351.097,-300.151 358.689,-292.762 352.424,-289.64"/>
</g>
<!-- Node8 -->
<g id="node8" class="node"><title>Node8</title>
<g id="a_node8"><a xlink:href="rt__dq__ref_8h.html" target="_top" xlink:title="/home/travis/build\l/konsim83/MPI&#45;MSFEC\l/include/RT_DQ/rt_dq_ref.h">
<polygon fill="white" stroke="black" points="413.5,-203 413.5,-256 595.5,-256 595.5,-203 413.5,-203"/>
<text text-anchor="start" x="421.5" y="-240.8" font-family="Helvetica,sans-Serif" font-size="14.00">/home/travis/build</text>
<text text-anchor="start" x="421.5" y="-225.8" font-family="Helvetica,sans-Serif" font-size="14.00">/konsim83/MPI&#45;MSFEC</text>
<text text-anchor="middle" x="504.5" y="-210.8" font-family="Helvetica,sans-Serif" font-size="14.00">/include/RT_DQ/rt_dq_ref.h</text>
</a>
</g>
</g>
<!-- Node1&#45;&gt;Node8 -->
<g id="edge8" class="edge"><title>Node1&#45;&gt;Node8</title>
<path fill="none" stroke="midnightblue" d="M395.8,-295.217C417.728,-282.162 441.697,-267.891 461.535,-256.081"/>
<polygon fill="midnightblue" stroke="midnightblue" points="393.992,-292.22 387.191,-300.343 397.573,-298.235 393.992,-292.22"/>
</g>
<!-- Node4 -->
<g id="node4" class="node"><title>Node4</title>
<g id="a_node4"><a xlink:href="rt__dq__basis_8cc.html" target="_top" xlink:title="/home/travis/build\l/konsim83/MPI&#45;MSFEC\l/source/RT_DQ/rt_dq_basis.cc">
<polygon fill="white" stroke="black" points="85.5,-98 85.5,-151 287.5,-151 287.5,-98 85.5,-98"/>
<text text-anchor="start" x="93.5" y="-135.8" font-family="Helvetica,sans-Serif" font-size="14.00">/home/travis/build</text>
<text text-anchor="start" x="93.5" y="-120.8" font-family="Helvetica,sans-Serif" font-size="14.00">/konsim83/MPI&#45;MSFEC</text>
<text text-anchor="middle" x="186.5" y="-105.8" font-family="Helvetica,sans-Serif" font-size="14.00">/source/RT_DQ/rt_dq_basis.cc</text>
</a>
</g>
</g>
<!-- Node3&#45;&gt;Node4 -->
<g id="edge3" class="edge"><title>Node3&#45;&gt;Node4</title>
<path fill="none" stroke="midnightblue" d="M241.522,-187.778C230.589,-175.403 218.889,-162.16 209.1,-151.081"/>
<polygon fill="midnightblue" stroke="midnightblue" points="238.962,-190.166 248.206,-195.343 244.208,-185.532 238.962,-190.166"/>
</g>
<!-- Node3&#45;&gt;Node5 -->
<g id="edge4" class="edge"><title>Node3&#45;&gt;Node5</title>
<path fill="none" stroke="midnightblue" d="M319.646,-188.305C329.959,-178.47 340.879,-168.055 350.799,-158.595"/>
<polygon fill="midnightblue" stroke="midnightblue" points="317.087,-185.909 312.266,-195.343 321.919,-190.974 317.087,-185.909"/>
</g>
<!-- Node6 -->
<g id="node6" class="node"><title>Node6</title>
<g id="a_node6"><a xlink:href="main__rt__dq_8cxx.html" target="_top" xlink:title="/home/travis/build\l/konsim83/MPI&#45;MSFEC\l/source/main_rt_dq.cxx">
<polygon fill="white" stroke="black" points="419.5,-0.5 419.5,-53.5 579.5,-53.5 579.5,-0.5 419.5,-0.5"/>
<text text-anchor="start" x="427.5" y="-38.3" font-family="Helvetica,sans-Serif" font-size="14.00">/home/travis/build</text>
<text text-anchor="start" x="427.5" y="-23.3" font-family="Helvetica,sans-Serif" font-size="14.00">/konsim83/MPI&#45;MSFEC</text>
<text text-anchor="middle" x="499.5" y="-8.3" font-family="Helvetica,sans-Serif" font-size="14.00">/source/main_rt_dq.cxx</text>
</a>
</g>
</g>
<!-- Node5&#45;&gt;Node6 -->
<g id="edge5" class="edge"><title>Node5&#45;&gt;Node6</title>
<path fill="none" stroke="midnightblue" d="M432.952,-83.7485C445.143,-73.5363 457.933,-62.8215 469.006,-53.5452"/>
<polygon fill="midnightblue" stroke="midnightblue" points="430.47,-81.2621 425.052,-90.3668 434.965,-86.628 430.47,-81.2621"/>
</g>
<!-- Node7 -->
<g id="node7" class="node"><title>Node7</title>
<g id="a_node7"><a xlink:href="rt__dq__global_8cc.html" target="_top" xlink:title="/home/travis/build\l/konsim83/MPI&#45;MSFEC\l/source/RT_DQ/rt_dq_global.cc">
<polygon fill="white" stroke="black" points="195.5,-0.5 195.5,-53.5 401.5,-53.5 401.5,-0.5 195.5,-0.5"/>
<text text-anchor="start" x="203.5" y="-38.3" font-family="Helvetica,sans-Serif" font-size="14.00">/home/travis/build</text>
<text text-anchor="start" x="203.5" y="-23.3" font-family="Helvetica,sans-Serif" font-size="14.00">/konsim83/MPI&#45;MSFEC</text>
<text text-anchor="middle" x="298.5" y="-8.3" font-family="Helvetica,sans-Serif" font-size="14.00">/source/RT_DQ/rt_dq_global.cc</text>
</a>
</g>
</g>
<!-- Node5&#45;&gt;Node7 -->
<g id="edge6" class="edge"><title>Node5&#45;&gt;Node7</title>
<path fill="none" stroke="midnightblue" d="M348.488,-82.872C339.427,-72.9252 329.981,-62.5565 321.772,-53.5452"/>
<polygon fill="midnightblue" stroke="midnightblue" points="345.994,-85.3314 355.316,-90.3668 351.169,-80.6173 345.994,-85.3314"/>
</g>
<!-- Node8&#45;&gt;Node6 -->
<g id="edge9" class="edge"><title>Node8&#45;&gt;Node6</title>
<path fill="none" stroke="midnightblue" d="M503.604,-192.584C502.607,-152.604 501.021,-88.99 500.141,-53.7024"/>
<polygon fill="midnightblue" stroke="midnightblue" points="500.108,-192.789 503.857,-202.699 507.106,-192.614 500.108,-192.789"/>
</g>
<!-- Node9 -->
<g id="node9" class="node"><title>Node9</title>
<g id="a_node9"><a xlink:href="rt__dq__ref_8cc.html" target="_top" xlink:title="/home/travis/build\l/konsim83/MPI&#45;MSFEC\l/source/RT_DQ/rt_dq_ref.cc">
<polygon fill="white" stroke="black" points="527.5,-98 527.5,-151 713.5,-151 713.5,-98 527.5,-98"/>
<text text-anchor="start" x="535.5" y="-135.8" font-family="Helvetica,sans-Serif" font-size="14.00">/home/travis/build</text>
<text text-anchor="start" x="535.5" y="-120.8" font-family="Helvetica,sans-Serif" font-size="14.00">/konsim83/MPI&#45;MSFEC</text>
<text text-anchor="middle" x="620.5" y="-105.8" font-family="Helvetica,sans-Serif" font-size="14.00">/source/RT_DQ/rt_dq_ref.cc</text>
</a>
</g>
</g>
<!-- Node8&#45;&gt;Node9 -->
<g id="edge10" class="edge"><title>Node8&#45;&gt;Node9</title>
<path fill="none" stroke="midnightblue" d="M541.208,-195.906C557.444,-181.489 576.265,-164.778 591.495,-151.255"/>
<polygon fill="midnightblue" stroke="midnightblue" points="538.626,-193.518 533.472,-202.774 543.274,-198.752 538.626,-193.518"/>
</g>
</g>
</svg>
