<?xml version="1.0" encoding="UTF-8" standalone="no"?>
<!DOCTYPE svg PUBLIC "-//W3C//DTD SVG 1.1//EN"
 "http://www.w3.org/Graphics/SVG/1.1/DTD/svg11.dtd">
<!-- Generated by graphviz version 2.38.0 (20140413.2041)
 -->
<!-- Title: /home/travis/build/konsim83/MPI&#45;MSFEC/include/trunk/scalar_shape_function_grad.tpp Pages: 1 -->
<svg width="181pt" height="182pt"
 viewBox="0.00 0.00 181.00 182.00" xmlns="http://www.w3.org/2000/svg" xmlns:xlink="http://www.w3.org/1999/xlink">
<g id="graph0" class="graph" transform="scale(1 1) rotate(0) translate(4 178)">
<title>/home/travis/build/konsim83/MPI&#45;MSFEC/include/trunk/scalar_shape_function_grad.tpp</title>
<polygon fill="white" stroke="none" points="-4,4 -4,-178 177,-178 177,4 -4,4"/>
<!-- Node1 -->
<g id="node1" class="node"><title>Node1</title>
<polygon fill="#bfbfbf" stroke="black" points="0,-105.5 0,-173.5 173,-173.5 173,-105.5 0,-105.5"/>
<text text-anchor="start" x="8" y="-158.3" font-family="Helvetica,sans-Serif" font-size="14.00">/home/travis/build</text>
<text text-anchor="start" x="8" y="-143.3" font-family="Helvetica,sans-Serif" font-size="14.00">/konsim83/MPI&#45;MSFEC</text>
<text text-anchor="start" x="8" y="-128.3" font-family="Helvetica,sans-Serif" font-size="14.00">/include/trunk/scalar</text>
<text text-anchor="middle" x="86.5" y="-113.3" font-family="Helvetica,sans-Serif" font-size="14.00">_shape_function_grad.tpp</text>
</g>
<!-- Node2 -->
<g id="node2" class="node"><title>Node2</title>
<g id="a_node2"><a xlink:href="scalar__shape__function__grad_8h.html" target="_top" xlink:title="/home/travis/build\l/konsim83/MPI&#45;MSFEC\l/include/trunk/scalar\l_shape_function_grad.h">
<polygon fill="white" stroke="black" points="6,-0.5 6,-68.5 167,-68.5 167,-0.5 6,-0.5"/>
<text text-anchor="start" x="14" y="-53.3" font-family="Helvetica,sans-Serif" font-size="14.00">/home/travis/build</text>
<text text-anchor="start" x="14" y="-38.3" font-family="Helvetica,sans-Serif" font-size="14.00">/konsim83/MPI&#45;MSFEC</text>
<text text-anchor="start" x="14" y="-23.3" font-family="Helvetica,sans-Serif" font-size="14.00">/include/trunk/scalar</text>
<text text-anchor="middle" x="86.5" y="-8.3" font-family="Helvetica,sans-Serif" font-size="14.00">_shape_function_grad.h</text>
</a>
</g>
</g>
<!-- Node1&#45;&gt;Node2 -->
<g id="edge1" class="edge"><title>Node1&#45;&gt;Node2</title>
<path fill="none" stroke="midnightblue" d="M86.5,-95.1362C86.5,-86.256 86.5,-77.0447 86.5,-68.5947"/>
<polygon fill="midnightblue" stroke="midnightblue" points="83.0001,-95.3432 86.5,-105.343 90.0001,-95.3432 83.0001,-95.3432"/>
</g>
</g>
</svg>
