<?xml version="1.0" encoding="UTF-8" standalone="no"?>
<!DOCTYPE svg PUBLIC "-//W3C//DTD SVG 1.1//EN"
 "http://www.w3.org/Graphics/SVG/1.1/DTD/svg11.dtd">
<!-- Generated by graphviz version 2.38.0 (20140413.2041)
 -->
<!-- Title: Q::ParametersStd Pages: 1 -->
<svg width="468pt" height="197pt"
 viewBox="0.00 0.00 467.50 197.00" xmlns="http://www.w3.org/2000/svg" xmlns:xlink="http://www.w3.org/1999/xlink">
<g id="graph0" class="graph" transform="scale(1 1) rotate(0) translate(4 193)">
<title>Q::ParametersStd</title>
<polygon fill="white" stroke="none" points="-4,4 -4,-193 463.5,-193 463.5,4 -4,4"/>
<!-- Node1 -->
<g id="node1" class="node"><title>Node1</title>
<polygon fill="#bfbfbf" stroke="black" points="141.5,-0.5 141.5,-23.5 267.5,-23.5 267.5,-0.5 141.5,-0.5"/>
<text text-anchor="middle" x="204.5" y="-8.3" font-family="Helvetica,sans-Serif" font-size="14.00">Q::ParametersStd</text>
</g>
<!-- Node2 -->
<g id="node2" class="node"><title>Node2</title>
<polygon fill="white" stroke="#bfbfbf" points="0,-165.5 0,-188.5 31,-188.5 31,-165.5 0,-165.5"/>
<text text-anchor="middle" x="15.5" y="-173.3" font-family="Helvetica,sans-Serif" font-size="14.00">int</text>
</g>
<!-- Node2&#45;&gt;Node1 -->
<g id="edge1" class="edge"><title>Node2&#45;&gt;Node1</title>
<path fill="none" stroke="#9a32cd" stroke-dasharray="5,2" d="M9.27872,-155.418C1.87022,-126.282 -6.29086,-73.1048 21.5,-42 37.1989,-24.4291 94.8602,-17.4715 141.315,-14.7342"/>
<polygon fill="#9a32cd" stroke="#9a32cd" points="5.97396,-156.6 12.0047,-165.311 12.7225,-154.74 5.97396,-156.6"/>
<text text-anchor="middle" x="73.5" y="-90.8" font-family="Helvetica,sans-Serif" font-size="14.00"> transfer_to_level</text>
</g>
<!-- Node3 -->
<g id="node3" class="node"><title>Node3</title>
<polygon fill="white" stroke="#bfbfbf" points="117.5,-165.5 117.5,-188.5 167.5,-188.5 167.5,-165.5 117.5,-165.5"/>
<text text-anchor="middle" x="142.5" y="-173.3" font-family="Helvetica,sans-Serif" font-size="14.00">string</text>
</g>
<!-- Node3&#45;&gt;Node1 -->
<g id="edge2" class="edge"><title>Node3&#45;&gt;Node1</title>
<path fill="none" stroke="#9a32cd" stroke-dasharray="5,2" d="M136.354,-155.307C129.327,-127.241 121.429,-76.6434 143.5,-42 148.729,-33.7916 156.98,-27.8574 165.743,-23.5856"/>
<polygon fill="#9a32cd" stroke="#9a32cd" points="133.041,-156.465 139.034,-165.202 139.798,-154.635 133.041,-156.465"/>
<text text-anchor="middle" x="194" y="-98.3" font-family="Helvetica,sans-Serif" font-size="14.00"> filename_output</text>
<text text-anchor="middle" x="194" y="-83.3" font-family="Helvetica,sans-Serif" font-size="14.00">dirname_output</text>
</g>
<!-- Node4 -->
<g id="node4" class="node"><title>Node4</title>
<polygon fill="white" stroke="#bfbfbf" points="245.5,-165.5 245.5,-188.5 287.5,-188.5 287.5,-165.5 245.5,-165.5"/>
<text text-anchor="middle" x="266.5" y="-173.3" font-family="Helvetica,sans-Serif" font-size="14.00">bool</text>
</g>
<!-- Node4&#45;&gt;Node1 -->
<g id="edge3" class="edge"><title>Node4&#45;&gt;Node1</title>
<path fill="none" stroke="#9a32cd" stroke-dasharray="5,2" d="M265.013,-155.167C262.355,-122.384 255.966,-60.5725 244.5,-42 239.814,-34.4095 232.333,-28.2001 225.103,-23.5025"/>
<polygon fill="#9a32cd" stroke="#9a32cd" points="261.546,-155.73 265.799,-165.433 268.525,-155.195 261.546,-155.73"/>
<text text-anchor="middle" x="321" y="-135.8" font-family="Helvetica,sans-Serif" font-size="14.00"> is_pure_neumann</text>
<text text-anchor="middle" x="321" y="-120.8" font-family="Helvetica,sans-Serif" font-size="14.00">renumber_dofs</text>
<text text-anchor="middle" x="321" y="-105.8" font-family="Helvetica,sans-Serif" font-size="14.00">degree</text>
<text text-anchor="middle" x="321" y="-90.8" font-family="Helvetica,sans-Serif" font-size="14.00">use_direct_solver</text>
<text text-anchor="middle" x="321" y="-75.8" font-family="Helvetica,sans-Serif" font-size="14.00">verbose</text>
<text text-anchor="middle" x="321" y="-60.8" font-family="Helvetica,sans-Serif" font-size="14.00">compute_solution</text>
<text text-anchor="middle" x="321" y="-45.8" font-family="Helvetica,sans-Serif" font-size="14.00">is_laplace</text>
</g>
<!-- Node5 -->
<g id="node5" class="node"><title>Node5</title>
<polygon fill="white" stroke="#bfbfbf" points="358,-165.5 358,-188.5 447,-188.5 447,-165.5 358,-165.5"/>
<text text-anchor="middle" x="402.5" y="-173.3" font-family="Helvetica,sans-Serif" font-size="14.00">unsigned int</text>
</g>
<!-- Node5&#45;&gt;Node1 -->
<g id="edge4" class="edge"><title>Node5&#45;&gt;Node1</title>
<path fill="none" stroke="#9a32cd" stroke-dasharray="5,2" d="M405.816,-155.083C409.2,-125.539 410.351,-71.868 380.5,-42 364.848,-26.3389 311.765,-19.1254 267.953,-15.8086"/>
<polygon fill="#9a32cd" stroke="#9a32cd" points="402.33,-154.748 404.47,-165.125 409.268,-155.678 402.33,-154.748"/>
<text text-anchor="middle" x="433" y="-90.8" font-family="Helvetica,sans-Serif" font-size="14.00"> n_refine</text>
</g>
</g>
</svg>
