<?xml version="1.0" encoding="UTF-8" standalone="no"?>
<!DOCTYPE svg PUBLIC "-//W3C//DTD SVG 1.1//EN"
 "http://www.w3.org/Graphics/SVG/1.1/DTD/svg11.dtd">
<!-- Generated by graphviz version 2.38.0 (20140413.2041)
 -->
<!-- Title: QNed::ParametersMs Pages: 1 -->
<svg width="404pt" height="227pt"
 viewBox="0.00 0.00 404.00 227.00" xmlns="http://www.w3.org/2000/svg" xmlns:xlink="http://www.w3.org/1999/xlink">
<g id="graph0" class="graph" transform="scale(1 1) rotate(0) translate(4 223)">
<title>QNed::ParametersMs</title>
<polygon fill="white" stroke="none" points="-4,4 -4,-223 400,-223 400,4 -4,4"/>
<!-- Node1 -->
<g id="node1" class="node"><title>Node1</title>
<polygon fill="#bfbfbf" stroke="black" points="74.5,-0.5 74.5,-23.5 223.5,-23.5 223.5,-0.5 74.5,-0.5"/>
<text text-anchor="middle" x="149" y="-8.3" font-family="Helvetica,sans-Serif" font-size="14.00">QNed::ParametersMs</text>
</g>
<!-- Node2 -->
<g id="node2" class="node"><title>Node2</title>
<polygon fill="white" stroke="#bfbfbf" points="0,-195.5 0,-218.5 50,-218.5 50,-195.5 0,-195.5"/>
<text text-anchor="middle" x="25" y="-203.3" font-family="Helvetica,sans-Serif" font-size="14.00">string</text>
</g>
<!-- Node2&#45;&gt;Node1 -->
<g id="edge1" class="edge"><title>Node2&#45;&gt;Node1</title>
<path fill="none" stroke="#9a32cd" stroke-dasharray="5,2" d="M20.7031,-184.989C15.0011,-150.699 9.32095,-82.483 44,-42 52.0587,-32.5926 62.8673,-26.1007 74.4911,-21.6482"/>
<polygon fill="#9a32cd" stroke="#9a32cd" points="17.3341,-186.022 22.5794,-195.227 24.2195,-184.76 17.3341,-186.022"/>
<text text-anchor="middle" x="94.5" y="-113.3" font-family="Helvetica,sans-Serif" font-size="14.00"> filename_output</text>
<text text-anchor="middle" x="94.5" y="-98.3" font-family="Helvetica,sans-Serif" font-size="14.00">dirname_output</text>
</g>
<!-- Node3 -->
<g id="node3" class="node"><title>Node3</title>
<polygon fill="white" stroke="#bfbfbf" points="128,-195.5 128,-218.5 170,-218.5 170,-195.5 128,-195.5"/>
<text text-anchor="middle" x="149" y="-203.3" font-family="Helvetica,sans-Serif" font-size="14.00">bool</text>
</g>
<!-- Node3&#45;&gt;Node1 -->
<g id="edge2" class="edge"><title>Node3&#45;&gt;Node1</title>
<path fill="none" stroke="#9a32cd" stroke-dasharray="5,2" d="M149,-185.203C149,-144.346 149,-54.8866 149,-23.8564"/>
<polygon fill="#9a32cd" stroke="#9a32cd" points="145.5,-185.349 149,-195.349 152.5,-185.349 145.5,-185.349"/>
<text text-anchor="middle" x="209" y="-165.8" font-family="Helvetica,sans-Serif" font-size="14.00"> use_exact_solution</text>
<text text-anchor="middle" x="209" y="-150.8" font-family="Helvetica,sans-Serif" font-size="14.00">verbose_basis</text>
<text text-anchor="middle" x="209" y="-135.8" font-family="Helvetica,sans-Serif" font-size="14.00">prevent_output</text>
<text text-anchor="middle" x="209" y="-120.8" font-family="Helvetica,sans-Serif" font-size="14.00">renumber_dofs</text>
<text text-anchor="start" x="149" y="-105.8" font-family="Helvetica,sans-Serif" font-size="14.00">use_direct_solver</text>
<text text-anchor="middle" x="209" y="-90.8" font-family="Helvetica,sans-Serif" font-size="14.00">_basis</text>
<text text-anchor="middle" x="209" y="-75.8" font-family="Helvetica,sans-Serif" font-size="14.00">use_direct_solver</text>
<text text-anchor="middle" x="209" y="-60.8" font-family="Helvetica,sans-Serif" font-size="14.00">verbose</text>
<text text-anchor="middle" x="209" y="-45.8" font-family="Helvetica,sans-Serif" font-size="14.00">compute_solution</text>
</g>
<!-- Node4 -->
<g id="node4" class="node"><title>Node4</title>
<polygon fill="white" stroke="#bfbfbf" points="247.5,-195.5 247.5,-218.5 336.5,-218.5 336.5,-195.5 247.5,-195.5"/>
<text text-anchor="middle" x="292" y="-203.3" font-family="Helvetica,sans-Serif" font-size="14.00">unsigned int</text>
</g>
<!-- Node4&#45;&gt;Node1 -->
<g id="edge3" class="edge"><title>Node4&#45;&gt;Node1</title>
<path fill="none" stroke="#9a32cd" stroke-dasharray="5,2" d="M295.931,-185.251C301.157,-150.842 305.961,-81.8249 270,-42 262.906,-34.1439 243.512,-28.0529 222.274,-23.5267"/>
<polygon fill="#9a32cd" stroke="#9a32cd" points="292.478,-184.684 294.271,-195.126 299.381,-185.845 292.478,-184.684"/>
<text text-anchor="middle" x="347.5" y="-113.3" font-family="Helvetica,sans-Serif" font-size="14.00"> n_refine_global</text>
<text text-anchor="middle" x="347.5" y="-98.3" font-family="Helvetica,sans-Serif" font-size="14.00">n_refine_local</text>
</g>
</g>
</svg>
