<?xml version="1.0" encoding="UTF-8" standalone="no"?>
<!DOCTYPE svg PUBLIC "-//W3C//DTD SVG 1.1//EN"
 "http://www.w3.org/Graphics/SVG/1.1/DTD/svg11.dtd">
<!-- Generated by graphviz version 2.38.0 (20140413.2041)
 -->
<!-- Title: RTDQ::ParametersStd Pages: 1 -->
<svg width="392pt" height="197pt"
 viewBox="0.00 0.00 391.50 197.00" xmlns="http://www.w3.org/2000/svg" xmlns:xlink="http://www.w3.org/1999/xlink">
<g id="graph0" class="graph" transform="scale(1 1) rotate(0) translate(4 193)">
<title>RTDQ::ParametersStd</title>
<polygon fill="white" stroke="none" points="-4,4 -4,-193 387.5,-193 387.5,4 -4,4"/>
<!-- Node1 -->
<g id="node1" class="node"><title>Node1</title>
<polygon fill="#bfbfbf" stroke="black" points="65.5,-0.5 65.5,-23.5 219.5,-23.5 219.5,-0.5 65.5,-0.5"/>
<text text-anchor="middle" x="142.5" y="-8.3" font-family="Helvetica,sans-Serif" font-size="14.00">RTDQ::ParametersStd</text>
</g>
<!-- Node2 -->
<g id="node2" class="node"><title>Node2</title>
<polygon fill="white" stroke="#bfbfbf" points="0,-165.5 0,-188.5 31,-188.5 31,-165.5 0,-165.5"/>
<text text-anchor="middle" x="15.5" y="-173.3" font-family="Helvetica,sans-Serif" font-size="14.00">int</text>
</g>
<!-- Node2&#45;&gt;Node1 -->
<g id="edge1" class="edge"><title>Node2&#45;&gt;Node1</title>
<path fill="none" stroke="#9a32cd" stroke-dasharray="5,2" d="M12.0152,-155.143C8.42597,-126.06 6.72465,-73.3724 34.5,-42 42.7363,-32.697 53.6045,-26.233 65.2738,-21.77"/>
<polygon fill="#9a32cd" stroke="#9a32cd" points="8.59771,-155.969 13.4798,-165.372 15.527,-154.977 8.59771,-155.969"/>
<text text-anchor="middle" x="86.5" y="-98.3" font-family="Helvetica,sans-Serif" font-size="14.00"> transfer_to_level</text>
<text text-anchor="middle" x="86.5" y="-83.3" font-family="Helvetica,sans-Serif" font-size="14.00">n_refine</text>
</g>
<!-- Node3 -->
<g id="node3" class="node"><title>Node3</title>
<polygon fill="white" stroke="#bfbfbf" points="117.5,-165.5 117.5,-188.5 167.5,-188.5 167.5,-165.5 117.5,-165.5"/>
<text text-anchor="middle" x="142.5" y="-173.3" font-family="Helvetica,sans-Serif" font-size="14.00">string</text>
</g>
<!-- Node3&#45;&gt;Node1 -->
<g id="edge2" class="edge"><title>Node3&#45;&gt;Node1</title>
<path fill="none" stroke="#9a32cd" stroke-dasharray="5,2" d="M142.5,-155.21C142.5,-120.041 142.5,-50.0492 142.5,-23.5224"/>
<polygon fill="#9a32cd" stroke="#9a32cd" points="139,-155.305 142.5,-165.305 146,-155.305 139,-155.305"/>
<text text-anchor="middle" x="193" y="-98.3" font-family="Helvetica,sans-Serif" font-size="14.00"> filename_output</text>
<text text-anchor="middle" x="193" y="-83.3" font-family="Helvetica,sans-Serif" font-size="14.00">dirname_output</text>
</g>
<!-- Node4 -->
<g id="node4" class="node"><title>Node4</title>
<polygon fill="white" stroke="#bfbfbf" points="245.5,-165.5 245.5,-188.5 287.5,-188.5 287.5,-165.5 245.5,-165.5"/>
<text text-anchor="middle" x="266.5" y="-173.3" font-family="Helvetica,sans-Serif" font-size="14.00">bool</text>
</g>
<!-- Node4&#45;&gt;Node1 -->
<g id="edge3" class="edge"><title>Node4&#45;&gt;Node1</title>
<path fill="none" stroke="#9a32cd" stroke-dasharray="5,2" d="M269.381,-155.144C272.155,-126.063 272.482,-73.377 244.5,-42 237.209,-33.8246 227.798,-27.883 217.645,-23.5783"/>
<polygon fill="#9a32cd" stroke="#9a32cd" points="265.87,-155.039 268.207,-165.373 272.824,-155.837 265.87,-155.039"/>
<text text-anchor="middle" x="327" y="-135.8" font-family="Helvetica,sans-Serif" font-size="14.00"> is_pure_neumann</text>
<text text-anchor="middle" x="327" y="-120.8" font-family="Helvetica,sans-Serif" font-size="14.00">renumber_dofs</text>
<text text-anchor="middle" x="327" y="-105.8" font-family="Helvetica,sans-Serif" font-size="14.00">degree</text>
<text text-anchor="middle" x="327" y="-90.8" font-family="Helvetica,sans-Serif" font-size="14.00">use_direct_solver</text>
<text text-anchor="middle" x="327" y="-75.8" font-family="Helvetica,sans-Serif" font-size="14.00">verbose</text>
<text text-anchor="middle" x="327" y="-60.8" font-family="Helvetica,sans-Serif" font-size="14.00">compute_solution</text>
<text text-anchor="middle" x="327" y="-45.8" font-family="Helvetica,sans-Serif" font-size="14.00">is_laplace</text>
</g>
</g>
</svg>
