<?xml version="1.0" encoding="UTF-8" standalone="no"?>
<!DOCTYPE svg PUBLIC "-//W3C//DTD SVG 1.1//EN"
 "http://www.w3.org/Graphics/SVG/1.1/DTD/svg11.dtd">
<!-- Generated by graphviz version 2.38.0 (20140413.2041)
 -->
<!-- Title: Q::ParametersMs Pages: 1 -->
<svg width="385pt" height="242pt"
 viewBox="0.00 0.00 384.50 242.00" xmlns="http://www.w3.org/2000/svg" xmlns:xlink="http://www.w3.org/1999/xlink">
<g id="graph0" class="graph" transform="scale(1 1) rotate(0) translate(4 238)">
<title>Q::ParametersMs</title>
<polygon fill="white" stroke="none" points="-4,4 -4,-238 380.5,-238 380.5,4 -4,4"/>
<!-- Node1 -->
<g id="node1" class="node"><title>Node1</title>
<polygon fill="#bfbfbf" stroke="black" points="73,-0.5 73,-23.5 198,-23.5 198,-0.5 73,-0.5"/>
<text text-anchor="middle" x="135.5" y="-8.3" font-family="Helvetica,sans-Serif" font-size="14.00">Q::ParametersMs</text>
</g>
<!-- Node2 -->
<g id="node2" class="node"><title>Node2</title>
<polygon fill="white" stroke="#bfbfbf" points="0,-210.5 0,-233.5 31,-233.5 31,-210.5 0,-210.5"/>
<text text-anchor="middle" x="15.5" y="-218.3" font-family="Helvetica,sans-Serif" font-size="14.00">int</text>
</g>
<!-- Node2&#45;&gt;Node1 -->
<g id="edge1" class="edge"><title>Node2&#45;&gt;Node1</title>
<path fill="none" stroke="#9a32cd" stroke-dasharray="5,2" d="M10.9613,-200.166C4.29665,-163.569 -3.56273,-87.3303 34.5,-42 44.2369,-30.4039 58.277,-23.2788 72.8063,-18.9444"/>
<polygon fill="#9a32cd" stroke="#9a32cd" points="7.56646,-201.041 12.9391,-210.173 14.4336,-199.684 7.56646,-201.041"/>
<text text-anchor="middle" x="83" y="-120.8" font-family="Helvetica,sans-Serif" font-size="14.00"> n_refine_global</text>
<text text-anchor="middle" x="83" y="-105.8" font-family="Helvetica,sans-Serif" font-size="14.00">n_refine_local</text>
</g>
<!-- Node3 -->
<g id="node3" class="node"><title>Node3</title>
<polygon fill="white" stroke="#bfbfbf" points="110.5,-210.5 110.5,-233.5 160.5,-233.5 160.5,-210.5 110.5,-210.5"/>
<text text-anchor="middle" x="135.5" y="-218.3" font-family="Helvetica,sans-Serif" font-size="14.00">string</text>
</g>
<!-- Node3&#45;&gt;Node1 -->
<g id="edge2" class="edge"><title>Node3&#45;&gt;Node1</title>
<path fill="none" stroke="#9a32cd" stroke-dasharray="5,2" d="M135.5,-200.374C135.5,-156.734 135.5,-56.3735 135.5,-23.5794"/>
<polygon fill="#9a32cd" stroke="#9a32cd" points="132,-200.399 135.5,-210.399 139,-200.399 132,-200.399"/>
<text text-anchor="middle" x="186" y="-120.8" font-family="Helvetica,sans-Serif" font-size="14.00"> filename_output</text>
<text text-anchor="middle" x="186" y="-105.8" font-family="Helvetica,sans-Serif" font-size="14.00">dirname_output</text>
</g>
<!-- Node4 -->
<g id="node4" class="node"><title>Node4</title>
<polygon fill="white" stroke="#bfbfbf" points="238.5,-210.5 238.5,-233.5 280.5,-233.5 280.5,-210.5 238.5,-210.5"/>
<text text-anchor="middle" x="259.5" y="-218.3" font-family="Helvetica,sans-Serif" font-size="14.00">bool</text>
</g>
<!-- Node4&#45;&gt;Node1 -->
<g id="edge3" class="edge"><title>Node4&#45;&gt;Node1</title>
<path fill="none" stroke="#9a32cd" stroke-dasharray="5,2" d="M263.638,-200.109C269.608,-163.423 276.068,-87.0491 237.5,-42 227.443,-30.2526 213.004,-23.0921 198.141,-18.7732"/>
<polygon fill="#9a32cd" stroke="#9a32cd" points="260.159,-199.683 261.851,-210.142 267.05,-200.91 260.159,-199.683"/>
<text text-anchor="middle" x="322" y="-180.8" font-family="Helvetica,sans-Serif" font-size="14.00"> verbose_basis</text>
<text text-anchor="middle" x="322" y="-165.8" font-family="Helvetica,sans-Serif" font-size="14.00">prevent_output</text>
<text text-anchor="middle" x="322" y="-150.8" font-family="Helvetica,sans-Serif" font-size="14.00">is_pure_neumann</text>
<text text-anchor="middle" x="322" y="-135.8" font-family="Helvetica,sans-Serif" font-size="14.00">renumber_dofs</text>
<text text-anchor="start" x="267.5" y="-120.8" font-family="Helvetica,sans-Serif" font-size="14.00">use_direct_solver</text>
<text text-anchor="middle" x="322" y="-105.8" font-family="Helvetica,sans-Serif" font-size="14.00">_basis</text>
<text text-anchor="middle" x="322" y="-90.8" font-family="Helvetica,sans-Serif" font-size="14.00">use_direct_solver</text>
<text text-anchor="middle" x="322" y="-75.8" font-family="Helvetica,sans-Serif" font-size="14.00">verbose</text>
<text text-anchor="middle" x="322" y="-60.8" font-family="Helvetica,sans-Serif" font-size="14.00">compute_solution</text>
<text text-anchor="middle" x="322" y="-45.8" font-family="Helvetica,sans-Serif" font-size="14.00">is_laplace</text>
</g>
</g>
</svg>
