<?xml version="1.0" encoding="UTF-8" standalone="no"?>
<!DOCTYPE svg PUBLIC "-//W3C//DTD SVG 1.1//EN"
 "http://www.w3.org/Graphics/SVG/1.1/DTD/svg11.dtd">
<!-- Generated by graphviz version 2.38.0 (20140413.2041)
 -->
<!-- Title: NedRT::ParametersStd Pages: 1 -->
<svg width="397pt" height="182pt"
 viewBox="0.00 0.00 396.50 182.00" xmlns="http://www.w3.org/2000/svg" xmlns:xlink="http://www.w3.org/1999/xlink">
<g id="graph0" class="graph" transform="scale(1 1) rotate(0) translate(4 178)">
<title>NedRT::ParametersStd</title>
<polygon fill="white" stroke="none" points="-4,4 -4,-178 392.5,-178 392.5,4 -4,4"/>
<!-- Node1 -->
<g id="node1" class="node"><title>Node1</title>
<polygon fill="#bfbfbf" stroke="black" points="63.5,-0.5 63.5,-23.5 221.5,-23.5 221.5,-0.5 63.5,-0.5"/>
<text text-anchor="middle" x="142.5" y="-8.3" font-family="Helvetica,sans-Serif" font-size="14.00">NedRT::ParametersStd</text>
</g>
<!-- Node2 -->
<g id="node2" class="node"><title>Node2</title>
<polygon fill="white" stroke="#bfbfbf" points="0,-150.5 0,-173.5 31,-173.5 31,-150.5 0,-150.5"/>
<text text-anchor="middle" x="15.5" y="-158.3" font-family="Helvetica,sans-Serif" font-size="14.00">int</text>
</g>
<!-- Node2&#45;&gt;Node1 -->
<g id="edge1" class="edge"><title>Node2&#45;&gt;Node1</title>
<path fill="none" stroke="#9a32cd" stroke-dasharray="5,2" d="M12.5668,-140.178C10.1122,-113.91 10.2368,-68.9276 34.5,-42 42.2975,-33.3463 52.3725,-27.1559 63.2292,-22.7497"/>
<polygon fill="#9a32cd" stroke="#9a32cd" points="9.09745,-140.646 13.7138,-150.182 16.0519,-139.848 9.09745,-140.646"/>
<text text-anchor="middle" x="86.5" y="-90.8" font-family="Helvetica,sans-Serif" font-size="14.00"> transfer_to_level</text>
<text text-anchor="middle" x="86.5" y="-75.8" font-family="Helvetica,sans-Serif" font-size="14.00">n_refine</text>
</g>
<!-- Node3 -->
<g id="node3" class="node"><title>Node3</title>
<polygon fill="white" stroke="#bfbfbf" points="117.5,-150.5 117.5,-173.5 167.5,-173.5 167.5,-150.5 117.5,-150.5"/>
<text text-anchor="middle" x="142.5" y="-158.3" font-family="Helvetica,sans-Serif" font-size="14.00">string</text>
</g>
<!-- Node3&#45;&gt;Node1 -->
<g id="edge2" class="edge"><title>Node3&#45;&gt;Node1</title>
<path fill="none" stroke="#9a32cd" stroke-dasharray="5,2" d="M142.5,-140.32C142.5,-108.3 142.5,-47.8794 142.5,-23.5474"/>
<polygon fill="#9a32cd" stroke="#9a32cd" points="139,-140.356 142.5,-150.356 146,-140.356 139,-140.356"/>
<text text-anchor="middle" x="193" y="-90.8" font-family="Helvetica,sans-Serif" font-size="14.00"> filename_output</text>
<text text-anchor="middle" x="193" y="-75.8" font-family="Helvetica,sans-Serif" font-size="14.00">dirname_output</text>
</g>
<!-- Node4 -->
<g id="node4" class="node"><title>Node4</title>
<polygon fill="white" stroke="#bfbfbf" points="245.5,-150.5 245.5,-173.5 287.5,-173.5 287.5,-150.5 245.5,-150.5"/>
<text text-anchor="middle" x="266.5" y="-158.3" font-family="Helvetica,sans-Serif" font-size="14.00">bool</text>
</g>
<!-- Node4&#45;&gt;Node1 -->
<g id="edge3" class="edge"><title>Node4&#45;&gt;Node1</title>
<path fill="none" stroke="#9a32cd" stroke-dasharray="5,2" d="M268.769,-140.176C270.414,-113.906 268.998,-68.9216 244.5,-42 237.066,-33.8302 227.513,-27.8969 217.244,-23.6007"/>
<polygon fill="#9a32cd" stroke="#9a32cd" points="265.278,-139.925 267.935,-150.181 272.254,-140.506 265.278,-139.925"/>
<text text-anchor="middle" x="328.5" y="-120.8" font-family="Helvetica,sans-Serif" font-size="14.00"> use_exact_solution</text>
<text text-anchor="middle" x="328.5" y="-105.8" font-family="Helvetica,sans-Serif" font-size="14.00">renumber_dofs</text>
<text text-anchor="middle" x="328.5" y="-90.8" font-family="Helvetica,sans-Serif" font-size="14.00">degree</text>
<text text-anchor="middle" x="328.5" y="-75.8" font-family="Helvetica,sans-Serif" font-size="14.00">use_direct_solver</text>
<text text-anchor="middle" x="328.5" y="-60.8" font-family="Helvetica,sans-Serif" font-size="14.00">verbose</text>
<text text-anchor="middle" x="328.5" y="-45.8" font-family="Helvetica,sans-Serif" font-size="14.00">compute_solution</text>
</g>
</g>
</svg>
