<?xml version="1.0" encoding="UTF-8" standalone="no"?>
<!DOCTYPE svg PUBLIC "-//W3C//DTD SVG 1.1//EN"
 "http://www.w3.org/Graphics/SVG/1.1/DTD/svg11.dtd">
<!-- Generated by graphviz version 2.38.0 (20140413.2041)
 -->
<!-- Title: Q::ParametersBasis Pages: 1 -->
<svg width="376pt" height="197pt"
 viewBox="0.00 0.00 375.50 197.00" xmlns="http://www.w3.org/2000/svg" xmlns:xlink="http://www.w3.org/1999/xlink">
<g id="graph0" class="graph" transform="scale(1 1) rotate(0) translate(4 193)">
<title>Q::ParametersBasis</title>
<polygon fill="white" stroke="none" points="-4,4 -4,-193 371.5,-193 371.5,4 -4,4"/>
<!-- Node1 -->
<g id="node1" class="node"><title>Node1</title>
<polygon fill="#bfbfbf" stroke="black" points="66,-0.5 66,-23.5 205,-23.5 205,-0.5 66,-0.5"/>
<text text-anchor="middle" x="135.5" y="-8.3" font-family="Helvetica,sans-Serif" font-size="14.00">Q::ParametersBasis</text>
</g>
<!-- Node2 -->
<g id="node2" class="node"><title>Node2</title>
<polygon fill="white" stroke="#bfbfbf" points="0,-165.5 0,-188.5 31,-188.5 31,-165.5 0,-165.5"/>
<text text-anchor="middle" x="15.5" y="-173.3" font-family="Helvetica,sans-Serif" font-size="14.00">int</text>
</g>
<!-- Node2&#45;&gt;Node1 -->
<g id="edge1" class="edge"><title>Node2&#45;&gt;Node1</title>
<path fill="none" stroke="#9a32cd" stroke-dasharray="5,2" d="M12.0903,-155.209C8.59104,-126.205 6.99668,-73.6111 34.5,-42 42.7625,-32.5035 53.9083,-26.0194 65.783,-21.6137"/>
<polygon fill="#9a32cd" stroke="#9a32cd" points="8.66572,-155.991 13.521,-165.408 15.5979,-155.019 8.66572,-155.991"/>
<text text-anchor="middle" x="83" y="-105.8" font-family="Helvetica,sans-Serif" font-size="14.00"> n_refine_global</text>
<text text-anchor="middle" x="83" y="-90.8" font-family="Helvetica,sans-Serif" font-size="14.00">n_refine_local</text>
<text text-anchor="middle" x="83" y="-75.8" font-family="Helvetica,sans-Serif" font-size="14.00">degree</text>
</g>
<!-- Node3 -->
<g id="node3" class="node"><title>Node3</title>
<polygon fill="white" stroke="#bfbfbf" points="110.5,-165.5 110.5,-188.5 160.5,-188.5 160.5,-165.5 110.5,-165.5"/>
<text text-anchor="middle" x="135.5" y="-173.3" font-family="Helvetica,sans-Serif" font-size="14.00">string</text>
</g>
<!-- Node3&#45;&gt;Node1 -->
<g id="edge2" class="edge"><title>Node3&#45;&gt;Node1</title>
<path fill="none" stroke="#9a32cd" stroke-dasharray="5,2" d="M135.5,-155.21C135.5,-120.041 135.5,-50.0492 135.5,-23.5224"/>
<polygon fill="#9a32cd" stroke="#9a32cd" points="132,-155.305 135.5,-165.305 139,-155.305 132,-155.305"/>
<text text-anchor="middle" x="185" y="-98.3" font-family="Helvetica,sans-Serif" font-size="14.00"> dirname_output</text>
<text text-anchor="middle" x="185" y="-83.3" font-family="Helvetica,sans-Serif" font-size="14.00">filename_global</text>
</g>
<!-- Node4 -->
<g id="node4" class="node"><title>Node4</title>
<polygon fill="white" stroke="#bfbfbf" points="236.5,-165.5 236.5,-188.5 278.5,-188.5 278.5,-165.5 236.5,-165.5"/>
<text text-anchor="middle" x="257.5" y="-173.3" font-family="Helvetica,sans-Serif" font-size="14.00">bool</text>
</g>
<!-- Node4&#45;&gt;Node1 -->
<g id="edge3" class="edge"><title>Node4&#45;&gt;Node1</title>
<path fill="none" stroke="#9a32cd" stroke-dasharray="5,2" d="M260.358,-155.165C263.105,-126.107 263.399,-73.4504 235.5,-42 227.403,-32.8723 216.624,-26.5418 205.139,-22.1681"/>
<polygon fill="#9a32cd" stroke="#9a32cd" points="256.848,-155.052 259.195,-165.384 263.803,-155.844 256.848,-155.052"/>
<text text-anchor="middle" x="314.5" y="-135.8" font-family="Helvetica,sans-Serif" font-size="14.00"> prevent_output</text>
<text text-anchor="middle" x="314.5" y="-120.8" font-family="Helvetica,sans-Serif" font-size="14.00">renumber_dofs</text>
<text text-anchor="middle" x="314.5" y="-105.8" font-family="Helvetica,sans-Serif" font-size="14.00">set_to_std</text>
<text text-anchor="middle" x="314.5" y="-90.8" font-family="Helvetica,sans-Serif" font-size="14.00">use_direct_solver</text>
<text text-anchor="middle" x="314.5" y="-75.8" font-family="Helvetica,sans-Serif" font-size="14.00">verbose</text>
<text text-anchor="middle" x="314.5" y="-60.8" font-family="Helvetica,sans-Serif" font-size="14.00">is_laplace</text>
<text text-anchor="middle" x="314.5" y="-45.8" font-family="Helvetica,sans-Serif" font-size="14.00">output_flag</text>
</g>
</g>
</svg>
