<?xml version="1.0" encoding="UTF-8" standalone="no"?>
<!DOCTYPE svg PUBLIC "-//W3C//DTD SVG 1.1//EN"
 "http://www.w3.org/Graphics/SVG/1.1/DTD/svg11.dtd">
<!-- Generated by graphviz version 2.38.0 (20140413.2041)
 -->
<!-- Title: QNed::ParametersBasis Pages: 1 -->
<svg width="391pt" height="212pt"
 viewBox="0.00 0.00 390.50 212.00" xmlns="http://www.w3.org/2000/svg" xmlns:xlink="http://www.w3.org/1999/xlink">
<g id="graph0" class="graph" transform="scale(1 1) rotate(0) translate(4 208)">
<title>QNed::ParametersBasis</title>
<polygon fill="white" stroke="none" points="-4,4 -4,-208 386.5,-208 386.5,4 -4,4"/>
<!-- Node1 -->
<g id="node1" class="node"><title>Node1</title>
<polygon fill="#bfbfbf" stroke="black" points="53.5,-0.5 53.5,-23.5 217.5,-23.5 217.5,-0.5 53.5,-0.5"/>
<text text-anchor="middle" x="135.5" y="-8.3" font-family="Helvetica,sans-Serif" font-size="14.00">QNed::ParametersBasis</text>
</g>
<!-- Node2 -->
<g id="node2" class="node"><title>Node2</title>
<polygon fill="white" stroke="#bfbfbf" points="0,-180.5 0,-203.5 31,-203.5 31,-180.5 0,-180.5"/>
<text text-anchor="middle" x="15.5" y="-188.3" font-family="Helvetica,sans-Serif" font-size="14.00">int</text>
</g>
<!-- Node2&#45;&gt;Node1 -->
<g id="edge1" class="edge"><title>Node2&#45;&gt;Node1</title>
<path fill="none" stroke="#9a32cd" stroke-dasharray="5,2" d="M11.6425,-170.179C7.05423,-138.517 3.50072,-78.1377 34.5,-42 41.5079,-33.8304 50.6503,-27.8862 60.5711,-23.5754"/>
<polygon fill="#9a32cd" stroke="#9a32cd" points="8.25297,-171.141 13.3176,-180.447 15.1616,-170.014 8.25297,-171.141"/>
<text text-anchor="middle" x="83" y="-113.3" font-family="Helvetica,sans-Serif" font-size="14.00"> n_refine_global</text>
<text text-anchor="middle" x="83" y="-98.3" font-family="Helvetica,sans-Serif" font-size="14.00">n_refine_local</text>
<text text-anchor="middle" x="83" y="-83.3" font-family="Helvetica,sans-Serif" font-size="14.00">degree</text>
</g>
<!-- Node3 -->
<g id="node3" class="node"><title>Node3</title>
<polygon fill="white" stroke="#bfbfbf" points="110.5,-180.5 110.5,-203.5 160.5,-203.5 160.5,-180.5 110.5,-180.5"/>
<text text-anchor="middle" x="135.5" y="-188.3" font-family="Helvetica,sans-Serif" font-size="14.00">string</text>
</g>
<!-- Node3&#45;&gt;Node1 -->
<g id="edge2" class="edge"><title>Node3&#45;&gt;Node1</title>
<path fill="none" stroke="#9a32cd" stroke-dasharray="5,2" d="M135.5,-169.991C135.5,-131.872 135.5,-52.5931 135.5,-23.7711"/>
<polygon fill="#9a32cd" stroke="#9a32cd" points="132,-170.398 135.5,-180.398 139,-170.398 132,-170.398"/>
<text text-anchor="middle" x="185" y="-105.8" font-family="Helvetica,sans-Serif" font-size="14.00"> dirname_output</text>
<text text-anchor="middle" x="185" y="-90.8" font-family="Helvetica,sans-Serif" font-size="14.00">filename_global</text>
</g>
<!-- Node4 -->
<g id="node4" class="node"><title>Node4</title>
<polygon fill="white" stroke="#bfbfbf" points="236.5,-180.5 236.5,-203.5 278.5,-203.5 278.5,-180.5 236.5,-180.5"/>
<text text-anchor="middle" x="257.5" y="-188.3" font-family="Helvetica,sans-Serif" font-size="14.00">bool</text>
</g>
<!-- Node4&#45;&gt;Node1 -->
<g id="edge3" class="edge"><title>Node4&#45;&gt;Node1</title>
<path fill="none" stroke="#9a32cd" stroke-dasharray="5,2" d="M260.856,-170.138C264.697,-138.421 266.893,-77.9688 235.5,-42 228.368,-33.8286 219.086,-27.8946 209.054,-23.598"/>
<polygon fill="#9a32cd" stroke="#9a32cd" points="257.336,-170.037 259.425,-180.424 264.269,-171.002 257.336,-170.037"/>
<text text-anchor="middle" x="322.5" y="-150.8" font-family="Helvetica,sans-Serif" font-size="14.00"> use_exact_solution</text>
<text text-anchor="middle" x="322.5" y="-135.8" font-family="Helvetica,sans-Serif" font-size="14.00">full_rhs</text>
<text text-anchor="middle" x="322.5" y="-120.8" font-family="Helvetica,sans-Serif" font-size="14.00">prevent_output</text>
<text text-anchor="middle" x="322.5" y="-105.8" font-family="Helvetica,sans-Serif" font-size="14.00">renumber_dofs</text>
<text text-anchor="middle" x="322.5" y="-90.8" font-family="Helvetica,sans-Serif" font-size="14.00">set_to_std</text>
<text text-anchor="middle" x="322.5" y="-75.8" font-family="Helvetica,sans-Serif" font-size="14.00">use_direct_solver</text>
<text text-anchor="middle" x="322.5" y="-60.8" font-family="Helvetica,sans-Serif" font-size="14.00">verbose</text>
<text text-anchor="middle" x="322.5" y="-45.8" font-family="Helvetica,sans-Serif" font-size="14.00">output_flag</text>
</g>
</g>
</svg>
