<?xml version="1.0" encoding="UTF-8" standalone="no"?>
<!DOCTYPE svg PUBLIC "-//W3C//DTD SVG 1.1//EN"
 "http://www.w3.org/Graphics/SVG/1.1/DTD/svg11.dtd">
<!-- Generated by graphviz version 2.38.0 (20140413.2041)
 -->
<!-- Title: /home/travis/build/konsim83/MPI&#45;MSFEC/include/trunk/vector_shape_function.h Pages: 1 -->
<svg width="3233pt" height="152pt"
 viewBox="0.00 0.00 3232.50 152.00" xmlns="http://www.w3.org/2000/svg" xmlns:xlink="http://www.w3.org/1999/xlink">
<g id="graph0" class="graph" transform="scale(1 1) rotate(0) translate(4 148)">
<title>/home/travis/build/konsim83/MPI&#45;MSFEC/include/trunk/vector_shape_function.h</title>
<polygon fill="white" stroke="none" points="-4,4 -4,-148 3228.5,-148 3228.5,4 -4,4"/>
<!-- Node1 -->
<g id="node1" class="node"><title>Node1</title>
<polygon fill="#bfbfbf" stroke="black" points="1688,-75.5 1688,-143.5 1848,-143.5 1848,-75.5 1688,-75.5"/>
<text text-anchor="start" x="1696" y="-128.3" font-family="Helvetica,sans-Serif" font-size="14.00">/home/travis/build</text>
<text text-anchor="start" x="1696" y="-113.3" font-family="Helvetica,sans-Serif" font-size="14.00">/konsim83/MPI&#45;MSFEC</text>
<text text-anchor="start" x="1696" y="-98.3" font-family="Helvetica,sans-Serif" font-size="14.00">/include/trunk/vector</text>
<text text-anchor="middle" x="1768" y="-83.3" font-family="Helvetica,sans-Serif" font-size="14.00">_shape_function.h</text>
</g>
<!-- Node2 -->
<g id="node2" class="node"><title>Node2</title>
<polygon fill="white" stroke="#bfbfbf" points="0,-8 0,-31 166,-31 166,-8 0,-8"/>
<text text-anchor="middle" x="83" y="-15.8" font-family="Helvetica,sans-Serif" font-size="14.00">deal.II/base/exceptions.h</text>
</g>
<!-- Node1&#45;&gt;Node2 -->
<g id="edge1" class="edge"><title>Node1&#45;&gt;Node2</title>
<path fill="none" stroke="midnightblue" d="M1687.66,-106.642C1407.21,-99.8999 472.644,-75.1979 175,-39 162.997,-37.5402 150.221,-35.3719 138.129,-33.0286"/>
<polygon fill="midnightblue" stroke="midnightblue" points="138.657,-29.565 128.164,-31.0308 137.281,-36.4284 138.657,-29.565"/>
</g>
<!-- Node3 -->
<g id="node3" class="node"><title>Node3</title>
<polygon fill="white" stroke="#bfbfbf" points="184.5,-8 184.5,-31 333.5,-31 333.5,-8 184.5,-8"/>
<text text-anchor="middle" x="259" y="-15.8" font-family="Helvetica,sans-Serif" font-size="14.00">deal.II/base/function.h</text>
</g>
<!-- Node1&#45;&gt;Node3 -->
<g id="edge2" class="edge"><title>Node1&#45;&gt;Node3</title>
<path fill="none" stroke="midnightblue" d="M1687.59,-106.388C1426.64,-99.2503 605.143,-74.4745 342,-39 331.467,-37.58 320.294,-35.4956 309.674,-33.2328"/>
<polygon fill="midnightblue" stroke="midnightblue" points="310.221,-29.7692 299.701,-31.0245 308.707,-36.6036 310.221,-29.7692"/>
</g>
<!-- Node4 -->
<g id="node4" class="node"><title>Node4</title>
<polygon fill="white" stroke="#bfbfbf" points="351.5,-8 351.5,-31 482.5,-31 482.5,-8 351.5,-8"/>
<text text-anchor="middle" x="417" y="-15.8" font-family="Helvetica,sans-Serif" font-size="14.00">deal.II/base/point.h</text>
</g>
<!-- Node1&#45;&gt;Node4 -->
<g id="edge3" class="edge"><title>Node1&#45;&gt;Node4</title>
<path fill="none" stroke="midnightblue" d="M1687.99,-106.143C1445.9,-98.6972 723.583,-74.0741 491,-39 481.865,-37.6223 472.212,-35.6216 463.004,-33.4397"/>
<polygon fill="midnightblue" stroke="midnightblue" points="463.779,-30.026 453.231,-31.0219 462.098,-36.8211 463.779,-30.026"/>
</g>
<!-- Node5 -->
<g id="node5" class="node"><title>Node5</title>
<polygon fill="white" stroke="#bfbfbf" points="500.5,-0.5 500.5,-38.5 655.5,-38.5 655.5,-0.5 500.5,-0.5"/>
<text text-anchor="start" x="508.5" y="-23.3" font-family="Helvetica,sans-Serif" font-size="14.00">deal.II/base/quadrature</text>
<text text-anchor="middle" x="578" y="-8.3" font-family="Helvetica,sans-Serif" font-size="14.00">_lib.h</text>
</g>
<!-- Node1&#45;&gt;Node5 -->
<g id="edge4" class="edge"><title>Node1&#45;&gt;Node5</title>
<path fill="none" stroke="midnightblue" d="M1687.93,-107.541C1506.99,-104.49 1052.8,-91.884 665.717,-39.1351"/>
<polygon fill="midnightblue" stroke="midnightblue" points="666.107,-35.656 655.723,-37.7623 665.154,-42.5908 666.107,-35.656"/>
</g>
<!-- Node6 -->
<g id="node6" class="node"><title>Node6</title>
<polygon fill="white" stroke="#bfbfbf" points="673.5,-8 673.5,-31 812.5,-31 812.5,-8 673.5,-8"/>
<text text-anchor="middle" x="743" y="-15.8" font-family="Helvetica,sans-Serif" font-size="14.00">deal.II/base/tensor.h</text>
</g>
<!-- Node1&#45;&gt;Node6 -->
<g id="edge5" class="edge"><title>Node1&#45;&gt;Node6</title>
<path fill="none" stroke="midnightblue" d="M1687.79,-106.841C1524.13,-102.525 1140.25,-87.6471 822,-39 812.389,-37.5308 802.217,-35.509 792.486,-33.3394"/>
<polygon fill="midnightblue" stroke="midnightblue" points="793.079,-29.8841 782.547,-31.0419 791.502,-36.7042 793.079,-29.8841"/>
</g>
<!-- Node7 -->
<g id="node7" class="node"><title>Node7</title>
<polygon fill="white" stroke="#bfbfbf" points="831,-8 831,-31 1009,-31 1009,-8 831,-8"/>
<text text-anchor="middle" x="920" y="-15.8" font-family="Helvetica,sans-Serif" font-size="14.00">deal.II/dofs/dof_accessor.h</text>
</g>
<!-- Node1&#45;&gt;Node7 -->
<g id="edge6" class="edge"><title>Node1&#45;&gt;Node7</title>
<path fill="none" stroke="midnightblue" d="M1687.96,-103.631C1550.35,-94.6933 1260.26,-73.372 1017,-39 1005.06,-37.3135 992.368,-35.1578 980.229,-32.918"/>
<polygon fill="midnightblue" stroke="midnightblue" points="980.667,-29.439 970.192,-31.0251 979.37,-36.3178 980.667,-29.439"/>
</g>
<!-- Node8 -->
<g id="node8" class="node"><title>Node8</title>
<polygon fill="white" stroke="#bfbfbf" points="1026.5,-8 1026.5,-31 1195.5,-31 1195.5,-8 1026.5,-8"/>
<text text-anchor="middle" x="1111" y="-15.8" font-family="Helvetica,sans-Serif" font-size="14.00">deal.II/dofs/dof_handler.h</text>
</g>
<!-- Node1&#45;&gt;Node8 -->
<g id="edge7" class="edge"><title>Node1&#45;&gt;Node8</title>
<path fill="none" stroke="midnightblue" d="M1687.57,-100.4C1578.08,-88.9567 1376.16,-66.3713 1205,-39 1194.06,-37.2505 1182.45,-35.159 1171.26,-33.0219"/>
<polygon fill="midnightblue" stroke="midnightblue" points="1171.61,-29.5254 1161.13,-31.0549 1170.28,-36.3971 1171.61,-29.5254"/>
</g>
<!-- Node9 -->
<g id="node9" class="node"><title>Node9</title>
<polygon fill="white" stroke="#bfbfbf" points="1214,-8 1214,-31 1366,-31 1366,-8 1214,-8"/>
<text text-anchor="middle" x="1290" y="-15.8" font-family="Helvetica,sans-Serif" font-size="14.00">deal.II/dofs/dof_tools.h</text>
</g>
<!-- Node1&#45;&gt;Node9 -->
<g id="edge8" class="edge"><title>Node1&#45;&gt;Node9</title>
<path fill="none" stroke="midnightblue" d="M1687.67,-95.2431C1608.12,-81.8919 1482.92,-60.2776 1375,-39 1365.76,-37.1787 1355.98,-35.1472 1346.47,-33.1161"/>
<polygon fill="midnightblue" stroke="midnightblue" points="1347.21,-29.6942 1336.7,-31.0083 1345.73,-36.537 1347.21,-29.6942"/>
</g>
<!-- Node10 -->
<g id="node10" class="node"><title>Node10</title>
<polygon fill="white" stroke="#bfbfbf" points="1384.5,-8 1384.5,-31 1515.5,-31 1515.5,-8 1384.5,-8"/>
<text text-anchor="middle" x="1450" y="-15.8" font-family="Helvetica,sans-Serif" font-size="14.00">deal.II/fe/fe_tools.h</text>
</g>
<!-- Node1&#45;&gt;Node10 -->
<g id="edge9" class="edge"><title>Node1&#45;&gt;Node10</title>
<path fill="none" stroke="midnightblue" d="M1687.76,-86.2939C1628.02,-69.7646 1548.46,-47.7456 1498.22,-33.8435"/>
<polygon fill="midnightblue" stroke="midnightblue" points="1498.84,-30.3841 1488.27,-31.0902 1496.97,-37.1306 1498.84,-30.3841"/>
</g>
<!-- Node11 -->
<g id="node11" class="node"><title>Node11</title>
<polygon fill="white" stroke="#bfbfbf" points="1533.5,-8 1533.5,-31 1674.5,-31 1674.5,-8 1533.5,-8"/>
<text text-anchor="middle" x="1604" y="-15.8" font-family="Helvetica,sans-Serif" font-size="14.00">deal.II/fe/fe_values.h</text>
</g>
<!-- Node1&#45;&gt;Node11 -->
<g id="edge10" class="edge"><title>Node1&#45;&gt;Node11</title>
<path fill="none" stroke="midnightblue" d="M1706.47,-75.4817C1681.2,-61.9247 1653.17,-46.8818 1632.82,-35.9626"/>
<polygon fill="midnightblue" stroke="midnightblue" points="1634.23,-32.7515 1623.77,-31.1073 1630.92,-38.9196 1634.23,-32.7515"/>
</g>
<!-- Node12 -->
<g id="node12" class="node"><title>Node12</title>
<polygon fill="white" stroke="#bfbfbf" points="1692.5,-8 1692.5,-31 1843.5,-31 1843.5,-8 1692.5,-8"/>
<text text-anchor="middle" x="1768" y="-15.8" font-family="Helvetica,sans-Serif" font-size="14.00">deal.II/fe/mapping_q.h</text>
</g>
<!-- Node1&#45;&gt;Node12 -->
<g id="edge11" class="edge"><title>Node1&#45;&gt;Node12</title>
<path fill="none" stroke="midnightblue" d="M1768,-75.4817C1768,-64.1426 1768,-51.764 1768,-41.6283"/>
<polygon fill="midnightblue" stroke="midnightblue" points="1771.5,-41.3125 1768,-31.3126 1764.5,-41.3126 1771.5,-41.3125"/>
</g>
<!-- Node13 -->
<g id="node13" class="node"><title>Node13</title>
<polygon fill="white" stroke="#bfbfbf" points="1861.5,-8 1861.5,-31 1974.5,-31 1974.5,-8 1861.5,-8"/>
<text text-anchor="middle" x="1918" y="-15.8" font-family="Helvetica,sans-Serif" font-size="14.00">deal.II/grid/tria.h</text>
</g>
<!-- Node1&#45;&gt;Node13 -->
<g id="edge12" class="edge"><title>Node1&#45;&gt;Node13</title>
<path fill="none" stroke="midnightblue" d="M1824.28,-75.4817C1847.18,-62.0474 1872.57,-47.154 1891.14,-36.2601"/>
<polygon fill="midnightblue" stroke="midnightblue" points="1893.07,-39.1864 1899.92,-31.1073 1889.52,-33.1487 1893.07,-39.1864"/>
</g>
<!-- Node14 -->
<g id="node14" class="node"><title>Node14</title>
<polygon fill="white" stroke="#bfbfbf" points="1992.5,-8 1992.5,-31 2167.5,-31 2167.5,-8 1992.5,-8"/>
<text text-anchor="middle" x="2080" y="-15.8" font-family="Helvetica,sans-Serif" font-size="14.00">deal.II/grid/tria_accessor.h</text>
</g>
<!-- Node1&#45;&gt;Node14 -->
<g id="edge13" class="edge"><title>Node1&#45;&gt;Node14</title>
<path fill="none" stroke="midnightblue" d="M1848.35,-85.8378C1906.79,-69.3533 1983.93,-47.5966 2032.76,-33.8231"/>
<polygon fill="midnightblue" stroke="midnightblue" points="2033.76,-37.1776 2042.44,-31.0943 2031.86,-30.4404 2033.76,-37.1776"/>
</g>
<!-- Node15 -->
<g id="node15" class="node"><title>Node15</title>
<polygon fill="white" stroke="#bfbfbf" points="2185.5,-8 2185.5,-31 2348.5,-31 2348.5,-8 2185.5,-8"/>
<text text-anchor="middle" x="2267" y="-15.8" font-family="Helvetica,sans-Serif" font-size="14.00">deal.II/grid/tria_iterator.h</text>
</g>
<!-- Node1&#45;&gt;Node15 -->
<g id="edge14" class="edge"><title>Node1&#45;&gt;Node15</title>
<path fill="none" stroke="midnightblue" d="M1848.08,-95.7277C1930.64,-82.3645 2063.03,-60.3903 2177,-39 2186.76,-37.1683 2197.09,-35.1335 2207.15,-33.1027"/>
<polygon fill="midnightblue" stroke="midnightblue" points="2207.97,-36.5062 2217.08,-31.081 2206.58,-29.647 2207.97,-36.5062"/>
</g>
<!-- Node16 -->
<g id="node16" class="node"><title>Node16</title>
<polygon fill="white" stroke="#bfbfbf" points="2367,-8 2367,-31 2493,-31 2493,-8 2367,-8"/>
<text text-anchor="middle" x="2430" y="-15.8" font-family="Helvetica,sans-Serif" font-size="14.00">deal.II/lac/vector.h</text>
</g>
<!-- Node1&#45;&gt;Node16 -->
<g id="edge15" class="edge"><title>Node1&#45;&gt;Node16</title>
<path fill="none" stroke="midnightblue" d="M1848.2,-102.489C1962.18,-93.1684 2177.27,-72.7056 2358,-39 2366.12,-37.486 2374.68,-35.5732 2382.95,-33.5554"/>
<polygon fill="midnightblue" stroke="midnightblue" points="2384,-36.899 2392.84,-31.0619 2382.29,-30.1111 2384,-36.899"/>
</g>
<!-- Node17 -->
<g id="node17" class="node"><title>Node17</title>
<polygon fill="white" stroke="#bfbfbf" points="2511,-0.5 2511,-38.5 2665,-38.5 2665,-0.5 2511,-0.5"/>
<text text-anchor="start" x="2519" y="-23.3" font-family="Helvetica,sans-Serif" font-size="14.00">deal.II/numerics/matrix</text>
<text text-anchor="middle" x="2588" y="-8.3" font-family="Helvetica,sans-Serif" font-size="14.00">_tools.h</text>
</g>
<!-- Node1&#45;&gt;Node17 -->
<g id="edge16" class="edge"><title>Node1&#45;&gt;Node17</title>
<path fill="none" stroke="midnightblue" d="M1848.21,-104C1981.73,-95.8266 2258.07,-76.0167 2500.66,-39.1156"/>
<polygon fill="midnightblue" stroke="midnightblue" points="2501.37,-42.5471 2510.72,-37.5713 2500.31,-35.628 2501.37,-42.5471"/>
</g>
<!-- Node18 -->
<g id="node18" class="node"><title>Node18</title>
<polygon fill="white" stroke="#bfbfbf" points="2683.5,-0.5 2683.5,-38.5 2836.5,-38.5 2836.5,-0.5 2683.5,-0.5"/>
<text text-anchor="start" x="2691.5" y="-23.3" font-family="Helvetica,sans-Serif" font-size="14.00">deal.II/numerics/vector</text>
<text text-anchor="middle" x="2760" y="-8.3" font-family="Helvetica,sans-Serif" font-size="14.00">_tools.h</text>
</g>
<!-- Node1&#45;&gt;Node18 -->
<g id="edge17" class="edge"><title>Node1&#45;&gt;Node18</title>
<path fill="none" stroke="midnightblue" d="M1848.08,-105.996C2004.83,-100.302 2363.13,-83.3829 2673.12,-39.0147"/>
<polygon fill="midnightblue" stroke="midnightblue" points="2673.8,-42.4525 2683.2,-37.5597 2672.8,-35.5243 2673.8,-42.4525"/>
</g>
<!-- Node19 -->
<g id="node19" class="node"><title>Node19</title>
<polygon fill="white" stroke="#bfbfbf" points="2855,-8 2855,-31 2917,-31 2917,-8 2855,-8"/>
<text text-anchor="middle" x="2886" y="-15.8" font-family="Helvetica,sans-Serif" font-size="14.00">fstream</text>
</g>
<!-- Node1&#45;&gt;Node19 -->
<g id="edge18" class="edge"><title>Node1&#45;&gt;Node19</title>
<path fill="none" stroke="midnightblue" d="M1848.33,-107.136C2064.89,-102.852 2657.19,-86.9682 2846,-39 2849.89,-38.0109 2853.87,-36.6494 2857.74,-35.1099"/>
<polygon fill="midnightblue" stroke="midnightblue" points="2859.26,-38.2635 2867,-31.027 2856.44,-31.8583 2859.26,-38.2635"/>
</g>
<!-- Node20 -->
<g id="node20" class="node"><title>Node20</title>
<polygon fill="white" stroke="#bfbfbf" points="2935.5,-8 2935.5,-31 3004.5,-31 3004.5,-8 2935.5,-8"/>
<text text-anchor="middle" x="2970" y="-15.8" font-family="Helvetica,sans-Serif" font-size="14.00">iostream</text>
</g>
<!-- Node1&#45;&gt;Node20 -->
<g id="edge19" class="edge"><title>Node1&#45;&gt;Node20</title>
<path fill="none" stroke="midnightblue" d="M1848.4,-107.194C2075.83,-102.941 2720.54,-86.8869 2926,-39 2930.48,-37.9561 2935.08,-36.4953 2939.55,-34.8474"/>
<polygon fill="midnightblue" stroke="midnightblue" points="2941.04,-38.0206 2949,-31.0304 2938.42,-31.5299 2941.04,-38.0206"/>
</g>
<!-- Node21 -->
<g id="node21" class="node"><title>Node21</title>
<polygon fill="white" stroke="#bfbfbf" points="3022.5,-8 3022.5,-31 3075.5,-31 3075.5,-8 3022.5,-8"/>
<text text-anchor="middle" x="3049" y="-15.8" font-family="Helvetica,sans-Serif" font-size="14.00">vector</text>
</g>
<!-- Node1&#45;&gt;Node21 -->
<g id="edge20" class="edge"><title>Node1&#45;&gt;Node21</title>
<path fill="none" stroke="midnightblue" d="M1848.27,-108.488C2087.62,-107.75 2793.38,-100.292 3014,-39 3017.18,-38.1169 3020.4,-36.9146 3023.53,-35.5438"/>
<polygon fill="midnightblue" stroke="midnightblue" points="3025.12,-38.6581 3032.52,-31.0768 3022.01,-32.3881 3025.12,-38.6581"/>
</g>
<!-- Node22 -->
<g id="node22" class="node"><title>Node22</title>
<g id="a_node22"><a xlink:href="vector__shape__function_8tpp.html" target="_top" xlink:title="trunk/vector_shape\l_function.tpp">
<polygon fill="white" stroke="black" points="3093.5,-0.5 3093.5,-38.5 3224.5,-38.5 3224.5,-0.5 3093.5,-0.5"/>
<text text-anchor="start" x="3101.5" y="-23.3" font-family="Helvetica,sans-Serif" font-size="14.00">trunk/vector_shape</text>
<text text-anchor="middle" x="3159" y="-8.3" font-family="Helvetica,sans-Serif" font-size="14.00">_function.tpp</text>
</a>
</g>
</g>
<!-- Node1&#45;&gt;Node22 -->
<g id="edge21" class="edge"><title>Node1&#45;&gt;Node22</title>
<path fill="none" stroke="midnightblue" d="M1848.32,-106.287C2092.52,-99.2425 2824.76,-75.7097 3083.26,-39.0795"/>
<polygon fill="midnightblue" stroke="midnightblue" points="3083.98,-42.5123 3093.36,-37.6044 3082.96,-35.5857 3083.98,-42.5123"/>
</g>
</g>
</svg>
