<?xml version="1.0" encoding="UTF-8" standalone="no"?>
<!DOCTYPE svg PUBLIC "-//W3C//DTD SVG 1.1//EN"
 "http://www.w3.org/Graphics/SVG/1.1/DTD/svg11.dtd">
<!-- Generated by graphviz version 2.38.0 (20140413.2041)
 -->
<!-- Title: /home/travis/build/konsim83/MPI&#45;MSFEC/include/trunk/vector_shape_function_curl.tpp Pages: 1 -->
<svg width="175pt" height="182pt"
 viewBox="0.00 0.00 175.00 182.00" xmlns="http://www.w3.org/2000/svg" xmlns:xlink="http://www.w3.org/1999/xlink">
<g id="graph0" class="graph" transform="scale(1 1) rotate(0) translate(4 178)">
<title>/home/travis/build/konsim83/MPI&#45;MSFEC/include/trunk/vector_shape_function_curl.tpp</title>
<polygon fill="white" stroke="none" points="-4,4 -4,-178 171,-178 171,4 -4,4"/>
<!-- Node1 -->
<g id="node1" class="node"><title>Node1</title>
<polygon fill="#bfbfbf" stroke="black" points="-1.42109e-14,-105.5 -1.42109e-14,-173.5 167,-173.5 167,-105.5 -1.42109e-14,-105.5"/>
<text text-anchor="start" x="8" y="-158.3" font-family="Helvetica,sans-Serif" font-size="14.00">/home/travis/build</text>
<text text-anchor="start" x="8" y="-143.3" font-family="Helvetica,sans-Serif" font-size="14.00">/konsim83/MPI&#45;MSFEC</text>
<text text-anchor="start" x="8" y="-128.3" font-family="Helvetica,sans-Serif" font-size="14.00">/include/trunk/vector</text>
<text text-anchor="middle" x="83.5" y="-113.3" font-family="Helvetica,sans-Serif" font-size="14.00">_shape_function_curl.tpp</text>
</g>
<!-- Node2 -->
<g id="node2" class="node"><title>Node2</title>
<g id="a_node2"><a xlink:href="vector__shape__function__curl_8h.html" target="_top" xlink:title="/home/travis/build\l/konsim83/MPI&#45;MSFEC\l/include/trunk/vector\l_shape_function_curl.h">
<polygon fill="white" stroke="black" points="3.5,-0.5 3.5,-68.5 163.5,-68.5 163.5,-0.5 3.5,-0.5"/>
<text text-anchor="start" x="11.5" y="-53.3" font-family="Helvetica,sans-Serif" font-size="14.00">/home/travis/build</text>
<text text-anchor="start" x="11.5" y="-38.3" font-family="Helvetica,sans-Serif" font-size="14.00">/konsim83/MPI&#45;MSFEC</text>
<text text-anchor="start" x="11.5" y="-23.3" font-family="Helvetica,sans-Serif" font-size="14.00">/include/trunk/vector</text>
<text text-anchor="middle" x="83.5" y="-8.3" font-family="Helvetica,sans-Serif" font-size="14.00">_shape_function_curl.h</text>
</a>
</g>
</g>
<!-- Node1&#45;&gt;Node2 -->
<g id="edge1" class="edge"><title>Node1&#45;&gt;Node2</title>
<path fill="none" stroke="midnightblue" d="M83.5,-95.1362C83.5,-86.256 83.5,-77.0447 83.5,-68.5947"/>
<polygon fill="midnightblue" stroke="midnightblue" points="80.0001,-95.3432 83.5,-105.343 87.0001,-95.3432 80.0001,-95.3432"/>
</g>
</g>
</svg>
